0
SECTION
2
HEADER
9
$INSUNITS
70
2
0
ENDSEC
0
SECTION
2
TABLES
0
TABLE
2
LAYER
70
13
0
LAYER
2
V-PROP-LINE
70
0
62
7
6
CONTINUOUS
0
LAYER
2
A-BLDG-OTLN
70
0
62
3
6
CONTINUOUS
0
LAYER
2
V-PROP-SBCK
70
0
62
1
6
CONTINUOUS
0
LAYER
2
V-PROP-ESMT
70
0
62
5
6
CONTINUOUS
0
LAYER
2
C-LOD
70
0
62
30
6
CONTINUOUS
0
LAYER
2
C-DEMO
70
0
62
1
6
CONTINUOUS
0
LAYER
2
C-PROP
70
0
62
6
6
CONTINUOUS
0
LAYER
2
C-TOPO-SPOT
70
0
62
7
6
CONTINUOUS
0
LAYER
2
C-UTIL
70
0
62
4
6
CONTINUOUS
0
LAYER
2
C-SWM
70
0
62
92
6
CONTINUOUS
0
LAYER
2
C-DRNG-AREA
70
0
62
150
6
CONTINUOUS
0
LAYER
2
C-PVMT
70
0
62
8
6
CONTINUOUS
0
LAYER
2
L-PLNT-TREE
70
0
62
90
6
CONTINUOUS
0
ENDTAB
0
ENDSEC
0
SECTION
2
ENTITIES
0
POLYLINE
8
V-PROP-LINE
66
1
70
1
0
VERTEX
8
V-PROP-LINE
10
1326382.7
20
464763.1
30
0
0
VERTEX
8
V-PROP-LINE
10
1326447.7
20
464763.1
30
0
0
VERTEX
8
V-PROP-LINE
10
1326447.7
20
464863.1
30
0
0
VERTEX
8
V-PROP-LINE
10
1326382.7
20
464863.1
30
0
0
VERTEX
8
V-PROP-LINE
10
1326382.7
20
464763.1
30
0
0
SEQEND
0
POLYLINE
8
A-BLDG-OTLN
66
1
70
1
0
VERTEX
8
A-BLDG-OTLN
10
1326392.7
20
464783.1
30
0
0
VERTEX
8
A-BLDG-OTLN
10
1326422.7
20
464783.1
30
0
0
VERTEX
8
A-BLDG-OTLN
10
1326422.7
20
464813.1
30
0
0
VERTEX
8
A-BLDG-OTLN
10
1326392.7
20
464813.1
30
0
0
VERTEX
8
A-BLDG-OTLN
10
1326392.7
20
464783.1
30
0
0
SEQEND
0
POLYLINE
8
A-BLDG-OTLN
66
1
70
1
0
VERTEX
8
A-BLDG-OTLN
10
1326392.7
20
464783.1
30
0
0
VERTEX
8
A-BLDG-OTLN
10
1326430.7
20
464783.1
30
0
0
VERTEX
8
A-BLDG-OTLN
10
1326430.7
20
464825.1
30
0
0
VERTEX
8
A-BLDG-OTLN
10
1326392.7
20
464825.1
30
0
0
VERTEX
8
A-BLDG-OTLN
10
1326392.7
20
464783.1
30
0
0
SEQEND
0
POLYLINE
8
V-PROP-SBCK
66
1
70
1
0
VERTEX
8
V-PROP-SBCK
10
1326390.7
20
464788.1
30
0
0
VERTEX
8
V-PROP-SBCK
10
1326439.7
20
464788.1
30
0
0
VERTEX
8
V-PROP-SBCK
10
1326439.7
20
464843.1
30
0
0
VERTEX
8
V-PROP-SBCK
10
1326390.7
20
464843.1
30
0
0
VERTEX
8
V-PROP-SBCK
10
1326390.7
20
464788.1
30
0
0
SEQEND
0
POLYLINE
8
V-PROP-ESMT
66
1
70
1
0
VERTEX
8
V-PROP-ESMT
10
1326382.7
20
464853.1
30
0
0
VERTEX
8
V-PROP-ESMT
10
1326447.7
20
464853.1
30
0
0
VERTEX
8
V-PROP-ESMT
10
1326447.7
20
464863.1
30
0
0
VERTEX
8
V-PROP-ESMT
10
1326382.7
20
464863.1
30
0
0
VERTEX
8
V-PROP-ESMT
10
1326382.7
20
464853.1
30
0
0
SEQEND
0
POLYLINE
8
C-LOD
66
1
70
1
0
VERTEX
8
C-LOD
10
1326385.7
20
464775.1
30
0
0
VERTEX
8
C-LOD
10
1326442.7
20
464775.1
30
0
0
VERTEX
8
C-LOD
10
1326442.7
20
464845.1
30
0
0
VERTEX
8
C-LOD
10
1326385.7
20
464845.1
30
0
0
VERTEX
8
C-LOD
10
1326385.7
20
464775.1
30
0
0
SEQEND
0
POLYLINE
8
C-DEMO
66
1
70
1
0
VERTEX
8
C-DEMO
10
1326392.7
20
464783.1
30
0
0
VERTEX
8
C-DEMO
10
1326422.7
20
464783.1
30
0
0
VERTEX
8
C-DEMO
10
1326422.7
20
464813.1
30
0
0
VERTEX
8
C-DEMO
10
1326392.7
20
464813.1
30
0
0
VERTEX
8
C-DEMO
10
1326392.7
20
464783.1
30
0
0
SEQEND
0
POLYLINE
8
C-PROP
66
1
70
1
0
VERTEX
8
C-PROP
10
1326385.424941753
20
464767.2922180815
30
0
0
VERTEX
8
C-PROP
10
1326444.2094993193
20
464766.6800006981
30
0
0
VERTEX
8
C-PROP
10
1326444.9750582469
20
464858.9077819185
30
0
0
VERTEX
8
C-PROP
10
1326384.688037188
20
464858.51222187345
30
0
0
VERTEX
8
C-PROP
10
1326385.424941753
20
464767.2922180815
30
0
0
SEQEND
0
POINT
8
C-TOPO-SPOT
10
1326408.7
20
464803.1
30
0
0
POLYLINE
8
C-UTIL
66
1
70
0
0
VERTEX
8
C-UTIL
10
1326378.7
20
464763.1
30
0
0
VERTEX
8
C-UTIL
10
1326403.9
20
464799.9
30
0
0
SEQEND
0
POLYLINE
8
C-UTIL
66
1
70
0
0
VERTEX
8
C-UTIL
10
1326382.7
20
464763.1
30
0
0
VERTEX
8
C-UTIL
10
1326407.9
20
464799.9
30
0
0
SEQEND
0
POLYLINE
8
C-UTIL
66
1
70
0
0
VERTEX
8
C-UTIL
10
1326386.7
20
464763.1
30
0
0
VERTEX
8
C-UTIL
10
1326411.9
20
464799.9
30
0
0
SEQEND
0
POLYLINE
8
C-SWM
66
1
70
1
0
VERTEX
8
C-SWM
10
1326388.7
20
464769.1
30
0
0
VERTEX
8
C-SWM
10
1326404.1919333849
20
464769.1
30
0
0
VERTEX
8
C-SWM
10
1326404.1919333849
20
464784.59193338477
30
0
0
VERTEX
8
C-SWM
10
1326388.7
20
464784.59193338477
30
0
0
VERTEX
8
C-SWM
10
1326388.7
20
464769.1
30
0
0
SEQEND
0
POLYLINE
8
C-DRNG-AREA
66
1
70
1
0
VERTEX
8
C-DRNG-AREA
10
1326382.7
20
464763.1
30
0
0
VERTEX
8
C-DRNG-AREA
10
1326447.7
20
464763.1
30
0
0
VERTEX
8
C-DRNG-AREA
10
1326447.7
20
464863.1
30
0
0
VERTEX
8
C-DRNG-AREA
10
1326382.7
20
464863.1
30
0
0
VERTEX
8
C-DRNG-AREA
10
1326382.7
20
464763.1
30
0
0
SEQEND
0
POLYLINE
8
C-PROP
66
1
70
1
0
VERTEX
8
C-PROP
10
1326385.7
20
464775.1
30
0
0
VERTEX
8
C-PROP
10
1326442.7
20
464775.1
30
0
0
VERTEX
8
C-PROP
10
1326442.7
20
464845.1
30
0
0
VERTEX
8
C-PROP
10
1326385.7
20
464845.1
30
0
0
VERTEX
8
C-PROP
10
1326385.7
20
464775.1
30
0
0
SEQEND
0
POLYLINE
8
C-PROP
66
1
70
1
0
VERTEX
8
C-PROP
10
1326385.7
20
464759.1
30
0
0
VERTEX
8
C-PROP
10
1326415.7
20
464759.1
30
0
0
VERTEX
8
C-PROP
10
1326415.7
20
464775.1
30
0
0
VERTEX
8
C-PROP
10
1326385.7
20
464775.1
30
0
0
VERTEX
8
C-PROP
10
1326385.7
20
464759.1
30
0
0
SEQEND
0
POLYLINE
8
C-PVMT
66
1
70
1
0
VERTEX
8
C-PVMT
10
1326386.7
20
464763.1
30
0
0
VERTEX
8
C-PVMT
10
1326398.7
20
464763.1
30
0
0
VERTEX
8
C-PVMT
10
1326423.9
20
464799.9
30
0
0
VERTEX
8
C-PVMT
10
1326411.9
20
464799.9
30
0
0
VERTEX
8
C-PVMT
10
1326386.7
20
464763.1
30
0
0
SEQEND
0
POLYLINE
8
L-PLNT-TREE
66
1
70
1
0
VERTEX
8
L-PLNT-TREE
10
1326380.7
20
464825.1
30
0
0
VERTEX
8
L-PLNT-TREE
10
1326396.7
20
464825.1
30
0
0
VERTEX
8
L-PLNT-TREE
10
1326396.7
20
464841.1
30
0
0
VERTEX
8
L-PLNT-TREE
10
1326380.7
20
464841.1
30
0
0
VERTEX
8
L-PLNT-TREE
10
1326380.7
20
464825.1
30
0
0
SEQEND
0
POLYLINE
8
L-PLNT-TREE
66
1
70
1
0
VERTEX
8
L-PLNT-TREE
10
1326420.7
20
464825.1
30
0
0
VERTEX
8
L-PLNT-TREE
10
1326436.7
20
464825.1
30
0
0
VERTEX
8
L-PLNT-TREE
10
1326436.7
20
464841.1
30
0
0
VERTEX
8
L-PLNT-TREE
10
1326420.7
20
464841.1
30
0
0
VERTEX
8
L-PLNT-TREE
10
1326420.7
20
464825.1
30
0
0
SEQEND
0
POLYLINE
8
L-PLNT-TREE
66
1
70
1
0
VERTEX
8
L-PLNT-TREE
10
1326400.7
20
464765.1
30
0
0
VERTEX
8
L-PLNT-TREE
10
1326416.7
20
464765.1
30
0
0
VERTEX
8
L-PLNT-TREE
10
1326416.7
20
464781.1
30
0
0
VERTEX
8
L-PLNT-TREE
10
1326400.7
20
464781.1
30
0
0
VERTEX
8
L-PLNT-TREE
10
1326400.7
20
464765.1
30
0
0
SEQEND
0
ENDSEC
0
EOF
