0
SECTION
2
HEADER
9
$INSUNITS
70
2
0
ENDSEC
0
SECTION
2
TABLES
0
TABLE
2
LAYER
70
12
0
LAYER
2
V-PROP-LINE
70
0
62
7
6
CONTINUOUS
0
LAYER
2
C-TOPO-MAJR
70
0
62
32
6
CONTINUOUS
0
LAYER
2
C-PROP
70
0
62
6
6
CONTINUOUS
0
LAYER
2
A-BLDG-OTLN
70
0
62
3
6
CONTINUOUS
0
LAYER
2
C-PVMT
70
0
62
8
6
CONTINUOUS
0
LAYER
2
C-MISC
70
0
62
7
6
CONTINUOUS
0
LAYER
2
C-LOD
70
0
62
30
6
CONTINUOUS
0
LAYER
2
C-TOPO-SPOT
70
0
62
7
6
CONTINUOUS
0
LAYER
2
C-UTIL
70
0
62
4
6
CONTINUOUS
0
LAYER
2
C-DRNG-AREA
70
0
62
150
6
CONTINUOUS
0
LAYER
2
L-PLNT-TREE
70
0
62
90
6
CONTINUOUS
0
LAYER
2
V-PROP-ESMT
70
0
62
5
6
CONTINUOUS
0
ENDTAB
0
ENDSEC
0
SECTION
2
ENTITIES
0
POLYLINE
8
V-PROP-LINE
66
1
70
1
0
VERTEX
8
V-PROP-LINE
10
1340439.984797532
20
440162.4389510336
30
0
0
VERTEX
8
V-PROP-LINE
10
1340464.550410933
20
440030.0487960438
30
0
0
VERTEX
8
V-PROP-LINE
10
1340323.0278943828
20
440140.72441625566
30
0
0
VERTEX
8
V-PROP-LINE
10
1340439.984797532
20
440162.4389510336
30
0
0
SEQEND
0
POLYLINE
8
C-TOPO-MAJR
66
1
70
0
0
VERTEX
8
C-TOPO-MAJR
10
1340298.9883807881
20
440030.01192560047
30
214
0
VERTEX
8
C-TOPO-MAJR
10
1340303.6819409549
20
440029.97550836654
30
214
0
VERTEX
8
C-TOPO-MAJR
10
1340307.1766846133
20
440028.061798283
30
214
0
VERTEX
8
C-TOPO-MAJR
10
1340308.1527325332
20
440025.9669861863
30
214
0
VERTEX
8
C-TOPO-MAJR
10
1340309.340394197
20
440021.37349145394
30
214
0
VERTEX
8
C-TOPO-MAJR
10
1340313.9627602813
20
440017.12743694056
30
214
0
VERTEX
8
C-TOPO-MAJR
10
1340316.2704984474
20
440017.2714655206
30
214
0
VERTEX
8
C-TOPO-MAJR
10
1340326.3629979515
20
440018.28130602237
30
214
0
VERTEX
8
C-TOPO-MAJR
10
1340331.3134473725
20
440014.9758664442
30
214
0
VERTEX
8
C-TOPO-MAJR
10
1340333.7691511204
20
440012.83381035744
30
214
0
VERTEX
8
C-TOPO-MAJR
10
1340341.5394767786
20
440007.9830982857
30
214
0
SEQEND
0
POLYLINE
8
C-TOPO-MAJR
66
1
70
0
0
VERTEX
8
C-TOPO-MAJR
10
1340436.9497190379
20
440151.2426542794
30
210
0
VERTEX
8
C-TOPO-MAJR
10
1340438.2735352837
20
440150.6035479379
30
210
0
VERTEX
8
C-TOPO-MAJR
10
1340438.9490588722
20
440148.2721877869
30
210
0
VERTEX
8
C-TOPO-MAJR
10
1340441.0048290316
20
440143.2439826094
30
210
0
VERTEX
8
C-TOPO-MAJR
10
1340448.781060201
20
440135.8325801168
30
210
0
VERTEX
8
C-TOPO-MAJR
10
1340450.678694201
20
440134.41132310504
30
210
0
VERTEX
8
C-TOPO-MAJR
10
1340455.819103861
20
440128.34473418153
30
210
0
VERTEX
8
C-TOPO-MAJR
10
1340456.6386560323
20
440122.4264389447
30
210
0
VERTEX
8
C-TOPO-MAJR
10
1340453.738399368
20
440118.4887827633
30
210
0
VERTEX
8
C-TOPO-MAJR
10
1340448.0678070318
20
440120.5478337824
30
210
0
VERTEX
8
C-TOPO-MAJR
10
1340444.953968121
20
440124.0740734416
30
210
0
VERTEX
8
C-TOPO-MAJR
10
1340437.5192717009
20
440134.1121111092
30
210
0
VERTEX
8
C-TOPO-MAJR
10
1340434.6941461232
20
440137.2039684427
30
210
0
VERTEX
8
C-TOPO-MAJR
10
1340431.7509105345
20
440142.3056642842
30
210
0
VERTEX
8
C-TOPO-MAJR
10
1340432.277812372
20
440147.19082511164
30
210
0
VERTEX
8
C-TOPO-MAJR
10
1340434.0159978713
20
440150.47231460136
30
210
0
VERTEX
8
C-TOPO-MAJR
10
1340434.1793833612
20
440150.6183116995
30
210
0
VERTEX
8
C-TOPO-MAJR
10
1340436.9497190379
20
440151.2426542794
30
210
0
SEQEND
0
POLYLINE
8
C-TOPO-MAJR
66
1
70
0
0
VERTEX
8
C-TOPO-MAJR
10
1340342.1693967807
20
440140.2767969538
30
210
0
VERTEX
8
C-TOPO-MAJR
10
1340341.6611957038
20
440140.78302952665
30
210
0
VERTEX
8
C-TOPO-MAJR
10
1340339.1054265297
20
440141.90769919247
30
210
0
VERTEX
8
C-TOPO-MAJR
10
1340336.4010356222
20
440137.5848731995
30
210
0
VERTEX
8
C-TOPO-MAJR
10
1340338.325572455
20
440134.8752329417
30
210
0
VERTEX
8
C-TOPO-MAJR
10
1340340.849845614
20
440134.12228169054
30
210
0
VERTEX
8
C-TOPO-MAJR
10
1340343.9364536225
20
440136.6970796952
30
210
0
VERTEX
8
C-TOPO-MAJR
10
1340342.1693967807
20
440140.2767969538
30
210
0
SEQEND
0
POLYLINE
8
C-TOPO-MAJR
66
1
70
0
0
VERTEX
8
C-TOPO-MAJR
10
1340345.6897309537
20
440177.2878777763
30
210
0
VERTEX
8
C-TOPO-MAJR
10
1340342.3016143693
20
440179.81838452676
30
210
0
VERTEX
8
C-TOPO-MAJR
10
1340342.9410487833
20
440186.19501219917
30
210
0
SEQEND
0
POLYLINE
8
C-TOPO-MAJR
66
1
70
0
0
VERTEX
8
C-TOPO-MAJR
10
1340344.062109526
20
440186.34363395337
30
210
0
VERTEX
8
C-TOPO-MAJR
10
1340348.501733201
20
440180.225864019
30
210
0
VERTEX
8
C-TOPO-MAJR
10
1340345.6897309537
20
440177.2878777763
30
210
0
SEQEND
0
POLYLINE
8
C-TOPO-MAJR
66
1
70
0
0
VERTEX
8
C-TOPO-MAJR
10
1340301.1904761214
20
440184.5437687795
30
210
0
VERTEX
8
C-TOPO-MAJR
10
1340303.8732135394
20
440172.5851312718
30
210
0
VERTEX
8
C-TOPO-MAJR
10
1340308.6579808737
20
440167.4873724419
30
210
0
VERTEX
8
C-TOPO-MAJR
10
1340311.0064013726
20
440165.70095869247
30
210
0
VERTEX
8
C-TOPO-MAJR
10
1340316.1005512914
20
440164.18652602873
30
210
0
VERTEX
8
C-TOPO-MAJR
10
1340320.0539554497
20
440164.9371807005
30
210
0
VERTEX
8
C-TOPO-MAJR
10
1340329.5047239508
20
440164.83678719687
30
210
0
VERTEX
8
C-TOPO-MAJR
10
1340336.2514296174
20
440161.48410360416
30
210
0
VERTEX
8
C-TOPO-MAJR
10
1340343.1723475293
20
440156.08057111985
30
210
0
VERTEX
8
C-TOPO-MAJR
10
1340345.5781826207
20
440153.89619227865
30
210
0
VERTEX
8
C-TOPO-MAJR
10
1340348.125749701
20
440150.17868002795
30
210
0
VERTEX
8
C-TOPO-MAJR
10
1340348.5319168717
20
440149.67540020315
30
210
0
VERTEX
8
C-TOPO-MAJR
10
1340352.6375517056
20
440145.04023885744
30
210
0
VERTEX
8
C-TOPO-MAJR
10
1340359.1345859435
20
440135.7689319452
30
210
0
VERTEX
8
C-TOPO-MAJR
10
1340363.5870048662
20
440131.9756324449
30
210
0
VERTEX
8
C-TOPO-MAJR
10
1340368.6047113647
20
440128.0953908562
30
210
0
VERTEX
8
C-TOPO-MAJR
10
1340373.6332446116
20
440123.54192227754
30
210
0
VERTEX
8
C-TOPO-MAJR
10
1340385.3133393642
20
440115.47533735377
30
210
0
VERTEX
8
C-TOPO-MAJR
10
1340393.151250195
20
440110.4435232719
30
210
0
VERTEX
8
C-TOPO-MAJR
10
1340394.0636499557
20
440107.6052743642
30
210
0
VERTEX
8
C-TOPO-MAJR
10
1340390.0380674535
20
440098.8083759405
30
210
0
VERTEX
8
C-TOPO-MAJR
10
1340388.0469296947
20
440093.95011794346
30
210
0
VERTEX
8
C-TOPO-MAJR
10
1340388.7398416921
20
440093.1203951974
30
210
0
VERTEX
8
C-TOPO-MAJR
10
1340389.7864275388
20
440092.35038360825
30
210
0
VERTEX
8
C-TOPO-MAJR
10
1340395.2956028664
20
440087.929788783
30
210
0
VERTEX
8
C-TOPO-MAJR
10
1340396.0770973677
20
440087.3615484372
30
210
0
VERTEX
8
C-TOPO-MAJR
10
1340399.9648848767
20
440084.64501844416
30
210
0
VERTEX
8
C-TOPO-MAJR
10
1340402.8720312845
20
440082.5105082827
30
210
0
VERTEX
8
C-TOPO-MAJR
10
1340404.7253740407
20
440081.4691717794
30
210
0
VERTEX
8
C-TOPO-MAJR
10
1340412.3516711094
20
440079.98000152304
30
210
0
VERTEX
8
C-TOPO-MAJR
10
1340420.2489650387
20
440079.1223916891
30
210
0
VERTEX
8
C-TOPO-MAJR
10
1340422.0803261923
20
440078.19260353444
30
210
0
VERTEX
8
C-TOPO-MAJR
10
1340422.8365582793
20
440076.76839378075
30
210
0
VERTEX
8
C-TOPO-MAJR
10
1340424.703680527
20
440070.30416786356
30
210
0
VERTEX
8
C-TOPO-MAJR
10
1340427.8575456117
20
440064.2221590251
30
210
0
VERTEX
8
C-TOPO-MAJR
10
1340428.5550507926
20
440063.55155669124
30
210
0
VERTEX
8
C-TOPO-MAJR
10
1340430.5753879533
20
440060.84454111394
30
210
0
VERTEX
8
C-TOPO-MAJR
10
1340431.585884608
20
440058.37276127207
30
210
0
VERTEX
8
C-TOPO-MAJR
10
1340432.536670118
20
440055.4505230271
30
210
0
VERTEX
8
C-TOPO-MAJR
10
1340433.531746859
20
440050.55912861164
30
210
0
VERTEX
8
C-TOPO-MAJR
10
1340435.2476226937
20
440048.1450914361
30
210
0
VERTEX
8
C-TOPO-MAJR
10
1340441.6603395336
20
440044.4676053666
30
210
0
VERTEX
8
C-TOPO-MAJR
10
1340444.2338252077
20
440043.15395968873
30
210
0
VERTEX
8
C-TOPO-MAJR
10
1340447.472335778
20
440040.96826852555
30
210
0
VERTEX
8
C-TOPO-MAJR
10
1340447.8046841996
20
440040.52273136104
30
210
0
VERTEX
8
C-TOPO-MAJR
10
1340449.9851260306
20
440036.589340274
30
210
0
VERTEX
8
C-TOPO-MAJR
10
1340453.531706866
20
440032.0962390331
30
210
0
VERTEX
8
C-TOPO-MAJR
10
1340455.4939732815
20
440030.72714727436
30
210
0
VERTEX
8
C-TOPO-MAJR
10
1340464.4414619452
20
440028.61822761834
30
210
0
VERTEX
8
C-TOPO-MAJR
10
1340466.7370610354
20
440027.2389652661
30
210
0
VERTEX
8
C-TOPO-MAJR
10
1340473.6911153677
20
440021.24914786796
30
210
0
VERTEX
8
C-TOPO-MAJR
10
1340478.4263421132
20
440017.2156913509
30
210
0
VERTEX
8
C-TOPO-MAJR
10
1340481.4696431118
20
440014.0503433717
30
210
0
VERTEX
8
C-TOPO-MAJR
10
1340489.8885895205
20
440005.2429462778
30
210
0
SEQEND
0
POLYLINE
8
C-TOPO-MAJR
66
1
70
0
0
VERTEX
8
C-TOPO-MAJR
10
1340318.2193134557
20
440114.43432893633
30
214
0
VERTEX
8
C-TOPO-MAJR
10
1340321.800014954
20
440113.4740290316
30
214
0
VERTEX
8
C-TOPO-MAJR
10
1340324.8085391175
20
440110.7506092727
30
214
0
VERTEX
8
C-TOPO-MAJR
10
1340329.2324147797
20
440104.12201361277
30
214
0
VERTEX
8
C-TOPO-MAJR
10
1340331.4158093773
20
440099.22996302875
30
214
0
VERTEX
8
C-TOPO-MAJR
10
1340331.5404810254
20
440095.91861793917
30
214
0
VERTEX
8
C-TOPO-MAJR
10
1340328.2796607886
20
440090.8159378646
30
214
0
VERTEX
8
C-TOPO-MAJR
10
1340316.5785686916
20
440086.9199482813
30
214
0
VERTEX
8
C-TOPO-MAJR
10
1340312.1209004463
20
440087.2788714371
30
214
0
VERTEX
8
C-TOPO-MAJR
10
1340307.0165799551
20
440088.322176437
30
214
0
VERTEX
8
C-TOPO-MAJR
10
1340305.2688800413
20
440088.49901335884
30
214
0
VERTEX
8
C-TOPO-MAJR
10
1340295.760040785
20
440089.09185994643
30
214
0
SEQEND
0
POLYLINE
8
C-TOPO-MAJR
66
1
70
0
0
VERTEX
8
C-TOPO-MAJR
10
1340300.0320138624
20
440119.7328747735
30
214
0
VERTEX
8
C-TOPO-MAJR
10
1340309.8502356955
20
440116.9622110185
30
214
0
VERTEX
8
C-TOPO-MAJR
10
1340313.6336926976
20
440115.6643133566
30
214
0
VERTEX
8
C-TOPO-MAJR
10
1340318.2193134557
20
440114.43432893633
30
214
0
SEQEND
0
POLYLINE
8
C-TOPO-MAJR
66
1
70
0
0
VERTEX
8
C-TOPO-MAJR
10
1340302.5874549572
20
440148.49101936514
30
212
0
VERTEX
8
C-TOPO-MAJR
10
1340305.9276713696
20
440145.6649095263
30
212
0
VERTEX
8
C-TOPO-MAJR
10
1340308.4391492833
20
440142.4086824531
30
212
0
VERTEX
8
C-TOPO-MAJR
10
1340312.8023295384
20
440137.12982160697
30
212
0
VERTEX
8
C-TOPO-MAJR
10
1340319.7695071956
20
440132.62687785836
30
212
0
VERTEX
8
C-TOPO-MAJR
10
1340322.1340037873
20
440130.4579189351
30
212
0
VERTEX
8
C-TOPO-MAJR
10
1340324.5089990315
20
440127.9674383689
30
212
0
VERTEX
8
C-TOPO-MAJR
10
1340328.9023629571
20
440124.65150010213
30
212
0
VERTEX
8
C-TOPO-MAJR
10
1340329.4328737108
20
440124.25419119425
30
212
0
VERTEX
8
C-TOPO-MAJR
10
1340332.5463845413
20
440121.2948795253
30
212
0
VERTEX
8
C-TOPO-MAJR
10
1340337.725508033
20
440114.9435142603
30
212
0
VERTEX
8
C-TOPO-MAJR
10
1340340.125109539
20
440111.8329561963
30
212
0
VERTEX
8
C-TOPO-MAJR
10
1340343.6739869532
20
440107.6781088505
30
212
0
VERTEX
8
C-TOPO-MAJR
10
1340350.7641958727
20
440101.12858128623
30
212
0
VERTEX
8
C-TOPO-MAJR
10
1340352.8531024593
20
440098.5649381082
30
212
0
VERTEX
8
C-TOPO-MAJR
10
1340355.084069113
20
440092.75064527633
30
212
0
VERTEX
8
C-TOPO-MAJR
10
1340356.0637259453
20
440090.19815694937
30
212
0
VERTEX
8
C-TOPO-MAJR
10
1340360.863913206
20
440077.91734161176
30
212
0
VERTEX
8
C-TOPO-MAJR
10
1340361.737271039
20
440072.41243135405
30
212
0
VERTEX
8
C-TOPO-MAJR
10
1340361.8977037764
20
440071.50429669314
30
212
0
VERTEX
8
C-TOPO-MAJR
10
1340364.510231377
20
440062.89965512144
30
212
0
VERTEX
8
C-TOPO-MAJR
10
1340364.9380520396
20
440052.4298597721
30
212
0
VERTEX
8
C-TOPO-MAJR
10
1340364.7428424489
20
440051.5371450261
30
212
0
VERTEX
8
C-TOPO-MAJR
10
1340363.5482910376
20
440041.7415609486
30
212
0
VERTEX
8
C-TOPO-MAJR
10
1340365.8753861212
20
440035.7389482764
30
212
0
VERTEX
8
C-TOPO-MAJR
10
1340367.9305001164
20
440033.63790261303
30
212
0
VERTEX
8
C-TOPO-MAJR
10
1340368.8970336162
20
440032.93908511155
30
212
0
VERTEX
8
C-TOPO-MAJR
10
1340371.8327232858
20
440031.1808865144
30
212
0
VERTEX
8
C-TOPO-MAJR
10
1340381.7641338687
20
440025.88070027565
30
212
0
VERTEX
8
C-TOPO-MAJR
10
1340386.0702276225
20
440023.4230280237
30
212
0
VERTEX
8
C-TOPO-MAJR
10
1340391.1528946129
20
440020.44075051765
30
212
0
VERTEX
8
C-TOPO-MAJR
10
1340396.3907450393
20
440019.0785485247
30
212
0
VERTEX
8
C-TOPO-MAJR
10
1340400.3533355433
20
440019.47093619703
30
212
0
VERTEX
8
C-TOPO-MAJR
10
1340407.2056840356
20
440018.0956108473
30
212
0
VERTEX
8
C-TOPO-MAJR
10
1340411.7322497775
20
440012.8803981911
30
212
0
VERTEX
8
C-TOPO-MAJR
10
1340411.8595461259
20
440012.44995284954
30
212
0
VERTEX
8
C-TOPO-MAJR
10
1340413.6531777063
20
439999.9998465275
30
212
0
SEQEND
0
POLYLINE
8
C-PROP
66
1
70
1
0
VERTEX
8
C-PROP
10
1340341.931056188
20
440136.0973139916
30
0
0
VERTEX
8
C-PROP
10
1340434.9827776772
20
440063.3275721962
30
0
0
VERTEX
8
C-PROP
10
1340418.830771112
20
440150.37472292746
30
0
0
VERTEX
8
C-PROP
10
1340341.931056188
20
440136.0973139916
30
0
0
SEQEND
0
POLYLINE
8
A-BLDG-OTLN
66
1
70
1
0
VERTEX
8
A-BLDG-OTLN
10
1340426.264872886
20
440104.82927418227
30
0
0
VERTEX
8
A-BLDG-OTLN
10
1340417.87260986
20
440150.05725137895
30
0
0
VERTEX
8
A-BLDG-OTLN
10
1340392.308970575
20
440145.3137983643
30
0
0
VERTEX
8
A-BLDG-OTLN
10
1340400.701233601
20
440100.0858211676
30
0
0
VERTEX
8
A-BLDG-OTLN
10
1340426.264872886
20
440104.82927418227
30
0
0
SEQEND
0
POLYLINE
8
C-PVMT
66
1
70
1
0
VERTEX
8
C-PVMT
10
1340444.5713038635
20
440137.72113616776
30
0
0
VERTEX
8
C-PVMT
10
1340442.382017857
20
440149.5197389147
30
0
0
VERTEX
8
C-PVMT
10
1340418.784812363
20
440145.1411669011
30
0
0
VERTEX
8
C-PVMT
10
1340420.9740983697
20
440133.3425641542
30
0
0
VERTEX
8
C-PVMT
10
1340444.5713038635
20
440137.72113616776
30
0
0
SEQEND
0
POLYLINE
8
C-PVMT
66
1
70
1
0
VERTEX
8
C-PVMT
10
1340421.5214198716
20
440130.3929134674
30
0
0
VERTEX
8
C-PVMT
10
1340426.4375043493
20
440131.30511597026
30
0
0
VERTEX
8
C-PVMT
10
1340425.342861346
20
440137.2044173437
30
0
0
VERTEX
8
C-PVMT
10
1340420.4267768683
20
440136.2922148409
30
0
0
VERTEX
8
C-PVMT
10
1340421.5214198716
20
440130.3929134674
30
0
0
SEQEND
0
POLYLINE
8
C-PVMT
66
1
70
1
0
VERTEX
8
C-PVMT
10
1340425.2565456145
20
440123.9664964498
30
0
0
VERTEX
8
C-PVMT
10
1340423.7970216097
20
440131.8322316144
30
0
0
VERTEX
8
C-PVMT
10
1340418.8809371318
20
440130.92002911156
30
0
0
VERTEX
8
C-PVMT
10
1340420.3404611365
20
440123.05429394695
30
0
0
VERTEX
8
C-PVMT
10
1340425.2565456145
20
440123.9664964498
30
0
0
SEQEND
0
POLYLINE
8
C-PVMT
66
1
70
1
0
VERTEX
8
C-PVMT
10
1340464.550410933
20
440030.0487960438
30
0
0
VERTEX
8
C-PVMT
10
1340439.984797532
20
440162.4389510336
30
0
0
VERTEX
8
C-PVMT
10
1340442.9344482187
20
440162.9862725353
30
0
0
VERTEX
8
C-PVMT
10
1340467.5000616198
20
440030.5961175455
30
0
0
VERTEX
8
C-PVMT
10
1340464.550410933
20
440030.0487960438
30
0
0
SEQEND
0
POLYLINE
8
C-MISC
66
1
70
1
0
VERTEX
8
C-MISC
10
1340467.5000616198
20
440030.5961175455
30
0
0
VERTEX
8
C-MISC
10
1340442.9344482187
20
440162.9862725353
30
0
0
VERTEX
8
C-MISC
10
1340446.867315801
20
440163.71603453753
30
0
0
VERTEX
8
C-MISC
10
1340471.4329292022
20
440031.32587954774
30
0
0
VERTEX
8
C-MISC
10
1340467.5000616198
20
440030.5961175455
30
0
0
SEQEND
0
POLYLINE
8
C-PVMT
66
1
70
1
0
VERTEX
8
C-PVMT
10
1340471.4329292022
20
440031.32587954774
30
0
0
VERTEX
8
C-PVMT
10
1340446.867315801
20
440163.71603453753
30
0
0
VERTEX
8
C-PVMT
10
1340448.8337495923
20
440164.08091553865
30
0
0
VERTEX
8
C-PVMT
10
1340473.3993629934
20
440031.69076054887
30
0
0
VERTEX
8
C-PVMT
10
1340471.4329292022
20
440031.32587954774
30
0
0
SEQEND
0
POLYLINE
8
C-PVMT
66
1
70
1
0
VERTEX
8
C-PVMT
10
1340442.382017857
20
440149.5197389146
30
0
0
VERTEX
8
C-PVMT
10
1340444.5713038635
20
440137.7211361677
30
0
0
VERTEX
8
C-PVMT
10
1340452.0011436346
20
440136.0485689849
30
0
0
VERTEX
8
C-PVMT
10
1340448.7172146242
20
440153.74647310533
30
0
0
VERTEX
8
C-PVMT
10
1340442.382017857
20
440149.5197389146
30
0
0
SEQEND
0
POLYLINE
8
C-LOD
66
1
70
1
0
VERTEX
8
C-LOD
10
1340392.308970575
20
440145.3137983643
30
0
0
VERTEX
8
C-LOD
10
1340400.701233601
20
440100.0858211676
30
0
0
VERTEX
8
C-LOD
10
1340464.550410933
20
440030.0487960438
30
0
0
VERTEX
8
C-LOD
10
1340473.3993629934
20
440031.69076054887
30
0
0
VERTEX
8
C-LOD
10
1340448.8337495923
20
440164.08091553865
30
0
0
VERTEX
8
C-LOD
10
1340442.9344482187
20
440162.9862725353
30
0
0
VERTEX
8
C-LOD
10
1340439.984797532
20
440162.4389510336
30
0
0
VERTEX
8
C-LOD
10
1340392.308970575
20
440145.3137983643
30
0
0
SEQEND
0
POLYLINE
8
C-PROP
66
1
70
1
0
VERTEX
8
C-PROP
10
1340437.4137823859
20
440158.150608566
30
0
0
VERTEX
8
C-PROP
10
1340462.2865936474
20
440034.5069493944
30
0
0
VERTEX
8
C-PROP
10
1340327.949567989
20
440139.84286709985
30
0
0
VERTEX
8
C-PROP
10
1340437.4137823859
20
440158.150608566
30
0
0
SEQEND
0
POINT
8
C-TOPO-SPOT
10
1340416.886975095
20
440123.9127785917
30
0
0
POLYLINE
8
C-UTIL
66
1
70
0
0
VERTEX
8
C-UTIL
10
1340393.789152658
20
440085.3866061497
30
0
0
VERTEX
8
C-UTIL
10
1340412.6825119616
20
440121.0230838551
30
0
0
SEQEND
0
POLYLINE
8
C-UTIL
66
1
70
0
0
VERTEX
8
C-UTIL
10
1340397.789152658
20
440085.3866061497
30
0
0
VERTEX
8
C-UTIL
10
1340416.6825119616
20
440121.0230838551
30
0
0
SEQEND
0
POLYLINE
8
C-DRNG-AREA
66
1
70
1
0
VERTEX
8
C-DRNG-AREA
10
1340439.984797532
20
440162.4389510336
30
0
0
VERTEX
8
C-DRNG-AREA
10
1340464.550410933
20
440030.0487960438
30
0
0
VERTEX
8
C-DRNG-AREA
10
1340323.0278943828
20
440140.72441625566
30
0
0
VERTEX
8
C-DRNG-AREA
10
1340439.984797532
20
440162.4389510336
30
0
0
SEQEND
0
POLYLINE
8
C-PROP
66
1
70
1
0
VERTEX
8
C-PROP
10
1340392.308970575
20
440129.3137983643
30
0
0
VERTEX
8
C-PROP
10
1340422.308970575
20
440129.3137983643
30
0
0
VERTEX
8
C-PROP
10
1340422.308970575
20
440145.3137983643
30
0
0
VERTEX
8
C-PROP
10
1340392.308970575
20
440145.3137983643
30
0
0
VERTEX
8
C-PROP
10
1340392.308970575
20
440129.3137983643
30
0
0
SEQEND
0
POLYLINE
8
L-PLNT-TREE
66
1
70
1
0
VERTEX
8
L-PLNT-TREE
10
1340363.7086830025
20
440130.1844630655
30
0
0
VERTEX
8
L-PLNT-TREE
10
1340375.7086830025
20
440130.1844630655
30
0
0
VERTEX
8
L-PLNT-TREE
10
1340375.7086830025
20
440142.1844630655
30
0
0
VERTEX
8
L-PLNT-TREE
10
1340363.7086830025
20
440142.1844630655
30
0
0
VERTEX
8
L-PLNT-TREE
10
1340363.7086830025
20
440130.1844630655
30
0
0
SEQEND
0
POLYLINE
8
L-PLNT-TREE
66
1
70
1
0
VERTEX
8
L-PLNT-TREE
10
1340393.1291475801
20
440130.1844630655
30
0
0
VERTEX
8
L-PLNT-TREE
10
1340405.1291475801
20
440130.1844630655
30
0
0
VERTEX
8
L-PLNT-TREE
10
1340405.1291475801
20
440142.1844630655
30
0
0
VERTEX
8
L-PLNT-TREE
10
1340393.1291475801
20
440142.1844630655
30
0
0
VERTEX
8
L-PLNT-TREE
10
1340393.1291475801
20
440130.1844630655
30
0
0
SEQEND
0
POLYLINE
8
L-PLNT-TREE
66
1
70
1
0
VERTEX
8
L-PLNT-TREE
10
1340378.4189152913
20
440100.7639984879
30
0
0
VERTEX
8
L-PLNT-TREE
10
1340390.4189152913
20
440100.7639984879
30
0
0
VERTEX
8
L-PLNT-TREE
10
1340390.4189152913
20
440112.7639984879
30
0
0
VERTEX
8
L-PLNT-TREE
10
1340378.4189152913
20
440112.7639984879
30
0
0
VERTEX
8
L-PLNT-TREE
10
1340378.4189152913
20
440100.7639984879
30
0
0
SEQEND
0
POLYLINE
8
V-PROP-ESMT
66
1
70
1
0
VERTEX
8
V-PROP-ESMT
10
1340464.550410933
20
440030.0487960438
30
0
0
VERTEX
8
V-PROP-ESMT
10
1340439.984797532
20
440162.4389510336
30
0
0
VERTEX
8
V-PROP-ESMT
10
1340430.1526285762
20
440160.6145460279
30
0
0
VERTEX
8
V-PROP-ESMT
10
1340454.7182419773
20
440028.2243910381
30
0
0
VERTEX
8
V-PROP-ESMT
10
1340464.550410933
20
440030.0487960438
30
0
0
SEQEND
0
ENDSEC
0
EOF
