0
SECTION
2
HEADER
9
$INSUNITS
70
2
0
ENDSEC
0
SECTION
2
TABLES
0
TABLE
2
LAYER
70
13
0
LAYER
2
V-PROP-LINE
70
0
62
7
6
CONTINUOUS
0
LAYER
2
C-TOPO-MAJR
70
0
62
32
6
CONTINUOUS
0
LAYER
2
C-PROP
70
0
62
6
6
CONTINUOUS
0
LAYER
2
A-BLDG-OTLN
70
0
62
3
6
CONTINUOUS
0
LAYER
2
C-PVMT
70
0
62
8
6
CONTINUOUS
0
LAYER
2
C-LOD
70
0
62
30
6
CONTINUOUS
0
LAYER
2
C-TOPO-SPOT
70
0
62
7
6
CONTINUOUS
0
LAYER
2
C-UTIL
70
0
62
4
6
CONTINUOUS
0
LAYER
2
C-SWM
70
0
62
92
6
CONTINUOUS
0
LAYER
2
C-DRNG-AREA
70
0
62
150
6
CONTINUOUS
0
LAYER
2
L-PLNT-TREE
70
0
62
90
6
CONTINUOUS
0
LAYER
2
V-PROP-ESMT
70
0
62
5
6
CONTINUOUS
0
LAYER
2
C-MISC
70
0
62
7
6
CONTINUOUS
0
ENDTAB
0
ENDSEC
0
SECTION
2
ENTITIES
0
POLYLINE
8
V-PROP-LINE
66
1
70
1
0
VERTEX
8
V-PROP-LINE
10
1340254.7066
20
440194.1578
30
0
0
VERTEX
8
V-PROP-LINE
10
1340447.788475504
20
440229.9976347079
30
0
0
VERTEX
8
V-PROP-LINE
10
1340488.3413499699
20
440011.44818315847
30
0
0
VERTEX
8
V-PROP-LINE
10
1340254.7066
20
440194.1578
30
0
0
SEQEND
0
POLYLINE
8
V-PROP-LINE
66
1
70
1
0
VERTEX
8
V-PROP-LINE
10
1340254.7066
20
440194.1578
30
0
0
VERTEX
8
V-PROP-LINE
10
1340428.1243676003
20
440226.3475853436
30
0
0
VERTEX
8
V-PROP-LINE
10
1340439.9830001371
20
440162.4384871309
30
0
0
VERTEX
8
V-PROP-LINE
10
1340323.0208863274
20
440140.7279935122
30
0
0
VERTEX
8
V-PROP-LINE
10
1340254.7066
20
440194.1578
30
0
0
SEQEND
0
POLYLINE
8
C-TOPO-MAJR
66
1
70
0
0
VERTEX
8
C-TOPO-MAJR
10
1340253.2342071945
20
440215.71365393675
30
212
0
VERTEX
8
C-TOPO-MAJR
10
1340246.647278116
20
440215.6693626886
30
212
0
VERTEX
8
C-TOPO-MAJR
10
1340242.0400038639
20
440217.3517740209
30
212
0
SEQEND
0
POLYLINE
8
C-TOPO-MAJR
66
1
70
0
0
VERTEX
8
C-TOPO-MAJR
10
1340338.9377759492
20
440231.7654591
30
212
0
VERTEX
8
C-TOPO-MAJR
10
1340334.1369325332
20
440229.8494524432
30
212
0
SEQEND
0
POLYLINE
8
C-TOPO-MAJR
66
1
70
0
0
VERTEX
8
C-TOPO-MAJR
10
1340334.1369325332
20
440229.8494524432
30
212
0
VERTEX
8
C-TOPO-MAJR
10
1340324.3436450323
20
440225.94033953967
30
212
0
VERTEX
8
C-TOPO-MAJR
10
1340319.7836147812
20
440224.00694444374
30
212
0
VERTEX
8
C-TOPO-MAJR
10
1340319.0142593672
20
440223.60766702396
30
212
0
VERTEX
8
C-TOPO-MAJR
10
1340315.9388061997
20
440222.5479578608
30
212
0
VERTEX
8
C-TOPO-MAJR
10
1340307.866315776
20
440223.0417232759
30
212
0
VERTEX
8
C-TOPO-MAJR
10
1340299.0644961086
20
440227.1135655266
30
212
0
VERTEX
8
C-TOPO-MAJR
10
1340295.5710647842
20
440230.0082447726
30
212
0
VERTEX
8
C-TOPO-MAJR
10
1340294.9503311152
20
440230.68081560923
30
212
0
VERTEX
8
C-TOPO-MAJR
10
1340290.9103129492
20
440232.9701811038
30
212
0
VERTEX
8
C-TOPO-MAJR
10
1340284.3624257825
20
440227.06829002715
30
212
0
VERTEX
8
C-TOPO-MAJR
10
1340282.3591489473
20
440224.3517600219
30
212
0
VERTEX
8
C-TOPO-MAJR
10
1340278.5261513721
20
440220.22479978227
30
212
0
VERTEX
8
C-TOPO-MAJR
10
1340277.334224625
20
440219.17887010187
30
212
0
VERTEX
8
C-TOPO-MAJR
10
1340274.9260929513
20
440217.9150931159
30
212
0
VERTEX
8
C-TOPO-MAJR
10
1340265.12788421
20
440216.89606628113
30
212
0
VERTEX
8
C-TOPO-MAJR
10
1340256.9057877837
20
440215.73858827964
30
212
0
VERTEX
8
C-TOPO-MAJR
10
1340253.2342071945
20
440215.71365393675
30
212
0
SEQEND
0
POLYLINE
8
C-TOPO-MAJR
66
1
70
0
0
VERTEX
8
C-TOPO-MAJR
10
1340436.9497190379
20
440151.2426542794
30
210
0
VERTEX
8
C-TOPO-MAJR
10
1340438.2735352837
20
440150.6035479379
30
210
0
VERTEX
8
C-TOPO-MAJR
10
1340438.9490588722
20
440148.2721877869
30
210
0
VERTEX
8
C-TOPO-MAJR
10
1340441.0048290316
20
440143.2439826094
30
210
0
VERTEX
8
C-TOPO-MAJR
10
1340448.781060201
20
440135.8325801168
30
210
0
VERTEX
8
C-TOPO-MAJR
10
1340450.678694201
20
440134.41132310504
30
210
0
VERTEX
8
C-TOPO-MAJR
10
1340455.819103861
20
440128.34473418153
30
210
0
VERTEX
8
C-TOPO-MAJR
10
1340456.6386560323
20
440122.4264389447
30
210
0
VERTEX
8
C-TOPO-MAJR
10
1340453.738399368
20
440118.4887827633
30
210
0
SEQEND
0
POLYLINE
8
C-TOPO-MAJR
66
1
70
0
0
VERTEX
8
C-TOPO-MAJR
10
1340448.0678070318
20
440120.5478337824
30
210
0
VERTEX
8
C-TOPO-MAJR
10
1340444.953968121
20
440124.0740734416
30
210
0
VERTEX
8
C-TOPO-MAJR
10
1340437.5192717009
20
440134.1121111092
30
210
0
VERTEX
8
C-TOPO-MAJR
10
1340434.6941461232
20
440137.2039684427
30
210
0
VERTEX
8
C-TOPO-MAJR
10
1340431.7509105345
20
440142.3056642842
30
210
0
VERTEX
8
C-TOPO-MAJR
10
1340432.277812372
20
440147.19082511164
30
210
0
VERTEX
8
C-TOPO-MAJR
10
1340434.0159978713
20
440150.47231460136
30
210
0
VERTEX
8
C-TOPO-MAJR
10
1340434.1793833612
20
440150.6183116995
30
210
0
VERTEX
8
C-TOPO-MAJR
10
1340436.9497190379
20
440151.2426542794
30
210
0
SEQEND
0
POLYLINE
8
C-TOPO-MAJR
66
1
70
0
0
VERTEX
8
C-TOPO-MAJR
10
1340283.449041783
20
440150.27972968185
30
214
0
VERTEX
8
C-TOPO-MAJR
10
1340284.3145256147
20
440150.11798460135
30
214
0
VERTEX
8
C-TOPO-MAJR
10
1340286.4040883735
20
440147.750207198
30
214
0
VERTEX
8
C-TOPO-MAJR
10
1340286.5907677854
20
440147.32041801594
30
214
0
SEQEND
0
POLYLINE
8
C-TOPO-MAJR
66
1
70
0
0
VERTEX
8
C-TOPO-MAJR
10
1340342.1693967807
20
440140.2767969538
30
210
0
VERTEX
8
C-TOPO-MAJR
10
1340341.6611957038
20
440140.78302952665
30
210
0
VERTEX
8
C-TOPO-MAJR
10
1340339.1054265297
20
440141.90769919247
30
210
0
VERTEX
8
C-TOPO-MAJR
10
1340336.4010356222
20
440137.5848731995
30
210
0
VERTEX
8
C-TOPO-MAJR
10
1340338.325572455
20
440134.8752329417
30
210
0
VERTEX
8
C-TOPO-MAJR
10
1340340.849845614
20
440134.12228169054
30
210
0
VERTEX
8
C-TOPO-MAJR
10
1340343.9364536225
20
440136.6970796952
30
210
0
VERTEX
8
C-TOPO-MAJR
10
1340342.1693967807
20
440140.2767969538
30
210
0
SEQEND
0
POLYLINE
8
C-TOPO-MAJR
66
1
70
0
0
VERTEX
8
C-TOPO-MAJR
10
1340345.6897309537
20
440177.2878777763
30
210
0
VERTEX
8
C-TOPO-MAJR
10
1340342.3016143693
20
440179.81838452676
30
210
0
VERTEX
8
C-TOPO-MAJR
10
1340342.9410487833
20
440186.19501219917
30
210
0
VERTEX
8
C-TOPO-MAJR
10
1340344.062109526
20
440186.34363395337
30
210
0
VERTEX
8
C-TOPO-MAJR
10
1340348.501733201
20
440180.225864019
30
210
0
VERTEX
8
C-TOPO-MAJR
10
1340345.6897309537
20
440177.2878777763
30
210
0
SEQEND
0
POLYLINE
8
C-TOPO-MAJR
66
1
70
0
0
VERTEX
8
C-TOPO-MAJR
10
1340356.528620031
20
440247.0442999475
30
212
0
VERTEX
8
C-TOPO-MAJR
10
1340353.1552672065
20
440243.27462243766
30
212
0
VERTEX
8
C-TOPO-MAJR
10
1340352.6667511144
20
440242.67882310506
30
212
0
VERTEX
8
C-TOPO-MAJR
10
1340348.3025866144
20
440238.5863116058
30
212
0
VERTEX
8
C-TOPO-MAJR
10
1340341.367561117
20
440233.0380943484
30
212
0
VERTEX
8
C-TOPO-MAJR
10
1340339.3790480339
20
440231.9416398471
30
212
0
VERTEX
8
C-TOPO-MAJR
10
1340338.9377759492
20
440231.7654591
30
212
0
SEQEND
0
POLYLINE
8
C-TOPO-MAJR
66
1
70
0
0
VERTEX
8
C-TOPO-MAJR
10
1340460.3968506127
20
440224.6342397778
30
210
0
VERTEX
8
C-TOPO-MAJR
10
1340459.9076783664
20
440224.7700662671
30
210
0
VERTEX
8
C-TOPO-MAJR
10
1340442.6331066175
20
440224.7139640238
30
210
0
VERTEX
8
C-TOPO-MAJR
10
1340436.093093453
20
440225.42393636104
30
210
0
VERTEX
8
C-TOPO-MAJR
10
1340426.1482314428
20
440226.2526748527
30
210
0
VERTEX
8
C-TOPO-MAJR
10
1340420.1790832935
20
440225.82190143754
30
210
0
VERTEX
8
C-TOPO-MAJR
10
1340413.4327056964
20
440223.90819136624
30
210
0
VERTEX
8
C-TOPO-MAJR
10
1340406.6781260334
20
440220.5138411907
30
210
0
VERTEX
8
C-TOPO-MAJR
10
1340402.5934885452
20
440220.84422110836
30
210
0
VERTEX
8
C-TOPO-MAJR
10
1340390.1279622875
20
440228.70739435963
30
210
0
VERTEX
8
C-TOPO-MAJR
10
1340384.7880779486
20
440229.5725501066
30
210
0
VERTEX
8
C-TOPO-MAJR
10
1340367.50760071
20
440226.5630416996
30
210
0
VERTEX
8
C-TOPO-MAJR
10
1340366.4774190292
20
440226.436401525
30
210
0
VERTEX
8
C-TOPO-MAJR
10
1340363.9492088656
20
440225.9505101118
30
210
0
VERTEX
8
C-TOPO-MAJR
10
1340363.6585270304
20
440225.7877807738
30
210
0
VERTEX
8
C-TOPO-MAJR
10
1340359.6749392012
20
440222.2936932694
30
210
0
VERTEX
8
C-TOPO-MAJR
10
1340353.9098588615
20
440215.650661949
30
210
0
VERTEX
8
C-TOPO-MAJR
10
1340351.2963470337
20
440213.57225402165
30
210
0
VERTEX
8
C-TOPO-MAJR
10
1340341.9023369537
20
440208.96333935915
30
210
0
VERTEX
8
C-TOPO-MAJR
10
1340339.9446637006
20
440209.0191135136
30
210
0
VERTEX
8
C-TOPO-MAJR
10
1340332.0309656255
20
440213.0775043674
30
210
0
VERTEX
8
C-TOPO-MAJR
10
1340330.0440929553
20
440213.0319007821
30
210
0
VERTEX
8
C-TOPO-MAJR
10
1340327.697969036
20
440212.1664169462
30
210
0
VERTEX
8
C-TOPO-MAJR
10
1340326.1031559526
20
440211.3957491823
30
210
0
VERTEX
8
C-TOPO-MAJR
10
1340320.1143227783
20
440208.9994285256
30
210
0
VERTEX
8
C-TOPO-MAJR
10
1340315.5359198733
20
440207.6897198502
30
210
0
VERTEX
8
C-TOPO-MAJR
10
1340308.937507867
20
440205.2146591989
30
210
0
VERTEX
8
C-TOPO-MAJR
10
1340303.3522171958
20
440201.5945876916
30
210
0
VERTEX
8
C-TOPO-MAJR
10
1340301.7898843766
20
440198.63822877983
30
210
0
VERTEX
8
C-TOPO-MAJR
10
1340301.8587818726
20
440198.0401328586
30
210
0
VERTEX
8
C-TOPO-MAJR
10
1340302.5005128654
20
440193.05425045703
30
210
0
VERTEX
8
C-TOPO-MAJR
10
1340301.1904761214
20
440184.5437687795
30
210
0
VERTEX
8
C-TOPO-MAJR
10
1340303.8732135394
20
440172.5851312718
30
210
0
VERTEX
8
C-TOPO-MAJR
10
1340308.6579808737
20
440167.4873724419
30
210
0
VERTEX
8
C-TOPO-MAJR
10
1340311.0064013726
20
440165.70095869247
30
210
0
VERTEX
8
C-TOPO-MAJR
10
1340316.1005512914
20
440164.18652602873
30
210
0
VERTEX
8
C-TOPO-MAJR
10
1340320.0539554497
20
440164.9371807005
30
210
0
VERTEX
8
C-TOPO-MAJR
10
1340329.5047239508
20
440164.83678719687
30
210
0
VERTEX
8
C-TOPO-MAJR
10
1340336.2514296174
20
440161.48410360416
30
210
0
VERTEX
8
C-TOPO-MAJR
10
1340343.1723475293
20
440156.08057111985
30
210
0
VERTEX
8
C-TOPO-MAJR
10
1340345.5781826207
20
440153.89619227865
30
210
0
VERTEX
8
C-TOPO-MAJR
10
1340348.125749701
20
440150.17868002795
30
210
0
VERTEX
8
C-TOPO-MAJR
10
1340348.5319168717
20
440149.67540020315
30
210
0
VERTEX
8
C-TOPO-MAJR
10
1340352.6375517056
20
440145.04023885744
30
210
0
VERTEX
8
C-TOPO-MAJR
10
1340359.1345859435
20
440135.7689319452
30
210
0
VERTEX
8
C-TOPO-MAJR
10
1340363.5870048662
20
440131.9756324449
30
210
0
VERTEX
8
C-TOPO-MAJR
10
1340368.6047113647
20
440128.0953908562
30
210
0
VERTEX
8
C-TOPO-MAJR
10
1340373.6332446116
20
440123.54192227754
30
210
0
VERTEX
8
C-TOPO-MAJR
10
1340385.3133393642
20
440115.47533735377
30
210
0
SEQEND
0
POLYLINE
8
C-TOPO-MAJR
66
1
70
0
0
VERTEX
8
C-TOPO-MAJR
10
1340263.4750003642
20
440117.4674593552
30
214
0
VERTEX
8
C-TOPO-MAJR
10
1340263.651181114
20
440123.2417260181
30
214
0
VERTEX
8
C-TOPO-MAJR
10
1340263.7814301983
20
440129.21513928653
30
214
0
VERTEX
8
C-TOPO-MAJR
10
1340265.0688292037
20
440136.4415027696
30
214
0
VERTEX
8
C-TOPO-MAJR
10
1340266.5606241198
20
440139.5113785266
30
214
0
VERTEX
8
C-TOPO-MAJR
10
1340269.8102895294
20
440145.3102514435
30
214
0
VERTEX
8
C-TOPO-MAJR
10
1340271.6436192035
20
440149.2705453579
30
214
0
VERTEX
8
C-TOPO-MAJR
10
1340273.5570012014
20
440150.2485617723
30
214
0
VERTEX
8
C-TOPO-MAJR
10
1340281.919845367
20
440150.15079293394
30
214
0
VERTEX
8
C-TOPO-MAJR
10
1340283.449041783
20
440150.27972968185
30
214
0
SEQEND
0
POLYLINE
8
C-TOPO-MAJR
66
1
70
0
0
VERTEX
8
C-TOPO-MAJR
10
1340368.6296457045
20
440209.85539793957
30
210
0
VERTEX
8
C-TOPO-MAJR
10
1340368.7461152787
20
440204.20777144824
30
210
0
VERTEX
8
C-TOPO-MAJR
10
1340369.5092371225
20
440201.30095312424
30
210
0
VERTEX
8
C-TOPO-MAJR
10
1340373.0961722007
20
440194.5266884429
30
210
0
VERTEX
8
C-TOPO-MAJR
10
1340371.1178297072
20
440186.59494577534
30
210
0
VERTEX
8
C-TOPO-MAJR
10
1340364.3392999452
20
440184.7524297795
30
210
0
VERTEX
8
C-TOPO-MAJR
10
1340363.5768342877
20
440185.15334760095
30
210
0
VERTEX
8
C-TOPO-MAJR
10
1340355.3521131962
20
440196.1907271061
30
210
0
VERTEX
8
C-TOPO-MAJR
10
1340353.887877279
20
440203.7363156986
30
210
0
VERTEX
8
C-TOPO-MAJR
10
1340357.5381324564
20
440210.3596620341
30
210
0
VERTEX
8
C-TOPO-MAJR
10
1340359.9567627897
20
440213.12015519856
30
210
0
VERTEX
8
C-TOPO-MAJR
10
1340364.1158751932
20
440215.6322892677
30
210
0
VERTEX
8
C-TOPO-MAJR
10
1340368.6296457045
20
440209.85539793957
30
210
0
SEQEND
0
POLYLINE
8
C-TOPO-MAJR
66
1
70
0
0
VERTEX
8
C-TOPO-MAJR
10
1340286.5907677854
20
440147.32041801594
30
214
0
VERTEX
8
C-TOPO-MAJR
10
1340287.869964706
20
440144.37751053466
30
214
0
VERTEX
8
C-TOPO-MAJR
10
1340292.0284209526
20
440135.76794769685
30
214
0
VERTEX
8
C-TOPO-MAJR
10
1340293.8105696102
20
440129.5825926037
30
214
0
VERTEX
8
C-TOPO-MAJR
10
1340294.5159487836
20
440127.09276819084
30
214
0
VERTEX
8
C-TOPO-MAJR
10
1340298.9388402065
20
440120.3719811089
30
214
0
SEQEND
0
POLYLINE
8
C-TOPO-MAJR
66
1
70
0
0
VERTEX
8
C-TOPO-MAJR
10
1340242.0400038639
20
440217.3517740209
30
212
0
VERTEX
8
C-TOPO-MAJR
10
1340236.7394895356
20
440219.28713760735
30
212
0
VERTEX
8
C-TOPO-MAJR
10
1340234.1574736978
20
440220.0292621086
30
212
0
SEQEND
0
POLYLINE
8
C-TOPO-MAJR
66
1
70
0
0
VERTEX
8
C-TOPO-MAJR
10
1340229.1404233687
20
440120.4667971992
30
212
0
VERTEX
8
C-TOPO-MAJR
10
1340234.7322757079
20
440125.3168530963
30
212
0
VERTEX
8
C-TOPO-MAJR
10
1340236.1955273715
20
440127.0360097667
30
212
0
VERTEX
8
C-TOPO-MAJR
10
1340238.5222943674
20
440130.06749977777
30
212
0
VERTEX
8
C-TOPO-MAJR
10
1340244.9376358683
20
440135.7272653593
30
212
0
VERTEX
8
C-TOPO-MAJR
10
1340247.206004037
20
440139.77023627993
30
212
0
VERTEX
8
C-TOPO-MAJR
10
1340250.7657082065
20
440149.14849835436
30
212
0
VERTEX
8
C-TOPO-MAJR
10
1340252.0101282876
20
440154.28070593986
30
212
0
VERTEX
8
C-TOPO-MAJR
10
1340252.9464781072
20
440158.0874568615
30
212
0
VERTEX
8
C-TOPO-MAJR
10
1340261.9533498676
20
440164.1648725319
30
212
0
VERTEX
8
C-TOPO-MAJR
10
1340264.0225714566
20
440165.2344241844
30
212
0
VERTEX
8
C-TOPO-MAJR
10
1340266.3391678757
20
440165.86106336216
30
212
0
VERTEX
8
C-TOPO-MAJR
10
1340274.4592303592
20
440164.66191876866
30
212
0
VERTEX
8
C-TOPO-MAJR
10
1340283.2551445346
20
440161.20326427737
30
212
0
VERTEX
8
C-TOPO-MAJR
10
1340291.0943676946
20
440155.58647759754
30
212
0
VERTEX
8
C-TOPO-MAJR
10
1340293.506436377
20
440153.60813511244
30
212
0
VERTEX
8
C-TOPO-MAJR
10
1340297.6891707957
20
440151.0713947862
30
212
0
VERTEX
8
C-TOPO-MAJR
10
1340302.5874549572
20
440148.49101936514
30
212
0
VERTEX
8
C-TOPO-MAJR
10
1340305.9276713696
20
440145.6649095263
30
212
0
VERTEX
8
C-TOPO-MAJR
10
1340308.4391492833
20
440142.4086824531
30
212
0
VERTEX
8
C-TOPO-MAJR
10
1340312.8023295384
20
440137.12982160697
30
212
0
VERTEX
8
C-TOPO-MAJR
10
1340319.7695071956
20
440132.62687785836
30
212
0
VERTEX
8
C-TOPO-MAJR
10
1340322.1340037873
20
440130.4579189351
30
212
0
VERTEX
8
C-TOPO-MAJR
10
1340324.5089990315
20
440127.9674383689
30
212
0
VERTEX
8
C-TOPO-MAJR
10
1340328.9023629571
20
440124.65150010213
30
212
0
VERTEX
8
C-TOPO-MAJR
10
1340329.4328737108
20
440124.25419119425
30
212
0
VERTEX
8
C-TOPO-MAJR
10
1340332.5463845413
20
440121.2948795253
30
212
0
VERTEX
8
C-TOPO-MAJR
10
1340337.725508033
20
440114.9435142603
30
212
0
SEQEND
0
POLYLINE
8
C-PROP
66
1
70
1
0
VERTEX
8
C-PROP
10
1340340.8500604494
20
440152.17409453925
30
0
0
VERTEX
8
C-PROP
10
1340409.027314216
20
440164.82914825383
30
0
0
VERTEX
8
C-PROP
10
1340400.087729694
20
440213.0067761061
30
0
0
VERTEX
8
C-PROP
10
1340289.351598482
20
440192.45194863476
30
0
0
VERTEX
8
C-PROP
10
1340340.8500604494
20
440152.17409453925
30
0
0
SEQEND
0
POLYLINE
8
A-BLDG-OTLN
66
1
70
1
0
VERTEX
8
A-BLDG-OTLN
10
1340408.026431211
20
440164.741914778
30
0
0
VERTEX
8
A-BLDG-OTLN
10
1340399.634168185
20
440209.9698919747
30
0
0
VERTEX
8
A-BLDG-OTLN
10
1340374.0705289
20
440205.22643895994
30
0
0
VERTEX
8
A-BLDG-OTLN
10
1340382.462791926
20
440159.99846176326
30
0
0
VERTEX
8
A-BLDG-OTLN
10
1340408.026431211
20
440164.741914778
30
0
0
SEQEND
0
POLYLINE
8
C-PVMT
66
1
70
1
0
VERTEX
8
C-PVMT
10
1340433.2153804575
20
440198.91086026747
30
0
0
VERTEX
8
C-PVMT
10
1340431.0260944508
20
440210.7094630144
30
0
0
VERTEX
8
C-PVMT
10
1340400.5463706881
20
440205.05380749685
30
0
0
VERTEX
8
C-PVMT
10
1340402.7356566947
20
440193.25520474993
30
0
0
VERTEX
8
C-PVMT
10
1340433.2153804575
20
440198.91086026747
30
0
0
SEQEND
0
POLYLINE
8
C-PVMT
66
1
70
1
0
VERTEX
8
C-PVMT
10
1340402.8825899991
20
440189.7227253651
30
0
0
VERTEX
8
C-PVMT
10
1340407.7986744768
20
440190.6349278679
30
0
0
VERTEX
8
C-PVMT
10
1340406.558079073
20
440197.32080275787
30
0
0
VERTEX
8
C-PVMT
10
1340401.6419945953
20
440196.40860025503
30
0
0
VERTEX
8
C-PVMT
10
1340402.8825899991
20
440189.7227253651
30
0
0
SEQEND
0
POLYLINE
8
C-PVMT
66
1
70
1
0
VERTEX
8
C-PVMT
10
1340409.4051317857
20
440179.23671331845
30
0
0
VERTEX
8
C-PVMT
10
1340407.945607781
20
440187.10244848306
30
0
0
VERTEX
8
C-PVMT
10
1340404.0127401985
20
440186.3726864808
30
0
0
VERTEX
8
C-PVMT
10
1340405.4722642032
20
440178.5069513162
30
0
0
VERTEX
8
C-PVMT
10
1340409.4051317857
20
440179.23671331845
30
0
0
SEQEND
0
POLYLINE
8
C-PVMT
66
1
70
1
0
VERTEX
8
C-PVMT
10
1340438.8361165614
20
440215.209857956
30
0
0
VERTEX
8
C-PVMT
10
1340442.1200455718
20
440197.51195383555
30
0
0
VERTEX
8
C-PVMT
10
1340430.2657297708
20
440198.36353876576
30
0
0
VERTEX
8
C-PVMT
10
1340428.0764437641
20
440210.1621415127
30
0
0
VERTEX
8
C-PVMT
10
1340438.8361165614
20
440215.209857956
30
0
0
SEQEND
0
POLYLINE
8
C-LOD
66
1
70
1
0
VERTEX
8
C-LOD
10
1340374.0705289
20
440205.22643895994
30
0
0
VERTEX
8
C-LOD
10
1340382.462791926
20
440159.99846176326
30
0
0
VERTEX
8
C-LOD
10
1340437.0333494504
20
440161.8911656292
30
0
0
VERTEX
8
C-LOD
10
1340443.9158677196
20
440163.16824913316
30
0
0
VERTEX
8
C-LOD
10
1340445.390693063
20
440163.44190988404
30
0
0
VERTEX
8
C-LOD
10
1340442.1200455718
20
440197.51195383555
30
0
0
VERTEX
8
C-LOD
10
1340438.8361165614
20
440215.209857956
30
0
0
VERTEX
8
C-LOD
10
1340433.532060526
20
440227.3510080967
30
0
0
VERTEX
8
C-LOD
10
1340428.1243676003
20
440226.3475853436
30
0
0
VERTEX
8
C-LOD
10
1340425.1747169136
20
440225.80026384187
30
0
0
VERTEX
8
C-LOD
10
1340374.0705289
20
440205.22643895994
30
0
0
SEQEND
0
POLYLINE
8
C-PROP
66
1
70
1
0
VERTEX
8
C-PROP
10
1340259.6685830874
20
440193.5423945737
30
0
0
VERTEX
8
C-PROP
10
1340423.6274491663
20
440224.1617846672
30
0
0
VERTEX
8
C-PROP
10
1340435.0912526501
20
440163.47328494815
30
0
0
VERTEX
8
C-PROP
10
1340324.8733741827
20
440145.3721606868
30
0
0
VERTEX
8
C-PROP
10
1340259.6685830874
20
440193.5423945737
30
0
0
SEQEND
0
POINT
8
C-TOPO-SPOT
10
1340340.108290813
20
440183.5659331974
30
0
0
POLYLINE
8
C-UTIL
66
1
70
0
0
VERTEX
8
C-UTIL
10
1340284.79
20
440169.85
30
0
0
VERTEX
8
C-UTIL
10
1340385.8523485425
20
440207.5981654673
30
0
0
SEQEND
0
POLYLINE
8
C-UTIL
66
1
70
0
0
VERTEX
8
C-UTIL
10
1340286.79
20
440169.85
30
0
0
VERTEX
8
C-UTIL
10
1340387.8523485425
20
440207.5981654673
30
0
0
SEQEND
0
POLYLINE
8
C-SWM
66
1
70
1
0
VERTEX
8
C-SWM
10
1340325.1045893752
20
440156.97449091985
30
0
0
VERTEX
8
C-SWM
10
1340339.7333282134
20
440156.97449091985
30
0
0
VERTEX
8
C-SWM
10
1340339.7333282134
20
440171.6032297582
30
0
0
VERTEX
8
C-SWM
10
1340325.1045893752
20
440171.6032297582
30
0
0
VERTEX
8
C-SWM
10
1340325.1045893752
20
440156.97449091985
30
0
0
SEQEND
0
POLYLINE
8
C-DRNG-AREA
66
1
70
1
0
VERTEX
8
C-DRNG-AREA
10
1340254.7066
20
440194.1578
30
0
0
VERTEX
8
C-DRNG-AREA
10
1340428.1243676003
20
440226.3475853436
30
0
0
VERTEX
8
C-DRNG-AREA
10
1340439.9830001371
20
440162.4384871309
30
0
0
VERTEX
8
C-DRNG-AREA
10
1340323.0208863274
20
440140.7279935122
30
0
0
VERTEX
8
C-DRNG-AREA
10
1340254.7066
20
440194.1578
30
0
0
SEQEND
0
POLYLINE
8
C-PROP
66
1
70
1
0
VERTEX
8
C-PROP
10
1340374.0705289
20
440189.22643895994
30
0
0
VERTEX
8
C-PROP
10
1340404.0705289
20
440189.22643895994
30
0
0
VERTEX
8
C-PROP
10
1340404.0705289
20
440205.22643895994
30
0
0
VERTEX
8
C-PROP
10
1340374.0705289
20
440205.22643895994
30
0
0
VERTEX
8
C-PROP
10
1340374.0705289
20
440189.22643895994
30
0
0
SEQEND
0
POLYLINE
8
L-PLNT-TREE
66
1
70
1
0
VERTEX
8
L-PLNT-TREE
10
1340433.9697683465
20
440190.30523874005
30
0
0
VERTEX
8
L-PLNT-TREE
10
1340443.9697683465
20
440190.30523874005
30
0
0
VERTEX
8
L-PLNT-TREE
10
1340443.9697683465
20
440200.30523874005
30
0
0
VERTEX
8
L-PLNT-TREE
10
1340433.9697683465
20
440200.30523874005
30
0
0
VERTEX
8
L-PLNT-TREE
10
1340433.9697683465
20
440190.30523874005
30
0
0
SEQEND
0
POLYLINE
8
L-PLNT-TREE
66
1
70
1
0
VERTEX
8
L-PLNT-TREE
10
1340355.0589966627
20
440174.93572445086
30
0
0
VERTEX
8
L-PLNT-TREE
10
1340367.0589966627
20
440174.93572445086
30
0
0
VERTEX
8
L-PLNT-TREE
10
1340367.0589966627
20
440186.93572445086
30
0
0
VERTEX
8
L-PLNT-TREE
10
1340355.0589966627
20
440186.93572445086
30
0
0
VERTEX
8
L-PLNT-TREE
10
1340355.0589966627
20
440174.93572445086
30
0
0
SEQEND
0
POLYLINE
8
L-PLNT-TREE
66
1
70
1
0
VERTEX
8
L-PLNT-TREE
10
1340359.531748421
20
440158.24318763893
30
0
0
VERTEX
8
L-PLNT-TREE
10
1340371.531748421
20
440158.24318763893
30
0
0
VERTEX
8
L-PLNT-TREE
10
1340371.531748421
20
440170.24318763893
30
0
0
VERTEX
8
L-PLNT-TREE
10
1340359.531748421
20
440170.24318763893
30
0
0
VERTEX
8
L-PLNT-TREE
10
1340359.531748421
20
440158.24318763893
30
0
0
SEQEND
0
POLYLINE
8
V-PROP-ESMT
66
1
70
1
0
VERTEX
8
V-PROP-ESMT
10
1340439.9830001371
20
440162.4384871309
30
0
0
VERTEX
8
V-PROP-ESMT
10
1340428.1243676003
20
440226.3475853436
30
0
0
VERTEX
8
V-PROP-ESMT
10
1340418.2921986445
20
440224.5231803379
30
0
0
VERTEX
8
V-PROP-ESMT
10
1340430.1508311813
20
440160.61408212525
30
0
0
VERTEX
8
V-PROP-ESMT
10
1340439.9830001371
20
440162.4384871309
30
0
0
SEQEND
0
POLYLINE
8
V-PROP-ESMT
66
1
70
1
0
VERTEX
8
V-PROP-ESMT
10
1340418.8746239548
20
440224.6253815215
30
0
0
VERTEX
8
V-PROP-ESMT
10
1340428.6813628613
20
440226.50431476964
30
0
0
VERTEX
8
V-PROP-ESMT
10
1340465.2534682006
20
440029.48403952474
30
0
0
VERTEX
8
V-PROP-ESMT
10
1340453.1501459482
20
440038.95088411676
30
0
0
VERTEX
8
V-PROP-ESMT
10
1340418.8746239548
20
440224.6253815215
30
0
0
SEQEND
0
POLYLINE
8
V-PROP-LINE
66
1
70
1
0
VERTEX
8
V-PROP-LINE
10
1340439.984797532
20
440162.4389510336
30
0
0
VERTEX
8
V-PROP-LINE
10
1340464.550410933
20
440030.0487960438
30
0
0
VERTEX
8
V-PROP-LINE
10
1340323.0278943828
20
440140.72441625566
30
0
0
VERTEX
8
V-PROP-LINE
10
1340439.984797532
20
440162.4389510336
30
0
0
SEQEND
0
POLYLINE
8
C-PROP
66
1
70
1
0
VERTEX
8
C-PROP
10
1340341.931056188
20
440136.0973139916
30
0
0
VERTEX
8
C-PROP
10
1340426.654817491
20
440069.84033201117
30
0
0
VERTEX
8
C-PROP
10
1340411.948386198
20
440149.0969207409
30
0
0
VERTEX
8
C-PROP
10
1340341.931056188
20
440136.0973139916
30
0
0
SEQEND
0
POLYLINE
8
A-BLDG-OTLN
66
1
70
1
0
VERTEX
8
A-BLDG-OTLN
10
1340419.3859084775
20
440103.53303804627
30
0
0
VERTEX
8
A-BLDG-OTLN
10
1340410.9936454515
20
440148.76101524296
30
0
0
VERTEX
8
A-BLDG-OTLN
10
1340385.4300061665
20
440144.0175622283
30
0
0
VERTEX
8
A-BLDG-OTLN
10
1340393.8222691924
20
440098.7895850316
30
0
0
VERTEX
8
A-BLDG-OTLN
10
1340419.3859084775
20
440103.53303804627
30
0
0
SEQEND
0
POLYLINE
8
C-PVMT
66
1
70
1
0
VERTEX
8
C-PVMT
10
1340444.5748577241
20
440137.7019835357
30
0
0
VERTEX
8
C-PVMT
10
1340442.3855717175
20
440149.50058628264
30
0
0
VERTEX
8
C-PVMT
10
1340411.9058479546
20
440143.8449307651
30
0
0
VERTEX
8
C-PVMT
10
1340414.0951339612
20
440132.0463280182
30
0
0
VERTEX
8
C-PVMT
10
1340444.5748577241
20
440137.7019835357
30
0
0
SEQEND
0
POLYLINE
8
C-PVMT
66
1
70
1
0
VERTEX
8
C-PVMT
10
1340414.2420672653
20
440128.51384863333
30
0
0
VERTEX
8
C-PVMT
10
1340419.158151743
20
440129.42605113616
30
0
0
VERTEX
8
C-PVMT
10
1340417.9175563392
20
440136.1119260261
30
0
0
VERTEX
8
C-PVMT
10
1340413.0014718615
20
440135.1997235233
30
0
0
VERTEX
8
C-PVMT
10
1340414.2420672653
20
440128.51384863333
30
0
0
SEQEND
0
POLYLINE
8
C-PVMT
66
1
70
1
0
VERTEX
8
C-PVMT
10
1340420.764609052
20
440118.0278365867
30
0
0
VERTEX
8
C-PVMT
10
1340419.3050850474
20
440125.8935717513
30
0
0
VERTEX
8
C-PVMT
10
1340415.372217465
20
440125.16380974906
30
0
0
VERTEX
8
C-PVMT
10
1340416.8317414697
20
440117.29807458445
30
0
0
VERTEX
8
C-PVMT
10
1340420.764609052
20
440118.0278365867
30
0
0
SEQEND
0
POLYLINE
8
C-PVMT
66
1
70
1
0
VERTEX
8
C-PVMT
10
1340450.195593828
20
440154.0009812242
30
0
0
VERTEX
8
C-PVMT
10
1340453.4795228385
20
440136.30307710374
30
0
0
VERTEX
8
C-PVMT
10
1340441.6252070374
20
440137.154662034
30
0
0
VERTEX
8
C-PVMT
10
1340439.4359210308
20
440148.9532647809
30
0
0
VERTEX
8
C-PVMT
10
1340450.195593828
20
440154.0009812242
30
0
0
SEQEND
0
POLYLINE
8
C-LOD
66
1
70
1
0
VERTEX
8
C-LOD
10
1340385.4300061665
20
440144.0175622283
30
0
0
VERTEX
8
C-LOD
10
1340393.8222691924
20
440098.7895850316
30
0
0
VERTEX
8
C-LOD
10
1340461.6007602464
20
440029.5014745421
30
0
0
VERTEX
8
C-LOD
10
1340468.4832785155
20
440030.77855804603
30
0
0
VERTEX
8
C-LOD
10
1340469.9581038589
20
440031.0522187969
30
0
0
VERTEX
8
C-LOD
10
1340453.4795228385
20
440136.30307710374
30
0
0
VERTEX
8
C-LOD
10
1340450.195593828
20
440154.0009812242
30
0
0
VERTEX
8
C-LOD
10
1340445.3924904577
20
440163.4423737867
30
0
0
VERTEX
8
C-LOD
10
1340439.984797532
20
440162.4389510336
30
0
0
VERTEX
8
C-LOD
10
1340437.0351468453
20
440161.89162953186
30
0
0
VERTEX
8
C-LOD
10
1340385.4300061665
20
440144.0175622283
30
0
0
SEQEND
0
POLYLINE
8
C-PROP
66
1
70
1
0
VERTEX
8
C-PROP
10
1340437.4137823859
20
440158.150608566
30
0
0
VERTEX
8
C-PROP
10
1340462.2865936474
20
440034.5069493944
30
0
0
VERTEX
8
C-PROP
10
1340327.949567989
20
440139.84286709985
30
0
0
VERTEX
8
C-PROP
10
1340437.4137823859
20
440158.150608566
30
0
0
SEQEND
0
POINT
8
C-TOPO-SPOT
10
1340416.886975095
20
440123.9127785917
30
0
0
POLYLINE
8
C-UTIL
66
1
70
0
0
VERTEX
8
C-UTIL
10
1340322.0208863274
20
440140.7279935122
30
0
0
VERTEX
8
C-UTIL
10
1340397.211825809
20
440146.38928873563
30
0
0
SEQEND
0
POLYLINE
8
C-UTIL
66
1
70
0
0
VERTEX
8
C-UTIL
10
1340324.0208863274
20
440140.7279935122
30
0
0
VERTEX
8
C-UTIL
10
1340399.211825809
20
440146.38928873563
30
0
0
SEQEND
0
POLYLINE
8
C-SWM
66
1
70
1
0
VERTEX
8
C-SWM
10
1340421.3476674594
20
440066.27187033516
30
0
0
VERTEX
8
C-SWM
10
1340436.8718421557
20
440066.27187033516
30
0
0
VERTEX
8
C-SWM
10
1340436.8718421557
20
440081.79604503146
30
0
0
VERTEX
8
C-SWM
10
1340421.3476674594
20
440081.79604503146
30
0
0
VERTEX
8
C-SWM
10
1340421.3476674594
20
440066.27187033516
30
0
0
SEQEND
0
POLYLINE
8
C-DRNG-AREA
66
1
70
1
0
VERTEX
8
C-DRNG-AREA
10
1340439.984797532
20
440162.4389510336
30
0
0
VERTEX
8
C-DRNG-AREA
10
1340464.550410933
20
440030.0487960438
30
0
0
VERTEX
8
C-DRNG-AREA
10
1340323.0278943828
20
440140.72441625566
30
0
0
VERTEX
8
C-DRNG-AREA
10
1340439.984797532
20
440162.4389510336
30
0
0
SEQEND
0
POLYLINE
8
C-PROP
66
1
70
1
0
VERTEX
8
C-PROP
10
1340385.4300061665
20
440128.0175622283
30
0
0
VERTEX
8
C-PROP
10
1340415.4300061665
20
440128.0175622283
30
0
0
VERTEX
8
C-PROP
10
1340415.4300061665
20
440144.0175622283
30
0
0
VERTEX
8
C-PROP
10
1340385.4300061665
20
440144.0175622283
30
0
0
VERTEX
8
C-PROP
10
1340385.4300061665
20
440128.0175622283
30
0
0
SEQEND
0
POLYLINE
8
L-PLNT-TREE
66
1
70
1
0
VERTEX
8
L-PLNT-TREE
10
1340458.3250920607
20
440059.05853729404
30
0
0
VERTEX
8
L-PLNT-TREE
10
1340468.3250920607
20
440059.05853729404
30
0
0
VERTEX
8
L-PLNT-TREE
10
1340468.3250920607
20
440069.05853729404
30
0
0
VERTEX
8
L-PLNT-TREE
10
1340458.3250920607
20
440069.05853729404
30
0
0
VERTEX
8
L-PLNT-TREE
10
1340458.3250920607
20
440059.05853729404
30
0
0
SEQEND
0
POLYLINE
8
L-PLNT-TREE
66
1
70
1
0
VERTEX
8
L-PLNT-TREE
10
1340452.1836887104
20
440092.1560760415
30
0
0
VERTEX
8
L-PLNT-TREE
10
1340462.1836887104
20
440092.1560760415
30
0
0
VERTEX
8
L-PLNT-TREE
10
1340462.1836887104
20
440102.1560760415
30
0
0
VERTEX
8
L-PLNT-TREE
10
1340452.1836887104
20
440102.1560760415
30
0
0
VERTEX
8
L-PLNT-TREE
10
1340452.1836887104
20
440092.1560760415
30
0
0
SEQEND
0
POLYLINE
8
L-PLNT-TREE
66
1
70
1
0
VERTEX
8
L-PLNT-TREE
10
1340446.0422853602
20
440125.253614789
30
0
0
VERTEX
8
L-PLNT-TREE
10
1340456.0422853602
20
440125.253614789
30
0
0
VERTEX
8
L-PLNT-TREE
10
1340456.0422853602
20
440135.253614789
30
0
0
VERTEX
8
L-PLNT-TREE
10
1340446.0422853602
20
440135.253614789
30
0
0
VERTEX
8
L-PLNT-TREE
10
1340446.0422853602
20
440125.253614789
30
0
0
SEQEND
0
POLYLINE
8
L-PLNT-TREE
66
1
70
1
0
VERTEX
8
L-PLNT-TREE
10
1340423.0021049476
20
440127.12054107565
30
0
0
VERTEX
8
L-PLNT-TREE
10
1340435.0021049476
20
440127.12054107565
30
0
0
VERTEX
8
L-PLNT-TREE
10
1340435.0021049476
20
440139.12054107565
30
0
0
VERTEX
8
L-PLNT-TREE
10
1340423.0021049476
20
440139.12054107565
30
0
0
VERTEX
8
L-PLNT-TREE
10
1340423.0021049476
20
440127.12054107565
30
0
0
SEQEND
0
POLYLINE
8
V-PROP-ESMT
66
1
70
1
0
VERTEX
8
V-PROP-ESMT
10
1340285.79
20
440169.85
30
0
0
VERTEX
8
V-PROP-ESMT
10
1340194.0433855364
20
440174.8299299171
30
0
0
VERTEX
8
V-PROP-ESMT
10
1340190.3938342012
20
440173.4497601632
30
0
0
VERTEX
8
V-PROP-ESMT
10
1340187.5502565184
20
440170.7780267446
30
0
0
VERTEX
8
V-PROP-ESMT
10
1340185.9455614134
20
440167.22147685505
30
0
0
VERTEX
8
V-PROP-ESMT
10
1340185.824049169
20
440163.32156297495
30
0
0
VERTEX
8
V-PROP-ESMT
10
1340187.2042189229
20
440159.67201163975
30
0
0
VERTEX
8
V-PROP-ESMT
10
1340189.8759523414
20
440156.82843395707
30
0
0
VERTEX
8
V-PROP-ESMT
10
1340193.432502231
20
440155.22373885184
30
0
0
VERTEX
8
V-PROP-ESMT
10
1340197.3324161111
20
440155.1022266074
30
0
0
VERTEX
8
V-PROP-ESMT
10
1340285.79
20
440169.85
30
0
0
SEQEND
0
POLYLINE
8
V-PROP-ESMT
66
1
70
1
0
VERTEX
8
V-PROP-ESMT
10
1340254.7066
20
440194.1578
30
0
0
VERTEX
8
V-PROP-ESMT
10
1340323.0208863274
20
440140.7279935122
30
0
0
VERTEX
8
V-PROP-ESMT
10
1340329.1815697204
20
440148.6049205863
30
0
0
VERTEX
8
V-PROP-ESMT
10
1340267.825143151
20
440196.5928624154
30
0
0
VERTEX
8
V-PROP-ESMT
10
1340254.7066
20
440194.1578
30
0
0
SEQEND
0
POLYLINE
8
C-UTIL
66
1
70
0
0
VERTEX
8
C-UTIL
10
1340196.6746099961
20
440159.04776726937
30
0
0
VERTEX
8
C-UTIL
10
1340261.4589499133
20
440169.8487039724
30
0
0
VERTEX
8
C-UTIL
10
1340285.79
20
440169.85
30
0
0
SEQEND
0
POLYLINE
8
C-UTIL
66
1
70
0
0
VERTEX
8
C-UTIL
10
1340257.3303086301
20
440194.6448124831
30
0
0
VERTEX
8
C-UTIL
10
1340324.253023006
20
440142.303378927
30
0
0
SEQEND
0
POLYLINE
8
C-UTIL
66
1
70
0
0
VERTEX
8
C-UTIL
10
1340196.0168038814
20
440162.9933079313
30
0
0
VERTEX
8
C-UTIL
10
1340260.8011437985
20
440173.79424463434
30
0
0
VERTEX
8
C-UTIL
10
1340285.79
20
440169.85
30
0
0
SEQEND
0
POLYLINE
8
C-UTIL
66
1
70
0
0
VERTEX
8
C-UTIL
10
1340259.9540172603
20
440195.13182496617
30
0
0
VERTEX
8
C-UTIL
10
1340325.4851596847
20
440143.8787643418
30
0
0
SEQEND
0
POLYLINE
8
C-UTIL
66
1
70
0
0
VERTEX
8
C-UTIL
10
1340195.3589977664
20
440166.9388485933
30
0
0
VERTEX
8
C-UTIL
10
1340260.1433376835
20
440177.7397852963
30
0
0
VERTEX
8
C-UTIL
10
1340285.79
20
440169.85
30
0
0
SEQEND
0
POLYLINE
8
C-UTIL
66
1
70
0
0
VERTEX
8
C-UTIL
10
1340262.5777258908
20
440195.6188374493
30
0
0
VERTEX
8
C-UTIL
10
1340326.7172963633
20
440145.45414975664
30
0
0
SEQEND
0
POLYLINE
8
C-UTIL
66
1
70
0
0
VERTEX
8
C-UTIL
10
1340194.7011916514
20
440170.8843892552
30
0
0
VERTEX
8
C-UTIL
10
1340259.4855315685
20
440181.68532595824
30
0
0
VERTEX
8
C-UTIL
10
1340285.79
20
440169.85
30
0
0
SEQEND
0
POLYLINE
8
C-UTIL
66
1
70
0
0
VERTEX
8
C-UTIL
10
1340265.2014345208
20
440196.10584993236
30
0
0
VERTEX
8
C-UTIL
10
1340327.9494330417
20
440147.02953517146
30
0
0
SEQEND
0
POINT
8
C-TOPO-SPOT
10
1340285.79
20
440169.85
30
0
0
POINT
8
C-MISC
10
1340195.6879008238
20
440164.96607826225
30
0
0
POLYLINE
8
C-PVMT
66
1
70
1
0
VERTEX
8
C-PVMT
10
1340428.1243675614
20
440226.34758533636
30
0
0
VERTEX
8
C-PVMT
10
1340430.47877291
20
440213.6591136939
30
0
0
VERTEX
8
C-PVMT
10
1340433.4284235968
20
440214.20643519564
30
0
0
VERTEX
8
C-PVMT
10
1340431.0740182481
20
440226.8949068381
30
0
0
VERTEX
8
C-PVMT
10
1340428.1243675614
20
440226.34758533636
30
0
0
SEQEND
0
POLYLINE
8
C-MISC
66
1
70
1
0
VERTEX
8
C-MISC
10
1340431.0740182481
20
440226.8949068381
30
0
0
VERTEX
8
C-MISC
10
1340433.4284235968
20
440214.20643519564
30
0
0
VERTEX
8
C-MISC
10
1340437.3612911792
20
440214.9361971979
30
0
0
VERTEX
8
C-MISC
10
1340435.0068858305
20
440227.6246688403
30
0
0
VERTEX
8
C-MISC
10
1340431.0740182481
20
440226.8949068381
30
0
0
SEQEND
0
POLYLINE
8
C-PVMT
66
1
70
1
0
VERTEX
8
C-PVMT
10
1340435.0068858305
20
440227.6246688403
30
0
0
VERTEX
8
C-PVMT
10
1340437.3612911792
20
440214.9361971979
30
0
0
VERTEX
8
C-PVMT
10
1340438.8361165226
20
440215.20985794876
30
0
0
VERTEX
8
C-PVMT
10
1340436.481711174
20
440227.8983295912
30
0
0
VERTEX
8
C-PVMT
10
1340435.0068858305
20
440227.6246688403
30
0
0
SEQEND
0
POLYLINE
8
C-PVMT
66
1
70
1
0
VERTEX
8
C-PVMT
10
1340433.7627019202
20
440195.9612095735
30
0
0
VERTEX
8
C-PVMT
10
1340441.8364293934
20
440152.4498991072
30
0
0
VERTEX
8
C-PVMT
10
1340444.78608008
20
440152.99722060893
30
0
0
VERTEX
8
C-PVMT
10
1340436.712352607
20
440196.5085310752
30
0
0
VERTEX
8
C-PVMT
10
1340433.7627019202
20
440195.9612095735
30
0
0
SEQEND
0
POLYLINE
8
C-MISC
66
1
70
1
0
VERTEX
8
C-MISC
10
1340436.712352607
20
440196.5085310752
30
0
0
VERTEX
8
C-MISC
10
1340444.78608008
20
440152.99722060893
30
0
0
VERTEX
8
C-MISC
10
1340448.7189476625
20
440153.7269826112
30
0
0
VERTEX
8
C-MISC
10
1340440.6452201894
20
440197.23829307745
30
0
0
VERTEX
8
C-MISC
10
1340436.712352607
20
440196.5085310752
30
0
0
SEQEND
0
POLYLINE
8
C-PVMT
66
1
70
1
0
VERTEX
8
C-PVMT
10
1340440.6452201894
20
440197.23829307745
30
0
0
VERTEX
8
C-PVMT
10
1340448.7189476625
20
440153.7269826112
30
0
0
VERTEX
8
C-PVMT
10
1340450.1937730059
20
440154.00064336206
30
0
0
VERTEX
8
C-PVMT
10
1340442.1200455327
20
440197.51195382833
30
0
0
VERTEX
8
C-PVMT
10
1340440.6452201894
20
440197.23829307745
30
0
0
SEQEND
0
POLYLINE
8
C-PVMT
66
1
70
1
0
VERTEX
8
C-PVMT
10
1340445.1203584035
20
440134.7519949868
30
0
0
VERTEX
8
C-PVMT
10
1340464.5485901108
20
440030.04845818167
30
0
0
VERTEX
8
C-PVMT
10
1340467.4982407975
20
440030.5957796834
30
0
0
VERTEX
8
C-PVMT
10
1340448.0700090902
20
440135.2993164885
30
0
0
VERTEX
8
C-PVMT
10
1340445.1203584035
20
440134.7519949868
30
0
0
SEQEND
0
POLYLINE
8
C-MISC
66
1
70
1
0
VERTEX
8
C-MISC
10
1340448.0700090902
20
440135.2993164885
30
0
0
VERTEX
8
C-MISC
10
1340467.4982407975
20
440030.5957796834
30
0
0
VERTEX
8
C-MISC
10
1340471.43110838
20
440031.3255416856
30
0
0
VERTEX
8
C-MISC
10
1340452.0028766727
20
440136.02907849074
30
0
0
VERTEX
8
C-MISC
10
1340448.0700090902
20
440135.2993164885
30
0
0
SEQEND
0
POLYLINE
8
C-PVMT
66
1
70
1
0
VERTEX
8
C-PVMT
10
1340452.0028766727
20
440136.02907849074
30
0
0
VERTEX
8
C-PVMT
10
1340471.43110838
20
440031.3255416856
30
0
0
VERTEX
8
C-PVMT
10
1340472.9059337233
20
440031.5992024365
30
0
0
VERTEX
8
C-PVMT
10
1340453.477702016
20
440136.3027392416
30
0
0
VERTEX
8
C-PVMT
10
1340452.0028766727
20
440136.02907849074
30
0
0
SEQEND
0
POLYLINE
8
C-MISC
66
1
70
0
0
VERTEX
8
C-MISC
10
1340455.0612936586
20
440292.37003325473
30
0
0
VERTEX
8
C-MISC
10
1340513.3783762758
20
439978.0848786305
30
0
0
SEQEND
0
POLYLINE
8
C-MISC
66
1
70
0
0
VERTEX
8
C-MISC
10
1340473.280311878
20
440295.750657427
30
0
0
VERTEX
8
C-MISC
10
1340531.5973944953
20
439981.4655028028
30
0
0
SEQEND
0
POINT
8
C-TOPO-SPOT
10
1340254.7066
20
440194.1578
30
0
0
POINT
8
C-TOPO-SPOT
10
1340447.7902
20
440229.9981
30
0
0
POINT
8
C-TOPO-SPOT
10
1340488.344
20
440011.445
30
0
0
ENDSEC
0
EOF
