0
SECTION
2
HEADER
9
$INSUNITS
70
2
0
ENDSEC
0
SECTION
2
TABLES
0
TABLE
2
LAYER
70
12
0
LAYER
2
V-PROP-LINE
70
0
62
7
6
CONTINUOUS
0
LAYER
2
C-TOPO-MAJR
70
0
62
32
6
CONTINUOUS
0
LAYER
2
C-PROP
70
0
62
6
6
CONTINUOUS
0
LAYER
2
A-BLDG-OTLN
70
0
62
3
6
CONTINUOUS
0
LAYER
2
C-PVMT
70
0
62
8
6
CONTINUOUS
0
LAYER
2
C-LOD
70
0
62
30
6
CONTINUOUS
0
LAYER
2
C-TOPO-SPOT
70
0
62
7
6
CONTINUOUS
0
LAYER
2
C-UTIL
70
0
62
4
6
CONTINUOUS
0
LAYER
2
C-SWM
70
0
62
92
6
CONTINUOUS
0
LAYER
2
C-DRNG-AREA
70
0
62
150
6
CONTINUOUS
0
LAYER
2
L-PLNT-TREE
70
0
62
90
6
CONTINUOUS
0
LAYER
2
V-PROP-ESMT
70
0
62
5
6
CONTINUOUS
0
ENDTAB
0
ENDSEC
0
SECTION
2
ENTITIES
0
POLYLINE
8
V-PROP-LINE
66
1
70
1
0
VERTEX
8
V-PROP-LINE
10
1340254.7066
20
440194.1578
30
0
0
VERTEX
8
V-PROP-LINE
10
1340447.788475504
20
440229.9976347079
30
0
0
VERTEX
8
V-PROP-LINE
10
1340488.3413499699
20
440011.44818315847
30
0
0
VERTEX
8
V-PROP-LINE
10
1340254.7066
20
440194.1578
30
0
0
SEQEND
0
POLYLINE
8
V-PROP-LINE
66
1
70
1
0
VERTEX
8
V-PROP-LINE
10
1340254.7066
20
440194.1578
30
0
0
VERTEX
8
V-PROP-LINE
10
1340428.1243676003
20
440226.3475853436
30
0
0
VERTEX
8
V-PROP-LINE
10
1340439.9830001371
20
440162.4384871309
30
0
0
VERTEX
8
V-PROP-LINE
10
1340323.0208863274
20
440140.7279935122
30
0
0
VERTEX
8
V-PROP-LINE
10
1340254.7066
20
440194.1578
30
0
0
SEQEND
0
POLYLINE
8
C-TOPO-MAJR
66
1
70
0
0
VERTEX
8
C-TOPO-MAJR
10
1340253.2342071945
20
440215.71365393675
30
212
0
VERTEX
8
C-TOPO-MAJR
10
1340246.647278116
20
440215.6693626886
30
212
0
VERTEX
8
C-TOPO-MAJR
10
1340242.0400038639
20
440217.3517740209
30
212
0
SEQEND
0
POLYLINE
8
C-TOPO-MAJR
66
1
70
0
0
VERTEX
8
C-TOPO-MAJR
10
1340338.9377759492
20
440231.7654591
30
212
0
VERTEX
8
C-TOPO-MAJR
10
1340334.1369325332
20
440229.8494524432
30
212
0
SEQEND
0
POLYLINE
8
C-TOPO-MAJR
66
1
70
0
0
VERTEX
8
C-TOPO-MAJR
10
1340334.1369325332
20
440229.8494524432
30
212
0
VERTEX
8
C-TOPO-MAJR
10
1340324.3436450323
20
440225.94033953967
30
212
0
VERTEX
8
C-TOPO-MAJR
10
1340319.7836147812
20
440224.00694444374
30
212
0
VERTEX
8
C-TOPO-MAJR
10
1340319.0142593672
20
440223.60766702396
30
212
0
VERTEX
8
C-TOPO-MAJR
10
1340315.9388061997
20
440222.5479578608
30
212
0
VERTEX
8
C-TOPO-MAJR
10
1340307.866315776
20
440223.0417232759
30
212
0
VERTEX
8
C-TOPO-MAJR
10
1340299.0644961086
20
440227.1135655266
30
212
0
VERTEX
8
C-TOPO-MAJR
10
1340295.5710647842
20
440230.0082447726
30
212
0
VERTEX
8
C-TOPO-MAJR
10
1340294.9503311152
20
440230.68081560923
30
212
0
VERTEX
8
C-TOPO-MAJR
10
1340290.9103129492
20
440232.9701811038
30
212
0
VERTEX
8
C-TOPO-MAJR
10
1340284.3624257825
20
440227.06829002715
30
212
0
VERTEX
8
C-TOPO-MAJR
10
1340282.3591489473
20
440224.3517600219
30
212
0
VERTEX
8
C-TOPO-MAJR
10
1340278.5261513721
20
440220.22479978227
30
212
0
VERTEX
8
C-TOPO-MAJR
10
1340277.334224625
20
440219.17887010187
30
212
0
VERTEX
8
C-TOPO-MAJR
10
1340274.9260929513
20
440217.9150931159
30
212
0
VERTEX
8
C-TOPO-MAJR
10
1340265.12788421
20
440216.89606628113
30
212
0
VERTEX
8
C-TOPO-MAJR
10
1340256.9057877837
20
440215.73858827964
30
212
0
VERTEX
8
C-TOPO-MAJR
10
1340253.2342071945
20
440215.71365393675
30
212
0
SEQEND
0
POLYLINE
8
C-TOPO-MAJR
66
1
70
0
0
VERTEX
8
C-TOPO-MAJR
10
1340436.9497190379
20
440151.2426542794
30
210
0
VERTEX
8
C-TOPO-MAJR
10
1340438.2735352837
20
440150.6035479379
30
210
0
VERTEX
8
C-TOPO-MAJR
10
1340438.9490588722
20
440148.2721877869
30
210
0
VERTEX
8
C-TOPO-MAJR
10
1340441.0048290316
20
440143.2439826094
30
210
0
VERTEX
8
C-TOPO-MAJR
10
1340448.781060201
20
440135.8325801168
30
210
0
VERTEX
8
C-TOPO-MAJR
10
1340450.678694201
20
440134.41132310504
30
210
0
VERTEX
8
C-TOPO-MAJR
10
1340455.819103861
20
440128.34473418153
30
210
0
VERTEX
8
C-TOPO-MAJR
10
1340456.6386560323
20
440122.4264389447
30
210
0
VERTEX
8
C-TOPO-MAJR
10
1340453.738399368
20
440118.4887827633
30
210
0
SEQEND
0
POLYLINE
8
C-TOPO-MAJR
66
1
70
0
0
VERTEX
8
C-TOPO-MAJR
10
1340448.0678070318
20
440120.5478337824
30
210
0
VERTEX
8
C-TOPO-MAJR
10
1340444.953968121
20
440124.0740734416
30
210
0
VERTEX
8
C-TOPO-MAJR
10
1340437.5192717009
20
440134.1121111092
30
210
0
VERTEX
8
C-TOPO-MAJR
10
1340434.6941461232
20
440137.2039684427
30
210
0
VERTEX
8
C-TOPO-MAJR
10
1340431.7509105345
20
440142.3056642842
30
210
0
VERTEX
8
C-TOPO-MAJR
10
1340432.277812372
20
440147.19082511164
30
210
0
VERTEX
8
C-TOPO-MAJR
10
1340434.0159978713
20
440150.47231460136
30
210
0
VERTEX
8
C-TOPO-MAJR
10
1340434.1793833612
20
440150.6183116995
30
210
0
VERTEX
8
C-TOPO-MAJR
10
1340436.9497190379
20
440151.2426542794
30
210
0
SEQEND
0
POLYLINE
8
C-TOPO-MAJR
66
1
70
0
0
VERTEX
8
C-TOPO-MAJR
10
1340283.449041783
20
440150.27972968185
30
214
0
VERTEX
8
C-TOPO-MAJR
10
1340284.3145256147
20
440150.11798460135
30
214
0
VERTEX
8
C-TOPO-MAJR
10
1340286.4040883735
20
440147.750207198
30
214
0
VERTEX
8
C-TOPO-MAJR
10
1340286.5907677854
20
440147.32041801594
30
214
0
SEQEND
0
POLYLINE
8
C-TOPO-MAJR
66
1
70
0
0
VERTEX
8
C-TOPO-MAJR
10
1340342.1693967807
20
440140.2767969538
30
210
0
VERTEX
8
C-TOPO-MAJR
10
1340341.6611957038
20
440140.78302952665
30
210
0
VERTEX
8
C-TOPO-MAJR
10
1340339.1054265297
20
440141.90769919247
30
210
0
VERTEX
8
C-TOPO-MAJR
10
1340336.4010356222
20
440137.5848731995
30
210
0
VERTEX
8
C-TOPO-MAJR
10
1340338.325572455
20
440134.8752329417
30
210
0
VERTEX
8
C-TOPO-MAJR
10
1340340.849845614
20
440134.12228169054
30
210
0
VERTEX
8
C-TOPO-MAJR
10
1340343.9364536225
20
440136.6970796952
30
210
0
VERTEX
8
C-TOPO-MAJR
10
1340342.1693967807
20
440140.2767969538
30
210
0
SEQEND
0
POLYLINE
8
C-TOPO-MAJR
66
1
70
0
0
VERTEX
8
C-TOPO-MAJR
10
1340345.6897309537
20
440177.2878777763
30
210
0
VERTEX
8
C-TOPO-MAJR
10
1340342.3016143693
20
440179.81838452676
30
210
0
VERTEX
8
C-TOPO-MAJR
10
1340342.9410487833
20
440186.19501219917
30
210
0
VERTEX
8
C-TOPO-MAJR
10
1340344.062109526
20
440186.34363395337
30
210
0
VERTEX
8
C-TOPO-MAJR
10
1340348.501733201
20
440180.225864019
30
210
0
VERTEX
8
C-TOPO-MAJR
10
1340345.6897309537
20
440177.2878777763
30
210
0
SEQEND
0
POLYLINE
8
C-TOPO-MAJR
66
1
70
0
0
VERTEX
8
C-TOPO-MAJR
10
1340356.528620031
20
440247.0442999475
30
212
0
VERTEX
8
C-TOPO-MAJR
10
1340353.1552672065
20
440243.27462243766
30
212
0
VERTEX
8
C-TOPO-MAJR
10
1340352.6667511144
20
440242.67882310506
30
212
0
VERTEX
8
C-TOPO-MAJR
10
1340348.3025866144
20
440238.5863116058
30
212
0
VERTEX
8
C-TOPO-MAJR
10
1340341.367561117
20
440233.0380943484
30
212
0
VERTEX
8
C-TOPO-MAJR
10
1340339.3790480339
20
440231.9416398471
30
212
0
VERTEX
8
C-TOPO-MAJR
10
1340338.9377759492
20
440231.7654591
30
212
0
SEQEND
0
POLYLINE
8
C-TOPO-MAJR
66
1
70
0
0
VERTEX
8
C-TOPO-MAJR
10
1340460.3968506127
20
440224.6342397778
30
210
0
VERTEX
8
C-TOPO-MAJR
10
1340459.9076783664
20
440224.7700662671
30
210
0
VERTEX
8
C-TOPO-MAJR
10
1340442.6331066175
20
440224.7139640238
30
210
0
VERTEX
8
C-TOPO-MAJR
10
1340436.093093453
20
440225.42393636104
30
210
0
VERTEX
8
C-TOPO-MAJR
10
1340426.1482314428
20
440226.2526748527
30
210
0
VERTEX
8
C-TOPO-MAJR
10
1340420.1790832935
20
440225.82190143754
30
210
0
VERTEX
8
C-TOPO-MAJR
10
1340413.4327056964
20
440223.90819136624
30
210
0
VERTEX
8
C-TOPO-MAJR
10
1340406.6781260334
20
440220.5138411907
30
210
0
VERTEX
8
C-TOPO-MAJR
10
1340402.5934885452
20
440220.84422110836
30
210
0
VERTEX
8
C-TOPO-MAJR
10
1340390.1279622875
20
440228.70739435963
30
210
0
VERTEX
8
C-TOPO-MAJR
10
1340384.7880779486
20
440229.5725501066
30
210
0
VERTEX
8
C-TOPO-MAJR
10
1340367.50760071
20
440226.5630416996
30
210
0
VERTEX
8
C-TOPO-MAJR
10
1340366.4774190292
20
440226.436401525
30
210
0
VERTEX
8
C-TOPO-MAJR
10
1340363.9492088656
20
440225.9505101118
30
210
0
VERTEX
8
C-TOPO-MAJR
10
1340363.6585270304
20
440225.7877807738
30
210
0
VERTEX
8
C-TOPO-MAJR
10
1340359.6749392012
20
440222.2936932694
30
210
0
VERTEX
8
C-TOPO-MAJR
10
1340353.9098588615
20
440215.650661949
30
210
0
VERTEX
8
C-TOPO-MAJR
10
1340351.2963470337
20
440213.57225402165
30
210
0
VERTEX
8
C-TOPO-MAJR
10
1340341.9023369537
20
440208.96333935915
30
210
0
VERTEX
8
C-TOPO-MAJR
10
1340339.9446637006
20
440209.0191135136
30
210
0
VERTEX
8
C-TOPO-MAJR
10
1340332.0309656255
20
440213.0775043674
30
210
0
VERTEX
8
C-TOPO-MAJR
10
1340330.0440929553
20
440213.0319007821
30
210
0
VERTEX
8
C-TOPO-MAJR
10
1340327.697969036
20
440212.1664169462
30
210
0
VERTEX
8
C-TOPO-MAJR
10
1340326.1031559526
20
440211.3957491823
30
210
0
VERTEX
8
C-TOPO-MAJR
10
1340320.1143227783
20
440208.9994285256
30
210
0
VERTEX
8
C-TOPO-MAJR
10
1340315.5359198733
20
440207.6897198502
30
210
0
VERTEX
8
C-TOPO-MAJR
10
1340308.937507867
20
440205.2146591989
30
210
0
VERTEX
8
C-TOPO-MAJR
10
1340303.3522171958
20
440201.5945876916
30
210
0
VERTEX
8
C-TOPO-MAJR
10
1340301.7898843766
20
440198.63822877983
30
210
0
VERTEX
8
C-TOPO-MAJR
10
1340301.8587818726
20
440198.0401328586
30
210
0
VERTEX
8
C-TOPO-MAJR
10
1340302.5005128654
20
440193.05425045703
30
210
0
VERTEX
8
C-TOPO-MAJR
10
1340301.1904761214
20
440184.5437687795
30
210
0
VERTEX
8
C-TOPO-MAJR
10
1340303.8732135394
20
440172.5851312718
30
210
0
VERTEX
8
C-TOPO-MAJR
10
1340308.6579808737
20
440167.4873724419
30
210
0
VERTEX
8
C-TOPO-MAJR
10
1340311.0064013726
20
440165.70095869247
30
210
0
VERTEX
8
C-TOPO-MAJR
10
1340316.1005512914
20
440164.18652602873
30
210
0
VERTEX
8
C-TOPO-MAJR
10
1340320.0539554497
20
440164.9371807005
30
210
0
VERTEX
8
C-TOPO-MAJR
10
1340329.5047239508
20
440164.83678719687
30
210
0
VERTEX
8
C-TOPO-MAJR
10
1340336.2514296174
20
440161.48410360416
30
210
0
VERTEX
8
C-TOPO-MAJR
10
1340343.1723475293
20
440156.08057111985
30
210
0
VERTEX
8
C-TOPO-MAJR
10
1340345.5781826207
20
440153.89619227865
30
210
0
VERTEX
8
C-TOPO-MAJR
10
1340348.125749701
20
440150.17868002795
30
210
0
VERTEX
8
C-TOPO-MAJR
10
1340348.5319168717
20
440149.67540020315
30
210
0
VERTEX
8
C-TOPO-MAJR
10
1340352.6375517056
20
440145.04023885744
30
210
0
VERTEX
8
C-TOPO-MAJR
10
1340359.1345859435
20
440135.7689319452
30
210
0
VERTEX
8
C-TOPO-MAJR
10
1340363.5870048662
20
440131.9756324449
30
210
0
VERTEX
8
C-TOPO-MAJR
10
1340368.6047113647
20
440128.0953908562
30
210
0
VERTEX
8
C-TOPO-MAJR
10
1340373.6332446116
20
440123.54192227754
30
210
0
VERTEX
8
C-TOPO-MAJR
10
1340385.3133393642
20
440115.47533735377
30
210
0
SEQEND
0
POLYLINE
8
C-TOPO-MAJR
66
1
70
0
0
VERTEX
8
C-TOPO-MAJR
10
1340263.4750003642
20
440117.4674593552
30
214
0
VERTEX
8
C-TOPO-MAJR
10
1340263.651181114
20
440123.2417260181
30
214
0
VERTEX
8
C-TOPO-MAJR
10
1340263.7814301983
20
440129.21513928653
30
214
0
VERTEX
8
C-TOPO-MAJR
10
1340265.0688292037
20
440136.4415027696
30
214
0
VERTEX
8
C-TOPO-MAJR
10
1340266.5606241198
20
440139.5113785266
30
214
0
VERTEX
8
C-TOPO-MAJR
10
1340269.8102895294
20
440145.3102514435
30
214
0
VERTEX
8
C-TOPO-MAJR
10
1340271.6436192035
20
440149.2705453579
30
214
0
VERTEX
8
C-TOPO-MAJR
10
1340273.5570012014
20
440150.2485617723
30
214
0
VERTEX
8
C-TOPO-MAJR
10
1340281.919845367
20
440150.15079293394
30
214
0
VERTEX
8
C-TOPO-MAJR
10
1340283.449041783
20
440150.27972968185
30
214
0
SEQEND
0
POLYLINE
8
C-TOPO-MAJR
66
1
70
0
0
VERTEX
8
C-TOPO-MAJR
10
1340368.6296457045
20
440209.85539793957
30
210
0
VERTEX
8
C-TOPO-MAJR
10
1340368.7461152787
20
440204.20777144824
30
210
0
VERTEX
8
C-TOPO-MAJR
10
1340369.5092371225
20
440201.30095312424
30
210
0
VERTEX
8
C-TOPO-MAJR
10
1340373.0961722007
20
440194.5266884429
30
210
0
VERTEX
8
C-TOPO-MAJR
10
1340371.1178297072
20
440186.59494577534
30
210
0
VERTEX
8
C-TOPO-MAJR
10
1340364.3392999452
20
440184.7524297795
30
210
0
VERTEX
8
C-TOPO-MAJR
10
1340363.5768342877
20
440185.15334760095
30
210
0
VERTEX
8
C-TOPO-MAJR
10
1340355.3521131962
20
440196.1907271061
30
210
0
VERTEX
8
C-TOPO-MAJR
10
1340353.887877279
20
440203.7363156986
30
210
0
VERTEX
8
C-TOPO-MAJR
10
1340357.5381324564
20
440210.3596620341
30
210
0
VERTEX
8
C-TOPO-MAJR
10
1340359.9567627897
20
440213.12015519856
30
210
0
VERTEX
8
C-TOPO-MAJR
10
1340364.1158751932
20
440215.6322892677
30
210
0
VERTEX
8
C-TOPO-MAJR
10
1340368.6296457045
20
440209.85539793957
30
210
0
SEQEND
0
POLYLINE
8
C-TOPO-MAJR
66
1
70
0
0
VERTEX
8
C-TOPO-MAJR
10
1340286.5907677854
20
440147.32041801594
30
214
0
VERTEX
8
C-TOPO-MAJR
10
1340287.869964706
20
440144.37751053466
30
214
0
VERTEX
8
C-TOPO-MAJR
10
1340292.0284209526
20
440135.76794769685
30
214
0
VERTEX
8
C-TOPO-MAJR
10
1340293.8105696102
20
440129.5825926037
30
214
0
VERTEX
8
C-TOPO-MAJR
10
1340294.5159487836
20
440127.09276819084
30
214
0
VERTEX
8
C-TOPO-MAJR
10
1340298.9388402065
20
440120.3719811089
30
214
0
SEQEND
0
POLYLINE
8
C-TOPO-MAJR
66
1
70
0
0
VERTEX
8
C-TOPO-MAJR
10
1340242.0400038639
20
440217.3517740209
30
212
0
VERTEX
8
C-TOPO-MAJR
10
1340236.7394895356
20
440219.28713760735
30
212
0
VERTEX
8
C-TOPO-MAJR
10
1340234.1574736978
20
440220.0292621086
30
212
0
SEQEND
0
POLYLINE
8
C-TOPO-MAJR
66
1
70
0
0
VERTEX
8
C-TOPO-MAJR
10
1340229.1404233687
20
440120.4667971992
30
212
0
VERTEX
8
C-TOPO-MAJR
10
1340234.7322757079
20
440125.3168530963
30
212
0
VERTEX
8
C-TOPO-MAJR
10
1340236.1955273715
20
440127.0360097667
30
212
0
VERTEX
8
C-TOPO-MAJR
10
1340238.5222943674
20
440130.06749977777
30
212
0
VERTEX
8
C-TOPO-MAJR
10
1340244.9376358683
20
440135.7272653593
30
212
0
VERTEX
8
C-TOPO-MAJR
10
1340247.206004037
20
440139.77023627993
30
212
0
VERTEX
8
C-TOPO-MAJR
10
1340250.7657082065
20
440149.14849835436
30
212
0
VERTEX
8
C-TOPO-MAJR
10
1340252.0101282876
20
440154.28070593986
30
212
0
VERTEX
8
C-TOPO-MAJR
10
1340252.9464781072
20
440158.0874568615
30
212
0
VERTEX
8
C-TOPO-MAJR
10
1340261.9533498676
20
440164.1648725319
30
212
0
VERTEX
8
C-TOPO-MAJR
10
1340264.0225714566
20
440165.2344241844
30
212
0
VERTEX
8
C-TOPO-MAJR
10
1340266.3391678757
20
440165.86106336216
30
212
0
VERTEX
8
C-TOPO-MAJR
10
1340274.4592303592
20
440164.66191876866
30
212
0
VERTEX
8
C-TOPO-MAJR
10
1340283.2551445346
20
440161.20326427737
30
212
0
VERTEX
8
C-TOPO-MAJR
10
1340291.0943676946
20
440155.58647759754
30
212
0
VERTEX
8
C-TOPO-MAJR
10
1340293.506436377
20
440153.60813511244
30
212
0
VERTEX
8
C-TOPO-MAJR
10
1340297.6891707957
20
440151.0713947862
30
212
0
VERTEX
8
C-TOPO-MAJR
10
1340302.5874549572
20
440148.49101936514
30
212
0
VERTEX
8
C-TOPO-MAJR
10
1340305.9276713696
20
440145.6649095263
30
212
0
VERTEX
8
C-TOPO-MAJR
10
1340308.4391492833
20
440142.4086824531
30
212
0
VERTEX
8
C-TOPO-MAJR
10
1340312.8023295384
20
440137.12982160697
30
212
0
VERTEX
8
C-TOPO-MAJR
10
1340319.7695071956
20
440132.62687785836
30
212
0
VERTEX
8
C-TOPO-MAJR
10
1340322.1340037873
20
440130.4579189351
30
212
0
VERTEX
8
C-TOPO-MAJR
10
1340324.5089990315
20
440127.9674383689
30
212
0
VERTEX
8
C-TOPO-MAJR
10
1340328.9023629571
20
440124.65150010213
30
212
0
VERTEX
8
C-TOPO-MAJR
10
1340329.4328737108
20
440124.25419119425
30
212
0
VERTEX
8
C-TOPO-MAJR
10
1340332.5463845413
20
440121.2948795253
30
212
0
VERTEX
8
C-TOPO-MAJR
10
1340337.725508033
20
440114.9435142603
30
212
0
SEQEND
0
POLYLINE
8
C-PROP
66
1
70
1
0
VERTEX
8
C-PROP
10
1340340.8500604494
20
440152.17409453925
30
0
0
VERTEX
8
C-PROP
10
1340413.9433412016
20
440165.74166059674
30
0
0
VERTEX
8
C-PROP
10
1340405.0037566796
20
440213.91928844893
30
0
0
VERTEX
8
C-PROP
10
1340289.351598482
20
440192.45194863476
30
0
0
VERTEX
8
C-PROP
10
1340340.8500604494
20
440152.17409453925
30
0
0
SEQEND
0
POLYLINE
8
A-BLDG-OTLN
66
1
70
1
0
VERTEX
8
A-BLDG-OTLN
10
1340414.5642513395
20
440162.39542258286
30
0
0
VERTEX
8
A-BLDG-OTLN
10
1340406.1719883136
20
440207.62339977955
30
0
0
VERTEX
8
A-BLDG-OTLN
10
1340380.6083490285
20
440202.8799467648
30
0
0
VERTEX
8
A-BLDG-OTLN
10
1340389.0006120545
20
440157.6519695681
30
0
0
VERTEX
8
A-BLDG-OTLN
10
1340414.5642513395
20
440162.39542258286
30
0
0
SEQEND
0
POLYLINE
8
C-PVMT
66
1
70
1
0
VERTEX
8
C-PVMT
10
1340433.8538992126
20
440195.4697250689
30
0
0
VERTEX
8
C-PVMT
10
1340431.664613206
20
440207.2683278158
30
0
0
VERTEX
8
C-PVMT
10
1340407.0841908166
20
440202.7073153017
30
0
0
VERTEX
8
C-PVMT
10
1340409.2734768232
20
440190.9087125548
30
0
0
VERTEX
8
C-PVMT
10
1340433.8538992126
20
440195.4697250689
30
0
0
SEQEND
0
POLYLINE
8
C-PVMT
66
1
70
1
0
VERTEX
8
C-PVMT
10
1340436.772947222
20
440179.73825473955
30
0
0
VERTEX
8
C-PVMT
10
1340435.860744719
20
440184.65433921746
30
0
0
VERTEX
8
C-PVMT
10
1340411.2803223296
20
440180.0933267033
30
0
0
VERTEX
8
C-PVMT
10
1340412.1925248327
20
440175.1772422254
30
0
0
VERTEX
8
C-PVMT
10
1340436.772947222
20
440179.73825473955
30
0
0
SEQEND
0
POLYLINE
8
C-PVMT
66
1
70
1
0
VERTEX
8
C-PVMT
10
1340431.664613206
20
440207.26832781575
30
0
0
VERTEX
8
C-PVMT
10
1340433.8538992126
20
440195.46972506883
30
0
0
VERTEX
8
C-PVMT
10
1340465.695321931
20
440198.3268414509
30
0
0
VERTEX
8
C-PVMT
10
1340462.4113929207
20
440216.0247455713
30
0
0
VERTEX
8
C-PVMT
10
1340431.664613206
20
440207.26832781575
30
0
0
SEQEND
0
POLYLINE
8
C-PVMT
66
1
70
1
0
VERTEX
8
C-PVMT
10
1340440.9662170326
20
440162.6209276315
30
0
0
VERTEX
8
C-PVMT
10
1340444.899084615
20
440163.35068963375
30
0
0
VERTEX
8
C-PVMT
10
1340433.0404520782
20
440227.2597878464
30
0
0
VERTEX
8
C-PVMT
10
1340429.1075844958
20
440226.5300258442
30
0
0
VERTEX
8
C-PVMT
10
1340440.9662170326
20
440162.6209276315
30
0
0
SEQEND
0
POLYLINE
8
C-LOD
66
1
70
1
0
VERTEX
8
C-LOD
10
1340380.6083490285
20
440202.8799467648
30
0
0
VERTEX
8
C-LOD
10
1340389.0006120545
20
440157.6519695681
30
0
0
VERTEX
8
C-LOD
10
1340440.9662170326
20
440162.6209276315
30
0
0
VERTEX
8
C-LOD
10
1340444.899084615
20
440163.35068963375
30
0
0
VERTEX
8
C-LOD
10
1340465.695321931
20
440198.3268414509
30
0
0
VERTEX
8
C-LOD
10
1340462.4113929207
20
440216.0247455713
30
0
0
VERTEX
8
C-LOD
10
1340433.0404520782
20
440227.2597878464
30
0
0
VERTEX
8
C-LOD
10
1340429.1075844958
20
440226.5300258442
30
0
0
VERTEX
8
C-LOD
10
1340380.6083490285
20
440202.8799467648
30
0
0
SEQEND
0
POLYLINE
8
C-PROP
66
1
70
1
0
VERTEX
8
C-PROP
10
1340259.6685830874
20
440193.5423945737
30
0
0
VERTEX
8
C-PROP
10
1340423.6274491663
20
440224.1617846672
30
0
0
VERTEX
8
C-PROP
10
1340435.0912526501
20
440163.47328494815
30
0
0
VERTEX
8
C-PROP
10
1340324.8733741827
20
440145.3721606868
30
0
0
VERTEX
8
C-PROP
10
1340259.6685830874
20
440193.5423945737
30
0
0
SEQEND
0
POINT
8
C-TOPO-SPOT
10
1340340.108290813
20
440183.5659331974
30
0
0
POLYLINE
8
C-UTIL
66
1
70
0
0
VERTEX
8
C-UTIL
10
1340430.0536838686
20
440194.3930362372
30
0
0
VERTEX
8
C-UTIL
10
1340396.981890415
20
440178.5892322556
30
0
0
SEQEND
0
POLYLINE
8
C-UTIL
66
1
70
0
0
VERTEX
8
C-UTIL
10
1340434.0536838686
20
440194.3930362372
30
0
0
VERTEX
8
C-UTIL
10
1340400.981890415
20
440178.5892322556
30
0
0
SEQEND
0
POLYLINE
8
C-SWM
66
1
70
1
0
VERTEX
8
C-SWM
10
1340329.0208863274
20
440146.7279935122
30
0
0
VERTEX
8
C-SWM
10
1340343.9540708505
20
440146.7279935122
30
0
0
VERTEX
8
C-SWM
10
1340343.9540708505
20
440161.6611780352
30
0
0
VERTEX
8
C-SWM
10
1340329.0208863274
20
440161.6611780352
30
0
0
VERTEX
8
C-SWM
10
1340329.0208863274
20
440146.7279935122
30
0
0
SEQEND
0
POLYLINE
8
C-DRNG-AREA
66
1
70
1
0
VERTEX
8
C-DRNG-AREA
10
1340254.7066
20
440194.1578
30
0
0
VERTEX
8
C-DRNG-AREA
10
1340428.1243676003
20
440226.3475853436
30
0
0
VERTEX
8
C-DRNG-AREA
10
1340439.9830001371
20
440162.4384871309
30
0
0
VERTEX
8
C-DRNG-AREA
10
1340323.0208863274
20
440140.7279935122
30
0
0
VERTEX
8
C-DRNG-AREA
10
1340254.7066
20
440194.1578
30
0
0
SEQEND
0
POLYLINE
8
C-PROP
66
1
70
1
0
VERTEX
8
C-PROP
10
1340380.6083490285
20
440186.8799467648
30
0
0
VERTEX
8
C-PROP
10
1340410.6083490285
20
440186.8799467648
30
0
0
VERTEX
8
C-PROP
10
1340410.6083490285
20
440202.8799467648
30
0
0
VERTEX
8
C-PROP
10
1340380.6083490285
20
440202.8799467648
30
0
0
VERTEX
8
C-PROP
10
1340380.6083490285
20
440186.8799467648
30
0
0
SEQEND
0
POLYLINE
8
L-PLNT-TREE
66
1
70
1
0
VERTEX
8
L-PLNT-TREE
10
1340334.8546973155
20
440186.4372834889
30
0
0
VERTEX
8
L-PLNT-TREE
10
1340346.8546973155
20
440186.4372834889
30
0
0
VERTEX
8
L-PLNT-TREE
10
1340346.8546973155
20
440198.4372834889
30
0
0
VERTEX
8
L-PLNT-TREE
10
1340334.8546973155
20
440198.4372834889
30
0
0
VERTEX
8
L-PLNT-TREE
10
1340334.8546973155
20
440186.4372834889
30
0
0
SEQEND
0
POLYLINE
8
L-PLNT-TREE
66
1
70
1
0
VERTEX
8
L-PLNT-TREE
10
1340369.1448295899
20
440186.4372834889
30
0
0
VERTEX
8
L-PLNT-TREE
10
1340381.1448295899
20
440186.4372834889
30
0
0
VERTEX
8
L-PLNT-TREE
10
1340381.1448295899
20
440198.4372834889
30
0
0
VERTEX
8
L-PLNT-TREE
10
1340369.1448295899
20
440198.4372834889
30
0
0
VERTEX
8
L-PLNT-TREE
10
1340369.1448295899
20
440186.4372834889
30
0
0
SEQEND
0
POLYLINE
8
L-PLNT-TREE
66
1
70
1
0
VERTEX
8
L-PLNT-TREE
10
1340351.9997634527
20
440152.14715121465
30
0
0
VERTEX
8
L-PLNT-TREE
10
1340363.9997634527
20
440152.14715121465
30
0
0
VERTEX
8
L-PLNT-TREE
10
1340363.9997634527
20
440164.14715121465
30
0
0
VERTEX
8
L-PLNT-TREE
10
1340351.9997634527
20
440164.14715121465
30
0
0
VERTEX
8
L-PLNT-TREE
10
1340351.9997634527
20
440152.14715121465
30
0
0
SEQEND
0
POLYLINE
8
V-PROP-ESMT
66
1
70
1
0
VERTEX
8
V-PROP-ESMT
10
1340418.8746239548
20
440224.6253815215
30
0
0
VERTEX
8
V-PROP-ESMT
10
1340428.6813628613
20
440226.50431476964
30
0
0
VERTEX
8
V-PROP-ESMT
10
1340465.2534682006
20
440029.48403952474
30
0
0
VERTEX
8
V-PROP-ESMT
10
1340453.1501459482
20
440038.95088411676
30
0
0
VERTEX
8
V-PROP-ESMT
10
1340418.8746239548
20
440224.6253815215
30
0
0
SEQEND
0
POLYLINE
8
V-PROP-LINE
66
1
70
1
0
VERTEX
8
V-PROP-LINE
10
1340439.984797532
20
440162.4389510336
30
0
0
VERTEX
8
V-PROP-LINE
10
1340464.550410933
20
440030.0487960438
30
0
0
VERTEX
8
V-PROP-LINE
10
1340323.0278943828
20
440140.72441625566
30
0
0
VERTEX
8
V-PROP-LINE
10
1340439.984797532
20
440162.4389510336
30
0
0
SEQEND
0
POLYLINE
8
C-PROP
66
1
70
1
0
VERTEX
8
C-PROP
10
1340357.6733205603
20
440139.0200653469
30
0
0
VERTEX
8
C-PROP
10
1340429.296857229
20
440083.00792299816
30
0
0
VERTEX
8
C-PROP
10
1340416.8643754225
20
440150.00963658845
30
0
0
VERTEX
8
C-PROP
10
1340357.6733205603
20
440139.0200653469
30
0
0
SEQEND
0
POLYLINE
8
A-BLDG-OTLN
66
1
70
1
0
VERTEX
8
A-BLDG-OTLN
10
1340424.1692008378
20
440110.6421291246
30
0
0
VERTEX
8
A-BLDG-OTLN
10
1340415.7769378119
20
440155.8701063213
30
0
0
VERTEX
8
A-BLDG-OTLN
10
1340390.2132985268
20
440151.12665330665
30
0
0
VERTEX
8
A-BLDG-OTLN
10
1340398.6055615528
20
440105.89867610997
30
0
0
VERTEX
8
A-BLDG-OTLN
10
1340424.1692008378
20
440110.6421291246
30
0
0
SEQEND
0
POLYLINE
8
C-PVMT
66
1
70
1
0
VERTEX
8
C-PVMT
10
1340443.4588487109
20
440143.71643161064
30
0
0
VERTEX
8
C-PVMT
10
1340441.2695627043
20
440155.51503435755
30
0
0
VERTEX
8
C-PVMT
10
1340416.6891403147
20
440150.95402184344
30
0
0
VERTEX
8
C-PVMT
10
1340418.8784263213
20
440139.1554190965
30
0
0
VERTEX
8
C-PVMT
10
1340443.4588487109
20
440143.71643161064
30
0
0
SEQEND
0
POLYLINE
8
C-PVMT
66
1
70
1
0
VERTEX
8
C-PVMT
10
1340446.3778967198
20
440127.9849612813
30
0
0
VERTEX
8
C-PVMT
10
1340445.4656942172
20
440132.9010457592
30
0
0
VERTEX
8
C-PVMT
10
1340420.8852718277
20
440128.3400332451
30
0
0
VERTEX
8
C-PVMT
10
1340421.7974743303
20
440123.4239487672
30
0
0
VERTEX
8
C-PVMT
10
1340446.3778967198
20
440127.9849612813
30
0
0
SEQEND
0
POLYLINE
8
C-PVMT
66
1
70
1
0
VERTEX
8
C-PVMT
10
1340441.2695627043
20
440155.51503435755
30
0
0
VERTEX
8
C-PVMT
10
1340443.4588487109
20
440143.71643161064
30
0
0
VERTEX
8
C-PVMT
10
1340476.291881222
20
440146.7575458346
30
0
0
VERTEX
8
C-PVMT
10
1340473.0079522117
20
440164.455449955
30
0
0
VERTEX
8
C-PVMT
10
1340441.2695627043
20
440155.51503435755
30
0
0
SEQEND
0
POLYLINE
8
C-PVMT
66
1
70
1
0
VERTEX
8
C-PVMT
10
1340465.5336278286
20
440030.2312365444
30
0
0
VERTEX
8
C-PVMT
10
1340469.466495411
20
440030.9609985466
30
0
0
VERTEX
8
C-PVMT
10
1340444.9008820099
20
440163.3511535364
30
0
0
VERTEX
8
C-PVMT
10
1340440.9680144275
20
440162.62139153417
30
0
0
VERTEX
8
C-PVMT
10
1340465.5336278286
20
440030.2312365444
30
0
0
SEQEND
0
POLYLINE
8
C-LOD
66
1
70
1
0
VERTEX
8
C-LOD
10
1340390.2132985268
20
440151.12665330665
30
0
0
VERTEX
8
C-LOD
10
1340398.6055615528
20
440105.89867610997
30
0
0
VERTEX
8
C-LOD
10
1340465.5336278286
20
440030.2312365444
30
0
0
VERTEX
8
C-LOD
10
1340469.466495411
20
440030.9609985466
30
0
0
VERTEX
8
C-LOD
10
1340476.291881222
20
440146.7575458346
30
0
0
VERTEX
8
C-LOD
10
1340473.0079522117
20
440164.455449955
30
0
0
VERTEX
8
C-LOD
10
1340444.9008820099
20
440163.3511535364
30
0
0
VERTEX
8
C-LOD
10
1340440.9680144275
20
440162.62139153417
30
0
0
VERTEX
8
C-LOD
10
1340390.2132985268
20
440151.12665330665
30
0
0
SEQEND
0
POLYLINE
8
C-PROP
66
1
70
1
0
VERTEX
8
C-PROP
10
1340437.4137823859
20
440158.150608566
30
0
0
VERTEX
8
C-PROP
10
1340462.2865936474
20
440034.5069493944
30
0
0
VERTEX
8
C-PROP
10
1340327.949567989
20
440139.84286709985
30
0
0
VERTEX
8
C-PROP
10
1340437.4137823859
20
440158.150608566
30
0
0
SEQEND
0
POINT
8
C-TOPO-SPOT
10
1340416.886975095
20
440123.9127785917
30
0
0
POLYLINE
8
C-UTIL
66
1
70
0
0
VERTEX
8
C-UTIL
10
1340393.789152658
20
440085.3866061497
30
0
0
VERTEX
8
C-UTIL
10
1340410.5868399134
20
440126.83593879745
30
0
0
SEQEND
0
POLYLINE
8
C-UTIL
66
1
70
0
0
VERTEX
8
C-UTIL
10
1340397.789152658
20
440085.3866061497
30
0
0
VERTEX
8
C-UTIL
10
1340414.5868399134
20
440126.83593879745
30
0
0
SEQEND
0
POLYLINE
8
C-DRNG-AREA
66
1
70
1
0
VERTEX
8
C-DRNG-AREA
10
1340439.984797532
20
440162.4389510336
30
0
0
VERTEX
8
C-DRNG-AREA
10
1340464.550410933
20
440030.0487960438
30
0
0
VERTEX
8
C-DRNG-AREA
10
1340323.0278943828
20
440140.72441625566
30
0
0
VERTEX
8
C-DRNG-AREA
10
1340439.984797532
20
440162.4389510336
30
0
0
SEQEND
0
POLYLINE
8
C-PROP
66
1
70
1
0
VERTEX
8
C-PROP
10
1340390.2132985268
20
440135.12665330665
30
0
0
VERTEX
8
C-PROP
10
1340420.2132985268
20
440135.12665330665
30
0
0
VERTEX
8
C-PROP
10
1340420.2132985268
20
440151.12665330665
30
0
0
VERTEX
8
C-PROP
10
1340390.2132985268
20
440151.12665330665
30
0
0
VERTEX
8
C-PROP
10
1340390.2132985268
20
440135.12665330665
30
0
0
SEQEND
0
POLYLINE
8
L-PLNT-TREE
66
1
70
1
0
VERTEX
8
L-PLNT-TREE
10
1340373.0542457951
20
440133.0871452178
30
0
0
VERTEX
8
L-PLNT-TREE
10
1340385.0542457951
20
440133.0871452178
30
0
0
VERTEX
8
L-PLNT-TREE
10
1340385.0542457951
20
440145.0871452178
30
0
0
VERTEX
8
L-PLNT-TREE
10
1340373.0542457951
20
440145.0871452178
30
0
0
VERTEX
8
L-PLNT-TREE
10
1340373.0542457951
20
440133.0871452178
30
0
0
SEQEND
0
POLYLINE
8
L-PLNT-TREE
66
1
70
1
0
VERTEX
8
L-PLNT-TREE
10
1340395.6996910907
20
440133.0871452178
30
0
0
VERTEX
8
L-PLNT-TREE
10
1340407.6996910907
20
440133.0871452178
30
0
0
VERTEX
8
L-PLNT-TREE
10
1340407.6996910907
20
440145.0871452178
30
0
0
VERTEX
8
L-PLNT-TREE
10
1340395.6996910907
20
440145.0871452178
30
0
0
VERTEX
8
L-PLNT-TREE
10
1340395.6996910907
20
440133.0871452178
30
0
0
SEQEND
0
POLYLINE
8
L-PLNT-TREE
66
1
70
1
0
VERTEX
8
L-PLNT-TREE
10
1340384.376968443
20
440110.44169992243
30
0
0
VERTEX
8
L-PLNT-TREE
10
1340396.376968443
20
440110.44169992243
30
0
0
VERTEX
8
L-PLNT-TREE
10
1340396.376968443
20
440122.44169992243
30
0
0
VERTEX
8
L-PLNT-TREE
10
1340384.376968443
20
440122.44169992243
30
0
0
VERTEX
8
L-PLNT-TREE
10
1340384.376968443
20
440110.44169992243
30
0
0
SEQEND
0
ENDSEC
0
EOF
