0
SECTION
2
HEADER
9
$ACADVER
1
AC1021
9
$LASTSAVEDBY
1
@tarikjabiri/dxf
9
$HANDSEED
5
53
9
$INSUNITS
70
0
9
$CLAYER
8
0
9
$VIEWCTR
10
1273472.644835958
20
444373.0123179073
0
ENDSEC
0
SECTION
2
CLASSES
0
ENDSEC
0
SECTION
2
TABLES
0
TABLE
2
VPORT
5
1
330
0
100
AcDbSymbolTable
70
1
0
VPORT
5
19
330
1
100
AcDbSymbolTableRecord
100
AcDbViewportTableRecord
2
*Active
70
0
10
0
20
0
11
1
21
1
12
1273472.644835958
22
444373.0123179073
13
0
23
0
14
10
24
10
15
10
25
10
16
0
26
0
36
1
17
0
27
0
37
0
40
313.52685674175154
41
2
42
50
43
0
44
0
50
0
51
0
71
0
72
100
73
1
74
3
75
0
76
1
77
0
78
0
281
0
65
1
110
0
120
0
130
0
111
1
121
0
131
0
112
0
122
1
132
0
79
0
146
0
348
10020
60
7
61
5
292
1
282
1
141
0
142
0
63
250
421
3358443
0
ENDTAB
0
TABLE
2
LTYPE
5
2
330
0
100
AcDbSymbolTable
70
7
0
LTYPE
5
12
330
2
100
AcDbSymbolTableRecord
100
AcDbLinetypeTableRecord
2
ByBlock
70
0
3

72
65
73
0
40
0
0
LTYPE
5
13
330
2
100
AcDbSymbolTableRecord
100
AcDbLinetypeTableRecord
2
ByLayer
70
0
3

72
65
73
0
40
0
0
LTYPE
5
14
330
2
100
AcDbSymbolTableRecord
100
AcDbLinetypeTableRecord
2
Continuous
70
0
3
Solid line
72
65
73
0
40
0
0
LTYPE
5
1A
330
2
100
AcDbSymbolTableRecord
100
AcDbLinetypeTableRecord
2
DASHED
70
0
3
Dashed __ __ __ __ __ __
72
65
73
2
40
6
49
4
74
0
49
-2
74
0
0
LTYPE
5
1B
330
2
100
AcDbSymbolTableRecord
100
AcDbLinetypeTableRecord
2
HIDDEN
70
0
3
Hidden __ __ __ __ __
72
65
73
2
40
3
49
2
74
0
49
-1
74
0
0
LTYPE
5
1C
330
2
100
AcDbSymbolTableRecord
100
AcDbLinetypeTableRecord
2
PHANTOM
70
0
3
Phantom ____ _ _ ____ _ _
72
65
73
6
40
13
49
8
74
0
49
-1
74
0
49
1
74
0
49
-1
74
0
49
1
74
0
49
-1
74
0
0
LTYPE
5
1D
330
2
100
AcDbSymbolTableRecord
100
AcDbLinetypeTableRecord
2
DASHDOT
70
0
3
Dash dot __ . __ . __ .
72
65
73
4
40
8
49
4
74
0
49
-2
74
0
49
0
74
0
49
-2
74
0
0
ENDTAB
0
TABLE
2
LAYER
5
3
330
0
100
AcDbSymbolTable
70
14
0
LAYER
5
15
330
3
100
AcDbSymbolTableRecord
100
AcDbLayerTableRecord
2
0
70
0
62
7
6
Continuous
370
0
390
0
0
LAYER
5
1E
330
3
100
AcDbSymbolTableRecord
100
AcDbLayerTableRecord
2
C-BLDG-FTPR-N
70
0
62
6
6
Continuous
370
0
390
0
0
LAYER
5
1F
330
3
100
AcDbSymbolTableRecord
100
AcDbLayerTableRecord
2
C-LODS
70
0
62
30
6
PHANTOM
370
0
390
0
0
LAYER
5
20
330
3
100
AcDbSymbolTableRecord
100
AcDbLayerTableRecord
2
C-PVMT
70
0
62
8
6
Continuous
370
0
390
0
0
LAYER
5
21
330
3
100
AcDbSymbolTableRecord
100
AcDbLayerTableRecord
2
C-SITE-N
70
0
62
6
6
Continuous
370
0
390
0
0
LAYER
5
22
330
3
100
AcDbSymbolTableRecord
100
AcDbLayerTableRecord
2
C-STRM-AREA
70
0
62
150
6
PHANTOM
370
0
390
0
0
LAYER
5
23
330
3
100
AcDbSymbolTableRecord
100
AcDbLayerTableRecord
2
C-SWMG
70
0
62
92
6
Continuous
370
0
390
0
0
LAYER
5
24
330
3
100
AcDbSymbolTableRecord
100
AcDbLayerTableRecord
2
C-TOPO-MAJR-E
70
0
62
32
6
DASHED
370
0
390
0
0
LAYER
5
25
330
3
100
AcDbSymbolTableRecord
100
AcDbLayerTableRecord
2
C-TOPO-SPOT
70
0
62
7
6
Continuous
370
0
390
0
0
LAYER
5
26
330
3
100
AcDbSymbolTableRecord
100
AcDbLayerTableRecord
2
C-TOPO-SURF
70
0
62
253
6
Continuous
370
0
390
0
0
LAYER
5
27
330
3
100
AcDbSymbolTableRecord
100
AcDbLayerTableRecord
2
C-UTIL
70
0
62
4
6
DASHED
370
0
390
0
0
LAYER
5
28
330
3
100
AcDbSymbolTableRecord
100
AcDbLayerTableRecord
2
L-PLNT-TREE
70
0
62
90
6
Continuous
370
0
390
0
0
LAYER
5
29
330
3
100
AcDbSymbolTableRecord
100
AcDbLayerTableRecord
2
V-PROP-BNDY
70
0
62
7
6
Continuous
370
0
390
0
0
LAYER
5
2A
330
3
100
AcDbSymbolTableRecord
100
AcDbLayerTableRecord
2
C-ANNO-NPLT
70
0
62
250
6
Continuous
370
0
390
0
0
ENDTAB
0
TABLE
2
STYLE
5
4
330
0
100
AcDbSymbolTable
70
1
0
STYLE
5
16
330
4
100
AcDbSymbolTableRecord
100
AcDbTextStyleTableRecord
2
Standard
70
0
40
0
41
1
50
0
71
0
42
1
3
txt
4

0
ENDTAB
0
TABLE
2
VIEW
5
5
330
0
100
AcDbSymbolTable
70
0
0
ENDTAB
0
TABLE
2
UCS
5
6
330
0
100
AcDbSymbolTable
70
0
0
ENDTAB
0
TABLE
2
APPID
5
7
330
0
100
AcDbSymbolTable
70
1
0
APPID
5
17
330
7
100
AcDbSymbolTableRecord
100
AcDbRegAppTableRecord
2
ACAD
70
0
0
ENDTAB
0
TABLE
2
DIMSTYLE
5
8
330
0
100
AcDbSymbolTable
70
1
100
AcDbDimStyleTable
0
DIMSTYLE
105
18
330
8
100
AcDbSymbolTableRecord
100
AcDbDimStyleTableRecord
2
Standard
70
0
340
16
0
ENDTAB
0
TABLE
2
BLOCK_RECORD
5
9
330
0
100
AcDbSymbolTable
70
2
0
BLOCK_RECORD
5
C
330
9
100
AcDbSymbolTableRecord
100
AcDbBlockTableRecord
2
*Model_Space
70
0
280
1
281
0
0
BLOCK_RECORD
5
F
330
9
100
AcDbSymbolTableRecord
100
AcDbBlockTableRecord
2
*Paper_Space
70
0
280
1
281
0
0
ENDTAB
0
ENDSEC
0
SECTION
2
BLOCKS
0
BLOCK
5
D
330
C
100
AcDbEntity
8
0
100
AcDbBlockBegin
2
*Model_Space
70
0
10
0
20
0
30
0
3
*Model_Space
1

0
ENDBLK
5
E
100
AcDbEntity
8
0
100
AcDbBlockEnd
0
BLOCK
5
10
330
F
100
AcDbEntity
8
0
100
AcDbBlockBegin
2
*Paper_Space
70
0
10
0
20
0
30
0
3
*Paper_Space
1

0
ENDBLK
5
11
100
AcDbEntity
8
0
100
AcDbBlockEnd
0
ENDSEC
0
SECTION
2
ENTITIES
0
TEXT
5
2B
330
C
100
AcDbEntity
8
C-ANNO-NPLT
100
AcDbText
10
1273428.0344582242
20
444336.2488895364
30
0
40
2.5
1
PRELIMINARY - NOT SEALED - NOT FOR CONSTRUCTION OR PERMIT SUBMISSION
7
STANDARD
100
AcDbText
0
TEXT
5
2C
330
C
100
AcDbEntity
8
C-ANNO-NPLT
100
AcDbText
10
1273428.0344582242
20
444332.2488895364
30
0
40
2.5
1
GENERATED 2026-09-25T22:23:41.384Z BY KEALEE SITE PLAN ENGINE
7
STANDARD
100
AcDbText
0
TEXT
5
2D
330
C
100
AcDbEntity
8
C-ANNO-NPLT
100
AcDbText
10
1273428.0344582242
20
444328.2488895364
30
0
40
2.5
1
HORIZONTAL: EPSG:2248
7
STANDARD
100
AcDbText
0
TEXT
5
2E
330
C
100
AcDbEntity
8
C-ANNO-NPLT
100
AcDbText
10
1273428.0344582242
20
444324.2488895364
30
0
40
2.5
1
VERTICAL: NAVD88 (feet)
7
STANDARD
100
AcDbText
0
TEXT
5
2F
330
C
100
AcDbEntity
8
C-ANNO-NPLT
100
AcDbText
10
1273428.0344582242
20
444320.2488895364
30
0
40
2.5
1
SOURCES: Parcel boundary — jurisdiction gis (Arlington County — real estate property polygons, level 1); Existing contours (U.S. Geological Survey — 3D Elevation Program — 3DEP bare-earth DEM — VA_NorthernVA_B22, level 1)
7
STANDARD
100
AcDbText
0
TEXT
5
30
330
C
100
AcDbEntity
8
C-ANNO-NPLT
100
AcDbText
10
1273428.0344582242
20
444316.2488895364
30
0
40
2.5
1
THIS FILE IS DATA FOR A LICENSED PROFESSIONAL. IT IS NOT A SEALED DRAWING.
7
STANDARD
100
AcDbText
0
LWPOLYLINE
5
31
330
C
100
AcDbEntity
8
V-PROP-BNDY
100
AcDbPolyline
90
8
70
1
43
0
38
0
39
0
10
1273589.9156139316
20
444449.22400505596
10
1273532.9803544544
20
444411.02499495045
10
1273481.5669838921
20
444376.53180279053
10
1273468.9907699737
20
444397.66904107964
10
1273457.827214942
20
444419.5852231849
10
1273448.5375726754
20
444439.4057918865
10
1273568.3075857337
20
444495.5411062211
10
1273589.9156139316
20
444449.22400505596
0
LWPOLYLINE
5
32
330
C
100
AcDbEntity
8
C-TOPO-MAJR-E
100
AcDbPolyline
90
80
70
0
43
0
38
0
39
0
10
1273428.4864780684
20
444482.4427552425
10
1273428.7547618551
20
444481.99305758
10
1273428.989405402
20
444481.5810871968
10
1273429.1904087085
20
444481.2068440929
10
1273429.3577717748
20
444480.8703282685
10
1273429.4914946011
20
444480.5715397234
10
1273429.6575205137
20
444480.1603267626
10
1273429.8558495133
20
444479.63668938633
10
1273430.0864815994
20
444479.0006275943
10
1273430.3494167721
20
444478.2521413865
10
1273430.6318403503
20
444477.5036551788
10
1273430.933752334
20
444476.75516897126
10
1273431.255152723
20
444476.0066827636
10
1273431.5960415173
20
444475.2581965559
10
1273431.8544429669
20
444474.69099781325
10
1273432.0303570712
20
444474.30508653575
10
1273432.1237838306
20
444474.1004627233
10
1273432.134723245
20
444474.07712637587
10
1273432.1933742156
20
444473.8783366503
10
1273432.2997367424
20
444473.50409354654
10
1273432.453810826
20
444472.95439706446
10
1273432.6555964658
20
444472.22924720414
10
1273432.86971202
20
444471.49826325703
10
1273433.0961574884
20
444470.76144522306
10
1273433.3349328714
20
444470.01879310224
10
1273433.5860381688
20
444469.2703068945
10
1273433.8482659594
20
444468.5547709736
10
1273434.1216162434
20
444467.8721853395
10
1273434.4060890207
20
444467.2225499922
10
1273434.701684291
20
444466.6058649317
10
1273434.9345353898
20
444466.1104008495
10
1273435.1046423162
20
444465.7361577457
10
1273435.2120050709
20
444465.48313562025
10
1273435.2566236537
20
444465.351334473
10
1273435.3352192321
20
444465.0653620608
10
1273435.4477918064
20
444464.6252183834
10
1273435.5943413766
20
444464.03090344084
10
1273435.7748679426
20
444463.2824172332
10
1273435.9808986397
20
444462.53393102554
10
1273436.2124334683
20
444461.78544481786
10
1273436.469472428
20
444461.0369586102
10
1273436.7520155187
20
444460.2884724025
10
1273437.024122329
20
444459.6019405142
10
1273437.2857928586
20
444458.97736294544
10
1273437.5370271073
20
444458.414739696
10
1273437.7778250754
20
444457.914070766
10
1273437.997423343
20
444457.47661474906
10
1273438.1958219092
20
444457.1023716453
10
1273438.3730207752
20
444456.7913414545
10
1273438.5290199402
20
444456.5435241768
10
1273438.6231297245
20
444456.17053966667
10
1273438.6553501277
20
444455.6723879239
10
1273438.6256811502
20
444455.0490689488
10
1273438.5341227918
20
444454.3005827411
10
1273438.4493438213
20
444453.7040717768
10
1273438.3713442388
20
444453.25953605596
10
1273438.3001240443
20
444452.96697557846
10
1273438.2356832374
20
444452.82639034436
10
1273438.0911749497
20
444452.5689761754
10
1273437.8665991807
20
444452.1947330716
10
1273437.5619559302
20
444451.70366103284
10
1273437.1772451987
20
444451.0957600593
10
1273436.7977682808
20
444450.56601597904
10
1273436.423525177
20
444450.1144287919
10
1273436.054515887
20
444449.7409984982
10
1273435.6907404112
20
444449.4457250978
10
1273435.2307872523
20
444449.2433110726
10
1273434.6746564105
20
444449.1337564226
10
1273434.0223478856
20
444449.11706114793
10
1273433.2738616779
20
444449.1932252486
10
1273432.52537547
20
444449.30399651313
10
1273431.7768892623
20
444449.44937494176
10
1273431.0284030547
20
444449.6293605343
10
1273430.2799168474
20
444449.8439532907
10
1273429.7115828749
20
444450.006026994
10
1273429.3234011373
20
444450.11558164394
10
1273429.1153716347
20
444450.1726172406
10
1273429.0874943673
20
444450.17713378393
10
1273428.8864341816
20
444450.2063562321
10
1273428.5121910777
20
444450.2602845851
0
LWPOLYLINE
5
33
330
C
100
AcDbEntity
8
C-TOPO-MAJR-E
100
AcDbPolyline
90
26
70
0
43
0
38
0
39
0
10
1273428.9935881493
20
444515.74189333734
10
1273429.059027904
20
444515.5360256463
10
1273429.1957809776
20
444515.2459702489
10
1273429.4038473703
20
444514.87172714504
10
1273429.683227082
20
444514.41329633485
10
1273430.0339201128
20
444513.87067781814
10
1273430.348012343
20
444513.27659237874
10
1273430.6255037729
20
444512.63104001665
10
1273430.8663944022
20
444511.9340207317
10
1273431.070684231
20
444511.18553452403
10
1273431.1502348823
20
444510.43704831635
10
1273431.105046356
20
444509.6885621088
10
1273430.9351186524
20
444508.9400759011
10
1273430.6404517717
20
444508.1915896933
10
1273430.3543726164
20
444507.5031450804
10
1273430.0768811866
20
444506.8747420623
10
1273429.8079774822
20
444506.30638063885
10
1273429.5476615038
20
444505.7980608101
10
1273429.336392269
20
444505.3567793438
10
1273429.1741697788
20
444504.98253624
10
1273429.0609940325
20
444504.6753314986
10
1273428.9968650304
20
444504.4351651196
10
1273428.9022525558
20
444504.06791878346
10
1273428.7771566082
20
444503.57359249017
10
1273428.621577188
20
444502.9521862397
10
1273428.4355142955
20
444502.203700032
0
LWPOLYLINE
5
34
330
C
100
AcDbEntity
8
C-TOPO-MAJR-E
100
AcDbPolyline
90
169
70
0
43
0
38
0
39
0
10
1273428.4285831877
20
444488.16873401916
10
1273428.7200249268
20
444487.54442910006
10
1273428.9552843296
20
444487.0451550886
10
1273429.134361396
20
444486.67091198475
10
1273429.2572561258
20
444486.42169978854
10
1273429.3239685192
20
444486.29751849995
10
1273429.4753266633
20
444486.0172609816
10
1273429.7113305582
20
444485.58092723344
10
1273430.0319802037
20
444484.9885172556
10
1273430.4372755995
20
444484.2400310479
10
1273430.8103667512
20
444483.53835122753
10
1273431.1512536583
20
444482.8834777944
10
1273431.459936321
20
444482.2754107486
10
1273431.7364147392
20
444481.7141500901
10
1273431.9683488135
20
444481.2463982089
10
1273432.155738544
20
444480.87215510505
10
1273432.2985839306
20
444480.59142077854
10
1273432.3968849739
20
444480.4041952295
10
1273432.5483988803
20
444480.0766545157
10
1273432.75312565
20
444479.6087986373
10
1273433.0110652836
20
444479.0006275943
10
1273433.3222177806
20
444478.2521413865
10
1273433.629499593
20
444477.5036551788
10
1273433.9329107208
20
444476.75516897126
10
1273434.2324511642
20
444476.0066827636
10
1273434.528120923
20
444475.2581965559
10
1273434.7607139694
20
444474.67403450736
10
1273434.9302303032
20
444474.2541966181
10
1273435.0366699246
20
444473.998682888
10
1273435.0800328334
20
444473.90749331715
10
1273435.1959251687
20
444473.6747769797
10
1273435.3843469308
20
444473.30053387594
10
1273435.645298119
20
444472.7847640056
10
1273435.9787787339
20
444472.12746736885
10
1273436.3232657986
20
444471.4473733394
10
1273436.6787593137
20
444470.7444819172
10
1273437.0452592787
20
444470.01879310224
10
1273437.4227656939
20
444469.2703068945
10
1273437.7152702997
20
444468.6907175178
10
1273437.9227730962
20
444468.28002497205
10
1273438.0452740833
20
444468.0382292573
10
1273438.082773261
20
444467.9653303735
10
1273438.2201580787
20
444467.7417593796
10
1273438.4574285361
20
444467.3675162758
10
1273438.7945846338
20
444466.8426010619
10
1273439.2316263712
20
444466.1670137382
10
1273439.637268792
20
444465.55570787494
10
1273440.0115118958
20
444465.0086834723
10
1273440.3543556826
20
444464.52594053035
10
1273440.665800153
20
444464.107479049
10
1273441.011203315
20
444463.7111267564
10
1273441.390565169
20
444463.3368836526
10
1273441.803885715
20
444462.98474973754
10
1273442.2511649532
20
444462.6547250112
10
1273442.6619261242
20
444462.3601834287
10
1273443.0361692281
20
444462.10112499003
10
1273443.373894265
20
444461.87754969514
10
1273443.6751012346
20
444461.6894575441
10
1273444.0881280138
20
444461.49682416604
10
1273444.6129746025
20
444461.29964956094
10
1273445.2496410008
20
444461.09793372883
10
1273445.998127208
20
444460.8916766696
10
1273446.746613416
20
444460.7156552021
10
1273447.4950996235
20
444460.5698693262
10
1273448.243585831
20
444460.4543190421
10
1273448.9920720388
20
444460.36900434963
10
1273449.7405582466
20
444460.2992253783
10
1273450.4890444544
20
444460.2449821283
10
1273451.237530662
20
444460.2062745994
10
1273451.9860168693
20
444460.1831027918
10
1273452.7345030769
20
444460.1599259054
10
1273453.4829892847
20
444460.1367439403
10
1273454.2314754925
20
444460.11355689645
10
1273454.9799617003
20
444460.0903647739
10
1273455.6977717283
20
444460.01735608827
10
1273456.3849055765
20
444459.89453083964
10
1273457.0413632449
20
444459.7218890279
10
1273457.6671447335
20
444459.4994306531
10
1273458.028417744
20
444459.14546532015
10
1273458.1251822764
20
444458.65999302897
10
1273457.9574383306
20
444458.0430137795
10
1273457.5251859068
20
444457.29452757176
10
1273457.1526143227
20
444456.68814461015
10
1273456.8397235782
20
444456.22386489453
10
1273456.5865136737
20
444455.901688425
10
1273456.392984609
20
444455.72161520156
10
1273456.1330788017
20
444455.4444570379
10
1273455.8067962518
20
444455.07021393406
10
1273455.4141369597
20
444454.59888589004
10
1273454.9551009247
20
444454.0304729059
10
1273454.5384613555
20
444453.5203963943
10
1273454.1642182516
20
444453.06865635526
10
1273453.8323716132
20
444452.6752527889
10
1273453.5429214404
20
444452.3401856951
10
1273453.2373890365
20
444451.9855305962
10
1273452.9157744013
20
444451.61128749244
10
1273452.5780775351
20
444451.21745638363
10
1273452.224298438
20
444450.80403726967
10
1273451.8602873376
20
444450.37850586174
10
1273451.4860442337
20
444449.9408621597
10
1273451.1015691264
20
444449.4911061635
10
1273450.706862016
20
444449.02923787315
10
1273450.3550412212
20
444448.61118217604
10
1273450.0461067427
20
444448.23693907226
10
1273449.7800585795
20
444447.9065085617
10
1273449.5568967322
20
444447.61989064433
10
1273449.295924392
20
444447.2178056544
10
1273448.9971415587
20
444446.7002535919
10
1273448.6605482327
20
444446.0672344568
10
1273448.2861444138
20
444445.3187482491
10
1273447.9676114141
20
444444.58652296156
10
1273447.7049492341
20
444443.8705585943
10
1273447.4981578733
20
444443.1708551471
10
1273447.347237332
20
444442.4874126201
10
1273447.227585925
20
444441.9585698047
10
1273447.1392036525
20
444441.5843267009
10
1273447.0820905142
20
444441.36468330864
10
1273447.0562465107
20
444441.2996396279
10
1273447.000962446
20
444441.0637353155
10
1273446.9162383203
20
444440.6569703714
10
1273446.802074134
20
444440.07934479543
10
1273446.6584698863
20
444439.3308585877
10
1273446.5271030231
20
444438.58237238
10
1273446.4079735447
20
444437.8338861724
10
1273446.3010814504
20
444437.0853999647
10
1273446.2064267409
20
444436.3369137571
10
1273446.087603725
20
444435.58842754946
10
1273445.9446124027
20
444434.83994134166
10
1273445.7774527743
20
444434.09145513404
10
1273445.5861248395
20
444433.3429689264
10
1273445.3693650605
20
444432.648430179
10
1273445.127173437
20
444432.00783889176
10
1273444.8595499694
20
444431.4211950648
10
1273444.5664946572
20
444430.888498698
10
1273444.2587711113
20
444430.4350289628
10
1273443.9363793312
20
444430.060785859
10
1273443.5993193171
20
444429.7657693866
10
1273443.2475910692
20
444429.54997954564
10
1273442.8846053933
20
444429.34873470897
10
1273442.5103622894
20
444429.1620348766
10
1273442.1248617575
20
444428.98988004844
10
1273441.7281037979
20
444428.8322702246
10
1273441.2434137762
20
444428.73006047786
10
1273440.6707916923
20
444428.6832508083
10
1273440.0102375466
20
444428.6918412158
10
1273439.2617513393
20
444428.7558317005
10
1273438.5520862776
20
444428.82722939877
10
1273437.8812423623
20
444428.90603431064
10
1273437.249219593
20
444428.9922464362
10
1273436.6560179698
20
444429.0858657754
10
1273436.1722956062
20
444429.1626154344
10
1273435.7980525026
20
444429.2224954132
10
1273435.5332886584
20
444429.2655057119
10
1273435.3780040739
20
444429.29164633027
10
1273435.0744190835
20
444429.3131836612
10
1273434.6225336876
20
444429.3301177046
10
1273434.0223478856
20
444429.3424484603
10
1273433.2738616779
20
444429.35017592856
10
1273432.6698445673
20
444429.34750450804
10
1273432.2102965545
20
444429.3344341988
10
1273431.8952176387
20
444429.3109650008
10
1273431.7246078204
20
444429.2770969142
10
1273431.4521813593
20
444429.2154669006
10
1273431.0779382554
20
444429.1260749601
10
1273430.601878509
20
444429.0089210927
10
1273430.0240021194
20
444428.86400529835
10
1273429.4034732757
20
444428.63313565275
10
1273428.7402919773
20
444428.3163121558
10
1273428.0344582242
20
444427.9135348075
0
LWPOLYLINE
5
35
330
C
100
AcDbEntity
8
C-TOPO-MAJR-E
100
AcDbPolyline
90
332
70
0
43
0
38
0
39
0
10
1273447.3950151019
20
444515.56474769453
10
1273447.1828123976
20
444515.2804367068
10
1273446.941179377
20
444514.90619360295
10
1273446.6701160404
20
444514.44201838307
10
1273446.369622388
20
444513.88791104715
10
1273446.0322540095
20
444513.3109108301
10
1273445.6580109056
20
444512.71101773204
10
1273445.2468930762
20
444512.0882317529
10
1273444.7989005214
20
444511.44255289267
10
1273444.4472566976
20
444510.93259191065
10
1273444.1919616049
20
444510.55834880687
10
1273444.0330152432
20
444510.3198235812
10
1273443.9704176127
20
444510.2170162337
10
1273443.7519972455
20
444510.04300060327
10
1273443.3777541416
20
444509.79777668975
10
1273442.8476883012
20
444509.4813444932
10
1273442.1617997242
20
444509.09370401374
10
1273441.5179379089
20
444508.71276222204
10
1273440.9161028555
20
444508.33851911826
10
1273440.356294564
20
444507.9709747022
10
1273439.8385130349
20
444507.6101289741
10
1273439.3925007181
20
444507.305892979
10
1273439.0182576142
20
444507.0582667172
10
1273438.7157837232
20
444506.8672501884
10
1273438.485079045
20
444506.73284339276
10
1273438.1249289843
20
444506.4931967042
10
1273437.6353335413
20
444506.14831012284
10
1273437.0162927161
20
444505.69818364864
10
1273436.2678065086
20
444505.14281728165
10
1273435.6903787958
20
444504.7116142451
10
1273435.2840095782
20
444504.40457453905
10
1273435.0486988556
20
444504.22169816354
10
1273434.9844466278
20
444504.16298511863
10
1273434.7777153412
20
444503.931828783
10
1273434.4285049958
20
444503.5282291567
10
1273433.936815591
20
444502.9521862397
10
1273433.3026471278
20
444502.203700032
10
1273432.8145044008
20
444501.6100873265
10
1273432.4723874112
20
444501.1713481231
10
1273432.2762961579
20
444500.8874824218
10
1273432.2262306411
20
444500.75849022274
10
1273432.1421512552
20
444500.50687257125
10
1273432.0240579997
20
444500.1326294674
10
1273431.8719508748
20
444499.6357609113
10
1273431.6858298809
20
444499.0162669026
10
1273431.5369512045
20
444498.3645248443
10
1273431.425314846
20
444497.68053473625
10
1273431.3509208057
20
444496.9642965783
10
1273431.313769083
20
444496.2158103707
10
1273431.3038624949
20
444495.46732416307
10
1273431.3212010413
20
444494.71883795527
10
1273431.3657847217
20
444493.9703517476
10
1273431.4376135364
20
444493.22186554
10
1273431.5271507255
20
444492.47337933234
10
1273431.6343962885
20
444491.72489312454
10
1273431.7593502263
20
444490.9764069169
10
1273431.9020125382
20
444490.2279207093
10
1273432.0112046697
20
444489.6600700775
10
1273432.0869266205
20
444489.27285502176
10
1273432.129178391
20
444489.06627554185
10
1273432.137959981
20
444489.04033163784
10
1273432.207775665
20
444488.8402381339
10
1273432.3386254422
20
444488.4659950301
10
1273432.5305093136
20
444487.9176023264
10
1273432.7834272785
20
444487.19506002264
10
1273433.0413212625
20
444486.4660317429
10
1273433.3041912655
20
444485.7305174873
10
1273433.5720372875
20
444484.9885172556
10
1273433.8448593286
20
444484.2400310479
10
1273434.1051624098
20
444483.53368454974
10
1273434.3529465313
20
444482.86947776104
10
1273434.5882116929
20
444482.2474106818
10
1273434.8109578942
20
444481.6674833121
10
1273435.0007276596
20
444481.1903980753
10
1273435.157520989
20
444480.8161549715
10
1273435.2813378817
20
444480.5447540006
10
1273435.372178338
20
444480.3761951627
10
1273435.531419094
20
444480.0626544823
10
1273435.7590601493
20
444479.6041319595
10
1273436.055101504
20
444479.0006275943
10
1273436.4195431585
20
444478.2521413865
10
1273436.7661754233
20
444477.5060211733
10
1273437.0949982991
20
444476.7622669545
10
1273437.4060117854
20
444476.0208787302
10
1273437.699215882
20
444475.2818565004
10
1273437.9202702967
20
444474.7252238336
10
1273438.0691750292
20
444474.3509807298
10
1273438.1459300793
20
444474.15912718896
10
1273438.150535447
20
444474.1496632111
10
1273438.273022904
20
444473.9554436758
10
1273438.5133924503
20
444473.5764685831
10
1273438.8716440857
20
444473.0127379329
10
1273439.3477778104
20
444472.2642517252
10
1273439.7718148828
20
444471.5998614101
10
1273440.1437553028
20
444471.01956698764
10
1273440.4635990704
20
444470.5233684577
10
1273440.7313461858
20
444470.11126582033
10
1273440.9956615635
20
444469.71809294977
10
1273441.2565452035
20
444469.3438498459
10
1273441.5139971063
20
444468.9885365088
10
1273441.768017272
20
444468.6521529385
10
1273442.0821489065
20
444468.26716250245
10
1273442.4563920102
20
444467.8335652007
10
1273442.8907465832
20
444467.3513610332
10
1273443.3852126258
20
444466.82055
10
1273443.8323976384
20
444466.36802293145
10
1273444.2323016217
20
444465.99377982767
10
1273444.5849245754
20
444465.6978206885
10
1273444.8902664995
20
444465.48014551407
10
1273445.2300590137
20
444465.2649441694
10
1273445.6043021176
20
444465.0522166544
10
1273446.0129958112
20
444464.84196296916
10
1273446.4561400944
20
444464.63418311364
10
1273446.975619859
20
444464.4425603826
10
1273447.5714351046
20
444464.26709477603
10
1273448.243585831
20
444464.10778629384
10
1273448.9920720388
20
444463.9646349361
10
1273449.7405582466
20
444463.86615015555
10
1273450.4890444544
20
444463.8123319523
10
1273451.237530662
20
444463.80318032595
10
1273451.9860168693
20
444463.83869527676
10
1273452.7345030769
20
444463.9002212375
10
1273453.4829892847
20
444463.98775820807
10
1273454.2314754925
20
444464.10130618856
10
1273454.9799617003
20
444464.24086517893
10
1273455.728447908
20
444464.3880188626
10
1273456.4769341159
20
444464.54276723956
10
1273457.2254203234
20
444464.7051103098
10
1273457.9739065308
20
444464.87504807336
10
1273458.5406834106
20
444465.00398127316
10
1273458.9257509622
20
444465.09190990916
10
1273459.1291091861
20
444465.13883398136
10
1273459.1507580816
20
444465.14475348976
10
1273459.3487040815
20
444465.1915392398
10
1273459.7229471852
20
444465.2791912315
10
1273460.273487393
20
444465.4077094648
10
1273461.0003247054
20
444465.5770939397
10
1273461.7325742412
20
444465.7612818486
10
1273462.4702360008
20
444465.96027319133
10
1273463.2133099847
20
444466.17406796804
10
1273463.9617961922
20
444466.40266617865
10
1273464.7102823998
20
444466.6455184083
10
1273465.4587686076
20
444466.9026246569
10
1273466.2072548154
20
444467.1739849245
10
1273466.9557410227
20
444467.4595992111
10
1273467.5730582622
20
444467.69003223494
10
1273468.0592065335
20
444467.865283996
10
1273468.4141858364
20
444467.98535449425
10
1273468.6379961711
20
444468.0502437298
10
1273468.9370228904
20
444468.1354505003
10
1273469.3112659943
20
444468.2409748059
10
1273469.7607254828
20
444468.3668166466
10
1273470.2854013555
20
444468.51297602226
10
1273470.8660298123
20
444468.64392202115
10
1273471.5026108527
20
444468.7596546433
10
1273472.1951444768
20
444468.8601738885
10
1273472.9436306842
20
444468.9454797569
10
1273473.6036798377
20
444468.95159284724
10
1273474.1752919368
20
444468.87851315935
10
1273474.6584669817
20
444468.72624069336
10
1273475.0532049725
20
444468.4947754493
10
1273475.4376955198
20
444468.13952331274
10
1273475.8119386234
20
444467.6604842838
10
1273476.175934284
20
444467.0576583625
10
1273476.529682501
20
444466.3310455489
10
1273476.7962889478
20
444465.7806175902
10
1273476.9757536242
20
444465.4063744863
10
1273477.0680765302
20
444465.2083162374
10
1273477.073257666
20
444465.1864428434
10
1273477.075848234
20
444465.152478722
10
1273477.075848234
20
444465.1064238732
10
1273477.073257666
20
444465.04827829706
10
1273477.0680765302
20
444464.97804199345
10
1273477.0467224186
20
444464.75580228976
10
1273477.0091953315
20
444464.381559186
10
1273476.9554952686
20
444463.855312682
10
1273476.88562223
20
444463.17706277786
10
1273476.716857553
20
444462.4812537979
10
1273476.4492012383
20
444461.76788574195
10
1273476.0826532852
20
444461.0369586102
10
1273475.6172136941
20
444460.2884724025
10
1273475.2148406063
20
444459.68437367864
10
1273474.875534022
20
444459.2246624388
10
1273474.5992939407
20
444458.9093386827
10
1273474.386120363
20
444458.7384024104
10
1273474.0391186276
20
444458.47500157444
10
1273473.5582887344
20
444458.1191361746
10
1273472.9436306842
20
444457.67080621095
10
1273472.1951444768
20
444457.13001168356
10
1273471.6013589958
20
444456.7152269359
10
1273471.1622742414
20
444456.42645196815
10
1273470.877890214
20
444456.2636867803
10
1273470.7482069135
20
444456.2269313723
10
1273470.496243711
20
444456.17830466054
10
1273470.1220006074
20
444456.11780664517
10
1273469.625477602
20
444456.045437326
10
1273469.0066746948
20
444455.96119670314
10
1273468.3554509627
20
444455.86584218626
10
1273467.6718064055
20
444455.75937377533
10
1273466.9557410232
20
444455.64179147035
10
1273466.2072548154
20
444455.51309527125
10
1273465.4587686076
20
444455.33627226134
10
1273464.7102823998
20
444455.1113224405
10
1273463.9617961922
20
444454.8382458088
10
1273463.213309985
20
444454.5170423662
10
1273462.5767439893
20
444454.22255329846
10
1273462.0520982055
20
444453.95477860555
10
1273461.639372634
20
444453.71371828753
10
1273461.3385672744
20
444453.49937234435
10
1273461.0010430426
20
444453.2639996011
10
1273460.626799939
20
444453.00760005787
10
1273460.215837963
20
444452.73017371463
10
1273459.7681571147
20
444452.4317205713
10
1273459.3152599065
20
444452.0953724477
10
1273458.857146338
20
444451.7211293439
10
1273458.3938164099
20
444451.3089912598
10
1273457.9252701213
20
444450.85895819543
10
1273457.5038754253
20
444450.44293002854
10
1273457.1296323214
20
444450.0609067591
10
1273456.8025408098
20
444449.71288838703
10
1273456.5226008906
20
444449.3988749124
10
1273456.214238273
20
444449.05474662315
10
1273455.8774529572
20
444448.68050351937
10
1273455.512244943
20
444448.27614560095
10
1273455.1186142303
20
444447.8416728679
10
1273454.7346773222
20
444447.40042269987
10
1273454.3604342183
20
444446.952395097
10
1273453.9958849188
20
444446.4975900591
10
1273453.6410294238
20
444446.0360075862
10
1273453.3243589378
20
444445.6180947979
10
1273453.0458734615
20
444445.2438516941
10
1273452.8055729945
20
444444.91327827476
10
1273452.603457537
20
444444.62637453986
10
1273452.3877914255
20
444444.2240751868
10
1273452.1585746603
20
444443.7063802156
10
1273451.9158072416
20
444443.0732896261
10
1273451.6594891688
20
444442.3248034184
10
1273451.4572752705
20
444441.57631721074
10
1273451.3091655467
20
444440.8278310031
10
1273451.215159997
20
444440.07934479543
10
1273451.1752586218
20
444439.3308585877
10
1273451.170562833
20
444438.58237238
10
1273451.2010726305
20
444437.8338861724
10
1273451.2667880142
20
444437.0853999647
10
1273451.3677089843
20
444436.3369137571
10
1273451.4922502392
20
444435.58842754946
10
1273451.6404117793
20
444434.83994134166
10
1273451.812193604
20
444434.09145513404
10
1273452.0075957135
20
444433.3429689264
10
1273452.2046502521
20
444432.630061885
10
1273452.4033572196
20
444431.9527340098
10
1273452.6037166165
20
444431.3109853009
10
1273452.8057284423
20
444430.7048157583
10
1273452.9677047916
20
444430.21460943506
10
1273453.0896456637
20
444429.8403663312
10
1273453.1715510597
20
444429.58208644675
10
1273453.213420979
20
444429.4397697818
10
1273453.2872356104
20
444429.14591073105
10
1273453.3929949543
20
444428.7005092947
10
1273453.5306990102
20
444428.1035654727
10
1273453.7003477784
20
444427.355079265
10
1273453.8574132428
20
444426.60659305734
10
1273454.0018954033
20
444425.85810684966
10
1273454.1337942597
20
444425.109620642
10
1273454.2531098123
20
444424.3611344343
10
1273454.362985996
20
444423.6126482266
10
1273454.4634228116
20
444422.864162019
10
1273454.5544202582
20
444422.1156758113
10
1273454.6359783364
20
444421.3671896036
10
1273454.6728378157
20
444420.61870339594
10
1273454.6649986967
20
444419.8702171884
10
1273454.6124609788
20
444419.1217309807
10
1273454.5152246621
20
444418.373244773
10
1273454.3635084243
20
444417.6722070193
10
1273454.1573122651
20
444417.0186177196
10
1273453.896636185
20
444416.41247687384
10
1273453.5814801834
20
444415.85378448205
10
1273453.2955857448
20
444415.38731673424
10
1273453.0389528694
20
444415.0130736304
10
1273452.811581557
20
444414.73105517053
10
1273452.6134718074
20
444414.5412613547
10
1273452.3272953809
20
444414.30000173044
10
1273451.9530522772
20
444414.0072762977
10
1273451.4907424962
20
444413.6630850566
10
1273450.9403660377
20
444413.2674280071
10
1273450.3404621421
20
444412.8934772467
10
1273449.6910308092
20
444412.5412327753
10
1273448.9920720388
20
444412.21069459297
10
1273448.2435858315
20
444411.9018626997
10
1273447.5917415647
20
444411.6592394635
10
1273447.0365392384
20
444411.4828248845
10
1273446.5779788534
20
444411.3726189624
10
1273446.2160604089
20
444411.3286216975
10
1273445.847979635
20
444411.2830525639
10
1273445.473736531
20
444411.2359115615
10
1273445.0933310974
20
444411.18719869043
10
1273444.706763334
20
444411.1369139507
10
1273444.2297159596
20
444411.08792717685
10
1273443.662188974
20
444411.040238369
10
1273443.0041823774
20
444410.9938475272
10
1273442.25569617
20
444410.9487546513
10
1273441.5072099622
20
444410.8574145116
10
1273440.7587237544
20
444410.7198271082
10
1273440.0102375466
20
444410.53599244094
10
1273439.2617513393
20
444410.3059105099
10
1273438.5132651315
20
444410.0312103695
10
1273437.7647789237
20
444409.71189201967
10
1273437.0162927161
20
444409.3479554605
10
1273436.2678065086
20
444408.93940069195
10
1273435.701374635
20
444408.62936664245
10
1273435.316997096
20
444408.4178533119
10
1273435.1146738909
20
444408.3048607005
10
1273435.09440502
20
444408.29038880806
10
1273434.8971490324
20
444408.139612723
10
1273434.5229059285
20
444407.85253244557
10
1273433.9716757082
20
444407.42914797546
10
1273433.2434583714
20
444406.86945931276
10
1273432.653662657
20
444406.40249342954
10
1273432.2022885652
20
444406.02825032576
10
1273431.8893360957
20
444405.7467300013
10
1273431.7148052487
20
444405.5579324563
10
1273431.4527331637
20
444405.2292127457
10
1273431.1031198408
20
444404.7605708692
10
1273430.6659652805
20
444404.15200682724
10
1273430.141269482
20
444403.4035206196
10
1273429.7354327426
20
444402.82249479054
10
1273429.4484550622
20
444402.40892934
10
1273429.280336441
20
444402.1628242681
10
1273429.231076879
20
444402.08417957486
10
1273429.080064395
20
444401.85773567634
10
1273428.8272989895
20
444401.4834925725
10
1273428.472780662
20
444400.9614502634
0
LWPOLYLINE
5
36
330
C
100
AcDbEntity
8
C-TOPO-MAJR-E
100
AcDbPolyline
90
406
70
0
43
0
38
0
39
0
10
1273461.541649248
20
444515.6247062533
10
1273460.9678513617
20
444515.2904042949
10
1273460.219365154
20
444514.85340041347
10
1273459.5463042504
20
444514.4543259681
10
1273458.948668651
20
444514.09318095894
10
1273458.4264583557
20
444513.7699653858
10
1273457.9796733647
20
444513.48467924877
10
1273457.569159317
20
444513.2318516682
10
1273457.1949162134
20
444513.011482644
10
1273456.8569440532
20
444512.8235721763
10
1273456.5552428367
20
444512.668120265
10
1273456.1418453725
20
444512.4520715915
10
1273455.6167516601
20
444512.1754261557
10
1273454.9799617003
20
444511.8381839576
10
1273454.2314754925
20
444511.44034499733
10
1273453.6028249136
20
444511.09316694306
10
1273453.0940099636
20
444510.7966497949
10
1273452.7050306424
20
444510.5507935528
10
1273452.4358869502
20
444510.35559821664
10
1273452.1141935522
20
444510.097098984
10
1273451.7399504483
20
444509.7752958548
10
1273451.3131576388
20
444509.3901888289
10
1273450.8338151237
20
444508.94177790644
10
1273450.3859070132
20
444508.5304508933
10
1273449.9694333074
20
444508.15620778943
10
1273449.584394007
20
444507.8190485949
10
1273449.2307891112
20
444507.5189733097
10
1273448.8668651115
20
444507.2114608368
10
1273448.4926220076
20
444506.896511176
10
1273448.1080597998
20
444506.5741243277
10
1273447.713178488
20
444506.24430029164
10
1273447.2319165315
20
444505.89226672164
10
1273446.664273931
20
444505.51802361786
10
1273446.0102506857
20
444505.1215709801
10
1273445.2698467965
20
444504.70290880854
10
1273444.7125232997
20
444504.3876447694
10
1273444.338280196
20
444504.1757788627
10
1273444.147117485
20
444504.0673110884
10
1273444.1390351665
20
444504.0622414465
10
1273443.945851876
20
444503.9654855059
10
1273443.5675676127
20
444503.77704326634
10
1273443.0041823774
20
444503.49691472796
10
1273442.25569617
20
444503.12509989075
10
1273441.5413179873
20
444502.7533383307
10
1273440.86104783
20
444502.3816300478
10
1273440.2148856975
20
444502.009975042
10
1273439.6028315902
20
444501.6383733135
10
1273439.1096829847
20
444501.3196372994
10
1273438.7354398808
20
444501.05376699986
10
1273438.4801022788
20
444500.8407624149
10
1273438.3436701782
20
444500.6806235445
10
1273438.1573020702
20
444500.41343255737
10
1273437.920997954
20
444500.0391894535
10
1273437.63475783
20
444499.557894233
10
1273437.2985816987
20
444498.9695468957
10
1273437.0601197928
20
444498.34116484085
10
1273436.9193721127
20
444497.6727480684
10
1273436.8763386586
20
444496.9642965783
10
1273436.9310194303
20
444496.2158103707
10
1273437.0268400682
20
444495.46732416307
10
1273437.1638005723
20
444494.71883795527
10
1273437.3419009426
20
444493.9703517476
10
1273437.5611411792
20
444493.22186554
10
1273437.7411351374
20
444492.60033732955
10
1273437.8818828173
20
444492.1057671163
10
1273437.983384219
20
444491.7381549004
10
1273438.0456393424
20
444491.4975006816
10
1273438.1271933063
20
444491.1900520203
10
1273438.2280461106
20
444490.8158089165
10
1273438.3481977552
20
444490.3747713701
10
1273438.4876482405
20
444489.8669393811
10
1273438.62461656
20
444489.2989438375
10
1273438.7591027142
20
444488.6707847393
10
1273438.891106703
20
444487.9824620863
10
1273439.020628526
20
444487.23397587857
10
1273439.1608193852
20
444486.4854896709
10
1273439.3116792801
20
444485.73700346326
10
1273439.473208211
20
444484.9885172556
10
1273439.6454061773
20
444484.2400310479
10
1273439.837011673
20
444483.4915448402
10
1273440.0480246972
20
444482.7430586326
10
1273440.2784452508
20
444481.9945724249
10
1273440.5282733338
20
444481.24608621723
10
1273440.7300163582
20
444480.6410689416
10
1273440.8836743245
20
444480.17952059803
10
1273440.9892472327
20
444479.8614411865
10
1273441.0467350832
20
444479.68683070707
10
1273441.1424640105
20
444479.4124039154
10
1273441.2764340152
20
444479.03816081164
10
1273441.4486450972
20
444478.56410139555
10
1273441.6590972561
20
444477.99022566737
10
1273441.9059413779
20
444477.37269731925
10
1273442.189177462
20
444476.7115163513
10
1273442.5088055087
20
444476.0066827636
10
1273442.8648255183
20
444475.2581965559
10
1273443.177344035
20
444474.62256754295
10
1273443.4463610593
20
444474.09979572473
10
1273443.671876591
20
444473.68988110125
10
1273443.8538906302
20
444473.39282367245
10
1273444.0723877107
20
444473.0571734061
10
1273444.327367832
20
444472.68293030234
10
1273444.6188309947
20
444472.2700943609
10
1273444.9467771985
20
444471.8186655821
10
1273445.2978718523
20
444471.35728128813
10
1273445.6721149562
20
444470.8859414789
10
1273446.0695065102
20
444470.4046461546
10
1273446.4900465142
20
444469.9133953153
10
1273446.881651823
20
444469.4806483436
10
1273447.2443224366
20
444469.1064052398
10
1273447.5780583555
20
444468.79066600377
10
1273447.8828595788
20
444468.53343063546
10
1273448.2223817427
20
444468.2935326321
10
1273448.5966248466
20
444468.0709719937
10
1273449.0055888905
20
444467.8657487202
10
1273449.4492738745
20
444467.67786281166
10
1273449.9691591645
20
444467.5247403617
10
1273450.5652447604
20
444467.4063813703
10
1273451.237530662
20
444467.32278583746
10
1273451.9860168693
20
444467.2739537632
10
1273452.7345030769
20
444467.26050810027
10
1273453.4829892847
20
444467.2824488485
10
1273454.2314754925
20
444467.33977600816
10
1273454.9799617003
20
444467.4324895791
10
1273455.728447908
20
444467.53539260617
10
1273456.4769341159
20
444467.6484850893
10
1273457.2254203234
20
444467.7717670285
10
1273457.9739065308
20
444467.9052384236
10
1273458.5444888086
20
444468.00797522423
10
1273458.9371671563
20
444468.0799774303
10
1273459.151941574
20
444468.12124504155
10
1273459.1888120617
20
444468.13177805813
10
1273459.3943688574
20
444468.20388358016
10
1273459.7686119613
20
444468.3375616076
10
1273460.3115413731
20
444468.5328121404
10
1273461.0231570932
20
444468.7896351787
10
1273461.743990435
20
444469.0541207177
10
1273462.4740413988
20
444469.3262687574
10
1273463.2133099847
20
444469.60607929796
10
1273463.9617961922
20
444469.89355233917
10
1273464.6429131855
20
444470.1602046521
10
1273465.2566609648
20
444470.4060362369
10
1273465.8030395296
20
444470.6310470933
10
1273466.2820488801
20
444470.83523722144
10
1273466.7086751075
20
444471.0296188636
10
1273467.0829182111
20
444471.2141920196
10
1273467.4047781916
20
444471.38895668957
10
1273467.6742550489
20
444471.5539128735
10
1273468.0634842436
20
444471.82331707247
10
1273468.572465776
20
444472.19716928643
10
1273469.201199646
20
444472.67546951555
10
1273469.9496858534
20
444473.2582177598
10
1273470.5113911293
20
444473.6954743878
10
1273470.8863154734
20
444473.9872393997
10
1273471.0744588855
20
444474.13351279544
10
1273471.0758213657
20
444474.134294575
10
1273471.2636241578
20
444474.2514278232
10
1273471.6378672617
20
444474.48491254007
10
1273472.1985506774
20
444474.8347487255
10
1273472.9456744045
20
444475.3009363796
10
1273473.6931387521
20
444475.7007038333
10
1273474.4409437198
20
444476.03405108664
10
1273475.1890893076
20
444476.3009781395
10
1273475.937575515
20
444476.50148499204
10
1273476.6860617227
20
444476.62393089174
10
1273477.4345479305
20
444476.6683158388
10
1273478.183034138
20
444476.6346398329
10
1273478.9315203456
20
444476.5229028743
10
1273479.6364713206
20
444476.3003607683
10
1273480.2978870631
20
444475.9670135149
10
1273480.915767573
20
444475.52286111424
10
1273481.4901128502
20
444474.9679035663
10
1273481.9644070407
20
444474.4560717582
10
1273482.3386501446
20
444473.98736568994
10
1273482.6128421617
20
444473.56178536155
10
1273482.7869830923
20
444473.1793307729
10
1273482.9517835916
20
444472.80098192673
10
1273483.1072436601
20
444472.42673882295
10
1273483.2533632976
20
444472.0566014615
10
1273483.390142504
20
444471.69056984235
10
1273483.5242213598
20
444471.22892457613
10
1273483.6555998647
20
444470.6716656628
10
1273483.7842780193
20
444470.01879310224
10
1273483.9102558233
20
444469.2703068945
10
1273483.99745303
20
444468.5218206868
10
1273484.0458696396
20
444467.7733344792
10
1273484.0555056524
20
444467.0248482715
10
1273484.0263610682
20
444466.2763620639
10
1273483.9460995235
20
444465.5699823967
10
1273483.8147210185
20
444464.9057092697
10
1273483.6322255528
20
444464.2835426833
10
1273483.398613127
20
444463.7034826373
10
1273483.2103035476
20
444463.2263310623
10
1273483.067296815
20
444462.85208795854
10
1273482.9695929291
20
444462.58075332583
10
1273482.9171918898
20
444462.41232716414
10
1273482.7478308054
20
444462.098885991
10
1273482.4615096757
20
444461.6404298063
10
1273482.0582285007
20
444461.0369586102
10
1273481.5379872806
20
444460.2884724025
10
1273481.1038453784
20
444459.68423531327
10
1273480.755802794
20
444459.2242473426
10
1273480.4938595279
20
444458.90850849036
10
1273480.3180155796
20
444458.7370187566
10
1273480.020385192
20
444458.46415233787
10
1273479.600968365
20
444458.089909234
10
1273479.0597650986
20
444457.61428944516
10
1273478.3967753923
20
444457.03729297116
10
1273477.8781589875
20
444456.59095680807
10
1273477.5039158836
20
444456.2752809559
10
1273477.274046081
20
444456.0902654145
10
1273477.1885495794
20
444456.035910184
10
1273476.9373056511
20
444455.88918793586
10
1273476.5203142962
20
444455.6500986702
10
1273475.937575515
20
444455.318642387
10
1273475.1890893076
20
444454.8948190862
10
1273474.4864274822
20
444454.5093746915
10
1273473.8295900393
20
444454.16230920295
10
1273473.218576979
20
444453.85362262046
10
1273472.653388301
20
444453.5833149441
10
1273472.18367241
20
444453.361068854
10
1273471.809429306
20
444453.18688435014
10
1273471.5306589892
20
444453.06076143245
10
1273471.3473614599
20
444452.98270010104
10
1273471.0227667606
20
444452.8875462164
10
1273470.5568748917
20
444452.7752997787
10
1273469.9496858534
20
444452.6459607877
10
1273469.201199646
20
444452.49952924356
10
1273468.4527134383
20
444452.3491979146
10
1273467.7042272307
20
444452.1949668008
10
1273466.9557410232
20
444452.03683590214
10
1273466.2072548154
20
444451.87480521866
10
1273465.4587686076
20
444451.6712163728
10
1273464.7102823998
20
444451.42606936453
10
1273463.9617961922
20
444451.1393641939
10
1273463.213309985
20
444450.8111008609
10
1273462.6401565555
20
444450.5564785322
10
1273462.2423359042
20
444450.37549720786
10
1273462.0198480315
20
444450.26815688796
10
1273461.9726929367
20
444450.2344575724
10
1273461.7619938375
20
444450.04508529813
10
1273461.3877507336
20
444449.7000400652
10
1273460.8499636252
20
444449.1993218736
10
1273460.1486325122
20
444448.5429307233
10
1273459.60201916
20
444448.02761359623
10
1273459.2101235692
20
444447.6533704924
10
1273458.9729457395
20
444447.42020141176
10
1273458.8904856709
20
444447.3281063544
10
1273458.6753939164
20
444447.07191350946
10
1273458.327670476
20
444446.6516228769
10
1273457.8473153496
20
444446.0672344568
10
1273457.2343285375
20
444445.3187482491
10
1273456.7613285966
20
444444.735721275
10
1273456.428315527
20
444444.3181535345
10
1273456.235289329
20
444444.0660450276
10
1273456.1822500022
20
444443.9793957542
10
1273456.062513201
20
444443.74894956563
10
1273455.876078926
20
444443.3747064618
10
1273455.6229471765
20
444442.8566664427
10
1273455.3031179528
20
444442.1948295084
10
1273455.042274999
20
444441.5113302557
10
1273454.840418315
20
444440.8061686848
10
1273454.6975479012
20
444440.07934479543
10
1273454.613663757
20
444439.3308585877
10
1273454.5805670023
20
444438.58237238
10
1273454.5982576373
20
444437.8338861724
10
1273454.6667356617
20
444437.0853999647
10
1273454.7860010758
20
444436.3369137571
10
1273454.9338714252
20
444435.58842754946
10
1273455.1103467098
20
444434.83994134166
10
1273455.3154269299
20
444434.09145513404
10
1273455.5491120853
20
444433.3429689264
10
1273455.7370666515
20
444432.747405673
10
1273455.8792906282
20
444432.304765374
10
1273455.9757840158
20
444432.0150480292
10
1273456.0265468142
20
444431.8782536386
10
1273456.120844602
20
444431.6227348915
10
1273456.2586773788
20
444431.24849178764
10
1273456.440045145
20
444430.75552432716
10
1273456.6649479005
20
444430.14383251
10
1273456.896462342
20
444429.49794209516
10
1273457.1345884695
20
444428.8178530828
10
1273457.379326283
20
444428.1035654727
10
1273457.6306757822
20
444427.355079265
10
1273457.8801923478
20
444426.60659305734
10
1273458.1278759798
20
444425.85810684966
10
1273458.3737266776
20
444425.109620642
10
1273458.617744442
20
444424.3611344343
10
1273458.8078118123
20
444423.7778203618
10
1273458.9439287886
20
444423.3596784244
10
1273459.0260953712
20
444423.1067086221
10
1273459.0543115595
20
444423.0189109548
10
1273459.1218223898
20
444422.7878905693
10
1273459.228627862
20
444422.4136474655
10
1273459.3747279756
20
444421.89618164336
10
1273459.5601227311
20
444421.2354931028
10
1273459.7460672436
20
444420.55285514554
10
1273459.932561513
20
444419.84826777154
10
1273460.1196055394
20
444419.1217309807
10
1273460.307199323
20
444418.373244773
10
1273460.4942330997
20
444417.62475856533
10
1273460.6807068696
20
444416.8762723577
10
1273460.8666206328
20
444416.12778615
10
1273461.0519743892
20
444415.37929994235
10
1273461.2385256845
20
444414.6493957313
10
1273461.426274519
20
444413.93807351677
10
1273461.6152208922
20
444413.24533329887
10
1273461.8053648048
20
444412.5711750776
10
1273461.9520562505
20
444412.04697441496
10
1273462.0552952294
20
444411.6727313112
10
1273462.115081742
20
444411.44844576606
10
1273462.1314157876
20
444411.37411777966
10
1273462.1698792404
20
444411.131250238
10
1273462.2304721004
20
444410.719843141
10
1273462.3131943673
20
444410.13989648863
10
1273462.418046041
20
444409.3914102809
10
1273462.5148145463
20
444408.6429240732
10
1273462.6034998829
20
444407.8944378656
10
1273462.684102051
20
444407.1459516579
10
1273462.7566210506
20
444406.3974654503
10
1273462.8102438555
20
444405.64897924266
10
1273462.8449704654
20
444404.90049303486
10
1273462.8608008807
20
444404.15200682724
10
1273462.8577351011
20
444403.4035206196
10
1273462.8134537814
20
444402.65503441193
10
1273462.727956921
20
444401.9065482043
10
1273462.6012445206
20
444401.1580619966
10
1273462.4333165798
20
444400.4095757889
10
1273462.3016928744
20
444399.834529886
10
1273462.2063734047
20
444399.43292428803
10
1273462.1473581705
20
444399.20475899486
10
1273462.1246471715
20
444399.15003400645
10
1273461.973321172
20
444398.93554996036
10
1273461.6933801712
20
444398.5613068566
10
1273461.2848241697
20
444398.02730469505
10
1273460.7476531677
20
444397.33354347566
10
1273460.2919461145
20
444396.7716784911
10
1273459.9177030108
20
444396.3417097413
10
1273459.6249238562
20
444396.04363722616
10
1273459.4136086504
20
444395.8774609458
10
1273459.0680006945
20
444395.71415821277
10
1273458.588099988
20
444395.5537290271
10
1273457.9739065308
20
444395.3961733888
10
1273457.2254203234
20
444395.24149129784
10
1273456.4769341159
20
444395.11427225603
10
1273455.728447908
20
444395.0145162634
10
1273454.9799617003
20
444394.9422233198
10
1273454.2314754925
20
444394.89739342534
10
1273453.4829892847
20
444394.83216250374
10
1273452.7345030773
20
444394.74653055496
10
1273451.9860168695
20
444394.6404975791
10
1273451.237530662
20
444394.51406357624
10
1273450.4892550153
20
444394.3551470892
10
1273449.7411899294
20
444394.1637481183
10
1273448.9933354047
20
444393.93986666336
10
1273448.2456914408
20
444393.6835027244
10
1273447.6847479069
20
444393.4911517212
10
1273447.310504803
20
444393.3628136538
10
1273447.122962129
20
444393.2984885221
10
1273447.1221198854
20
444393.29817632615
10
1273446.9343666506
20
444393.20248482923
10
1273446.5597024248
20
444393.01141403127
10
1273445.998127208
20
444392.7249639322
10
1273445.2496410008
20
444392.3431345321
10
1273444.5794814911
20
444391.96517632913
10
1273443.9876486794
20
444391.5910893233
10
1273443.474142566
20
444391.22087351454
10
1273443.0389631507
20
444390.8545289028
10
1273442.6342518912
20
444390.50999630673
10
1273442.2600087873
20
444390.1872757261
10
1273441.9162338392
20
444389.88636716106
10
1273441.6029270468
20
444389.60727061157
10
1273441.2657007626
20
444389.2806007848
10
1273440.9045549862
20
444388.90635768103
10
1273440.5194897177
20
444388.48454130004
10
1273440.1105049574
20
444388.0151516419
10
1273439.718891025
20
444387.52233900386
10
1273439.3446479214
20
444387.006103386
10
1273438.987775646
20
444386.46644478827
10
1273438.6482741984
20
444385.90336321073
10
1273438.366382461
20
444385.43470086996
10
1273438.1421004331
20
444385.0604577662
10
1273437.975428115
20
444384.7806338992
10
1273437.8663655068
20
444384.5952292691
10
1273437.6725503267
20
444384.2690542447
10
1273437.3939825748
20
444383.8021088258
10
1273437.0306622512
20
444383.19439301256
10
1273436.5825893558
20
444382.4459068048
10
1273436.1986970082
20
444381.7923256998
10
1273435.8789852085
20
444381.23364969745
10
1273435.6234539566
20
444380.76987879776
10
1273435.432103253
20
444380.4010130007
10
1273435.1789791815
20
444380.0294585502
10
1273434.8640817422
20
444379.65521544643
10
1273434.4874109356
20
444379.2782836892
10
1273434.048966761
20
444378.89866327855
10
1273433.6426231219
20
444378.57947682054
10
1273433.268380018
20
444378.32072431495
10
1273432.9262374495
20
444378.1224057621
10
1273432.6161954163
20
444377.98452116176
10
1273432.1965423394
20
444377.8739896641
10
1273431.6672782188
20
444377.79081126896
10
1273431.0284030547
20
444377.73498597636
10
1273430.2799168474
20
444377.70651378646
10
1273429.537284236
20
444377.53962728963
10
1273428.800505221
20
444377.2343264859
10
1273428.0695798022
20
444376.7906113754
0
LWPOLYLINE
5
37
330
C
100
AcDbEntity
8
C-TOPO-MAJR-E
100
AcDbPolyline
90
10
70
0
43
0
38
0
39
0
10
1273428.4436607626
20
444360.13758163794
10
1273428.650485156
20
444359.53535649355
10
1273428.853166108
20
444358.9818850368
10
1273429.0181445037
20
444358.51802775654
10
1273429.1454203431
20
444358.14378465276
10
1273429.2349936266
20
444357.85915572534
10
1273429.286864354
20
444357.66414097435
10
1273429.369985787
20
444357.3307583592
10
1273429.4843579256
20
444356.8590078799
10
1273429.62998077
20
444356.2488895364
0
LWPOLYLINE
5
38
330
C
100
AcDbEntity
8
C-TOPO-MAJR-E
100
AcDbPolyline
90
430
70
0
43
0
38
0
39
0
10
1273473.4773231628
20
444515.5906991513
10
1273472.9205705365
20
444515.12805336114
10
1273472.1813083882
20
444514.5129590193
10
1273471.5781536628
20
444514.0182902965
10
1273471.1111063603
20
444513.64404719265
10
1273470.7801664814
20
444513.3902297078
10
1273470.5853340256
20
444513.256837842
10
1273470.3007962457
20
444513.0452153854
10
1273469.9265531418
20
444512.7553623381
10
1273469.462604714
20
444512.3872787001
10
1273468.9089509621
20
444511.9409644713
10
1273468.3426188682
20
444511.530685805
10
1273467.763608432
20
444511.1564427012
10
1273467.1719196532
20
444510.8182351598
10
1273466.567552532
20
444510.516063181
10
1273466.0782474198
20
444510.26806654636
10
1273465.7040043161
20
444510.07424525596
10
1273465.4448232208
20
444509.9345993099
10
1273465.300704134
20
444509.8491287082
10
1273465.005493267
20
444509.65342056175
10
1273464.5591906197
20
444509.3474748707
10
1273463.9617961922
20
444508.931291635
10
1273463.213309985
20
444508.4048708547
10
1273462.6081355195
20
444507.97590656305
10
1273462.1462727962
20
444507.64439876005
10
1273461.827721815
20
444507.41034744575
10
1273461.6524825762
20
444507.2737526202
10
1273461.377741405
20
444507.02526302566
10
1273461.0034983014
20
444506.6648786622
10
1273460.529753265
20
444506.19259952987
10
1273459.9565062958
20
444505.6084256285
10
1273459.4773727693
20
444505.1292171259
10
1273459.0923526855
20
444504.7549740221
10
1273458.801446044
20
444504.485696317
10
1273458.6046528448
20
444504.32138401066
10
1273458.3193671932
20
444504.011028229
10
1273457.9455890888
20
444503.554628972
10
1273457.483318532
20
444502.9521862397
10
1273456.9325555223
20
444502.203700032
10
1273456.5192507654
20
444501.64191638975
10
1273456.2434042608
20
444501.2668353128
10
1273456.1050160092
20
444501.07845680125
10
1273456.1040860105
20
444501.07678085513
10
1273455.9861565616
20
444500.8888213301
10
1273455.7512276627
20
444500.51457822626
10
1273455.3992993142
20
444499.9540515436
10
1273454.9303715157
20
444499.2072412821
10
1273454.5301841004
20
444498.46001203405
10
1273454.198737068
20
444497.71236379945
10
1273453.9360304188
20
444496.9642965783
10
1273453.7420641526
20
444496.2158103707
10
1273453.6096997468
20
444495.46732416307
10
1273453.5389372013
20
444494.71883795527
10
1273453.5297765164
20
444493.9703517476
10
1273453.5822176915
20
444493.22186554
10
1273453.6526922775
20
444492.47337933234
10
1273453.7412002743
20
444491.72489312454
10
1273453.8477416818
20
444490.9764069169
10
1273453.9723165
20
444490.2279207093
10
1273454.122004737
20
444489.4794345016
10
1273454.2968063925
20
444488.730948294
10
1273454.4967214663
20
444487.9824620863
10
1273454.7217499586
20
444487.23397587857
10
1273454.9557337225
20
444486.58609595045
10
1273455.1986727582
20
444486.03882230184
10
1273455.4505670653
20
444485.5921549328
10
1273455.7114166438
20
444485.24609384325
10
1273455.97751257
20
444484.8859417465
10
1273456.2488548444
20
444484.51169864275
10
1273456.525443466
20
444484.1233645317
10
1273456.8072784352
20
444483.7209394136
10
1273457.073051946
20
444483.23199902306
10
1273457.322763998
20
444482.6565433602
10
1273457.5564145911
20
444481.9945724249
10
1273457.7740037255
20
444481.24608621723
10
1273457.9994611023
20
444480.56517932704
10
1273458.2327867213
20
444479.95185175433
10
1273458.4739805828
20
444479.406103499
10
1273458.7230426867
20
444478.92793456116
10
1273459.0811232824
20
444478.5017285403
10
1273459.5482223704
20
444478.1274854365
10
1273460.1243399503
20
444477.8052052497
10
1273460.8094760221
20
444477.53488797974
10
1273461.33916561
20
444477.3303233533
10
1273461.7134087137
20
444477.1915113701
10
1273461.9322053336
20
444477.11845203035
10
1273461.9955554695
20
444477.11114533397
10
1273462.0475371298
20
444477.1074919858
10
1273462.088150314
20
444477.1074919858
10
1273462.117395023
20
444477.11114533397
10
1273462.1352712559
20
444477.11845203047
10
1273462.3313309243
20
444477.1923608349
10
1273462.7055740282
20
444477.3328717473
10
1273463.2580005673
20
444477.5399847678
10
1273463.988610542
20
444477.8136998962
10
1273464.7236895747
20
444478.0951539031
10
1273465.4632376658
20
444478.3843467885
10
1273466.2072548154
20
444478.68127855234
10
1273466.9557410227
20
444478.98594919464
10
1273467.5946801268
20
444479.2569772856
10
1273468.1240721275
20
444479.49436282524
10
1273468.5439170243
20
444479.69810581347
10
1273468.8542148175
20
444479.8682062504
10
1273469.196485266
20
444480.0394675996
10
1273469.57072837
20
444480.2118898609
10
1273469.976944129
20
444480.38547303446
10
1273470.4151325435
20
444480.56021712034
10
1273470.9308954063
20
444480.7435739474
10
1273471.5242327172
20
444480.9355435157
10
1273472.1951444768
20
444481.13612582535
10
1273472.9436306842
20
444481.34532087616
10
1273473.692116892
20
444481.54994572775
10
1273474.4406030998
20
444481.7500003801
10
1273475.1890893076
20
444481.94548483327
10
1273475.937575515
20
444482.1363990872
10
1273476.6829339375
20
444482.32299298194
10
1273477.4251645748
20
444482.50526651746
10
1273478.164267427
20
444482.6832196938
10
1273478.900242494
20
444482.85685251077
10
1273479.4553515795
20
444482.98788780614
10
1273479.8295946831
20
444483.0763255798
10
1273480.0229718054
20
444483.1221658317
10
1273480.035482946
20
444483.1254085619
10
1273480.2319878535
20
444483.14768359606
10
1273480.6124865275
20
444483.1889909342
10
1273481.1769789685
20
444483.2493305764
10
1273481.9254651763
20
444483.3287025225
10
1273482.561413553
20
444483.36757781304
10
1273483.0848240987
20
444483.36595644796
10
1273483.4956968133
20
444483.32383842726
10
1273483.7940316969
20
444483.2412237509
10
1273484.1303206906
20
444483.1252215626
10
1273484.5045637945
20
444482.9758318623
10
1273484.9167610086
20
444482.79305464996
10
1273485.3669123324
20
444482.57688992564
10
1273485.8025692597
20
444482.2816860116
10
1273486.2237317897
20
444481.9074429078
10
1273486.630399923
20
444481.4541606142
10
1273487.0225736597
20
444480.9218391308
10
1273487.4057820798
20
444480.35244809557
10
1273487.7800251835
20
444479.74598750845
10
1273488.145302971
20
444479.10245736944
10
1273488.5016154423
20
444478.4218576785
10
1273488.777764446
20
444477.8944362811
10
1273488.9737499817
20
444477.52019317733
10
1273489.08957205
20
444477.299128367
10
1273489.1252306504
20
444477.2312418502
10
1273489.2460843823
20
444476.99320541066
10
1273489.452133246
20
444476.58501904854
10
1273489.7433772413
20
444476.0066827636
10
1273490.119816368
20
444475.2581965559
10
1273490.4830098655
20
444474.5097103482
10
1273490.832957733
20
444473.7612241406
10
1273491.1696599713
20
444473.0127379329
10
1273491.4931165795
20
444472.2642517252
10
1273491.738942004
20
444471.68083898834
10
1273491.9071362442
20
444471.26249972224
10
1273491.9976993003
20
444471.0092339269
10
1273492.0106311722
20
444470.9210416023
10
1273492.0443921376
20
444470.6898238881
10
1273492.0989821963
20
444470.31558078434
10
1273492.1744013487
20
444469.7983122908
10
1273492.2706495947
20
444469.13801840774
10
1273492.3187737176
20
444468.59977788234
10
1273492.3187737176
20
444468.1835907146
10
1273492.2706495947
20
444467.8894569046
10
1273492.1744013487
20
444467.7173764524
10
1273492.0370035258
20
444467.44421467435
10
1273491.8584561257
20
444467.0699715705
10
1273491.6387591485
20
444466.5946471409
10
1273491.3779125947
20
444466.01824138546
10
1273491.0603677656
20
444465.4589383007
10
1273490.6861246617
20
444464.9167378867
10
1273490.255183283
20
444464.3916401434
10
1273489.7675436295
20
444463.88364507083
10
1273489.3535901285
20
444463.44252598257
10
1273489.0133227797
20
444463.0682828788
10
1273488.7467415833
20
444462.7609157593
10
1273488.5538465395
20
444462.52042462426
10
1273488.2702774657
20
444462.2216889083
10
1273487.8960343618
20
444461.86470861133
10
1273487.431117228
20
444461.4494837335
10
1273486.875526064
20
444460.9760142747
10
1273486.3975736941
20
444460.55215799337
10
1273485.9972601177
20
444460.1779148896
10
1273485.6745853352
20
444459.8532849632
10
1273485.4295493464
20
444459.57826821425
10
1273485.1199098001
20
444459.25219170883
10
1273484.7456666962
20
444458.8750554469
10
1273484.306820035
20
444458.4468594284
10
1273483.803369816
20
444457.9676036534
10
1273483.3567308984
20
444457.540854214
10
1273482.9669032819
20
444457.16661111015
10
1273482.6338869666
20
444456.84487434186
10
1273482.3576819526
20
444456.5756439093
10
1273482.0324578937
20
444456.2792214954
10
1273481.6582147898
20
444455.9556071003
10
1273481.2349526412
20
444455.6048007241
10
1273480.7626714478
20
444455.22680236655
10
1273480.249451381
20
444454.8506816359
10
1273479.6952924407
20
444454.4764385321
10
1273479.1001946274
20
444454.1040730551
10
1273478.4641579413
20
444453.7335852049
10
1273477.959018046
20
444453.4389570083
10
1273477.5847749421
20
444453.2201884653
10
1273477.3414286296
20
444453.0772795759
10
1273477.2289791084
20
444453.01023034024
10
1273476.9575204155
20
444452.8587935179
10
1273476.527052551
20
444452.62296910904
10
1273475.937575515
20
444452.30275711365
10
1273475.1890893076
20
444451.89815753174
10
1273474.4520965514
20
444451.5254984978
10
1273473.7265972467
20
444451.1847800118
10
1273473.0125913937
20
444450.87600207387
10
1273472.3100789923
20
444450.59916468395
10
1273471.7717012395
20
444450.3841924438
10
1273471.3974581356
20
444450.2310853534
10
1273471.1873496806
20
444450.1398434129
10
1273471.1413758744
20
444450.11046662234
10
1273470.919773968
20
444450.01049663906
10
1273470.5225439607
20
444449.83993346326
10
1273469.9496858534
20
444449.5987770948
10
1273469.201199646
20
444449.2870275338
10
1273468.4527134383
20
444448.9702569914
10
1273467.7042272307
20
444448.64846546756
10
1273466.9557410232
20
444448.3216529623
10
1273466.2072548154
20
444447.9898194755
10
1273465.616064662
20
444447.7220627682
10
1273465.1821705634
20
444447.5183828402
10
1273464.9055725192
20
444447.3787796915
10
1273464.7862705295
20
444447.30325332226
10
1273464.5394979827
20
444447.1058859438
10
1273464.1652548788
20
444446.7866775561
10
1273463.6635412178
20
444446.3456281592
10
1273463.0343570001
20
444445.78273775306
10
1273462.5216730018
20
444445.31417099806
10
1273462.1254892228
20
444444.9399278943
10
1273461.8458056636
20
444444.66000844154
10
1273461.6826223237
20
444444.47441264
10
1273461.4139091019
20
444444.15136751835
10
1273461.039665998
20
444443.69087307644
10
1273460.5598930123
20
444443.0929293146
10
1273459.9745901444
20
444442.3575362327
10
1273459.533600873
20
444441.8027181397
10
1273459.2369251985
20
444441.42847503594
10
1273459.0845631205
20
444441.2348069212
10
1273459.0765146392
20
444441.22171379544
10
1273459.02590362
20
444441.0247723993
10
1273458.9327300633
20
444440.64398273267
10
1273458.7969939685
20
444440.07934479543
10
1273458.6186953362
20
444439.3308585877
10
1273458.50405651
20
444438.58237238
10
1273458.4530774907
20
444437.8338861724
10
1273458.4657582776
20
444437.0853999647
10
1273458.542098871
20
444436.3369137571
10
1273458.6268559461
20
444435.67499080603
10
1273458.720029503
20
444435.0996311116
10
1273458.8216195416
20
444434.61083467386
10
1273458.931626062
20
444434.2086014926
10
1273459.041688084
20
444433.8203633501
10
1273459.1518056074
20
444433.4461202463
10
1273459.2619786323
20
444433.0858721811
10
1273459.372207159
20
444432.73961915466
10
1273459.519487285
20
444432.2928078329
10
1273459.703819011
20
444431.7454382158
10
1273459.9252023366
20
444431.0975103034
10
1273460.1836372619
20
444430.3490240957
10
1273460.4349898442
20
444429.600537888
10
1273460.679260084
20
444428.8520516804
10
1273460.9164479808
20
444428.1035654727
10
1273461.1465535348
20
444427.355079265
10
1273461.3565620007
20
444426.6679206373
10
1273461.5464733788
20
444426.04208958946
10
1273461.7162876686
20
444425.47758612165
10
1273461.8660048705
20
444424.97441023367
10
1273461.9987728053
20
444424.53570073785
10
1273462.114591473
20
444424.16145763407
10
1273462.2134608736
20
444423.8516809222
10
1273462.295381007
20
444423.6063706025
10
1273462.4110564291
20
444423.23526631074
10
1273462.5604871404
20
444422.73836804705
10
1273462.7436731402
20
444422.1156758113
10
1273462.9606144289
20
444421.3671896036
10
1273463.172912456
20
444420.61870339594
10
1273463.3805672224
20
444419.8702171884
10
1273463.583578727
20
444419.1217309807
10
1273463.7819469704
20
444418.373244773
10
1273463.9824077599
20
444417.62475856533
10
1273464.184961096
20
444416.8762723577
10
1273464.3896069778
20
444416.12778615
10
1273464.596345406
20
444415.37929994235
10
1273464.7625287557
20
444414.78216649697
10
1273464.8881570268
20
444414.3363858138
10
1273464.9732302192
20
444414.04195789294
10
1273465.0177483328
20
444413.89888273436
10
1273465.097861481
20
444413.6402236031
10
1273465.2135696628
20
444413.26598049933
10
1273465.3648728789
20
444412.77615342283
10
1273465.551771129
20
444412.17074237374
10
1273465.7459650072
20
444411.529562535
10
1273465.9474545135
20
444410.85261390667
10
1273466.1562396474
20
444410.13989648863
10
1273466.3723204096
20
444409.3914102809
10
1273466.5934980512
20
444408.6429240732
10
1273466.8197725723
20
444407.8944378656
10
1273467.0511439731
20
444407.1459516579
10
1273467.2876122536
20
444406.3974654503
10
1273467.4922231925
20
444405.76041777525
10
1273467.6649767903
20
444405.23480863275
10
1273467.8058730466
20
444404.82063802297
10
1273467.9149119619
20
444404.51790594583
10
1273468.036804303
20
444404.17941835534
10
1273468.1715500704
20
444403.80517525144
10
1273468.3191492641
20
444403.3951766343
10
1273468.479601884
20
444402.9494225038
10
1273468.657566268
20
444402.42798535404
10
1273468.8530424165
20
444401.830865185
10
1273469.066030329
20
444401.1580619966
10
1273469.296530006
20
444400.4095757889
10
1273469.5220613827
20
444399.6610895812
10
1273469.7426244589
20
444398.9126033736
10
1273469.958219235
20
444398.1641171659
10
1273470.1688457108
20
444397.4156309582
10
1273470.3635424264
20
444396.71245174
10
1273470.542309382
20
444396.0545795113
10
1273470.7051465772
20
444395.44201427203
10
1273470.8520540125
20
444394.8747560222
10
1273470.9721159588
20
444394.40400534536
10
1273471.0653324167
20
444394.0297622416
10
1273471.1317033859
20
444393.7520267107
10
1273471.1712288663
20
444393.5707987528
10
1273471.2208451105
20
444393.24775623245
10
1273471.2805521186
20
444392.78289914975
10
1273471.3503498903
20
444392.1762275045
10
1273471.430238426
20
444391.4277412968
10
1273471.5035738302
20
444390.67925508914
10
1273471.5703561031
20
444389.9307688816
10
1273471.6305852446
20
444389.1822826739
10
1273471.6842612547
20
444388.4337964662
10
1273471.7204539757
20
444387.68531025853
10
1273471.7391634074
20
444386.9368240509
10
1273471.7403895499
20
444386.1883378432
10
1273471.724132403
20
444385.43985163554
10
1273471.6727313232
20
444384.74958055915
10
1273471.5861863098
20
444384.117524614
10
1273471.4644973637
20
444383.54368380003
10
1273471.3076644843
20
444383.02805811743
10
1273471.1385247814
20
444382.58312372415
10
1273470.9570782557
20
444382.2088806203
10
1273470.7633249064
20
444381.9053288059
10
1273470.5572647338
20
444381.6724682809
10
1273470.2671130956
20
444381.4415231383
10
1273469.8928699917
20
444381.2124933781
10
1273469.4345354224
20
444380.9853790003
10
1273468.892109387
20
444380.760180005
10
1273468.298168309
20
444380.581177745
10
1273467.6527121877
20
444380.4483722204
10
1273466.9557410232
20
444380.36176343117
10
1273466.2072548154
20
444380.3213513773
10
1273465.4587686076
20
444380.2828663575
10
1273464.7102823998
20
444380.2463083718
10
1273463.9617961922
20
444380.2116774202
10
1273463.213309985
20
444380.17897350265
10
1273462.4648237773
20
444380.11334003403
10
1273461.7163375695
20
444380.01477701426
10
1273460.9678513617
20
444379.8832844434
10
1273460.219365154
20
444379.71886232146
10
1273459.4738639905
20
444379.5241084503
10
1273458.7313478715
20
444379.2990228298
10
1273457.9918167968
20
444379.0436054601
10
1273457.2552707666
20
444378.7578563411
10
1273456.6998761992
20
444378.542269247
10
1273456.3256330953
20
444378.39684417786
10
1273456.1325414549
20
444378.3215811336
10
1273456.1206012776
20
444378.31648011424
10
1273455.9245245927
20
444378.20624044107
10
1273455.5443114005
20
444377.99086211406
10
1273454.9799617003
20
444377.6703451333
10
1273454.2314754925
20
444377.2446894987
10
1273453.5623073468
20
444376.84601538425
10
1273452.9724572636
20
444376.47432279016
10
1273452.4619252423
20
444376.1296117162
10
1273452.0307112834
20
444375.81188216247
10
1273451.627982752
20
444375.5126142508
10
1273451.253739648
20
444375.2318079812
10
1273450.9079819717
20
444374.9694633536
10
1273450.5907097235
20
444374.72558036813
10
1273450.2311018086
20
444374.41651732347
10
1273449.829158227
20
444374.04227421957
10
1273449.384878979
20
444373.6028510566
10
1273448.898264065
20
444373.09824783454
10
1273448.4678350557
20
444372.62828261434
10
1273448.0935919518
20
444372.1929553961
10
1273447.7755347532
20
444371.7922661798
10
1273447.51366346
20
444371.42621496547
10
1273447.265128264
20
444371.05606780644
10
1273447.0299291655
20
444370.6818247026
10
1273446.8080661646
20
444370.30348565395
10
1273446.599539261
20
444369.92105066066
10
1273446.3431990806
20
444369.4471028637
10
1273446.0390456228
20
444368.88164226315
10
1273445.6870788878
20
444368.2246688591
10
1273445.2872988756
20
444367.4761826514
10
1273444.9524190435
20
444366.8700693943
10
1273444.6824393915
20
444366.40632908774
10
1273444.4773599193
20
444366.08496173174
10
1273444.3371806273
20
444365.9059673263
10
1273444.047866743
20
444365.62934857165
10
1273443.6094182665
20
444365.2551054678
10
1273443.0218351977
20
444364.7832380148
10
1273442.2851175372
20
444364.21374621266
10
1273441.7296371548
20
444363.78505964467
10
1273441.355394051
20
444363.49717831094
10
1273441.1623882256
20
444363.35010221147
10
1273441.1506196787
20
444363.3438313463
10
1273440.9546717166
20
444363.2632119995
10
1273440.5745443392
20
444363.108244171
10
1273440.0102375466
20
444362.8789278609
10
1273439.2617513393
20
444362.57526306907
10
1273438.5439883135
20
444362.23787683755
10
1273437.8569484702
20
444361.8667691663
10
1273437.2006318087
20
444361.46194005536
10
1273436.5750383295
20
444361.02338950464
10
1273436.0803387463
20
444360.5073550397
10
1273435.7165330588
20
444359.9138366605
10
1273435.4836212676
20
444359.2428343671
10
1273435.3816033723
20
444358.4943481594
10
1273435.329324365
20
444357.7458619517
10
1273435.3267842457
20
444356.9973757441
10
1273435.3739830141
20
444356.2488895364
0
LWPOLYLINE
5
39
330
C
100
AcDbEntity
8
C-TOPO-MAJR-E
100
AcDbPolyline
90
377
70
0
43
0
38
0
39
0
10
1273457.2906365315
20
444356.4158437684
10
1273457.7153471874
20
444356.9738564686
10
1273458.0895902913
20
444357.45269848255
10
1273458.4133658432
20
444357.85236981045
10
1273458.6866738428
20
444358.1728704521
10
1273459.0204106169
20
444358.52024232486
10
1273459.4145761658
20
444358.8944854287
10
1273459.869170489
20
444359.29559976363
10
1273460.3841935867
20
444359.7235853296
10
1273460.8288266873
20
444360.08658331784
10
1273461.2030697912
20
444360.3845937284
10
1273461.506922898
20
444360.6176165613
10
1273461.7403860083
20
444360.7856518165
10
1273462.1026048926
20
444361.0423214476
10
1273462.5935795517
20
444361.3876254544
10
1273463.213309985
20
444361.82156383706
10
1273463.9617961922
20
444362.34413659555
10
1273464.5501481243
20
444362.7505357129
10
1273464.978365781
20
444363.0407611892
10
1273465.246449162
20
444363.2148130243
10
1273465.3543982676
20
444363.27269121824
10
1273465.5954943723
20
444363.38923941617
10
1273465.9697374762
20
444363.56445761805
10
1273466.477127579
20
444363.7983458238
10
1273467.1176646813
20
444364.09090403357
10
1273467.7851890596
20
444364.336428539
10
1273468.4797007148
20
444364.5349193403
10
1273469.201199646
20
444364.68637643737
10
1273469.9496858534
20
444364.7907998302
10
1273470.6981720612
20
444364.872796304
10
1273471.446658269
20
444364.9323658585
10
1273472.1951444768
20
444364.96950849396
10
1273472.9436306842
20
444364.98422421026
10
1273473.692116892
20
444365.00536898134
10
1273474.4406030998
20
444365.0329428072
10
1273475.1890893076
20
444365.06694568787
10
1273475.937575515
20
444365.1073776233
10
1273476.6860617227
20
444365.21110844944
10
1273477.4345479305
20
444365.37813816615
10
1273478.1830341383
20
444365.60846677364
10
1273478.9315203456
20
444365.90209427185
10
1273479.4936171533
20
444366.12299725926
10
1273479.8693245612
20
444366.2711757359
10
1273480.058642569
20
444366.3466297019
10
1273480.0615711766
20
444366.3493591571
10
1273480.1993267862
20
444366.5385278004
10
1273480.471909397
20
444366.9141356319
10
1273480.8793190096
20
444367.4761826514
10
1273481.4215556239
20
444368.2246688591
10
1273481.8790633308
20
444368.8888330603
10
1273482.251842131
20
444369.4686752551
10
1273482.5398920237
20
444369.96419544343
10
1273482.7432130093
20
444370.37539362523
10
1273482.934889276
20
444370.76811426814
10
1273483.1149208234
20
444371.142357372
10
1273483.2833076518
20
444371.49812293675
10
1273483.4400497612
20
444371.8354109626
10
1273483.624513123
20
444372.27549853385
10
1273483.8366977375
20
444372.8183856506
10
1273484.0766036045
20
444373.4640723128
10
1273484.3442307243
20
444374.21255852043
10
1273484.5692722127
20
444374.96104472806
10
1273484.75172807
20
444375.70953093586
10
1273484.8915982964
20
444376.4580171435
10
1273484.9888828918
20
444377.2065033511
10
1273485.0480711446
20
444377.9549895588
10
1273485.0691630547
20
444378.70347576647
10
1273485.0521586223
20
444379.45196197415
10
1273484.9970578472
20
444380.20044818183
10
1273484.8938838958
20
444380.9489343895
10
1273484.7426367677
20
444381.69742059713
10
1273484.5433164632
20
444382.4459068048
10
1273484.2959229823
20
444383.19439301256
10
1273484.0555879795
20
444383.80146165437
10
1273483.8223114547
20
444384.2671127302
10
1273483.5960934083
20
444384.59134624014
10
1273483.37693384
20
444384.7741621842
10
1273483.025442612
20
444385.0443637236
10
1273482.5416197241
20
444385.4019508584
10
1273481.9254651763
20
444385.8469235885
10
1273481.1769789685
20
444386.3792819139
10
1273480.607604006
20
444386.7868786425
10
1273480.217340289
20
444387.0697137743
10
1273480.006187817
20
444387.22778730927
10
1273479.9741465906
20
444387.26109924744
10
1273479.7710044254
20
444387.4473777733
10
1273479.3967613215
20
444387.7866228867
10
1273478.851417279
20
444388.27883458784
10
1273478.1349722983
20
444388.92401287664
10
1273477.581938413
20
444389.43372357293
10
1273477.1923156239
20
444389.8079666767
10
1273476.9661039305
20
444390.0467421881
10
1273476.9033033336
20
444390.15005010704
10
1273476.7754281415
20
444390.4146525981
10
1273476.582478355
20
444390.84054966137
10
1273476.3244539737
20
444391.4277412968
10
1273476.0013549977
20
444392.1762275045
10
1273475.703977839
20
444392.9247137122
10
1273475.4323224972
20
444393.67319991987
10
1273475.1863889727
20
444394.42168612755
10
1273474.9661772652
20
444395.17017233523
10
1273474.7654247526
20
444395.8505983896
10
1273474.5841314355
20
444396.4629642906
10
1273474.4222973133
20
444397.0072700383
10
1273474.2799223862
20
444397.48351563263
10
1273474.1532830899
20
444397.90875998174
10
1273474.0423794237
20
444398.2830030856
10
1273473.9472113883
20
444398.60624494415
10
1273473.867778983
20
444398.87848555745
10
1273473.7511523967
20
444399.26978756936
10
1273473.5973316287
20
444399.78015097976
10
1273473.4063166792
20
444400.4095757889
10
1273473.1781075485
20
444401.1580619966
10
1273472.933462544
20
444401.9065482043
10
1273472.6723816665
20
444402.65503441193
10
1273472.3948649152
20
444403.4035206196
10
1273472.1009122904
20
444404.15200682724
10
1273471.84372481
20
444404.7940848117
10
1273471.6233024742
20
444405.3297545732
10
1273471.4396452827
20
444405.7590161114
10
1273471.2927532357
20
444406.0818694264
10
1273471.1462940276
20
444406.4304176358
10
1273471.0002676584
20
444406.8046607397
10
1273470.8546741281
20
444407.20459873794
10
1273470.7095134368
20
444407.63023163046
10
1273470.54585381
20
444408.13657785184
10
1273470.363695248
20
444408.723637402
10
1273470.1630377504
20
444409.3914102809
10
1273469.9438813175
20
444410.13989648863
10
1273469.7269824895
20
444410.8883826963
10
1273469.5123412665
20
444411.63686890394
10
1273469.2999576489
20
444412.3853551116
10
1273469.089831636
20
444413.1338413193
10
1273468.8887263588
20
444413.83930704236
10
1273468.6966418172
20
444414.50175228086
10
1273468.5135780112
20
444415.1211770347
10
1273468.3395349407
20
444415.69758130383
10
1273468.2004284738
20
444416.1729049904
10
1273468.0962586105
20
444416.5471480942
10
1273468.0270253508
20
444416.82031061535
10
1273467.9927286953
20
444416.99239255383
10
1273467.941616146
20
444417.30857555964
10
1273467.8736877034
20
444417.76885963266
10
1273467.7889433673
20
444418.373244773
10
1273467.6873831376
20
444419.1217309807
10
1273467.5897937822
20
444419.8702171884
10
1273467.4961753013
20
444420.61870339594
10
1273467.4065276943
20
444421.3671896036
10
1273467.3208509618
20
444422.1156758113
10
1273467.226869206
20
444422.864162019
10
1273467.1245824266
20
444423.6126482266
10
1273467.0139906236
20
444424.3611344343
10
1273466.895093797
20
444425.109620642
10
1273466.7740145414
20
444425.85810684966
10
1273466.6507528566
20
444426.60659305734
10
1273466.5253087424
20
444427.355079265
10
1273466.3976821988
20
444428.1035654727
10
1273466.2841892454
20
444428.8520516804
10
1273466.184829882
20
444429.600537888
10
1273466.0996041088
20
444430.3490240957
10
1273466.028511926
20
444431.0975103034
10
1273465.9920180577
20
444431.8459965111
10
1273465.9901225043
20
444432.59448271873
10
1273466.0228252658
20
444433.3429689264
10
1273466.0901263417
20
444434.09145513404
10
1273466.2207849806
20
444434.83994134166
10
1273466.4148011825
20
444435.58842754946
10
1273466.6721749469
20
444436.3369137571
10
1273466.9929062738
20
444437.0853999647
10
1273467.271233961
20
444437.69255082216
10
1273467.5071580084
20
444438.1583663293
10
1273467.7006784156
20
444438.48284648627
10
1273467.8517951833
20
444438.66599129303
10
1273468.079351667
20
444438.9446852483
10
1273468.3833478675
20
444439.3189283521
10
1273468.7637837841
20
444439.7887206045
10
1273469.2206594176
20
444440.3540620055
10
1273469.6362187862
20
444440.8426287338
10
1273470.0104618901
20
444441.2544207893
10
1273470.3433887293
20
444441.58943817206
10
1273470.6349993036
20
444441.8476808821
10
1273470.976483272
20
444442.16392378905
10
1273471.3678406347
20
444442.5381668929
10
1273471.8090713911
20
444442.9704101936
10
1273472.3001755418
20
444443.4606536912
10
1273472.732849169
20
444443.87644073233
10
1273473.107092273
20
444444.21777131705
10
1273473.4229048532
20
444444.48464544537
10
1273473.6802869104
20
444444.67706311715
10
1273474.0064240522
20
444444.960393505
10
1273474.4013162795
20
444445.33463660884
10
1273474.8649635916
20
444445.79979242873
10
1273475.3973659885
20
444446.35586096457
10
1273475.8506887387
20
444446.812342411
10
1273476.2249318426
20
444447.16923676815
10
1273476.5200953
20
444447.42654403596
10
1273476.7361791106
20
444447.58426421427
10
1273477.058029037
20
444447.8502458554
10
1273477.485645079
20
444448.2244889593
10
1273478.019027237
20
444448.70699352585
10
1273478.658175511
20
444449.29775955505
10
1273479.1648711998
20
444449.75277106883
10
1273479.5391143034
20
444450.07202806714
10
1273479.7809048225
20
444450.2555305499
10
1273479.8902427563
20
444450.3032785173
10
1273480.1593677588
20
444450.43449078425
10
1273480.5882798294
20
444450.6491673507
10
1273481.1769789685
20
444450.9473082167
10
1273481.9254651763
20
444451.3289133823
10
1273482.5814336573
20
444451.6949005252
10
1273483.1448844117
20
444452.0452696454
10
1273483.615817439
20
444452.3800207429
10
1273483.99423274
20
444452.69915381755
10
1273484.3705619422
20
444453.02639565076
10
1273484.7448050461
20
444453.3617462425
10
1273485.1169620515
20
444453.70520559273
10
1273485.4870329583
20
444454.0567737015
10
1273485.8543106006
20
444454.41967930784
10
1273486.2187949785
20
444454.7939224116
10
1273486.5804860918
20
444455.179503013
10
1273486.9393839403
20
444455.57642111194
10
1273487.3059544167
20
444455.9504865059
10
1273487.6801975204
20
444456.30169919506
10
1273488.0621132518
20
444456.6300591793
10
1273488.451701611
20
444456.9355664587
10
1273488.8743392602
20
444457.2754416503
10
1273489.330026199
20
444457.6496847541
10
1273489.8187624284
20
444458.0582957702
10
1273490.340547948
20
444458.50127469853
10
1273490.7885622594
20
444458.87588738784
10
1273491.1628053633
20
444459.1821338382
10
1273491.4632772594
20
444459.42001404957
10
1273491.6899779476
20
444459.58952802187
10
1273492.0435905245
20
444459.86140655994
10
1273492.52411499
20
444460.23564966384
10
1273493.131551344
20
444460.71225733345
10
1273493.8658995866
20
444461.2912295687
10
1273494.4201952599
20
444461.7286655501
10
1273494.7944383635
20
444462.0245652776
10
1273494.988628898
20
444462.1789287511
10
1273495.0027668632
20
444462.1917559707
10
1273495.200491889
20
444462.3488692896
10
1273495.5818039752
20
444462.6502687079
10
1273496.1467031222
20
444463.0959542255
10
1273496.8951893297
20
444463.6859258424
10
1273497.5034939207
20
444464.1648263979
10
1273497.971616895
20
444464.5326558919
10
1273498.2995582523
20
444464.78941432445
10
1273498.487317993
20
444464.9351016957
10
1273498.7683194154
20
444465.1882271203
10
1273499.1425625193
20
444465.5487905983
10
1273499.6100473045
20
444466.0167921299
10
1273500.1707737716
20
444466.592231715
10
1273500.652513539
20
444467.0670730594
10
1273501.0552666066
20
444467.4413161633
10
1273501.379032975
20
444467.7149610265
10
1273501.6238126443
20
444467.88800764905
10
1273501.9333240306
20
444468.20362627483
10
1273502.3075671345
20
444468.66181690386
10
1273502.7465419557
20
444469.262579536
10
1273503.2502484943
20
444470.00591417134
10
1273503.6289871638
20
444470.5647030409
10
1273503.8827579634
20
444470.9389461447
10
1273504.0115608936
20
444471.1286434828
10
1273504.0153959538
20
444471.1337950552
10
1273504.017313484
20
444471.13991144055
10
1273504.017313484
20
444471.1469926388
10
1273504.0153959538
20
444471.15503865003
10
1273504.0115608936
20
444471.1640494743
10
1273503.9219615515
20
444471.3556764383
10
1273503.746597928
20
444471.7299195421
10
1273503.485470023
20
444472.28677878575
10
1273503.1385778366
20
444473.02625416924
10
1273502.7780101914
20
444473.68258288066
10
1273502.4037670875
20
444474.25576492
10
1273502.0158485249
20
444474.74580028735
10
1273501.6142545035
20
444475.15268898266
10
1273501.2482580557
20
444475.5432548822
10
1273500.9178591813
20
444475.9174979861
10
1273500.6230578802
20
444476.2754182942
10
1273500.3638541526
20
444476.6170158065
10
1273500.0471307368
20
444477.0358501662
10
1273499.672887633
20
444477.5319213733
10
1273499.2411248412
20
444478.1052294277
10
1273498.7518423612
20
444478.7557743295
10
1273498.3671057192
20
444479.2681683323
10
1273498.0869149156
20
444479.6424114361
10
1273497.9112699497
20
444479.878503641
10
1273497.840170822
20
444479.97644494695
10
1273497.6193567412
20
444480.23702247825
10
1273497.2488277066
20
444480.660236235
10
1273496.7285837187
20
444481.24608621723
10
1273496.0586247772
20
444481.9945724249
10
1273495.5542985364
20
444482.557899339
10
1273495.2156049965
20
444482.93606695946
10
1273495.0425441572
20
444483.1290752864
10
1273495.0351160183
20
444483.13692431967
10
1273494.9127926044
20
444483.3279703882
10
1273494.6755739152
20
444483.70221349207
10
1273494.3234599507
20
444484.25965363113
10
1273493.856450711
20
444485.00029080553
10
1273493.435824539
20
444485.6510548448
10
1273493.0615814354
20
444486.2119457489
10
1273492.7337213997
20
444486.68296351796
10
1273492.4522444317
20
444487.0641081519
10
1273492.143715479
20
444487.44180202077
10
1273491.8081345418
20
444487.81604512455
10
1273491.4455016195
20
444488.1868374633
10
1273491.0558167128
20
444488.5541790371
10
1273490.6738527073
20
444488.89180927025
10
1273490.2996096034
20
444489.1997281627
10
1273489.933087401
20
444489.47793571453
10
1273489.5742861005
20
444489.72643192566
10
1273489.118063573
20
444489.9603476918
10
1273488.5644198188
20
444490.1796830129
10
1273487.9133548378
20
444490.3844378889
10
1273487.16486863
20
444490.57461231994
10
1273486.4163824222
20
444490.7393256448
10
1273485.6678962144
20
444490.8785778634
10
1273484.9194100068
20
444490.9923689758
10
1273484.1709237995
20
444491.0806989821
10
1273483.4384784815
20
444491.2023178766
10
1273482.7220740535
20
444491.35722565936
10
1273482.0217105153
20
444491.5454223304
10
1273481.3373878668
20
444491.7669078895
10
1273480.8081049907
20
444491.958236475
10
1273480.4338618868
20
444492.11940808664
10
1273480.2146585553
20
444492.2504227245
10
1273480.150494996
20
444492.3512803886
10
1273480.0612742864
20
444492.58883077255
10
1273479.9469964267
20
444492.9630738764
10
1273479.8076614165
20
444493.4740097001
10
1273479.6432692558
20
444494.1216382438
10
1273479.5357835414
20
444494.7944812034
10
1273479.4852042731
20
444495.49253857904
10
1273479.4915314508
20
444496.2158103707
10
1273479.5547650747
20
444496.9642965783
10
1273479.6274799267
20
444497.6119613878
10
1273479.7096760068
20
444498.15880479914
10
1273479.8013533154
20
444498.6048268123
10
1273479.9025118523
20
444498.9500274273
10
1273480.0046044984
20
444499.3097492866
10
1273480.107631254
20
444499.6839923904
10
1273480.2115921192
20
444500.0727567387
10
1273480.3164870935
20
444500.47604233143
10
1273480.4755539526
20
444500.9656280779
10
1273480.6887926967
20
444501.5415139781
10
1273480.9562033257
20
444502.203700032
10
1273481.277785839
20
444502.9521862397
10
1273481.5994749041
20
444503.65493061463
10
1273481.921270521
20
444504.3119331568
10
1273482.2431726889
20
444504.92319386627
10
1273482.5651814085
20
444505.488712743
10
1273482.8358214498
20
444505.95859373326
10
1273483.0550928125
20
444506.33283683704
10
1273483.2229954968
20
444506.61144205445
10
1273483.3395295031
20
444506.7944093854
10
1273483.5376666724
20
444507.1187564356
10
1273483.817407005
20
444507.5844832048
10
1273484.178750501
20
444508.1915896933
10
1273484.6216971602
20
444508.9400759011
10
1273485.0011585401
20
444509.5736572216
10
1273485.317134641
20
444510.092333655
10
1273485.5696254626
20
444510.4961052013
10
1273485.758631005
20
444510.7849718604
10
1273485.9982865427
20
444511.1165267419
10
1273486.2885920757
20
444511.4907698458
10
1273486.629547604
20
444511.90770117193
10
1273487.0211531275
20
444512.36732072046
10
1273487.4040774412
20
444512.819509723
10
1273487.778320545
20
444513.26426817954
10
1273488.143882439
20
444513.70159609016
10
1273488.5007631232
20
444514.1314934548
10
1273488.8745596735
20
444514.5335636891
10
1273489.2652720897
20
444514.90780679294
10
1273489.6729003724
20
444515.2542227664
10
1273490.097444521
20
444515.57281160937
0
LWPOLYLINE
5
3A
330
C
100
AcDbEntity
8
C-TOPO-MAJR-E
100
AcDbPolyline
90
12
70
0
43
0
38
0
39
0
10
1273496.826804961
20
444515.6327176272
10
1273497.1812585343
20
444515.07052617904
10
1273497.515922577
20
444514.41708038247
10
1273497.9540421609
20
444513.9630505198
10
1273498.4956172863
20
444513.7084365911
10
1273499.140647953
20
444513.6532385964
10
1273499.8891341602
20
444513.7974565357
10
1273500.4597481373
20
444514.03292695445
10
1273500.8524898835
20
444514.35964985273
10
1273501.067359399
20
444514.77762523055
10
1273501.1043566836
20
444515.28685308783
10
1273501.122855326
20
444515.691303069
0
LWPOLYLINE
5
3B
330
C
100
AcDbEntity
8
C-TOPO-MAJR-E
100
AcDbPolyline
90
402
70
0
43
0
38
0
39
0
10
1273490.6199762183
20
444356.2488895364
10
1273490.7907196735
20
444356.9973757441
10
1273490.9268686613
20
444357.7458619517
10
1273491.0284231808
20
444358.4943481594
10
1273491.0953832325
20
444359.2428343671
10
1273491.1518790352
20
444359.9913205748
10
1273491.197910589
20
444360.73980678234
10
1273491.2334778938
20
444361.48829299
10
1273491.2585809492
20
444362.2367791978
10
1273491.3219714228
20
444362.9852654055
10
1273491.4236493139
20
444363.73375161306
10
1273491.563614623
20
444364.48223782075
10
1273491.7418673495
20
444365.2307240284
10
1273491.8768558032
20
444365.79451871983
10
1273491.9685799843
20
444366.17362189485
10
1273492.0170398923
20
444366.36803355365
10
1273492.0222355272
20
444366.3777536962
10
1273492.1365401673
20
444366.56973531935
10
1273492.3599538119
20
444366.94397842314
10
1273492.6924764614
20
444367.50048300764
10
1273493.1341081157
20
444368.23924907285
10
1273493.5420454945
20
444368.87393559306
10
1273493.9162885984
20
444369.40454256843
10
1273494.2568374272
20
444369.8310699989
10
1273494.5636919807
20
444370.15351788444
10
1273494.932404363
20
444370.50186337915
10
1273495.3629745743
20
444370.87610648293
10
1273495.8554026145
20
444371.2762471959
10
1273496.4096884835
20
444371.70228551805
10
1273496.87395297
20
444372.06219828717
10
1273497.2481960738
20
444372.3559855033
10
1273497.5324177952
20
444372.5836471663
10
1273497.7266181335
20
444372.74518327636
10
1273498.045312055
20
444373.0130728833
10
1273498.488499559
20
444373.3873159871
10
1273499.0561806457
20
444373.8679125878
10
1273499.7483553155
20
444374.4548626855
10
1273500.2815642022
20
444374.90800696297
10
1273500.655807306
20
444375.2273454201
10
1273500.871084627
20
444375.4128780571
10
1273500.927396165
20
444375.4646048739
10
1273501.1567513705
20
444375.641060384
10
1273501.5591502432
20
444375.94224458735
10
1273502.1345927836
20
444376.368157484
10
1273502.883078991
20
444376.91879907396
10
1273503.4901686371
20
444377.3683097167
10
1273503.9558617212
20
444377.716689412
10
1273504.2801582438
20
444377.9639381602
10
1273504.4630582046
20
444378.1100559612
10
1273504.741629737
20
444378.3541202904
10
1273505.1158728409
20
444378.6961311477
10
1273505.5857875163
20
444379.13608853327
10
1273506.151373763
20
444379.6739924471
10
1273506.6302388243
20
444380.1300659559
10
1273507.0223827
20
444380.50430905976
10
1273507.3278053897
20
444380.7967217586
10
1273507.5465068934
20
444381.0073040525
10
1273507.8429791974
20
444381.301129826
10
1273508.2172223013
20
444381.6781990791
10
1273508.669236205
20
444382.1385118119
10
1273509.1990209087
20
444382.68206802424
10
1273509.6570946723
20
444383.14096768235
10
1273510.043457496
20
444383.5152107862
10
1273510.3581093792
20
444383.80479733576
10
1273510.6010503226
20
444384.00972733105
10
1273510.9096423462
20
444384.3014205267
10
1273511.28388545
20
444384.6798769227
10
1273511.723779634
20
444385.145096519
10
1273512.2293248982
20
444385.6970793156
10
1273512.6580784498
20
444386.1601922658
10
1273513.0100402888
20
444386.53443536966
10
1273513.2852104148
20
444386.8198086271
10
1273513.4835888282
20
444387.0163120381
10
1273513.769899587
20
444387.33092783653
10
1273514.1441426906
20
444387.7636560222
10
1273514.6063181397
20
444388.3144965953
10
1273515.156425934
20
444388.9834495557
10
1273515.5926389622
20
444389.5050475878
10
1273515.9149572242
20
444389.8792906917
10
1273516.1233807201
20
444390.1061788672
10
1273516.2179094497
20
444390.18571211444
10
1273516.4229682893
20
444390.43248360185
10
1273516.7385572386
20
444390.84649332927
10
1273517.1646762975
20
444391.4277412968
10
1273517.701325466
20
444392.1762275045
10
1273518.1331394196
20
444392.86013019737
10
1273518.4601181585
20
444393.4794493754
10
1273518.6822616826
20
444394.0341850387
10
1273518.7995699919
20
444394.5243371872
10
1273518.9044201805
20
444394.9565348134
10
1273518.9968122484
20
444395.33077791723
10
1273519.0767461956
20
444395.64706649876
10
1273519.144222022
20
444395.9054005579
10
1273519.1779599353
20
444396.16882044164
10
1273519.1779599353
20
444396.43732614984
10
1273519.144222022
20
444396.7109176825
10
1273519.0767461956
20
444396.9895950397
10
1273518.9939251435
20
444397.3160552702
10
1273518.8957588659
20
444397.69029837404
10
1273518.782247363
20
444398.1123243512
10
1273518.6533906346
20
444398.5821332017
10
1273518.5200015837
20
444399.1216113915
10
1273518.3820802104
20
444399.7307589205
10
1273518.239626515
20
444400.4095757889
10
1273518.0926404973
20
444401.1580619966
10
1273517.947983683
20
444401.9065482043
10
1273517.8056560725
20
444402.65503441193
10
1273517.665657665
20
444403.4035206196
10
1273517.5279884608
20
444404.15200682724
10
1273517.3409929937
20
444404.87619234156
10
1273517.104671263
20
444405.57607716264
10
1273516.8190232688
20
444406.2516612903
10
1273516.4840490115
20
444406.9029447247
10
1273516.212507092
20
444407.41570799384
10
1273516.00439751
20
444407.7899510976
10
1273515.859720266
20
444408.02567403624
10
1273515.7784753595
20
444408.12287680956
10
1273515.5507313546
20
444408.36735036824
10
1273515.176488251
20
444408.7590947123
10
1273514.6557460483
20
444409.2981098418
10
1273513.9885047467
20
444409.9843957568
10
1273513.4441986727
20
444410.5146602662
10
1273513.0228278257
20
444410.88890337
10
1273512.7243922062
20
444411.1071250683
10
1273512.548891814
20
444411.169325361
10
1273512.2740200658
20
444411.3139641639
10
1273511.8997769621
20
444411.541041477
10
1273511.4261625025
20
444411.85055730015
10
1273510.8531766871
20
444412.24251163355
10
1273510.2363157738
20
444412.4706187807
10
1273509.575579762
20
444412.5348787417
10
1273508.8709686524
20
444412.4352915166
10
1273508.1224824446
20
444412.17185710534
10
1273507.5127371252
20
444411.9421513163
10
1273507.041732694
20
444411.7461741496
10
1273506.7094691508
20
444411.5839256053
10
1273506.5159464956
20
444411.4554056832
10
1273506.2320636162
20
444411.30310029443
10
1273505.8578205123
20
444411.12700943905
10
1273505.393217184
20
444410.9271331169
10
1273504.8382536315
20
444410.703471328
10
1273504.3117086
20
444410.4045188817
10
1273503.8135820895
20
444410.0302757778
10
1273503.3438741
20
444409.5807420165
10
1273502.9025846317
20
444409.05591759767
10
1273502.4948183456
20
444408.4999831219
10
1273502.1205752417
20
444407.9129385891
10
1273501.7798553202
20
444407.2947839994
10
1273501.4726585806
20
444406.6455193528
10
1273501.2349603572
20
444406.13376547757
10
1273501.06676065
20
444405.7595223737
10
1273500.968059458
20
444405.5227900413
10
1273500.938856782
20
444405.4235684803
10
1273500.7371338923
20
444405.2302911646
10
1273500.3628907884
20
444404.9429580943
10
1273499.8161274705
20
444404.56156926934
10
1273499.0968439388
20
444404.08612468967
10
1273498.370259738
20
444403.71230989904
10
1273497.6363748682
20
444403.44012489734
10
1273496.8951893295
20
444403.2695696847
10
1273496.1467031222
20
444403.200644261
10
1273495.3982169144
20
444403.2497736101
10
1273494.6497307068
20
444403.4169577318
10
1273493.9012444993
20
444403.7021966262
10
1273493.1527582915
20
444404.10549029335
10
1273492.5596914955
20
444404.44322962774
10
1273492.1220441114
20
444404.71541462943
10
1273491.8398161388
20
444404.9220452983
10
1273491.7130075782
20
444405.06312163454
10
1273491.5183090451
20
444405.3560504386
10
1273491.2557205397
20
444405.8008317105
10
1273490.9252420622
20
444406.3974654503
10
1273490.5268736118
20
444407.1459516579
10
1273490.1722699753
20
444407.8401560834
10
1273489.8614311516
20
444408.48007872666
10
1273489.5943571415
20
444409.0657195878
10
1273489.3710479448
20
444409.5970786667
10
1273489.185205782
20
444410.04987975804
10
1273489.036830654
20
444410.4241228619
10
1273488.9259225598
20
444410.71980797814
10
1273488.8524815
20
444410.93693510693
10
1273488.7699634223
20
444411.28690200543
10
1273488.6783683272
20
444411.7697086737
10
1273488.577696214
20
444412.3853551116
10
1273488.467947083
20
444413.1338413193
10
1273488.388534606
20
444413.882327527
10
1273488.3394587832
20
444414.63081373466
10
1273488.320719614
20
444415.37929994235
10
1273488.3323170987
20
444416.12778615
10
1273488.2871122763
20
444416.8762723577
10
1273488.1851051466
20
444417.62475856533
10
1273488.02629571
20
444418.373244773
10
1273487.8106839657
20
444419.1217309807
10
1273487.5586547183
20
444419.84188967245
10
1273487.2702079674
20
444420.53372084827
10
1273486.945343713
20
444421.19722450816
10
1273486.584061955
20
444421.83240065223
10
1273486.3011599304
20
444422.33711027616
10
1273486.0966376385
20
444422.71135338
10
1273485.9704950796
20
444422.95512996375
10
1273485.922732254
20
444423.06844002736
10
1273485.858751336
20
444423.340544127
10
1273485.778552326
20
444423.77144226263
10
1273485.682135224
20
444424.3611344343
10
1273485.5695000303
20
444425.109620642
10
1273485.4836895098
20
444425.85810684966
10
1273485.4247036627
20
444426.60659305734
10
1273485.392542489
20
444427.355079265
10
1273485.3872059889
20
444428.1035654727
10
1273485.3947932904
20
444428.8520516804
10
1273485.4153043937
20
444429.600537888
10
1273485.448739299
20
444430.3490240957
10
1273485.495098006
20
444431.0975103034
10
1273485.5597109897
20
444431.72316089086
10
1273485.6425782498
20
444432.22597585805
10
1273485.7436997863
20
444432.60595520504
10
1273485.863075599
20
444432.8630989318
10
1273486.0502366158
20
444433.1787923471
10
1273486.305182837
20
444433.553035451
10
1273486.6279142615
20
444433.9858282433
10
1273487.0184308903
20
444434.47717072425
10
1273487.4008107565
20
444434.9047129905
10
1273487.7750538604
20
444435.26845504215
10
1273488.1411602017
20
444435.5683968792
10
1273488.4991297808
20
444435.80453850154
10
1273488.954728517
20
444436.08276504447
10
1273489.5079564103
20
444436.4030765079
10
1273490.158813461
20
444436.76547289186
10
1273490.9072996683
20
444437.16995419626
10
1273491.5080087876
20
444437.5002809948
10
1273491.9609408188
20
444437.7564532875
10
1273492.2660957614
20
444437.9384710742
10
1273492.423473616
20
444438.046334355
10
1273492.689284095
20
444438.17715011805
10
1273493.0635271987
20
444438.33091836324
10
1273493.5462029274
20
444438.50763909065
10
1273494.1373112807
20
444438.70731230034
10
1273494.7677640975
20
444438.931260165
10
1273495.437561378
20
444439.1794826847
10
1273496.1467031222
20
444439.4519798595
10
1273496.8951893297
20
444439.7487516894
10
1273497.6436755373
20
444440.0065404365
10
1273498.392161745
20
444440.22534610075
10
1273499.140647953
20
444440.4051686822
10
1273499.8891341602
20
444440.5460081809
10
1273500.637620368
20
444440.6210613023
10
1273501.3861065758
20
444440.6303280465
10
1273502.1345927836
20
444440.5738084135
10
1273502.883078991
20
444440.45150240324
10
1273503.6315651988
20
444440.34511055134
10
1273504.3800514066
20
444440.25463285774
10
1273505.1285376144
20
444440.18006932246
10
1273505.8770238217
20
444440.12141994556
10
1273506.6255100295
20
444440.13249765383
10
1273507.3739962373
20
444440.21330244734
10
1273508.122482445
20
444440.3638343261
10
1273508.8709686524
20
444440.58409329003
10
1273509.454724603
20
444440.7672620362
10
1273509.8737502964
20
444440.9133405646
10
1273510.1280457329
20
444441.02232887514
10
1273510.2176109117
20
444441.09422696783
10
1273510.449515053
20
444441.2317562258
10
1273510.823758157
20
444441.4349166491
10
1273511.3403402232
20
444441.7037082375
10
1273511.9992612517
20
444442.0381309912
10
1273512.6399306515
20
444442.39246392
10
1273513.2623484232
20
444442.76670702384
10
1273513.8665145661
20
444443.1608603027
10
1273514.4524290806
20
444443.5749237567
10
1273514.9325078898
20
444443.9099218197
10
1273515.3067509937
20
444444.1658544916
10
1273515.5751583923
20
444444.3427217726
10
1273515.7377300856
20
444444.4405236626
10
1273516.0467804074
20
444444.6562442985
10
1273516.502309358
20
444444.98988368036
10
1273517.104316937
20
444445.44144180807
10
1273517.8528031444
20
444446.0109186817
10
1273518.4321193215
20
444446.4583281979
10
1273518.8422654686
20
444446.78367035673
10
1273519.083241585
20
444446.98694515816
10
1273519.1550476707
20
444447.06815260224
10
1273519.3158561524
20
444447.3161797372
10
1273519.5656670302
20
444447.73102656304
10
1273519.9044803034
20
444448.3126930798
10
1273520.3322959724
20
444449.0611792875
10
1273520.6500348535
20
444449.8096654952
10
1273520.8576969462
20
444450.55815170275
10
1273520.955282251
20
444451.3066379104
10
1273520.9427907674
20
444452.0551241181
10
1273520.9104172227
20
444452.8036103258
10
1273520.8581616166
20
444453.5520965334
10
1273520.7860239495
20
444454.3005827411
10
1273520.6940042214
20
444455.0490689488
10
1273520.5863543632
20
444455.79755515646
10
1273520.4630743759
20
444456.5460413641
10
1273520.3241642585
20
444457.29452757176
10
1273520.1696240115
20
444458.0430137795
10
1273520.017941624
20
444458.7914999872
10
1273519.8691170956
20
444459.5399861948
10
1273519.7231504265
20
444460.2884724025
10
1273519.5800416167
20
444461.0369586102
10
1273519.4483446376
20
444461.75087587
10
1273519.3280594896
20
444462.430224182
10
1273519.2191861724
20
444463.0750035462
10
1273519.1217246857
20
444463.6852139625
10
1273519.039560261
20
444464.1774407226
10
1273518.972692898
20
444464.5516838265
10
1273518.9211225968
20
444464.80794327403
10
1273518.8848493572
20
444464.94621906534
10
1273518.814021778
20
444465.23704746075
10
1273518.7086398595
20
444465.68042846036
10
1273518.568703601
20
444466.2763620639
10
1273518.3942130024
20
444467.0248482715
10
1273518.2552199964
20
444467.7733344792
10
1273518.1517245823
20
444468.5218206868
10
1273518.0837267605
20
444469.2703068945
10
1273518.0512265302
20
444470.01879310224
10
1273518.0746529228
20
444470.7672793099
10
1273518.154005938
20
444471.51576551754
10
1273518.2892855757
20
444472.2642517252
10
1273518.4804918359
20
444473.0127379329
10
1273518.636910983
20
444473.5971837806
10
1273518.7585430169
20
444474.01758926845
10
1273518.8453879375
20
444474.27395439637
10
1273518.8974457448
20
444474.36627916433
10
1273519.0160794025
20
444474.59956310026
10
1273519.2012889106
20
444474.97380620416
10
1273519.4530742692
20
444475.4890084759
10
1273519.771435478
20
444476.1451699155
10
1273520.117737634
20
444476.76954159257
10
1273520.491980738
20
444477.362123507
10
1273520.8941647895
20
444477.9229156588
10
1273521.3242897885
20
444478.4519180479
10
1273521.6940739793
20
444478.9035407944
10
1273522.0035173618
20
444479.2777838982
10
1273522.2526199361
20
444479.57464735943
10
1273522.4413817022
20
444479.79413117794
10
1273522.7228841372
20
444480.1219185454
10
1273523.097127241
20
444480.55800946185
10
1273523.5641110137
20
444481.1024039271
10
1273524.1238354552
20
444481.7551019413
10
1273524.558129381
20
444482.2685725003
10
1273524.8669927912
20
444482.6428156042
10
1273525.0504256852
20
444482.8778312529
10
1273525.1084280638
20
444482.9736194462
10
1273525.170870823
20
444483.2325821432
10
1273525.2377539633
20
444483.65471934376
10
1273525.3090774843
20
444484.2400310479
10
1273525.3848413862
20
444484.9885172556
10
1273525.4240976847
20
444485.73700346326
10
1273525.42684638
20
444486.4854896709
10
1273525.393087472
20
444487.23397587857
10
1273525.3228209603
20
444487.9824620863
10
1273525.2542461345
20
444488.5794209928
10
1273525.1873629945
20
444489.02485259814
10
1273525.1221715398
20
444489.3187569023
10
1273525.0586717709
20
444489.4611339052
10
1273524.8941831512
20
444489.7194439586
10
1273524.6287056808
20
444490.0936870625
10
1273524.26223936
20
444490.58386321674
10
1273523.7947841885
20
444491.1899724214
10
1273523.3739350508
20
444491.7424454571
10
1273522.9996919471
20
444492.2412823238
10
1273522.672054877
20
444492.6864830215
10
1273522.391023841
20
444493.0780475501
10
1273522.1096212044
20
444493.46095136635
10
1273521.8278469676
20
444493.83519447024
10
1273521.54570113
20
444494.20077686163
10
1273521.2631836918
20
444494.5576985407
10
1273520.9443103743
20
444495.01251135184
10
1273520.5890811777
20
444495.5652152952
10
1273520.1974961013
20
444496.2158103707
10
1273519.7695551454
20
444496.9642965783
10
1273519.439092475
20
444497.5459841548
10
1273519.2061080902
20
444497.9608731
10
1273519.070601991
20
444498.208963414
10
1273519.0325741768
20
444498.29025509686
10
1273518.9171848733
20
444498.5180224902
10
1273518.7244340798
20
444498.892265594
10
1273518.4543217968
20
444499.4129844083
10
1273518.1068480238
20
444500.0801789332
10
1273517.8041887137
20
444500.7676963788
10
1273517.5463438663
20
444501.47553674504
10
1273517.3333134814
20
444502.203700032
10
1273517.1650975589
20
444502.9521862397
10
1273517.027542733
20
444503.7006724474
10
1273516.920649003
20
444504.449158655
10
1273516.8444163692
20
444505.1976448627
10
1273516.798844831
20
444505.9461310704
10
1273516.7669546492
20
444506.69461727806
10
1273516.748745823
20
444507.4431034856
10
1273516.7442183527
20
444508.1915896933
10
1273516.7533722385
20
444508.9400759011
10
1273516.7710705767
20
444509.6885621088
10
1273516.7973133675
20
444510.43704831635
10
1273516.8321006107
20
444511.18553452403
10
1273516.8754323064
20
444511.9340207317
10
1273516.8940477795
20
444512.6825069394
10
1273516.88794703
20
444513.430993147
10
1273516.8571300572
20
444514.1794793547
10
1273516.801596862
20
444514.9279655624
10
1273516.7139026253
20
444515.65967188764
0
LWPOLYLINE
5
3C
330
C
100
AcDbEntity
8
C-TOPO-MAJR-E
100
AcDbPolyline
90
330
70
0
43
0
38
0
39
0
10
1273499.8610155554
20
444356.2488895364
10
1273499.6826048116
20
444356.9973757441
10
1273499.5281587308
20
444357.7458619517
10
1273499.3976773124
20
444358.4943481594
10
1273499.291160557
20
444359.2428343671
10
1273499.2348199126
20
444359.9913205748
10
1273499.2286553795
20
444360.73980678234
10
1273499.2726669575
20
444361.48829299
10
1273499.366854647
20
444362.2367791978
10
1273499.5314783696
20
444362.9598389962
10
1273499.7665381255
20
444363.6574723852
10
1273500.0720339147
20
444364.32967936504
10
1273500.447965738
20
444364.97645993554
10
1273500.7473316197
20
444365.48697177274
10
1273500.970131561
20
444365.8612148765
10
1273501.1163655613
20
444366.099189247
10
1273501.1860336205
20
444366.2008948842
10
1273501.404338907
20
444366.464295664
10
1273501.7712814207
20
444366.88939158636
10
1273502.286861162
20
444367.4761826514
10
1273502.9510781306
20
444368.2246688591
10
1273503.452891152
20
444368.7892898112
10
1273503.792300226
20
444369.1700455077
10
1273503.969305353
20
444369.3669359487
10
1273503.9839065329
20
444369.3799611341
10
1273504.1819789698
20
444369.55589474144
10
1273504.5635226634
20
444369.89473677066
10
1273505.1285376144
20
444370.39648722176
10
1273505.8770238217
20
444371.0611460948
10
1273506.4522075618
20
444371.57734078687
10
1273506.8540888345
20
444371.945071298
10
1273507.0826676395
20
444372.1643376282
10
1273507.1379439766
20
444372.2351397774
10
1273507.3479770643
20
444372.4753629413
10
1273507.7127669028
20
444372.88500711974
10
1273508.2323134919
20
444373.4640723128
10
1273508.9066168312
20
444374.21255852043
10
1273509.4170709685
20
444374.7785627551
10
1273509.763675904
20
444375.1620850167
10
1273509.9464316368
20
444375.3631253054
10
1273509.9653381677
20
444375.38168362103
10
1273510.1558646618
20
444375.5780843308
10
1273510.518011119
20
444375.9523274346
10
1273511.0517775393
20
444376.50441293255
10
1273511.7571639228
20
444377.23434082454
10
1273512.2969786664
20
444377.7913712257
10
1273512.6712217703
20
444378.17550413596
10
1273512.8798932342
20
444378.38673955534
10
1273512.922993058
20
444378.42507748393
10
1273513.142439478
20
444378.62329200393
10
1273513.5382324941
20
444378.98138311534
10
1273514.110372106
20
444379.49935081834
10
1273514.8588583139
20
444380.1771951128
10
1273515.4285316085
20
444380.6936543298
10
1273515.8193919905
20
444381.0487284694
10
1273516.0314394592
20
444381.24241753155
10
1273516.064674015
20
444381.27472151624
10
1273516.2684128447
20
444381.46696138603
10
1273516.6426559486
20
444381.819137141
10
1273517.1874033264
20
444382.33124878095
10
1273517.9026549784
20
444383.003296306
10
1273518.4592321336
20
444383.5264416205
10
1273518.857134792
20
444383.9006847243
10
1273519.096362954
20
444384.1260256176
10
1273519.1769166195
20
444384.20246430015
10
1273519.4043150041
20
444384.3899127897
10
1273519.778558108
20
444384.6883710863
10
1273520.299645931
20
444385.0978391898
10
1273520.9675784733
20
444385.6183171001
10
1273521.539998745
20
444386.06567760726
10
1273522.0169067464
20
444386.4399207111
10
1273522.398302477
20
444386.7410464117
10
1273522.6841859368
20
444386.9690547089
10
1273523.0142492189
20
444387.22701272165
10
1273523.3884923228
20
444387.51492044993
10
1273523.8069152485
20
444387.83277789375
10
1273524.269517996
20
444388.1805850531
10
1273524.7492658738
20
444388.5416101847
10
1273525.246158882
20
444388.9158532885
10
1273525.7601970201
20
444389.3033143646
10
1273526.2913802888
20
444389.7039934129
10
1273526.744093475
20
444390.0502461758
10
1273527.1183365788
20
444390.34207265323
10
1273527.4141096002
20
444390.5794728453
10
1273527.6314125392
20
444390.7624467519
10
1273527.9729206492
20
444391.0410552571
10
1273528.4386339297
20
444391.41529836087
10
1273529.028552381
20
444391.88517606334
10
1273529.7426760031
20
444392.4506883644
10
1273530.286859366
20
444392.8833303088
10
1273530.66110247
20
444393.18310189643
10
1273530.8654053146
20
444393.3500031274
10
1273530.8997679004
20
444393.38403400173
10
1273531.0820999194
20
444393.5881709908
10
1273531.4124013723
20
444393.9624140946
10
1273531.890672259
20
444394.5067633132
10
1273532.516912579
20
444395.2212186466
10
1273533.0171542913
20
444395.7940577421
10
1273533.3913973952
20
444396.22528059955
10
1273533.6396418908
20
444396.51488721906
10
1273533.761887778
20
444396.66287760064
10
1273533.98289424
20
444396.9239943434
10
1273534.3026612757
20
444397.29823744716
10
1273534.7211888859
20
444397.78560691216
10
1273535.2384770704
20
444398.3861027382
10
1273535.6842427142
20
444398.9152789158
10
1273536.058485818
20
444399.37313544477
10
1273536.3612063818
20
444399.7596723252
10
1273536.5924044051
20
444400.0748895572
10
1273536.8229111952
20
444400.4196197251
10
1273537.0527267517
20
444400.79386282887
10
1273537.281851075
20
444401.19761886867
10
1273537.5102841647
20
444401.6308878445
10
1273537.6854431261
20
444402.1429611282
10
1273537.8073279588
20
444402.7338387199
10
1273537.8759386633
20
444403.4035206196
10
1273537.8912752392
20
444404.15200682724
10
1273537.8682675115
20
444404.90049303486
10
1273537.8069154802
20
444405.64897924266
10
1273537.707219145
20
444406.3974654503
10
1273537.5691785063
20
444407.1459516579
10
1273537.4523838705
20
444407.8944378656
10
1273537.356835238
20
444408.6429240732
10
1273537.2825326086
20
444409.3914102809
10
1273537.2294759825
20
444410.13989648863
10
1273537.2740473347
20
444410.8883826963
10
1273537.4162466654
20
444411.63686890394
10
1273537.6560739744
20
444412.3853551116
10
1273537.9935292616
20
444413.1338413193
10
1273538.336210357
20
444413.80626805674
10
1273538.6841172604
20
444414.4026353239
10
1273539.037249972
20
444414.9229431207
10
1273539.3956084915
20
444415.36719144735
10
1273539.7037676559
20
444415.77643716254
10
1273539.961727465
20
444416.1506802663
10
1273540.1694879192
20
444416.4899207588
10
1273540.327049018
20
444416.7941586399
10
1273540.4663612014
20
444417.20945860265
10
1273540.587424469
20
444417.735820647
10
1273540.690238821
20
444418.373244773
10
1273540.7748042578
20
444419.1217309807
10
1273540.7776967012
20
444419.8346680773
10
1273540.6989161521
20
444420.5120560627
10
1273540.5384626095
20
444421.15389493713
10
1273540.296336074
20
444421.7601847005
10
1273540.0828264072
20
444422.25045113405
10
1273539.8979336089
20
444422.62469423783
10
1273539.7416576794
20
444422.88291401195
10
1273539.613998619
20
444423.0251104563
10
1273539.3630475365
20
444423.2509790438
10
1273538.9888044326
20
444423.56051977456
10
1273538.4912693072
20
444423.95373264846
10
1273537.8704421604
20
444424.4306176656
10
1273537.2177002484
20
444424.8283172364
10
1273536.533043571
20
444425.1468313608
10
1273535.8164721285
20
444425.38616003894
10
1273535.0679859212
20
444425.54630327073
10
1273534.3194997134
20
444425.64230043313
10
1273533.5710135056
20
444425.67415152624
10
1273532.8225272978
20
444425.64185654995
10
1273532.0740410904
20
444425.54541550425
10
1273531.3255548826
20
444425.48449546995
10
1273530.5770686748
20
444425.459096447
10
1273529.828582467
20
444425.46921843535
10
1273529.0800962597
20
444425.514861435
10
1273528.4555688342
20
444425.58965768595
10
1273527.955000191
20
444425.6936071881
10
1273527.57839033
20
444425.8267099416
10
1273527.3257392512
20
444425.98896594637
10
1273527.01229216
20
444426.2490864787
10
1273526.6380490563
20
444426.6070715388
10
1273526.2030099398
20
444427.0629211266
10
1273525.7071748108
20
444427.616635242
10
1273525.3088457598
20
444428.08061385166
10
1273525.0080227866
20
444428.45485695545
10
1273524.8047058913
20
444428.73936455353
10
1273524.698895074
20
444428.93413664575
10
1273524.5462324193
20
444429.2673372669
10
1273524.3467179271
20
444429.73896641686
10
1273524.1003515976
20
444430.3490240957
10
1273523.8071334308
20
444431.0975103034
10
1273523.572401849
20
444431.8459965111
10
1273523.3961568526
20
444432.59448271873
10
1273523.2783984414
20
444433.3429689264
10
1273523.2191266152
20
444434.09145513404
10
1273523.2440752978
20
444434.83994134166
10
1273523.3532444888
20
444435.58842754946
10
1273523.5466341886
20
444436.3369137571
10
1273523.824244397
20
444437.0853999647
10
1273524.0776247038
20
444437.71699748083
10
1273524.306775109
20
444438.23170630535
10
1273524.5116956125
20
444438.62952643837
10
1273524.6923862144
20
444438.91045787977
10
1273524.9068587027
20
444439.2380451524
10
1273525.155113077
20
444439.61228825623
10
1273525.4371493377
20
444440.03318719123
10
1273525.7529674845
20
444440.50074195757
10
1273526.076984135
20
444441.0385295842
10
1273526.4091992888
20
444441.6465500711
10
1273526.7496129465
20
444442.3248034184
10
1273527.0982251079
20
444443.0732896261
10
1273527.3806982036
20
444443.7040439328
10
1273527.5970322338
20
444444.21706633846
10
1273527.747227199
20
444444.61235684314
10
1273527.8312830986
20
444444.88991544687
10
1273527.91597175
20
444445.21581630065
10
1273528.0012931533
20
444445.59005940444
10
1273528.0872473083
20
444446.01264475833
10
1273528.1738342152
20
444446.4835723624
10
1273528.2171276687
20
444446.99338746275
10
1273528.2171276687
20
444447.5420900594
10
1273528.1738342152
20
444448.1296801525
10
1273528.0872473083
20
444448.756157742
10
1273528.018131277
20
444449.25651808863
10
1273527.966486121
20
444449.63076119253
10
1273527.9323118406
20
444449.8788870535
10
1273527.9156084354
20
444450.00089567166
10
1273527.8491836723
20
444450.2795236872
10
1273527.7330375507
20
444450.71477110015
10
1273527.5671700712
20
444451.3066379104
10
1273527.3515812333
20
444452.0551241181
10
1273527.161876576
20
444452.8036103258
10
1273526.998056099
20
444453.5520965334
10
1273526.8601198029
20
444454.3005827411
10
1273526.7480676873
20
444455.0490689488
10
1273526.6279157118
20
444455.79755515646
10
1273526.4996638768
20
444456.5460413641
10
1273526.363312182
20
444457.29452757176
10
1273526.2188606274
20
444458.0430137795
10
1273526.0517561152
20
444458.7914999872
10
1273525.8619986451
20
444459.5399861948
10
1273525.6495882175
20
444460.2884724025
10
1273525.4145248323
20
444461.0369586102
10
1273525.2320705662
20
444461.61862666334
10
1273525.1022254187
20
444462.033476562
10
1273525.0249893905
20
444462.28150830604
10
1273525.0003624812
20
444462.36272189557
10
1273524.9350817502
20
444462.5904502423
10
1273524.829147197
20
444462.96469334606
10
1273524.6825588222
20
444463.4854512071
10
1273524.4953166256
20
444464.1527238252
10
1273524.3230586832
20
444464.84029984067
10
1273524.1657849953
20
444465.54817925364
10
1273524.023495562
20
444466.2763620639
10
1273523.8961903828
20
444467.0248482715
10
1273523.7919624287
20
444467.7733344792
10
1273523.7108116995
20
444468.5218206868
10
1273523.6527381951
20
444469.2703068945
10
1273523.6177419159
20
444470.01879310224
10
1273523.6262885788
20
444470.7672793099
10
1273523.6783781848
20
444471.51576551754
10
1273523.7740107328
20
444472.2642517252
10
1273523.9131862232
20
444473.0127379329
10
1273524.0701598823
20
444473.6659898014
10
1273524.24493171
20
444474.2240073307
10
1273524.437501706
20
444474.68679052085
10
1273524.6478698705
20
444475.05433937185
10
1273524.8742935208
20
444475.4252353493
10
1273525.1167726568
20
444475.79947845306
10
1273525.3753072782
20
444476.1770686833
10
1273525.6498973854
20
444476.55800604005
10
1273525.974313991
20
444476.9581905197
10
1273526.3485570946
20
444477.37762212235
10
1273526.7726266969
20
444477.81630084803
10
1273527.2465227973
20
444478.2742266968
10
1273527.6584342222
20
444478.6903111731
10
1273528.0083609715
20
444479.0645542769
10
1273528.296303045
20
444479.3969560083
10
1273528.522260443
20
444479.6875163673
10
1273528.7435348302
20
444480.0925581885
10
1273528.9601262067
20
444480.6120814717
10
1273529.1720345726
20
444481.24608621723
10
1273529.3792599274
20
444481.9945724249
10
1273529.5398155446
20
444482.7430586326
10
1273529.653701424
20
444483.4915448402
10
1273529.720917565
20
444484.2400310479
10
1273529.7414639683
20
444484.9885172556
10
1273529.7615919353
20
444485.73700346326
10
1273529.7813014663
20
444486.4854896709
10
1273529.800592561
20
444487.23397587857
10
1273529.8194652193
20
444487.9824620863
10
1273529.8120658863
20
444488.730948294
10
1273529.7783945617
20
444489.4794345016
10
1273529.7184512457
20
444490.2279207093
10
1273529.632235938
20
444490.9764069169
10
1273529.5203006582
20
444491.72489312454
10
1273529.3826454058
20
444492.47337933234
10
1273529.2192701814
20
444493.22186554
10
1273529.0301749844
20
444493.9703517476
10
1273528.8514619046
20
444494.71883795527
10
1273528.6831309414
20
444495.46732416307
10
1273528.5251820954
20
444496.2158103707
10
1273528.3776153661
20
444496.9642965783
10
1273528.2545091743
20
444497.6602432912
10
1273528.155863519
20
444498.30365050916
10
1273528.081678401
20
444498.8945182324
10
1273528.0319538198
20
444499.4328464607
10
1273527.9865053417
20
444499.8891321268
10
1273527.9453329667
20
444500.26337523066
10
1273527.9084366949
20
444500.5555757722
10
1273527.8758165261
20
444500.7657337516
10
1273527.7916756964
20
444501.110473788
10
1273527.6560142057
20
444501.5897958814
10
1273527.468832054
20
444502.203700032
10
1273527.2301292412
20
444502.9521862397
10
1273526.9517382137
20
444503.7006724474
10
1273526.6336589712
20
444504.449158655
10
1273526.2758915136
20
444505.1976448627
10
1273525.8784358408
20
444505.9461310704
10
1273525.560417198
20
444506.5709536816
10
1273525.3218355852
20
444507.0721126965
10
1273525.1626910018
20
444507.449608115
10
1273525.0829834477
20
444507.7034399371
10
1273524.9922379493
20
444508.01747740014
10
1273524.890454506
20
444508.3917205039
10
1273524.777633118
20
444508.8261692486
10
1273524.6537737856
20
444509.32082363416
10
1273524.591727402
20
444509.87893597526
10
1273524.5914939675
20
444510.5005062719
10
1273524.6530734822
20
444511.18553452403
10
1273524.7764659463
20
444511.9340207317
10
1273524.8691270114
20
444512.49568053277
10
1273524.9310566778
20
444512.8705139272
10
1273524.9622549454
20
444513.0585209151
10
1273524.9627218142
20
444513.0597014964
10
1273525.0803857571
20
444513.2474133389
10
1273525.3152467743
20
444513.62165644276
10
1273525.6673048658
20
444514.1824308079
10
1273526.1365600314
20
444514.9297364343
10
1273526.5583091662
20
444515.587083403
0
LWPOLYLINE
5
3D
330
C
100
AcDbEntity
8
C-TOPO-MAJR-E
100
AcDbPolyline
90
326
70
0
43
0
38
0
39
0
10
1273512.0407178083
20
444356.2488895364
10
1273512.3177467398
20
444356.8920126795
10
1273512.5398486108
20
444357.42977275787
10
1273512.7070234208
20
444357.8621697716
10
1273512.8192711705
20
444358.18920372066
10
1273512.9443841407
20
444358.53984224715
10
1273513.082362332
20
444358.91408535093
10
1273513.2332057438
20
444359.3119330322
10
1273513.3969143769
20
444359.7333852907
10
1273513.5852501062
20
444360.2365960366
10
1273513.7982129317
20
444360.82156526967
10
1273514.0358028538
20
444361.48829299
10
1273514.2980198723
20
444362.2367791978
10
1273514.5742929352
20
444362.9852654055
10
1273514.864622043
20
444363.73375161306
10
1273515.1690071954
20
444364.48223782075
10
1273515.4874483922
20
444365.2307240284
10
1273515.72730913
20
444365.79409556475
10
1273515.888589408
20
444366.1723524296
10
1273515.9712892268
20
444366.36549462314
10
1273515.9754085862
20
444366.3735221453
10
1273516.0835853128
20
444366.56465745834
10
1273516.2958194069
20
444366.9389005622
10
1273516.612110868
20
444367.49625145685
10
1273517.0324596965
20
444368.23671014234
10
1273517.4297556626
20
444368.93738322763
10
1273517.8039987665
20
444369.5982707127
10
1273518.155189008
20
444370.21937259764
10
1273518.4833263871
20
444370.8006888823
10
1273518.7552123463
20
444371.27846857655
10
1273518.9708468858
20
444371.6527116804
10
1273519.1302300051
20
444371.9234181938
10
1273519.233361705
20
444372.09058811684
10
1273519.4265317232
20
444372.403087111
10
1273519.70974006
20
444372.8609151763
10
1273520.0829867157
20
444373.4640723128
10
1273520.54627169
20
444374.21255852043
10
1273520.9392528043
20
444374.83458697953
10
1273521.2619300582
20
444375.3301576902
10
1273521.5143034523
20
444375.69927065226
10
1273521.696372986
20
444375.9419258658
10
1273521.9164080173
20
444376.2503750245
10
1273522.1744085462
20
444376.6246181283
10
1273522.470374572
20
444377.0646551773
10
1273522.8043060955
20
444377.5704861714
10
1273523.158393409
20
444378.09315600677
10
1273523.532636513
20
444378.6326646835
10
1273523.927035407
20
444379.18901220144
10
1273524.3415900911
20
444379.7621985607
10
1273524.680441728
20
444380.2359132923
10
1273524.9435903176
20
444380.6101563961
10
1273525.1310358597
20
444380.8849278722
10
1273525.2427783548
20
444381.06022772065
10
1273525.4820855143
20
444381.3788241589
10
1273525.8489573388
20
444381.8407171869
10
1273526.3433938278
20
444382.4459068048
10
1273526.9653949817
20
444383.19439301256
10
1273527.435581487
20
444383.7587949887
10
1273527.753953343
20
444384.1391127332
10
1273527.9205105507
20
444384.3353462462
10
1273527.9352531098
20
444384.34749552765
10
1273528.1334315808
20
444384.5077055257
10
1273528.5150459642
20
444384.81597624056
10
1273529.0800962597
20
444385.27230767196
10
1273529.828582467
20
444385.87669982004
10
1273530.431175711
20
444386.3629801257
10
1273530.8878759914
20
444386.7311485887
10
1273531.1986833077
20
444386.9812052094
10
1273531.36359766
20
444387.11314998753
10
1273531.6331763882
20
444387.31918791245
10
1273532.0074194921
20
444387.5993189843
10
1273532.4863269716
20
444387.9535432029
10
1273533.069898827
20
444388.3818605683
10
1273533.5785932455
20
444388.783140803
10
1273534.0124102277
20
444389.15738390683
10
1273534.3713497734
20
444389.5045898799
10
1273534.6554118826
20
444389.824758722
10
1273534.9845644892
20
444390.21465521667
10
1273535.3588075931
20
444390.6742793638
10
1273535.7781411943
20
444391.20363116334
10
1273536.2425652926
20
444391.8027106153
10
1273536.616232805
20
444392.28937189316
10
1273536.8991437312
20
444392.66361499706
10
1273537.0912980714
20
444392.9254399268
10
1273537.1926958256
20
444393.0748466825
10
1273537.4210760407
20
444393.3740233012
10
1273537.7764387173
20
444393.82296978286
10
1273538.2587838545
20
444394.42168612755
10
1273538.8681114535
20
444395.17017233523
10
1273539.334547366
20
444395.7425552994
10
1273539.658091593
20
444396.13883502
10
1273539.8387441337
20
444396.3590114971
10
1273539.8765049884
20
444396.40308473073
10
1273540.0117207342
20
444396.61224289937
10
1273540.244391371
20
444396.98648600315
10
1273540.5745168987
20
444397.52581404214
10
1273541.002097317
20
444398.23022701626
10
1273541.3524173498
20
444398.94565829873
10
1273541.6254769966
20
444399.6721078896
10
1273541.8212762577
20
444400.4095757889
10
1273541.9398151333
20
444401.1580619966
10
1273542.0004947544
20
444401.9065482043
10
1273542.0033151214
20
444402.65503441193
10
1273541.9482762346
20
444403.4035206196
10
1273541.8353780936
20
444404.15200682724
10
1273541.7158479346
20
444404.90049303486
10
1273541.5896857576
20
444405.64897924266
10
1273541.4568915628
20
444406.3974654503
10
1273541.3174653496
20
444407.1459516579
10
1273541.2341258856
20
444407.8944378656
10
1273541.2068731706
20
444408.6429240732
10
1273541.2357072039
20
444409.3914102809
10
1273541.3206279862
20
444410.13989648863
10
1273541.4767611942
20
444410.84683773504
10
1273541.7041068282
20
444411.51223402016
10
1273542.0026648878
20
444412.136085344
10
1273542.3724353733
20
444412.7183917066
10
1273542.6758620176
20
444413.1966664398
10
1273542.9129448212
20
444413.57090954366
10
1273543.0836837837
20
444413.84112101817
10
1273543.188078905
20
444414.0073008632
10
1273543.3412884795
20
444414.31905729894
10
1273543.5433125072
20
444414.77639032534
10
1273543.794150988
20
444415.37929994235
10
1273544.0938039217
20
444416.12778615
10
1273544.3362570044
20
444416.8762723577
10
1273544.521510236
20
444417.62475856533
10
1273544.6495636161
20
444418.373244773
10
1273544.7204171447
20
444419.1217309807
10
1273544.7274996168
20
444419.8702171884
10
1273544.6708110317
20
444420.61870339594
10
1273544.55035139
20
444421.3671896036
10
1273544.3661206912
20
444422.1156758113
10
1273544.1552799458
20
444422.8240096713
10
1273543.9178291536
20
444423.4921911835
10
1273543.653768315
20
444424.120220348
10
1273543.3630974295
20
444424.70809716487
10
1273543.1198919513
20
444425.1891571252
10
1273542.9241518807
20
444425.563400229
10
1273542.7758772168
20
444425.83082647633
10
1273542.6750679608
20
444425.99143586715
10
1273542.4632842862
20
444426.2990144622
10
1273542.1405261932
20
444426.7535622615
10
1273541.7067936822
20
444427.355079265
10
1273541.1620867527
20
444428.1035654727
10
1273540.7278140502
20
444428.70107702265
10
1273540.4039755745
20
444429.1476139148
10
1273540.1905713258
20
444429.4431761493
10
1273540.0876013036
20
444429.58776372595
10
1273539.9052379474
20
444429.8471790662
10
1273539.6434812564
20
444430.22142217006
10
1273539.3023312313
20
444430.7104930374
10
1273538.8817878722
20
444431.3143916685
10
1273538.4843946407
20
444431.93259126623
10
1273538.1101515368
20
444432.56509183085
10
1273537.7590585607
20
444433.2118933622
10
1273537.4311157125
20
444433.8729958604
10
1273537.1753516083
20
444434.3906686614
10
1273536.9917662484
20
444434.7649117652
10
1273536.8803596324
20
444434.9957251719
10
1273536.8411317605
20
444435.0831088814
10
1273536.7635398894
20
444435.33576821536
10
1273536.6475840192
20
444435.75370317395
10
1273536.4932641496
20
444436.3369137571
10
1273536.300580281
20
444437.0853999647
10
1273536.1308314772
20
444437.8338861724
10
1273535.9840177384
20
444438.58237238
10
1273535.860139064
20
444439.3308585877
10
1273535.7591954547
20
444440.07934479543
10
1273535.6417111678
20
444440.8278310031
10
1273535.5076862033
20
444441.57631721074
10
1273535.3571205616
20
444442.3248034184
10
1273535.190014242
20
444443.0732896261
10
1273535.002553368
20
444443.7747614236
10
1273534.794737939
20
444444.42921881087
10
1273534.5665679555
20
444445.036661788
10
1273534.3180434173
20
444445.59709035495
10
1273534.1180268608
20
444446.06442619034
10
1273533.9665182861
20
444446.4386692941
10
1273533.8635176937
20
444446.71981966647
10
1273533.8090250834
20
444446.90787730715
10
1273533.7187416884
20
444447.23604208964
10
1273533.5926675089
20
444447.7043140138
10
1273533.4308025448
20
444448.3126930798
10
1273533.233146796
20
444449.0611792875
10
1273533.0436335609
20
444449.8096654952
10
1273532.8622628392
20
444450.55815170275
10
1273532.689034631
20
444451.3066379104
10
1273532.5239489358
20
444452.0551241181
10
1273532.4063353043
20
444452.8036103258
10
1273532.336193736
20
444453.5520965334
10
1273532.3135242308
20
444454.3005827411
10
1273532.3383267894
20
444455.0490689488
10
1273532.366609007
20
444455.79755515646
10
1273532.3983708834
20
444456.5460413641
10
1273532.4336124193
20
444457.29452757176
10
1273532.4723336147
20
444458.0430137795
10
1273532.490199082
20
444458.7914999872
10
1273532.4872088213
20
444459.5399861948
10
1273532.4633628326
20
444460.2884724025
10
1273532.4186611157
20
444461.0369586102
10
1273532.3576171787
20
444461.78544481786
10
1273532.2802310218
20
444462.53393102554
10
1273532.1865026446
20
444463.2824172332
10
1273532.0764320472
20
444464.03090344084
10
1273531.9338782008
20
444464.7225140295
10
1273531.7588411057
20
444465.35724899906
10
1273531.5513207614
20
444465.93510834966
10
1273531.3113171684
20
444466.45609208127
10
1273531.1200128035
20
444466.90370549896
10
1273530.977407667
20
444467.27794860274
10
1273530.8835017588
20
444467.57882139273
10
1273530.8382950793
20
444467.80632386886
10
1273530.7714565787
20
444468.16407227784
10
1273530.6829862574
20
444468.6520666197
10
1273530.5728841154
20
444469.2703068945
10
1273530.441150153
20
444470.01879310224
10
1273530.3865848419
20
444470.74554152193
10
1273530.4091881819
20
444471.4505521536
10
1273530.508960173
20
444472.13382499723
10
1273530.6859008153
20
444472.79536005296
10
1273530.833035783
20
444473.3132491327
10
1273530.9503650758
20
444473.6874922365
10
1273531.0378886939
20
444473.9180893644
10
1273531.0956066372
20
444474.00504051644
10
1273531.2802633988
20
444474.25737543235
10
1273531.5918589786
20
444474.6750941121
10
1273532.0303933767
20
444475.2581965559
10
1273532.5958665928
20
444476.0066827636
10
1273533.0512952672
20
444476.68848182505
10
1273533.3966793993
20
444477.30359374033
10
1273533.6320189894
20
444477.8520185094
10
1273533.7573140373
20
444478.3337561324
10
1273533.8851433191
20
444478.7617464958
10
1273534.0155068347
20
444479.1359895996
10
1273534.1484045843
20
444479.4564854439
10
1273534.2838365675
20
444479.7232340287
10
1273534.4781988943
20
444480.1104170191
10
1273534.7314915652
20
444480.6180344153
10
1273535.0437145797
20
444481.24608621723
10
1273535.4148679376
20
444481.9945724249
10
1273535.7537081728
20
444482.6737714887
10
1273536.060235285
20
444483.2836834085
10
1273536.3344492742
20
444483.8243081845
10
1273536.5763501406
20
444484.29564581654
10
1273536.8232190884
20
444484.71843618446
10
1273537.0750561177
20
444485.0926792883
10
1273537.3318612284
20
444485.418375128
10
1273537.5936344203
20
444485.69552370365
10
1273537.8947647351
20
444486.0905066873
10
1273538.2352521727
20
444486.6033240789
10
1273538.6150967325
20
444487.23397587857
10
1273539.0342984153
20
444487.9824620863
10
1273539.3655775103
20
444488.5745646823
10
1273539.6089340183
20
444489.01028366666
10
1273539.7643679385
20
444489.28961903934
10
1273539.8318792717
20
444489.41257080034
10
1273539.9880154522
20
444489.6611682328
10
1273540.2327764803
20
444490.03541133663
10
1273540.5661623562
20
444490.53530011186
10
1273540.9881730801
20
444491.16083455854
10
1273541.3862999938
20
444491.6911565873
10
1273541.7605430977
20
444492.12626619806
10
1273542.1109023914
20
444492.466163391
10
1273542.4373778754
20
444492.7108481661
10
1273542.8693560404
20
444492.9898102343
10
1273543.4068368864
20
444493.30304959574
10
1273544.049820413
20
444493.65056625044
10
1273544.7983066204
20
444494.0323601983
10
1273545.406987072
20
444494.3492075304
10
1273545.875861767
20
444494.6011082467
10
1273546.204930706
20
444494.7880623473
10
1273546.3941938886
20
444494.910069832
10
1273546.675947032
20
444495.0925424737
10
1273547.0501901358
20
444495.3354802724
10
1273547.5169232003
20
444495.63888322806
10
1273548.0761462254
20
444496.0027513406
10
1273548.5884746835
20
444496.3718069488
10
1273549.0539085749
20
444496.7460500527
10
1273549.472447899
20
444497.12548065215
10
1273549.8440926562
20
444497.51009874715
10
1273550.2170365867
20
444497.91007173696
10
1273550.5912796906
20
444498.32539962145
10
1273550.9668219676
20
444498.7560824006
10
1273551.3436634182
20
444499.20212007454
10
1273551.7010323731
20
444499.6122604634
10
1273552.0389288333
20
444499.98650356726
10
1273552.3573527979
20
444500.32484938606
10
1273552.6563042677
20
444500.6272979198
10
1273552.9929015543
20
444500.97571862553
10
1273553.3671446582
20
444501.370111503
10
1273553.7790335792
20
444501.8104765524
10
1273554.2285683171
20
444502.2968137737
10
1273554.6390590537
20
444502.7271039362
10
1273555.0105057885
20
444503.10134704004
10
1273555.3429085214
20
444503.41954308515
10
1273555.636267253
20
444503.68169207155
10
1273555.9700681705
20
444504.01238790003
10
1273556.3443112741
20
444504.4116305705
10
1273556.7589965642
20
444504.879420083
10
1273557.2141240404
20
444505.4157564375
10
1273557.5961750597
20
444505.8710461667
10
1273557.905149622
20
444506.24528927053
10
1273558.141047727
20
444506.53848574904
10
1273558.3038693753
20
444506.75063560216
10
1273558.5494918195
20
444507.0968695439
10
1273558.8779150597
20
444507.5771875743
10
1273559.2891390962
20
444508.1915896933
10
1273559.7831639287
20
444508.9400759011
10
1273560.1765924848
20
444509.67050246196
10
1273560.4694247646
20
444510.38286937587
10
1273560.661660768
20
444511.07717664307
10
1273560.753300495
20
444511.75342426344
10
1273560.8249699739
20
444512.2786696255
10
1273560.8766692048
20
444512.6529127293
10
1273560.9083981873
20
444512.8761535749
10
1273560.9201569215
20
444512.9483921622
10
1273560.9260362887
20
444513.0108982674
10
1273560.9260362887
20
444513.06367189065
10
1273560.9201569215
20
444513.10671303165
10
1273560.9083981873
20
444513.14002169063
10
1273560.8668015022
20
444513.34379757196
10
1273560.795366866
20
444513.71804067574
10
1273560.6940942798
20
444514.26275100204
10
1273560.5629837424
20
444514.9779285508
10
1273560.484167952
20
444515.70143326424
0
LWPOLYLINE
5
3E
330
C
100
AcDbEntity
8
C-TOPO-MAJR-E
100
AcDbPolyline
90
324
70
0
43
0
38
0
39
0
10
1273528.1268632296
20
444356.50567932613
10
1273528.2398607503
20
444356.85205513483
10
1273528.4121563986
20
444357.2989585433
10
1273528.6437501747
20
444357.8463895515
10
1273528.9346420784
20
444358.4943481594
10
1273529.2848321097
20
444359.2428343671
10
1273529.6187992971
20
444359.9197251695
10
1273529.9365436407
20
444360.52502056665
10
1273530.23806514
20
444361.05872055865
10
1273530.5233637954
20
444361.5208251453
10
1273530.7849553735
20
444361.9389989906
10
1273531.0228398743
20
444362.3132420945
10
1273531.2370172974
20
444362.6435544569
10
1273531.4274876432
20
444362.9299360778
10
1273531.7031604275
20
444363.33184384543
10
1273532.0640356508
20
444363.8492777598
10
1273532.5101133124
20
444364.48223782075
10
1273533.0413934132
20
444365.2307240284
10
1273533.446537429
20
444365.8029358926
10
1273533.7255453598
20
444366.1988734132
10
1273533.878417206
20
444366.41853659035
10
1273533.9051529672
20
444366.461925424
10
1273534.009347861
20
444366.67074139277
10
1273534.191001887
20
444367.04498449655
10
1273534.450115045
20
444367.58465473546
10
1273534.7866873355
20
444368.28975210956
10
1273535.1420950326
20
444368.9893192529
10
1273535.5163381365
20
444369.6833561655
10
1273535.9094166472
20
444370.3718628475
10
1273536.321330564
20
444371.0548392987
10
1273536.6438054764
20
444371.5834490762
10
1273536.876841384
20
444371.95769218006
10
1273537.0204382865
20
444372.1775686102
10
1273537.0745961838
20
444372.2430783667
10
1273537.2811719137
20
444372.47933223593
10
1273537.6401654757
20
444372.88633021794
10
1273538.1515768701
20
444373.4640723128
10
1273538.815406097
20
444374.21255852043
10
1273539.320902788
20
444374.78360199195
10
1273539.668066943
20
444375.1772027274
10
1273539.8568985623
20
444375.39336072665
10
1273539.8873976457
20
444375.4320759897
10
1273540.0070817415
20
444375.6385551732
10
1273540.21595085
20
444376.0127982771
10
1273540.5140049704
20
444376.55480530125
10
1273540.9012441037
20
444377.26457624574
10
1273541.2474560565
20
444377.9840260061
10
1273541.5526408295
20
444378.71315458225
10
1273541.816798422
20
444379.45196197415
10
1273542.0399288344
20
444380.20044818183
10
1273542.2418058093
20
444380.91149004566
10
1273542.4224293465
20
444381.58508756553
10
1273542.5817994464
20
444382.2212407416
10
1273542.7199161083
20
444382.81994957384
10
1273542.8321791342
20
444383.3064255419
10
1273542.9185885242
20
444383.6806686457
10
1273542.979144278
20
444383.94267888536
10
1273543.0138463955
20
444384.0924562608
10
1273543.0893632956
20
444384.39191084437
10
1273543.2056949777
20
444384.8410426359
10
1273543.3628414418
20
444385.43985163554
10
1273543.5608026881
20
444386.1883378432
10
1273543.749081438
20
444386.9368240509
10
1273543.9276776914
20
444387.68531025853
10
1273544.0965914486
20
444388.4337964662
10
1273544.2558227093
20
444389.1822826739
10
1273544.4205851718
20
444389.9307688816
10
1273544.5908788356
20
444390.67925508914
10
1273544.7667037013
20
444391.4277412968
10
1273544.9480597684
20
444392.1762275045
10
1273545.1278856979
20
444392.9173881648
10
1273545.3061814893
20
444393.65122327756
10
1273545.4829471428
20
444394.3777328429
10
1273545.6581826587
20
444395.0969168609
10
1273545.7911945365
20
444395.64363042184
10
1273545.8819827763
20
444396.0178735256
10
1273545.9305473785
20
444396.2196461724
10
1273545.9368883427
20
444396.24894836213
10
1273545.9637393323
20
444396.45804655633
10
1273546.0111003474
20
444396.84694075503
10
1273546.0789713878
20
444397.4156309582
10
1273546.1673524538
20
444398.1641171659
10
1273546.2135321032
20
444398.9126033736
10
1273546.2175103363
20
444399.6610895812
10
1273546.1792871533
20
444400.4095757889
10
1273546.0988625544
20
444401.1580619966
10
1273546.034969747
20
444401.7309813587
10
1273545.9876087322
20
444402.1283338752
10
1273545.956779509
20
444402.3501195461
10
1273545.9424820782
20
444402.3963383713
10
1273545.8986564327
20
444402.6065693359
10
1273545.8253025727
20
444402.9808124398
10
1273545.722420498
20
444403.5190676829
10
1273545.5900102088
20
444404.2213350652
10
1273545.4630931788
20
444404.9351571539
10
1273545.3416694084
20
444405.660533949
10
1273545.2257388972
20
444406.3974654503
10
1273545.1153016451
20
444407.1459516579
10
1273545.071861788
20
444407.8944378656
10
1273545.0954193252
20
444408.6429240732
10
1273545.1859742568
20
444409.3914102809
10
1273545.3435265834
20
444410.13989648863
10
1273545.4830146318
20
444410.7389141298
10
1273545.6044384022
20
444411.1884632044
10
1273545.707797895
20
444411.48854371253
10
1273545.7930931097
20
444411.63915565406
10
1273545.9552343735
20
444411.9015831768
10
1273546.1942216866
20
444412.27582628065
10
1273546.5100550484
20
444412.76188496564
10
1273546.9027344594
20
444413.3597592317
10
1273547.255733372
20
444413.9952864832
10
1273547.569051786
20
444414.6684667201
10
1273547.8426897018
20
444415.37929994235
10
1273548.0766471191
20
444416.12778615
10
1273548.277777484
20
444416.8762723577
10
1273548.446080796
20
444417.62475856533
10
1273548.5815570555
20
444418.373244773
10
1273548.6842062622
20
444419.1217309807
10
1273548.7659932105
20
444419.74226338835
10
1273548.8269179
20
444420.234841996
10
1273548.8669803313
20
444420.5994668037
10
1273548.886180504
20
444420.83613781154
10
1273548.925040197
20
444421.14159486734
10
1273548.9835594103
20
444421.5158379711
10
1273549.0617381441
20
444421.958867123
10
1273549.1595763983
20
444422.470682323
10
1273549.2750219651
20
444423.0416652748
10
1273549.4080748446
20
444423.6718159786
10
1273549.5587350368
20
444424.3611344343
10
1273549.7270025413
20
444425.109620642
10
1273549.8772672855
20
444425.85810684966
10
1273550.0095292688
20
444426.60659305734
10
1273550.1237884918
20
444427.355079265
10
1273550.2200449537
20
444428.1035654727
10
1273550.3131704258
20
444428.8520516804
10
1273550.403164908
20
444429.600537888
10
1273550.4900284004
20
444430.3490240957
10
1273550.5737609025
20
444431.0975103034
10
1273550.6757234856
20
444431.8459965111
10
1273550.7959161499
20
444432.59448271873
10
1273550.9343388944
20
444433.3429689264
10
1273551.09099172
20
444434.09145513404
10
1273551.244916004
20
444434.755076416
10
1273551.396111746
20
444435.33383277233
10
1273551.5445789467
20
444435.827724203
10
1273551.6903176054
20
444436.2367507079
10
1273551.8366027838
20
444436.6283855123
10
1273551.983434482
20
444437.0026286162
10
1273552.1308126997
20
444437.3594800194
10
1273552.2787374372
20
444437.6989397221
10
1273552.4985613646
20
444438.14065605105
10
1273552.7902844816
20
444438.68462900625
10
1273553.1539067884
20
444439.3308585877
10
1273553.5894282851
20
444440.07934479543
10
1273553.9573294008
20
444440.74181428266
10
1273554.2576101362
20
444441.3182670494
10
1273554.4902704903
20
444441.80870309565
10
1273554.655310464
20
444442.21312242147
10
1273554.8148703529
20
444442.6024536363
10
1273554.968950157
20
444442.97669674014
10
1273555.1175498764
20
444443.335851733
10
1273555.2606695113
20
444443.67991861486
10
1273555.423657829
20
444444.12509032816
10
1273555.6065148292
20
444444.67136687285
10
1273555.8092405123
20
444445.3187482491
10
1273556.031834878
20
444446.0672344568
10
1273556.237082076
20
444446.81572066445
10
1273556.4249821058
20
444447.56420687214
10
1273556.595534968
20
444448.3126930798
10
1273556.7487406621
20
444449.0611792875
10
1273556.921036561
20
444449.7663256079
10
1273557.1124226642
20
444450.4281320409
10
1273557.3228989725
20
444451.0465985868
10
1273557.5524654854
20
444451.6217252454
10
1273557.7445438143
20
444452.09641012654
10
1273557.8991339589
20
444452.47065323044
10
1273558.0162359194
20
444452.7444545569
10
1273558.0958496958
20
444452.9178141059
10
1273558.2454711027
20
444453.23495531967
10
1273558.4651001394
20
444453.6958781981
10
1273558.7547368067
20
444454.3005827411
10
1273559.1143811042
20
444455.0490689488
10
1273559.4614213607
20
444455.7695545902
10
1273559.7958575767
20
444456.46203966544
10
1273560.117689751
20
444457.12652417447
10
1273560.426917885
20
444457.7630081172
10
1273560.675440378
20
444458.26837164053
10
1273560.8632572303
20
444458.64261474437
10
1273560.9903684421
20
444458.8857374287
10
1273561.0567740137
20
444458.9977396937
10
1273561.2231652024
20
444459.2688629443
10
1273561.4895420084
20
444459.69910718047
10
1273561.855904432
20
444460.2884724025
10
1273562.3222524733
20
444461.0369586102
10
1273562.725946653
20
444461.6835043973
10
1273563.0669869713
20
444462.22810976394
10
1273563.345373428
20
444462.67077470996
10
1273563.5611060234
20
444463.01149923546
10
1273563.7745394479
20
444463.36898305017
10
1273563.985673702
20
444463.74322615395
10
1273564.1945087854
20
444464.134228547
10
1273564.4010446982
20
444464.5419902291
10
1273564.638334841
20
444465.0349330426
10
1273564.9063792136
20
444465.61305698764
10
1273565.2051778163
20
444466.2763620639
10
1273565.534730649
20
444467.0248482715
10
1273565.7964941226
20
444467.7733344792
10
1273565.9904682369
20
444468.5218206868
10
1273566.116652992
20
444469.2703068945
10
1273566.1750483876
20
444470.01879310224
10
1273566.0702238993
20
444470.7579509533
10
1273565.8021795265
20
444471.48778044764
10
1273565.3709152697
20
444472.2082815854
10
1273564.7764311281
20
444472.91945436655
10
1273564.3221929874
20
444473.46216230904
10
1273564.0082008475
20
444473.8364054129
10
1273563.8344547083
20
444474.0421836781
10
1273563.8009545696
20
444474.07949710457
10
1273563.7164758402
20
444474.2946037264
10
1273563.58101852
20
444474.6875035435
10
1273563.3945826096
20
444475.2581965559
10
1273563.1571681083
20
444476.0066827636
10
1273563.0283797982
20
444476.75516897126
10
1273563.008217679
20
444477.5036551788
10
1273563.0966817513
20
444478.2521413865
10
1273563.2937720148
20
444479.0006275943
10
1273563.4600458064
20
444479.62750292657
10
1273563.5955031263
20
444480.1327673835
10
1273563.7001439747
20
444480.5164209651
10
1273563.773968351
20
444480.7784636712
10
1273563.8760665315
20
444481.09660657623
10
1273564.0064385156
20
444481.47084968013
10
1273564.1650843031
20
444481.9011929828
10
1273564.3520038943
20
444482.38763648417
10
1273564.632585242
20
444482.87760790274
10
1273565.0068283456
20
444483.37110723846
10
1273565.4747332057
20
444483.86813449115
10
1273566.0362998224
20
444484.36868966103
10
1273566.6415841419
20
444484.80608879786
10
1273567.2905861645
20
444485.18033190165
10
1273567.98330589
20
444485.4914189725
10
1273568.7197433189
20
444485.7393500103
10
1273569.2750835852
20
444485.92619872116
10
1273569.649326689
20
444486.05196510506
10
1273569.8424726306
20
444486.116649162
10
1273569.8545214091
20
444486.12025089207
10
1273570.0506795454
20
444486.1456027902
10
1273570.4309470388
20
444486.1927048564
10
1273570.9953238892
20
444486.26155709074
10
1273571.7438100968
20
444486.3521594932
10
1273572.4922963046
20
444486.52222386806
10
1273573.240782512
20
444486.7717502154
10
1273573.9892687197
20
444487.1007385351
10
1273574.7377549275
20
444487.5091888272
10
1273575.4862411353
20
444487.86462956213
10
1273576.234727343
20
444488.1670607399
10
1273576.9832135506
20
444488.4164823604
10
1273577.731699758
20
444488.6128944237
10
1273578.3261637446
20
444488.77255840116
10
1273578.7666055104
20
444488.8954742927
10
1273579.053025055
20
444488.98164209834
10
1273579.1854223784
20
444489.0310618182
10
1273579.438742592
20
444489.169996896
10
1273579.812985696
20
444489.39844733186
10
1273580.3081516898
20
444489.7164131258
10
1273580.9242405742
20
444490.1238942777
10
1273581.4525977615
20
444490.5147564056
10
1273581.8932232521
20
444490.8889995095
10
1273582.246117046
20
444491.24662358925
10
1273582.5112791432
20
444491.5876286449
10
1273582.8309817435
20
444492.0046635929
10
1273583.2052248474
20
444492.49772843317
10
1273583.6340084546
20
444493.0668231657
10
1273584.1173325651
20
444493.71194779046
10
1273584.492871898
20
444494.22163165483
10
1273584.7606264534
20
444494.5958747586
10
1273584.920596231
20
444494.834677102
10
1273584.9727812312
20
444494.9380386849
10
1273585.115633512
20
444495.202681424
10
1273585.3491530735
20
444495.62860531925
10
1273585.673339916
20
444496.2158103707
10
1273586.088194039
20
444496.9642965783
10
1273586.4696964025
20
444497.68373837136
10
1273586.8178470063
20
444498.37413574965
10
1273587.1326458505
20
444499.03548871336
10
1273587.4140929347
20
444499.6677972625
10
1273587.6409080245
20
444500.1710730889
10
1273587.8130911193
20
444500.54531619267
10
1273587.9306422193
20
444500.7905265739
10
1273587.9935613244
20
444500.90670423256
10
1273588.1465655144
20
444501.1809590285
10
1273588.3896547894
20
444501.6132909616
10
1273588.722829149
20
444502.203700032
10
1273589.1460885939
20
444502.9521862397
10
1273589.5291100917
20
444503.61927394697
10
1273589.8718936432
20
444504.20496315375
10
1273590.1744392477
20
444504.7092538602
10
1273590.4367469056
20
444505.1321460661
10
1273590.685713009
20
444505.530713721
10
1273590.9213375584
20
444505.90495682484
10
1273591.1436205532
20
444506.25487537764
10
1273591.3525619938
20
444506.5804693793
10
1273591.644154266
20
444507.0034298742
10
1273592.01839737
20
444507.5237568622
10
1273592.4752913052
20
444508.1414503434
10
1273593.0148360725
20
444508.8565103178
10
1273593.4301317749
20
444509.40116185695
10
1273593.7211784124
20
444509.77540496073
10
1273593.8879759856
20
444509.9792396293
10
1273593.9305244945
20
444510.0126658627
10
1273594.1278450026
20
444510.2248570896
10
1273594.4799375103
20
444510.61581330997
10
1273594.9868020178
20
444511.18553452403
10
1273595.648438525
20
444511.9340207317
10
1273595.9686196514
20
444512.585669918
10
1273595.9473453972
20
444513.1404820828
10
1273595.5846157623
20
444513.59845722624
10
1273594.8804307464
20
444513.9595953483
10
1273594.1651704328
20
444514.3084457633
10
1273593.438834821
20
444514.6450084712
10
1273592.7014239114
20
444514.96928347216
10
1273591.952937704
20
444515.28127076605
10
1273591.3788712495
20
444515.5341014344
10
1273590.9792245477
20
444515.7277754772
0
LWPOLYLINE
5
3F
330
C
100
AcDbEntity
8
C-TOPO-MAJR-E
100
AcDbPolyline
90
288
70
0
43
0
38
0
39
0
10
1273551.3558558756
20
444356.2488895364
10
1273551.5774396427
20
444356.8173314768
10
1273551.7356290284
20
444357.20572914986
10
1273551.8304240336
20
444357.4140825556
10
1273551.8618246575
20
444357.4423916941
10
1273552.0370150479
20
444357.6436678153
10
1273552.3559952048
20
444358.0179109191
10
1273552.8187651278
20
444358.56512100564
10
1273553.4253248174
20
444359.2852980748
10
1273553.9157262142
20
444359.90100510145
10
1273554.289969318
20
444360.41224208556
10
1273554.5480541291
20
444360.8190090272
10
1273554.6899806473
20
444361.12130592624
10
1273554.8548521285
20
444361.4595759277
10
1273555.0426685729
20
444361.8338190316
10
1273555.2534299803
20
444362.2440352378
10
1273555.4871363507
20
444362.69022454636
10
1273555.669817803
20
444363.2119880797
10
1273555.801474337
20
444363.8093258379
10
1273555.8821059528
20
444364.48223782075
10
1273555.9117126504
20
444365.2307240284
10
1273555.881798307
20
444365.9792102361
10
1273555.792362922
20
444366.72769644373
10
1273555.6434064962
20
444367.4761826514
10
1273555.4349290289
20
444368.2246688591
10
1273555.264862028
20
444368.82943023584
10
1273555.133205494
20
444369.29046678165
10
1273555.0399594265
20
444369.6077784966
10
1273554.9851238257
20
444369.78136538056
10
1273554.9084957356
20
444370.0552803745
10
1273554.8100751564
20
444370.42952347826
10
1273554.6898620883
20
444370.9040946921
10
1273554.547856531
20
444371.4789940157
10
1273554.4225886571
20
444372.0972900604
10
1273554.314058466
20
444372.75898282614
10
1273554.2222659583
20
444373.4640723128
10
1273554.147211134
20
444374.21255852043
10
1273554.1059498878
20
444374.96104472806
10
1273554.09848222
20
444375.70953093586
10
1273554.1248081308
20
444376.4580171435
10
1273554.18492762
20
444377.2065033511
10
1273554.2205097359
20
444377.9549895588
10
1273554.2315544789
20
444378.70347576647
10
1273554.2180618483
20
444379.45196197415
10
1273554.1800318444
20
444380.20044818183
10
1273554.1362503944
20
444380.9489343895
10
1273554.086717498
20
444381.69742059713
10
1273554.0314331553
20
444382.4459068048
10
1273553.9703973664
20
444383.19439301256
10
1273553.930464503
20
444383.94287922024
10
1273553.9116345649
20
444384.69136542786
10
1273553.9139075521
20
444385.43985163554
10
1273553.9372834647
20
444386.1883378432
10
1273553.9572409398
20
444386.9368240509
10
1273553.9737799775
20
444387.68531025853
10
1273553.9869005778
20
444388.4337964662
10
1273553.9966027406
20
444389.1822826739
10
1273554.0310886865
20
444389.9307688816
10
1273554.0903584156
20
444390.67925508914
10
1273554.1744119283
20
444391.4277412968
10
1273554.2832492245
20
444392.1762275045
10
1273554.393400025
20
444392.8145314346
10
1273554.50486433
20
444393.3426530871
10
1273554.6176421393
20
444393.7605924621
10
1273554.7317334535
20
444394.0683495595
10
1273554.8725930336
20
444394.40934966016
10
1273555.04022088
20
444394.783592764
10
1273555.2346169925
20
444395.191078871
10
1273555.4557813713
20
444395.6318079813
10
1273555.7286320797
20
444396.14947636594
10
1273556.0531691175
20
444396.7440840249
10
1273556.429392485
20
444397.4156309582
10
1273556.857302182
20
444398.1641171659
10
1273557.2030874875
20
444398.78910411836
10
1273557.466748402
20
444399.2905918155
10
1273557.6482849251
20
444399.66858025745
10
1273557.747697057
20
444399.92306944425
10
1273557.865830923
20
444400.2374355895
10
1273558.0026865227
20
444400.6116786933
10
1273558.1582638565
20
444401.0457987557
10
1273558.3325629244
20
444401.53979577665
10
1273558.5729695226
20
444402.0974150943
10
1273558.879483651
20
444402.7186567086
10
1273559.2521053099
20
444403.4035206196
10
1273559.6908344987
20
444404.15200682724
10
1273560.0537458784
20
444404.7401489613
10
1273560.3408394484
20
444405.167947022
10
1273560.5521152087
20
444405.43540100905
10
1273560.6875731596
20
444405.54251092253
10
1273560.9762881745
20
444405.67548932927
10
1273561.4182602537
20
444405.83433622925
10
1273562.0134893972
20
444406.0190516224
10
1273562.7619756046
20
444406.22963550885
10
1273563.5104618124
20
444406.34474322305
10
1273564.2589480202
20
444406.364374765
10
1273565.007434228
20
444406.2885301347
10
1273565.7559204353
20
444406.11720933206
10
1273566.504406643
20
444405.974133861
10
1273567.252892851
20
444405.8593037216
10
1273568.0013790587
20
444405.77271891356
10
1273568.749865266
20
444405.71437943703
10
1273569.4543330949
20
444405.8357380014
10
1273570.1147825448
20
444406.1367946065
10
1273570.7312136157
20
444406.61754925246
10
1273571.3036263073
20
444407.2780019393
10
1273571.7769542052
20
444407.9016547677
10
1273572.1511973091
20
444408.48850773764
10
1273572.426355619
20
444409.03856084927
10
1273572.6024291345
20
444409.5518141025
10
1273572.753692049
20
444409.995562281
10
1273572.8801443626
20
444410.3698053848
10
1273572.9817860746
20
444410.6745434139
10
1273573.0586171858
20
444410.9097763685
10
1273573.1388793695
20
444411.27332263626
10
1273573.2225726265
20
444411.76518221723
10
1273573.3096969563
20
444412.3853551116
10
1273573.400252359
20
444413.1338413193
10
1273573.5151145582
20
444413.882327527
10
1273573.6542835538
20
444414.63081373466
10
1273573.8177593458
20
444415.37929994235
10
1273574.005541934
20
444416.12778615
10
1273574.1944825808
20
444416.8762723577
10
1273574.3845812862
20
444417.62475856533
10
1273574.5758380499
20
444418.373244773
10
1273574.7682528724
20
444419.1217309807
10
1273574.9610812385
20
444419.8702171884
10
1273575.1543231485
20
444420.61870339594
10
1273575.3479786026
20
444421.3671896036
10
1273575.5420476007
20
444422.1156758113
10
1273575.6893076703
20
444422.68278015585
10
1273575.789758812
20
444423.06850263715
10
1273575.8434010255
20
444423.27284325537
10
1273575.8502343108
20
444423.29580201046
10
1273575.9209611134
20
444423.4944029399
10
1273576.055581433
20
444423.8686460437
10
1273576.2540952696
20
444424.4185313219
10
1273576.5165026234
20
444425.1440587746
10
1273576.7348173356
20
444425.8753259159
10
1273576.9090394059
20
444426.6123327461
10
1273577.0391688347
20
444427.355079265
10
1273577.125205622
20
444428.1035654727
10
1273577.1026221772
20
444428.8275728029
10
1273576.9714185004
20
444429.52710125566
10
1273576.7315945914
20
444430.202150831
10
1273576.3831504504
20
444430.85272152885
10
1273576.1043857422
20
444431.3651284297
10
1273575.8953004668
20
444431.7393715335
10
1273575.7558946242
20
444431.9754508403
10
1273575.686168214
20
444432.07336635015
10
1273575.591880455
20
444432.33392453444
10
1273575.4730313467
20
444432.7571253932
10
1273575.329620889
20
444433.3429689264
10
1273575.1616490823
20
444434.09145513404
10
1273575.0950947814
20
444434.7585276532
10
1273575.129957986
20
444435.3441864839
10
1273575.2662386969
20
444435.8484316261
10
1273575.5039369138
20
444436.2712630797
10
1273575.7171697915
20
444436.6698003585
10
1273575.9059373299
20
444437.0440434624
10
1273576.0702395292
20
444437.3939923913
10
1273576.2100763896
20
444437.71964714525
10
1273576.462030509
20
444438.15100976266
10
1273576.8261018877
20
444438.6880802434
10
1273577.302290526
20
444439.3308585877
10
1273577.8905964235
20
444440.07934479543
10
1273578.336911709
20
444440.6471992449
10
1273578.641236383
20
444441.03442193597
10
1273578.8035704447
20
444441.2410128688
10
1273578.8239138946
20
444441.2669720435
10
1273578.9684112547
20
444441.4670731827
10
1273579.2370625245
20
444441.8413162865
10
1273579.6298677048
20
444442.38970135496
10
1273580.1468267948
20
444443.112228388
10
1273580.5924278917
20
444443.764112337
10
1273580.9666709956
20
444444.3453532019
10
1273581.2695561063
20
444444.85595098266
10
1273581.501083224
20
444445.29590567935
10
1273581.7129216604
20
444445.70300457964
10
1273581.9050714155
20
444446.0772476834
10
1273582.0775324893
20
444446.41863499087
10
1273582.2303048817
20
444446.72716650186
10
1273582.4011046262
20
444447.145686687
10
1273582.5899317227
20
444447.6741955463
10
1273582.796786171
20
444448.3126930798
10
1273583.0216679713
20
444449.0611792875
10
1273583.2031491166
20
444449.8096654952
10
1273583.3412296076
20
444450.55815170275
10
1273583.4359094438
20
444451.3066379104
10
1273583.487188625
20
444452.0551241181
10
1273583.5117628123
20
444452.8036103258
10
1273583.5096320058
20
444453.5520965334
10
1273583.4807962053
20
444454.3005827411
10
1273583.4252554113
20
444455.0490689488
10
1273583.4383837655
20
444455.79755515646
10
1273583.5201812685
20
444456.5460413641
10
1273583.67064792
20
444457.29452757176
10
1273583.8897837203
20
444458.0430137795
10
1273584.0931250274
20
444458.66105295805
10
1273584.2806718415
20
444459.14864510746
10
1273584.452424162
20
444459.50579022773
10
1273584.6083819896
20
444459.7324883189
10
1273584.818379564
20
444460.03295891645
10
1273585.082416885
20
444460.40720202023
10
1273585.4004939531
20
444460.8552176304
10
1273585.772610768
20
444461.37700574694
10
1273586.1457907273
20
444461.88008379843
10
1273586.5200338312
20
444462.3644517849
10
1273586.8953400794
20
444462.83010970626
10
1273587.2717094724
20
444463.2770575626
10
1273587.6219641638
20
444463.6876530427
10
1273587.9461041542
20
444464.0618961466
10
1273588.244129443
20
444464.3997868742
10
1273588.5160400309
20
444464.7013252254
10
1273588.8391168765
20
444465.05328496743
10
1273589.2133599804
20
444465.45566610014
10
1273589.6387693423
20
444465.9084686235
10
1273590.1153449623
20
444466.4116925375
10
1273590.5648923437
20
444466.85042604647
10
1273590.987411486
20
444467.22466915025
10
1273591.3829023899
20
444467.534421849
10
1273591.7513650549
20
444467.7796841426
10
1273592.1227179393
20
444468.0237305428
10
1273592.4969610432
20
444468.2665610496
10
1273592.8740943666
20
444468.508175663
10
1273593.254117909
20
444468.748574383
10
1273593.726257118
20
444469.0324306581
10
1273594.2905119932
20
444469.3597444885
10
1273594.9468825348
20
444469.730515874
10
1273595.695368742
20
444470.1447448146
10
1273596.296760071
20
444470.4788811569
10
1273596.7510565212
20
444470.7329249008
10
1273597.0582580923
20
444470.9068760462
10
1273597.2183647845
20
444471.0007345932
10
1273597.4855396827
20
444471.21048926044
10
1273597.8597827863
20
444471.53614004795
10
1273598.341094096
20
444471.9776869556
10
1273598.9294736113
20
444472.5351299835
10
1273599.4059041338
20
444473.0009730494
10
1273599.770385664
20
444473.3752161532
10
1273600.0229182015
20
444473.657859295
10
1273600.1635017465
20
444473.8489024748
10
1273600.3520326456
20
444474.17930641153
10
1273600.5885108996
20
444474.6490711052
10
1273600.872936508
20
444475.2581965559
10
1273601.205309471
20
444476.0066827636
10
1273601.5234716183
20
444476.6869784296
10
1273601.8274229497
20
444477.29908355395
10
1273602.1171634654
20
444477.84299813677
10
1273602.3926931652
20
444478.31872217805
10
1273602.6267363455
20
444478.74370575056
10
1273602.8192930066
20
444479.11794885434
10
1273602.9703631478
20
444479.4414514895
10
1273603.0799467694
20
444479.714213656
10
1273603.1889259003
20
444480.10590683285
10
1273603.2973005401
20
444480.61653101986
10
1273603.405070689
20
444481.24608621723
10
1273603.5122363465
20
444481.9945724249
10
1273603.6122624916
20
444482.7430586326
10
1273603.705149124
20
444483.4915448402
10
1273603.7908962432
20
444484.2400310479
10
1273603.8695038494
20
444484.9885172556
10
1273603.9548125989
20
444485.73700346326
10
1273604.0468224916
20
444486.4854896709
10
1273604.145533527
20
444487.23397587857
10
1273604.2509457055
20
444487.9824620863
10
1273604.3851830107
20
444488.730948294
10
1273604.5482454426
20
444489.4794345016
10
1273604.7401330012
20
444490.2279207093
10
1273604.9608456867
20
444490.9764069169
10
1273605.1581313154
20
444491.59996357857
10
1273605.3319898867
20
444492.09859069425
10
1273605.4824214014
20
444492.47228826396
10
1273605.609425859
20
444492.72105628764
10
1273605.7785211592
20
444493.03256185143
10
1273605.9897073018
20
444493.4068049553
10
1273606.242984287
20
444493.8437855992
10
1273606.5383521146
20
444494.3435037831
10
1273606.8687833473
20
444494.905413973
10
1273607.2342779855
20
444495.529516169
10
1273607.6348360283
20
444496.2158103707
10
1273608.0704574767
20
444496.9642965783
10
1273608.4015477956
20
444497.5331483388
10
1273608.6281069857
20
444497.9223656519
10
1273608.7501350467
20
444498.13194851787
10
1273608.7676319787
20
444498.1618969366
10
1273608.9678762294
20
444498.33158363274
10
1273609.3508677995
20
444498.6410086063
10
1273609.9166066882
20
444499.0901718574
0
LWPOLYLINE
5
40
330
C
100
AcDbEntity
8
C-TOPO-MAJR-E
100
AcDbPolyline
90
204
70
0
43
0
38
0
39
0
10
1273592.2579025684
20
444356.2488895364
10
1273592.1264848204
20
444356.9973757441
10
1273592.0491207018
20
444357.7458619517
10
1273592.0258102126
20
444358.4943481594
10
1273592.0565533526
20
444359.2428343671
10
1273592.0603462176
20
444359.9913205748
10
1273592.0371888075
20
444360.73980678245
10
1273591.9870811221
20
444361.48829299014
10
1273591.9100231621
20
444362.2367791978
10
1273591.7919654525
20
444362.9260632715
10
1273591.6329079936
20
444363.5561452112
10
1273591.4328507856
20
444364.12702501693
10
1273591.1917938283
20
444364.6387026887
10
1273590.9778893536
20
444365.08166307653
10
1273590.7911373614
20
444365.4559061804
10
1273590.6315378519
20
444365.7614320002
10
1273590.499090825
20
444365.9982405361
10
1273590.2457457595
20
444366.3562792877
10
1273589.8715026556
20
444366.8355482551
10
1273589.3763615135
20
444367.4360474383
10
1273588.7603223326
20
444368.1577768371
10
1273588.292706085
20
444368.70576308854
10
1273587.9735127706
20
444369.0800061923
10
1273587.802742389
20
444369.28050614864
10
1273587.7803949402
20
444369.30726295745
10
1273587.599707358
20
444369.5144521159
10
1273587.2606796422
20
444369.90207362414
10
1273586.7633117929
20
444370.4701274821
10
1273586.10760381
20
444371.2186136898
10
1273585.5982151288
20
444371.7993755135
10
1273585.235145749
20
444372.21241295326
10
1273585.0183956712
20
444372.457726009
10
1273584.947964895
20
444372.5353146807
10
1273584.7421061583
20
444372.7612305685
10
1273584.4008194609
20
444373.1354736724
10
1273583.9241048032
20
444373.65804399224
10
1273583.3119621847
20
444374.3289415281
10
1273582.8187693236
20
444374.87144064426
10
1273582.4445262197
20
444375.2855413408
10
1273582.1892328733
20
444375.57124361757
10
1273582.0528892842
20
444375.7285474746
10
1273581.850380216
20
444375.994320955
10
1273581.581705669
20
444376.3685640589
10
1273581.2468656427
20
444376.8512767861
10
1273580.8458601374
20
444377.4424591367
10
1273580.4582358329
20
444378.07059170527
10
1273580.083992729
20
444378.7356744918
10
1273579.723130826
20
444379.4377074962
10
1273579.3756501235
20
444380.17669071857
10
1273579.114064246
20
444380.7333038817
10
1273578.9383731936
20
444381.1075469855
10
1273578.8485769664
20
444381.2994200301
10
1273578.8446755644
20
444381.3089230154
10
1273578.8427248634
20
444381.319103515
10
1273578.8427248634
20
444381.329961529
10
1273578.8446755644
20
444381.3414970574
10
1273578.8485769664
20
444381.3537101001
10
1273578.9351537519
20
444381.54693817336
10
1273579.1044059207
20
444381.9211812772
10
1273579.3563334728
20
444382.4764394116
10
1273579.6909364082
20
444383.2127125766
10
1273580.0453594278
20
444383.82501730294
10
1273580.4196025317
20
444384.31335359055
10
1273580.8136657197
20
444384.6777214395
10
1273581.227548992
20
444384.9181208499
10
1273581.7250829982
20
444385.218688659
10
1273582.3062677379
20
444385.5794248668
10
1273582.9711032119
20
444386.0003294736
10
1273583.7195894194
20
444386.4814024791
10
1273584.2875297812
20
444386.8489606812
10
1273584.6749242973
20
444387.10300407984
10
1273584.8817729673
20
444387.2435326751
10
1273584.9080757916
20
444387.2705464669
10
1273585.0317973942
20
444387.4779283627
10
1273585.252937775
20
444387.8656783625
10
1273585.5714969344
20
444388.4337964662
10
1273585.987474872
20
444389.1822826739
10
1273586.3221390778
20
444389.9307688816
10
1273586.5754895515
20
444390.67925508914
10
1273586.7475262936
20
444391.4277412968
10
1273586.8382493036
20
444392.1762275045
10
1273586.9601621702
20
444392.8862258998
10
1273587.1132648932
20
444393.5577364826
10
1273587.2975574723
20
444394.190759253
10
1273587.5130399081
20
444394.7852942109
10
1273587.6979268964
20
444395.26968324184
10
1273587.8522184372
20
444395.6439263456
10
1273587.9759145307
20
444395.9080235224
10
1273588.0690151767
20
444396.06197477214
10
1273588.3026870517
20
444396.28936004173
10
1273588.6769301556
20
444396.5901793311
10
1273589.1917444882
20
444396.96443264023
10
1273589.84713005
20
444397.41211996926
10
1273590.4664711142
20
444397.8230851857
10
1273591.0497676814
20
444398.1973282895
10
1273591.5970197513
20
444398.5348492808
10
1273592.108227324
20
444398.8356481594
10
1273592.5509526622
20
444399.0929886709
10
1273592.9251957661
20
444399.30687081534
10
1273593.2309566354
20
444399.47729459265
10
1273593.4682352706
20
444399.6042600029
10
1273593.8333157985
20
444399.7245349005
10
1273594.3261982203
20
444399.83811928553
10
1273594.9468825348
20
444399.945013158
10
1273595.695368742
20
444400.04521651793
10
1273596.44385495
20
444400.1618820557
10
1273597.1923411577
20
444400.2950097712
10
1273597.9408273653
20
444400.44459966454
10
1273598.6893135728
20
444400.6106517357
10
1273599.2958135554
20
444400.82400713064
10
1273599.7603273126
20
444401.08466584946
10
1273600.0828548446
20
444401.392627892
10
1273600.2633961518
20
444401.74789325846
10
1273600.394074218
20
444402.2014638352
10
1273600.4748890442
20
444402.7533396222
10
1273600.5058406296
20
444403.4035206196
10
1273600.486928975
20
444404.15200682724
10
1273600.4323378208
20
444404.8339913011
10
1273600.3420671672
20
444405.4494740411
10
1273600.2161170144
20
444405.99845504726
10
1273600.0544873623
20
444406.4809343197
10
1273599.9119957788
20
444406.9092955078
10
1273599.7886422644
20
444407.2835386116
10
1273599.6844268185
20
444407.6036636312
10
1273599.599349441
20
444407.86967056646
10
1273599.445327184
20
444408.25629731984
10
1273599.222360047
20
444408.7635438913
10
1273598.9304480304
20
444409.3914102809
10
1273598.5695911336
20
444410.13989648863
10
1273598.2233104778
20
444410.83491096314
10
1273597.8916060627
20
444411.4764537044
10
1273597.5744778882
20
444412.06452471256
10
1273597.2719259541
20
444412.59912398754
10
1273597.0258183656
20
444413.053545177
10
1273596.8361551221
20
444413.42778828077
10
1273596.7029362237
20
444413.72185329907
10
1273596.6261616703
20
444413.93574023177
10
1273596.5755541096
20
444414.2832769832
10
1273596.5511135417
20
444414.76446355344
10
1273596.552839966
20
444415.37929994235
10
1273596.580733383
20
444416.12778615
10
1273596.6138737297
20
444416.7314707409
10
1273596.6522610064
20
444417.190353715
10
1273596.695895213
20
444417.50443507225
10
1273596.7447763493
20
444417.6737148128
10
1273596.8571774494
20
444417.94547623495
10
1273597.0330985135
20
444418.31971933873
10
1273597.2725395414
20
444418.79644412425
10
1273597.575500533
20
444419.37565059145
10
1273597.8562647053
20
444419.99717699375
10
1273598.114832058
20
444420.6610233311
10
1273598.3512025916
20
444421.3671896036
10
1273598.5653763057
20
444422.1156758113
10
1273598.7587658563
20
444422.864162019
10
1273598.9313712432
20
444423.6126482266
10
1273599.0831924668
20
444424.3611344343
10
1273599.2142295265
20
444425.109620642
10
1273599.3269025977
20
444425.85810684966
10
1273599.42121168
20
444426.60659305734
10
1273599.4971567737
20
444427.355079265
10
1273599.5547378787
20
444428.1035654727
10
1273599.6086070416
20
444428.7410487819
10
1273599.6587642627
20
444429.2675291925
10
1273599.7052095416
20
444429.68300670467
10
1273599.7479428789
20
444429.9874813184
10
1273599.8117022756
20
444430.3268401772
10
1273599.8964877329
20
444430.70108328096
10
1273600.0022992496
20
444431.1102106299
10
1273600.1291368266
20
444431.55422222393
10
1273600.3295974135
20
444432.07435247133
10
1273600.603681011
20
444432.67060137214
10
1273600.9513876182
20
444433.3429689264
10
1273601.3727172362
20
444434.09145513404
10
1273601.7387942025
20
444434.70930546225
10
1273602.049618518
20
444435.19651991106
10
1273602.305190182
20
444435.55309848033
10
1273602.5055091954
20
444435.77904117026
10
1273602.8068944453
20
444436.0791340671
10
1273603.2093459321
20
444436.4533771709
10
1273603.7128636558
20
444436.9017704817
10
1273604.317447616
20
444437.42431399954
10
1273604.8068611482
20
444437.8583212277
10
1273605.181104252
20
444438.2037921664
10
1273605.4401769277
20
444438.4607268154
10
1273605.5840791748
20
444438.6291251749
10
1273605.8101688498
20
444438.90044590656
10
1273606.118445952
20
444439.27468901034
10
1273606.508910482
20
444439.7518544864
10
1273606.9815624396
20
444440.3319423346
10
1273607.3890762827
20
444440.95412977267
10
1273607.731452012
20
444441.61841680063
10
1273608.0086896268
20
444442.3248034184
10
1273608.2207891275
20
444443.0732896261
10
1273608.3957974403
20
444443.71443811804
10
1273608.5337145654
20
444444.2482488943
10
1273608.6345405027
20
444444.67472195486
10
1273608.6982752522
20
444444.9938572998
10
1273608.7844617995
20
444445.34054652415
10
1273608.893100145
20
444445.71478962793
10
1273609.0241902883
20
444446.11658661126
10
1273609.1777322292
20
444446.5459374741
10
1273609.4416247518
20
444446.999438511
10
1273609.8158678557
20
444447.477089722
10
1273610.300461541
20
444447.9788911071
0
LWPOLYLINE
5
41
330
C
100
AcDbEntity
8
C-SITE-N
100
AcDbPolyline
90
8
70
1
43
0
38
0
39
0
10
1273549.8983746849
20
444475.8689665378
10
1273475.4184165667
20
444440.96076411026
10
1273480.2900389654
20
444430.5665719906
10
1273490.8949702464
20
444409.7470745717
10
1273497.237419615
20
444399.0871204301
10
1273527.408982872
20
444419.329199831
10
1273564.6264467668
20
444444.2991445097
10
1273549.8983746849
20
444475.8689665378
0
LWPOLYLINE
5
42
330
C
100
AcDbEntity
8
C-BLDG-FTPR-N
100
AcDbPolyline
90
5
70
1
43
0
38
0
39
0
10
1273479.7268294569
20
444433.1406184275
10
1273491.6151396574
20
444409.80160405993
10
1273532.4389335376
20
444430.5962236424
10
1273520.550623337
20
444453.93523800996
10
1273479.7268294569
20
444433.1406184275
0
LWPOLYLINE
5
43
330
C
100
AcDbEntity
8
C-PVMT
100
AcDbPolyline
90
5
70
1
43
0
38
0
39
0
10
1273460.3545372721
20
444414.6236086931
10
1273465.8015772745
20
444403.93003300996
10
1273488.5253507886
20
444415.8674473619
10
1273483.0783107863
20
444426.561023045
10
1273460.3545372721
20
444414.6236086931
0
LWPOLYLINE
5
44
330
C
100
AcDbEntity
8
C-PVMT
100
AcDbPolyline
90
5
70
1
43
0
38
0
39
0
10
1273486.6777284432
20
444420.54478020035
10
1273482.2513349906
20
444418.2194757039
10
1273486.8089318038
20
444409.5437445365
10
1273491.2353252564
20
444411.869049033
10
1273486.6777284432
20
444420.54478020035
0
LWPOLYLINE
5
45
330
C
100
AcDbEntity
8
C-PVMT
100
AcDbPolyline
90
5
70
1
43
0
38
0
39
0
10
1273480.3686698393
20
444422.8783996062
10
1273484.089157034
20
444415.7961700818
10
1273487.6302717961
20
444417.656413679
10
1273483.9097846015
20
444424.7386432034
10
1273480.3686698393
20
444422.8783996062
0
LWPOLYLINE
5
46
330
C
100
AcDbEntity
8
C-PVMT
100
AcDbPolyline
90
5
70
1
43
0
38
0
39
0
10
1273448.5375726754
20
444439.4057918865
10
1273481.5669838921
20
444376.53180279053
10
1273484.2228199637
20
444377.92698548845
10
1273451.193408747
20
444440.8009745844
10
1273448.5375726754
20
444439.4057918865
0
LWPOLYLINE
5
47
330
C
100
AcDbEntity
8
C-TOPO-SURF
100
AcDbPolyline
90
5
70
1
43
0
38
0
39
0
10
1273444.9964579132
20
444437.5455482893
10
1273478.02586913
20
444374.67155919335
10
1273481.5669838921
20
444376.53180279053
10
1273448.5375726754
20
444439.4057918865
10
1273444.9964579132
20
444437.5455482893
0
LWPOLYLINE
5
48
330
C
100
AcDbEntity
8
C-PVMT
100
AcDbPolyline
90
5
70
1
43
0
38
0
39
0
10
1273443.6685398773
20
444436.84795694036
10
1273476.697951094
20
444373.9739678444
10
1273478.02586913
20
444374.67155919335
10
1273444.9964579132
20
444437.5455482893
10
1273443.6685398773
20
444436.84795694036
0
LWPOLYLINE
5
49
330
C
100
AcDbEntity
8
C-PVMT
100
AcDbPolyline
90
5
70
1
43
0
38
0
39
0
10
1273462.2621796909
20
444398.7609117719
10
1273454.0922666076
20
444414.8000052691
10
1273463.0279351617
20
444415.9848375311
10
1273468.474543884
20
444405.292108533
10
1273462.2621796909
20
444398.7609117719
0
LWPOLYLINE
5
4A
330
C
100
AcDbEntity
8
C-LODS
100
AcDbPolyline
90
11
70
1
43
0
38
0
39
0
10
1273443.6685398773
20
444436.84795694036
10
1273454.0922666076
20
444414.8000052691
10
1273462.2621796909
20
444398.7609117719
10
1273476.697951094
20
444373.9739678444
10
1273478.02586913
20
444374.67155919335
10
1273481.5669838921
20
444376.53180279053
10
1273484.2228199637
20
444377.92698548845
10
1273532.4389335376
20
444430.5962236424
10
1273520.550623337
20
444453.93523800996
10
1273451.193408747
20
444440.8009745844
10
1273443.6685398773
20
444436.84795694036
0
LWPOLYLINE
5
4B
330
C
100
AcDbEntity
8
C-SITE-N
100
AcDbPolyline
90
8
70
1
43
0
38
0
39
0
10
1273585.0856353801
20
444447.9312145889
10
1273529.7674485745
20
444414.8560830215
10
1273484.3508594008
20
444380.6851191946
10
1273473.1537897524
20
444400.4383851034
10
1273462.7552866293
20
444420.4302731511
10
1273453.4891866178
20
444438.7118759226
10
1273565.2415684776
20
444491.59148115217
10
1273585.0856353801
20
444447.9312145889
0
POINT
5
4C
330
C
100
AcDbEntity
8
C-TOPO-SPOT
100
AcDbPoint
10
1273517.2552136919
20
444429.7757462782
30
0
0
LWPOLYLINE
5
4D
330
C
100
AcDbEntity
8
C-UTIL
100
AcDbPolyline
90
2
70
0
43
0
38
0
39
0
10
1273433.319507083
20
444408.07874028647
10
1273481.0884816374
20
444430.46743617795
0
LWPOLYLINE
5
4E
330
C
100
AcDbEntity
8
C-UTIL
100
AcDbPolyline
90
2
70
0
43
0
38
0
39
0
10
1273437.5610904489
20
444399.0288121951
10
1273485.627322239
20
444421.55682867946
0
LWPOLYLINE
5
4F
330
C
100
AcDbEntity
8
C-SWMG
100
AcDbPolyline
90
5
70
1
43
0
38
0
39
0
10
1273489.488793184
20
444391.91479039966
10
1273503.98016993
20
444391.91479039966
10
1273503.98016993
20
444406.4061671459
10
1273489.488793184
20
444406.4061671459
10
1273489.488793184
20
444391.91479039966
0
LWPOLYLINE
5
50
330
C
100
AcDbEntity
8
C-STRM-AREA
100
AcDbPolyline
90
8
70
1
43
0
38
0
39
0
10
1273589.9156139316
20
444449.22400505596
10
1273532.9803544544
20
444411.02499495045
10
1273481.5669838921
20
444376.53180279053
10
1273468.9907699737
20
444397.66904107964
10
1273457.827214942
20
444419.5852231849
10
1273448.5375726754
20
444439.4057918865
10
1273568.3075857337
20
444495.5411062211
10
1273589.9156139316
20
444449.22400505596
0
LWPOLYLINE
5
51
330
C
100
AcDbEntity
8
L-PLNT-TREE
100
AcDbPolyline
90
5
70
1
43
0
38
0
39
0
10
1273443.6549894663
20
444422.3735721174
10
1273453.6549894663
20
444422.3735721174
10
1273453.6549894663
20
444432.3735721174
10
1273443.6549894663
20
444432.3735721174
10
1273443.6549894663
20
444422.3735721174
0
LWPOLYLINE
5
52
330
C
100
AcDbEntity
8
L-PLNT-TREE
100
AcDbPolyline
90
5
70
1
43
0
38
0
39
0
10
1273532.4489756455
20
444447.8527684306
10
1273544.4489756455
20
444447.8527684306
10
1273544.4489756455
20
444459.8527684306
10
1273532.4489756455
20
444459.8527684306
10
1273532.4489756455
20
444447.8527684306
0
ENDSEC
0
SECTION
2
OBJECTS
0
DICTIONARY
5
A
330
0
100
AcDbDictionary
281
1
3
ACAD_GROUP
350
B
0
DICTIONARY
5
B
330
A
100
AcDbDictionary
281
0
0
ENDSEC
0
EOF