<svg xmlns="http://www.w3.org/2000/svg" viewBox="0 0 620 180" role="img" aria-label="kealee">
  <title>kealee</title>
  <defs>
    <!-- light brown -> copper orange, left to right (D-1 flat style) -->
    <linearGradient id="kealeeFill" x1="38" y1="90" x2="600" y2="90" gradientUnits="userSpaceOnUse">
      <stop offset="0%" stop-color="#9c6c42"/>
      <stop offset="45%" stop-color="#b67d45"/>
      <stop offset="100%" stop-color="#cf8d4c"/>
    </linearGradient>
    <filter id="kealeeShadow" x="-8%" y="-8%" width="116%" height="124%">
      <feDropShadow dx="0" dy="3" stdDeviation="3" flood-color="#5a3a22" flood-opacity="0.18"/>
    </filter>
    <style>
      .fill,
      .shine {
        fill: none;
        stroke-linecap: round;
        stroke-linejoin: round;
      }

      .fill {
        stroke: url(#kealeeFill);
        stroke-width: 40;
      }

      .shine {
        stroke: #fbe6cd;
        stroke-width: 6;
        opacity: .28;
      }
    </style>
  </defs>

  <g filter="url(#kealeeShadow)">
    <g aria-hidden="true">
      <path class="fill" d="M54 132 C54 106 54 74 54 48 M78 94 C95 74 108 61 122 52 M78 96 C96 111 111 124 128 134"/>
      <path class="fill" d="M218 94 C216 73 198 58 174 58 C147 58 127 78 127 104 C127 128 148 142 176 138 C195 136 210 126 216 112 M151 96 C168 90 190 90 211 96"/>
      <path class="fill" d="M318 96 C318 72 299 57 275 58 C249 59 230 79 230 104 C230 128 250 140 274 138 C294 136 311 123 316 104 M318 80 C316 100 317 118 320 133"/>
      <path class="fill" d="M367 132 C367 106 367 74 367 48"/>
      <path class="fill" d="M475 94 C473 73 455 58 431 58 C404 58 384 78 384 104 C384 128 405 142 433 138 C452 136 467 126 473 112 M408 96 C425 90 447 90 468 96"/>
      <path class="fill" d="M590 94 C588 73 570 58 546 58 C519 58 499 78 499 104 C499 128 520 142 548 138 C567 136 582 126 588 112 M523 96 C540 90 562 90 583 96"/>
    </g>

    <g aria-hidden="true">
      <path class="shine" d="M48 56 C48 78 48 100 48 120"/>
      <path class="shine" d="M142 86 C149 75 161 70 175 70 C188 70 199 75 206 84"/>
      <path class="shine" d="M244 86 C252 75 263 70 276 70 C291 70 303 77 309 89"/>
      <path class="shine" d="M361 56 C361 78 361 100 361 120"/>
      <path class="shine" d="M399 86 C406 75 418 70 432 70 C445 70 456 75 463 84"/>
      <path class="shine" d="M514 86 C521 75 533 70 547 70 C560 70 571 75 578 84"/>
    </g>
  </g>
</svg>
