0
SECTION
2
HEADER
9
$ACADVER
1
AC1021
9
$LASTSAVEDBY
1
@tarikjabiri/dxf
9
$HANDSEED
5
70
9
$INSUNITS
70
0
9
$CLAYER
8
0
9
$VIEWCTR
10
1269251.1334217358
20
515329.67832637765
0
ENDSEC
0
SECTION
2
CLASSES
0
ENDSEC
0
SECTION
2
TABLES
0
TABLE
2
VPORT
5
1
330
0
100
AcDbSymbolTable
70
1
0
VPORT
5
19
330
1
100
AcDbSymbolTableRecord
100
AcDbViewportTableRecord
2
*Active
70
0
10
0
20
0
11
1
21
1
12
1269251.1334217358
22
515329.67832637765
13
0
23
0
14
10
24
10
15
10
25
10
16
0
26
0
36
1
17
0
27
0
37
0
40
441.1006527431309
41
2
42
50
43
0
44
0
50
0
51
0
71
0
72
100
73
1
74
3
75
0
76
1
77
0
78
0
281
0
65
1
110
0
120
0
130
0
111
1
121
0
131
0
112
0
122
1
132
0
79
0
146
0
348
10020
60
7
61
5
292
1
282
1
141
0
142
0
63
250
421
3358443
0
ENDTAB
0
TABLE
2
LTYPE
5
2
330
0
100
AcDbSymbolTable
70
7
0
LTYPE
5
12
330
2
100
AcDbSymbolTableRecord
100
AcDbLinetypeTableRecord
2
ByBlock
70
0
3

72
65
73
0
40
0
0
LTYPE
5
13
330
2
100
AcDbSymbolTableRecord
100
AcDbLinetypeTableRecord
2
ByLayer
70
0
3

72
65
73
0
40
0
0
LTYPE
5
14
330
2
100
AcDbSymbolTableRecord
100
AcDbLinetypeTableRecord
2
Continuous
70
0
3
Solid line
72
65
73
0
40
0
0
LTYPE
5
1A
330
2
100
AcDbSymbolTableRecord
100
AcDbLinetypeTableRecord
2
DASHED
70
0
3
Dashed __ __ __ __ __ __
72
65
73
2
40
6
49
4
74
0
49
-2
74
0
0
LTYPE
5
1B
330
2
100
AcDbSymbolTableRecord
100
AcDbLinetypeTableRecord
2
HIDDEN
70
0
3
Hidden __ __ __ __ __
72
65
73
2
40
3
49
2
74
0
49
-1
74
0
0
LTYPE
5
1C
330
2
100
AcDbSymbolTableRecord
100
AcDbLinetypeTableRecord
2
PHANTOM
70
0
3
Phantom ____ _ _ ____ _ _
72
65
73
6
40
13
49
8
74
0
49
-1
74
0
49
1
74
0
49
-1
74
0
49
1
74
0
49
-1
74
0
0
LTYPE
5
1D
330
2
100
AcDbSymbolTableRecord
100
AcDbLinetypeTableRecord
2
DASHDOT
70
0
3
Dash dot __ . __ . __ .
72
65
73
4
40
8
49
4
74
0
49
-2
74
0
49
0
74
0
49
-2
74
0
0
ENDTAB
0
TABLE
2
LAYER
5
3
330
0
100
AcDbSymbolTable
70
14
0
LAYER
5
15
330
3
100
AcDbSymbolTableRecord
100
AcDbLayerTableRecord
2
0
70
0
62
7
6
Continuous
370
0
390
0
0
LAYER
5
1E
330
3
100
AcDbSymbolTableRecord
100
AcDbLayerTableRecord
2
C-BLDG-FTPR-N
70
0
62
6
6
Continuous
370
0
390
0
0
LAYER
5
1F
330
3
100
AcDbSymbolTableRecord
100
AcDbLayerTableRecord
2
C-LODS
70
0
62
30
6
PHANTOM
370
0
390
0
0
LAYER
5
20
330
3
100
AcDbSymbolTableRecord
100
AcDbLayerTableRecord
2
C-PVMT
70
0
62
8
6
Continuous
370
0
390
0
0
LAYER
5
21
330
3
100
AcDbSymbolTableRecord
100
AcDbLayerTableRecord
2
C-SITE-N
70
0
62
6
6
Continuous
370
0
390
0
0
LAYER
5
22
330
3
100
AcDbSymbolTableRecord
100
AcDbLayerTableRecord
2
C-STRM-AREA
70
0
62
150
6
PHANTOM
370
0
390
0
0
LAYER
5
23
330
3
100
AcDbSymbolTableRecord
100
AcDbLayerTableRecord
2
C-SWMG
70
0
62
92
6
Continuous
370
0
390
0
0
LAYER
5
24
330
3
100
AcDbSymbolTableRecord
100
AcDbLayerTableRecord
2
C-TOPO-MAJR-E
70
0
62
32
6
DASHED
370
0
390
0
0
LAYER
5
25
330
3
100
AcDbSymbolTableRecord
100
AcDbLayerTableRecord
2
C-TOPO-SPOT
70
0
62
7
6
Continuous
370
0
390
0
0
LAYER
5
26
330
3
100
AcDbSymbolTableRecord
100
AcDbLayerTableRecord
2
C-TOPO-SURF
70
0
62
253
6
Continuous
370
0
390
0
0
LAYER
5
27
330
3
100
AcDbSymbolTableRecord
100
AcDbLayerTableRecord
2
C-UTIL
70
0
62
4
6
DASHED
370
0
390
0
0
LAYER
5
28
330
3
100
AcDbSymbolTableRecord
100
AcDbLayerTableRecord
2
L-PLNT-TREE
70
0
62
90
6
Continuous
370
0
390
0
0
LAYER
5
29
330
3
100
AcDbSymbolTableRecord
100
AcDbLayerTableRecord
2
V-PROP-BNDY
70
0
62
7
6
Continuous
370
0
390
0
0
LAYER
5
2A
330
3
100
AcDbSymbolTableRecord
100
AcDbLayerTableRecord
2
C-ANNO-NPLT
70
0
62
250
6
Continuous
370
0
390
0
0
ENDTAB
0
TABLE
2
STYLE
5
4
330
0
100
AcDbSymbolTable
70
1
0
STYLE
5
16
330
4
100
AcDbSymbolTableRecord
100
AcDbTextStyleTableRecord
2
Standard
70
0
40
0
41
1
50
0
71
0
42
1
3
txt
4

0
ENDTAB
0
TABLE
2
VIEW
5
5
330
0
100
AcDbSymbolTable
70
0
0
ENDTAB
0
TABLE
2
UCS
5
6
330
0
100
AcDbSymbolTable
70
0
0
ENDTAB
0
TABLE
2
APPID
5
7
330
0
100
AcDbSymbolTable
70
1
0
APPID
5
17
330
7
100
AcDbSymbolTableRecord
100
AcDbRegAppTableRecord
2
ACAD
70
0
0
ENDTAB
0
TABLE
2
DIMSTYLE
5
8
330
0
100
AcDbSymbolTable
70
1
100
AcDbDimStyleTable
0
DIMSTYLE
105
18
330
8
100
AcDbSymbolTableRecord
100
AcDbDimStyleTableRecord
2
Standard
70
0
340
16
0
ENDTAB
0
TABLE
2
BLOCK_RECORD
5
9
330
0
100
AcDbSymbolTable
70
2
0
BLOCK_RECORD
5
C
330
9
100
AcDbSymbolTableRecord
100
AcDbBlockTableRecord
2
*Model_Space
70
0
280
1
281
0
0
BLOCK_RECORD
5
F
330
9
100
AcDbSymbolTableRecord
100
AcDbBlockTableRecord
2
*Paper_Space
70
0
280
1
281
0
0
ENDTAB
0
ENDSEC
0
SECTION
2
BLOCKS
0
BLOCK
5
D
330
C
100
AcDbEntity
8
0
100
AcDbBlockBegin
2
*Model_Space
70
0
10
0
20
0
30
0
3
*Model_Space
1

0
ENDBLK
5
E
100
AcDbEntity
8
0
100
AcDbBlockEnd
0
BLOCK
5
10
330
F
100
AcDbEntity
8
0
100
AcDbBlockBegin
2
*Paper_Space
70
0
10
0
20
0
30
0
3
*Paper_Space
1

0
ENDBLK
5
11
100
AcDbEntity
8
0
100
AcDbBlockEnd
0
ENDSEC
0
SECTION
2
ENTITIES
0
TEXT
5
2B
330
C
100
AcDbEntity
8
C-ANNO-NPLT
100
AcDbText
10
1269174.9755000025
20
515229.1280000061
30
0
40
2.5
1
PRELIMINARY - NOT SEALED - NOT FOR CONSTRUCTION OR PERMIT SUBMISSION
7
STANDARD
100
AcDbText
0
TEXT
5
2C
330
C
100
AcDbEntity
8
C-ANNO-NPLT
100
AcDbText
10
1269174.9755000025
20
515225.1280000061
30
0
40
2.5
1
GENERATED 2026-09-26T00:48:14.481Z BY KEALEE SITE PLAN ENGINE
7
STANDARD
100
AcDbText
0
TEXT
5
2D
330
C
100
AcDbEntity
8
C-ANNO-NPLT
100
AcDbText
10
1269174.9755000025
20
515221.1280000061
30
0
40
2.5
1
HORIZONTAL: EPSG:2248
7
STANDARD
100
AcDbText
0
TEXT
5
2E
330
C
100
AcDbEntity
8
C-ANNO-NPLT
100
AcDbText
10
1269174.9755000025
20
515217.1280000061
30
0
40
2.5
1
VERTICAL: NAVD88 (feet)
7
STANDARD
100
AcDbText
0
TEXT
5
2F
330
C
100
AcDbEntity
8
C-ANNO-NPLT
100
AcDbText
10
1269174.9755000025
20
515213.1280000061
30
0
40
2.5
1
SOURCES: Parcel boundary — jurisdiction gis (M-NCPPC Montgomery Planning — parcels (SDAT), level 1); Existing contours (M-NCPPC Montgomery Planning — backgrounds/Contours_2ft/MapServer/1 — Contours (2-ft, 2023), level 1)
7
STANDARD
100
AcDbText
0
TEXT
5
30
330
C
100
AcDbEntity
8
C-ANNO-NPLT
100
AcDbText
10
1269174.9755000025
20
515209.1280000061
30
0
40
2.5
1
THIS FILE IS DATA FOR A LICENSED PROFESSIONAL. IT IS NOT A SEALED DRAWING.
7
STANDARD
100
AcDbText
0
LWPOLYLINE
5
31
330
C
100
AcDbEntity
8
V-PROP-BNDY
100
AcDbPolyline
90
8
70
1
43
0
38
0
39
0
10
1269387.7843478322
20
515492.92055238783
10
1269386.6849448085
20
515483.48003812134
10
1269372.2502597868
20
515359.5313176662
10
1269225.750121951
20
515271.9999874681
10
1269199.8747910112
20
515498.68746475875
10
1269269.327287361
20
515500.00803360343
10
1269388.8746471703
20
515502.2812756002
10
1269387.7843478322
20
515492.92055238783
0
LWPOLYLINE
5
32
330
C
100
AcDbEntity
8
C-TOPO-MAJR-E
100
AcDbPolyline
90
3
70
0
43
0
38
0
39
0
10
1269182.8330000043
20
515420.00450000167
10
1269182.7830000073
20
515419.97349999845
10
1269179.1504999995
20
515416.0310000032
0
LWPOLYLINE
5
33
330
C
100
AcDbEntity
8
C-TOPO-MAJR-E
100
AcDbPolyline
90
15
70
0
43
0
38
0
39
0
10
1269272.0189999938
20
515525.9264999926
10
1269272.5744999945
20
515519.3710000068
10
1269274.7485000044
20
515517.57150000334
10
1269279.9444999993
20
515515.82950000465
10
1269282.538499996
20
515515.1860000044
10
1269286.240500003
20
515513.54950000346
10
1269289.9584999979
20
515509.0655000061
10
1269290.4814999998
20
515507.65700000525
10
1269290.8704999983
20
515505.1655000001
10
1269292.7789999992
20
515495.9580000043
10
1269293.9494999945
20
515493.67350000143
10
1269296.7539999932
20
515488.0799999982
10
1269297.8055000007
20
515486.69650000334
10
1269301.0799999982
20
515483.75
10
1269301.6054999977
20
515482.91899999976
0
LWPOLYLINE
5
34
330
C
100
AcDbEntity
8
C-TOPO-MAJR-E
100
AcDbPolyline
90
17
70
0
43
0
38
0
39
0
10
1269293.0799999982
20
515251.48849999905
10
1269292.0709999949
20
515252.3289999962
10
1269291.251000002
20
515254.0900000036
10
1269292.7660000026
20
515255.63899999857
10
1269293.6560000032
20
515255.8314999938
10
1269295.724999994
20
515255.4360000044
10
1269296.071999997
20
515255.3575000018
10
1269298.5785000026
20
515255.35649999976
10
1269303.0810000002
20
515255.50349999964
10
1269303.627000004
20
515255.4619999975
10
1269304.8470000029
20
515255.3805000037
10
1269309.865500003
20
515255.67049999535
10
1269310.3024999946
20
515255.6030000001
10
1269312.1379999965
20
515254.71649999917
10
1269315.75
20
515252.7689999938
10
1269317.3059999943
20
515252.4494999945
10
1269321.1805000007
20
515251.736499995
0
LWPOLYLINE
5
35
330
C
100
AcDbEntity
8
C-TOPO-MAJR-E
100
AcDbPolyline
90
5
70
0
43
0
38
0
39
0
10
1269345.2824999988
20
515422.1030000001
10
1269342.7319999933
20
515420.27899999917
10
1269342.1595000029
20
515418.0230000019
10
1269343.5300000012
20
515413.74250000715
10
1269345.3924999982
20
515411.06299999356
0
LWPOLYLINE
5
36
330
C
100
AcDbEntity
8
C-TOPO-MAJR-E
100
AcDbPolyline
90
27
70
0
43
0
38
0
39
0
10
1269410.451000005
20
515339.263500005
10
1269406.6720000058
20
515341.59049999714
10
1269398.9315000027
20
515343.21799999475
10
1269398.3560000062
20
515343.11599999666
10
1269394.523000002
20
515339.60400000215
10
1269389.5415000021
20
515337.549999997
10
1269382.7070000023
20
515338.8534999937
10
1269376.6215000004
20
515342.326000005
10
1269374.7734999955
20
515342.63500000536
10
1269366.862499997
20
515339.01850000024
10
1269365.2719999999
20
515337.2335000038
10
1269362.6324999928
20
515334.9919999987
10
1269362.1679999977
20
515334.8014999926
10
1269357.7099999934
20
515332.2090000063
10
1269352.1700000018
20
515329.048999995
10
1269344.9570000023
20
515327.3969999999
10
1269336.7539999932
20
515327.2325000018
10
1269332.9044999927
20
515327.3490000069
10
1269327.6289999932
20
515327.3299999982
10
1269321.1659999937
20
515327.2814999968
10
1269312.8680000007
20
515327.61349999905
10
1269307.238499999
20
515328.4255000055
10
1269300.446999997
20
515330.3924999982
10
1269296.364500001
20
515330.637500003
10
1269293.8460000008
20
515328.7475000024
10
1269290.7314999998
20
515324.9819999933
10
1269290.275999993
20
515324.76000000536
0
LWPOLYLINE
5
37
330
C
100
AcDbEntity
8
C-TOPO-MAJR-E
100
AcDbPolyline
90
13
70
0
43
0
38
0
39
0
10
1269392.886500001
20
515249.1280000061
10
1269389.759499997
20
515252.61599999666
10
1269380.365500003
20
515254.07700000703
10
1269378.6089999974
20
515253.84049999714
10
1269372.4109999985
20
515253.47599999607
10
1269367.615500003
20
515255.56749999523
10
1269363.4775000066
20
515259.05099999905
10
1269357.6570000052
20
515261.5505000055
10
1269353.737499997
20
515260.0349999964
10
1269351.7415000051
20
515257.5814999938
10
1269349.702000007
20
515255.3439999968
10
1269344.987499997
20
515252.24650000036
10
1269342.1165000051
20
515250.8534999937
0
LWPOLYLINE
5
38
330
C
100
AcDbEntity
8
C-TOPO-MAJR-E
100
AcDbPolyline
90
15
70
0
43
0
38
0
39
0
10
1269337.5709999949
20
515361.12049999833
10
1269335.238499999
20
515362.93299999833
10
1269326.4220000058
20
515371.26950000226
10
1269321.4784999937
20
515372.4915000051
10
1269319.2845000029
20
515372.21649999917
10
1269234.8824999928
20
515362.9594999999
10
1269223.5690000057
20
515359.6155000031
10
1269210.6985000074
20
515357.9629999995
10
1269204.8159999996
20
515354.5039999932
10
1269200.585500002
20
515339.4564999938
10
1269198.6469999999
20
515339.18700000644
10
1269189.9975000024
20
515338.2080000043
10
1269188.1005000025
20
515333.36200000346
10
1269187.7185000032
20
515332.0879999995
10
1269186.960500002
20
515330.68299999833
0
LWPOLYLINE
5
39
330
C
100
AcDbEntity
8
C-TOPO-MAJR-E
100
AcDbPolyline
90
18
70
0
43
0
38
0
39
0
10
1269337.8090000004
20
515338.1075000018
10
1269335.0694999993
20
515337.72650000453
10
1269330.8639999926
20
515337.7754999995
10
1269325.964499995
20
515339.14749999344
10
1269324.651999995
20
515341.08200000226
10
1269321.8125
20
515345.4549999982
10
1269317.8599999994
20
515348.4969999939
10
1269308.0160000026
20
515350.0555000007
10
1269303.6504999995
20
515349.3330000043
10
1269263.672999993
20
515342.9934999943
10
1269256.974999994
20
515342.26299999654
10
1269229.111499995
20
515341.8344999999
10
1269216.7280000001
20
515338.2090000063
10
1269211.536500007
20
515331.4915000051
10
1269207.6389999986
20
515331.27099999785
10
1269191.0279999971
20
515333.4975000024
10
1269189.690500006
20
515331.18700000644
10
1269189.5314999968
20
515330.70849999785
0
LWPOLYLINE
5
3A
330
C
100
AcDbEntity
8
C-TOPO-MAJR-E
100
AcDbPolyline
90
8
70
0
43
0
38
0
39
0
10
1269355.303000003
20
515317.123999998
10
1269354.2569999993
20
515314.3400000036
10
1269351.1379999965
20
515310.8314999938
10
1269348.510499999
20
515312.98049999774
10
1269347.8904999942
20
515315.9035000056
10
1269348.7319999933
20
515317.2325000018
10
1269354.5840000063
20
515318.41349999607
10
1269355.303000003
20
515317.123999998
0
LWPOLYLINE
5
3B
330
C
100
AcDbEntity
8
C-TOPO-MAJR-E
100
AcDbPolyline
90
10
70
0
43
0
38
0
39
0
10
1269345.3924999982
20
515411.06299999356
10
1269346.135499999
20
515409.9944999963
10
1269349.9305000007
20
515408.05500000715
10
1269355.690500006
20
515405.7335000038
10
1269356.1169999987
20
515404.9889999926
10
1269355.298999995
20
515401.2925000042
10
1269353.4379999936
20
515398.8449999988
10
1269351.815500006
20
515398.3955000043
10
1269347.0610000044
20
515398.0974999964
10
1269343.100999996
20
515396.5910000056
0
LWPOLYLINE
5
3C
330
C
100
AcDbEntity
8
C-TOPO-MAJR-E
100
AcDbPolyline
90
7
70
0
43
0
38
0
39
0
10
1269186.960500002
20
515330.68299999833
10
1269185.4089999944
20
515327.8059999943
10
1269183.3484999985
20
515324.85549999774
10
1269180.7909999937
20
515321.94900000095
10
1269180.0910000056
20
515320.4699999988
10
1269179.898000002
20
515318.3665000051
10
1269179.4315000027
20
515314.6574999988
0
LWPOLYLINE
5
3D
330
C
100
AcDbEntity
8
C-TOPO-MAJR-E
100
AcDbPolyline
90
6
70
0
43
0
38
0
39
0
10
1269299.7674999982
20
515250.7650000006
10
1269298.9109999985
20
515252.2230000049
10
1269300.4860000014
20
515252.67849999666
10
1269301.6870000064
20
515252.5625
10
1269303.2674999982
20
515252.2205000073
10
1269307.0879999995
20
515251.8719999939
0
LWPOLYLINE
5
3E
330
C
100
AcDbEntity
8
C-TOPO-MAJR-E
100
AcDbPolyline
90
3
70
0
43
0
38
0
39
0
10
1269342.6800000072
20
515483.32950000465
10
1269345.946999997
20
515475.13099999726
10
1269346.9140000045
20
515472.2230000049
0
LWPOLYLINE
5
3F
330
C
100
AcDbEntity
8
C-TOPO-MAJR-E
100
AcDbPolyline
90
2
70
0
43
0
38
0
39
0
10
1269183.7314999998
20
515332.1334999949
10
1269178.188500002
20
515327.0215000063
0
LWPOLYLINE
5
40
330
C
100
AcDbEntity
8
C-TOPO-MAJR-E
100
AcDbPolyline
90
21
70
0
43
0
38
0
39
0
10
1269245.4204999954
20
515325.5789999962
10
1269227.2099999934
20
515323.8710000068
10
1269223.5234999955
20
515322.77249999344
10
1269216.6404999942
20
515323.3464999944
10
1269191.9179999977
20
515329.42749999464
10
1269191.4399999976
20
515328.79399999976
10
1269191.1330000013
20
515327.34450000525
10
1269190.674999997
20
515324.23299999535
10
1269189.7810000032
20
515318.5814999938
10
1269189.2715000063
20
515313.5205000043
10
1269189.0514999926
20
515311.7674999982
10
1269188.412499994
20
515308.59849999845
10
1269187.3474999964
20
515302.16099999845
10
1269187.1704999954
20
515300.8735000044
10
1269186.1120000035
20
515295.0600000024
10
1269185.1284999996
20
515290.75
10
1269184.161500007
20
515286.0649999976
10
1269183.3205000013
20
515282.28049999475
10
1269182.1930000037
20
515278.5425000042
10
1269180.0460000038
20
515272.076000005
10
1269177.8419999927
20
515267.1219999939
0
LWPOLYLINE
5
41
330
C
100
AcDbEntity
8
C-TOPO-MAJR-E
100
AcDbPolyline
90
3
70
0
43
0
38
0
39
0
10
1269248.986499995
20
515325.69499999285
10
1269247.452000007
20
515325.76950000226
10
1269245.4204999954
20
515325.5789999962
0
LWPOLYLINE
5
42
330
C
100
AcDbEntity
8
C-TOPO-MAJR-E
100
AcDbPolyline
90
7
70
0
43
0
38
0
39
0
10
1269288.0565000027
20
515482.7830000073
10
1269288.149000004
20
515482.5900000036
10
1269289.1835000068
20
515480.9525000006
10
1269289.1319999993
20
515479.74799999595
10
1269280.9995000064
20
515474.31999999285
10
1269279.8900000006
20
515473.82649999857
10
1269264.837500006
20
515473.3830000013
0
LWPOLYLINE
5
43
330
C
100
AcDbEntity
8
C-TOPO-MAJR-E
100
AcDbPolyline
90
9
70
0
43
0
38
0
39
0
10
1269174.9755000025
20
515510.69349999726
10
1269186.5285000056
20
515509.875
10
1269191.0209999979
20
515508.8400000036
10
1269195.3879999965
20
515507.3530000001
10
1269197.2724999934
20
515506.2604999989
10
1269199.6700000018
20
515501.99250000715
10
1269196.809499994
20
515495.7894999981
10
1269180.4414999932
20
515481.673999995
10
1269175.8914999962
20
515482.0219999999
0
LWPOLYLINE
5
44
330
C
100
AcDbEntity
8
C-TOPO-MAJR-E
100
AcDbPolyline
90
11
70
0
43
0
38
0
39
0
10
1269253.898000002
20
515307.47750000656
10
1269253.8414999992
20
515309.9430000037
10
1269253.8159999996
20
515312.01950000226
10
1269253.6650000066
20
515312.6914999932
10
1269242.4909999967
20
515312.62450000644
10
1269236.9274999946
20
515310.3474999964
10
1269237.4130000025
20
515306.23049999774
10
1269238.5919999927
20
515304.95149999857
10
1269245.7960000038
20
515304.58499999344
10
1269250.7610000074
20
515305.1075000018
10
1269253.898000002
20
515307.47750000656
0
LWPOLYLINE
5
45
330
C
100
AcDbEntity
8
C-TOPO-MAJR-E
100
AcDbPolyline
90
2
70
0
43
0
38
0
39
0
10
1269261.9399999976
20
515325.06599999964
10
1269248.986499995
20
515325.69499999285
0
LWPOLYLINE
5
46
330
C
100
AcDbEntity
8
C-TOPO-MAJR-E
100
AcDbPolyline
90
6
70
0
43
0
38
0
39
0
10
1269262.9919999987
20
515473.0785000026
10
1269260.4064999968
20
515472.4099999964
10
1269253.5919999927
20
515469.423999995
10
1269247.3754999936
20
515466.7134999931
10
1269189.2689999938
20
515440.9689999968
10
1269186.5995000005
20
515437.576000005
0
LWPOLYLINE
5
47
330
C
100
AcDbEntity
8
C-TOPO-MAJR-E
100
AcDbPolyline
90
10
70
0
43
0
38
0
39
0
10
1269301.6054999977
20
515482.91899999976
10
1269313.0199999958
20
515464.87150000036
10
1269315.4074999988
20
515447.2950000018
10
1269314.6755000055
20
515441.9564999938
10
1269311.3579999954
20
515436.6519999951
10
1269225.3005000055
20
515434.1180000007
10
1269209.964499995
20
515432.63799999654
10
1269183.6204999983
20
515420.4080000073
10
1269183.3334999979
20
515420.31599999964
10
1269182.8330000043
20
515420.00450000167
0
LWPOLYLINE
5
48
330
C
100
AcDbEntity
8
C-TOPO-MAJR-E
100
AcDbPolyline
90
64
70
0
43
0
38
0
39
0
10
1269412.0495000035
20
515259.70049999654
10
1269408.6550000012
20
515262.0995000005
10
1269405.1914999932
20
515266.85400000215
10
1269401.710500002
20
515274.8275000006
10
1269400.8704999983
20
515277.12450000644
10
1269399.410500005
20
515280.5310000032
10
1269397.025999993
20
515282.9699999988
10
1269391.1184999943
20
515283.40000000596
10
1269380.275000006
20
515283.53849999607
10
1269376.6835000068
20
515284.46950000525
10
1269368.1550000012
20
515287.01399999857
10
1269363.1060000062
20
515286.8719999939
10
1269360.086500004
20
515286.2674999982
10
1269354.6379999965
20
515283.59049999714
10
1269353.3830000013
20
515281.20149999857
10
1269352.9745000005
20
515279.7325000018
10
1269351.7524999976
20
515276.02349999547
10
1269349.9319999963
20
515271.67049999535
10
1269349.288499996
20
515270.7475000024
10
1269345.6305000037
20
515267.3285000026
10
1269343.7275000066
20
515265.06200000644
10
1269341.8684999943
20
515260.72750000656
10
1269340.0215000063
20
515255.7754999995
10
1269338.3065000027
20
515253.6764999926
10
1269337.1685000062
20
515253.22599999607
10
1269336.5764999986
20
515253.1860000044
10
1269335.5014999956
20
515253.23700000346
10
1269328.7925000042
20
515254.09700000286
10
1269326.1469999999
20
515255.2325000018
10
1269323.4274999946
20
515256.12150000036
10
1269320.8560000062
20
515256.54399999976
10
1269319.4109999985
20
515258.1060000062
10
1269317.887500003
20
515259.90000000596
10
1269316.6504999995
20
515260.69750000536
10
1269312.1149999946
20
515262.8805000037
10
1269308.400999993
20
515261.6599999964
10
1269307.8965000063
20
515261.44249999523
10
1269305.7224999964
20
515261.15150000155
10
1269304.0670000017
20
515261.361499995
10
1269298.1159999967
20
515264.8965000063
10
1269296.2514999956
20
515265.75599999726
10
1269285.175999999
20
515268.1525000036
10
1269282.3410000056
20
515267.1819999963
10
1269277.4335000068
20
515262.4194999933
10
1269272.3799999952
20
515259.96799999475
10
1269268.9995000064
20
515259.50900000334
10
1269265.3299999982
20
515260.24250000715
10
1269258.5470000058
20
515263.6469999999
10
1269251.1620000005
20
515268.8355000019
10
1269242.5185000002
20
515273.7224999964
10
1269236.2150000036
20
515275.77799999714
10
1269229.3955000043
20
515276.3680000007
10
1269221.1580000073
20
515275.19900000095
10
1269214.8595000058
20
515276.5435000062
10
1269211.2629999965
20
515277.2524999976
10
1269202.8199999928
20
515274.9194999933
10
1269200.610499993
20
515273.3219999969
10
1269199.3495000005
20
515271.6755000055
10
1269197.865500003
20
515269.2925000042
10
1269194.177000001
20
515264.49650000036
10
1269191.661500007
20
515262.4555000067
10
1269187.2664999962
20
515259.8020000011
10
1269183.509499997
20
515257.6985000074
10
1269179.2814999968
20
515254.16500000656
0
LWPOLYLINE
5
49
330
C
100
AcDbEntity
8
C-TOPO-MAJR-E
100
AcDbPolyline
90
12
70
0
43
0
38
0
39
0
10
1269189.5314999968
20
515330.70849999785
10
1269188.9375
20
515328.91799999774
10
1269188.0699999928
20
515327.32649999857
10
1269186.3665000051
20
515324.2094999999
10
1269184.975999996
20
515320.14200000465
10
1269184.7664999962
20
515318.48700000346
10
1269184.071999997
20
515313.263500005
10
1269181.900999993
20
515303.55650000274
10
1269181.2674999982
20
515297.84299999475
10
1269181.2814999968
20
515294.63650000095
10
1269180.7465000004
20
515289.1145000011
10
1269179.2919999957
20
515284.28200000525
0
LWPOLYLINE
5
4A
330
C
100
AcDbEntity
8
C-TOPO-MAJR-E
100
AcDbPolyline
90
3
70
0
43
0
38
0
39
0
10
1269264.837500006
20
515473.3830000013
10
1269264.0844999999
20
515473.36100000143
10
1269262.9919999987
20
515473.0785000026
0
LWPOLYLINE
5
4B
330
C
100
AcDbEntity
8
C-TOPO-MAJR-E
100
AcDbPolyline
90
15
70
0
43
0
38
0
39
0
10
1269346.9140000045
20
515472.2230000049
10
1269347.5699999928
20
515470.25
10
1269347.8445000052
20
515463.2240000069
10
1269347.2035000026
20
515455.59999999404
10
1269347.9015000015
20
515446.2580000013
10
1269351.7399999946
20
515434.1030000001
10
1269353.5984999985
20
515429.96150000393
10
1269356.4889999926
20
515423.5869999975
10
1269356.4860000014
20
515422.05500000715
10
1269356.1235000044
20
515420.8544999957
10
1269355.9204999954
20
515420.65299999714
10
1269352.6650000066
20
515420.28900000453
10
1269350.9570000023
20
515421.1305000037
10
1269346.185499996
20
515422.748999998
10
1269345.2824999988
20
515422.1030000001
0
LWPOLYLINE
5
4C
330
C
100
AcDbEntity
8
C-TOPO-MAJR-E
100
AcDbPolyline
90
65
70
0
43
0
38
0
39
0
10
1269412.861499995
20
515302.3455000073
10
1269406.8310000002
20
515305.6145000011
10
1269402.3014999926
20
515308.373999998
10
1269395.321999997
20
515309.02899999917
10
1269387.824000001
20
515307.0894999951
10
1269386.7699999958
20
515307.17450000346
10
1269377.226999998
20
515312.299999997
10
1269368.2660000026
20
515314.3449999988
10
1269363.6254999936
20
515311.63500000536
10
1269361.3034999967
20
515308.8900000006
10
1269361.0090000033
20
515308.6005000025
10
1269357.4399999976
20
515304.8419999927
10
1269352.7039999962
20
515296.8630000055
10
1269351.6774999946
20
515293.9194999933
10
1269350.7495000064
20
515291.6544999927
10
1269348.6360000074
20
515287.3844999969
10
1269347.911500007
20
515284.8139999956
10
1269347.2504999936
20
515278.2604999989
10
1269346.9784999937
20
515277.11349999905
10
1269346.3324999958
20
515275.8110000044
10
1269344.384499997
20
515273.15399999917
10
1269343.2590000033
20
515272.00499999523
10
1269340.0680000037
20
515270.1469999999
10
1269337.336500004
20
515272.063500002
10
1269337.327000007
20
515275.3924999982
10
1269339.961500004
20
515280.53900000453
10
1269340.638500005
20
515281.60400000215
10
1269341.6714999974
20
515284.15700000525
10
1269341.6840000004
20
515285.8505000025
10
1269341.088499993
20
515286.7430000007
10
1269334.5799999982
20
515288.81849999726
10
1269329.0409999937
20
515289.11349999905
10
1269321.3194999993
20
515289.56450000405
10
1269315.1714999974
20
515291.1959999949
10
1269305.7654999942
20
515293.57250000536
10
1269296.262500003
20
515294.0894999951
10
1269290.8209999949
20
515294.7974999994
10
1269289.4165000021
20
515295.15150000155
10
1269285.3484999985
20
515297.0324999988
10
1269283.9290000051
20
515298.1669999957
10
1269276.9459999949
20
515301.80900000036
10
1269272.3819999993
20
515303.5269999951
10
1269267.9619999975
20
515304.0314999968
10
1269262.285500005
20
515299.98450000584
10
1269258.8774999976
20
515297.8069999963
10
1269257.5639999956
20
515297.5910000056
10
1269251.8445000052
20
515298.5569999963
10
1269248.065500006
20
515299.74099999666
10
1269240.627000004
20
515301.2284999937
10
1269236.8264999986
20
515301.85150000453
10
1269235.3120000064
20
515302.58100000024
10
1269228.5464999974
20
515307.50900000334
10
1269221.9050000012
20
515308.3669999987
10
1269207.25
20
515304.7430000007
10
1269199.1420000046
20
515304.43000000715
10
1269195.7970000058
20
515302.31299999356
10
1269193.5254999995
20
515293.96400000155
10
1269192.7574999928
20
515289.5339999944
10
1269190.4169999957
20
515283.35150000453
10
1269189.4640000015
20
515281.4399999976
10
1269187.815500006
20
515277.29000000656
10
1269185.6319999993
20
515270.7650000006
10
1269183.510499999
20
515266.2514999956
10
1269180.7290000021
20
515262.83499999344
10
1269175.724000007
20
515257.7960000038
0
LWPOLYLINE
5
4D
330
C
100
AcDbEntity
8
C-TOPO-MAJR-E
100
AcDbPolyline
90
18
70
0
43
0
38
0
39
0
10
1269412.0150000006
20
515375.4440000057
10
1269408.2094999999
20
515376.9650000036
10
1269398.6944999993
20
515375.90150000155
10
1269389.8795000017
20
515373.6060000062
10
1269384.822999999
20
515375.8069999963
10
1269380.5814999938
20
515377.94099999964
10
1269375.0639999956
20
515377.71549999714
10
1269373.5119999945
20
515376.6455000043
10
1269371.0429999977
20
515372.7569999993
10
1269367.9724999964
20
515366.40000000596
10
1269366.851999998
20
515364.111499995
10
1269362.5474999994
20
515358.125
10
1269358.238499999
20
515353.89849999547
10
1269353.6784999967
20
515349.6630000025
10
1269350.1659999937
20
515344.9200000018
10
1269348.223000005
20
515342.2689999938
10
1269342.0914999992
20
515338.70299999416
10
1269337.8090000004
20
515338.1075000018
0
LWPOLYLINE
5
4E
330
C
100
AcDbEntity
8
C-TOPO-MAJR-E
100
AcDbPolyline
90
2
70
0
43
0
38
0
39
0
10
1269184.7804999948
20
515455.8455000073
10
1269175.3795000017
20
515449.39450000226
0
LWPOLYLINE
5
4F
330
C
100
AcDbEntity
8
C-TOPO-MAJR-E
100
AcDbPolyline
90
4
70
0
43
0
38
0
39
0
10
1269206.6829999983
20
515472.49250000715
10
1269201.752000004
20
515469.51150000095
10
1269193.873999998
20
515462.08599999547
10
1269184.7804999948
20
515455.8455000073
0
LWPOLYLINE
5
50
330
C
100
AcDbEntity
8
C-TOPO-MAJR-E
100
AcDbPolyline
90
13
70
0
43
0
38
0
39
0
10
1269210.9734999985
20
515532.5824999958
10
1269211.5034999996
20
515520.14450000226
10
1269213.3264999986
20
515516.67849999666
10
1269217.9375
20
515513.68950000405
10
1269220.6034999937
20
515512.07649999857
10
1269222.9169999957
20
515511.112499997
10
1269226.4214999974
20
515509.88950000703
10
1269230.6899999976
20
515507.1305000037
10
1269234.225999996
20
515505.8910000026
10
1269237.7800000012
20
515504.9080000073
10
1269242.7660000026
20
515496.1860000044
10
1269240.1085000038
20
515492.6994999945
10
1269206.6829999983
20
515472.49250000715
0
LWPOLYLINE
5
51
330
C
100
AcDbEntity
8
C-TOPO-MAJR-E
100
AcDbPolyline
90
19
70
0
43
0
38
0
39
0
10
1269239.8754999936
20
515522.3410000056
10
1269239.8774999976
20
515519.76549999416
10
1269241.813500002
20
515517.36349999905
10
1269243.509499997
20
515516.21649999917
10
1269245.3710000068
20
515515.4050000012
10
1269249.2954999954
20
515514.6180000007
10
1269251.4934999943
20
515514.6005000025
10
1269254.5400000066
20
515513.9004999995
10
1269261.0304999948
20
515510.85649999976
10
1269271.5349999964
20
515507.1305000037
10
1269276.9214999974
20
515504.9099999964
10
1269277.7845000029
20
515503.70450000465
10
1269278.1525000036
20
515501.07799999416
10
1269279.9360000044
20
515495.6280000061
10
1269284.6764999926
20
515493.3094999939
10
1269285.6139999926
20
515492.73999999464
10
1269285.900999993
20
515492.2325000018
10
1269288.001000002
20
515482.89900000393
10
1269288.0565000027
20
515482.7830000073
0
LWPOLYLINE
5
52
330
C
100
AcDbEntity
8
C-TOPO-MAJR-E
100
AcDbPolyline
90
6
70
0
43
0
38
0
39
0
10
1269290.275999993
20
515324.76000000536
10
1269289.5335000008
20
515324.3980000019
10
1269286.6659999937
20
515323.7849999964
10
1269283.8170000017
20
515323.7839999944
10
1269280.2619999945
20
515324.1764999926
10
1269261.9399999976
20
515325.06599999964
0
LWPOLYLINE
5
53
330
C
100
AcDbEntity
8
C-TOPO-MAJR-E
100
AcDbPolyline
90
18
70
0
43
0
38
0
39
0
10
1269343.100999996
20
515396.5910000056
10
1269339.1305000037
20
515395.08100000024
10
1269337.7430000007
20
515393.7775000036
10
1269336.5824999958
20
515393.71400000155
10
1269335.2810000032
20
515394.8305000067
10
1269334.9409999996
20
515394.9280000031
10
1269334.789499998
20
515394.9115000069
10
1269206.0869999975
20
515382.9290000051
10
1269194.3784999996
20
515374.77799999714
10
1269192.2800000012
20
515374.0964999944
10
1269191.2734999955
20
515373.0285000056
10
1269189.9794999957
20
515347.17049999535
10
1269189.6494999975
20
515347.1075000018
10
1269188.3694999963
20
515345.65150000155
10
1269186.5694999993
20
515335.45700000226
10
1269186.5084999949
20
515335.23450000584
10
1269185.7029999942
20
515333.95200000703
10
1269183.7314999998
20
515332.1334999949
0
LWPOLYLINE
5
54
330
C
100
AcDbEntity
8
C-TOPO-MAJR-E
100
AcDbPolyline
90
9
70
0
43
0
38
0
39
0
10
1269182.912499994
20
515353.2300000042
10
1269182.8235000074
20
515358.29399999976
10
1269182.0830000043
20
515370.237499997
10
1269181.3949999958
20
515378.6319999993
10
1269181.2569999993
20
515383.5405000001
10
1269181.2610000074
20
515389.9360000044
10
1269181.452000007
20
515400.94499999285
10
1269181.2919999957
20
515409.3289999962
10
1269179.3120000064
20
515408.7294999957
0
LWPOLYLINE
5
55
330
C
100
AcDbEntity
8
C-TOPO-MAJR-E
100
AcDbPolyline
90
4
70
0
43
0
38
0
39
0
10
1269178.4214999974
20
515338.71649999917
10
1269181.6264999956
20
515340.89200000465
10
1269182.762500003
20
515345.4194999933
10
1269182.912499994
20
515353.2300000042
0
LWPOLYLINE
5
56
330
C
100
AcDbEntity
8
C-TOPO-MAJR-E
100
AcDbPolyline
90
6
70
0
43
0
38
0
39
0
10
1269186.5995000005
20
515437.576000005
10
1269182.0649999976
20
515431.81200000644
10
1269181.5294999927
20
515430.68150000274
10
1269180.900999993
20
515429.1344999969
10
1269180.1755000055
20
515427.9975000024
10
1269178.6580000073
20
515426.2395000011
0
LWPOLYLINE
5
57
330
C
100
AcDbEntity
8
C-TOPO-MAJR-E
100
AcDbPolyline
90
12
70
0
43
0
38
0
39
0
10
1269303.049999997
20
515524.3480000049
10
1269306.338499993
20
515519.5259999931
10
1269308.4465000033
20
515516.2584999949
10
1269312.4420000017
20
515512.56299999356
10
1269313.2294999957
20
515512.13099999726
10
1269318.490500003
20
515506.75499999523
10
1269322.7409999967
20
515501.38099999726
10
1269331.1095000058
20
515497.82950000465
10
1269335.0830000043
20
515495.6899999976
10
1269336.9185000062
20
515493.96150000393
10
1269340.4255000055
20
515488.98700000346
10
1269342.6800000072
20
515483.32950000465
0
LWPOLYLINE
5
58
330
C
100
AcDbEntity
8
C-TOPO-MAJR-E
100
AcDbPolyline
90
44
70
0
43
0
38
0
39
0
10
1269332.8889999986
20
515527.4319999963
10
1269333.3330000043
20
515522.1940000057
10
1269338.0129999965
20
515517.29549999535
10
1269341.3414999992
20
515514.6850000024
10
1269342.9745000005
20
515513.5639999956
10
1269344.910500005
20
515512.3055000007
10
1269353.248999998
20
515505.08349999785
10
1269355.264500007
20
515503.84049999714
10
1269356.8515000045
20
515503.20200000703
10
1269361.3924999982
20
515501.05099999905
10
1269363.0690000057
20
515500.11349999905
10
1269369.1455000043
20
515496.5199999958
10
1269369.5629999936
20
515496.1180000007
10
1269374.7014999986
20
515489.31450000405
10
1269375.811499998
20
515488.14049999416
10
1269382.7380000055
20
515479.2719999999
10
1269385.6589999944
20
515473.3969999999
10
1269386.0579999983
20
515469.6860000044
10
1269386.0649999976
20
515465.77799999714
10
1269386.071999997
20
515463.9399999976
10
1269385.873999998
20
515462.6469999999
10
1269383.4335000068
20
515454.41650000215
10
1269379.8610000014
20
515444.96649999917
10
1269378.0674999952
20
515439.1675000042
10
1269375.5320000052
20
515428.72650000453
10
1269374.362499997
20
515424.6469999999
10
1269373.6994999945
20
515421.2090000063
10
1269373.799999997
20
515418.97349999845
10
1269372.8959999979
20
515410.20149999857
10
1269372.611499995
20
515409.0869999975
10
1269370.1669999957
20
515402.25749999285
10
1269366.3264999986
20
515395.16400000453
10
1269364.2319999933
20
515391.41899999976
10
1269363.2600000054
20
515388.94900000095
10
1269361.7399999946
20
515384.79000000656
10
1269359.4919999987
20
515379.90850000083
10
1269355.1324999928
20
515371.48450000584
10
1269353.726999998
20
515368.8110000044
10
1269352.7060000002
20
515367.0065000057
10
1269350.363499999
20
515364.41099999845
10
1269343.576000005
20
515359.05500000715
10
1269342.2329999954
20
515358.42049999535
10
1269340.5754999965
20
515358.7855000049
10
1269337.5709999949
20
515361.12049999833
0
LWPOLYLINE
5
59
330
C
100
AcDbEntity
8
C-TOPO-MAJR-E
100
AcDbPolyline
90
7
70
0
43
0
38
0
39
0
10
1269378.2995000035
20
515526.98549999297
10
1269383.9130000025
20
515522.08650000393
10
1269388.7314999998
20
515520.1780000031
10
1269392.385499999
20
515519.9605000019
10
1269394.5524999946
20
515520.07250000536
10
1269407.9360000044
20
515522.1599999964
10
1269414.3299999982
20
515521.7699999958
0
LWPOLYLINE
5
5A
330
C
100
AcDbEntity
8
C-SITE-N
100
AcDbPolyline
90
12
70
1
43
0
38
0
39
0
10
1269269.327287361
20
515500.00803360343
10
1269269.327287361
20
515500.00803360343
10
1269269.327287361
20
515500.00803360343
10
1269199.8748022655
20
515498.68736616126
10
1269225.750121951
20
515271.9999874681
10
1269225.750121951
20
515271.9999874681
10
1269372.247516075
20
515359.52967834513
10
1269387.7843478322
20
515492.92055238783
10
1269387.7843478322
20
515492.92055238783
10
1269387.7843478322
20
515492.92055238783
10
1269388.8744384523
20
515502.2811015491
10
1269269.327287361
20
515500.00803360343
0
LWPOLYLINE
5
5B
330
C
100
AcDbEntity
8
C-BLDG-FTPR-N
100
AcDbPolyline
90
5
70
1
43
0
38
0
39
0
10
1269378.2806977173
20
515419.95887220005
10
1269382.8877548561
20
515459.51905910874
10
1269352.9601128232
20
515463.00433983287
10
1269348.3530556844
20
515423.4441529242
10
1269378.2806977173
20
515419.95887220005
0
LWPOLYLINE
5
5C
330
C
100
AcDbEntity
8
C-PVMT
100
AcDbPolyline
90
5
70
1
43
0
38
0
39
0
10
1269380.8834703083
20
515433.6635481898
10
1269382.2715720672
20
515445.5829933743
10
1269374.325276354
20
515446.508403792
10
1269372.9371745952
20
515434.58895860746
10
1269380.8834703083
20
515433.6635481898
0
LWPOLYLINE
5
5D
330
C
100
AcDbEntity
8
C-PVMT
100
AcDbPolyline
90
5
70
1
43
0
38
0
39
0
10
1269380.2032598408
20
515440.79007303837
10
1269385.1696946614
20
515440.21169152734
10
1269386.303322423
20
515449.9459037758
10
1269381.3368876025
20
515450.52428528684
10
1269380.2032598408
20
515440.79007303837
0
LWPOLYLINE
5
5E
330
C
100
AcDbEntity
8
C-PVMT
100
AcDbPolyline
90
5
70
1
43
0
38
0
39
0
10
1269384.0946696682
20
515435.3030948578
10
1269385.020080086
20
515443.24939057085
10
1269381.0469322295
20
515443.7120957797
10
1269380.1215218117
20
515435.76580006664
10
1269384.0946696682
20
515435.3030948578
0
LWPOLYLINE
5
5F
330
C
100
AcDbEntity
8
C-PVMT
100
AcDbPolyline
90
5
70
1
43
0
38
0
39
0
10
1269372.2502597868
20
515359.5313176662
10
1269388.8746471703
20
515502.2812756002
10
1269385.894786278
20
515502.6283045068
10
1269369.2703988946
20
515359.8783465728
10
1269372.2502597868
20
515359.5313176662
0
LWPOLYLINE
5
60
330
C
100
AcDbEntity
8
C-TOPO-SURF
100
AcDbPolyline
90
5
70
1
43
0
38
0
39
0
10
1269376.2234076434
20
515359.0686124573
10
1269392.8477950268
20
515501.81857039133
10
1269388.8746471703
20
515502.2812756002
10
1269372.2502597868
20
515359.5313176662
10
1269376.2234076434
20
515359.0686124573
0
LWPOLYLINE
5
61
330
C
100
AcDbEntity
8
C-PVMT
100
AcDbPolyline
90
5
70
1
43
0
38
0
39
0
10
1269377.7133380896
20
515358.895098004
10
1269394.337725473
20
515501.64505593805
10
1269392.8477950268
20
515501.81857039133
10
1269376.2234076434
20
515359.0686124573
10
1269377.7133380896
20
515358.895098004
0
LWPOLYLINE
5
62
330
C
100
AcDbEntity
8
C-PVMT
100
AcDbPolyline
90
5
70
1
43
0
38
0
39
0
10
1269388.0816765497
20
515447.9266413643
10
1269385.9995239116
20
515430.0474735875
10
1269377.903609012
20
515434.0105736295
10
1269379.291710771
20
515445.93001881405
10
1269388.0816765497
20
515447.9266413643
0
LWPOLYLINE
5
63
330
C
100
AcDbEntity
8
C-LODS
100
AcDbPolyline
90
8
70
1
43
0
38
0
39
0
10
1269348.3530556844
20
515423.4441529242
10
1269369.2703988946
20
515359.8783465728
10
1269376.2234076434
20
515359.0686124573
10
1269377.7133380896
20
515358.895098004
10
1269394.337725473
20
515501.64505593805
10
1269385.894786278
20
515502.6283045068
10
1269352.9601128232
20
515463.00433983287
10
1269348.3530556844
20
515423.4441529242
0
LWPOLYLINE
5
64
330
C
100
AcDbEntity
8
C-SITE-N
100
AcDbPolyline
90
8
70
1
43
0
38
0
39
0
10
1269383.6992207747
20
515490.0375440765
10
1269382.3221319409
20
515481.03752632375
10
1269370.0296058415
20
515364.01112748974
10
1269228.225233453
20
515276.3443888139
10
1269204.5482152114
20
515496.9100772813
10
1269273.120467571
20
515496.7504602898
10
1269385.0559940308
20
515499.0536002447
10
1269383.6992207747
20
515490.0375440765
0
POINT
5
65
330
C
100
AcDbEntity
8
C-TOPO-SPOT
100
AcDbPoint
10
1269327.2913434692
20
515450.2286527492
30
0
0
LWPOLYLINE
5
66
330
C
100
AcDbEntity
8
C-UTIL
100
AcDbPolyline
90
2
70
0
43
0
38
0
39
0
10
1269391.9377498704
20
515418.3684141023
10
1269351.3329169806
20
515423.09712748445
0
LWPOLYLINE
5
67
330
C
100
AcDbEntity
8
C-UTIL
100
AcDbPolyline
90
2
70
0
43
0
38
0
39
0
10
1269391.9377498704
20
515418.3684141023
10
1269361.2657879677
20
515421.94037601876
0
LWPOLYLINE
5
68
330
C
100
AcDbEntity
8
C-SWMG
100
AcDbPolyline
90
5
70
1
43
0
38
0
39
0
10
1269229.3735960673
20
515285.20939205465
10
1269247.5119532144
20
515285.20939205465
10
1269247.5119532144
20
515303.3477492019
10
1269229.3735960673
20
515303.3477492019
10
1269229.3735960673
20
515285.20939205465
0
LWPOLYLINE
5
69
330
C
100
AcDbEntity
8
C-STRM-AREA
100
AcDbPolyline
90
8
70
1
43
0
38
0
39
0
10
1269387.7843478322
20
515492.92055238783
10
1269386.6849448085
20
515483.48003812134
10
1269372.2502597868
20
515359.5313176662
10
1269225.750121951
20
515271.9999874681
10
1269199.8747910112
20
515498.68746475875
10
1269269.327287361
20
515500.00803360343
10
1269388.8746471703
20
515502.2812756002
10
1269387.7843478322
20
515492.92055238783
0
LWPOLYLINE
5
6A
330
C
100
AcDbEntity
8
L-PLNT-TREE
100
AcDbPolyline
90
5
70
1
43
0
38
0
39
0
10
1269375.825366536
20
515384.9401220471
10
1269385.825366536
20
515384.9401220471
10
1269385.825366536
20
515394.9401220471
10
1269375.825366536
20
515394.9401220471
10
1269375.825366536
20
515384.9401220471
0
LWPOLYLINE
5
6B
330
C
100
AcDbEntity
8
L-PLNT-TREE
100
AcDbPolyline
90
5
70
1
43
0
38
0
39
0
10
1269379.4340377913
20
515415.9273021609
10
1269389.4340377913
20
515415.9273021609
10
1269389.4340377913
20
515425.9273021609
10
1269379.4340377913
20
515425.9273021609
10
1269379.4340377913
20
515415.9273021609
0
LWPOLYLINE
5
6C
330
C
100
AcDbEntity
8
L-PLNT-TREE
100
AcDbPolyline
90
5
70
1
43
0
38
0
39
0
10
1269383.0427090467
20
515446.9144822747
10
1269393.0427090467
20
515446.9144822747
10
1269393.0427090467
20
515456.9144822747
10
1269383.0427090467
20
515456.9144822747
10
1269383.0427090467
20
515446.9144822747
0
LWPOLYLINE
5
6D
330
C
100
AcDbEntity
8
L-PLNT-TREE
100
AcDbPolyline
90
5
70
1
43
0
38
0
39
0
10
1269362.1524637598
20
515479.1770592532
10
1269374.1524637598
20
515479.1770592532
10
1269374.1524637598
20
515491.1770592532
10
1269362.1524637598
20
515491.1770592532
10
1269362.1524637598
20
515479.1770592532
0
LWPOLYLINE
5
6E
330
C
100
AcDbEntity
8
L-PLNT-TREE
100
AcDbPolyline
90
5
70
1
43
0
38
0
39
0
10
1269338.1524637598
20
515472.7462786349
10
1269350.1524637598
20
515472.7462786349
10
1269350.1524637598
20
515484.7462786349
10
1269338.1524637598
20
515484.7462786349
10
1269338.1524637598
20
515472.7462786349
0
LWPOLYLINE
5
6F
330
C
100
AcDbEntity
8
L-PLNT-TREE
100
AcDbPolyline
90
5
70
1
43
0
38
0
39
0
10
1269320.5832443782
20
515455.1770592532
10
1269332.5832443782
20
515455.1770592532
10
1269332.5832443782
20
515467.1770592532
10
1269320.5832443782
20
515467.1770592532
10
1269320.5832443782
20
515455.1770592532
0
ENDSEC
0
SECTION
2
OBJECTS
0
DICTIONARY
5
A
330
0
100
AcDbDictionary
281
1
3
ACAD_GROUP
350
B
0
DICTIONARY
5
B
330
A
100
AcDbDictionary
281
0
0
ENDSEC
0
EOF