0
SECTION
2
HEADER
9
$ACADVER
1
AC1021
9
$LASTSAVEDBY
1
@tarikjabiri/dxf
9
$HANDSEED
5
66
9
$INSUNITS
70
0
9
$CLAYER
8
0
9
$VIEWCTR
10
1279583.3848407823
20
509869.09450000525
0
ENDSEC
0
SECTION
2
CLASSES
0
ENDSEC
0
SECTION
2
TABLES
0
TABLE
2
VPORT
5
1
330
0
100
AcDbSymbolTable
70
1
0
VPORT
5
19
330
1
100
AcDbSymbolTableRecord
100
AcDbViewportTableRecord
2
*Active
70
0
10
0
20
0
11
1
21
1
12
1279583.3848407823
22
509869.09450000525
13
0
23
0
14
10
24
10
15
10
25
10
16
0
26
0
36
1
17
0
27
0
37
0
40
351.6990000009537
41
2
42
50
43
0
44
0
50
0
51
0
71
0
72
100
73
1
74
3
75
0
76
1
77
0
78
0
281
0
65
1
110
0
120
0
130
0
111
1
121
0
131
0
112
0
122
1
132
0
79
0
146
0
348
10020
60
7
61
5
292
1
282
1
141
0
142
0
63
250
421
3358443
0
ENDTAB
0
TABLE
2
LTYPE
5
2
330
0
100
AcDbSymbolTable
70
7
0
LTYPE
5
12
330
2
100
AcDbSymbolTableRecord
100
AcDbLinetypeTableRecord
2
ByBlock
70
0
3

72
65
73
0
40
0
0
LTYPE
5
13
330
2
100
AcDbSymbolTableRecord
100
AcDbLinetypeTableRecord
2
ByLayer
70
0
3

72
65
73
0
40
0
0
LTYPE
5
14
330
2
100
AcDbSymbolTableRecord
100
AcDbLinetypeTableRecord
2
Continuous
70
0
3
Solid line
72
65
73
0
40
0
0
LTYPE
5
1A
330
2
100
AcDbSymbolTableRecord
100
AcDbLinetypeTableRecord
2
DASHED
70
0
3
Dashed __ __ __ __ __ __
72
65
73
2
40
6
49
4
74
0
49
-2
74
0
0
LTYPE
5
1B
330
2
100
AcDbSymbolTableRecord
100
AcDbLinetypeTableRecord
2
HIDDEN
70
0
3
Hidden __ __ __ __ __
72
65
73
2
40
3
49
2
74
0
49
-1
74
0
0
LTYPE
5
1C
330
2
100
AcDbSymbolTableRecord
100
AcDbLinetypeTableRecord
2
PHANTOM
70
0
3
Phantom ____ _ _ ____ _ _
72
65
73
6
40
13
49
8
74
0
49
-1
74
0
49
1
74
0
49
-1
74
0
49
1
74
0
49
-1
74
0
0
LTYPE
5
1D
330
2
100
AcDbSymbolTableRecord
100
AcDbLinetypeTableRecord
2
DASHDOT
70
0
3
Dash dot __ . __ . __ .
72
65
73
4
40
8
49
4
74
0
49
-2
74
0
49
0
74
0
49
-2
74
0
0
ENDTAB
0
TABLE
2
LAYER
5
3
330
0
100
AcDbSymbolTable
70
14
0
LAYER
5
15
330
3
100
AcDbSymbolTableRecord
100
AcDbLayerTableRecord
2
0
70
0
62
7
6
Continuous
370
0
390
0
0
LAYER
5
1E
330
3
100
AcDbSymbolTableRecord
100
AcDbLayerTableRecord
2
C-BLDG-FTPR-N
70
0
62
6
6
Continuous
370
0
390
0
0
LAYER
5
1F
330
3
100
AcDbSymbolTableRecord
100
AcDbLayerTableRecord
2
C-LODS
70
0
62
30
6
PHANTOM
370
0
390
0
0
LAYER
5
20
330
3
100
AcDbSymbolTableRecord
100
AcDbLayerTableRecord
2
C-PVMT
70
0
62
8
6
Continuous
370
0
390
0
0
LAYER
5
21
330
3
100
AcDbSymbolTableRecord
100
AcDbLayerTableRecord
2
C-SITE-N
70
0
62
6
6
Continuous
370
0
390
0
0
LAYER
5
22
330
3
100
AcDbSymbolTableRecord
100
AcDbLayerTableRecord
2
C-STRM-AREA
70
0
62
150
6
PHANTOM
370
0
390
0
0
LAYER
5
23
330
3
100
AcDbSymbolTableRecord
100
AcDbLayerTableRecord
2
C-SWMG
70
0
62
92
6
Continuous
370
0
390
0
0
LAYER
5
24
330
3
100
AcDbSymbolTableRecord
100
AcDbLayerTableRecord
2
C-TOPO-MAJR-E
70
0
62
32
6
DASHED
370
0
390
0
0
LAYER
5
25
330
3
100
AcDbSymbolTableRecord
100
AcDbLayerTableRecord
2
C-TOPO-SPOT
70
0
62
7
6
Continuous
370
0
390
0
0
LAYER
5
26
330
3
100
AcDbSymbolTableRecord
100
AcDbLayerTableRecord
2
C-TOPO-SURF
70
0
62
253
6
Continuous
370
0
390
0
0
LAYER
5
27
330
3
100
AcDbSymbolTableRecord
100
AcDbLayerTableRecord
2
C-UTIL
70
0
62
4
6
DASHED
370
0
390
0
0
LAYER
5
28
330
3
100
AcDbSymbolTableRecord
100
AcDbLayerTableRecord
2
L-PLNT-TREE
70
0
62
90
6
Continuous
370
0
390
0
0
LAYER
5
29
330
3
100
AcDbSymbolTableRecord
100
AcDbLayerTableRecord
2
V-PROP-BNDY
70
0
62
7
6
Continuous
370
0
390
0
0
LAYER
5
2A
330
3
100
AcDbSymbolTableRecord
100
AcDbLayerTableRecord
2
C-ANNO-NPLT
70
0
62
250
6
Continuous
370
0
390
0
0
ENDTAB
0
TABLE
2
STYLE
5
4
330
0
100
AcDbSymbolTable
70
1
0
STYLE
5
16
330
4
100
AcDbSymbolTableRecord
100
AcDbTextStyleTableRecord
2
Standard
70
0
40
0
41
1
50
0
71
0
42
1
3
txt
4

0
ENDTAB
0
TABLE
2
VIEW
5
5
330
0
100
AcDbSymbolTable
70
0
0
ENDTAB
0
TABLE
2
UCS
5
6
330
0
100
AcDbSymbolTable
70
0
0
ENDTAB
0
TABLE
2
APPID
5
7
330
0
100
AcDbSymbolTable
70
1
0
APPID
5
17
330
7
100
AcDbSymbolTableRecord
100
AcDbRegAppTableRecord
2
ACAD
70
0
0
ENDTAB
0
TABLE
2
DIMSTYLE
5
8
330
0
100
AcDbSymbolTable
70
1
100
AcDbDimStyleTable
0
DIMSTYLE
105
18
330
8
100
AcDbSymbolTableRecord
100
AcDbDimStyleTableRecord
2
Standard
70
0
340
16
0
ENDTAB
0
TABLE
2
BLOCK_RECORD
5
9
330
0
100
AcDbSymbolTable
70
2
0
BLOCK_RECORD
5
C
330
9
100
AcDbSymbolTableRecord
100
AcDbBlockTableRecord
2
*Model_Space
70
0
280
1
281
0
0
BLOCK_RECORD
5
F
330
9
100
AcDbSymbolTableRecord
100
AcDbBlockTableRecord
2
*Paper_Space
70
0
280
1
281
0
0
ENDTAB
0
ENDSEC
0
SECTION
2
BLOCKS
0
BLOCK
5
D
330
C
100
AcDbEntity
8
0
100
AcDbBlockBegin
2
*Model_Space
70
0
10
0
20
0
30
0
3
*Model_Space
1

0
ENDBLK
5
E
100
AcDbEntity
8
0
100
AcDbBlockEnd
0
BLOCK
5
10
330
F
100
AcDbEntity
8
0
100
AcDbBlockBegin
2
*Paper_Space
70
0
10
0
20
0
30
0
3
*Paper_Space
1

0
ENDBLK
5
11
100
AcDbEntity
8
0
100
AcDbBlockEnd
0
ENDSEC
0
SECTION
2
ENTITIES
0
TEXT
5
2B
330
C
100
AcDbEntity
8
C-ANNO-NPLT
100
AcDbText
10
1279539.5820000023
20
509813.24500000477
30
0
40
2.5
1
PRELIMINARY - NOT SEALED - NOT FOR CONSTRUCTION OR PERMIT SUBMISSION
7
STANDARD
100
AcDbText
0
TEXT
5
2C
330
C
100
AcDbEntity
8
C-ANNO-NPLT
100
AcDbText
10
1279539.5820000023
20
509809.24500000477
30
0
40
2.5
1
GENERATED 2026-09-26T02:43:46.192Z BY KEALEE SITE PLAN ENGINE
7
STANDARD
100
AcDbText
0
TEXT
5
2D
330
C
100
AcDbEntity
8
C-ANNO-NPLT
100
AcDbText
10
1279539.5820000023
20
509805.24500000477
30
0
40
2.5
1
HORIZONTAL: EPSG:2248
7
STANDARD
100
AcDbText
0
TEXT
5
2E
330
C
100
AcDbEntity
8
C-ANNO-NPLT
100
AcDbText
10
1279539.5820000023
20
509801.24500000477
30
0
40
2.5
1
VERTICAL: NAVD88 (feet)
7
STANDARD
100
AcDbText
0
TEXT
5
2F
330
C
100
AcDbEntity
8
C-ANNO-NPLT
100
AcDbText
10
1279539.5820000023
20
509797.24500000477
30
0
40
2.5
1
SOURCES: Parcel boundary — jurisdiction gis (M-NCPPC Montgomery Planning — parcels (SDAT) — Lot 7, Block A, subdivision 0502, level 1); Existing contours (M-NCPPC Montgomery Planning — backgrounds/Contours_2ft/MapServer/1 — Contours (2-ft, 2023), level 1)
7
STANDARD
100
AcDbText
0
TEXT
5
30
330
C
100
AcDbEntity
8
C-ANNO-NPLT
100
AcDbText
10
1279539.5820000023
20
509793.24500000477
30
0
40
2.5
1
THIS FILE IS DATA FOR A LICENSED PROFESSIONAL. IT IS NOT A SEALED DRAWING.
7
STANDARD
100
AcDbText
0
LWPOLYLINE
5
31
330
C
100
AcDbEntity
8
V-PROP-BNDY
100
AcDbPolyline
90
16
70
1
43
0
38
0
39
0
10
1279694.1248182356
20
509900.53104667366
10
1279679.3752530515
20
509888.28124441206
10
1279671.7345895022
20
509882.1924902499
10
1279665.374867037
20
509877.12495456636
10
1279651.249707073
20
509866.25034321845
10
1279640.7986845225
20
509859.87455543876
10
1279631.3747710735
20
509854.12531490624
10
1279631.360312298
20
509854.15048390627
10
1279599.9569066614
20
509907.4402029067
10
1279563.6401923597
20
509969.0678200871
10
1279563.6251980662
20
509969.09352459013
10
1279579.1544665098
20
509995.8417376131
10
1279582.8730512857
20
510002.2512625605
10
1279593.110405147
20
510019.84974351525
10
1279593.1248639375
20
510019.8749125004
10
1279694.1248182356
20
509900.53104667366
0
LWPOLYLINE
5
32
330
C
100
AcDbEntity
8
C-TOPO-MAJR-E
100
AcDbPolyline
90
5
70
0
43
0
38
0
39
0
10
1279543.4325000048
20
510028.55500000715
10
1279549.1215000004
20
510029.0275000036
10
1279563.1580000073
20
510036.3164999932
10
1279565.2944999933
20
510038.811499998
10
1279567.0849999934
20
510041.9705000073
0
LWPOLYLINE
5
33
330
C
100
AcDbEntity
8
C-TOPO-MAJR-E
100
AcDbPolyline
90
20
70
0
43
0
38
0
39
0
10
1279542.112499997
20
509929.0164999962
10
1279543.6264999956
20
509931.3980000019
10
1279544.4120000005
20
509933.1424999982
10
1279546.6539999992
20
509937.013500005
10
1279551.2084999979
20
509943.0444999933
10
1279552.4089999944
20
509944.5409999937
10
1279554.797999993
20
509947.87950000167
10
1279558.3575000018
20
509952.5974999964
10
1279563.1194999963
20
509958.0409999937
10
1279566.3735000044
20
509962.72650000453
10
1279568.0119999945
20
509966.5055000037
10
1279568.5754999965
20
509968.6099999994
10
1279570.7004999965
20
509972.4590000063
10
1279573.451000005
20
509976.16650000215
10
1279578.326000005
20
509983.4210000038
10
1279580.964499995
20
509987.2205000073
10
1279586.240500003
20
509994.13899999857
10
1279586.6289999932
20
509995.0919999927
10
1279588.197999999
20
509997.8490000069
10
1279590.6675000042
20
510000
0
LWPOLYLINE
5
34
330
C
100
AcDbEntity
8
C-TOPO-MAJR-E
100
AcDbPolyline
90
11
70
0
43
0
38
0
39
0
10
1279556.9204999954
20
509865.65399999917
10
1279563.336500004
20
509869.81450000405
10
1279569.9235000014
20
509873.6700000018
10
1279574.173999995
20
509876.1589999944
10
1279581.2294999957
20
509881.49500000477
10
1279582.3694999963
20
509882.6969999969
10
1279585.414499998
20
509885.64049999416
10
1279591.623999998
20
509891.0310000032
10
1279592.6420000046
20
509892.00749999285
10
1279594.560499996
20
509893.25599999726
10
1279596.039499998
20
509893.6194999963
0
LWPOLYLINE
5
35
330
C
100
AcDbEntity
8
C-TOPO-MAJR-E
100
AcDbPolyline
90
17
70
0
43
0
38
0
39
0
10
1279559.912499994
20
509893.15399999917
10
1279560.912499994
20
509894.3725000024
10
1279563.0974999964
20
509897.5625
10
1279566.651999995
20
509903.7255000025
10
1279567.6665000021
20
509904.9309999943
10
1279572.2465000004
20
509908.8789999932
10
1279575.6274999976
20
509912.9699999988
10
1279580.2689999938
20
509920.6770000011
10
1279582.4915000051
20
509925.2074999958
10
1279583.8334999979
20
509927.24549999833
10
1279588.588499993
20
509931.47900000215
10
1279601.1525000036
20
509940.58349999785
10
1279611.4300000072
20
509946.89350000024
10
1279615.9545000046
20
509949.5275000036
10
1279618.7434999943
20
509952.55650000274
10
1279619.2310000062
20
509955.9915000051
10
1279619.2255000025
20
509956.0990000069
0
LWPOLYLINE
5
36
330
C
100
AcDbEntity
8
C-TOPO-MAJR-E
100
AcDbPolyline
90
13
70
0
43
0
38
0
39
0
10
1279577.384499997
20
510000
10
1279578.2734999955
20
510001.83599999547
10
1279581.4444999993
20
510007.0294999927
10
1279587.7545000017
20
510010.38650000095
10
1279591.289499998
20
510012.24099999666
10
1279592.2504999936
20
510013.17200000584
10
1279593.6694999933
20
510014.7129999995
10
1279598.8945000023
20
510019.19650000334
10
1279602.7800000012
20
510022.56849999726
10
1279603.7434999943
20
510023.7224999964
10
1279609.565500006
20
510031.4780000001
10
1279615.3974999934
20
510038.53350000083
10
1279618.4829999954
20
510042.93150000274
0
LWPOLYLINE
5
37
330
C
100
AcDbEntity
8
C-TOPO-MAJR-E
100
AcDbPolyline
90
4
70
0
43
0
38
0
39
0
10
1279693.850999996
20
509976.76399999857
10
1279705.1110000014
20
509972.25049999356
10
1279707.1040000021
20
509972.58599999547
10
1279708.214499995
20
509972.84450000525
0
LWPOLYLINE
5
38
330
C
100
AcDbEntity
8
C-TOPO-MAJR-E
100
AcDbPolyline
90
2
70
0
43
0
38
0
39
0
10
1279541.925999999
20
509994.65399999917
10
1279547.450000003
20
510000
0
LWPOLYLINE
5
39
330
C
100
AcDbEntity
8
C-TOPO-MAJR-E
100
AcDbPolyline
90
3
70
0
43
0
38
0
39
0
10
1279541.5674999952
20
510044.9440000057
10
1279545.3675000072
20
510039.20450000465
10
1279540.9755000025
20
510035.79399999976
0
LWPOLYLINE
5
3A
330
C
100
AcDbEntity
8
C-TOPO-MAJR-E
100
AcDbPolyline
90
4
70
0
43
0
38
0
39
0
10
1279542.1755000055
20
509871.39350000024
10
1279544.6315000057
20
509876.2964999974
10
1279545.274000004
20
509877.05099999905
10
1279549.7654999942
20
509881.3480000049
0
LWPOLYLINE
5
3B
330
C
100
AcDbEntity
8
C-TOPO-MAJR-E
100
AcDbPolyline
90
6
70
0
43
0
38
0
39
0
10
1279619.2255000025
20
509956.0990000069
10
1279618.5939999968
20
509968.0180000067
10
1279619.184499994
20
509975.1410000026
10
1279620.865500003
20
509981.4270000011
10
1279621.1659999937
20
509982.2035000026
10
1279621.737499997
20
509983.4115000069
0
LWPOLYLINE
5
3C
330
C
100
AcDbEntity
8
C-TOPO-MAJR-E
100
AcDbPolyline
90
13
70
0
43
0
38
0
39
0
10
1279643.6920000017
20
509946.9459999949
10
1279644.2785000056
20
509947.4634999931
10
1279651.5810000002
20
509947.95149999857
10
1279657.2380000055
20
509946.0275000036
10
1279659.8379999995
20
509947.0639999956
10
1279662.5
20
509950.2674999982
10
1279663.9784999937
20
509954.46099999547
10
1279670.7830000073
20
509964.4724999964
10
1279678.638500005
20
509974.57950000465
10
1279681.3100000024
20
509977.55900000036
10
1279685.7845000029
20
509979.8949999958
10
1279690.4424999952
20
509978.1305000037
10
1279693.850999996
20
509976.76399999857
0
LWPOLYLINE
5
3D
330
C
100
AcDbEntity
8
C-TOPO-MAJR-E
100
AcDbPolyline
90
3
70
0
43
0
38
0
39
0
10
1279709.310499996
20
510006.76399999857
10
1279711.338499993
20
510005.7280000001
10
1279715.7224999964
20
510005.0664999932
0
LWPOLYLINE
5
3E
330
C
100
AcDbEntity
8
C-TOPO-MAJR-E
100
AcDbPolyline
90
21
70
0
43
0
38
0
39
0
10
1279661.648000002
20
509903.51450000703
10
1279661.710500002
20
509903.38650000095
10
1279662.5844999999
20
509898.13400000334
10
1279664.8939999938
20
509894.26950000226
10
1279675.0429999977
20
509892.24950000644
10
1279683.5359999985
20
509890.1994999945
10
1279691.5289999992
20
509887.763500005
10
1279693.8379999995
20
509887.32950000465
10
1279696.8194999993
20
509885.14350000024
10
1279694.4960000068
20
509880.7245000005
10
1279689.6430000067
20
509875.4780000001
10
1279683.6099999994
20
509869.450000003
10
1279681.759499997
20
509865.9130000025
10
1279681.7440000027
20
509864.7405000031
10
1279685.4399999976
20
509860.861499995
10
1279688.2804999948
20
509859.8560000062
10
1279701.2935000062
20
509858.0164999962
10
1279703.1934999973
20
509858.3655000031
10
1279707.413499996
20
509860.3569999933
10
1279710.6175000072
20
509861.5030000061
10
1279717.2280000001
20
509862.97499999404
0
LWPOLYLINE
5
3F
330
C
100
AcDbEntity
8
C-TOPO-MAJR-E
100
AcDbPolyline
90
16
70
0
43
0
38
0
39
0
10
1279569.7939999998
20
509833.24500000477
10
1279583.3665000051
20
509835.68950000405
10
1279587.9944999963
20
509837.4794999957
10
1279593.6420000046
20
509840.6030000001
10
1279597.6350000054
20
509842.96250000596
10
1279603.0185000002
20
509846.3369999975
10
1279606.888500005
20
509848.5094999969
10
1279610.309499994
20
509850.2744999975
10
1279614.0119999945
20
509852.74799999595
10
1279619.8540000021
20
509858.05099999905
10
1279624.4375
20
509863.0349999964
10
1279625.3129999936
20
509865.501000002
10
1279626.5565000027
20
509869.8805000037
10
1279632.3505000025
20
509876.0530000031
10
1279635.4504999965
20
509879.87549999356
10
1279637.6965000033
20
509887.27799999714
0
LWPOLYLINE
5
40
330
C
100
AcDbEntity
8
C-TOPO-MAJR-E
100
AcDbPolyline
90
5
70
0
43
0
38
0
39
0
10
1279549.7654999942
20
509881.3480000049
10
1279551.5
20
509883.00749999285
10
1279556.037499994
20
509888.55750000477
10
1279559.601999998
20
509892.7754999995
10
1279559.912499994
20
509893.15399999917
0
LWPOLYLINE
5
41
330
C
100
AcDbEntity
8
C-TOPO-MAJR-E
100
AcDbPolyline
90
16
70
0
43
0
38
0
39
0
10
1279565.1630000025
20
510000
10
1279566.3005000055
20
510001.97650000453
10
1279568.9120000005
20
510006.26700000465
10
1279575.2559999973
20
510017.4405000061
10
1279577.5464999974
20
510020.6044999957
10
1279578.3159999996
20
510021.2284999937
10
1279579.572999999
20
510021.80750000477
10
1279580.0575000048
20
510022.0910000056
10
1279580.8404999971
20
510022.3819999993
10
1279585.076000005
20
510022.36200000346
10
1279587.887500003
20
510023.2964999974
10
1279593.3059999943
20
510028.0744999945
10
1279594.6040000021
20
510029.8955000043
10
1279597.2465000004
20
510033.2319999933
10
1279601.498999998
20
510036.8055000007
10
1279606.485499993
20
510043.201000005
0
LWPOLYLINE
5
42
330
C
100
AcDbEntity
8
C-TOPO-MAJR-E
100
AcDbPolyline
90
2
70
0
43
0
38
0
39
0
10
1279658.0674999952
20
509910.85950000584
10
1279661.648000002
20
509903.51450000703
0
LWPOLYLINE
5
43
330
C
100
AcDbEntity
8
C-TOPO-MAJR-E
100
AcDbPolyline
90
3
70
0
43
0
38
0
39
0
10
1279708.214499995
20
509972.84450000525
10
1279711.137500003
20
509973.5254999995
10
1279717.7534999996
20
509972.7849999964
0
LWPOLYLINE
5
44
330
C
100
AcDbEntity
8
C-TOPO-MAJR-E
100
AcDbPolyline
90
12
70
0
43
0
38
0
39
0
10
1279590.6675000042
20
510000
10
1279593.037499994
20
510002.06450000405
10
1279597.025000006
20
510006.0024999976
10
1279598.9465000033
20
510007.92299999297
10
1279601.9784999937
20
510010.075000003
10
1279605.9650000036
20
510012.35799999535
10
1279609.173999995
20
510014.76399999857
10
1279615.485499993
20
510022.19750000536
10
1279621.1235000044
20
510029.75
10
1279624.4619999975
20
510033.71099999547
10
1279628.5879999995
20
510037.8965000063
10
1279630.7685000002
20
510040.048999995
0
LWPOLYLINE
5
45
330
C
100
AcDbEntity
8
C-TOPO-MAJR-E
100
AcDbPolyline
90
24
70
0
43
0
38
0
39
0
10
1279612.3935000002
20
510000
10
1279613.8505000025
20
510001.24799999595
10
1279616.6609999985
20
510003.3910000026
10
1279622.6424999982
20
510009.6969999969
10
1279627.384499997
20
510015.1985000074
10
1279630.3914999962
20
510017.5844999999
10
1279633.0450000018
20
510018.84049999714
10
1279640.2129999995
20
510021.7960000038
10
1279647.4430000037
20
510025.58100000024
10
1279652.7654999942
20
510029.57799999416
10
1279654.338499993
20
510031.201000005
10
1279657.9485000074
20
510034.5830000043
10
1279663.8050000072
20
510037.5785000026
10
1279665.9214999974
20
510038.001000002
10
1279671.8824999928
20
510038.2129999995
10
1279676.0799999982
20
510037.1030000001
10
1279682.7199999988
20
510033.3149999976
10
1279684.3799999952
20
510032.30349999666
10
1279688.8834999949
20
510030.23600000143
10
1279691.2524999976
20
510029.19750000536
10
1279694.1679999977
20
510027.4525000006
10
1279697.3244999945
20
510025.71400000155
10
1279713.4765000045
20
510023.201000005
10
1279716.0585000068
20
510023.6560000032
0
LWPOLYLINE
5
46
330
C
100
AcDbEntity
8
C-TOPO-MAJR-E
100
AcDbPolyline
90
12
70
0
43
0
38
0
39
0
10
1279541.252000004
20
509951.72750000656
10
1279544.9814999998
20
509955.4580000043
10
1279548.225999996
20
509959.5639999956
10
1279551.6570000052
20
509964.1560000032
10
1279558.3900000006
20
509972.27650000155
10
1279561.115500003
20
509975.6589999944
10
1279569.349000007
20
509986.08900000155
10
1279570.7300000042
20
509988.1274999976
10
1279572.9950000048
20
509992.2255000025
10
1279574.3564999998
20
509994.60799999535
10
1279576.7329999954
20
509998.6544999927
10
1279577.384499997
20
510000
0
LWPOLYLINE
5
47
330
C
100
AcDbEntity
8
C-TOPO-MAJR-E
100
AcDbPolyline
90
5
70
0
43
0
38
0
39
0
10
1279543.5890000015
20
509915.37849999964
10
1279543.7460000068
20
509915.626000002
10
1279544.5664999932
20
509916.4264999926
10
1279546.7185000032
20
509917.89450000226
10
1279550.5674999952
20
509919.2664999962
0
LWPOLYLINE
5
48
330
C
100
AcDbEntity
8
C-TOPO-MAJR-E
100
AcDbPolyline
90
9
70
0
43
0
38
0
39
0
10
1279621.737499997
20
509983.4115000069
10
1279622.1379999965
20
509984.2580000013
10
1279623.8149999976
20
509986.46150000393
10
1279627.2590000033
20
509989.4880000055
10
1279634.9755000025
20
509993.7719999999
10
1279637.814500004
20
509994.5530000031
10
1279641.387500003
20
509995.5559999943
10
1279643.1054999977
20
509996.75749999285
10
1279646.5049999952
20
510000
0
LWPOLYLINE
5
49
330
C
100
AcDbEntity
8
C-TOPO-MAJR-E
100
AcDbPolyline
90
15
70
0
43
0
38
0
39
0
10
1279646.5049999952
20
510000
10
1279656.325000003
20
510009.3665000051
10
1279660.738499999
20
510013.64900000393
10
1279661.735499993
20
510015.52099999785
10
1279662.8869999945
20
510016.7944999933
10
1279665.373999998
20
510018.02400000393
10
1279669.3850000054
20
510020.38799999654
10
1279674.2430000007
20
510020.9835000038
10
1279680.6449999958
20
510018.6369999945
10
1279683.2150000036
20
510017.8209999949
10
1279694.675999999
20
510017.1809999943
10
1279697.1099999994
20
510016.07950000465
10
1279701.0335000008
20
510012.9705000073
10
1279707.6254999936
20
510007.62450000644
10
1279709.310499996
20
510006.76399999857
0
LWPOLYLINE
5
4A
330
C
100
AcDbEntity
8
C-TOPO-MAJR-E
100
AcDbPolyline
90
7
70
0
43
0
38
0
39
0
10
1279539.5820000023
20
509967.3585000038
10
1279545.1194999963
20
509973.96549999714
10
1279551.6710000038
20
509983.22900000215
10
1279556.7779999971
20
509989.6194999963
10
1279562.3879999965
20
509995.6354999989
10
1279563.8324999958
20
509997.68799999356
10
1279565.1630000025
20
510000
0
LWPOLYLINE
5
4B
330
C
100
AcDbEntity
8
C-TOPO-MAJR-E
100
AcDbPolyline
90
10
70
0
43
0
38
0
39
0
10
1279545.2409999967
20
509833.4350000024
10
1279547.0540000051
20
509834.98600000143
10
1279550.7380000055
20
509839.02650000155
10
1279553.547999993
20
509843.2349999994
10
1279555.2929999977
20
509847.9730000049
10
1279555.363499999
20
509848.9089999944
10
1279555.0330000073
20
509855.3040000051
10
1279555.2610000074
20
509863.43700000644
10
1279555.762500003
20
509864.90299999714
10
1279556.9204999954
20
509865.65399999917
0
LWPOLYLINE
5
4C
330
C
100
AcDbEntity
8
C-TOPO-MAJR-E
100
AcDbPolyline
90
16
70
0
43
0
38
0
39
0
10
1279547.450000003
20
510000
10
1279548.1515000015
20
510000.6790000051
10
1279549.7839999944
20
510002.57250000536
10
1279551.3254999965
20
510005.674999997
10
1279551.4549999982
20
510006.51299999654
10
1279551.7080000043
20
510013.22349999845
10
1279553.8599999994
20
510015.42299999297
10
1279562.9654999971
20
510018.7144999951
10
1279568.377000004
20
510022.9619999975
10
1279572.362499997
20
510026.8569999933
10
1279573.735499993
20
510027.6589999944
10
1279574.2695000023
20
510028.0275000036
10
1279577.9455000013
20
510032.9724999964
10
1279580.2569999993
20
510035.5855000019
10
1279583.190500006
20
510039.01000000536
10
1279588.6235000044
20
510043.9800000042
0
LWPOLYLINE
5
4D
330
C
100
AcDbEntity
8
C-TOPO-MAJR-E
100
AcDbPolyline
90
7
70
0
43
0
38
0
39
0
10
1279596.039499998
20
509893.6194999963
10
1279598.4810000062
20
509894.2189999968
10
1279604.3560000062
20
509896.07950000465
10
1279606.6289999932
20
509899.4469999969
10
1279607.563500002
20
509907.25200000405
10
1279608.0195000023
20
509909.375
10
1279609.0380000025
20
509912.8694999963
0
LWPOLYLINE
5
4E
330
C
100
AcDbEntity
8
C-TOPO-MAJR-E
100
AcDbPolyline
90
24
70
0
43
0
38
0
39
0
10
1279550.5674999952
20
509919.2664999962
10
1279553.7789999992
20
509920.4115000069
10
1279555.2039999962
20
509921.3980000019
10
1279558.1254999936
20
509925.62849999964
10
1279558.6564999968
20
509927.6550000012
10
1279559.0859999955
20
509934.3289999962
10
1279560.4734999985
20
509938.14849999547
10
1279561.5550000072
20
509939.7294999957
10
1279564.446999997
20
509942.92749999464
10
1279568.5699999928
20
509947.674999997
10
1279570.1544999927
20
509952.28849999607
10
1279570.825000003
20
509955.01700000465
10
1279573.199000001
20
509959.7830000073
10
1279575.6940000057
20
509963.4800000042
10
1279579.4044999927
20
509968.06450000405
10
1279583.0680000037
20
509972.36750000715
10
1279587.3515000045
20
509976.0174999982
10
1279590.9185000062
20
509978.3914999962
10
1279597.7214999944
20
509983.6860000044
10
1279605.039499998
20
509989.3100000024
10
1279606.6790000051
20
509991.34600000083
10
1279607.8159999996
20
509994.0600000024
10
1279610.464499995
20
509998.3474999964
10
1279612.3935000002
20
510000
0
LWPOLYLINE
5
4F
330
C
100
AcDbEntity
8
C-TOPO-MAJR-E
100
AcDbPolyline
90
7
70
0
43
0
38
0
39
0
10
1279609.0380000025
20
509912.8694999963
10
1279609.1659999937
20
509913.3094999939
10
1279609.2905000001
20
509913.6700000018
10
1279610.0415000021
20
509914.8505000025
10
1279613.5830000043
20
509918.186499998
10
1279636.4340000004
20
509940.53849999607
10
1279643.6920000017
20
509946.9459999949
0
LWPOLYLINE
5
50
330
C
100
AcDbEntity
8
C-TOPO-MAJR-E
100
AcDbPolyline
90
9
70
0
43
0
38
0
39
0
10
1279637.6965000033
20
509887.27799999714
10
1279638.2415000051
20
509889.07400000095
10
1279638.3075000048
20
509891.72650000453
10
1279638.599000007
20
509897.1219999939
10
1279638.8530000001
20
509900.12849999964
10
1279640.5690000057
20
509904.8639999926
10
1279651.9529999942
20
509914.7705000043
10
1279656.024000004
20
509913.5365000069
10
1279658.0674999952
20
509910.85950000584
0
LWPOLYLINE
5
51
330
C
100
AcDbEntity
8
C-SITE-N
100
AcDbPolyline
90
6
70
1
43
0
38
0
39
0
10
1279602.0966435468
20
509995.34185850713
10
1279581.3632033225
20
509959.25034369505
10
1279626.6031026877
20
509880.4993438711
10
1279627.7786670874
20
509881.2165128465
10
1279674.5383015322
20
509909.7431315478
10
1279602.0966435468
20
509995.34185850713
0
LWPOLYLINE
5
52
330
C
100
AcDbEntity
8
C-BLDG-FTPR-N
100
AcDbPolyline
90
5
70
1
43
0
38
0
39
0
10
1279635.148293562
20
509886.88395967975
10
1279656.2002653752
20
509899.72700005944
10
1279630.857544833
20
509941.26811670675
10
1279609.80557302
20
509928.42507632705
10
1279635.148293562
20
509886.88395967975
0
LWPOLYLINE
5
53
330
C
100
AcDbEntity
8
C-PVMT
100
AcDbPolyline
90
5
70
1
43
0
38
0
39
0
10
1279638.4445207042
20
509858.4383523032
10
1279648.6886685872
20
509864.6879470221
10
1279635.1478102517
20
509886.88366367255
10
1279624.9036688125
20
509880.6340583914
10
1279638.4445207042
20
509858.4383523032
0
LWPOLYLINE
5
54
330
C
100
AcDbEntity
8
C-PVMT
100
AcDbPolyline
90
5
70
1
43
0
38
0
39
0
10
1279638.4433177619
20
509889.4798076306
10
1279641.0473199624
20
509885.21141536423
10
1279647.988368898
20
509889.4459152822
10
1279645.3843666974
20
509893.71430754854
10
1279638.4433177619
20
509889.4798076306
0
LWPOLYLINE
5
55
330
C
100
AcDbEntity
8
C-PVMT
100
AcDbPolyline
90
5
70
1
43
0
38
0
39
0
10
1279644.3428120553
20
509887.80758459383
10
1279651.1722396817
20
509891.9739881147
10
1279649.0890379213
20
509895.3887019278
10
1279642.2596102948
20
509891.22229840694
10
1279644.3428120553
20
509887.80758459383
0
LWPOLYLINE
5
56
330
C
100
AcDbEntity
8
C-PVMT
100
AcDbPolyline
90
5
70
1
43
0
38
0
39
0
10
1279631.3747710735
20
509854.12531490624
10
1279651.249707073
20
509866.25034321845
10
1279649.6873057527
20
509868.8113785783
10
1279629.8123697531
20
509856.6863502661
10
1279631.3747710735
20
509854.12531490624
0
LWPOLYLINE
5
57
330
C
100
AcDbEntity
8
C-TOPO-SURF
100
AcDbPolyline
90
5
70
1
43
0
38
0
39
0
10
1279633.457972834
20
509850.71060109313
10
1279653.3329088334
20
509862.83562940534
10
1279651.249707073
20
509866.25034321845
10
1279631.3747710735
20
509854.12531490624
10
1279633.457972834
20
509850.71060109313
0
LWPOLYLINE
5
58
330
C
100
AcDbEntity
8
C-PVMT
100
AcDbPolyline
90
5
70
1
43
0
38
0
39
0
10
1279634.239173494
20
509849.4300834132
10
1279654.1141094936
20
509861.5551117254
10
1279653.3329088334
20
509862.83562940534
10
1279633.457972834
20
509850.71060109313
10
1279634.239173494
20
509849.4300834132
0
LWPOLYLINE
5
59
330
C
100
AcDbEntity
8
C-PVMT
100
AcDbPolyline
90
5
70
1
43
0
38
0
39
0
10
1279654.1141000995
20
509861.5551059945
10
1279638.7478691847
20
509852.18072881637
10
1279636.8821184477
20
509860.99940072244
10
1279647.1262723906
20
509867.2489855079
10
1279654.1141000995
20
509861.5551059945
0
LWPOLYLINE
5
5A
330
C
100
AcDbEntity
8
C-LODS
100
AcDbPolyline
90
4
70
1
43
0
38
0
39
0
10
1279604.8038774475
20
509937.08435120434
10
1279664.2885611826
20
509905.60743124544
10
1279630.0952715727
20
509951.2390213536
10
1279604.8038774475
20
509937.08435120434
0
LWPOLYLINE
5
5B
330
C
100
AcDbEntity
8
C-SITE-N
100
AcDbPolyline
90
16
70
1
43
0
38
0
39
0
10
1279689.3827129374
20
509902.1161136567
10
1279675.2088246942
20
509891.04545763513
10
1279668.0437833245
20
509885.56561191374
10
1279662.1721084707
20
509880.9645297468
10
1279649.2951200453
20
509870.85247202485
10
1279639.743295488
20
509864.76190175203
10
1279631.070949548
20
509859.11607561784
10
1279631.0574256384
20
509859.14130144165
10
1279604.304682537
20
509909.90938190685
10
1279567.6854945496
20
509966.12919282366
10
1279567.6700520036
20
509966.15428036306
10
1279581.9044885654
20
509991.66592886584
10
1279585.3110719859
20
509997.8859383955
10
1279594.768511825
20
510015.132680632
10
1279594.7819614671
20
510015.1574950101
10
1279689.3827129374
20
509902.1161136567
0
POINT
5
5C
330
C
100
AcDbEntity
8
C-TOPO-SPOT
100
AcDbPoint
10
1279627.1876815623
20
509922.90504273865
30
0
0
LWPOLYLINE
5
5D
330
C
100
AcDbEntity
8
C-UTIL
100
AcDbPolyline
90
2
70
0
43
0
38
0
39
0
10
1279661.355693759
20
509849.60795646923
10
1279637.6745301795
20
509888.4251245253
0
LWPOLYLINE
5
5E
330
C
100
AcDbEntity
8
C-UTIL
100
AcDbPolyline
90
2
70
0
43
0
38
0
39
0
10
1279669.9272685149
20
509854.8372113092
10
1279646.2461270003
20
509893.6543431973
0
LWPOLYLINE
5
5F
330
C
100
AcDbEntity
8
C-SWMG
100
AcDbPolyline
90
5
70
1
43
0
38
0
39
0
10
1279655.9615397735
20
509880.50712682295
10
1279669.152445732
20
509880.50712682295
10
1279669.152445732
20
509893.69803278125
10
1279655.9615397735
20
509893.69803278125
10
1279655.9615397735
20
509880.50712682295
0
LWPOLYLINE
5
60
330
C
100
AcDbEntity
8
C-STRM-AREA
100
AcDbPolyline
90
16
70
1
43
0
38
0
39
0
10
1279694.1248182356
20
509900.53104667366
10
1279679.3752530515
20
509888.28124441206
10
1279671.7345895022
20
509882.1924902499
10
1279665.374867037
20
509877.12495456636
10
1279651.249707073
20
509866.25034321845
10
1279640.7986845225
20
509859.87455543876
10
1279631.3747710735
20
509854.12531490624
10
1279631.360312298
20
509854.15048390627
10
1279599.9569066614
20
509907.4402029067
10
1279563.6401923597
20
509969.0678200871
10
1279563.6251980662
20
509969.09352459013
10
1279579.1544665098
20
509995.8417376131
10
1279582.8730512857
20
510002.2512625605
10
1279593.110405147
20
510019.84974351525
10
1279593.1248639375
20
510019.8749125004
10
1279694.1248182356
20
509900.53104667366
0
LWPOLYLINE
5
61
330
C
100
AcDbEntity
8
C-SITE-N
100
AcDbPolyline
90
4
70
1
43
0
38
0
39
0
10
1279604.8038774475
20
509937.08435120434
10
1279664.2885611826
20
509905.60743124544
10
1279630.0952715727
20
509951.2390213536
10
1279604.8038774475
20
509937.08435120434
0
LWPOLYLINE
5
62
330
C
100
AcDbEntity
8
C-SITE-N
100
AcDbPolyline
90
5
70
1
43
0
38
0
39
0
10
1279604.8038774475
20
509921.08435120434
10
1279634.8038774475
20
509921.08435120434
10
1279634.8038774475
20
509937.08435120434
10
1279604.8038774475
20
509937.08435120434
10
1279604.8038774475
20
509921.08435120434
0
LWPOLYLINE
5
63
330
C
100
AcDbEntity
8
L-PLNT-TREE
100
AcDbPolyline
90
5
70
1
43
0
38
0
39
0
10
1279633.6907394691
20
509847.73154868383
10
1279643.6907394691
20
509847.73154868383
10
1279643.6907394691
20
509857.73154868383
10
1279633.6907394691
20
509857.73154868383
10
1279633.6907394691
20
509847.73154868383
0
LWPOLYLINE
5
64
330
C
100
AcDbEntity
8
L-PLNT-TREE
100
AcDbPolyline
90
5
70
1
43
0
38
0
39
0
10
1279661.8689224843
20
509902.6376224905
10
1279673.8689224843
20
509902.6376224905
10
1279673.8689224843
20
509914.6376224905
10
1279661.8689224843
20
509914.6376224905
10
1279661.8689224843
20
509902.6376224905
0
LWPOLYLINE
5
65
330
C
100
AcDbEntity
8
L-PLNT-TREE
100
AcDbPolyline
90
5
70
1
43
0
38
0
39
0
10
1279644.6504582774
20
509932.46087732515
10
1279656.6504582774
20
509932.46087732515
10
1279656.6504582774
20
509944.46087732515
10
1279644.6504582774
20
509944.46087732515
10
1279644.6504582774
20
509932.46087732515
0
ENDSEC
0
SECTION
2
OBJECTS
0
DICTIONARY
5
A
330
0
100
AcDbDictionary
281
1
3
ACAD_GROUP
350
B
0
DICTIONARY
5
B
330
A
100
AcDbDictionary
281
0
0
ENDSEC
0
EOF