0
SECTION
2
HEADER
9
$ACADVER
1
AC1021
9
$LASTSAVEDBY
1
@tarikjabiri/dxf
9
$HANDSEED
5
4E
9
$INSUNITS
70
0
9
$CLAYER
8
0
9
$VIEWCTR
10
1439249.1997590782
20
402422.04333332484
0
ENDSEC
0
SECTION
2
CLASSES
0
ENDSEC
0
SECTION
2
TABLES
0
TABLE
2
VPORT
5
1
330
0
100
AcDbSymbolTable
70
1
0
VPORT
5
19
330
1
100
AcDbSymbolTableRecord
100
AcDbViewportTableRecord
2
*Active
70
0
10
0
20
0
11
1
21
1
12
1439249.1997590782
22
402422.04333332484
13
0
23
0
14
10
24
10
15
10
25
10
16
0
26
0
36
1
17
0
27
0
37
0
40
298.59315820992924
41
2
42
50
43
0
44
0
50
0
51
0
71
0
72
100
73
1
74
3
75
0
76
1
77
0
78
0
281
0
65
1
110
0
120
0
130
0
111
1
121
0
131
0
112
0
122
1
132
0
79
0
146
0
348
10020
60
7
61
5
292
1
282
1
141
0
142
0
63
250
421
3358443
0
ENDTAB
0
TABLE
2
LTYPE
5
2
330
0
100
AcDbSymbolTable
70
7
0
LTYPE
5
12
330
2
100
AcDbSymbolTableRecord
100
AcDbLinetypeTableRecord
2
ByBlock
70
0
3

72
65
73
0
40
0
0
LTYPE
5
13
330
2
100
AcDbSymbolTableRecord
100
AcDbLinetypeTableRecord
2
ByLayer
70
0
3

72
65
73
0
40
0
0
LTYPE
5
14
330
2
100
AcDbSymbolTableRecord
100
AcDbLinetypeTableRecord
2
Continuous
70
0
3
Solid line
72
65
73
0
40
0
0
LTYPE
5
1A
330
2
100
AcDbSymbolTableRecord
100
AcDbLinetypeTableRecord
2
DASHED
70
0
3
Dashed __ __ __ __ __ __
72
65
73
2
40
6
49
4
74
0
49
-2
74
0
0
LTYPE
5
1B
330
2
100
AcDbSymbolTableRecord
100
AcDbLinetypeTableRecord
2
HIDDEN
70
0
3
Hidden __ __ __ __ __
72
65
73
2
40
3
49
2
74
0
49
-1
74
0
0
LTYPE
5
1C
330
2
100
AcDbSymbolTableRecord
100
AcDbLinetypeTableRecord
2
PHANTOM
70
0
3
Phantom ____ _ _ ____ _ _
72
65
73
6
40
13
49
8
74
0
49
-1
74
0
49
1
74
0
49
-1
74
0
49
1
74
0
49
-1
74
0
0
LTYPE
5
1D
330
2
100
AcDbSymbolTableRecord
100
AcDbLinetypeTableRecord
2
DASHDOT
70
0
3
Dash dot __ . __ . __ .
72
65
73
4
40
8
49
4
74
0
49
-2
74
0
49
0
74
0
49
-2
74
0
0
ENDTAB
0
TABLE
2
LAYER
5
3
330
0
100
AcDbSymbolTable
70
14
0
LAYER
5
15
330
3
100
AcDbSymbolTableRecord
100
AcDbLayerTableRecord
2
0
70
0
62
7
6
Continuous
370
0
390
0
0
LAYER
5
1E
330
3
100
AcDbSymbolTableRecord
100
AcDbLayerTableRecord
2
C-BLDG-FTPR-N
70
0
62
6
6
Continuous
370
0
390
0
0
LAYER
5
1F
330
3
100
AcDbSymbolTableRecord
100
AcDbLayerTableRecord
2
C-LODS
70
0
62
30
6
PHANTOM
370
0
390
0
0
LAYER
5
20
330
3
100
AcDbSymbolTableRecord
100
AcDbLayerTableRecord
2
C-PVMT
70
0
62
8
6
Continuous
370
0
390
0
0
LAYER
5
21
330
3
100
AcDbSymbolTableRecord
100
AcDbLayerTableRecord
2
C-SITE-N
70
0
62
6
6
Continuous
370
0
390
0
0
LAYER
5
22
330
3
100
AcDbSymbolTableRecord
100
AcDbLayerTableRecord
2
C-STRM-AREA
70
0
62
150
6
PHANTOM
370
0
390
0
0
LAYER
5
23
330
3
100
AcDbSymbolTableRecord
100
AcDbLayerTableRecord
2
C-SWMG
70
0
62
92
6
Continuous
370
0
390
0
0
LAYER
5
24
330
3
100
AcDbSymbolTableRecord
100
AcDbLayerTableRecord
2
C-TOPO-MAJR-E
70
0
62
32
6
DASHED
370
0
390
0
0
LAYER
5
25
330
3
100
AcDbSymbolTableRecord
100
AcDbLayerTableRecord
2
C-TOPO-SPOT
70
0
62
7
6
Continuous
370
0
390
0
0
LAYER
5
26
330
3
100
AcDbSymbolTableRecord
100
AcDbLayerTableRecord
2
C-TOPO-SURF
70
0
62
253
6
Continuous
370
0
390
0
0
LAYER
5
27
330
3
100
AcDbSymbolTableRecord
100
AcDbLayerTableRecord
2
C-UTIL
70
0
62
4
6
DASHED
370
0
390
0
0
LAYER
5
28
330
3
100
AcDbSymbolTableRecord
100
AcDbLayerTableRecord
2
L-PLNT-TREE
70
0
62
90
6
Continuous
370
0
390
0
0
LAYER
5
29
330
3
100
AcDbSymbolTableRecord
100
AcDbLayerTableRecord
2
V-PROP-BNDY
70
0
62
7
6
Continuous
370
0
390
0
0
LAYER
5
2A
330
3
100
AcDbSymbolTableRecord
100
AcDbLayerTableRecord
2
C-ANNO-NPLT
70
0
62
250
6
Continuous
370
0
390
0
0
ENDTAB
0
TABLE
2
STYLE
5
4
330
0
100
AcDbSymbolTable
70
1
0
STYLE
5
16
330
4
100
AcDbSymbolTableRecord
100
AcDbTextStyleTableRecord
2
Standard
70
0
40
0
41
1
50
0
71
0
42
1
3
txt
4

0
ENDTAB
0
TABLE
2
VIEW
5
5
330
0
100
AcDbSymbolTable
70
0
0
ENDTAB
0
TABLE
2
UCS
5
6
330
0
100
AcDbSymbolTable
70
0
0
ENDTAB
0
TABLE
2
APPID
5
7
330
0
100
AcDbSymbolTable
70
1
0
APPID
5
17
330
7
100
AcDbSymbolTableRecord
100
AcDbRegAppTableRecord
2
ACAD
70
0
0
ENDTAB
0
TABLE
2
DIMSTYLE
5
8
330
0
100
AcDbSymbolTable
70
1
100
AcDbDimStyleTable
0
DIMSTYLE
105
18
330
8
100
AcDbSymbolTableRecord
100
AcDbDimStyleTableRecord
2
Standard
70
0
340
16
0
ENDTAB
0
TABLE
2
BLOCK_RECORD
5
9
330
0
100
AcDbSymbolTable
70
2
0
BLOCK_RECORD
5
C
330
9
100
AcDbSymbolTableRecord
100
AcDbBlockTableRecord
2
*Model_Space
70
0
280
1
281
0
0
BLOCK_RECORD
5
F
330
9
100
AcDbSymbolTableRecord
100
AcDbBlockTableRecord
2
*Paper_Space
70
0
280
1
281
0
0
ENDTAB
0
ENDSEC
0
SECTION
2
BLOCKS
0
BLOCK
5
D
330
C
100
AcDbEntity
8
0
100
AcDbBlockBegin
2
*Model_Space
70
0
10
0
20
0
30
0
3
*Model_Space
1

0
ENDBLK
5
E
100
AcDbEntity
8
0
100
AcDbBlockEnd
0
BLOCK
5
10
330
F
100
AcDbEntity
8
0
100
AcDbBlockBegin
2
*Paper_Space
70
0
10
0
20
0
30
0
3
*Paper_Space
1

0
ENDBLK
5
11
100
AcDbEntity
8
0
100
AcDbBlockEnd
0
ENDSEC
0
SECTION
2
ENTITIES
0
TEXT
5
2B
330
C
100
AcDbEntity
8
C-ANNO-NPLT
100
AcDbText
10
1439201.75247682
20
402392.7467542199
30
0
40
2.5
1
PRELIMINARY - NOT SEALED - NOT FOR CONSTRUCTION OR PERMIT SUBMISSION
7
STANDARD
100
AcDbText
0
TEXT
5
2C
330
C
100
AcDbEntity
8
C-ANNO-NPLT
100
AcDbText
10
1439201.75247682
20
402388.7467542199
30
0
40
2.5
1
GENERATED 2026-09-26T17:03:04.854Z BY KEALEE SITE PLAN ENGINE
7
STANDARD
100
AcDbText
0
TEXT
5
2D
330
C
100
AcDbEntity
8
C-ANNO-NPLT
100
AcDbText
10
1439201.75247682
20
402384.7467542199
30
0
40
2.5
1
HORIZONTAL: EPSG:2248
7
STANDARD
100
AcDbText
0
TEXT
5
2E
330
C
100
AcDbEntity
8
C-ANNO-NPLT
100
AcDbText
10
1439201.75247682
20
402380.7467542199
30
0
40
2.5
1
VERTICAL: NAVD88 (feet)
7
STANDARD
100
AcDbText
0
TEXT
5
2F
330
C
100
AcDbEntity
8
C-ANNO-NPLT
100
AcDbText
10
1439201.75247682
20
402376.7467542199
30
0
40
2.5
1
SOURCES: Parcel boundary — jurisdiction gis (Anne Arundel County — parcels (SDAT assessment), level 1); Existing contours (U.S. Geological Survey — 3D Elevation Program — 3DEP bare-earth DEM — MD_Central_Processing_D24, level 1)
7
STANDARD
100
AcDbText
0
TEXT
5
30
330
C
100
AcDbEntity
8
C-ANNO-NPLT
100
AcDbText
10
1439201.75247682
20
402372.7467542199
30
0
40
2.5
1
THIS FILE IS DATA FOR A LICENSED PROFESSIONAL. IT IS NOT A SEALED DRAWING.
7
STANDARD
100
AcDbText
0
LWPOLYLINE
5
31
330
C
100
AcDbEntity
8
V-PROP-BNDY
100
AcDbPolyline
90
5
70
1
43
0
38
0
39
0
10
1439315.8876331272
20
402433.3814389716
10
1439222.098088019
20
402489.3648422085
10
1439283.5299386487
20
402538.67998799274
10
1439345.8319137592
20
402461.8918540047
10
1439315.8876331272
20
402433.3814389716
0
LWPOLYLINE
5
32
330
C
100
AcDbEntity
8
C-TOPO-MAJR-E
100
AcDbPolyline
90
47
70
0
43
0
38
0
39
0
10
1439303.392323841
20
402412.7467542199
10
1439303.349791065
20
402413.4952404276
10
1439303.3270932422
20
402414.2437266353
10
1439303.324230372
20
402414.9922128429
10
1439303.3412024549
20
402415.7406990506
10
1439303.3780094907
20
402416.4891852582
10
1439303.4366188175
20
402417.23767146585
10
1439303.5170304351
20
402417.98615767364
10
1439303.6192443438
20
402418.73464388127
10
1439303.7432605433
20
402419.4831300889
10
1439303.9372950147
20
402420.18171622965
10
1439304.201347758
20
402420.8304023035
10
1439304.535418773
20
402421.4291883104
10
1439304.9395080602
20
402421.9780742504
10
1439305.4296965774
20
402422.4157237457
10
1439306.0059843247
20
402422.74213679635
10
1439306.6683713023
20
402422.9573134022
10
1439307.4168575096
20
402423.0612535633
10
1439308.1653437172
20
402423.10396974673
10
1439308.913829925
20
402423.0854619524
10
1439309.6623161326
20
402423.0057301802
10
1439310.4108023406
20
402422.86477443017
10
1439311.1279084752
20
402422.63109002996
10
1439311.8136345365
20
402422.3046769794
10
1439312.4679805252
20
402421.8855352785
10
1439313.090946441
20
402421.3736649273
10
1439313.5895509506
20
402420.96470142493
10
1439313.9637940547
20
402420.6586447714
10
1439314.2136757527
20
402420.4554949667
10
1439314.3391960445
20
402420.3552520109
10
1439314.5837879495
20
402420.1180089811
10
1439314.9474514672
20
402419.7437658772
10
1439315.4301865979
20
402419.2325226994
10
1439316.0319933414
20
402418.5842794475
10
1439316.5200182651
20
402418.0330686812
10
1439316.894261369
20
402417.5788904006
10
1439317.1547226529
20
402417.22174460546
10
1439317.3014021171
20
402416.96163129585
10
1439317.5049904706
20
402416.64445308916
10
1439317.7654877133
20
402416.2702099854
10
1439318.0828938452
20
402415.8389019844
10
1439318.4572088667
20
402415.35052908625
10
1439318.8314879294
20
402414.8607983575
10
1439319.2057310333
20
402414.3697097981
10
1439319.5799381782
20
402413.877263408
10
1439319.9541093647
20
402413.3834591871
10
1439320.319306246
20
402412.9494355249
0
LWPOLYLINE
5
33
330
C
100
AcDbEntity
8
C-TOPO-MAJR-E
100
AcDbPolyline
90
41
70
0
43
0
38
0
39
0
10
1439326.0052499592
20
402440.4751221404
10
1439325.6732460617
20
402440.91046257026
10
1439325.4300149553
20
402441.4240894446
10
1439325.27555664
20
402442.0160027634
10
1439325.2098711159
20
402442.6862025267
10
1439325.2329583825
20
402443.4346887344
10
1439325.3275029904
20
402444.0927980921
10
1439325.4935049391
20
402444.6605305999
10
1439325.7309642287
20
402445.13788625767
10
1439326.0398808594
20
402445.5248650655
10
1439326.4586898843
20
402445.8709689349
10
1439326.9873913035
20
402446.1761978657
10
1439327.625985117
20
402446.440551858
10
1439328.3744713243
20
402446.6640309118
10
1439329.1229575318
20
402446.72910771763
10
1439329.8714437396
20
402446.6357822754
10
1439330.6199299474
20
402446.3840545853
10
1439331.3684161552
20
402445.9739246472
10
1439331.972193948
20
402445.6162452127
10
1439332.4312633262
20
402445.3110162819
10
1439332.7456242896
20
402445.05823785474
10
1439332.9152768378
20
402444.85790993116
10
1439333.039717571
20
402444.5205424366
10
1439333.1189464892
20
402444.0461353711
10
1439333.152963592
20
402443.4346887344
10
1439333.14176888
20
402442.6862025267
10
1439333.0937583866
20
402442.08338312386
10
1439333.0089321123
20
402441.62623052596
10
1439332.887290057
20
402441.3147447329
10
1439332.728832221
20
402441.1489257447
10
1439332.422867292
20
402440.91252012784
10
1439331.9693952699
20
402440.60552788246
10
1439331.3684161552
20
402440.22794900835
10
1439330.6199299474
20
402439.7797835056
10
1439329.8714437396
20
402439.4883203938
10
1439329.1229575318
20
402439.35355967295
10
1439328.3744713243
20
402439.375501343
10
1439327.625985117
20
402439.55414540396
10
1439326.9816194868
20
402439.7969635572
10
1439326.4413744342
20
402440.1039558027
10
1439326.0052499592
20
402440.4751221404
0
LWPOLYLINE
5
34
330
C
100
AcDbEntity
8
C-TOPO-MAJR-E
100
AcDbPolyline
90
199
70
0
43
0
38
0
39
0
10
1439295.4147752854
20
402412.7467542199
10
1439295.160906983
20
402413.4952404276
10
1439294.89486564
20
402414.24252211186
10
1439294.616651256
20
402414.9885992727
10
1439294.3262638317
20
402415.73347191006
10
1439294.023703366
20
402416.47714002396
10
1439293.796323874
20
402417.0360956328
10
1439293.6441253552
20
402417.4103387367
10
1439293.5671078092
20
402417.5998693355
10
1439293.5652712365
20
402417.60468742915
10
1439293.4788768839
20
402417.79542255134
10
1439293.3079247512
20
402418.1720747021
10
1439293.0524148387
20
402418.7346438813
10
1439292.7123471464
20
402419.4831300889
10
1439292.36335897
20
402420.2316162966
10
1439292.0054503097
20
402420.98010250437
10
1439291.6386211659
20
402421.728588712
10
1439291.262871538
20
402422.4770749196
10
1439290.9733512385
20
402423.0472489526
10
1439290.7700602673
20
402423.43911081087
10
1439290.6529986244
20
402423.6526604945
10
1439290.6221663095
20
402423.6878980035
10
1439290.4353324072
20
402423.89263830986
10
1439290.0924969174
20
402424.26688141364
10
1439289.59365984
20
402424.81062731496
10
1439288.9388211754
20
402425.5238760137
10
1439288.424280291
20
402426.07866451907
10
1439288.050037187
20
402426.4749928311
10
1439287.8160918637
20
402426.7128609497
10
1439287.7224443208
20
402426.792268875
10
1439287.4650871116
20
402426.98851547897
10
1439287.0440202362
20
402427.3016007617
10
1439286.4592436948
20
402427.73152472323
10
1439285.7107574875
20
402428.27828736353
10
1439285.109295176
20
402428.7189382543
10
1439284.654856761
20
402429.05347739544
10
1439284.3474422423
20
402429.28190478706
10
1439284.1870516206
20
402429.40422042925
10
1439283.9197347574
20
402429.6021217369
10
1439283.5454916535
20
402429.8756087101
10
1439283.0643223089
20
402430.2246813487
10
1439282.4762267233
20
402430.6493396529
10
1439281.9082912677
20
402431.0487903569
10
1439281.3605159416
20
402431.4230334607
10
1439280.8329007456
20
402431.7720689644
10
1439280.3254456792
20
402432.0958968679
10
1439279.8845965941
20
402432.3755618154
10
1439279.5103534905
20
402432.6110638068
10
1439279.2027163678
20
402432.8024028422
10
1439278.9616852265
20
402432.94957892166
10
1439278.5937903188
20
402433.1373590899
10
1439278.099031644
20
402433.3657433471
10
1439277.477409203
20
402433.6347316932
10
1439276.7289229953
20
402433.94432412816
10
1439275.9804367875
20
402434.24721524306
10
1439275.2319505797
20
402434.54340503784
10
1439274.483464372
20
402434.8328935125
10
1439273.7349781648
20
402435.1156806671
10
1439273.1687518435
20
402435.33000366774
10
1439272.7847854083
20
402435.47586251434
10
1439272.5830788598
20
402435.55325720704
10
1439272.5636321977
20
402435.5621877458
10
1439272.3667873146
20
402435.6472395099
10
1439271.992544211
20
402435.8084124994
10
1439271.4409028862
20
402436.04570671427
10
1439270.7118633406
20
402436.3591221546
10
1439269.9779621295
20
402436.6899505322
10
1439269.2391992528
20
402437.0381918472
10
1439268.4955747107
20
402437.40384609957
10
1439267.7470885033
20
402437.78691328916
10
1439267.1646460588
20
402438.08721457585
10
1439266.7482473778
20
402438.3047499596
10
1439266.4978924599
20
402438.4395194403
10
1439266.4135813052
20
402438.491523018
10
1439266.184304176
20
402438.633034404
10
1439265.810061072
20
402438.86405359826
10
1439265.2908519937
20
402439.1845806009
10
1439264.6266769408
20
402439.59461541177
10
1439263.9985127677
20
402439.9867543691
10
1439263.4063594749
20
402440.36099747295
10
1439262.8502170623
20
402440.71734472323
10
1439262.33008553
20
402441.05579612
10
1439261.882898212
20
402441.34804181376
10
1439261.508655108
20
402441.5940818045
10
1439261.2073562185
20
402441.7939160922
10
1439260.9790015433
20
402441.94754467683
10
1439260.620613985
20
402442.16808309284
10
1439260.1321935435
20
402442.45553134015
10
1439259.513740219
20
402442.80988941883
10
1439258.7652540114
20
402443.23115732893
10
1439258.117566981
20
402443.59050568973
10
1439257.5706791277
20
402443.88793450117
10
1439257.1245904518
20
402444.1234437634
10
1439256.7793009533
20
402444.2970334764
10
1439256.419534652
20
402444.47956176783
10
1439256.0452915481
20
402444.6710286377
10
1439255.6565716416
20
402444.87143408594
10
1439255.2533749326
20
402445.0807781127
10
1439254.763855849
20
402445.3416874113
10
1439254.1880143902
20
402445.65416198183
10
1439253.5258505573
20
402446.01820182434
10
1439252.77736435
20
402446.4338069388
10
1439252.1525132507
20
402446.77639504126
10
1439251.6512972603
20
402447.0459661317
10
1439251.2737163785
20
402447.2425202102
10
1439251.019770605
20
402447.3660572768
10
1439250.7056761666
20
402447.51733883895
10
1439250.331433063
20
402447.6963648967
10
1439249.8970412938
20
402447.9031354501
10
1439249.4025008592
20
402448.1376504991
10
1439248.8444739815
20
402448.3994613906
10
1439248.2229606605
20
402448.68856812455
10
1439247.537960896
20
402449.00497070095
10
1439246.7894746887
20
402449.3486691198
10
1439246.159380864
20
402449.6490111189
10
1439245.6476794218
20
402449.90599669825
10
1439245.2543703627
20
402450.1196258578
10
1439244.9794536866
20
402450.2898985975
10
1439244.6548737967
20
402450.49014365015
10
1439244.2806306926
20
402450.7203610155
10
1439243.856724375
20
402450.98055069376
10
1439243.3831548435
20
402451.2707126848
10
1439242.8503612464
20
402451.6029152322
10
1439242.2583435834
20
402451.9771583361
10
1439241.607101855
20
402452.3934419963
10
1439240.8966360611
20
402452.85176621296
10
1439240.3542816122
20
402453.2019767126
10
1439239.9800385083
20
402453.4440734953
10
1439239.7739067497
20
402453.57805656095
10
1439239.735886336
20
402453.6039259097
10
1439239.5202494739
20
402453.7355309059
10
1439239.1269961633
20
402453.97287154954
10
1439238.556126404
20
402454.3159478407
10
1439237.8076401963
20
402454.7647597794
10
1439237.1219703606
20
402455.16981996346
10
1439236.4991168962
20
402455.53112839296
10
1439235.9390798043
20
402455.84868506785
10
1439235.4418590842
20
402456.1224899882
10
1439235.0061271724
20
402456.3613620492
10
1439234.6318840687
20
402456.56530125067
10
1439234.319129773
20
402456.7343075929
10
1439234.0678642853
20
402456.8683810758
10
1439233.6922936179
20
402457.06784812605
10
1439233.1924177702
20
402457.3327087437
10
1439232.5682367426
20
402457.66296292876
10
1439231.8197505353
20
402458.0586106811
10
1439231.17608513
20
402458.41003773856
10
1439230.6372405274
20
402458.717244101
10
1439230.2032167274
20
402458.9802297683
10
1439229.87401373
20
402459.1989947408
10
1439229.5222906796
20
402459.4409682983
10
1439229.1480475757
20
402459.70615044096
10
1439228.7512844186
20
402459.99454116874
10
1439228.3320012083
20
402460.30614048167
10
1439227.852580576
20
402460.6490616901
10
1439227.3130225218
20
402461.02330479387
10
1439226.7133270453
20
402461.42886979313
10
1439226.053494147
20
402461.86575668794
10
1439225.5364561458
20
402462.2104246054
10
1439225.162213042
20
402462.46287354577
10
1439224.9307648353
20
402462.62310350896
10
1439224.842111526
20
402462.6911144949
10
1439224.5884999922
20
402462.8427145541
10
1439224.1699302336
20
402463.07790368644
10
1439223.5864022505
20
402463.39668189187
10
1439222.837916043
20
402463.7990491705
10
1439222.1027992694
20
402464.1703516153
10
1439221.38105193
20
402464.51058922603
10
1439220.672674025
20
402464.819762003
10
1439219.9776655543
20
402465.09786994604
10
1439219.443039767
20
402465.312674454
10
1439219.068796663
20
402465.4641755271
10
1439218.8549362428
20
402465.5523731651
10
1439218.8014585061
20
402465.57726736803
10
1439218.5742286518
20
402465.66420677013
10
1439218.1732466796
20
402465.81319137145
10
1439217.5985125895
20
402466.0242211718
10
1439216.8500263817
20
402466.2972961712
10
1439216.101540174
20
402466.5396446192
10
1439215.353053966
20
402466.75126651564
10
1439214.6045677585
20
402466.9321618605
10
1439213.8560815512
20
402467.0823306539
10
1439213.1075953436
20
402467.20834182436
10
1439212.3591091356
20
402467.31019537186
10
1439211.610622928
20
402467.3878912965
10
1439210.8621367202
20
402467.44142959814
10
1439210.1136505124
20
402467.49466207414
10
1439209.365164305
20
402467.5475887247
10
1439208.6166780973
20
402467.6002095496
10
1439207.86819189
20
402467.65252454893
10
1439207.1197056824
20
402467.7135804224
10
1439206.3712194744
20
402467.7833771701
10
1439205.6227332668
20
402467.8619147919
10
1439204.8742470592
20
402467.94919328793
10
1439204.161889122
20
402468.0414562637
10
1439203.4856594556
20
402468.1387037191
10
1439202.8455580599
20
402468.2409356542
10
1439202.2415849345
20
402468.3481520691
10
1439201.75247682
20
402468.4370106202
0
LWPOLYLINE
5
35
330
C
100
AcDbEntity
8
C-TOPO-MAJR-E
100
AcDbPolyline
90
196
70
0
43
0
38
0
39
0
10
1439201.8803022283
20
402487.9914066638
10
1439202.6287884358
20
402488.00220912875
10
1439203.3772746436
20
402488.0183530241
10
1439204.1257608514
20
402488.0398383497
10
1439204.8742470592
20
402488.06666510575
10
1439205.6227332668
20
402488.0988332923
10
1439206.3712194744
20
402488.159332513
10
1439207.1197056824
20
402488.24816276797
10
1439207.86819189
20
402488.3653240572
10
1439208.6166780973
20
402488.5108163806
10
1439209.2324996726
20
402488.6660316007
10
1439209.7156566153
20
402488.8309697174
10
1439210.0661489256
20
402489.0056307309
10
1439210.2839766038
20
402489.190014641
10
1439210.5800119946
20
402489.4841186257
10
1439210.9542550985
20
402489.88794268505
10
1439211.4067059152
20
402490.4014868191
10
1439211.9373644448
20
402491.02475102775
10
1439212.3837181525
20
402491.52350468404
10
1439212.7457670383
20
402491.8977477878
10
1439213.023511102
20
402492.1474803393
10
1439213.216950344
20
402492.27270233823
10
1439213.5007915166
20
402492.394390993
10
1439213.8750346205
20
402492.51254630357
10
1439214.3396796554
20
402492.62716826994
10
1439214.8947266212
20
402492.7382568921
10
1439215.4981333977
20
402492.8303872683
10
1439216.1498999845
20
402492.90355939855
10
1439216.8500263817
20
402492.9577732829
10
1439217.5985125895
20
402492.9930289212
10
1439218.3469987973
20
402493.0513059086
10
1439219.0954850046
20
402493.132604245
10
1439219.8439712124
20
402493.23692393047
10
1439220.5924574197
20
402493.36426496494
10
1439221.3409436273
20
402493.472545928
10
1439222.0894298353
20
402493.5617668197
10
1439222.837916043
20
402493.6319276401
10
1439223.5864022505
20
402493.6830283891
10
1439224.2521378275
20
402493.82727899187
10
1439224.8351227734
20
402494.06467944826
10
1439225.3353570886
20
402494.39522975823
10
1439225.7528407732
20
402494.8189299219
10
1439226.1487041672
20
402495.21274488175
10
1439226.522947271
20
402495.57667463785
10
1439226.8755700844
20
402495.91071919014
10
1439227.2065726079
20
402496.2148785386
10
1439227.5344776958
20
402496.55407976476
10
1439227.8592853486
20
402496.9283228686
10
1439228.1809955656
20
402497.3376078501
10
1439228.4996083474
20
402497.7819347093
10
1439228.8460362903
20
402498.2002675236
10
1439229.220279394
20
402498.5926062928
10
1439229.622337659
20
402498.95895101724
10
1439230.0522110846
20
402499.29930169665
10
1439230.5487756147
20
402499.6565985883
10
1439231.1120312498
20
402500.0308416921
10
1439231.7419779885
20
402500.4220310081
10
1439232.4386158315
20
402500.83016653644
10
1439232.9740563051
20
402501.14398528746
10
1439233.3482994088
20
402501.36348726123
10
1439233.561345143
20
402501.48867245787
10
1439233.6131935075
20
402501.51954087726
10
1439233.8392013328
20
402501.61262185
10
1439234.239368619
20
402501.767915376
10
1439234.8136953658
20
402501.98542145535
10
1439235.5621815734
20
402502.26514008804
10
1439236.3106677812
20
402502.4718606819
10
1439237.0591539887
20
402502.6055832369
10
1439237.8076401963
20
402502.6663077532
10
1439238.556126404
20
402502.6540342307
10
1439239.304612612
20
402502.57662770303
10
1439240.0530988197
20
402502.4340881703
10
1439240.8015850272
20
402502.2264156325
10
1439241.5500712346
20
402501.9536100896
10
1439242.1325288378
20
402501.7426289357
10
1439242.5489578368
20
402501.5934721711
10
1439242.7993582312
20
402501.5061397954
10
1439242.883730021
20
402501.48063180863
10
1439243.113037468
20
402501.3763461821
10
1439243.487280572
20
402501.19328291574
10
1439244.0064593328
20
402500.93144200934
10
1439244.6705737505
20
402500.59082346305
10
1439245.3557811156
20
402500.2367557712
10
1439246.0620814285
20
402499.86923893384
10
1439246.7894746887
20
402499.4882729509
10
1439247.537960896
20
402499.0938578225
10
1439248.2049975793
20
402498.98180489487
10
1439248.7905847384
20
402499.152114168
10
1439249.2947223727
20
402499.60478564195
10
1439249.7174104827
20
402500.3398193167
10
1439250.1158760895
20
402500.9581324406
10
1439250.4901191937
20
402501.45972501364
10
1439250.8401397942
20
402501.84459703584
10
1439251.165937892
20
402502.11274850724
10
1439251.5974080171
20
402502.425317027
10
1439252.1345501696
20
402502.78230259527
10
1439252.77736435
20
402503.1837052119
10
1439253.5258505573
20
402503.62952487695
10
1439254.0954364955
20
402503.9725183936
10
1439254.4861221644
20
402504.2126857617
10
1439254.697907564
20
402504.3500269814
10
1439254.730792694
20
402504.38454205263
10
1439254.9007523786
20
402504.597549908
10
1439255.2077866173
20
402504.9890505474
10
1439255.6518954108
20
402505.559043971
10
1439256.2330787596
20
402506.30753017863
10
1439256.702570703
20
402506.9448055092
10
1439257.0603712415
20
402507.4708699628
10
1439257.3064803758
20
402507.8857235393
10
1439257.4408981055
20
402508.18936623854
10
1439257.5910264784
20
402508.5283091402
10
1439257.7568654947
20
402508.902552244
10
1439257.9384151543
20
402509.3120955501
10
1439258.1356754573
20
402509.75693905837
10
1439258.3116072014
20
402510.2776932415
10
1439258.4662103865
20
402510.8743580995
10
1439258.5994850127
20
402511.5469336323
10
1439258.71143108
20
402512.29541984
10
1439258.802813927
20
402513.0439060477
10
1439258.8736335537
20
402513.79239225533
10
1439258.92388996
20
402514.540878463
10
1439258.9535831457
20
402515.2893646707
10
1439258.9758741623
20
402516.0378508784
10
1439258.990763009
20
402516.786337086
10
1439258.9982496866
20
402517.5348232937
10
1439258.9983341945
20
402518.28330950136
10
1439259.0134810924
20
402519.03179570904
10
1439259.0436903802
20
402519.7802819166
10
1439259.0889620576
20
402520.5287681243
10
1439259.149296125
20
402521.2772543321
10
1439259.2546080807
20
402522.0257405398
10
1439259.4048979254
20
402522.77422674734
10
1439259.600165658
20
402523.522712955
10
1439259.840411279
20
402524.2711991627
10
1439260.0387250613
20
402525.0196853704
10
1439260.195107005
20
402525.768171578
10
1439260.30955711
20
402526.5166577857
10
1439260.3820753763
20
402527.26514399337
10
1439260.445565123
20
402527.8574196304
10
1439260.5000263506
20
402528.29348469665
10
1439260.5454590588
20
402528.5733391923
10
1439260.5818632473
20
402528.69698311726
10
1439260.706431515
20
402528.9459266316
10
1439260.9191638615
20
402529.32016973547
10
1439261.2200602866
20
402529.8197124288
10
1439261.6091207908
20
402530.4445547115
10
1439261.9907725947
20
402531.03367377864
10
1439262.3650156986
20
402531.58706963004
10
1439262.731850102
20
402532.1047422659
10
1439263.0912758056
20
402532.5866916862
10
1439263.4200733374
20
402533.0147879483
10
1439263.718242697
20
402533.38903105207
10
1439263.9857838843
20
402533.7094209977
10
1439264.2226969004
20
402533.97595778515
10
1439264.52827496
20
402534.27517535223
10
1439264.9025180638
20
402534.6070736989
10
1439265.3454262116
20
402534.9716528253
10
1439265.8569994036
20
402535.3689127314
10
1439266.3154923054
20
402535.75466423633
10
1439266.720904917
20
402536.12890734023
10
1439267.0732372385
20
402536.49164204294
10
1439267.3724892696
20
402536.8428683445
10
1439267.663848717
20
402537.2934096226
10
1439267.9473155807
20
402537.84326587734
10
1439268.2228898609
20
402538.4924371085
10
1439268.4905715568
20
402539.2409233161
10
1439268.721423434
20
402539.9894095238
10
1439268.9154454926
20
402540.7378957314
10
1439269.0726377317
20
402541.4863819391
10
1439269.1930001518
20
402542.2348681468
10
1439269.275383838
20
402542.9833543545
10
1439269.3197887898
20
402543.73184056213
10
1439269.3262150076
20
402544.4803267698
10
1439269.2946624914
20
402545.2288129775
10
1439269.181631458
20
402545.9772991852
10
1439268.9871219073
20
402546.7257853928
10
1439268.711133839
20
402547.4742716005
10
1439268.3536672534
20
402548.22275780817
10
1439268.0109980528
20
402548.91525372094
10
1439267.6831262372
20
402549.5517593388
10
1439267.3700518066
20
402550.1322746618
10
1439267.0717747605
20
402550.65679969
10
1439266.8167573449
20
402551.10618375597
10
1439266.6049995595
20
402551.48042685975
10
1439266.436501404
20
402551.77952900145
10
1439266.3112628788
20
402552.003490181
10
1439266.1534335255
20
402552.35858261754
10
1439265.9630133437
20
402552.8448063112
10
1439265.740002334
20
402553.4621612618
10
1439265.484400496
20
402554.2106474695
10
1439265.2728788955
20
402554.9591336772
10
1439265.1054375328
20
402555.7076198848
10
1439264.9820764079
20
402556.4561060925
10
1439264.902795521
20
402557.2045923002
10
1439264.8489462133
20
402557.95307850785
10
1439264.8205284849
20
402558.7015647155
0
LWPOLYLINE
5
36
330
C
100
AcDbEntity
8
C-TOPO-MAJR-E
100
AcDbPolyline
90
111
70
0
43
0
38
0
39
0
10
1439201.8803022283
20
402442.32734944863
10
1439202.6287884358
20
402442.17269110325
10
1439203.249633204
20
402442.0331204461
10
1439203.7428365326
20
402441.90863747714
10
1439204.1083984217
20
402441.79924219643
10
1439204.3463188708
20
402441.70493460394
10
1439204.6524006473
20
402441.5728362971
10
1439205.0266437514
20
402441.40294727596
10
1439205.4690481825
20
402441.1952675405
10
1439205.9796139407
20
402440.94979709096
10
1439206.5384655846
20
402440.63994031417
10
1439207.1456031133
20
402440.2656972103
10
1439207.8010265273
20
402439.8270677794
10
1439208.504735827
20
402439.32405202143
10
1439209.0437120283
20
402438.9378216306
10
1439209.4179551322
20
402438.668376607
10
1439209.6274651382
20
402438.51571695047
10
1439209.6722420463
20
402438.47984266107
10
1439209.8929462796
20
402438.27553767076
10
1439210.289577837
20
402437.90280197957
10
1439210.8621367202
20
402437.3616355874
10
1439211.610622928
20
402436.6520384943
10
1439212.1726534218
20
402436.1190869682
10
1439212.548228202
20
402435.7627810091
10
1439212.7373472678
20
402435.5831206169
10
1439212.74001062
20
402435.5801057917
10
1439212.8545115625
20
402435.3907231209
10
1439213.0808500948
20
402435.01497260446
10
1439213.4190262174
20
402434.4528542424
10
1439213.8690399302
20
402433.7043680346
10
1439214.265524623
20
402432.9558818269
10
1439214.6084802956
20
402432.20739561936
10
1439214.8979069486
20
402431.4589094117
10
1439215.1338045816
20
402430.710423204
10
1439215.3257056836
20
402430.0719515822
10
1439215.4736102552
20
402429.5434945464
10
1439215.5775182957
20
402429.12505209644
10
1439215.6374298055
20
402428.8166242324
10
1439215.708463871
20
402428.47528874845
10
1439215.7906204916
20
402428.1010456446
10
1439215.883899668
20
402427.69389492087
10
1439215.9883014003
20
402427.25383657723
10
1439216.0405022663
20
402426.8172008796
10
1439216.0405022663
20
402426.38398782804
10
1439215.9883014003
20
402425.95419742237
10
1439215.883899668
20
402425.5278296627
10
1439215.7772140778
20
402425.127524231
10
1439215.6682446292
20
402424.7532811272
10
1439215.5569913222
20
402424.4051003513
10
1439215.4434541573
20
402424.0829819032
10
1439215.3330773767
20
402423.65427151526
10
1439215.2258609803
20
402423.1189691874
10
1439215.1218049685
20
402422.4770749196
10
1439215.020909341
20
402421.728588712
10
1439214.9963174378
20
402420.98010250437
10
1439215.0480292588
20
402420.2316162966
10
1439215.1760448036
20
402419.4831300889
10
1439215.3803640725
20
402418.7346438813
10
1439215.5361319052
20
402418.1717305757
10
1439215.6433483018
20
402417.7943901721
10
1439215.7020132616
20
402417.6026226706
10
1439215.7121267847
20
402417.5964280711
10
1439215.7206614264
20
402417.5933307714
10
1439215.727617186
20
402417.5933307714
10
1439215.7329940638
20
402417.5964280711
10
1439215.7367920596
20
402417.6026226706
10
1439215.829858384
20
402417.7943901721
10
1439216.0121930367
20
402418.1717305757
10
1439216.2837960175
20
402418.73464388127
10
1439216.6446673265
20
402419.4831300889
10
1439217.0112750342
20
402420.07979316474
10
1439217.38361914
20
402420.5246331086
10
1439217.7616996442
20
402420.8176499207
10
1439218.1455165471
20
402420.95884360094
10
1439218.620500776
20
402421.0748215887
10
1439219.186652331
20
402421.165583884
10
1439219.8439712124
20
402421.2311304867
10
1439220.5924574197
20
402421.271461397
10
1439221.3409436273
20
402421.33587282605
10
1439222.0894298353
20
402421.4243647737
10
1439222.837916043
20
402421.53693724016
10
1439223.5864022505
20
402421.6735902255
10
1439224.3348884583
20
402421.73718627414
10
1439225.083374666
20
402421.72772538627
10
1439225.8318608738
20
402421.64520756184
10
1439226.5803470814
20
402421.4896328008
10
1439227.2392401362
20
402421.3323010264
10
1439227.8085400385
20
402421.17321223853
10
1439228.2882467876
20
402421.01236643724
10
1439228.6783603842
20
402420.84976362257
10
1439229.0605387343
20
402420.65270752116
10
1439229.4347818382
20
402420.42119813303
10
1439229.801089696
20
402420.1552354583
10
1439230.1594623066
20
402419.8548194967
10
1439230.615363317
20
402419.5480422204
10
1439231.1687927267
20
402419.2349036293
10
1439231.8197505353
20
402418.9154037233
10
1439232.5682367426
20
402418.58954250254
10
1439233.1576230135
20
402418.3145943306
10
1439233.5879093483
20
402418.09055920754
10
1439233.8590957457
20
402417.91743713326
10
1439233.9711822066
20
402417.7952281079
10
1439234.100982868
20
402417.51644978696
10
1439234.2484977297
20
402417.0811021703
10
1439234.413726792
20
402416.4891852582
10
1439234.5966700546
20
402415.7406990506
10
1439234.8472416226
20
402415.05811375275
10
1439235.165441496
20
402414.4414293648
10
1439235.5512696747
20
402413.8906458866
10
1439236.004726159
20
402413.4057633182
10
1439236.3837892418
20
402412.9762004821
0
LWPOLYLINE
5
37
330
C
100
AcDbEntity
8
C-TOPO-MAJR-E
100
AcDbPolyline
90
17
70
0
43
0
38
0
39
0
10
1439203.5308074825
20
402546.22361729504
10
1439203.3836673058
20
402546.27478729264
10
1439203.3100972176
20
402546.38171450817
10
1439203.3100972176
20
402546.5443989417
10
1439203.3836673058
20
402546.76284059323
10
1439203.5308074825
20
402547.0370394627
10
1439203.7185123307
20
402547.17413889745
10
1439203.94678185
20
402547.17413889745
10
1439204.2156160409
20
402547.0370394627
10
1439204.5250149034
20
402546.76284059323
10
1439204.6797143347
20
402546.5443989417
10
1439204.6797143347
20
402546.38171450817
10
1439204.5250149034
20
402546.27478729264
10
1439204.2156160409
20
402546.22361729504
10
1439203.94678185
20
402546.19803229626
10
1439203.7185123307
20
402546.19803229626
10
1439203.5308074825
20
402546.22361729504
0
LWPOLYLINE
5
38
330
C
100
AcDbEntity
8
C-TOPO-MAJR-E
100
AcDbPolyline
90
25
70
0
43
0
38
0
39
0
10
1439209.06941743
20
402548.8933247063
10
1439208.6227574446
20
402549.07418967166
10
1439208.3994274517
20
402549.2322936134
10
1439208.3994274517
20
402549.36763653153
10
1439208.6227574446
20
402549.4802184261
10
1439209.06941743
20
402549.57003929705
10
1439209.5915339715
20
402549.6161529062
10
1439210.1891070679
20
402549.6185592534
10
1439210.8621367202
20
402549.5772583388
10
1439211.610622928
20
402549.4922501623
10
1439212.173455984
20
402549.4272908564
10
1439212.5506358887
20
402549.3823804209
10
1439212.742162642
20
402549.35751885595
10
1439212.7480362437
20
402549.3527061613
10
1439212.7509730447
20
402549.3474813648
10
1439212.7509730447
20
402549.34184446617
10
1439212.7480362437
20
402549.3357954655
10
1439212.742162642
20
402549.3293343628
10
1439212.5506358887
20
402549.2808875701
10
1439212.173455984
20
402549.1904550874
10
1439211.610622928
20
402549.0580369148
10
1439210.8621367202
20
402548.8836330521
10
1439210.1891070679
20
402548.79804639646
10
1439209.5915339715
20
402548.80127694795
10
1439209.06941743
20
402548.8933247063
0
LWPOLYLINE
5
39
330
C
100
AcDbEntity
8
C-TOPO-MAJR-E
100
AcDbPolyline
90
41
70
0
43
0
38
0
39
0
10
1439235.835479941
20
402419.22638467746
10
1439235.2691926453
20
402419.7781745667
10
1439234.9860489974
20
402420.2914510262
10
1439234.9860489974
20
402420.76621405606
10
1439235.2691926453
20
402421.20246365626
10
1439235.835479941
20
402421.6001998269
10
1439236.4473169646
20
402421.9716689192
10
1439237.1047037167
20
402422.3168709332
10
1439237.8076401963
20
402422.635805869
10
1439238.556126404
20
402422.92847372656
10
1439239.304612612
20
402423.07867584244
10
1439240.0530988197
20
402423.0864122167
10
1439240.8015850272
20
402422.9516828494
10
1439241.5500712346
20
402422.67448774044
10
1439242.2985574421
20
402422.3790302161
10
1439243.04704365
20
402422.0653102763
10
1439243.7955298577
20
402421.73332792113
10
1439244.5440160655
20
402421.3830831505
10
1439245.1270023054
20
402421.10465853545
10
1439245.5444885772
20
402420.8980540759
10
1439245.7964748808
20
402420.7632697718
10
1439245.8829612168
20
402420.70030562324
10
1439245.9262043845
20
402420.6175217878
10
1439245.9262043845
20
402420.5149182655
10
1439245.8829612168
20
402420.39249505627
10
1439245.7964748808
20
402420.25025216007
10
1439245.5444885772
20
402420.07301865774
10
1439245.1270023054
20
402419.8607945493
10
1439244.5440160655
20
402419.6135798346
10
1439243.7955298577
20
402419.33137451374
10
1439243.04704365
20
402419.10784208245
10
1439242.2985574421
20
402418.9429825407
10
1439241.5500712346
20
402418.83679588855
10
1439240.8015850272
20
402418.78928212594
10
1439240.0530988197
20
402418.73368982656
10
1439239.304612612
20
402418.6700189905
10
1439238.556126404
20
402418.59826961765
10
1439237.8076401963
20
402418.51844170806
10
1439237.1047037167
20
402418.5965182482
10
1439236.4473169646
20
402418.83249923796
10
1439235.835479941
20
402419.22638467746
0
LWPOLYLINE
5
3A
330
C
100
AcDbEntity
8
C-SITE-N
100
AcDbPolyline
90
4
70
1
43
0
38
0
39
0
10
1439319.735975931
20
402454.376361597
10
1439268.4446856733
20
402517.5936586688
10
1439245.1524961798
20
402498.8955776451
10
1439319.735975931
20
402454.376361597
0
LWPOLYLINE
5
3B
330
C
100
AcDbEntity
8
C-BLDG-FTPR-N
100
AcDbPolyline
90
5
70
1
43
0
38
0
39
0
10
1439292.4506893237
20
402486.4187279057
10
1439267.665668177
20
402516.9666442652
10
1439256.4790280312
20
402507.890375059
10
1439281.264049178
20
402477.3424586995
10
1439292.4506893237
20
402486.4187279057
0
LWPOLYLINE
5
3C
330
C
100
AcDbEntity
8
C-PVMT
100
AcDbPolyline
90
5
70
1
43
0
38
0
39
0
10
1439304.0288359341
20
402513.41478462535
10
1439296.468186971
20
402522.7333997187
10
1439276.277854269
20
402506.35199363215
10
1439283.838503232
20
402497.0333785388
10
1439304.0288359341
20
402513.41478462535
0
LWPOLYLINE
5
3D
330
C
100
AcDbEntity
8
C-PVMT
100
AcDbPolyline
90
5
70
1
43
0
38
0
39
0
10
1439279.039849041
20
402502.15421030315
10
1439282.9226053301
20
402505.3044807044
10
1439276.7480753437
20
402512.9146830306
10
1439272.8653190546
20
402509.76441262936
10
1439279.039849041
20
402502.15421030315
0
LWPOLYLINE
5
3E
330
C
100
AcDbEntity
8
C-PVMT
100
AcDbPolyline
90
5
70
1
43
0
38
0
39
0
10
1439285.6846001025
20
402501.1066973754
10
1439280.6441674603
20
402507.3191074376
10
1439277.5379624292
20
402504.79889111663
10
1439282.5783950714
20
402498.58648105443
10
1439285.6846001025
20
402501.1066973754
0
LWPOLYLINE
5
3F
330
C
100
AcDbEntity
8
C-PVMT
100
AcDbPolyline
90
5
70
1
43
0
38
0
39
0
10
1439345.8319137592
20
402461.8918540047
10
1439283.5299386487
20
402538.67998799274
10
1439281.2002848755
20
402536.78982575197
10
1439343.502259986
20
402460.00169176393
10
1439345.8319137592
20
402461.8918540047
0
LWPOLYLINE
5
40
330
C
100
AcDbEntity
8
C-TOPO-SURF
100
AcDbPolyline
90
5
70
1
43
0
38
0
39
0
10
1439348.9381187903
20
402464.4120703257
10
1439286.6361436797
20
402541.20020431373
10
1439283.5299386487
20
402538.67998799274
10
1439345.8319137592
20
402461.8918540047
10
1439348.9381187903
20
402464.4120703257
0
LWPOLYLINE
5
41
330
C
100
AcDbEntity
8
C-PVMT
100
AcDbPolyline
90
5
70
1
43
0
38
0
39
0
10
1439350.102945677
20
402465.3571514461
10
1439287.8009705665
20
402542.14528543415
10
1439286.6361436797
20
402541.20020431373
10
1439348.9381187903
20
402464.4120703257
10
1439350.102945677
20
402465.3571514461
0
LWPOLYLINE
5
42
330
C
100
AcDbEntity
8
C-PVMT
100
AcDbPolyline
90
5
70
1
43
0
38
0
39
0
10
1439298.8490566479
20
402528.52835093345
10
1439310.1900300926
20
402514.5504282934
10
1439301.6991821607
20
402511.5246223846
10
1439294.1385331978
20
402520.84323747794
10
1439298.8490566479
20
402528.52835093345
0
LWPOLYLINE
5
43
330
C
100
AcDbEntity
8
C-LODS
100
AcDbPolyline
90
9
70
1
43
0
38
0
39
0
10
1439256.4790280312
20
402507.890375059
10
1439281.264049178
20
402477.3424586995
10
1439343.502259986
20
402460.00169176393
10
1439350.102945677
20
402465.3571514461
10
1439287.8009705665
20
402542.14528543415
10
1439286.6361436797
20
402541.20020431373
10
1439283.5299386487
20
402538.67998799274
10
1439281.2002848755
20
402536.78982575197
10
1439256.4790280312
20
402507.890375059
0
LWPOLYLINE
5
44
330
C
100
AcDbEntity
8
C-SITE-N
100
AcDbPolyline
90
5
70
1
43
0
38
0
39
0
10
1439313.6270333536
20
402437.84122469113
10
1439226.9580473402
20
402488.1897697012
10
1439284.4859160513
20
402533.77222809586
10
1439340.9216859227
20
402462.8350732751
10
1439313.6270333536
20
402437.84122469113
0
POINT
5
45
330
C
100
AcDbEntity
8
C-TOPO-SPOT
100
AcDbPoint
10
1439296.6470413362
20
402471.3399124298
30
0
0
LWPOLYLINE
5
46
330
C
100
AcDbEntity
8
C-UTIL
100
AcDbPolyline
90
2
70
0
43
0
38
0
39
0
10
1439322.878240294
20
402511.1060907152
10
1439291.1082925063
20
402485.329575601
0
LWPOLYLINE
5
47
330
C
100
AcDbEntity
8
C-UTIL
100
AcDbPolyline
90
2
70
0
43
0
38
0
39
0
10
1439322.878240294
20
402511.10609071533
10
1439286.2980372435
20
402481.4267798423
0
LWPOLYLINE
5
48
330
C
100
AcDbEntity
8
C-SWMG
100
AcDbPolyline
90
5
70
1
43
0
38
0
39
0
10
1439303.387144703
20
402440.9006233847
10
1439314.9197072978
20
402440.9006233847
10
1439314.9197072978
20
402452.4331859793
10
1439303.387144703
20
402452.4331859793
10
1439303.387144703
20
402440.9006233847
0
LWPOLYLINE
5
49
330
C
100
AcDbEntity
8
C-STRM-AREA
100
AcDbPolyline
90
5
70
1
43
0
38
0
39
0
10
1439315.8876331272
20
402433.3814389716
10
1439222.098088019
20
402489.3648422085
10
1439283.5299386487
20
402538.67998799274
10
1439345.8319137592
20
402461.8918540047
10
1439315.8876331272
20
402433.3814389716
0
LWPOLYLINE
5
4A
330
C
100
AcDbEntity
8
C-SITE-N
100
AcDbPolyline
90
5
70
1
43
0
38
0
39
0
10
1439256.4790280312
20
402491.890375059
10
1439286.4790280312
20
402491.890375059
10
1439286.4790280312
20
402507.890375059
10
1439256.4790280312
20
402507.890375059
10
1439256.4790280312
20
402491.890375059
0
LWPOLYLINE
5
4B
330
C
100
AcDbEntity
8
L-PLNT-TREE
100
AcDbPolyline
90
5
70
1
43
0
38
0
39
0
10
1439323.9473450112
20
402485.63816906867
10
1439333.9473450112
20
402485.63816906867
10
1439333.9473450112
20
402495.63816906867
10
1439323.9473450112
20
402495.63816906867
10
1439323.9473450112
20
402485.63816906867
0
LWPOLYLINE
5
4C
330
C
100
AcDbEntity
8
L-PLNT-TREE
100
AcDbPolyline
90
5
70
1
43
0
38
0
39
0
10
1439303.1800199745
20
402511.2342137313
10
1439313.1800199745
20
402511.2342137313
10
1439313.1800199745
20
402521.2342137313
10
1439303.1800199745
20
402521.2342137313
10
1439303.1800199745
20
402511.2342137313
0
LWPOLYLINE
5
4D
330
C
100
AcDbEntity
8
L-PLNT-TREE
100
AcDbPolyline
90
5
70
1
43
0
38
0
39
0
10
1439249.4147657645
20
402475.93198566244
10
1439261.4147657645
20
402475.93198566244
10
1439261.4147657645
20
402487.93198566244
10
1439249.4147657645
20
402487.93198566244
10
1439249.4147657645
20
402475.93198566244
0
ENDSEC
0
SECTION
2
OBJECTS
0
DICTIONARY
5
A
330
0
100
AcDbDictionary
281
1
3
ACAD_GROUP
350
B
0
DICTIONARY
5
B
330
A
100
AcDbDictionary
281
0
0
ENDSEC
0
EOF