0
SECTION
2
HEADER
9
$ACADVER
1
AC1021
9
$LASTSAVEDBY
1
@tarikjabiri/dxf
9
$HANDSEED
5
83
9
$INSUNITS
70
0
9
$CLAYER
8
0
9
$VIEWCTR
10
1329668.4314579472
20
478359.80225186027
0
ENDSEC
0
SECTION
2
CLASSES
0
ENDSEC
0
SECTION
2
TABLES
0
TABLE
2
VPORT
5
1
330
0
100
AcDbSymbolTable
70
1
0
VPORT
5
19
330
1
100
AcDbSymbolTableRecord
100
AcDbViewportTableRecord
2
*Active
70
0
10
0
20
0
11
1
21
1
12
1329668.4314579472
22
478359.80225186027
13
0
23
0
14
10
24
10
15
10
25
10
16
0
26
0
36
1
17
0
27
0
37
0
40
657.1800680136657
41
2
42
50
43
0
44
0
50
0
51
0
71
0
72
100
73
1
74
3
75
0
76
1
77
0
78
0
281
0
65
1
110
0
120
0
130
0
111
1
121
0
131
0
112
0
122
1
132
0
79
0
146
0
348
10020
60
7
61
5
292
1
282
1
141
0
142
0
63
250
421
3358443
0
ENDTAB
0
TABLE
2
LTYPE
5
2
330
0
100
AcDbSymbolTable
70
7
0
LTYPE
5
12
330
2
100
AcDbSymbolTableRecord
100
AcDbLinetypeTableRecord
2
ByBlock
70
0
3

72
65
73
0
40
0
0
LTYPE
5
13
330
2
100
AcDbSymbolTableRecord
100
AcDbLinetypeTableRecord
2
ByLayer
70
0
3

72
65
73
0
40
0
0
LTYPE
5
14
330
2
100
AcDbSymbolTableRecord
100
AcDbLinetypeTableRecord
2
Continuous
70
0
3
Solid line
72
65
73
0
40
0
0
LTYPE
5
1A
330
2
100
AcDbSymbolTableRecord
100
AcDbLinetypeTableRecord
2
DASHED
70
0
3
Dashed __ __ __ __ __ __
72
65
73
2
40
6
49
4
74
0
49
-2
74
0
0
LTYPE
5
1B
330
2
100
AcDbSymbolTableRecord
100
AcDbLinetypeTableRecord
2
HIDDEN
70
0
3
Hidden __ __ __ __ __
72
65
73
2
40
3
49
2
74
0
49
-1
74
0
0
LTYPE
5
1C
330
2
100
AcDbSymbolTableRecord
100
AcDbLinetypeTableRecord
2
PHANTOM
70
0
3
Phantom ____ _ _ ____ _ _
72
65
73
6
40
13
49
8
74
0
49
-1
74
0
49
1
74
0
49
-1
74
0
49
1
74
0
49
-1
74
0
0
LTYPE
5
1D
330
2
100
AcDbSymbolTableRecord
100
AcDbLinetypeTableRecord
2
DASHDOT
70
0
3
Dash dot __ . __ . __ .
72
65
73
4
40
8
49
4
74
0
49
-2
74
0
49
0
74
0
49
-2
74
0
0
ENDTAB
0
TABLE
2
LAYER
5
3
330
0
100
AcDbSymbolTable
70
14
0
LAYER
5
15
330
3
100
AcDbSymbolTableRecord
100
AcDbLayerTableRecord
2
0
70
0
62
7
6
Continuous
370
0
390
0
0
LAYER
5
1E
330
3
100
AcDbSymbolTableRecord
100
AcDbLayerTableRecord
2
C-BLDG-FTPR-N
70
0
62
6
6
Continuous
370
0
390
0
0
LAYER
5
1F
330
3
100
AcDbSymbolTableRecord
100
AcDbLayerTableRecord
2
C-LODS
70
0
62
30
6
PHANTOM
370
0
390
0
0
LAYER
5
20
330
3
100
AcDbSymbolTableRecord
100
AcDbLayerTableRecord
2
C-PVMT
70
0
62
8
6
Continuous
370
0
390
0
0
LAYER
5
21
330
3
100
AcDbSymbolTableRecord
100
AcDbLayerTableRecord
2
C-SITE-N
70
0
62
6
6
Continuous
370
0
390
0
0
LAYER
5
22
330
3
100
AcDbSymbolTableRecord
100
AcDbLayerTableRecord
2
C-STRM-AREA
70
0
62
150
6
PHANTOM
370
0
390
0
0
LAYER
5
23
330
3
100
AcDbSymbolTableRecord
100
AcDbLayerTableRecord
2
C-SWMG
70
0
62
92
6
Continuous
370
0
390
0
0
LAYER
5
24
330
3
100
AcDbSymbolTableRecord
100
AcDbLayerTableRecord
2
C-TOPO-MAJR-E
70
0
62
32
6
DASHED
370
0
390
0
0
LAYER
5
25
330
3
100
AcDbSymbolTableRecord
100
AcDbLayerTableRecord
2
C-TOPO-SPOT
70
0
62
7
6
Continuous
370
0
390
0
0
LAYER
5
26
330
3
100
AcDbSymbolTableRecord
100
AcDbLayerTableRecord
2
C-TOPO-SURF
70
0
62
253
6
Continuous
370
0
390
0
0
LAYER
5
27
330
3
100
AcDbSymbolTableRecord
100
AcDbLayerTableRecord
2
C-UTIL
70
0
62
4
6
DASHED
370
0
390
0
0
LAYER
5
28
330
3
100
AcDbSymbolTableRecord
100
AcDbLayerTableRecord
2
L-PLNT-TREE
70
0
62
90
6
Continuous
370
0
390
0
0
LAYER
5
29
330
3
100
AcDbSymbolTableRecord
100
AcDbLayerTableRecord
2
V-PROP-BNDY
70
0
62
7
6
Continuous
370
0
390
0
0
LAYER
5
2A
330
3
100
AcDbSymbolTableRecord
100
AcDbLayerTableRecord
2
C-ANNO-NPLT
70
0
62
250
6
Continuous
370
0
390
0
0
ENDTAB
0
TABLE
2
STYLE
5
4
330
0
100
AcDbSymbolTable
70
1
0
STYLE
5
16
330
4
100
AcDbSymbolTableRecord
100
AcDbTextStyleTableRecord
2
Standard
70
0
40
0
41
1
50
0
71
0
42
1
3
txt
4

0
ENDTAB
0
TABLE
2
VIEW
5
5
330
0
100
AcDbSymbolTable
70
0
0
ENDTAB
0
TABLE
2
UCS
5
6
330
0
100
AcDbSymbolTable
70
0
0
ENDTAB
0
TABLE
2
APPID
5
7
330
0
100
AcDbSymbolTable
70
1
0
APPID
5
17
330
7
100
AcDbSymbolTableRecord
100
AcDbRegAppTableRecord
2
ACAD
70
0
0
ENDTAB
0
TABLE
2
DIMSTYLE
5
8
330
0
100
AcDbSymbolTable
70
1
100
AcDbDimStyleTable
0
DIMSTYLE
105
18
330
8
100
AcDbSymbolTableRecord
100
AcDbDimStyleTableRecord
2
Standard
70
0
340
16
0
ENDTAB
0
TABLE
2
BLOCK_RECORD
5
9
330
0
100
AcDbSymbolTable
70
2
0
BLOCK_RECORD
5
C
330
9
100
AcDbSymbolTableRecord
100
AcDbBlockTableRecord
2
*Model_Space
70
0
280
1
281
0
0
BLOCK_RECORD
5
F
330
9
100
AcDbSymbolTableRecord
100
AcDbBlockTableRecord
2
*Paper_Space
70
0
280
1
281
0
0
ENDTAB
0
ENDSEC
0
SECTION
2
BLOCKS
0
BLOCK
5
D
330
C
100
AcDbEntity
8
0
100
AcDbBlockBegin
2
*Model_Space
70
0
10
0
20
0
30
0
3
*Model_Space
1

0
ENDBLK
5
E
100
AcDbEntity
8
0
100
AcDbBlockEnd
0
BLOCK
5
10
330
F
100
AcDbEntity
8
0
100
AcDbBlockBegin
2
*Paper_Space
70
0
10
0
20
0
30
0
3
*Paper_Space
1

0
ENDBLK
5
11
100
AcDbEntity
8
0
100
AcDbBlockEnd
0
ENDSEC
0
SECTION
2
ENTITIES
0
TEXT
5
2B
330
C
100
AcDbEntity
8
C-ANNO-NPLT
100
AcDbText
10
1329458.980533279
20
478151.2122178534
30
0
40
2.5
1
PRELIMINARY - NOT SEALED - NOT FOR CONSTRUCTION OR PERMIT SUBMISSION
7
STANDARD
100
AcDbText
0
TEXT
5
2C
330
C
100
AcDbEntity
8
C-ANNO-NPLT
100
AcDbText
10
1329458.980533279
20
478147.2122178534
30
0
40
2.5
1
GENERATED 2026-09-26T00:46:21.597Z BY KEALEE SITE PLAN ENGINE
7
STANDARD
100
AcDbText
0
TEXT
5
2D
330
C
100
AcDbEntity
8
C-ANNO-NPLT
100
AcDbText
10
1329458.980533279
20
478143.2122178534
30
0
40
2.5
1
HORIZONTAL: EPSG:2248
7
STANDARD
100
AcDbText
0
TEXT
5
2E
330
C
100
AcDbEntity
8
C-ANNO-NPLT
100
AcDbText
10
1329458.980533279
20
478139.2122178534
30
0
40
2.5
1
VERTICAL: NAVD88 (feet)
7
STANDARD
100
AcDbText
0
TEXT
5
2F
330
C
100
AcDbEntity
8
C-ANNO-NPLT
100
AcDbText
10
1329458.980533279
20
478135.2122178534
30
0
40
2.5
1
SOURCES: Parcel boundary — jurisdiction gis (Prince George's County / M-NCPPC — PGAtlas Property, level 1); Existing contours (Prince George's County / M-NCPPC — Elevation/MapServer/1 — Contour - 2 Ft (2023), level 1)
7
STANDARD
100
AcDbText
0
TEXT
5
30
330
C
100
AcDbEntity
8
C-ANNO-NPLT
100
AcDbText
10
1329458.980533279
20
478131.2122178534
30
0
40
2.5
1
THIS FILE IS DATA FOR A LICENSED PROFESSIONAL. IT IS NOT A SEALED DRAWING.
7
STANDARD
100
AcDbText
0
LWPOLYLINE
5
31
330
C
100
AcDbEntity
8
V-PROP-BNDY
100
AcDbPolyline
90
14
70
1
43
0
38
0
39
0
10
1329601.9612184612
20
478407.54081343865
10
1329618.7302137893
20
478522.80403436656
10
1329458.980533279
20
478549.7439411031
10
1329478.4214392893
20
478665.80506069586
10
1329479.3404007081
20
478671.28798935865
10
1329823.811496531
20
478616.0581129371
10
1329923.65151995
20
478598.12278136064
10
1329953.596341947
20
478590.48565752094
10
1329953.6074967738
20
478195.5290983591
10
1329916.1748288702
20
478204.4490280194
10
1329612.8624433768
20
478256.7819286155
10
1329623.1084858791
20
478325.9359897742
10
1329597.0343910267
20
478373.6809730146
10
1329601.9612184612
20
478407.54081343865
0
LWPOLYLINE
5
32
330
C
100
AcDbEntity
8
C-TOPO-MAJR-E
100
AcDbPolyline
90
3
70
0
43
0
38
0
39
0
10
1329708.765794869
20
478430.8941131813
10
1329708.4600211955
20
478428.98729285435
10
1329708.8035244492
20
478424.26682985853
0
LWPOLYLINE
5
33
330
C
100
AcDbEntity
8
C-TOPO-MAJR-E
100
AcDbPolyline
90
10
70
0
43
0
38
0
39
0
10
1329708.7152700361
20
478439.7028226032
10
1329709.5915806084
20
478437.9744796151
10
1329710.2113300397
20
478436.34587394365
10
1329709.4347567838
20
478431.4426685147
10
1329709.1102823734
20
478429.0673452045
10
1329709.6030635373
20
478421.01388359786
10
1329710.085346039
20
478413.984698184
10
1329709.9055563658
20
478413.36658919207
10
1329709.1801641127
20
478412.62872975774
10
1329708.874718529
20
478411.7461856114
0
LWPOLYLINE
5
34
330
C
100
AcDbEntity
8
C-TOPO-MAJR-E
100
AcDbPolyline
90
5
70
0
43
0
38
0
39
0
10
1329709.2300327863
20
478349.4136331089
10
1329709.268090454
20
478349.29650735616
10
1329713.5544992082
20
478344.7837211151
10
1329714.5131587083
20
478343.5245372758
10
1329716.1247040275
20
478340.8211306152
0
LWPOLYLINE
5
35
330
C
100
AcDbEntity
8
C-TOPO-MAJR-E
100
AcDbPolyline
90
8
70
0
43
0
38
0
39
0
10
1329935.6400130359
20
478223.5064046117
10
1329944.4355991133
20
478214.0608854429
10
1329954.2341359558
20
478207.9860944469
10
1329962.798095206
20
478211.4358906849
10
1329963.9631191227
20
478212.3925816914
10
1329967.4020886219
20
478216.11534327257
10
1329972.9079831236
20
478225.77346044383
10
1329977.8095481235
20
478229.8046203509
0
LWPOLYLINE
5
36
330
C
100
AcDbEntity
8
C-TOPO-MAJR-E
100
AcDbPolyline
90
113
70
0
43
0
38
0
39
0
10
1329630.643903863
20
478629.39141961373
10
1329630.7331425387
20
478628.8881397828
10
1329629.9477110323
20
478616.5830462648
10
1329630.556961788
20
478615.0508971037
10
1329630.9313048713
20
478614.8412518615
10
1329640.487060037
20
478609.1345703574
10
1329641.7790521954
20
478607.75727653236
10
1329641.469341531
20
478596.73433268454
10
1329640.5352882869
20
478592.27732060093
10
1329640.276430541
20
478591.19103669014
10
1329640.1360108668
20
478589.9590837763
10
1329650.698981868
20
478572.1618752747
10
1329680.4955102052
20
478553.71604602487
10
1329680.6461004405
20
478551.156996024
10
1329680.698265699
20
478550.3367876938
10
1329681.0673594417
20
478549.5595582682
10
1329682.5896661135
20
478547.12386761425
10
1329683.2917644512
20
478545.2672440132
10
1329683.4708979574
20
478539.87224168103
10
1329683.057184872
20
478538.27611627465
10
1329682.1372392077
20
478532.93721618585
10
1329683.4118429583
20
478528.69181785936
10
1329687.0073081958
20
478524.5435321783
10
1329688.9259395294
20
478522.2092192731
10
1329689.1021202751
20
478519.52615376597
10
1329688.78551987
20
478517.3197933543
10
1329688.986634952
20
478512.67511759896
10
1329688.4781057814
20
478509.20202743803
10
1329688.49024486
20
478506.8805097734
10
1329689.163799952
20
478504.05111911596
10
1329691.6300023624
20
478492.0019306032
10
1329692.0079543772
20
478490.65285193356
10
1329692.74450146
20
478487.8283825147
10
1329692.9584117804
20
478485.28114352433
10
1329694.1388556142
20
478471.74245668156
10
1329698.500067364
20
478469.83694868884
10
1329699.8219151169
20
478468.41601978126
10
1329700.1486861247
20
478465.9006048538
10
1329701.140482038
20
478463.9550706799
10
1329702.1270286124
20
478462.59680568334
10
1329703.0463181103
20
478459.41800627974
10
1329706.1125849476
20
478452.9124418625
10
1329706.2211805417
20
478452.523335021
10
1329705.9610104535
20
478451.2785868636
10
1329705.9754461192
20
478450.5853467662
10
1329707.216585367
20
478443.8018957702
10
1329706.9324652108
20
478442.9416612863
10
1329703.6542565327
20
478439.0351730235
10
1329703.6079967918
20
478438.9187034547
10
1329703.5991385407
20
478438.0640463627
10
1329705.033846957
20
478428.7244981047
10
1329705.3527439535
20
478415.4394196939
10
1329705.4108147025
20
478412.89513344853
10
1329705.9987400295
20
478404.1038124412
10
1329705.0653429471
20
478400.4414181885
10
1329702.2221727804
20
478391.1051507674
10
1329702.463314041
20
478388.904367766
10
1329701.397699365
20
478380.31055293814
10
1329701.2602324402
20
478378.029389513
10
1329701.300258622
20
478376.89651778387
10
1329701.9485512762
20
478364.1875536902
10
1329702.590282287
20
478361.6416270218
10
1329704.9574035415
20
478355.90640226734
10
1329705.3721008715
20
478354.82011836267
10
1329705.3373240365
20
478353.4346224407
10
1329705.3137020338
20
478348.7673089493
10
1329705.2074030316
20
478344.5166612832
10
1329704.8258421237
20
478335.5094614487
10
1329704.8760388605
20
478335.31097103306
10
1329704.8973642886
20
478335.2322310324
10
1329702.7897569542
20
478323.11414502055
10
1329702.7763055388
20
478322.9802870249
10
1329702.9826699463
20
478309.21981586504
10
1329703.1037327005
20
478309.0291994483
10
1329703.1240738737
20
478309.0265747677
10
1329703.2346379587
20
478308.9261812763
10
1329702.9459246246
20
478307.77657726756
10
1329702.4793901218
20
478307.46194536285
10
1329698.2553172098
20
478305.14239619183
10
1329696.0643766967
20
478303.8822281042
10
1329693.9958112824
20
478303.1040144365
10
1329688.495166123
20
478304.71063851
10
1329685.6434657858
20
478306.31562219106
10
1329683.066699279
20
478306.7139153594
10
1329682.8915027857
20
478306.7086660106
10
1329679.4820607863
20
478307.2880611952
10
1329679.227468114
20
478307.3599114362
10
1329679.1484000364
20
478307.4028903593
10
1329674.1323339478
20
478310.7716500263
10
1329673.556875779
20
478311.05117701594
10
1329672.0506452045
20
478311.5337876075
10
1329671.1497283722
20
478311.6876586953
10
1329660.9023735318
20
478312.3379198603
10
1329660.4023745386
20
478312.37728985155
10
1329659.5355783636
20
478312.622040021
10
1329650.7390080346
20
478317.7939456927
10
1329650.1504265396
20
478317.8162553551
10
1329647.4388177814
20
478315.9337131964
10
1329647.0060758733
20
478315.91009119374
10
1329645.697351454
20
478316.0800383651
10
1329636.678996785
20
478316.5701948421
10
1329636.436543211
20
478316.575444194
10
1329635.7820169467
20
478316.64860676613
10
1329631.8076154585
20
478317.56330311316
10
1329629.6291421207
20
478318.0570685252
10
1329628.6196297049
20
478318.20667453075
10
1329625.5271162093
20
478318.13712085085
10
1329622.2443143723
20
478317.4737363503
10
1329622.0258108694
20
478317.4386314413
10
1329621.7098666285
20
478317.4701274459
10
1329611.9687443667
20
478320.18665744807
10
1329611.5481415351
20
478320.20207735384
10
1329610.8637597088
20
478320.19453143777
0
LWPOLYLINE
5
37
330
C
100
AcDbEntity
8
C-TOPO-MAJR-E
100
AcDbPolyline
90
5
70
0
43
0
38
0
39
0
10
1329708.733314617
20
478436.60210703174
10
1329709.1585106212
20
478435.5978439433
10
1329709.4354129536
20
478434.73957794986
10
1329709.0279334432
20
478432.53026477795
10
1329708.765794869
20
478430.8941131813
0
LWPOLYLINE
5
38
330
C
100
AcDbEntity
8
C-TOPO-MAJR-E
100
AcDbPolyline
90
3
70
0
43
0
38
0
39
0
10
1329716.521356788
20
478251.66710943246
10
1329714.7976069546
20
478253.05424577434
10
1329702.1650862836
20
478259.1113202607
0
LWPOLYLINE
5
39
330
C
100
AcDbEntity
8
C-TOPO-MAJR-E
100
AcDbPolyline
90
56
70
0
43
0
38
0
39
0
10
1329609.4362691194
20
478311.68044084974
10
1329608.5192761975
20
478307.30643385206
10
1329608.4234758778
20
478305.69160768774
10
1329608.3339091192
20
478304.8848507849
10
1329607.3243966952
20
478299.4741004367
10
1329607.2459847953
20
478299.1122245359
10
1329606.1121287888
20
478293.82713010174
10
1329606.0255147768
20
478293.1893361005
10
1329605.8014338727
20
478291.38750244223
10
1329605.403796865
20
478288.0646744463
10
1329605.3476946193
20
478287.59092211415
10
1329603.4008481198
20
478274.71004234644
10
1329603.1603630232
20
478273.1621451876
10
1329603.191530953
20
478272.5761883536
10
1329603.3864124531
20
478268.5456845968
10
1329599.7174565345
20
478258.91578260844
10
1329599.55964845
20
478258.4331720352
10
1329599.5622731145
20
478258.30292295007
10
1329600.410040449
20
478255.3449236153
10
1329600.5944232917
20
478255.07261444064
10
1329601.7656807853
20
478254.7251741911
10
1329614.608502865
20
478252.55523102265
10
1329615.012701537
20
478252.3941421016
10
1329616.341439038
20
478251.6851540371
10
1329617.658365524
20
478251.53029869177
10
1329624.9240990398
20
478251.0253784409
10
1329625.7977849522
20
478250.828856522
10
1329629.6783546228
20
478249.59624744864
10
1329638.0254507798
20
478248.04966261174
10
1329639.419476865
20
478247.8114741039
10
1329645.3666434586
20
478246.7960561888
10
1329647.2787131171
20
478246.6654790301
10
1329651.7226018722
20
478247.81541110633
10
1329653.5083594474
20
478247.4765010396
10
1329658.8114984478
20
478244.0017704465
10
1329660.4286211971
20
478243.1979662764
10
1329661.2245513683
20
478243.1625332724
10
1329661.8019780372
20
478243.1605647788
10
1329673.3705244458
20
478241.3406865281
10
1329674.766190964
20
478241.0732986134
10
1329675.155625861
20
478241.1697551177
10
1329677.9968275412
20
478243.4318896837
10
1329680.639538794
20
478243.4587925172
10
1329689.344245791
20
478240.952892033
10
1329690.4807264488
20
478240.51686926594
10
1329694.8599827867
20
478237.74390894064
10
1329695.3596537132
20
478237.4404318595
10
1329695.8012538708
20
478237.27999909176
10
1329702.1165299518
20
478236.53426569223
10
1329702.3914637896
20
478236.53098486445
10
1329702.8018960329
20
478236.50112928293
10
1329704.0686257917
20
478236.39384603186
10
1329709.380294946
20
478241.47159178794
10
1329717.8097400314
20
478247.48699968844
10
1329718.536772695
20
478250.04539351456
10
1329716.521356788
20
478251.66710943246
0
LWPOLYLINE
5
3A
330
C
100
AcDbEntity
8
C-TOPO-MAJR-E
100
AcDbPolyline
90
11
70
0
43
0
38
0
39
0
10
1329863.0174548682
20
478206.9755977796
10
1329861.9961314485
20
478205.4152334508
10
1329858.6299964425
20
478204.5038179469
10
1329846.5591544495
20
478204.0664828487
10
1329838.0201295295
20
478203.33354470186
10
1329832.2740780376
20
478200.8466730278
10
1329830.9850386204
20
478195.87227353867
10
1329834.7642305344
20
478190.569790696
10
1329840.8573941945
20
478186.2426996056
10
1329842.7481384575
20
478183.67708794615
10
1329838.9774767014
20
478174.17809119314
0
LWPOLYLINE
5
3B
330
C
100
AcDbEntity
8
C-TOPO-MAJR-E
100
AcDbPolyline
90
9
70
0
43
0
38
0
39
0
10
1329708.7234721167
20
478438.2415394409
10
1329709.3796387867
20
478436.81175226474
10
1329709.8232074485
20
478435.54272594827
10
1329709.2228149471
20
478432.0092684405
10
1329708.7844956175
20
478429.0269909436
10
1329709.4495205397
20
478419.1267482803
10
1329709.8195985358
20
478414.07688961824
10
1329709.6631027895
20
478413.64578811417
10
1329708.8671726126
20
478413.06212785037
0
LWPOLYLINE
5
3C
330
C
100
AcDbEntity
8
C-TOPO-MAJR-E
100
AcDbPolyline
90
86
70
0
43
0
38
0
39
0
10
1329768.8864095313
20
478680.9966313691
10
1329767.3969112013
20
478679.7128412697
10
1329764.786352123
20
478676.32702126773
10
1329763.538651195
20
478670.1839889413
10
1329763.1830088669
20
478664.02192777715
10
1329762.528810705
20
478657.4153136938
10
1329760.547187373
20
478652.65580877126
10
1329760.1817025398
20
478651.93074461713
10
1329758.137087205
20
478644.27590428304
10
1329755.7276432088
20
478638.56495768763
10
1329752.9389348712
20
478635.36876986024
10
1329751.944514287
20
478633.61155552056
10
1329753.9021875411
20
478628.8162895235
10
1329755.8651101121
20
478626.23164902336
10
1329755.717472628
20
478623.1089518569
10
1329751.3428094473
20
478614.4078537749
10
1329748.9750320294
20
478603.9311686781
10
1329748.2037081223
20
478596.4712098704
10
1329747.366439445
20
478592.25041778275
10
1329745.062310202
20
478583.2297665239
10
1329744.3408549544
20
478578.8695390089
10
1329744.00260104
20
478573.6946806136
10
1329742.074455283
20
478568.16778877325
10
1329741.7686816128
20
478567.53229136363
10
1329741.9504397768
20
478559.83906527754
10
1329742.6745197002
20
478556.9532442818
10
1329742.2122502911
20
478551.7258925293
10
1329741.393682369
20
478547.6750475915
10
1329741.7060177021
20
478543.7672470313
10
1329742.9382987006
20
478539.7288692757
10
1329743.0144140348
20
478537.59534335946
10
1329742.76933579
20
478532.32862160663
10
1329742.8562778663
20
478523.84077768953
10
1329742.9468288734
20
478518.1888861099
10
1329742.0462401211
20
478513.43528669875
10
1329741.5780651998
20
478511.34506777616
10
1329742.0022769552
20
478502.0173305256
10
1329743.5295048605
20
478494.9005468547
10
1329744.3031253642
20
478491.7502906923
10
1329745.4809445427
20
478482.308708526
10
1329745.4199210347
20
478477.77295644477
10
1329745.3293700346
20
478473.8566256835
10
1329747.2089594605
20
478468.92028386355
10
1329752.7607856193
20
478463.4403079396
10
1329754.0275153646
20
478461.3113751945
10
1329754.7571726989
20
478455.35731885565
10
1329755.2630771985
20
478442.7103625289
10
1329755.7391261118
20
478434.74909235036
10
1329757.551458448
20
478429.3826332778
10
1329762.8582063753
20
478420.3226120277
10
1329765.3460622823
20
478413.12774452474
10
1329766.4188947775
20
478403.3275672823
10
1329767.4818847864
20
478394.4037006043
10
1329767.8089838768
20
478393.7245681091
10
1329770.2860130363
20
478390.21473261004
10
1329772.6970974526
20
478383.04479944386
10
1329773.1800361292
20
478381.27511794347
10
1329779.265981952
20
478374.8624011077
10
1329788.154087544
20
478368.69443444134
10
1329793.2777649672
20
478362.7154437718
10
1329798.0398945336
20
478357.07044193655
10
1329805.5182260417
20
478350.3529356916
10
1329812.2288425427
20
478342.49041860277
10
1329817.3187273731
20
478338.04652985465
10
1329821.0260690257
20
478337.5199561161
10
1329821.9722613692
20
478337.6016488618
10
1329830.8078736179
20
478337.42645236605
10
1329832.8449430312
20
478336.75420959695
10
1329834.5247296982
20
478336.15841026435
10
1329837.3813512917
20
478335.6908915263
10
1329845.4367813712
20
478333.2020513465
10
1329850.214658959
20
478331.45599185483
10
1329856.7372837018
20
478328.66990819405
10
1329858.7303899475
20
478327.533427533
10
1329860.9364222875
20
478326.1843488542
10
1329867.5016978672
20
478322.07904209924
10
1329871.8740644562
20
478319.52228868695
10
1329877.9639472798
20
478317.1482776926
10
1329891.2375427918
20
478313.7230876995
10
1329894.3503974485
20
478313.22440101526
10
1329899.8664625431
20
478312.7135752683
10
1329903.7726226996
20
478311.40878786205
10
1329905.449128542
20
478310.3677794263
10
1329907.5173658638
20
478309.440615943
10
1329908.6151327041
20
478309.1555115248
10
1329919.3782345315
20
478305.36188394483
0
LWPOLYLINE
5
3D
330
C
100
AcDbEntity
8
C-TOPO-MAJR-E
100
AcDbPolyline
90
4
70
0
43
0
38
0
39
0
10
1329919.3782345315
20
478305.36188394483
10
1329926.8923271135
20
478302.7135952822
10
1329938.2791153614
20
478295.70081401325
10
1329939.0169747884
20
478295.23329527833
0
LWPOLYLINE
5
3E
330
C
100
AcDbEntity
8
C-TOPO-MAJR-E
100
AcDbPolyline
90
86
70
0
43
0
38
0
39
0
10
1329817.802322203
20
478680.41592385643
10
1329817.3712207046
20
478680.1423023568
10
1329815.8886121218
20
478677.1157335996
10
1329814.5221450278
20
478671.9129881011
10
1329814.0995737007
20
478670.8450768441
10
1329810.7032550394
20
478665.4277648649
10
1329810.01985745
20
478665.08294927754
10
1329801.3656752845
20
478667.1616852632
10
1329795.9066967017
20
478669.268636444
10
1329788.958219781
20
478671.7269648585
10
1329787.4847975324
20
478671.80701718415
10
1329785.1360489582
20
478671.0517693566
10
1329783.4854616919
20
478668.42414993944
10
1329784.6724671992
20
478665.36936602375
10
1329788.7820390314
20
478660.33131835994
10
1329792.237412703
20
478654.02457243804
10
1329792.215431124
20
478647.16894310294
10
1329789.335843691
20
478634.63091043505
10
1329789.2433241997
20
478627.5590741931
10
1329789.9201601117
20
478616.86913494655
10
1329788.8460152855
20
478614.1453871019
10
1329787.1868978771
20
478612.36126994406
10
1329784.8414301223
20
478608.1398216847
10
1329782.7059357034
20
478596.09916336386
10
1329782.147537872
20
478593.31373585947
10
1329781.1586946973
20
478590.5860510276
10
1329779.5710994615
20
478586.63592769153
10
1329777.5825863732
20
478578.93613993766
10
1329777.3115895397
20
478572.8652859503
10
1329776.8060131222
20
478567.7284851876
10
1329774.7479463608
20
478559.2481871988
10
1329774.4464377898
20
478552.559552287
10
1329774.775505359
20
478547.619601526
10
1329773.7663210358
20
478543.2534685241
10
1329771.7545140327
20
478537.94212744036
10
1329771.0415889472
20
478533.92507511715
10
1329770.2876534532
20
478527.8473313548
10
1329769.4057654557
20
478519.2531884319
10
1329769.507143194
20
478513.1354185251
10
1329769.9753181175
20
478504.63904444664
10
1329770.8965761203
20
478497.6534941184
10
1329773.9467668661
20
478485.2847524318
10
1329774.799455444
20
478480.0045792668
10
1329775.2371186167
20
478476.7706618591
10
1329775.9418416158
20
478475.64533601847
10
1329783.572731867
20
478467.0525054359
10
1329786.050417198
20
478462.68079502374
10
1329786.8919509498
20
478461.0049453592
10
1329787.6973955284
20
478459.1496341015
10
1329790.7935179467
20
478447.4774133614
10
1329793.6380004608
20
478440.15000019694
10
1329795.628153949
20
478436.7310437674
10
1329798.11305712
20
478431.86392752326
10
1329801.8751887067
20
478423.4338262847
10
1329806.3801009478
20
478416.5237351019
10
1329812.5506922838
20
478407.00374101766
10
1329813.615322699
20
478405.904989937
10
1329819.959798201
20
478402.52573160885
10
1329831.7517693578
20
478395.5592101
10
1329837.0250527842
20
478389.5251014568
10
1329842.1424966145
20
478385.5031278522
10
1329856.849160117
20
478381.35845110606
10
1329862.6618125436
20
478379.66258835857
10
1329865.1326081157
20
478377.9129199381
10
1329873.168353198
20
478367.9772442708
10
1329882.0646608735
20
478360.80206178024
10
1329886.3064502897
20
478357.9139441928
10
1329888.332364868
20
478356.5934087705
10
1329901.3001867076
20
478351.83718469104
10
1329903.5751165235
20
478350.9789186854
10
1329912.003905459
20
478345.1941533706
10
1329913.6876291174
20
478343.7640381117
10
1329919.9146507822
20
478340.7341885237
10
1329923.5291448662
20
478340.38313935447
10
1329933.9333235284
20
478340.2236908595
10
1329940.257129788
20
478340.5311049523
10
1329942.4690676178
20
478340.51076378045
10
1329947.2364465427
20
478338.4418702689
10
1329950.916557281
20
478337.27783062105
10
1329953.707562208
20
478338.60131877306
10
1329958.5051247869
20
478342.2000648602
10
1329969.9417817008
20
478351.8197962764
10
1329971.964087367
20
478355.8863891966
10
1329972.4552281173
20
478357.7226716044
10
1329973.5680867839
20
478362.32174378366
10
1329974.6983338718
20
478367.27777058847
0
LWPOLYLINE
5
3F
330
C
100
AcDbEntity
8
C-TOPO-MAJR-E
100
AcDbPolyline
90
3
70
0
43
0
38
0
39
0
10
1329708.7021467062
20
478441.9560989344
10
1329707.7782640294
20
478440.30157469306
10
1329708.7234721167
20
478438.2415394409
0
LWPOLYLINE
5
40
330
C
100
AcDbEntity
8
C-TOPO-MAJR-E
100
AcDbPolyline
90
3
70
0
43
0
38
0
39
0
10
1329708.6991939526
20
478442.57552027574
10
1329707.2546430363
20
478440.09324176976
10
1329708.733314617
20
478436.60210703174
0
LWPOLYLINE
5
41
330
C
100
AcDbEntity
8
C-TOPO-MAJR-E
100
AcDbPolyline
90
4
70
0
43
0
38
0
39
0
10
1329708.6955850387
20
478443.1585243495
10
1329708.6785247058
20
478443.11751393223
10
1329706.7287254448
20
478439.8842526962
10
1329708.7431571195
20
478434.8055226948
0
LWPOLYLINE
5
42
330
C
100
AcDbEntity
8
C-TOPO-MAJR-E
100
AcDbPolyline
90
5
70
0
43
0
38
0
39
0
10
1329708.67688429
20
478446.50202160917
10
1329708.948865366
20
478444.93673603266
10
1329709.0463061165
20
478443.2959912802
10
1329708.8743904503
20
478442.87670077133
10
1329708.6991939526
20
478442.57552027574
0
LWPOLYLINE
5
43
330
C
100
AcDbEntity
8
C-TOPO-MAJR-E
100
AcDbPolyline
90
5
70
0
43
0
38
0
39
0
10
1329708.7431571195
20
478434.8055226948
10
1329708.9288522894
20
478434.3370196901
10
1329709.0522116246
20
478433.94627244386
10
1329708.8560177784
20
478432.99023759685
10
1329708.756608528
20
478432.42954318546
0
LWPOLYLINE
5
44
330
C
100
AcDbEntity
8
C-TOPO-MAJR-E
100
AcDbPolyline
90
5
70
0
43
0
38
0
39
0
10
1329708.8268183717
20
478420.0988591834
10
1329709.169665453
20
478415.68843493646
10
1329709.284822702
20
478414.2619286125
10
1329709.2293766066
20
478414.1451309426
10
1329708.8615951932
20
478414.00733594137
0
LWPOLYLINE
5
45
330
C
100
AcDbEntity
8
C-TOPO-MAJR-E
100
AcDbPolyline
90
8
70
0
43
0
38
0
39
0
10
1329708.6086429525
20
478458.4137432035
10
1329708.8241937011
20
478456.23789452977
10
1329708.778918201
20
478451.736263103
10
1329708.8146792771
20
478451.0617237789
10
1329709.45509796
20
478446.9160627692
10
1329709.6302944566
20
478443.291398106
10
1329709.2854788753
20
478442.37178051437
10
1329708.7064117913
20
478441.27204518835
0
LWPOLYLINE
5
46
330
C
100
AcDbEntity
8
C-TOPO-MAJR-E
100
AcDbPolyline
90
3
70
0
43
0
38
0
39
0
10
1329709.2359382843
20
478348.36507876316
10
1329710.4331143657
20
478346.3457258516
10
1329712.00036846
20
478341.52650976914
0
LWPOLYLINE
5
47
330
C
100
AcDbEntity
8
C-TOPO-MAJR-E
100
AcDbPolyline
90
43
70
0
43
0
38
0
39
0
10
1329708.8642198746
20
478413.5995283633
10
1329707.8684869504
20
478413.06967377866
10
1329707.3914537886
20
478412.1674446138
10
1329707.7339727895
20
478404.82001836336
10
1329707.77629554
20
478403.7576845319
10
1329707.748736524
20
478403.370546184
10
1329707.2123202824
20
478400.81904211146
10
1329703.9531404562
20
478390.56414137146
10
1329703.7461198706
20
478388.9404569386
10
1329703.4918552928
20
478382.8256397828
10
1329703.3117375353
20
478377.32499460434
10
1329703.3976953756
20
478374.51200811623
10
1329703.8032063656
20
478365.1878797854
10
1329704.8186242844
20
478359.3801486121
10
1329706.6161928806
20
478354.12064468034
10
1329706.82419771
20
478352.88541095395
10
1329707.1604831207
20
478348.97236101737
10
1329707.3547084387
20
478347.8867332783
10
1329707.7815448632
20
478337.9549946165
10
1329708.1237357827
20
478336.8283564357
10
1329708.2493917022
20
478336.3654308535
10
1329707.741846781
20
478328.4110504316
10
1329707.8720958624
20
478326.62266818545
10
1329709.8802939446
20
478318.55247435725
10
1329712.5827163723
20
478316.2033976905
10
1329712.9068627036
20
478316.1420461045
10
1329714.7982631174
20
478314.45241694804
10
1329709.90686871
20
478294.951143599
10
1329702.0630523665
20
478292.2231306935
10
1329696.2549931232
20
478292.79530802346
10
1329693.2743560344
20
478296.4294871085
10
1329691.476131285
20
478299.79791868664
10
1329689.8524468732
20
478300.891092354
10
1329688.707764115
20
478301.9360377678
10
1329685.4371013597
20
478305.17914152995
10
1329683.5099398587
20
478305.62763143034
10
1329682.682513693
20
478305.6650329371
10
1329680.122151371
20
478306.2135882705
10
1329678.8813401994
20
478306.61056910775
10
1329678.4964984478
20
478306.8047944381
10
1329674.899720872
20
478308.9461943715
10
1329673.5381750294
20
478309.50885727955
10
1329673.504382464
20
478309.51968403254
0
LWPOLYLINE
5
48
330
C
100
AcDbEntity
8
C-TOPO-MAJR-E
100
AcDbPolyline
90
80
70
0
43
0
38
0
39
0
10
1329728.3540102858
20
478688.39228586707
10
1329726.114513455
20
478686.132775951
10
1329722.1430647066
20
478683.24072135193
10
1329716.7716843616
20
478679.1121206985
10
1329715.098459373
20
478678.379182518
10
1329709.0778021151
20
478676.25353060366
10
1329706.0784642883
20
478673.57505827985
10
1329705.1926392855
20
478666.2699547778
10
1329705.529580872
20
478660.5478533588
10
1329702.202487776
20
478651.8191962747
10
1329700.0942242928
20
478648.735541032
10
1329698.4787419587
20
478643.90352969064
10
1329699.7828731996
20
478638.84678128414
10
1329700.77532528
20
478635.25525303336
10
1329700.585036948
20
478629.4311176938
10
1329700.1919931113
20
478627.5052685139
10
1329697.9019714568
20
478620.0735248617
10
1329697.604399873
20
478618.92490510433
10
1329696.2599143686
20
478612.112582769
10
1329696.0082744441
20
478610.64014477393
10
1329693.9042760395
20
478593.8015957663
10
1329693.8380032037
20
478593.3629483523
10
1329693.5801297002
20
478591.86852878064
10
1329691.104740941
20
478577.5736098589
10
1329691.0515914538
20
478577.4138332751
10
1329689.0319104472
20
478573.5926466961
10
1329688.8826325387
20
478573.1976343585
10
1329688.787488373
20
478572.7593150334
10
1329687.4872941189
20
478563.7301336009
10
1329687.47384271
20
478562.5555952767
10
1329688.5650478734
20
478557.6113794427
10
1329690.3744274506
20
478551.6090948563
10
1329690.8153714463
20
478549.80168377556
10
1329692.493189619
20
478540.8915966169
10
1329692.7280972882
20
478540.1373330285
10
1329695.8921329495
20
478531.76136552135
10
1329695.9272378685
20
478529.8627472853
10
1329695.9731695368
20
478529.36406060716
10
1329696.4446252915
20
478527.1504823469
10
1329696.5801237023
20
478526.6058640251
10
1329697.8566959498
20
478522.0186028655
10
1329698.203480035
20
478518.9106694515
10
1329698.2458027923
20
478517.8942672698
10
1329699.6165349393
20
478507.04783226724
10
1329699.5879917
20
478506.42677051807
10
1329699.5624012062
20
478505.90872693784
10
1329699.9574135365
20
478504.99599911197
10
1329700.1650902885
20
478504.41496351955
10
1329702.3287998769
20
478493.8188560936
10
1329702.5669883618
20
478492.9454982589
10
1329703.2805696232
20
478491.34281120007
10
1329705.495132111
20
478484.9045038589
10
1329705.6969033717
20
478483.3257668641
10
1329705.7516932925
20
478482.4858735367
10
1329707.4186847028
20
478473.1755246916
10
1329707.6467026132
20
478471.0311720163
10
1329707.7103507803
20
478469.76903544116
10
1329707.9833161174
20
478469.19029643736
10
1329711.057785033
20
478463.546935019
10
1329710.9737956892
20
478461.2736456111
10
1329710.7815388744
20
478459.9977295197
10
1329710.2172355328
20
478451.0837053646
10
1329710.2237971998
20
478450.97609401855
10
1329710.310739292
20
478450.25988812075
10
1329710.5069331215
20
478443.2848364352
10
1329710.0085745293
20
478441.48267469724
10
1329709.8806220447
20
478441.1372029505
10
1329710.1181543765
20
478440.86620611
10
1329711.3674956993
20
478438.73956994433
10
1329710.1289811158
20
478429.58702918334
10
1329710.0804247838
20
478429.1867675275
10
1329710.1460414482
20
478427.6864424353
10
1329710.8894782837
20
478413.70615543664
10
1329710.8412500361
20
478412.2891635254
10
1329710.801551953
20
478412.0837833501
10
1329709.9249132848
20
478408.7317559322
10
1329709.925569455
20
478408.1175839366
10
1329710.2562774548
20
478404.4079456787
10
1329710.0732069612
20
478402.9748776931
10
1329708.9734716262
20
478394.4119027042
0
LWPOLYLINE
5
49
330
C
100
AcDbEntity
8
C-TOPO-MAJR-E
100
AcDbPolyline
90
4
70
0
43
0
38
0
39
0
10
1329768.7594412863
20
478243.0316280156
10
1329772.0589753713
20
478244.5686984367
10
1329776.5179559588
20
478244.9883170131
10
1329777.8529270445
20
478244.4013759429
0
LWPOLYLINE
5
4A
330
C
100
AcDbEntity
8
C-TOPO-MAJR-E
100
AcDbPolyline
90
9
70
0
43
0
38
0
39
0
10
1329781.2784451323
20
478240.9620783538
10
1329787.2961496264
20
478234.65402011294
10
1329786.9851266134
20
478230.5099995293
10
1329778.5829124588
20
478229.0201731043
10
1329770.1354227818
20
478230.5815216875
10
1329765.2305769469
20
478236.27901686775
10
1329765.1177162817
20
478240.9542043549
10
1329765.4248022852
20
478241.4781534465
10
1329768.7594412863
20
478243.0316280156
0
LWPOLYLINE
5
4B
330
C
100
AcDbEntity
8
C-TOPO-MAJR-E
100
AcDbPolyline
90
5
70
0
43
0
38
0
39
0
10
1329939.0169747884
20
478295.23329527833
10
1329947.9329674514
20
478289.5866530231
10
1329959.5290728605
20
478292.2487211928
10
1329970.5093658702
20
478297.323186112
10
1329977.8823826155
20
478302.1801317718
0
LWPOLYLINE
5
4C
330
C
100
AcDbEntity
8
C-TOPO-MAJR-E
100
AcDbPolyline
90
3
70
0
43
0
38
0
39
0
10
1329708.7064117913
20
478441.27204518835
10
1329708.3054939478
20
478440.51089186774
10
1329708.7152700361
20
478439.7028226032
0
LWPOLYLINE
5
4D
330
C
100
AcDbEntity
8
C-TOPO-MAJR-E
100
AcDbPolyline
90
4
70
0
43
0
38
0
39
0
10
1329708.6903357056
20
478444.10570093413
10
1329708.7093645346
20
478444.0007142655
10
1329708.7536557824
20
478443.2982878627
10
1329708.6955850387
20
478443.1585243495
0
LWPOLYLINE
5
4E
330
C
100
AcDbEntity
8
C-TOPO-MAJR-E
100
AcDbPolyline
90
12
70
0
43
0
38
0
39
0
10
1329708.9734716262
20
478394.4119027042
10
1329708.4957822778
20
478390.6924219416
10
1329708.2356121927
20
478389.2252332832
10
1329708.2159271967
20
478389.0664409293
10
1329708.2162552907
20
478388.49918485933
10
1329708.4406642856
20
478375.56384327443
10
1329708.5315433727
20
478368.67507751787
10
1329708.5476194462
20
478367.74758594565
10
1329708.9682222896
20
478355.1682147777
10
1329708.9947970393
20
478354.64131293807
10
1329709.131935864
20
478349.7154697731
10
1329709.2300327863
20
478349.4136331089
0
LWPOLYLINE
5
4F
330
C
100
AcDbEntity
8
C-TOPO-MAJR-E
100
AcDbPolyline
90
17
70
0
43
0
38
0
39
0
10
1329708.874718529
20
478411.7461856114
10
1329708.5000473682
20
478410.66416677367
10
1329708.6519499563
20
478406.20092111116
10
1329708.7654667974
20
478404.01719843247
10
1329708.7090364485
20
478403.20716068655
10
1329707.6407971177
20
478397.436831017
10
1329705.6650792826
20
478390.02870936133
10
1329705.5364706195
20
478388.99098176556
10
1329705.450840874
20
478385.1779972773
10
1329705.365211111
20
478376.6199435148
10
1329705.4783998693
20
478372.1461991974
10
1329705.6837800425
20
478366.2023134521
10
1329706.6243949512
20
478357.54714702896
10
1329707.4012962852
20
478354.2925603666
10
1329707.7280672926
20
478351.64361552626
10
1329708.306806278
20
478349.1488698503
10
1329709.2434841942
20
478347.0694776838
0
LWPOLYLINE
5
50
330
C
100
AcDbEntity
8
C-TOPO-MAJR-E
100
AcDbPolyline
90
3
70
0
43
0
38
0
39
0
10
1329709.2434841942
20
478347.0694776838
10
1329709.3179591123
20
478346.9041236989
10
1329710.3481407873
20
478341.80898952205
0
LWPOLYLINE
5
51
330
C
100
AcDbEntity
8
C-TOPO-MAJR-E
100
AcDbPolyline
90
4
70
0
43
0
38
0
39
0
10
1329709.2326574496
20
478348.97662610875
10
1329711.7546340392
20
478345.6843098752
10
1329713.3212319617
20
478342.5383187767
10
1329713.9777266954
20
478341.1882558526
0
LWPOLYLINE
5
52
330
C
100
AcDbEntity
8
C-TOPO-MAJR-E
100
AcDbPolyline
90
43
70
0
43
0
38
0
39
0
10
1329708.8671726126
20
478413.06212785037
10
1329708.5600866235
20
478412.8370627055
10
1329707.954772875
20
478411.4036666066
10
1329708.194929868
20
478405.5135865405
10
1329708.272685615
20
478403.8879336048
10
1329708.2267539478
20
478403.2891815272
10
1329707.4183566263
20
478399.19338919723
10
1329704.8104221907
20
478390.296097279
10
1329704.6408031117
20
478388.9657193551
10
1329704.4862758613
20
478384.0198631164
10
1329704.3360137013
20
478376.97328927263
10
1329704.4393599476
20
478373.32762727817
10
1329704.737915781
20
478365.6921438554
10
1329705.758254956
20
478358.42608228006
10
1329706.9849585444
20
478354.20135319297
10
1329707.2753122796
20
478352.2656615176
10
1329707.783185292
20
478349.06816136825
10
1329708.3074624473
20
478347.4100281828
10
1329709.2300327898
20
478339.15348302614
10
1329709.7470921255
20
478337.5868851155
10
1329709.9409893733
20
478336.93728011596
10
1329710.0246506175
20
478330.8526466183
10
1329710.523993442
20
478328.518005606
10
1329712.9442642035
20
478322.6984634406
10
1329717.3199116136
20
478319.7886923533
10
1329717.8021941155
20
478319.7027345285
10
1329720.5827003682
20
478317.21651902917
10
1329713.3894732841
20
478288.53416169935
10
1329701.8780133708
20
478285.45411535795
10
1329697.0555164486
20
478286.8061467848
10
1329692.3422712767
20
478293.08336519275
10
1329690.3088107852
20
478298.89929843537
10
1329689.2966736974
20
478300.1460151017
10
1329687.8285007959
20
478302.00165444525
10
1329685.3399887057
20
478304.64469377423
10
1329683.7422228744
20
478305.0577506859
10
1329682.5785112828
20
478305.1473174365
10
1329680.4613895349
20
478305.6443636916
10
1329678.708112213
20
478306.2362260156
10
1329678.164806202
20
478306.50098926807
10
1329675.256347443
20
478308.09777086444
10
1329673.528660625
20
478308.73589294543
10
1329673.3846320307
20
478308.78182461654
0
LWPOLYLINE
5
53
330
C
100
AcDbEntity
8
C-TOPO-MAJR-E
100
AcDbPolyline
90
15
70
0
43
0
38
0
39
0
10
1329712.00036846
20
478341.52650976914
10
1329712.0210376955
20
478341.4625335209
10
1329712.995445211
20
478339.1045986131
10
1329713.3832397014
20
478338.1009916963
10
1329714.1499704577
20
478335.26536744775
10
1329716.166370616
20
478332.5508059391
10
1329718.5003554462
20
478330.2164930126
10
1329726.7995514516
20
478326.96321869054
10
1329727.5849829644
20
478326.8182058652
10
1329732.150262532
20
478322.7447231914
10
1329720.3517297048
20
478275.7067595188
10
1329701.5207306177
20
478272.3829472746
10
1329698.7858279408
20
478273.8639154402
10
1329690.478757948
20
478286.39505836065
10
1329688.3750876132
20
478296.61419802613
0
LWPOLYLINE
5
54
330
C
100
AcDbEntity
8
C-TOPO-MAJR-E
100
AcDbPolyline
90
76
70
0
43
0
38
0
39
0
10
1329610.0622521178
20
478315.66993419226
10
1329609.4710459504
20
478315.4734122764
10
1329608.990731952
20
478315.01672027307
10
1329608.780102447
20
478312.0816867814
10
1329608.0852219574
20
478307.4206068628
10
1329607.871639699
20
478306.2214622846
10
1329607.4549738774
20
478304.0075559416
10
1329606.4562881982
20
478299.7240999398
10
1329606.1577323668
20
478298.65618868585
10
1329605.364754959
20
478294.3382839407
10
1329605.3782063657
20
478292.51610910747
10
1329605.3096369475
20
478291.2395368566
10
1329604.9369342893
20
478288.79203518905
10
1329604.7046512787
20
478287.472812107
10
1329603.0934340328
20
478277.9718468604
10
1329602.3178450305
20
478273.23202694725
10
1329602.3171888725
20
478271.2261254356
10
1329602.287005204
20
478268.07619734993
10
1329599.6695563635
20
478260.76190753316
10
1329598.9503976982
20
478258.4079096156
10
1329598.9339935235
20
478257.78881635703
10
1329599.5717875331
20
478255.6310122696
10
1329600.5721136136
20
478254.2556869259
10
1329606.2948712064
20
478252.5696666953
10
1329613.2220226931
20
478251.11166436074
10
1329613.7364573767
20
478250.414487267
10
1329614.0497769502
20
478249.76816310745
10
1329616.7984591231
20
478249.5434260148
10
1329619.1682050372
20
478249.58279601816
10
1329623.0454938659
20
478249.27767852927
10
1329627.4680571987
20
478248.4417221891
10
1329629.448040124
20
478247.97125069384
10
1329633.646522537
20
478247.04113443807
10
1329639.7688856267
20
478245.7058352786
10
1329642.814811287
20
478245.0742748623
10
1329648.5772669567
20
478243.71699410497
10
1329653.92502528
20
478241.7724441855
10
1329657.6786266987
20
478240.34167277324
10
1329661.2402993676
20
478240.2596519387
10
1329663.4630639527
20
478240.70781377156
10
1329667.9797871986
20
478240.5299926075
10
1329674.5207846148
20
478239.19666194165
10
1329676.7674992816
20
478239.2389846809
10
1329678.2996484526
20
478239.44403678563
10
1329683.4413704565
20
478237.92730752716
10
1329687.067347455
20
478237.4725840174
10
1329690.095884711
20
478237.41680984467
10
1329691.9994242033
20
478236.7786877606
10
1329694.796662703
20
478235.3590711841
10
1329697.1398338645
20
478234.2576954473
10
1329699.748096375
20
478233.9135360164
10
1329702.1890363668
20
478234.11596343754
10
1329705.541391865
20
478233.8538248809
10
1329709.6332471985
20
478233.0765954401
10
1329711.8389514526
20
478232.55428677157
10
1329712.2523364522
20
478232.46537618956
10
1329719.2447765295
20
478231.52410511934
10
1329723.1279708773
20
478231.1773210262
10
1329723.7979170368
20
478231.08808235533
10
1329730.7083362937
20
478229.54609068955
10
1329732.2076771252
20
478229.426012201
10
1329733.6715849468
20
478229.4161696933
10
1329740.8047727905
20
478227.8551491837
10
1329742.0222900389
20
478227.58349619596
10
1329743.2276682062
20
478227.32693501597
10
1329745.1380974485
20
478226.5795611781
10
1329745.6686082024
20
478222.73114368896
10
1329739.9087772048
20
478221.9122476989
10
1329734.4074758694
20
478222.20555419265
10
1329731.973097532
20
478220.6310822801
10
1329730.5541371251
20
478210.31417376705
10
1329731.3897653609
20
478197.77515685087
10
1329733.0180429528
20
478186.7233416913
10
1329733.9849045437
20
478185.3171765178
10
1329736.794282119
20
478182.2420514486
10
1329739.322820361
20
478171.2122178534
0
LWPOLYLINE
5
55
330
C
100
AcDbEntity
8
C-TOPO-MAJR-E
100
AcDbPolyline
90
91
70
0
43
0
38
0
39
0
10
1329865.4784079469
20
478682.46874128137
10
1329866.4692196215
20
478678.2515581012
10
1329870.0643567867
20
478674.2135084375
10
1329872.003001198
20
478671.42020694044
10
1329870.2156032012
20
478668.342129111
10
1329869.4852897052
20
478665.34574402415
10
1329869.6755780426
20
478664.1836728638
10
1329869.8816143726
20
478663.19482969027
10
1329869.7352892049
20
478661.43302219175
10
1329868.1598330422
20
478657.14464494225
10
1329866.8560298632
20
478655.93204894266
10
1329864.403935026
20
478655.68303368485
10
1329860.739244208
20
478656.6456301874
10
1329856.6099873765
20
478657.15120660694
10
1329853.3511356204
20
478656.51964619063
10
1329851.0775181183
20
478655.22338893346
10
1329849.503046193
20
478654.64432185603
10
1329846.4367793633
20
478654.683035697
10
1329845.0240525245
20
478654.58362644166
10
1329835.6218403722
20
478651.9156527789
10
1329831.7707982066
20
478644.2893557044
10
1329830.7773618689
20
478639.0665971169
10
1329829.2258557803
20
478637.0866141812
10
1329826.6490892887
20
478632.39961568656
10
1329825.5506662847
20
478626.06826353504
10
1329826.3656252911
20
478622.512168276
10
1329829.9476391212
20
478616.2484012833
10
1329829.9374685397
20
478615.3025370237
10
1329825.138593618
20
478603.7412084452
10
1329823.7878745347
20
478602.06535876845
10
1329818.320693865
20
478597.8396454422
10
1329815.370896613
20
478593.01714850747
10
1329814.1881562034
20
478589.2415655199
10
1329812.8197206263
20
478585.07359486306
10
1329812.4689995318
20
478584.30358328
10
1329811.8994468746
20
478582.89807427814
10
1329809.4673651163
20
478574.37118843436
10
1329807.4539176926
20
478565.31969735783
10
1329806.9571995428
20
478558.7360491055
10
1329806.0323326164
20
478554.2839582849
10
1329804.0070742064
20
478549.05890310265
10
1329802.9890316245
20
478543.95294219116
10
1329801.6707927876
20
478538.04514561535
10
1329801.1301114527
20
478536.516277282
10
1329800.1763731996
20
478532.7902348638
10
1329798.1363510373
20
478526.26137652673
10
1329796.4411444515
20
478520.4802201011
10
1329796.3893072885
20
478513.64985319175
10
1329797.3640428602
20
478511.0770236929
10
1329800.484115377
20
478505.6915357857
10
1329802.4102926226
20
478498.63380711223
10
1329802.6898196233
20
478491.78998878464
10
1329802.9070107944
20
478487.37365902634
10
1329804.4512990408
20
478481.6905995249
10
1329806.5083815267
20
478479.5311550327
10
1329809.2042422802
20
478476.83201343595
10
1329810.5533209557
20
478473.14337253064
10
1329811.3627025299
20
478468.7322921121
10
1329812.4735926972
20
478463.87469027756
10
1329812.9601402862
20
478462.705073195
10
1329817.191431027
20
478456.3412407784
10
1329823.3121536986
20
478449.22609751526
10
1329830.5493439566
20
478441.938382437
10
1329835.8528110364
20
478436.5912802665
10
1329839.3833157807
20
478434.2536865367
10
1329845.192031197
20
478431.734006527
10
1329848.7103968686
20
478429.50796110905
10
1329859.6785507952
20
478421.1001695268
10
1329864.4206672905
20
478417.7008981005
10
1329866.064036696
20
478416.7973566046
10
1329868.521380868
20
478416.1044446114
10
1329873.8497822846
20
478415.31409185956
10
1329883.3094090358
20
478415.32426243176
10
1329887.3638628698
20
478414.8190141072
10
1329893.5633255334
20
478412.29178818455
10
1329902.7749212803
20
478407.68845093535
10
1329904.692568373
20
478407.2370082564
10
1329910.3631607005
20
478404.9017110938
10
1329913.6948469616
20
478402.80788327596
10
1329922.9618887848
20
478401.24784702994
10
1329923.7069660402
20
478401.86365944246
10
1329930.4887766242
20
478408.08838452375
10
1329941.1672329584
20
478406.745539436
10
1329945.9913702977
20
478402.19075852016
10
1329950.7252847077
20
478396.82659603615
10
1329955.0510634435
20
478394.5621648509
10
1329962.160957363
20
478399.03459684335
10
1329964.4316221124
20
478404.04606977786
10
1329969.0188832856
20
478410.2461886112
10
1329973.1711059483
20
478414.51848978334
10
1329974.3928882927
20
478416.87051918585
0
LWPOLYLINE
5
56
330
C
100
AcDbEntity
8
C-TOPO-MAJR-E
100
AcDbPolyline
90
47
70
0
43
0
38
0
39
0
10
1329631.954268708
20
478637.0531497014
10
1329633.31450221
20
478636.1141751862
10
1329635.3427133688
20
478631.1289489379
10
1329635.5290646954
20
478622.3582971974
10
1329637.504454443
20
478619.107975608
10
1329638.4244001163
20
478618.59583753
10
1329661.8219911116
20
478604.6211279446
10
1329665.0696880296
20
478601.22513736744
10
1329664.7107648693
20
478595.5430621021
10
1329661.9673320304
20
478585.4784496961
10
1329661.3889211228
20
478583.0142157795
10
1329661.083475524
20
478580.2163211052
10
1329666.6602360294
20
478570.90269143844
10
1329681.4689334463
20
478558.0336226965
10
1329681.7182767745
20
478552.9466906135
10
1329681.8229353693
20
478551.37681185675
10
1329682.5289706974
20
478549.8814080276
10
1329686.208097201
20
478544.6963790235
10
1329686.7468100295
20
478543.67735218874
10
1329686.0699741235
20
478540.8341820211
10
1329684.3068542902
20
478537.79777077754
10
1329683.6093491144
20
478535.32074160513
10
1329685.8445808708
20
478528.3096007837
10
1329687.3242367096
20
478526.54877753655
10
1329691.0794785316
20
478522.3758856075
10
1329691.4206852
20
478517.19709018833
10
1329690.1024463733
20
478514.4680930192
10
1329689.8865675326
20
478512.4776114531
10
1329689.8508064577
20
478510.7423786869
10
1329690.234007792
20
478506.7276229401
10
1329691.7044772771
20
478501.12527193903
10
1329693.2999465314
20
478494.3864402708
10
1329693.4757992001
20
478493.61708485027
10
1329694.7339987892
20
478487.7506267654
10
1329695.2864911212
20
478482.6299021076
10
1329696.2159512043
20
478475.18470703403
10
1329698.5000673663
20
478473.6161406084
10
1329701.0623982071
20
478470.2421315986
10
1329700.763842374
20
478465.68800685136
10
1329701.2028178726
20
478464.84352034674
10
1329703.4393619597
20
478463.03184419294
10
1329704.4472339586
20
478461.43965578295
10
1329706.6903396996
20
478456.1043646077
10
1329707.3255090392
20
478453.3589632723
10
1329707.3412570334
20
478452.38882085367
10
1329707.4049051998
20
478451.14735352097
10
1329708.6903357056
20
478444.10570093413
0
LWPOLYLINE
5
57
330
C
100
AcDbEntity
8
C-TOPO-MAJR-E
100
AcDbPolyline
90
13
70
0
43
0
38
0
39
0
10
1329708.932133113
20
478401.62547094066
10
1329707.8888281113
20
478395.4807981973
10
1329706.523673368
20
478389.76033718
10
1329706.4308257836
20
478389.0162441882
10
1329706.3930962058
20
478386.3095566815
10
1329706.3891592047
20
478376.2682382045
10
1329706.5062849522
20
478370.9775663632
10
1329706.6303004452
20
478366.7131391807
10
1329707.443947119
20
478356.7154557832
10
1329707.8665184565
20
478354.3942661983
10
1329708.1893524567
20
478351.0104146869
10
1329708.7326584563
20
478349.21415844193
10
1329709.2359382843
20
478348.36507876316
0
LWPOLYLINE
5
58
330
C
100
AcDbEntity
8
C-TOPO-MAJR-E
100
AcDbPolyline
90
35
70
0
43
0
38
0
39
0
10
1329698.9314969436
20
478504.0169984339
10
1329699.1142393602
20
478503.596723689
10
1329699.698555781
20
478502.1774351861
10
1329701.291400367
20
478494.45304118743
10
1329701.8219111296
20
478492.23060468613
10
1329703.548613695
20
478489.15679194196
10
1329705.235946283
20
478484.72635462123
10
1329705.4026126293
20
478483.4566721117
10
1329705.536142539
20
478481.3103509275
10
1329706.8041846144
20
478473.583004193
10
1329706.899656879
20
478471.9862226089
10
1329706.8169798693
20
478469.18143818714
10
1329707.5184220404
20
478467.8369526977
10
1329710.0269472038
20
478463.62994009885
10
1329710.19000462
20
478461.7096683629
10
1329710.0489287805
20
478458.59025203035
10
1329709.7395462096
20
478451.3005684493
10
1329709.7536537938
20
478451.0046372812
10
1329710.0111992005
20
478449.08830251714
10
1329710.2129704505
20
478443.2868049441
10
1329709.742498946
20
478441.81010186375
10
1329709.3547044485
20
478440.9282138647
10
1329709.9669079455
20
478440.0351710267
10
1329710.982325862
20
478437.9423274389
10
1329709.8911207046
20
478430.22285468184
10
1329709.7559503757
20
478429.1467413646
10
1329709.9488633727
20
478425.2648593529
10
1329710.619793788
20
478413.7993311039
10
1329710.4783898708
20
478412.7068136112
10
1329710.2907261983
20
478412.25537095364
10
1329709.494467957
20
478409.3154161868
10
1329709.5210427034
20
478407.5086612777
10
1329709.7598873666
20
478404.2776966027
10
1329709.6699925389
20
478403.0434471033
10
1329708.950833874
20
478398.36596302444
0
LWPOLYLINE
5
59
330
C
100
AcDbEntity
8
C-TOPO-MAJR-E
100
AcDbPolyline
90
3
70
0
43
0
38
0
39
0
10
1329708.756608528
20
478432.42954318546
10
1329708.139155697
20
478428.9475947743
10
1329708.8268183717
20
478420.0988591834
0
LWPOLYLINE
5
5A
330
C
100
AcDbEntity
8
C-TOPO-MAJR-E
100
AcDbPolyline
90
55
70
0
43
0
38
0
39
0
10
1329708.8615951932
20
478414.00733594137
10
1329707.0725567928
20
478413.3370616995
10
1329706.8107462795
20
478412.9548445993
10
1329707.2618608759
20
478404.10971794336
10
1329707.2785931139
20
478403.627107364
10
1329707.2657978677
20
478403.4525670247
10
1329707.020063457
20
478402.3367556152
10
1329703.0945463772
20
478390.83251352527
10
1329702.866856529
20
478388.9155226018
10
1329702.4642982872
20
478381.5913902681
10
1329702.2877894419
20
478377.67669993907
10
1329702.350781455
20
478375.7019663492
10
1329702.873746289
20
478364.686568442
10
1329703.7877864486
20
478360.42607826507
10
1329706.278267036
20
478354.046497866
10
1329706.3839098664
20
478353.4900685215
10
1329706.4190147796
20
478348.8581880341
10
1329706.4455895403
20
478348.3417848555
10
1329706.3094349466
20
478336.73714927427
10
1329706.4990671263
20
478336.0694996823
10
1329706.5679646109
20
478335.79719052295
10
1329705.3232164527
20
478325.824113355
10
1329705.2979540336
20
478324.7827768549
10
1329706.574526279
20
478314.0797142881
10
1329707.840271784
20
478312.6141660283
10
1329708.0154682861
20
478312.5843104407
10
1329709.0141539546
20
478311.6883148669
10
1329706.4262326243
20
478301.36451661563
10
1329702.25793387
20
478299.3618959409
10
1329695.5112282038
20
478298.3563205244
10
1329694.2057846177
20
478299.7723281904
10
1329692.9328212836
20
478300.9196356075
10
1329690.2832202897
20
478301.46884710644
10
1329689.7018566218
20
478301.86189093516
10
1329685.533885948
20
478305.71227695764
10
1329683.285858958
20
478306.17684293847
10
1329682.786844207
20
478306.1857011826
10
1329679.7983331238
20
478306.7572223653
10
1329679.0548962704
20
478306.9858964513
10
1329678.8219571244
20
478307.10335028067
10
1329674.5243935406
20
478309.8389091236
10
1329673.5476894479
20
478310.2818215954
10
1329670.945988624
20
478311.1144971078
10
1329669.4387737804
20
478311.388774776
10
1329661.3511915342
20
478311.9396266889
10
1329660.490957028
20
478312.00622760854
10
1329658.9712750292
20
478312.41895643435
10
1329651.2268679573
20
478316.72275361716
10
1329650.2252295322
20
478316.79132303345
10
1329647.748856541
20
478315.47866161
10
1329646.9647373683
20
478315.4668505995
10
1329644.6812773645
20
478315.77426468924
10
1329636.9188257
20
478316.1738701826
10
1329636.5313592814
20
478316.1804318504
10
1329636.5165955434
20
478316.1807599545
0
LWPOLYLINE
5
5B
330
C
100
AcDbEntity
8
C-TOPO-MAJR-E
100
AcDbPolyline
90
13
70
0
43
0
38
0
39
0
10
1329708.950833874
20
478398.36596302444
10
1329708.1683551176
20
478393.2747658532
10
1329707.3809551084
20
478389.492293112
10
1329707.3215720325
20
478389.0411785067
10
1329707.315666544
20
478387.4174941105
10
1329707.4167162015
20
478375.9155486
10
1329707.5249837032
20
478369.8194321992
10
1329707.5873195354
20
478367.2292142704
10
1329708.2192080317
20
478355.92871195107
10
1329708.3924360368
20
478354.50942343904
10
1329708.6549026952
20
478350.3709802687
10
1329709.016778614
20
478349.25812160416
10
1329709.2326574496
20
478348.97662610875
0
LWPOLYLINE
5
5C
330
C
100
AcDbEntity
8
C-TOPO-MAJR-E
100
AcDbPolyline
90
5
70
0
43
0
38
0
39
0
10
1329708.6611362798
20
478449.1657301867
10
1329709.1968963684
20
478445.9058941877
10
1329709.3363317868
20
478443.29369468545
10
1329709.0771459474
20
478442.6273574399
10
1329708.7021467062
20
478441.9560989344
0
LWPOLYLINE
5
5D
330
C
100
AcDbEntity
8
C-TOPO-MAJR-E
100
AcDbPolyline
90
23
70
0
43
0
38
0
39
0
10
1329707.2290525406
20
478466.3901052081
10
1329708.9984059453
20
478463.7129451879
10
1329709.2313451138
20
478462.24280378444
10
1329709.4058854545
20
478457.3550182704
10
1329709.2612007086
20
478451.51743152784
10
1329709.2838384546
20
478451.0331805438
10
1329709.7270790285
20
478447.9787246865
10
1329709.922944784
20
478443.2891015266
10
1329709.5043104622
20
478442.102752195
10
1329708.8314115354
20
478440.7198809291
10
1329709.7884306198
20
478439.05617035483
10
1329710.5945313734
20
478437.1391794527
10
1329709.6591657836
20
478430.842604106
10
1329709.4311478713
20
478429.1067152018
10
1329709.7694017915
20
478423.05948319874
10
1329710.3547024527
20
478413.8911944431
10
1329710.1729442915
20
478413.05884701345
10
1329709.754966129
20
478412.43548870017
10
1329709.0138258594
20
478409.9669896983
10
1329709.0922377848
20
478406.8636494309
10
1329709.2618568626
20
478404.1474475176
10
1329709.1870538748
20
478403.1257960359
10
1329708.932133113
20
478401.62547094066
0
LWPOLYLINE
5
5E
330
C
100
AcDbEntity
8
C-TOPO-MAJR-E
100
AcDbPolyline
90
78
70
0
43
0
38
0
39
0
10
1329748.4671590305
20
478684.7223456892
10
1329745.6453142911
20
478681.1062111966
10
1329741.6262934445
20
478676.99204619747
10
1329738.0380460313
20
478670.81948636007
10
1329736.461605625
20
478667.28635693504
10
1329733.0895651295
20
478660.4402420249
10
1329730.719819197
20
478655.38349360926
10
1329727.5236313583
20
478648.1512246179
10
1329722.9996902868
20
478640.2050462868
10
1329722.855005526
20
478638.8923848603
10
1329723.5515264575
20
478637.213254368
10
1329724.2473912043
20
478634.15190877847
10
1329723.5498860334
20
478626.12600619224
10
1329722.5557935385
20
478623.65225785674
10
1329719.9573735448
20
478618.6516116997
10
1329716.696225211
20
478610.1545814313
10
1329715.9741137864
20
478607.5338517586
10
1329714.598460369
20
478603.0010524406
10
1329710.9311448631
20
478591.432177943
10
1329710.1407921144
20
478578.85182252066
10
1329710.2283903637
20
478571.11561751453
10
1329709.5105440326
20
478568.2468568628
10
1329705.9682282796
20
478559.7593410224
10
1329704.7169184503
20
478552.97818660585
10
1329704.798939289
20
478549.5697288679
10
1329705.755630284
20
478543.91127560526
10
1329707.1407981159
20
478537.5271020259
10
1329707.1955880348
20
478526.8670183487
10
1329706.743161125
20
478524.31288959866
10
1329706.8258381174
20
478520.3890129366
10
1329707.1509687002
20
478518.6321266828
10
1329709.0443376158
20
478513.2348277773
10
1329714.1401279557
20
478503.9690982814
10
1329715.7972768696
20
478498.76996169344
10
1329715.7575787904
20
478494.26800219313
10
1329715.2067268637
20
478489.42746069963
10
1329714.9960973652
20
478485.82379337086
10
1329715.1516088664
20
478484.6302261876
10
1329717.0531798752
20
478477.2499915984
10
1329719.2326374417
20
478471.90026478405
10
1329721.6512677786
20
478466.73951394815
10
1329722.3907676153
20
478460.1378211003
10
1329722.1227235324
20
478458.62141995213
10
1329721.9993641952
20
478452.9947907707
10
1329722.7034310396
20
478447.760549286
10
1329723.4918152816
20
478442.424930031
10
1329723.6420774583
20
478438.3806467793
10
1329723.6342034456
20
478430.9433256924
10
1329724.241485703
20
478421.1611930179
10
1329722.8038245458
20
478414.7488042679
10
1329718.233623695
20
478408.5345778569
10
1329718.0462881182
20
478408.0214555213
10
1329717.9642672786
20
478406.5516421915
10
1329717.6903177046
20
478405.0831411958
10
1329717.5912365299
20
478404.4361608616
10
1329718.3625604496
20
478400.477507355
10
1329721.6791548708
20
478391.6140080116
10
1329722.638470522
20
478385.47064761765
10
1329723.4147157012
20
478377.4608211027
10
1329724.0026410313
20
478374.32959377195
10
1329725.5023099459
20
478371.05532211857
10
1329730.6561710357
20
478362.7531733613
10
1329732.8530170268
20
478357.3306120332
10
1329733.4055093678
20
478355.34505169035
10
1329735.7122632829
20
478350.5461767705
10
1329739.3303662832
20
478346.46744477237
10
1329744.6627047057
20
478339.76601459866
10
1329744.8969561982
20
478339.6239545336
10
1329749.8103322063
20
478338.5439041864
10
1329755.8775772892
20
478337.5570295248
10
1329759.8227793707
20
478335.660707859
10
1329763.6400289508
20
478334.2699626065
10
1329764.6016412065
20
478334.053099531
10
1329771.4008402035
20
478332.61806301825
10
1329773.9215044482
20
478332.21419243957
10
1329776.7820630362
20
478331.319181105
10
1329777.0068001107
20
478331.2197718619
10
1329780.3358616943
20
478329.8382129577
0
LWPOLYLINE
5
5F
330
C
100
AcDbEntity
8
C-TOPO-MAJR-E
100
AcDbPolyline
90
33
70
0
43
0
38
0
39
0
10
1329716.1247040275
20
478340.8211306152
10
1329716.2434702031
20
478340.6219840371
10
1329717.1273266913
20
478339.36640911136
10
1329717.587299539
20
478338.94186927815
10
1329722.6640610364
20
478337.1948255259
10
1329723.464912459
20
478336.9339992821
10
1329736.2785351258
20
478334.13708885614
10
1329737.3723649494
20
478333.93695802055
10
1329744.0984013665
20
478328.45435744664
10
1329745.3172309545
20
478290.3924256959
10
1329746.402858704
20
478283.5814157009
10
1329749.867090626
20
478284.048934442
10
1329750.4327062778
20
478283.8278062751
10
1329755.2168174568
20
478284.06501053163
10
1329773.164616199
20
478290.45213685895
10
1329775.244008374
20
478290.20476202416
10
1329787.790899288
20
478281.48725976975
10
1329791.4178605422
20
478278.6713205214
10
1329793.7505330418
20
478276.69494652684
10
1329805.3630426223
20
478267.58079152094
10
1329812.2849447874
20
478263.99057560734
10
1329812.9076469503
20
478263.64379151724
10
1329815.1546896938
20
478262.76813710004
10
1329817.8879519517
20
478261.09819294687
10
1329842.1241239642
20
478220.13108327385
10
1329842.494858115
20
478219.5329873527
10
1329842.8669046154
20
478219.23672811093
10
1329858.5584742909
20
478214.59008386196
10
1329859.2845226969
20
478214.34336518665
10
1329860.6211342071
20
478213.7022903576
10
1329864.5965199445
20
478211.1573479528
10
1329865.0715846228
20
478210.1130586862
10
1329863.0174548682
20
478206.9755977796
0
LWPOLYLINE
5
60
330
C
100
AcDbEntity
8
C-TOPO-MAJR-E
100
AcDbPolyline
90
23
70
0
43
0
38
0
39
0
10
1329780.3358616943
20
478329.8382129577
10
1329780.9641412948
20
478329.57738668943
10
1329797.737729788
20
478318.6056238525
10
1329804.5936872042
20
478313.2414613746
10
1329809.0903973766
20
478309.67617977643
10
1329812.59137462
20
478307.6916036911
10
1329827.510964201
20
478302.32251994405
10
1329828.8183762878
20
478301.5961434344
10
1329833.5335899508
20
478299.755924021
10
1329839.8029343649
20
478297.12535187113
10
1329848.8399897753
20
478284.50497027364
10
1329851.2448406261
20
478280.3330626143
10
1329853.6982477903
20
478278.4682369408
10
1329859.8140491988
20
478276.0200790955
10
1329866.5719097098
20
478272.7848493566
10
1329879.0456380364
20
478266.7986408599
10
1329916.1617055372
20
478243.0578746927
10
1329927.8588606229
20
478236.34397736436
10
1329928.5317595247
20
478235.540501274
10
1329928.2489517003
20
478233.016884274
10
1329928.3949487777
20
478231.4023861833
10
1329934.6859467002
20
478224.53100886283
10
1329935.6400130359
20
478223.5064046117
0
LWPOLYLINE
5
61
330
C
100
AcDbEntity
8
C-TOPO-MAJR-E
100
AcDbPolyline
90
26
70
0
43
0
38
0
39
0
10
1329692.9065746216
20
478531.3364976053
10
1329692.2238331952
20
478528.25448277034
10
1329694.1040787783
20
478524.0343468574
10
1329694.5158233594
20
478522.6419611941
10
1329693.7408905332
20
478514.86605811096
10
1329691.0565126974
20
478512.402480366
10
1329691.0217358703
20
478512.22826810024
10
1329691.0230482048
20
478512.05766477564
10
1329691.9823638625
20
478506.5740799442
10
1329694.700862379
20
478497.6748195294
10
1329694.9666098652
20
478496.7666848593
10
1329694.985638705
20
478496.6669475243
10
1329696.7205433669
20
478487.67319910496
10
1329698.1260523673
20
478479.3959846907
10
1329698.2923906185
20
478478.6259730954
10
1329698.500067367
20
478478.4055011002
10
1329702.3025532048
20
478472.0679153607
10
1329701.193959627
20
478465.5393851033
10
1329701.2454686968
20
478465.4560519406
10
1329705.4639642027
20
478463.70277461264
10
1329705.8225592815
20
478463.42423185
10
1329706.324854856
20
478461.7145895984
10
1329707.7926997077
20
478454.2559431188
10
1329707.8209148645
20
478452.17130161874
10
1329707.8740643708
20
478451.1188102828
10
1329708.67688429
20
478446.50202160917
0
LWPOLYLINE
5
62
330
C
100
AcDbEntity
8
C-TOPO-MAJR-E
100
AcDbPolyline
90
5
70
0
43
0
38
0
39
0
10
1329708.8035244492
20
478424.26682985853
10
1329709.3058200325
20
478417.3590352918
10
1329709.5548352858
20
478414.1684248502
10
1329709.4377095406
20
478413.9049739411
10
1329708.8642198746
20
478413.5995283633
0
LWPOLYLINE
5
63
330
C
100
AcDbEntity
8
C-TOPO-MAJR-E
100
AcDbPolyline
90
26
70
0
43
0
38
0
39
0
10
1329710.3481407873
20
478341.80898952205
10
1329710.6480089591
20
478340.3267090376
10
1329711.373401209
20
478338.3467261202
10
1329711.6486631143
20
478337.51437869057
10
1329712.1657224547
20
478333.14299635816
10
1329713.2779249493
20
478330.4861775281
10
1329715.8084316992
20
478326.57443994406
10
1329722.062356203
20
478323.3779240155
10
1329722.693588534
20
478323.2604701953
10
1329726.3661533683
20
478319.9802930306
10
1329716.869781287
20
478282.122101023
10
1329701.6978956116
20
478278.8662020173
10
1329697.90131528
20
478280.47938777687
10
1329691.4105146206
20
478289.7392117767
10
1329689.2448365425
20
478298.0804024484
10
1329688.645428279
20
478299.2729853742
10
1329687.0430692842
20
478302.06005326496
10
1329685.243204113
20
478304.11057410436
10
1329683.9804113645
20
478304.4740904374
10
1329682.475165038
20
478304.6309142824
10
1329680.8075174536
20
478305.0630000103
10
1329678.5348841958
20
478305.8608986904
10
1329677.833770116
20
478306.1971841133
10
1329675.5923047801
20
478307.29823177046
10
1329673.5191462003
20
478307.96686560765
10
1329673.265537782
20
478308.0479021847
0
LWPOLYLINE
5
64
330
C
100
AcDbEntity
8
C-TOPO-MAJR-E
100
AcDbPolyline
90
14
70
0
43
0
38
0
39
0
10
1329713.9777266954
20
478341.1882558526
10
1329714.62142621
20
478339.86411152285
10
1329715.1749027837
20
478338.70663352136
10
1329715.963943197
20
478337.2056522789
10
1329719.2605245407
20
478334.7624156844
10
1329721.0449697853
20
478333.65972761344
10
1329731.5419960308
20
478330.55245035584
10
1329732.4809705322
20
478330.3792223568
10
1329737.9343717047
20
478325.5088252665
10
1329723.831709623
20
478269.29469885776
10
1329701.345206035
20
478265.96104411496
10
1329699.7015085355
20
478267.0151758587
10
1329689.5460170268
20
478283.04696793295
10
1329688.2612427
20
478290.6027271098
0
LWPOLYLINE
5
65
330
C
100
AcDbEntity
8
C-TOPO-MAJR-E
100
AcDbPolyline
90
4
70
0
43
0
38
0
39
0
10
1329777.8529270445
20
478244.4013759429
10
1329778.2413777066
20
478244.09888309485
10
1329778.4900648745
20
478243.88464469684
10
1329781.2784451323
20
478240.9620783538
0
LWPOLYLINE
5
66
330
C
100
AcDbEntity
8
C-SITE-N
100
AcDbPolyline
90
7
70
1
43
0
38
0
39
0
10
1329953.5998484346
20
478466.3322048303
10
1329953.596341947
20
478590.48565752094
10
1329923.65151995
20
478598.12278136064
10
1329823.811496531
20
478616.0581129371
10
1329669.7534109235
20
478640.7586150489
10
1329651.4591964334
20
478517.2846759729
10
1329953.5998484346
20
478466.3322048303
0
LWPOLYLINE
5
67
330
C
100
AcDbEntity
8
C-BLDG-FTPR-N
100
AcDbPolyline
90
5
70
1
43
0
38
0
39
0
10
1329952.597673928
20
478543.3244925623
10
1329952.5969305378
20
478569.6455405809
10
1329907.0060407603
20
478569.64425294945
10
1329907.0067841504
20
478543.3232049308
10
1329952.597673928
20
478543.3244925623
0
LWPOLYLINE
5
68
330
C
100
AcDbEntity
8
C-PVMT
100
AcDbPolyline
90
5
70
1
43
0
38
0
39
0
10
1329953.5974716914
20
478550.48504481715
10
1329953.5971327734
20
478562.4850448124
10
1329945.5971327766
20
478562.484818867
10
1329945.5974716947
20
478550.4848188718
10
1329953.5974716914
20
478550.48504481715
0
LWPOLYLINE
5
69
330
C
100
AcDbEntity
8
C-PVMT
100
AcDbPolyline
90
5
70
1
43
0
38
0
39
0
10
1329952.0972739898
20
478557.4850024496
10
1329957.097273988
20
478557.48514366546
10
1329957.096997205
20
478567.28514366155
10
1329952.0969972068
20
478567.2850024457
10
1329952.0972739898
20
478557.4850024496
0
LWPOLYLINE
5
6A
330
C
100
AcDbEntity
8
C-PVMT
100
AcDbPolyline
90
5
70
1
43
0
38
0
39
0
10
1329956.5974152042
20
478552.48512954585
10
1329956.5971892588
20
478560.4851295427
10
1329952.5971892604
20
478560.48501657
10
1329952.5974152058
20
478552.48501657316
10
1329956.5974152042
20
478552.48512954585
0
LWPOLYLINE
5
6B
330
C
100
AcDbEntity
8
C-PVMT
100
AcDbPolyline
90
5
70
1
43
0
38
0
39
0
10
1329953.6074967738
20
478195.5290983591
10
1329953.596341947
20
478590.48565752094
10
1329950.5963419483
20
478590.4855727914
10
1329950.607496775
20
478195.5290136296
10
1329953.6074967738
20
478195.5290983591
0
LWPOLYLINE
5
6C
330
C
100
AcDbEntity
8
C-TOPO-SURF
100
AcDbPolyline
90
5
70
1
43
0
38
0
39
0
10
1329957.6074967722
20
478195.5292113318
10
1329957.5963419455
20
478590.48577049363
10
1329953.596341947
20
478590.48565752094
10
1329953.6074967738
20
478195.5290983591
10
1329957.6074967722
20
478195.5292113318
0
LWPOLYLINE
5
6D
330
C
100
AcDbEntity
8
C-PVMT
100
AcDbPolyline
90
5
70
1
43
0
38
0
39
0
10
1329959.1074967717
20
478195.52925369656
10
1329959.096341945
20
478590.4858128584
10
1329957.5963419455
20
478590.48577049363
10
1329957.6074967722
20
478195.5292113318
10
1329959.1074967717
20
478195.52925369656
0
LWPOLYLINE
5
6E
330
C
100
AcDbEntity
8
C-PVMT
100
AcDbPolyline
90
5
70
1
43
0
38
0
39
0
10
1329959.0970480416
20
478565.4852001486
10
1329959.097556419
20
478547.4852001558
10
1329950.5974716926
20
478550.48496008763
10
1329950.5971327745
20
478562.48496008286
10
1329959.0970480416
20
478565.4852001486
0
LWPOLYLINE
5
6F
330
C
100
AcDbEntity
8
C-LODS
100
AcDbPolyline
90
9
70
1
43
0
38
0
39
0
10
1329907.0060407603
20
478569.64425294945
10
1329907.0067841504
20
478543.3232049308
10
1329950.607496775
20
478195.5290136296
10
1329959.1074967717
20
478195.52925369656
10
1329959.097556419
20
478547.4852001558
10
1329959.096341945
20
478590.4858128584
10
1329957.5963419455
20
478590.48577049363
10
1329950.5963419483
20
478590.4855727914
10
1329907.0060407603
20
478569.64425294945
0
POINT
5
70
330
C
100
AcDbEntity
8
C-TOPO-SPOT
100
AcDbPoint
10
1329688.8030020243
20
478456.1261587146
30
0
0
LWPOLYLINE
5
71
330
C
100
AcDbEntity
8
C-UTIL
100
AcDbPolyline
90
2
70
0
43
0
38
0
39
0
10
1329963.9457966436
20
478543.3248130692
10
1329910.0067841492
20
478543.32328966033
0
LWPOLYLINE
5
72
330
C
100
AcDbEntity
8
C-UTIL
100
AcDbPolyline
90
2
70
0
43
0
38
0
39
0
10
1329963.9457966436
20
478543.32481306925
10
1329920.0067841453
20
478543.3235720921
0
LWPOLYLINE
5
73
330
C
100
AcDbEntity
8
C-SWMG
100
AcDbPolyline
90
5
70
1
43
0
38
0
39
0
10
1329904.0296778767
20
478211.6264738502
10
1329936.9841919835
20
478211.6264738502
10
1329936.9841919835
20
478244.58098795684
10
1329904.0296778767
20
478244.58098795684
10
1329904.0296778767
20
478211.6264738502
0
LWPOLYLINE
5
74
330
C
100
AcDbEntity
8
C-STRM-AREA
100
AcDbPolyline
90
14
70
1
43
0
38
0
39
0
10
1329601.9612184612
20
478407.54081343865
10
1329618.7302137893
20
478522.80403436656
10
1329458.980533279
20
478549.7439411031
10
1329478.4214392893
20
478665.80506069586
10
1329479.3404007081
20
478671.28798935865
10
1329823.811496531
20
478616.0581129371
10
1329923.65151995
20
478598.12278136064
10
1329953.596341947
20
478590.48565752094
10
1329953.6074967738
20
478195.5290983591
10
1329916.1748288702
20
478204.4490280194
10
1329612.8624433768
20
478256.7819286155
10
1329623.1084858791
20
478325.9359897742
10
1329597.0343910267
20
478373.6809730146
10
1329601.9612184612
20
478407.54081343865
0
LWPOLYLINE
5
75
330
C
100
AcDbEntity
8
C-SITE-N
100
AcDbPolyline
90
5
70
1
43
0
38
0
39
0
10
1329907.0060407603
20
478553.64425294945
10
1329937.0060407603
20
478553.64425294945
10
1329937.0060407603
20
478569.64425294945
10
1329907.0060407603
20
478569.64425294945
10
1329907.0060407603
20
478553.64425294945
0
LWPOLYLINE
5
76
330
C
100
AcDbEntity
8
L-PLNT-TREE
100
AcDbPolyline
90
5
70
1
43
0
38
0
39
0
10
1329953.6065672028
20
478223.4422861718
10
1329963.6065672028
20
478223.4422861718
10
1329963.6065672028
20
478233.4422861718
10
1329953.6065672028
20
478233.4422861718
10
1329953.6065672028
20
478223.4422861718
0
LWPOLYLINE
5
77
330
C
100
AcDbEntity
8
L-PLNT-TREE
100
AcDbPolyline
90
5
70
1
43
0
38
0
39
0
10
1329953.605637634
20
478256.3553327686
10
1329963.605637634
20
478256.3553327686
10
1329963.605637634
20
478266.3553327686
10
1329953.605637634
20
478266.3553327686
10
1329953.605637634
20
478256.3553327686
0
LWPOLYLINE
5
78
330
C
100
AcDbEntity
8
L-PLNT-TREE
100
AcDbPolyline
90
5
70
1
43
0
38
0
39
0
10
1329953.604708065
20
478289.2683793654
10
1329963.604708065
20
478289.2683793654
10
1329963.604708065
20
478299.2683793654
10
1329953.604708065
20
478299.2683793654
10
1329953.604708065
20
478289.2683793654
0
LWPOLYLINE
5
79
330
C
100
AcDbEntity
8
L-PLNT-TREE
100
AcDbPolyline
90
5
70
1
43
0
38
0
39
0
10
1329953.6037784962
20
478322.18142596225
10
1329963.6037784962
20
478322.18142596225
10
1329963.6037784962
20
478332.18142596225
10
1329953.6037784962
20
478332.18142596225
10
1329953.6037784962
20
478322.18142596225
0
LWPOLYLINE
5
7A
330
C
100
AcDbEntity
8
L-PLNT-TREE
100
AcDbPolyline
90
5
70
1
43
0
38
0
39
0
10
1329953.6028489273
20
478355.09447255905
10
1329963.6028489273
20
478355.09447255905
10
1329963.6028489273
20
478365.09447255905
10
1329953.6028489273
20
478365.09447255905
10
1329953.6028489273
20
478355.09447255905
0
LWPOLYLINE
5
7B
330
C
100
AcDbEntity
8
L-PLNT-TREE
100
AcDbPolyline
90
5
70
1
43
0
38
0
39
0
10
1329953.6019193584
20
478388.00751915586
10
1329963.6019193584
20
478388.00751915586
10
1329963.6019193584
20
478398.00751915586
10
1329953.6019193584
20
478398.00751915586
10
1329953.6019193584
20
478388.00751915586
0
LWPOLYLINE
5
7C
330
C
100
AcDbEntity
8
L-PLNT-TREE
100
AcDbPolyline
90
5
70
1
43
0
38
0
39
0
10
1329953.6009897895
20
478420.92056575266
10
1329963.6009897895
20
478420.92056575266
10
1329963.6009897895
20
478430.92056575266
10
1329953.6009897895
20
478430.92056575266
10
1329953.6009897895
20
478420.92056575266
0
LWPOLYLINE
5
7D
330
C
100
AcDbEntity
8
L-PLNT-TREE
100
AcDbPolyline
90
5
70
1
43
0
38
0
39
0
10
1329953.6000602206
20
478453.8336123495
10
1329963.6000602206
20
478453.8336123495
10
1329963.6000602206
20
478463.8336123495
10
1329953.6000602206
20
478463.8336123495
10
1329953.6000602206
20
478453.8336123495
0
LWPOLYLINE
5
7E
330
C
100
AcDbEntity
8
L-PLNT-TREE
100
AcDbPolyline
90
5
70
1
43
0
38
0
39
0
10
1329953.5991306517
20
478486.74665894633
10
1329963.5991306517
20
478486.74665894633
10
1329963.5991306517
20
478496.74665894633
10
1329953.5991306517
20
478496.74665894633
10
1329953.5991306517
20
478486.74665894633
0
LWPOLYLINE
5
7F
330
C
100
AcDbEntity
8
L-PLNT-TREE
100
AcDbPolyline
90
5
70
1
43
0
38
0
39
0
10
1329953.5982010828
20
478519.65970554313
10
1329963.5982010828
20
478519.65970554313
10
1329963.5982010828
20
478529.65970554313
10
1329953.5982010828
20
478529.65970554313
10
1329953.5982010828
20
478519.65970554313
0
LWPOLYLINE
5
80
330
C
100
AcDbEntity
8
L-PLNT-TREE
100
AcDbPolyline
90
5
70
1
43
0
38
0
39
0
10
1329953.597271514
20
478552.57275213994
10
1329963.597271514
20
478552.57275213994
10
1329963.597271514
20
478562.57275213994
10
1329953.597271514
20
478562.57275213994
10
1329953.597271514
20
478552.57275213994
0
LWPOLYLINE
5
81
330
C
100
AcDbEntity
8
L-PLNT-TREE
100
AcDbPolyline
90
5
70
1
43
0
38
0
39
0
10
1329886.7918012792
20
478571.8523967171
10
1329898.7918012792
20
478571.8523967171
10
1329898.7918012792
20
478583.8523967171
10
1329886.7918012792
20
478583.8523967171
10
1329886.7918012792
20
478571.8523967171
0
LWPOLYLINE
5
82
330
C
100
AcDbEntity
8
L-PLNT-TREE
100
AcDbPolyline
90
5
70
1
43
0
38
0
39
0
10
1329880.3610206607
20
478547.8523967171
10
1329892.3610206607
20
478547.8523967171
10
1329892.3610206607
20
478559.8523967171
10
1329880.3610206607
20
478559.8523967171
10
1329880.3610206607
20
478547.8523967171
0
ENDSEC
0
SECTION
2
OBJECTS
0
DICTIONARY
5
A
330
0
100
AcDbDictionary
281
1
3
ACAD_GROUP
350
B
0
DICTIONARY
5
B
330
A
100
AcDbDictionary
281
0
0
ENDSEC
0
EOF