0
SECTION
2
HEADER
9
$ACADVER
1
AC1021
9
$LASTSAVEDBY
1
@tarikjabiri/dxf
9
$HANDSEED
5
54
9
$INSUNITS
70
0
9
$CLAYER
8
0
9
$VIEWCTR
10
1291489.2096309331
20
424133.86797132564
0
ENDSEC
0
SECTION
2
CLASSES
0
ENDSEC
0
SECTION
2
TABLES
0
TABLE
2
VPORT
5
1
330
0
100
AcDbSymbolTable
70
1
0
VPORT
5
19
330
1
100
AcDbSymbolTableRecord
100
AcDbViewportTableRecord
2
*Active
70
0
10
0
20
0
11
1
21
1
12
1291489.2096309331
22
424133.86797132564
13
0
23
0
14
10
24
10
15
10
25
10
16
0
26
0
36
1
17
0
27
0
37
0
40
298.41768389975186
41
2
42
50
43
0
44
0
50
0
51
0
71
0
72
100
73
1
74
3
75
0
76
1
77
0
78
0
281
0
65
1
110
0
120
0
130
0
111
1
121
0
131
0
112
0
122
1
132
0
79
0
146
0
348
10020
60
7
61
5
292
1
282
1
141
0
142
0
63
250
421
3358443
0
ENDTAB
0
TABLE
2
LTYPE
5
2
330
0
100
AcDbSymbolTable
70
7
0
LTYPE
5
12
330
2
100
AcDbSymbolTableRecord
100
AcDbLinetypeTableRecord
2
ByBlock
70
0
3

72
65
73
0
40
0
0
LTYPE
5
13
330
2
100
AcDbSymbolTableRecord
100
AcDbLinetypeTableRecord
2
ByLayer
70
0
3

72
65
73
0
40
0
0
LTYPE
5
14
330
2
100
AcDbSymbolTableRecord
100
AcDbLinetypeTableRecord
2
Continuous
70
0
3
Solid line
72
65
73
0
40
0
0
LTYPE
5
1A
330
2
100
AcDbSymbolTableRecord
100
AcDbLinetypeTableRecord
2
DASHED
70
0
3
Dashed __ __ __ __ __ __
72
65
73
2
40
6
49
4
74
0
49
-2
74
0
0
LTYPE
5
1B
330
2
100
AcDbSymbolTableRecord
100
AcDbLinetypeTableRecord
2
HIDDEN
70
0
3
Hidden __ __ __ __ __
72
65
73
2
40
3
49
2
74
0
49
-1
74
0
0
LTYPE
5
1C
330
2
100
AcDbSymbolTableRecord
100
AcDbLinetypeTableRecord
2
PHANTOM
70
0
3
Phantom ____ _ _ ____ _ _
72
65
73
6
40
13
49
8
74
0
49
-1
74
0
49
1
74
0
49
-1
74
0
49
1
74
0
49
-1
74
0
0
LTYPE
5
1D
330
2
100
AcDbSymbolTableRecord
100
AcDbLinetypeTableRecord
2
DASHDOT
70
0
3
Dash dot __ . __ . __ .
72
65
73
4
40
8
49
4
74
0
49
-2
74
0
49
0
74
0
49
-2
74
0
0
ENDTAB
0
TABLE
2
LAYER
5
3
330
0
100
AcDbSymbolTable
70
14
0
LAYER
5
15
330
3
100
AcDbSymbolTableRecord
100
AcDbLayerTableRecord
2
0
70
0
62
7
6
Continuous
370
0
390
0
0
LAYER
5
1E
330
3
100
AcDbSymbolTableRecord
100
AcDbLayerTableRecord
2
C-BLDG-FTPR-N
70
0
62
6
6
Continuous
370
0
390
0
0
LAYER
5
1F
330
3
100
AcDbSymbolTableRecord
100
AcDbLayerTableRecord
2
C-LODS
70
0
62
30
6
PHANTOM
370
0
390
0
0
LAYER
5
20
330
3
100
AcDbSymbolTableRecord
100
AcDbLayerTableRecord
2
C-PVMT
70
0
62
8
6
Continuous
370
0
390
0
0
LAYER
5
21
330
3
100
AcDbSymbolTableRecord
100
AcDbLayerTableRecord
2
C-SITE-N
70
0
62
6
6
Continuous
370
0
390
0
0
LAYER
5
22
330
3
100
AcDbSymbolTableRecord
100
AcDbLayerTableRecord
2
C-STRM-AREA
70
0
62
150
6
PHANTOM
370
0
390
0
0
LAYER
5
23
330
3
100
AcDbSymbolTableRecord
100
AcDbLayerTableRecord
2
C-SWMG
70
0
62
92
6
Continuous
370
0
390
0
0
LAYER
5
24
330
3
100
AcDbSymbolTableRecord
100
AcDbLayerTableRecord
2
C-TOPO-MAJR-E
70
0
62
32
6
DASHED
370
0
390
0
0
LAYER
5
25
330
3
100
AcDbSymbolTableRecord
100
AcDbLayerTableRecord
2
C-TOPO-SPOT
70
0
62
7
6
Continuous
370
0
390
0
0
LAYER
5
26
330
3
100
AcDbSymbolTableRecord
100
AcDbLayerTableRecord
2
C-TOPO-SURF
70
0
62
253
6
Continuous
370
0
390
0
0
LAYER
5
27
330
3
100
AcDbSymbolTableRecord
100
AcDbLayerTableRecord
2
C-UTIL
70
0
62
4
6
DASHED
370
0
390
0
0
LAYER
5
28
330
3
100
AcDbSymbolTableRecord
100
AcDbLayerTableRecord
2
L-PLNT-TREE
70
0
62
90
6
Continuous
370
0
390
0
0
LAYER
5
29
330
3
100
AcDbSymbolTableRecord
100
AcDbLayerTableRecord
2
V-PROP-BNDY
70
0
62
7
6
Continuous
370
0
390
0
0
LAYER
5
2A
330
3
100
AcDbSymbolTableRecord
100
AcDbLayerTableRecord
2
C-ANNO-NPLT
70
0
62
250
6
Continuous
370
0
390
0
0
ENDTAB
0
TABLE
2
STYLE
5
4
330
0
100
AcDbSymbolTable
70
1
0
STYLE
5
16
330
4
100
AcDbSymbolTableRecord
100
AcDbTextStyleTableRecord
2
Standard
70
0
40
0
41
1
50
0
71
0
42
1
3
txt
4

0
ENDTAB
0
TABLE
2
VIEW
5
5
330
0
100
AcDbSymbolTable
70
0
0
ENDTAB
0
TABLE
2
UCS
5
6
330
0
100
AcDbSymbolTable
70
0
0
ENDTAB
0
TABLE
2
APPID
5
7
330
0
100
AcDbSymbolTable
70
1
0
APPID
5
17
330
7
100
AcDbSymbolTableRecord
100
AcDbRegAppTableRecord
2
ACAD
70
0
0
ENDTAB
0
TABLE
2
DIMSTYLE
5
8
330
0
100
AcDbSymbolTable
70
1
100
AcDbDimStyleTable
0
DIMSTYLE
105
18
330
8
100
AcDbSymbolTableRecord
100
AcDbDimStyleTableRecord
2
Standard
70
0
340
16
0
ENDTAB
0
TABLE
2
BLOCK_RECORD
5
9
330
0
100
AcDbSymbolTable
70
2
0
BLOCK_RECORD
5
C
330
9
100
AcDbSymbolTableRecord
100
AcDbBlockTableRecord
2
*Model_Space
70
0
280
1
281
0
0
BLOCK_RECORD
5
F
330
9
100
AcDbSymbolTableRecord
100
AcDbBlockTableRecord
2
*Paper_Space
70
0
280
1
281
0
0
ENDTAB
0
ENDSEC
0
SECTION
2
BLOCKS
0
BLOCK
5
D
330
C
100
AcDbEntity
8
0
100
AcDbBlockBegin
2
*Model_Space
70
0
10
0
20
0
30
0
3
*Model_Space
1

0
ENDBLK
5
E
100
AcDbEntity
8
0
100
AcDbBlockEnd
0
BLOCK
5
10
330
F
100
AcDbEntity
8
0
100
AcDbBlockBegin
2
*Paper_Space
70
0
10
0
20
0
30
0
3
*Paper_Space
1

0
ENDBLK
5
11
100
AcDbEntity
8
0
100
AcDbBlockEnd
0
ENDSEC
0
SECTION
2
ENTITIES
0
TEXT
5
2B
330
C
100
AcDbEntity
8
C-ANNO-NPLT
100
AcDbText
10
1291432.0026525347
20
424104.65912937577
30
0
40
2.5
1
PRELIMINARY - NOT SEALED - NOT FOR CONSTRUCTION OR PERMIT SUBMISSION
7
STANDARD
100
AcDbText
0
TEXT
5
2C
330
C
100
AcDbEntity
8
C-ANNO-NPLT
100
AcDbText
10
1291432.0026525347
20
424100.65912937577
30
0
40
2.5
1
GENERATED 2026-09-26T02:46:05.673Z BY KEALEE SITE PLAN ENGINE
7
STANDARD
100
AcDbText
0
TEXT
5
2D
330
C
100
AcDbEntity
8
C-ANNO-NPLT
100
AcDbText
10
1291432.0026525347
20
424096.65912937577
30
0
40
2.5
1
HORIZONTAL: EPSG:2248
7
STANDARD
100
AcDbText
0
TEXT
5
2E
330
C
100
AcDbEntity
8
C-ANNO-NPLT
100
AcDbText
10
1291432.0026525347
20
424092.65912937577
30
0
40
2.5
1
VERTICAL: NAVD88 (feet)
7
STANDARD
100
AcDbText
0
TEXT
5
2F
330
C
100
AcDbEntity
8
C-ANNO-NPLT
100
AcDbText
10
1291432.0026525347
20
424088.65912937577
30
0
40
2.5
1
SOURCES: Parcel boundary — jurisdiction gis (City of Alexandria — parcels, level 1); Existing contours (U.S. Geological Survey — 3D Elevation Program — 3DEP bare-earth DEM — VA_NorthernVA_B22, level 1)
7
STANDARD
100
AcDbText
0
TEXT
5
30
330
C
100
AcDbEntity
8
C-ANNO-NPLT
100
AcDbText
10
1291432.0026525347
20
424084.65912937577
30
0
40
2.5
1
THIS FILE IS DATA FOR A LICENSED PROFESSIONAL. IT IS NOT A SEALED DRAWING.
7
STANDARD
100
AcDbText
0
LWPOLYLINE
5
31
330
C
100
AcDbEntity
8
V-PROP-BNDY
100
AcDbPolyline
90
12
70
1
43
0
38
0
39
0
10
1291620.4256410508
20
424181.1611340698
10
1291574.8934164678
20
424150.6545842683
10
1291505.5975889692
20
424145.25145867455
10
1291476.2003278367
20
424167.25519359997
10
1291465.053877979
20
424175.5740104741
10
1291461.076767875
20
424178.54221056955
10
1291452.6123468396
20
424184.8717560108
10
1291560.9115510825
20
424221.1082417163
10
1291588.3270847693
20
424233.67882316
10
1291613.0387549233
20
424193.2469883398
10
1291618.436313131
20
424184.41622435424
10
1291620.4256410508
20
424181.1611340698
0
LWPOLYLINE
5
32
330
C
100
AcDbEntity
8
C-TOPO-MAJR-E
100
AcDbPolyline
90
77
70
0
43
0
38
0
39
0
10
1291640.5513535195
20
424146.36522939824
10
1291640.3145579943
20
424147.1137156059
10
1291640.0828212132
20
424147.8622018135
10
1291639.856143176
20
424148.6106880212
10
1291639.634523883
20
424149.35917422886
10
1291639.4470073099
20
424149.9814926494
10
1291639.293593457
20
424150.4776432828
10
1291639.1742823245
20
424150.84762612905
10
1291639.0890739127
20
424151.0914411882
10
1291638.9807538001
20
424151.40047026967
10
1291638.8493219872
20
424151.7747133735
10
1291638.694778474
20
424152.2141704997
10
1291638.5171232605
20
424152.71884164825
10
1291638.309616334
20
424153.28446656157
10
1291638.0722576948
20
424153.91104523966
10
1291637.8050473423
20
424154.59857768257
10
1291637.5079852773
20
424155.34706389025
10
1291637.216746496
20
424156.08190663235
10
1291636.9313309991
20
424156.80310590885
10
1291636.6517387861
20
424157.5106617198
10
1291636.3779698573
20
424158.2045740651
10
1291636.1669641808
20
424158.7386517897
10
1291636.0187217572
20
424159.1128948935
10
1291635.9332425862
20
424159.32730337663
10
1291635.9105266677
20
424159.381877239
10
1291635.812666024
20
424159.60992918763
10
1291635.6396606546
20
424160.01145922265
10
1291635.3915105597
20
424160.58646734396
10
1291635.0682157394
20
424161.3349535516
10
1291634.7585923695
20
424162.0834397592
10
1291634.4626404499
20
424162.831925967
10
1291634.1803599803
20
424163.58041217463
10
1291633.9117509609
20
424164.32889838226
10
1291633.676827584
20
424164.99177907594
10
1291633.4755898495
20
424165.56905425555
10
1291633.3080377574
20
424166.0607239212
10
1291633.1741713076
20
424166.4667880729
10
1291633.0448887425
20
424166.8569417007
10
1291632.9201900621
20
424167.2311848045
10
1291632.8000752665
20
424167.5895173844
10
1291632.684544356
20
424167.93193944043
10
1291632.5545054595
20
424168.3758775344
10
1291632.4099585775
20
424168.9213316662
10
1291632.2509037098
20
424169.56830183597
10
1291632.0773408562
20
424170.3167880437
10
1291631.9359150424
20
424171.0652742514
10
1291631.8266262682
20
424171.813760459
10
1291631.7494745334
20
424172.5622466667
10
1291631.7044598376
20
424173.3107328744
10
1291631.7072219579
20
424174.05921908206
10
1291631.7577608936
20
424174.8077052897
10
1291631.8560766447
20
424175.55619149737
10
1291632.002169211
20
424176.30467770505
10
1291632.1587426092
20
424177.00254560326
10
1291632.325796839
20
424177.64979519206
10
1291632.5033319006
20
424178.2464264714
10
1291632.6913477934
20
424178.7924394414
10
1291632.8512725479
20
424179.2525674783
10
1291632.9831061636
20
424179.62681058206
10
1291633.0868486406
20
424179.91516875284
10
1291633.162499979
20
424180.1176419906
10
1291633.3141479613
20
424180.4566184708
10
1291633.5417925876
20
424180.93209819344
10
1291633.8454338582
20
424181.54408115864
10
1291634.225071773
20
424182.2925673663
10
1291634.5830994477
20
424182.9046666979
10
1291634.9195168824
20
424183.38037915336
10
1291635.234324077
20
424183.7197047327
10
1291635.5275210314
20
424183.92264343594
10
1291635.9345402995
20
424184.1184298272
10
1291636.4553818807
20
424184.3070639065
10
1291637.0900457753
20
424184.48854567384
10
1291637.8385319826
20
424184.6628751292
10
1291638.5870181904
20
424184.8324125046
10
1291639.3355043982
20
424184.9971578
10
1291640.083990606
20
424185.15711101546
10
1291640.8324768133
20
424185.31227215094
0
LWPOLYLINE
5
33
330
C
100
AcDbEntity
8
C-TOPO-MAJR-E
100
AcDbPolyline
90
164
70
0
43
0
38
0
39
0
10
1291630.6464595883
20
424124.65912937577
10
1291631.0013982747
20
424125.40761558345
10
1291631.3542824204
20
424126.15610179113
10
1291631.705112026
20
424126.90458799875
10
1291632.0538870913
20
424127.65307420644
10
1291632.4006076164
20
424128.4015604142
10
1291632.663940712
20
424128.9913840478
10
1291632.8438863782
20
424129.42254510743
10
1291632.940444615
20
424129.69504359295
10
1291632.9536154221
20
424129.80887950445
10
1291632.9724532797
20
424130.0529190121
10
1291632.9969581875
20
424130.42716211587
10
1291633.0271301458
20
424130.9316088159
10
1291633.0629691544
20
424131.5662591121
10
1291633.0808886588
20
424132.1315773887
10
1291633.0808886588
20
424132.6275636457
10
1291633.0629691544
20
424133.05421788315
10
1291633.0271301458
20
424133.4115401011
10
1291632.9792668915
20
424133.777322762
10
1291632.9193793915
20
424134.1515658658
10
1291632.8474676458
20
424134.53426941263
10
1291632.7635316544
20
424134.92543340236
10
1291632.600389214
20
424135.40592794656
10
1291632.3580403249
20
424135.9757530454
10
1291632.0364849865
20
424136.63490869856
10
1291631.6357231992
20
424137.3833949062
10
1291631.275634158
20
424138.13188111386
10
1291630.9562178627
20
424138.8803673215
10
1291630.6774743134
20
424139.62885352917
10
1291630.4394035102
20
424140.3773397369
10
1291630.2583441404
20
424141.1258259446
10
1291630.1342962042
20
424141.8743121522
10
1291630.0672597014
20
424142.6227983599
10
1291630.0572346323
20
424143.3712845676
10
1291630.06365783
20
424144.11977077526
10
1291630.0865292945
20
424144.8682569829
10
1291630.125849026
20
424145.61674319056
10
1291630.1816170246
20
424146.36522939824
10
1291630.231590617
20
424147.1137156059
10
1291630.2757698032
20
424147.8622018135
10
1291630.3141545835
20
424148.6106880212
10
1291630.3467449574
20
424149.35917422886
10
1291630.3527601347
20
424150.10766043654
10
1291630.332200115
20
424150.8561466442
10
1291630.2850648984
20
424151.6046328519
10
1291630.2113544852
20
424152.3531190596
10
1291630.1484865462
20
424152.9559550659
10
1291630.0964610819
20
424153.41314087075
10
1291630.0552780917
20
424153.72467647423
10
1291630.024937576
20
424153.89056187624
10
1291629.9786840002
20
424154.16062612925
10
1291629.9165173639
20
424154.53486923303
10
1291629.8384376676
20
424155.01329118776
10
1291629.744444911
20
424155.5958919934
10
1291629.623145729
20
424156.21996414947
10
1291629.4745401219
20
424156.8855076561
10
1291629.298628089
20
424157.59252251324
10
1291629.0954096303
20
424158.341008721
10
1291628.8743901113
20
424159.08949492866
10
1291628.635569531
20
424159.8379811363
10
1291628.3789478901
20
424160.58646734396
10
1291628.1045251882
20
424161.3349535516
10
1291627.854495089
20
424162.02586942975
10
1291627.6288575926
20
424162.65921497846
10
1291627.4276126989
20
424163.2349901976
10
1291627.250760408
20
424163.7531950873
10
1291627.0979948537
20
424164.19941908406
10
1291626.9693160367
20
424164.57366218785
10
1291626.8647239562
20
424164.8759243988
10
1291626.7842186128
20
424165.1062057168
10
1291626.6701972655
20
424165.4660382572
10
1291626.5226599143
20
424165.95542202005
10
1291626.3416065595
20
424166.5743570053
10
1291626.127037201
20
424167.322843213
10
1291625.9324162318
20
424168.07132942067
10
1291625.7577436522
20
424168.8198156283
10
1291625.6030194617
20
424169.56830183597
10
1291625.4682436606
20
424170.3167880437
10
1291625.3437273193
20
424171.0652742514
10
1291625.2294704374
20
424171.813760459
10
1291625.1254730152
20
424172.5622466667
10
1291625.031735053
20
424173.3107328744
10
1291624.9284619272
20
424174.05921908206
10
1291624.815653638
20
424174.8077052897
10
1291624.6933101858
20
424175.55619149737
10
1291624.56143157
20
424176.30467770505
10
1291624.4392678267
20
424176.94701938936
10
1291624.3268189556
20
424177.4832165503
10
1291624.224084957
20
424177.913269188
10
1291624.1310658306
20
424178.2371773025
10
1291624.024823717
20
424178.5862529116
10
1291623.905358617
20
424178.9604960154
10
1291623.7726705295
20
424179.35990661394
10
1291623.626759455
20
424179.7844847073
10
1291623.4468756611
20
424180.29003982915
10
1291623.2330191478
20
424180.8765719796
10
1291622.9851899147
20
424181.54408115864
10
1291622.703387962
20
424182.2925673663
10
1291622.4188719727
20
424183.041053574
10
1291622.1316419467
20
424183.7895397817
10
1291621.841697884
20
424184.5380259894
10
1291621.5490397846
20
424185.28651219705
10
1291621.3225174397
20
424185.8966171881
10
1291621.1621308492
20
424186.3683409627
10
1291621.0678800135
20
424186.7016835206
10
1291621.0397649321
20
424186.8966448619
10
1291620.9990691156
20
424187.1812470845
10
1291620.9457925637
20
424187.5554901883
10
1291620.8799352762
20
424188.01937417337
10
1291620.8014972536
20
424188.5728990398
10
1291620.7622782423
20
424189.1072912639
10
1291620.7622782423
20
424189.62255084567
10
1291620.8014972536
20
424190.11867778515
10
1291620.8799352762
20
424190.5956720824
10
1291620.9578842763
20
424191.02129078296
10
1291621.0353442538
20
424191.39553388674
10
1291621.1123152087
20
424191.7184013939
10
1291621.1887971412
20
424191.9898933043
10
1291621.3607969119
20
424192.380633789
10
1291621.6283145207
20
424192.8906228481
10
1291621.9913499681
20
424193.51986048144
10
1291622.4499032535
20
424194.26834668906
10
1291622.8471809651
20
424194.8883003283
10
1291623.1831831029
20
424195.3797213989
10
1291623.4579096665
20
424195.7426099011
10
1291623.6713606564
20
424195.97696583485
10
1291624.0185704506
20
424196.26001323515
10
1291624.4995390493
20
424196.591752102
10
1291625.1142664526
20
424196.97218243545
10
1291625.86275266
20
424197.40130423545
10
1291626.4949641272
20
424197.7443977039
10
1291627.0109008541
20
424198.00146284094
10
1291627.4105628405
20
424198.1724996464
10
1291627.6939500864
20
424198.2575081203
10
1291628.0227652611
20
424198.3563069055
10
1291628.397008365
20
424198.4688960019
10
1291628.8166793978
20
424198.5952754095
10
1291629.2817783598
20
424198.73544512835
10
1291629.817724133
20
424198.93076141627
10
1291630.424516718
20
424199.1812242733
10
1291631.102156114
20
424199.4868336993
10
1291631.8506423214
20
424199.84758969443
10
1291632.4923941614
20
424200.18004681414
10
1291633.027411634
20
424200.48420505854
10
1291633.455694739
20
424200.7600644276
10
1291633.7772434764
20
424201.0076249214
10
1291634.1251393966
20
424201.28177405853
10
1291634.4993825005
20
424201.58251183893
10
1291634.8999727876
20
424201.90983826277
10
1291635.3269102583
20
424202.26375333
10
1291635.7540645308
20
424202.6278324155
10
1291636.1814356057
20
424203.0020755193
10
1291636.609023483
20
424203.38648264145
10
1291637.0368281621
20
424203.781053782
10
1291637.437852054
20
424204.15274045884
10
1291637.8120951578
20
424204.5015426721
10
1291638.1595574738
20
424204.8274604218
10
1291638.480239002
20
424205.1304937079
10
1291638.8098475323
20
424205.46913190285
10
1291639.1483830647
20
424205.84337500663
10
1291639.4958455996
20
424206.25322301936
10
1291639.8522351363
20
424206.698675941
10
1291640.2175514568
20
424207.15755325445
10
1291640.5917945607
20
424207.6298549599
0
LWPOLYLINE
5
34
330
C
100
AcDbEntity
8
C-TOPO-MAJR-E
100
AcDbPolyline
90
198
70
0
43
0
38
0
39
0
10
1291616.48215725
20
424124.65912937577
10
1291616.2098469404
20
424125.40761558345
10
1291615.9561342811
20
424126.06832964736
10
1291615.7210192732
20
424126.6412715675
10
1291615.5045019155
20
424127.12644134386
10
1291615.3065822087
20
424127.52383897646
10
1291615.1115448934
20
424127.90965934464
10
1291614.9193899692
20
424128.2839024485
10
1291614.730117436
20
424128.646568288
10
1291614.5437272945
20
424128.997656863
10
1291614.3495847883
20
424129.4480948463
10
1291614.147689918
20
424129.99788223766
10
1291613.9380426835
20
424130.64701903716
10
1291613.7206430847
20
424131.3955052448
10
1291613.5728140636
20
424132.1439914524
10
1291613.49455562
20
424132.8924776602
10
1291613.485867754
20
424133.6409638679
10
1291613.5467504659
20
424134.38945007545
10
1291613.6591885767
20
424135.13793628314
10
1291613.8231820867
20
424135.88642249093
10
1291614.038730996
20
424136.63490869856
10
1291614.3058353043
20
424137.3833949062
10
1291614.525114216
20
424137.98794987646
10
1291614.6965677303
20
424138.4485736093
10
1291614.8201958477
20
424138.7652661048
10
1291614.8959985683
20
424138.9380273628
10
1291615.017008592
20
424139.21152954374
10
1291615.183225919
20
424139.5857726476
10
1291615.3946505496
20
424140.06075667427
10
1291615.6512824835
20
424140.636481624
10
1291615.9179881455
20
424141.2553968881
10
1291616.1947675357
20
424141.9175024667
10
1291616.4816206542
20
424142.6227983599
10
1291616.7785475012
20
424143.3712845676
10
1291617.049974493
20
424144.08134737634
10
1291617.2959016298
20
424144.75298678613
10
1291617.5163289118
20
424145.38620279694
10
1291617.7112563392
20
424145.98099540884
10
1291617.8688442179
20
424146.46551326674
10
1291617.9890925481
20
424146.8397563705
10
1291618.07200133
20
424147.10372472036
10
1291618.1175705637
20
424147.2574183161
10
1291618.2078601625
20
424147.55981006485
10
1291618.3428701265
20
424148.0108999665
10
1291618.5226004557
20
424148.6106880212
10
1291618.74705115
20
424149.35917422886
10
1291618.9713541865
20
424150.10766043654
10
1291619.195509565
20
424150.8561466442
10
1291619.4195172857
20
424151.6046328519
10
1291619.6433773488
20
424152.3531190596
10
1291619.8513890095
20
424153.10160526726
10
1291620.0435522678
20
424153.8500914749
10
1291620.2198671242
20
424154.59857768257
10
1291620.3803335782
20
424155.34706389025
10
1291620.4973401718
20
424156.09555009793
10
1291620.570886905
20
424156.84403630556
10
1291620.600973778
20
424157.59252251324
10
1291620.5876007904
20
424158.341008721
10
1291620.5462805154
20
424159.08949492866
10
1291620.4770129533
20
424159.8379811363
10
1291620.3797981034
20
424160.58646734396
10
1291620.2546359662
20
424161.3349535516
10
1291620.120245168
20
424162.0834397592
10
1291619.9766257093
20
424162.831925967
10
1291619.8237775895
20
424163.58041217463
10
1291619.661700809
20
424164.32889838226
10
1291619.5156174693
20
424165.07738458994
10
1291619.3855275707
20
424165.8258707976
10
1291619.2714311134
20
424166.5743570053
10
1291619.1733280972
20
424167.322843213
10
1291619.0853429693
20
424168.07132942067
10
1291619.0074757296
20
424168.8198156283
10
1291618.9397263788
20
424169.56830183597
10
1291618.8820949162
20
424170.3167880437
10
1291618.8119943356
20
424171.0652742514
10
1291618.7294246373
20
424171.813760459
10
1291618.6343858207
20
424172.5622466667
10
1291618.5268778864
20
424173.3107328744
10
1291618.4236239041
20
424173.95057337295
10
1291618.3246238735
20
424174.48176816246
10
1291618.229877795
20
424174.90431724285
10
1291618.139385669
20
424175.2182206141
10
1291618.0381007907
20
424175.56229385163
10
1291617.9260231603
20
424175.93653695553
10
1291617.8031527782
20
424176.3409499256
10
1291617.6694896438
20
424176.775532762
10
1291617.4993973586
20
424177.28859144123
10
1291617.2928759228
20
424177.8801259631
10
1291617.0499253357
20
424178.550136328
10
1291616.7705455981
20
424179.29862253566
10
1291616.4844275462
20
424180.04710874334
10
1291616.1915711802
20
424180.79559495096
10
1291615.8919765004
20
424181.54408115864
10
1291615.5856435064
20
424182.2925673663
10
1291615.3486161756
20
424182.87025241
10
1291615.1808945078
20
424183.27713628975
10
1291615.082478503
20
424183.5132190055
10
1291615.0533681614
20
424183.5785005572
10
1291614.959748913
20
424183.7982628851
10
1291614.8016207577
20
424184.1725059889
10
1291614.5789836957
20
424184.7012298688
10
1291614.2918377272
20
424185.3844345247
10
1291614.0223403338
20
424186.0839595685
10
1291613.770491516
20
424186.7998050003
10
1291613.5362912738
20
424187.53197082004
10
1291613.3197396067
20
424188.2804570278
10
1291613.133315979
20
424189.02894323546
10
1291612.9770203908
20
424189.7774294431
10
1291612.8508528417
20
424190.52591565077
10
1291612.7548133319
20
424191.2744018584
10
1291612.6798655596
20
424192.022888066
10
1291612.6260095253
20
424192.7713742738
10
1291612.5932452283
20
424193.51986048144
10
1291612.581572669
20
424194.26834668906
10
1291612.5677398439
20
424195.01683289674
10
1291612.5517467526
20
424195.76531910436
10
1291612.5335933953
20
424196.51380531205
10
1291612.513279772
20
424197.2622915198
10
1291612.495050955
20
424198.01077772747
10
1291612.478906945
20
424198.7592639351
10
1291612.4648477416
20
424199.5077501428
10
1291612.4528733445
20
424200.25623635045
10
1291612.4627387663
20
424201.00472255814
10
1291612.4944440066
20
424201.7532087658
10
1291612.547989066
20
424202.5016949735
10
1291612.6233739438
20
424203.2501811812
10
1291612.733490373
20
424203.99866738886
10
1291612.8783383537
20
424204.7471535965
10
1291613.0579178855
20
424205.49563980417
10
1291613.2722289683
20
424206.24412601185
10
1291613.5147784192
20
424206.99261221953
10
1291613.785566238
20
424207.7410984271
10
1291614.0845924248
20
424208.4895846348
10
1291614.4118569796
20
424209.23807084246
10
1291614.6639896978
20
424209.8091579977
10
1291614.8409905797
20
424210.20284610044
10
1291614.9428596254
20
424210.41913515073
10
1291614.9695968349
20
424210.4580251486
10
1291615.1767712939
20
424210.6460133472
10
1291615.5643830025
20
424210.9830997464
10
1291616.1324319607
20
424211.4692843463
10
1291616.880918168
20
424212.104567147
10
1291617.4844121789
20
424212.5996075997
10
1291617.9429139933
20
424212.95440570463
10
1291618.2564236107
20
424213.16896146163
10
1291618.4249410313
20
424213.24327487085
10
1291618.6963212937
20
424213.3566565877
10
1291619.0705643976
20
424213.50910661207
10
1291619.547670343
20
424213.7006249442
10
1291620.1276391298
20
424213.9312115839
10
1291620.7497372718
20
424214.17822749354
10
1291621.413964769
20
424214.441672673
10
1291622.1203216217
20
424214.72154712246
10
1291622.8688078295
20
424215.017850842
10
1291623.5223910522
20
424215.29547759367
10
1291624.0810712902
20
424215.55442737753
10
1291624.5448485431
20
424215.79470019386
10
1291624.913722811
20
424216.0162960425
10
1291625.285281497
20
424216.2472266355
10
1291625.659524601
20
424216.48749197304
10
1291626.0364521227
20
424216.73709205503
10
1291626.4160640622
20
424216.99602688145
10
1291626.8387611187
20
424217.3126158466
10
1291627.3045432917
20
424217.6868589504
10
1291627.8134105818
20
424218.11875619297
10
1291628.3653629886
20
424218.60830757424
10
1291628.8284607437
20
424219.0235440879
10
1291629.2027038475
20
424219.3644657339
10
1291629.4880923
20
424219.6310725123
10
1291629.684626101
20
424219.8233644232
10
1291629.9489826313
20
424220.1066319305
10
1291630.2811618904
20
424220.4808750343
10
1291630.6811638789
20
424220.94609373464
10
1291631.1489885964
20
424221.5022880315
10
1291631.570022507
20
424222.01843681664
10
1291631.9442656108
20
424222.4945400902
10
1291632.2717179079
20
424222.93059785204
10
1291632.552379398
20
424223.3266101022
10
1291632.8111178242
20
424223.71173777926
10
1291633.0479331864
20
424224.08598088304
10
1291633.2628254844
20
424224.44933941367
10
1291633.4557947186
20
424224.8018133712
10
1291633.716803478
20
424225.2532903912
10
1291634.0458517624
20
424225.8037704737
10
1291634.4429395718
20
424226.45325361885
10
1291634.9080669065
20
424227.2017398266
10
1291635.279509817
20
424227.7879518203
10
1291635.5572683038
20
424228.21188959986
10
1291635.7413423667
20
424228.47355316556
10
1291635.8317320053
20
424228.57294251723
10
1291636.0866457867
20
424228.7431841492
10
1291636.5060837097
20
424228.98427806166
10
1291637.0900457753
20
424229.2962242543
10
1291637.8385319826
20
424229.67902272724
10
1291638.5870181904
20
424230.022382415
10
1291639.3355043982
20
424230.32630331756
10
1291640.083990606
20
424230.5907854349
10
1291640.8324768133
20
424230.81582876696
0
LWPOLYLINE
5
35
330
C
100
AcDbEntity
8
C-TOPO-MAJR-E
100
AcDbPolyline
90
246
70
0
43
0
38
0
39
0
10
1291594.3770267246
20
424125.0310004041
10
1291594.5936519853
20
424125.63073820045
10
1291594.7847755067
20
424126.2676630996
10
1291594.9503972894
20
424126.9417751016
10
1291595.0905173335
20
424127.65307420644
10
1291595.2051356388
20
424128.4015604142
10
1291595.3954100283
20
424129.14531297615
10
1291595.6613405016
20
424129.8843318924
10
1291596.0029270595
20
424130.61861716304
10
1291596.4201697018
20
424131.34816878795
10
1291596.7367894163
20
424131.90006615233
10
1291596.9527862032
20
424132.2743092561
10
1291597.0681600627
20
424132.4708980994
10
1291597.0829109943
20
424132.4898326822
10
1291597.2774080122
20
424132.6662542892
10
1291597.651651116
20
424133.0001629206
10
1291598.205640306
20
424133.49155857635
10
1291598.9393755817
20
424134.14044125634
10
1291599.5068245602
20
424134.6520041482
10
1291599.9079872414
20
424135.0262472521
10
1291600.1428636252
20
424135.26317056787
10
1291600.2114537116
20
424135.3627740955
10
1291600.3523880276
20
424135.6245982932
10
1291600.5656665734
20
424136.0486431609
10
1291600.8512893487
20
424136.63490869856
10
1291601.2092563538
20
424137.3833949062
10
1291601.553579357
20
424138.13188111386
10
1291601.8842583583
20
424138.8803673215
10
1291602.2012933579
20
424139.62885352917
10
1291602.5046843558
20
424140.3773397369
10
1291602.7368621337
20
424140.9455745832
10
1291602.8978266916
20
424141.333558068
10
1291602.98757803
20
424141.5412901915
10
1291603.0061161488
20
424141.5687709536
10
1291603.114546919
20
424141.76963288663
10
1291603.312870341
20
424142.1438759904
10
1291603.6010864147
20
424142.69150026515
10
1291603.97919514
20
424143.41250571073
10
1291604.3553710547
20
424144.07817214134
10
1291604.7296141584
20
424144.6884995571
10
1291605.1019244515
20
424145.2434879579
10
1291605.4723019337
20
424145.7431373438
10
1291605.7912358372
20
424146.1800835887
10
1291606.0587261617
20
424146.5543266925
10
1291606.2747729071
20
424146.86586665525
10
1291606.4393760741
20
424147.1147034771
10
1291606.6684193062
20
424147.48845264537
10
1291606.9619026035
20
424147.98711416
10
1291607.3198259664
20
424148.6106880212
10
1291607.7421893945
20
424149.35917422886
10
1291608.0993418687
20
424150.0436540285
10
1291608.3912833892
20
424150.66412742005
10
1291608.6180139557
20
424151.2205944036
10
1291608.7795335685
20
424151.7130549791
10
1291608.921500038
20
424152.14640681876
10
1291609.043913364
20
424152.52064992266
10
1291609.1467735467
20
424152.8357842907
10
1291609.2300805864
20
424153.09180992283
10
1291609.3258252717
20
424153.4709506989
10
1291609.4340076027
20
424153.9732066188
10
1291609.5546275796
20
424154.59857768257
10
1291609.6876852023
20
424155.34706389025
10
1291609.8226716365
20
424156.09555009793
10
1291609.9595868825
20
424156.84403630556
10
1291610.0984309402
20
424157.59252251324
10
1291610.2392038093
20
424158.341008721
10
1291610.3575603361
20
424159.08949492866
10
1291610.45350052
20
424159.8379811363
10
1291610.5270243618
20
424160.58646734396
10
1291610.5781318608
20
424161.3349535516
10
1291610.6151141291
20
424162.0834397592
10
1291610.637971167
20
424162.831925967
10
1291610.6467029736
20
424163.58041217463
10
1291610.64130955
20
424164.32889838226
10
1291610.6305709165
20
424165.07738458994
10
1291610.6144870738
20
424165.8258707976
10
1291610.5930580215
20
424166.5743570053
10
1291610.56628376
20
424167.322843213
10
1291610.534097962
20
424168.07132942067
10
1291610.4965006278
20
424168.8198156283
10
1291610.4534917576
20
424169.56830183597
10
1291610.405071351
20
424170.3167880437
10
1291610.3455443918
20
424171.0652742514
10
1291610.2749108798
20
424171.813760459
10
1291610.1931708148
20
424172.5622466667
10
1291610.1003241972
20
424173.3107328744
10
1291609.9979907554
20
424174.05921908206
10
1291609.8861704895
20
424174.8077052897
10
1291609.7648633993
20
424175.55619149737
10
1291609.6340694851
20
424176.30467770505
10
1291609.5099699479
20
424176.9614675322
10
1291609.3925647875
20
424177.52656097885
10
1291609.281854004
20
424177.9999580451
10
1291609.1778375972
20
424178.38165873074
10
1291609.072523993
20
424178.7596306255
10
1291608.965913191
20
424179.1338737294
10
1291608.8580051912
20
424179.50438804226
10
1291608.7487999932
20
424179.8711735642
10
1291608.5836387384
20
424180.3333842576
10
1291608.3625214258
20
424180.8910201224
10
1291608.085448056
20
424181.54408115864
10
1291607.752418629
20
424182.2925673663
10
1291607.4508715179
20
424183.041053574
10
1291607.1808067234
20
424183.7895397817
10
1291606.942224245
20
424184.5380259894
10
1291606.7351240832
20
424185.28651219705
10
1291606.572574506
20
424186.03499840474
10
1291606.4545755142
20
424186.78348461236
10
1291606.381127107
20
424187.53197082004
10
1291606.3522292848
20
424188.2804570278
10
1291606.346968242
20
424189.02894323546
10
1291606.3653439786
20
424189.7774294431
10
1291606.4073564943
20
424190.52591565077
10
1291606.4730057896
20
424191.2744018584
10
1291606.5180918681
20
424192.022888066
10
1291606.5426147303
20
424192.7713742738
10
1291606.5465743758
20
424193.51986048144
10
1291606.5299708047
20
424194.26834668906
10
1291606.489490882
20
424195.01683289674
10
1291606.4251346074
20
424195.76531910436
10
1291606.3369019812
20
424196.51380531205
10
1291606.2247930032
20
424197.2622915198
10
1291606.1389136836
20
424197.83055439126
10
1291606.079264022
20
424198.21859392634
10
1291606.045844019
20
424198.42641012534
10
1291606.038653674
20
424198.45400298806
10
1291605.9901593244
20
424198.6549209713
10
1291605.9003609703
20
424199.02916407515
10
1291605.7692586111
20
424199.5767322996
10
1291605.5968522474
20
424200.29762564454
10
1291605.410468413
20
424201.0254172052
10
1291605.210107108
20
424201.7601069815
10
1291604.9957683326
20
424202.5016949735
10
1291604.7674520866
20
424203.2501811812
10
1291604.5389991296
20
424203.99866738886
10
1291604.310409462
20
424204.7471535965
10
1291604.0816830834
20
424205.49563980417
10
1291603.852819994
20
424206.24412601185
10
1291603.65144755
20
424206.92425536405
10
1291603.477565751
20
424207.5360278607
10
1291603.3311745974
20
424208.079443502
10
1291603.2122740892
20
424208.55450228794
10
1291603.1095621646
20
424208.97915323277
10
1291603.0230388236
20
424209.35339633655
10
1291602.9527040666
20
424209.6772315994
10
1291602.8985578935
20
424209.9506590212
10
1291602.8339213775
20
424210.3428511395
10
1291602.7587945187
20
424210.85380795423
10
1291602.6731773168
20
424211.48352946545
10
1291602.5770697722
20
424212.23201567313
10
1291602.4961295992
20
424212.9805018808
10
1291602.430356798
20
424213.72898808843
10
1291602.3797513684
20
424214.4774742961
10
1291602.3443133105
20
424215.22596050386
10
1291602.3350635585
20
424215.97444671154
10
1291602.3520021131
20
424216.72293291916
10
1291602.3951289735
20
424217.47141912684
10
1291602.4644441402
20
424218.2199053345
10
1291602.5455246675
20
424218.86647709867
10
1291602.6383705554
20
424219.4111344194
10
1291602.7429818038
20
424219.85387729655
10
1291602.859358413
20
424220.1947057303
10
1291603.01638142
20
424220.5522414991
10
1291603.214050825
20
424220.9264846029
10
1291603.452366628
20
424221.3174350418
10
1291603.7313288292
20
424221.7250928158
10
1291604.0579314816
20
424222.2158637672
10
1291604.4321745855
20
424222.78974789614
10
1291604.854058141
20
424223.4467452025
10
1291605.3235821472
20
424224.18685568636
10
1291605.677305582
20
424224.7440324802
10
1291605.915228445
20
424225.1182755841
10
1291606.0373507366
20
424225.3095849979
10
1291606.0436724564
20
424225.3179607217
10
1291606.2339548683
20
424225.470652532
10
1291606.6081979722
20
424225.76766042877
10
1291607.166401768
20
424226.2089844121
10
1291607.9085662556
20
424226.794624482
10
1291608.603055769
20
424227.2745660688
10
1291609.2498703084
20
424227.64880917256
10
1291609.8490098733
20
424227.9173537934
10
1291610.4004744636
20
424228.0801999313
10
1291610.8633283107
20
424228.2167155191
10
1291611.2375714146
20
424228.3269005568
10
1291611.523203775
20
424228.41075504455
10
1291611.7202253924
20
424228.4682789822
10
1291612.0551131573
20
424228.58475002827
10
1291612.5278670697
20
424228.7601681828
10
1291613.13848713
20
424228.9945334457
10
1291613.8869733373
20
424229.287845817
10
1291614.6241366847
20
424229.60724257014
10
1291615.349977172
20
424229.9527237052
10
1291616.064494799
20
424230.324289222
10
1291616.7676895652
20
424230.72193912073
10
1291617.3064085003
20
424231.02693042334
10
1291617.6806516042
20
424231.2392631299
10
1291617.8904188767
20
424231.35893724044
10
1291617.935710318
20
424231.3859527549
10
1291618.1568004505
20
424231.5552476178
10
1291618.5536892752
20
424231.86682182946
10
1291619.1263767912
20
424232.32067538955
10
1291619.8748629987
20
424232.91680829815
10
1291620.4655329194
20
424233.3952424258
10
1291620.8983865532
20
424233.7559777724
10
1291621.1734238998
20
424233.999014338
10
1291621.2906449595
20
424234.1243521226
10
1291621.5321329343
20
424234.405477013
10
1291621.8978878236
20
424234.8423890091
10
1291622.3879096282
20
424235.435088111
10
1291623.0021983476
20
424236.18357431865
10
1291623.4671589942
20
424236.7507027306
10
1291623.7827915682
20
424237.13647334697
10
1291623.9490960694
20
424237.3408861676
10
1291623.9660724981
20
424237.3639411925
10
1291624.1136424483
20
424237.5625902569
10
1291624.39180592
20
424237.9368333608
10
1291624.8005629133
20
424238.4866705041
10
1291625.339913428
20
424239.21210168675
10
1291625.7967102374
20
424239.81168489327
10
1291626.170953341
20
424240.2854201235
10
1291626.4626427395
20
424240.63330737763
10
1291626.6717784323
20
424240.85534665553
10
1291627.015751754
20
424241.11689484253
10
1291627.494562704
20
424241.41795193864
10
1291628.108211283
20
424241.75851794385
10
1291628.856697491
20
424242.1385928582
10
1291629.6051836987
20
424242.4302659841
10
1291630.3536699065
20
424242.6335373215
10
1291631.102156114
20
424242.7484068705
10
1291631.8506423214
20
424242.77487463114
10
1291632.5823369883
20
424242.82470151526
10
1291633.2972401148
20
424242.89788752294
10
1291633.9953517006
20
424242.99443265423
10
1291634.6766717457
20
424243.11433690914
10
1291635.2044533202
20
424243.20792262536
10
1291635.5786964241
20
424243.2751898031
10
1291635.7994010574
20
424243.3161384422
10
1291635.8665672196
20
424243.3307685427
10
1291636.1040633935
20
424243.42389658384
10
1291636.5118895788
20
424243.59552256565
10
1291637.0900457753
20
424243.84564648813
10
1291637.8385319826
20
424244.1742683512
10
1291638.5519524678
20
424244.5220433096
10
1291639.2303072298
20
424244.8889713632
10
1291639.8735962694
20
424245.275052512
10
1291640.4818195861
20
424245.6802867561
0
LWPOLYLINE
5
36
330
C
100
AcDbEntity
8
C-TOPO-MAJR-E
100
AcDbPolyline
90
267
70
0
43
0
38
0
39
0
10
1291565.235369839
20
424124.9801193817
10
1291565.9838560463
20
424125.5655837014
10
1291566.552371854
20
424126.01009223587
10
1291566.9409172619
20
424126.3136449851
10
1291567.1494922698
20
424126.4762419489
10
1291567.1780968774
20
424126.4978831273
10
1291567.3795207334
20
424126.63407491066
10
1291567.753763837
20
424126.8848172991
10
1291568.3008261889
20
424127.25011029246
10
1291569.020707789
20
424127.7299538908
10
1291569.6713137873
20
424128.15699724184
10
1291570.252644184
20
424128.5312403457
10
1291570.7646989792
20
424128.8526832023
10
1291571.2074781724
20
424129.12132581166
10
1291571.6159893211
20
424129.3781641352
10
1291571.990232425
20
424129.623198173
10
1291572.330207484
20
424129.856427925
10
1291572.6359144982
20
424130.0778533911
10
1291573.0523163108
20
424130.35159086564
10
1291573.5794129216
20
424130.6776403485
10
1291574.217204331
20
424131.05600183964
10
1291574.9656905388
20
424131.48667533917
10
1291575.5628129423
20
424131.8337772743
10
1291576.0085715414
20
424132.09730764496
10
1291576.3029663365
20
424132.27726645133
10
1291576.445997327
20
424132.37365369336
10
1291576.7046343745
20
424132.5632425632
10
1291577.0788774784
20
424132.846033061
10
1291577.5687266388
20
424133.22202518664
10
1291578.1741818553
20
424133.69121894013
10
1291578.7126257434
20
424134.1129373688
10
1291579.184058302
20
424134.4871804727
10
1291579.5884795324
20
424134.81394825166
10
1291579.9258894334
20
424135.09324070584
10
1291580.281715936
20
424135.4077426316
10
1291580.65595904
20
424135.75745402905
10
1291581.048618745
20
424136.14237489813
10
1291581.4596950514
20
424136.5625052388
10
1291581.8587147524
20
424136.9596919611
10
1291582.2456778479
20
424137.3339350649
10
1291582.6205843375
20
424137.68523455027
10
1291582.9834342217
20
424138.0135904173
10
1291583.3519807155
20
424138.35632188444
10
1291583.7262238194
20
424138.7134289519
10
1291584.1061635332
20
424139.08491161966
10
1291584.4917998568
20
424139.47076988756
10
1291584.875022953
20
424139.8508205734
10
1291585.2558328216
20
424140.22506367724
10
1291585.6342294628
20
424140.593499199
10
1291586.0102128766
20
424140.9561271388
10
1291586.3853261354
20
424141.3389748599
10
1291586.759569239
20
424141.74204236234
10
1291587.132942188
20
424142.1653296461
10
1291587.5054449819
20
424142.60883671115
10
1291587.834196234
20
424143.01771179563
10
1291588.119195944
20
424143.3919548995
10
1291588.3604441117
20
424143.7315660227
10
1291588.5579407378
20
424144.03654516523
10
1291588.7778312603
20
424144.45240107406
10
1291589.02011568
20
424144.97913374915
10
1291589.2847939965
20
424145.61674319056
10
1291589.5718662094
20
424146.36522939824
10
1291589.850178949
20
424147.1137156059
10
1291590.119732215
20
424147.8622018135
10
1291590.3805260076
20
424148.6106880212
10
1291590.6325603265
20
424149.35917422886
10
1291590.824556828
20
424149.92532253003
10
1291590.9565155124
20
424150.30913292465
10
1291591.0284363793
20
424150.5106054128
10
1291591.040319429
20
424150.5297399945
10
1291591.1558018269
20
424150.7264288373
10
1291591.374883573
20
424151.1006719411
10
1291591.697564667
20
424151.652469306
10
1291592.1238451095
20
424152.38182093203
10
1291592.5241068825
20
424153.00674003153
10
1291592.8983499864
20
424153.5272266044
10
1291593.246574421
20
424153.9432806508
10
1291593.5687801861
20
424154.2549021706
10
1291593.9318950886
20
424154.59783448244
10
1291594.3359191285
20
424154.9720775863
10
1291594.7808523057
20
424155.3776314821
10
1291595.2666946198
20
424155.81449617
10
1291595.696737329
20
424156.2099094463
10
1291596.0709804327
20
424156.5638713111
10
1291596.3894239313
20
424156.8763817644
10
1291596.652067825
20
424157.14744080626
10
1291596.945716564
20
424157.4700918791
10
1291597.2703701486
20
424157.8443349829
10
1291597.6260285787
20
424158.2701701177
10
1291598.0126918545
20
424158.74759728357
10
1291598.3554128683
20
424159.2927892099
10
1291598.6541916202
20
424159.90574589674
10
1291598.9090281099
20
424160.58646734396
10
1291599.1199223376
20
424161.3349535516
10
1291599.3137906082
20
424162.0834397592
10
1291599.4906329212
20
424162.831925967
10
1291599.6504492771
20
424163.58041217463
10
1291599.793239676
20
424164.32889838226
10
1291599.9023670512
20
424164.89940242795
10
1291599.9778314033
20
424165.29192431155
10
1291600.019632732
20
424165.5064640332
10
1291600.0277710373
20
424165.5430215929
10
1291600.0791701465
20
424165.74842192465
10
1291600.1738300598
20
424166.12266502844
10
1291600.311750777
20
424166.66575090436
10
1291600.4929322982
20
424167.3776795524
10
1291600.655923757
20
424168.0987475904
10
1291600.8007251532
20
424168.8289550182
10
1291600.9273364872
20
424169.56830183597
10
1291601.0357577587
20
424170.3167880437
10
1291601.1045488054
20
424171.0652742514
10
1291601.1337096274
20
424171.813760459
10
1291601.1232402246
20
424172.5622466667
10
1291601.0731405967
20
424173.3107328744
10
1291600.9756900847
20
424174.0501463505
10
1291600.8308886886
20
424174.78048709506
10
1291600.638736408
20
424175.5017551081
10
1291600.3992332427
20
424176.2139503896
10
1291600.2161402283
20
424176.75716958224
10
1291600.0894573645
20
424177.1314126861
10
1291600.0191846509
20
424177.3366797011
10
1291600.0053220878
20
424177.3729706273
10
1291599.9247472752
20
424177.5873103738
10
1291599.7774602133
20
424177.9796989407
10
1291599.563460902
20
424178.550136328
10
1291599.282749341
20
424179.29862253566
10
1291599.047862851
20
424180.04710874334
10
1291598.8588014317
20
424180.79559495096
10
1291598.7155650828
20
424181.54408115864
10
1291598.6181538047
20
424182.2925673663
10
1291598.5693133143
20
424183.041053574
10
1291598.5690436119
20
424183.7895397817
10
1291598.6173446972
20
424184.5380259894
10
1291598.7142165701
20
424185.28651219705
10
1291598.834565329
20
424186.03499840474
10
1291598.9783909735
20
424186.78348461236
10
1291599.1456935038
20
424187.53197082004
10
1291599.3364729201
20
424188.2804570278
10
1291599.5056410104
20
424189.0017772616
10
1291599.6531977747
20
424189.6959315215
10
1291599.7791432133
20
424190.36291980755
10
1291599.8834773262
20
424191.0027421197
10
1291599.965663005
20
424191.5097748277
10
1291600.0257002495
20
424191.88401793153
10
1291600.06358906
20
424192.12547143124
10
1291600.0793294364
20
424192.2341353267
10
1291600.0944683463
20
424192.50275480025
10
1291600.10900579
20
424192.93132985185
10
1291600.1229417669
20
424193.51986048144
10
1291600.1362762775
20
424194.26834668906
10
1291600.1390084387
20
424194.89584402554
10
1291600.1311382507
20
424195.40235249087
10
1291600.112665713
20
424195.787872085
10
1291600.0835908258
20
424196.052402808
10
1291600.0462295278
20
424196.3717897214
10
1291600.0005818184
20
424196.7460328252
10
1291599.946647698
20
424197.1751321195
10
1291599.8844271665
20
424197.6590876042
10
1291599.7912467057
20
424198.20917576965
10
1291599.6671063155
20
424198.82539661584
10
1291599.5120059964
20
424199.5077501428
10
1291599.325945748
20
424200.25623635045
10
1291599.1443149545
20
424201.00472255814
10
1291598.9671136157
20
424201.7532087658
10
1291598.7943417316
20
424202.5016949735
10
1291598.625999302
20
424203.2501811812
10
1291598.465682647
20
424203.99866738886
10
1291598.3133917665
20
424204.7471535965
10
1291598.1691266603
20
424205.49563980417
10
1291598.0328873286
20
424206.24412601185
10
1291597.8978041708
20
424206.99261221953
10
1291597.7638771874
20
424207.7410984271
10
1291597.6311063773
20
424208.4895846348
10
1291597.4994917414
20
424209.23807084246
10
1291597.3847785066
20
424209.88603410724
10
1291597.2869666736
20
424210.43347442907
10
1291597.2060562414
20
424210.88039180805
10
1291597.1420472108
20
424211.22678624414
10
1291597.0738330944
20
424211.5871050141
10
1291597.001413893
20
424211.96134811797
10
1291596.9247896057
20
424212.34951555566
10
1291596.8439602328
20
424212.75160732726
10
1291596.7427876303
20
424213.24029770785
10
1291596.6212717984
20
424213.8155866974
10
1291596.4794127368
20
424214.4774742961
10
1291596.3172104456
20
424215.22596050386
10
1291596.1527787196
20
424215.97444671154
10
1291595.986117558
20
424216.72293291916
10
1291595.817226962
20
424217.47141912684
10
1291595.6461069307
20
424218.2199053345
10
1291595.4869351939
20
424218.9683915422
10
1291595.3397117513
20
424219.7168777499
10
1291595.2044366035
20
424220.46536395757
10
1291595.0811097499
20
424221.2138501652
10
1291594.9618488005
20
424221.9623363728
10
1291594.8466537548
20
424222.7108225806
10
1291594.7355246134
20
424223.45930878824
10
1291594.6284613756
20
424224.20779499586
10
1291594.5297162384
20
424224.95628120354
10
1291594.4392892015
20
424225.70476741117
10
1291594.357180265
20
424226.45325361885
10
1291594.2833894289
20
424227.2017398266
10
1291594.2224978479
20
424227.95022603427
10
1291594.1745055218
20
424228.6987122419
10
1291594.139412451
20
424229.4471984496
10
1291594.117218635
20
424230.19568465726
10
1291594.1314451525
20
424230.94417086494
10
1291594.182092003
20
424231.69265707256
10
1291594.2691591869
20
424232.44114328024
10
1291594.3926467036
20
424233.1896294879
10
1291594.5536709703
20
424233.9381156956
10
1291594.752231986
20
424234.6866019033
10
1291594.9883297514
20
424235.435088111
10
1291595.2619642662
20
424236.18357431865
10
1291595.553041254
20
424236.91239645
10
1291595.8615607147
20
424237.6215545051
10
1291596.1875226484
20
424238.31104848394
10
1291596.530927055
20
424238.98087838636
10
1291596.802766664
20
424239.50291488954
10
1291597.0030414755
20
424239.8771579934
10
1291597.1317514894
20
424240.1036076979
10
1291597.1888967056
20
424240.18226400303
10
1291597.4045908656
20
424240.40377065196
10
1291597.7788339695
20
424240.7681276448
10
1291598.311626017
20
424241.27533498127
10
1291599.0029670084
20
424241.92539266165
10
1291599.5996315135
20
424242.43754305376
10
1291600.1016195328
20
424242.81178615754
10
1291600.5089310657
20
424243.0481219732
10
1291600.8215661123
20
424243.1465505004
10
1291601.1650051875
20
424243.24965757225
10
1291601.5392482914
20
424243.35744318867
10
1291601.9442954238
20
424243.4699073496
10
1291602.380146585
20
424243.58705005504
10
1291602.8941565074
20
424243.73083789647
10
1291603.486325192
20
424243.90127087384
10
1291604.156652638
20
424244.09834898723
10
1291604.9051388453
20
424244.3220722366
10
1291605.653625053
20
424244.57506225683
10
1291606.4021112607
20
424244.8573190478
10
1291607.1505974685
20
424245.1688426096
10
1291607.8990836763
20
424245.50963294227
10
1291608.4863397563
20
424245.7819331718
10
1291608.9123657092
20
424245.98574329825
10
1291609.1771615345
20
424246.1210633216
10
1291609.2807272328
20
424246.18789324176
10
1291609.5196316335
20
424246.3505560978
10
1291609.8938747374
20
424246.6090518896
10
1291610.4034565443
20
424246.9633806172
10
1291611.0483770538
20
424247.4135422807
10
1291611.6205934733
20
424247.82574466435
10
1291612.1201058028
20
424248.19998776814
10
1291612.546914042
20
424248.5362715922
10
1291612.9010181916
20
424248.83459613647
10
1291613.2651918181
20
424249.15425312606
10
1291613.6394349218
20
424249.49524256104
10
1291614.0237475028
20
424249.8575644414
10
1291614.4181295615
20
424250.2412187672
10
1291614.7928010565
20
424250.620167482
10
1291615.147761988
20
424250.9944105858
10
1291615.4830123563
20
424251.3639480787
10
1291615.7985521613
20
424251.7287799606
10
1291616.1434436156
20
424252.13647976366
10
1291616.5176867195
20
424252.58704748785
10
1291616.9212814728
20
424253.0804831332
10
1291617.3542278756
20
424253.6167866997
10
1291617.7254006714
20
424254.07206003484
0
LWPOLYLINE
5
37
330
C
100
AcDbEntity
8
C-TOPO-MAJR-E
100
AcDbPolyline
90
256
70
0
43
0
38
0
39
0
10
1291544.2777560244
20
424124.9854970804
10
1291545.0262422317
20
424125.59681653144
10
1291545.5887070536
20
424126.056340444
10
1291545.96515049
20
424126.36406881793
10
1291546.1555725406
20
424126.5200016532
10
1291546.1599732055
20
424126.5241389499
10
1291546.3492950897
20
424126.6894338101
10
1291546.7235381934
20
424127.0158862338
10
1291547.2827025168
20
424127.50349622115
10
1291548.0267880596
20
424128.1522637719
10
1291548.610320646
20
424128.6637690992
10
1291549.0333002761
20
424129.03801220306
10
1291549.2957269498
20
424129.2749930834
10
1291549.397600667
20
424129.37471174035
10
1291549.6356590777
20
424129.57524724404
10
1291550.0099021816
20
424129.8765995944
10
1291550.5203299788
20
424130.27876879164
10
1291551.1669424688
20
424130.7817548357
10
1291551.727755194
20
424131.2203694096
10
1291552.202768154
20
424131.5946125134
10
1291552.5919813486
20
424131.90448414715
10
1291552.8953947774
20
424132.14998431085
10
1291553.234223044
20
424132.42071841494
10
1291553.608466148
20
424132.71668645955
10
1291554.018124089
20
424133.0378884446
10
1291554.4631968676
20
424133.38432437007
10
1291554.912245885
20
424133.74466388475
10
1291555.3652711413
20
424134.11890698865
10
1291555.8222726365
20
424134.50705368165
10
1291556.2832503705
20
424134.90910396376
10
1291556.7008607895
20
424135.2801712054
10
1291557.0751038934
20
424135.6202554066
10
1291557.4059796822
20
424135.9293565672
10
1291557.6934881555
20
424136.2074746872
10
1291558.0381680652
20
424136.53365529916
10
1291558.4400194106
20
424136.907898403
10
1291558.899042192
20
424137.3302039987
10
1291559.4152364093
20
424137.8005720863
10
1291559.8604550697
20
424138.20677585684
10
1291560.2346981736
20
424138.54881531035
10
1291560.5379657208
20
424138.8266904469
10
1291560.7702577112
20
424139.0404012663
10
1291561.104020406
20
424139.33437822794
10
1291561.5392538053
20
424139.7086213318
10
1291562.0759579088
20
424140.16313057777
10
1291562.7141327164
20
424140.697905966
10
1291563.2203416722
20
424141.11868144124
10
1291563.594584776
20
424141.4254570035
10
1291563.8368620279
20
424141.61823265266
10
1291563.9471734276
20
424141.6970083889
10
1291564.2170285294
20
424141.89553987875
10
1291564.6464273334
20
424142.21382712235
10
1291565.235369839
20
424142.6518701197
10
1291565.9838560463
20
424143.20966887067
10
1291566.5839704499
20
424143.6559958641
10
1291567.035713049
20
424143.9908510998
10
1291567.3390838439
20
424144.2142345779
10
1291567.4940828346
20
424144.3261462984
10
1291567.7587038819
20
424144.48948236817
10
1291568.1329469858
20
424144.7042427873
10
1291568.6168121463
20
424144.9704275558
10
1291569.2102993634
20
424145.2880366735
10
1291569.8240342466
20
424145.6339627843
10
1291570.4580167956
20
424146.0082058882
10
1291571.112247011
20
424146.410765985
10
1291571.7867248922
20
424146.84164307493
10
1291572.3110853848
20
424147.17510036496
10
1291572.6853284887
20
424147.41113785515
10
1291572.9094542037
20
424147.54975554557
10
1291572.9834625302
20
424147.5909534361
10
1291573.2260903267
20
424147.7811647763
10
1291573.6373375936
20
424148.1203895662
10
1291574.217204331
20
424148.6086278056
10
1291574.9656905388
20
424149.24587949447
10
1291575.5440418837
20
424149.74132741825
10
1291575.9522583657
20
424150.09497157694
10
1291576.190339985
20
424150.3068119702
10
1291576.2582867416
20
424150.37684859824
10
1291576.4793816719
20
424150.5747867043
10
1291576.8536247755
20
424150.9006262884
10
1291577.381016053
20
424151.35436735046
10
1291578.061555504
20
424151.9360098906
10
1291578.6150797857
20
424152.41395271255
10
1291579.0415888974
20
424152.78819581633
10
1291579.3410828398
20
424153.0587392021
10
1291579.513561613
20
424153.22558286967
10
1291579.7869225512
20
424153.4899648984
10
1291580.161165655
20
424153.85188528826
10
1291580.6362909242
20
424154.3113440392
10
1291581.2122983593
20
424154.86834115133
10
1291581.6929187966
20
424155.33396125934
10
1291582.078152236
20
424155.7082043632
10
1291582.3679986782
20
424155.99107046286
10
1291582.562458123
20
424156.1825595584
10
1291582.8468093975
20
424156.4850281022
10
1291583.2210525014
20
424156.8984760941
10
1291583.6851874348
20
424157.4229035343
10
1291584.2392141977
20
424158.0583104227
10
1291584.687469984
20
424158.56313541875
10
1291585.0299547934
20
424158.9373785226
10
1291585.266668626
20
424159.18103973416
10
1291585.3976114825
20
424159.29411905346
10
1291585.6321494498
20
424159.5660500949
10
1291585.9702825283
20
424159.99683285836
10
1291586.4120107181
20
424160.58646734396
10
1291586.957334019
20
424161.3349535516
10
1291587.3843815075
20
424162.02460935985
10
1291587.6931531832
20
424162.6554347689
10
1291587.8836490465
20
424163.22742977843
10
1291587.9558690973
20
424163.7405943885
10
1291588.0181232681
20
424164.1842982455
10
1291588.0704115594
20
424164.55854134937
10
1291588.1127339713
20
424164.86332370003
10
1291588.1450905034
20
424165.0986452975
10
1291588.1612687695
20
424165.3094275782
10
1291588.1612687695
20
424165.495670542
10
1291588.1450905034
20
424165.65737418894
10
1291588.1127339713
20
424165.79453851917
10
1291588.040064437
20
424166.0502422362
10
1291587.9270819009
20
424166.42448533996
10
1291587.7737863627
20
424166.91726783063
10
1291587.5801778222
20
424167.5285897082
10
1291587.3642316423
20
424168.17420266825
10
1291587.1259478228
20
424168.8541067108
10
1291586.8653263636
20
424169.56830183597
10
1291586.5823672642
20
424170.3167880437
10
1291586.3353715898
20
424171.0652742514
10
1291586.1243393398
20
424171.813760459
10
1291585.9492705143
20
424172.5622466667
10
1291585.810165113
20
424173.3107328744
10
1291585.7195785777
20
424174.05921908206
10
1291585.6775109083
20
424174.8077052897
10
1291585.6839621048
20
424175.55619149737
10
1291585.7389321672
20
424176.30467770505
10
1291585.8404533952
20
424177.05316391273
10
1291585.9885257883
20
424177.8016501203
10
1291586.1831493473
20
424178.550136328
10
1291586.4243240717
20
424179.29862253566
10
1291586.6850871784
20
424180.02070373984
10
1291586.9654386677
20
424180.7163799404
10
1291587.265378539
20
424181.38565113745
10
1291587.5849067927
20
424182.0285173309
10
1291587.836904189
20
424182.5370719796
10
1291588.021370728
20
424182.9113150834
10
1291588.13830641
20
424183.1512466424
10
1291588.1877112347
20
424183.2568666566
10
1291588.3066942436
20
424183.5232032191
10
1291588.4952554363
20
424183.9502563301
10
1291588.753394813
20
424184.5380259894
10
1291589.0811123739
20
424185.28651219705
10
1291589.3997925336
20
424186.03499840474
10
1291589.7094352923
20
424186.78348461236
10
1291590.0100406501
20
424187.53197082004
10
1291590.3016086067
20
424188.2804570278
10
1291590.5402335408
20
424188.89522807166
10
1291590.7259154515
20
424189.37628395174
10
1291590.8586543398
20
424189.7236246681
10
1291590.9384502056
20
424189.9372502206
10
1291591.0354997213
20
424190.2311845488
10
1291591.1498028873
20
424190.6054276526
10
1291591.281359704
20
424191.0599795321
10
1291591.430170171
20
424191.59484018723
10
1291591.569981095
20
424192.18310723046
10
1291591.7007924758
20
424192.8247806619
10
1291591.8226043137
20
424193.51986048144
10
1291591.9354166088
20
424194.26834668906
10
1291592.0314935427
20
424195.01683289674
10
1291592.110835116
20
424195.76531910436
10
1291592.173441328
20
424196.51380531205
10
1291592.2193121794
20
424197.2622915198
10
1291592.2499854683
20
424198.01077772747
10
1291592.2654611948
20
424198.7592639351
10
1291592.265739359
20
424199.5077501428
10
1291592.250819961
20
424200.25623635045
10
1291592.228842753
20
424201.00472255814
10
1291592.1998077352
20
424201.7532087658
10
1291592.1637149074
20
424202.5016949735
10
1291592.1205642696
20
424203.2501811812
10
1291592.0706969341
20
424203.99866738886
10
1291592.0141129005
20
424204.7471535965
10
1291591.9508121687
20
424205.49563980417
10
1291591.8807947391
20
424206.24412601185
10
1291591.8009078733
20
424206.99261221953
10
1291591.7111515717
20
424207.7410984271
10
1291591.611525834
20
424208.4895846348
10
1291591.5020306604
20
424209.23807084246
10
1291591.4024315367
20
424209.8884216537
10
1291591.3127284625
20
424210.44063706853
10
1291591.2329214385
20
424210.8947170869
10
1291591.1630104647
20
424211.2506617089
10
1291591.0893719106
20
424211.61575557175
10
1291591.0120057764
20
424211.9899986756
10
1291590.9309120623
20
424212.37339102034
10
1291590.8460907678
20
424212.76593260607
10
1291590.7368534626
20
424213.2474603473
10
1291590.603200147
20
424213.8179742439
10
1291590.44513082
20
424214.4774742961
10
1291590.262645482
20
424215.22596050386
10
1291590.0778374006
20
424215.97444671154
10
1291589.890706575
20
424216.72293291916
10
1291589.701253006
20
424217.47141912684
10
1291589.509476693
20
424218.2199053345
10
1291589.313378451
20
424218.9683915422
10
1291589.1129582792
20
424219.7168777499
10
1291588.9082161784
20
424220.46536395757
10
1291588.6991521483
20
424221.2138501652
10
1291588.5222693176
20
424221.8327259112
10
1291588.3775676861
20
424222.32199119567
10
1291588.2650472543
20
424222.6816460185
10
1291588.1847080216
20
424222.9116903798
10
1291588.0715359866
20
424223.21383411234
10
1291587.9255311491
20
424223.5880772161
10
1291587.7466935092
20
424224.03441969125
10
1291587.535023067
20
424224.5528615377
10
1291587.3384029674
20
424225.12881447445
10
1291587.1568332105
20
424225.76227850147
10
1291586.9903137968
20
424226.45325361885
10
1291586.8388447259
20
424227.2017398266
10
1291586.720457282
20
424227.95022603427
10
1291586.6351514654
20
424228.6987122419
10
1291586.582927276
20
424229.4471984496
10
1291586.5637847134
20
424230.19568465726
10
1291586.5547993805
20
424230.94417086494
10
1291586.5559712772
20
424231.69265707256
10
1291586.5673004035
20
424232.44114328024
10
1291586.5887867594
20
424233.1896294879
10
1291586.6146866258
20
424233.9381156956
10
1291586.6450000026
20
424234.6866019033
10
1291586.6797268898
20
424235.435088111
10
1291586.7188672875
20
424236.18357431865
10
1291586.7570938272
20
424236.93206052633
10
1291586.7944065086
20
424237.6805467339
10
1291586.8308053322
20
424238.4290329416
10
1291586.8662902978
20
424239.17751914926
10
1291586.8920315846
20
424239.92600535695
10
1291586.9080291926
20
424240.67449156457
10
1291586.914283122
20
424241.42297777225
10
1291586.9107933722
20
424242.17146397993
10
1291586.896953472
20
424242.9199501876
10
1291586.8727634214
20
424243.66843639524
10
1291586.8382232203
20
424244.4169226029
10
1291586.7933328683
20
424245.16540881066
10
1291586.7637250405
20
424245.91389501834
10
1291586.749399736
20
424246.66238122596
10
1291586.750356956
20
424247.41086743365
10
1291586.7665966996
20
424248.15935364127
10
1291586.81834824
20
424248.9078398489
10
1291586.905611577
20
424249.6563260567
10
1291587.0283867111
20
424250.4048122644
10
1291587.1866736417
20
424251.15329847194
10
1291587.3453947857
20
424251.8095287664
10
1291587.5045501431
20
424252.3735031475
10
1291587.6641397136
20
424252.8452216153
10
1291587.8241634972
20
424253.22468416987
10
1291588.015255894
20
424253.60153699905
10
1291588.2374169035
20
424253.97578010283
0
LWPOLYLINE
5
38
330
C
100
AcDbEntity
8
C-TOPO-MAJR-E
100
AcDbPolyline
90
277
70
0
43
0
38
0
39
0
10
1291515.0867939251
20
424125.0313795166
10
1291515.835280133
20
424125.4694819115
10
1291516.5837663403
20
424125.803435268
10
1291517.332252548
20
424126.0332395859
10
1291518.0807387556
20
424126.1588948651
10
1291518.6928356749
20
424126.26457176905
10
1291519.1685433055
20
424126.35027029755
10
1291519.5078616478
20
424126.41599045065
10
1291519.7107907014
20
424126.4617322284
10
1291519.9993767804
20
424126.5606021001
10
1291520.3736198843
20
424126.712600066
10
1291520.833520013
20
424126.9177261259
10
1291521.379077167
20
424127.1759802798
10
1291521.8686696568
20
424127.49222890876
10
1291522.3022974825
20
424127.8664720126
10
1291522.6799606443
20
424128.2987095913
10
1291523.0016591419
20
424128.78894164506
10
1291523.3496299428
20
424129.2705210294
10
1291523.7238730465
20
424129.7434477445
10
1291524.1243884533
20
424130.20772179024
10
1291524.5511761636
20
424130.6633431665
10
1291524.948730186
20
424131.0782754066
10
1291525.3170505208
20
424131.4525185105
10
1291525.656137168
20
424131.78607247805
10
1291525.965990127
20
424132.0789373094
10
1291526.3080381588
20
424132.3445748526
10
1291526.6822812627
20
424132.58298510767
10
1291527.0887194388
20
424132.79416807473
10
1291527.527352687
20
424132.9781237536
10
1291528.043449175
20
424133.17427439895
10
1291528.637008903
20
424133.38262001064
10
1291529.308031871
20
424133.60316058865
10
1291530.0565180783
20
424133.835896133
10
1291530.805004286
20
424134.0588108613
10
1291531.553490494
20
424134.2719047736
10
1291532.3019767015
20
424134.4751778698
10
1291533.050462909
20
424134.6686301499
10
1291533.7174804104
20
424134.8483050361
10
1291534.3030292052
20
424135.0142025282
10
1291534.8071092938
20
424135.16632262646
10
1291535.229720676
20
424135.3046653307
10
1291535.6281479192
20
424135.43434945313
10
1291536.002391023
20
424135.5553749938
10
1291536.3524499878
20
424135.6677419527
10
1291536.6783248133
20
424135.77145032975
10
1291537.1098524842
20
424135.9637118295
10
1291537.6470330008
20
424136.24452645204
10
1291538.289866363
20
424136.61389419716
10
1291539.0383525703
20
424137.071815065
10
1291539.655847323
20
424137.4619699566
10
1291540.1423506206
20
424137.78435887187
10
1291540.4978624631
20
424138.0389818109
10
1291540.7223828507
20
424138.2258387736
10
1291541.0217645965
20
424138.48053211515
10
1291541.3960077001
20
424138.8030618355
10
1291541.8451121622
20
424139.1934279347
10
1291542.3690779824
20
424139.6516304127
10
1291542.857274678
20
424140.0678532036
10
1291543.3097022497
20
424140.44209630747
10
1291543.7263606966
20
424140.7743597242
10
1291544.107250019
20
424141.0646434539
10
1291544.4848162322
20
424141.35306768253
10
1291544.8590593361
20
424141.63963240996
10
1291545.2299793307
20
424141.92433763633
10
1291545.5975762156
20
424142.2071833617
10
1291546.0506696745
20
424142.53572777624
10
1291546.5892597071
20
424142.90997088
10
1291547.2133463135
20
424143.32991267316
10
1291547.922929494
20
424143.79555315553
10
1291548.464842636
20
424144.1504946824
10
1291548.8390857396
20
424144.39473725384
10
1291549.0456588052
20
424144.5282808698
10
1291549.0845618327
20
424144.55112553027
10
1291549.3008606553
20
424144.67181111814
10
1291549.6945552728
20
424144.89033763355
10
1291550.2656456856
20
424145.2067050762
10
1291551.014131893
20
424145.6209134463
10
1291551.6957727664
20
424146.0094280181
10
1291552.3105683057
20
424146.3722487917
10
1291552.8585185106
20
424146.70937576704
10
1291553.3396233812
20
424147.0208089441
10
1291553.7672973685
20
424147.2973146284
10
1291554.1415404724
20
424147.5388928201
10
1291554.4623526926
20
424147.74554351903
10
1291554.7297340299
20
424147.9172667251
10
1291555.1173915844
20
424148.15745621704
10
1291555.625325357
20
424148.4661119947
10
1291556.253535347
20
424148.8432340581
10
1291557.0020215544
20
424149.2888224072
10
1291557.6340749045
20
424149.65580733214
10
1291558.149695397
20
424149.9441888328
10
1291558.5488830318
20
424150.1539669094
10
1291558.8316378093
20
424150.28514156176
10
1291559.1601367497
20
424150.4537074035
10
1291559.5343798534
20
424150.65966443485
10
1291559.9543671208
20
424150.90301265544
10
1291560.420098551
20
424151.1837520655
10
1291560.956518676
20
424151.4950806545
10
1291561.563627495
20
424151.8369984225
10
1291562.241425008
20
424152.20950536954
10
1291562.9899112158
20
424152.6126014954
10
1291563.5836573036
20
424152.9310862578
10
1291564.0226632713
20
424153.16495965666
10
1291564.306929119
20
424153.3142216919
10
1291564.436454847
20
424153.3788723636
10
1291564.6804532427
20
424153.61448191927
10
1291565.0389243062
20
424154.0210503589
10
1291565.511868038
20
424154.59857768257
10
1291566.0992844375
20
424155.34706389025
10
1291566.4913772307
20
424156.09555009793
10
1291566.688146417
20
424156.84403630556
10
1291566.6895919968
20
424157.59252251324
10
1291566.4957139702
20
424158.341008721
10
1291566.269849238
20
424159.08949492866
10
1291566.0119978003
20
424159.8379811363
10
1291565.7221596574
20
424160.58646734396
10
1291565.4003348087
20
424161.3349535516
10
1291565.1309412108
20
424162.0834397592
10
1291564.9139788635
20
424162.831925967
10
1291564.749447767
20
424163.58041217463
10
1291564.6373479213
20
424164.32889838226
10
1291564.5989031887
20
424165.07738458994
10
1291564.6341135695
20
424165.8258707976
10
1291564.7429790637
20
424166.5743570053
10
1291564.925499671
20
424167.322843213
10
1291565.1683834437
20
424168.07132942067
10
1291565.471630382
20
424168.8198156283
10
1291565.8352404854
20
424169.56830183597
10
1291566.2592137542
20
424170.3167880437
10
1291566.590406937
20
424170.8975042031
10
1291566.8288200342
20
424171.3104503141
10
1291566.974453045
20
424171.55562637676
10
1291567.0273059704
20
424171.63303239114
10
1291567.1814691673
20
424171.85885695025
10
1291567.4369426365
20
424172.2331000541
10
1291567.7937263774
20
424172.75576170266
10
1291568.2518203906
20
424173.42684189597
10
1291568.667988949
20
424174.0751103284
10
1291569.0422320527
20
424174.7005669998
10
1291569.3745497018
20
424175.3032119104
10
1291569.6649418967
20
424175.8830450602
10
1291569.905909915
20
424176.360083187
10
1291570.0974537567
20
424176.7343262908
10
1291570.239573422
20
424177.0057743717
10
1291570.3322689105
20
424177.17442742956
10
1291570.501637987
20
424177.4880387749
10
1291570.7476806515
20
424177.9466084078
10
1291571.0703969041
20
424178.550136328
10
1291571.4697867446
20
424179.29862253566
10
1291571.8334293447
20
424179.99784124806
10
1291572.161324704
20
424180.64779246505
10
1291572.4534728231
20
424181.2484761868
10
1291572.7098737017
20
424181.7998924134
10
1291572.926161383
20
424182.2627220785
10
1291573.1023358677
20
424182.6369651823
10
1291573.238397155
20
424182.92262172484
10
1291573.3343452453
20
424183.11969170603
10
1291573.4876988837
20
424183.45461574383
10
1291573.6984580702
20
424183.9273938383
10
1291573.9666228048
20
424184.5380259894
10
1291574.2921930877
20
424185.28651219705
10
1291574.5761533657
20
424186.03499840474
10
1291574.8185036387
20
424186.78348461236
10
1291575.0192439072
20
424187.53197082004
10
1291575.1783741708
20
424188.2804570278
10
1291575.3307664192
20
424189.02894323546
10
1291575.4764206524
20
424189.7774294431
10
1291575.6153368705
20
424190.52591565077
10
1291575.7475150733
20
424191.2744018584
10
1291575.8555635675
20
424191.8626437355
10
1291575.9394823532
20
424192.2906412822
10
1291575.9992714298
20
424192.55839449825
10
1291576.034930798
20
424192.66590338375
10
1291576.1320114231
20
424192.9067793785
10
1291576.2905133052
20
424193.28102248226
10
1291576.5104364443
20
424193.7886326952
10
1291576.7917808401
20
424194.4296100174
10
1291577.1056140885
20
424195.0974645609
10
1291577.4519361896
20
424195.7921963257
10
1291577.830747143
20
424196.51380531205
10
1291578.2420469485
20
424197.2622915198
10
1291578.5644823045
20
424197.85311269213
10
1291578.7980532101
20
424198.2862688291
10
1291578.942759666
20
424198.5617599307
10
1291578.998601672
20
424198.6795859969
10
1291579.1423858732
20
424198.92562058195
10
1291579.37411227
20
424199.29986368574
10
1291579.6937808625
20
424199.80231530836
10
1291580.10139165
20
424200.43297544995
10
1291580.4923185958
20
424201.07998482184
10
1291580.8665616997
20
424201.7433434243
10
1291581.2241209615
20
424202.42305125715
10
1291581.5649963818
20
424203.11910832056
10
1291581.8257630134
20
424203.6542584042
10
1291582.006420857
20
424204.02850150806
10
1291582.1069699125
20
424204.241837632
10
1291582.1274101804
20
424204.29426677636
10
1291582.1826153528
20
424204.52071018645
10
1291582.2725854306
20
424204.92116786237
10
1291582.3973204133
20
424205.49563980417
10
1291582.556820301
20
424206.24412601185
10
1291582.6756146215
20
424206.99261221953
10
1291582.753703374
20
424207.7410984271
10
1291582.7910865592
20
424208.4895846348
10
1291582.7877641767
20
424209.23807084246
10
1291582.749058328
20
424209.98655705014
10
1291582.6749690133
20
424210.73504325777
10
1291582.5654962324
20
424211.48352946545
10
1291582.4206399852
20
424212.23201567313
10
1291582.3040574184
20
424212.8162408917
10
1291582.2157485322
20
424213.23620512115
10
1291582.1557133258
20
424213.49190836155
10
1291582.1239518002
20
424213.5833506128
10
1291582.029929976
20
424213.81619329035
10
1291581.8736478537
20
424214.1904363942
10
1291581.6551054332
20
424214.70607992425
10
1291581.3743027141
20
424215.36312388076
10
1291581.0686421231
20
424216.0430284
10
1291580.7381236602
20
424216.74579348194
10
1291580.382747325
20
424217.47141912684
10
1291580.002513118
20
424218.2199053345
10
1291579.6954751422
20
424218.85441480426
10
1291579.4616333977
20
424219.3749475361
10
1291579.3009878849
20
424219.7815035299
10
1291579.213538603
20
424220.0740827858
10
1291579.1160331045
20
424220.4074939657
10
1291579.0084713888
20
424220.7817370695
10
1291578.8908534565
20
424221.1968120973
10
1291578.7631793066
20
424221.65271904913
10
1291578.6609370734
20
424222.1817708148
10
1291578.5841267563
20
424222.78396739456
10
1291578.5327483553
20
424223.45930878824
10
1291578.506801871
20
424224.20779499586
10
1291578.4750497984
20
424224.95628120354
10
1291578.4374921378
20
424225.70476741117
10
1291578.3941288893
20
424226.45325361885
10
1291578.3449600525
20
424227.2017398266
10
1291578.3235747344
20
424227.95022603427
10
1291578.3299729342
20
424228.6987122419
10
1291578.3641546522
20
424229.4471984496
10
1291578.4261198884
20
424230.19568465726
10
1291578.507799874
20
424230.8821585722
10
1291578.6091946093
20
424231.5066201945
10
1291578.7303040943
20
424232.069069524
10
1291578.8711283288
20
424232.5695065608
10
1291578.992879724
20
424233.0068466312
10
1291579.0955582797
20
424233.381089735
10
1291579.179163996
20
424233.6922358724
10
1291579.2436968724
20
424233.9402850432
10
1291579.3468126594
20
424234.31344347325
10
1291579.4885113565
20
424234.8117111625
10
1291579.668792964
20
424235.435088111
10
1291579.8876574815
20
424236.18357431865
10
1291580.0835417223
20
424236.93206052633
10
1291580.256445686
20
424237.6805467339
10
1291580.4063693732
20
424238.4290329416
10
1291580.5333127836
20
424239.17751914926
10
1291580.6225190628
20
424239.92600535695
10
1291580.673988211
20
424240.67449156457
10
1291580.6877202282
20
424241.42297777225
10
1291580.6637151144
20
424242.17146397993
10
1291580.6160015464
20
424242.9199501876
10
1291580.5445795238
20
424243.66843639524
10
1291580.4494490472
20
424244.4169226029
10
1291580.3306101162
20
424245.16540881066
10
1291580.2160656364
20
424245.91389501834
10
1291580.1058156076
20
424246.66238122596
10
1291579.99986003
20
424247.41086743365
10
1291579.8981989033
20
424248.15935364127
10
1291579.8087325122
20
424248.9078398489
10
1291579.7314608563
20
424249.6563260567
10
1291579.6663839358
20
424250.4048122644
10
1291579.6135017509
20
424251.15329847194
10
1291579.5698829065
20
424251.9017846796
10
1291579.5355274028
20
424252.6502708874
10
1291579.5104352399
20
424253.39875709504
10
1291579.4946064174
20
424254.14724330266
0
LWPOLYLINE
5
39
330
C
100
AcDbEntity
8
C-TOPO-MAJR-E
100
AcDbPolyline
90
326
70
0
43
0
38
0
39
0
10
1291472.4780700444
20
424124.65912937577
10
1291472.8951157657
20
424125.40761558345
10
1291473.25625076
20
424126.0095190061
10
1291473.5614750283
20
424126.46483964386
10
1291473.8107885695
20
424126.7735774966
10
1291474.0041913847
20
424126.9357325643
10
1291474.3363650476
20
424127.19977623364
10
1291474.8073095588
20
424127.5657085044
10
1291475.4170249184
20
424128.0335293767
10
1291476.1655111262
20
424128.6032388506
10
1291476.7333633688
20
424129.03467637254
10
1291477.1205816462
20
424129.32784194243
10
1291477.3271659585
20
424129.48273556045
10
1291477.3531163055
20
424129.49935722654
10
1291477.553213031
20
424129.59203604475
10
1291477.927456135
20
424129.7607720151
10
1291478.475845617
20
424130.00556513754
10
1291479.1983814775
20
424130.3264154122
10
1291479.9274049248
20
424130.64654468594
10
1291480.662915959
20
424130.9659529588
10
1291481.4049145798
20
424131.2846402309
10
1291482.1534007876
20
424131.602606502
10
1291482.7746196338
20
424131.8684986209
10
1291483.2685711184
20
424132.08231658745
10
1291483.635255241
20
424132.24406040163
10
1291483.8746720024
20
424132.35373006354
10
1291484.181501935
20
424132.4951793174
10
1291484.555745039
20
424132.66840816324
10
1291484.997401314
20
424132.8734166011
10
1291485.50647076
20
424133.110204631
10
1291486.0753943967
20
424133.3844572905
10
1291486.7041722238
20
424133.6961745797
10
1291487.3928042413
20
424134.04535649845
10
1291488.141290449
20
424134.43200304685
10
1291488.7679505784
20
424134.7532508655
10
1291489.2727846294
20
424135.0090999544
10
1291489.6557926023
20
424135.1995503135
10
1291489.9169744966
20
424135.32460194296
10
1291490.2346869959
20
424135.4712474821
10
1291490.6089300998
20
424135.63948693103
10
1291491.0397038083
20
424135.82932028966
10
1291491.5270081214
20
424136.04074755806
10
1291492.0796079081
20
424136.2514031544
10
1291492.6975031686
20
424136.4612870786
10
1291493.3806939027
20
424136.6703993308
10
1291494.12918011
20
424136.8787399108
10
1291494.8776663179
20
424137.05616774026
10
1291495.6261525257
20
424137.2026828192
10
1291496.3746387335
20
424137.31828514754
10
1291497.1231249408
20
424137.40297472524
10
1291497.8716111486
20
424137.4863257839
10
1291498.6200973564
20
424137.5683383234
10
1291499.3685835642
20
424137.64901234384
10
1291500.1170697715
20
424137.72834784514
10
1291500.8148877006
20
424137.8290227911
10
1291501.462037351
20
424137.9510371819
10
1291502.0585187227
20
424138.09439101734
10
1291502.6043318158
20
424138.25908429746
10
1291503.0643599143
20
424138.3945509428
10
1291503.438603018
20
424138.5007909534
10
1291503.7270611273
20
424138.5778043291
10
1291503.9297342417
20
424138.62559107004
10
1291504.2688606298
20
424138.7276900891
10
1291504.744440291
20
424138.8841013862
10
1291505.3564732254
20
424139.09482496127
10
1291506.1049594327
20
424139.3598608145
10
1291506.8534456403
20
424139.6463985326
10
1291507.601931848
20
424139.95443811564
10
1291508.350418056
20
424140.2839795636
10
1291509.0989042637
20
424140.63502287643
10
1291509.7057064283
20
424140.9194604362
10
1291510.1708245496
20
424141.13729224296
10
1291510.4942586278
20
424141.28851829673
10
1291510.6760086627
20
424141.37313859735
10
1291510.954005232
20
424141.4950856315
10
1291511.328248336
20
424141.65435939905
10
1291511.7987379741
20
424141.85095989995
10
1291512.3654741468
20
424142.0848871344
10
1291512.9776478284
20
424142.3198300586
10
1291513.6352590183
20
424142.55578867253
10
1291514.3383077173
20
424142.7927629765
10
1291515.0867939251
20
424143.03075297025
10
1291515.835280133
20
424143.2553473748
10
1291516.5837663403
20
424143.4665461902
10
1291517.332252548
20
424143.6643494164
10
1291518.0807387556
20
424143.8487570535
10
1291518.8227420172
20
424144.01010311686
10
1291519.5582623328
20
424144.14838760666
10
1291520.2872997024
20
424144.2636105228
10
1291521.0098541258
20
424144.3557718653
10
1291521.5582528897
20
424144.4256992474
10
1291521.9324959936
20
424144.473392669
10
1291522.1325834375
20
424144.4988521302
10
1291522.1585152214
20
424144.50207763084
10
1291522.1948473975
20
424144.50369038124
10
1291522.2415799652
20
424144.50369038124
10
1291522.2987129246
20
424144.50207763084
10
1291522.366246276
20
424144.4988521302
10
1291522.5871345035
20
424144.4876861546
10
1291522.9613776072
20
424144.4685797042
10
1291523.4889755873
20
424144.4415327789
10
1291524.169928444
20
424144.4065453788
10
1291524.8677646383
20
424144.35700672044
10
1291525.5824841703
20
424144.29291680385
10
1291526.3140870403
20
424144.2142756291
10
1291527.0625732476
20
424144.121083196
10
1291527.8110594554
20
424144.06333972
10
1291528.5595456632
20
424144.04104520095
10
1291529.308031871
20
424144.05419963895
10
1291530.0565180783
20
424144.10280303395
10
1291530.678652285
20
424144.1591496897
10
1291531.1744344905
20
424144.2232396063
10
1291531.5438646947
20
424144.29507278366
10
1291531.7869428978
20
424144.37464922183
10
1291532.0956035512
20
424144.4823251991
10
1291532.4698466551
20
424144.61810071545
10
1291532.9096722093
20
424144.7819757709
10
1291533.4150802137
20
424144.9739503655
10
1291533.9812577688
20
424145.20724410564
10
1291534.6082048751
20
424145.48185699136
10
1291535.295921532
20
424145.79778902273
10
1291536.0444077398
20
424146.1550401997
10
1291536.6657545161
20
424146.47279369144
10
1291537.159961861
20
424146.751049498
10
1291537.5270297746
20
424146.98980761936
10
1291537.7669582572
20
424147.1890680555
10
1291538.0740440502
20
424147.449092535
10
1291538.448287154
20
424147.7698810579
10
1291538.8896875686
20
424148.1514336242
10
1291539.3982452939
20
424148.5937502339
10
1291539.8653258309
20
424149.00203009066
10
1291540.2909291794
20
424149.3762731945
10
1291540.6750553397
20
424149.7164795454
10
1291541.0177043115
20
424150.02264914336
10
1291541.3761503492
20
424150.3512936402
10
1291541.750393453
20
424150.7024130358
10
1291542.140433623
20
424151.07600733027
10
1291542.546270859
20
424151.47207652364
10
1291542.940031829
20
424151.8572326722
10
1291543.3217165333
20
424152.231475776
10
1291543.6913249716
20
424152.5948058351
10
1291544.048857144
20
424152.9472228495
10
1291544.3852864034
20
424153.3986571622
10
1291544.70061275
20
424153.9491087732
10
1291544.994836183
20
424154.59857768257
10
1291545.2679567032
20
424155.34706389025
10
1291545.5022554721
20
424155.9814433989
10
1291545.6977324898
20
424156.5017162085
10
1291545.854387756
20
424156.9078823192
10
1291545.9722212711
20
424157.19994173077
10
1291546.1049028644
20
424157.5330929885
10
1291546.2524325368
20
424157.9073360923
10
1291546.4148102875
20
424158.32267104223
10
1291546.592036117
20
424158.7790978384
10
1291546.8433023128
20
424159.30853948736
10
1291547.1686088745
20
424159.91099598916
10
1291547.5679558027
20
424160.58646734396
10
1291548.0413430966
20
424161.3349535516
10
1291548.4208518383
20
424161.94858730707
10
1291548.7064820272
20
424162.4273686104
10
1291548.8982336638
20
424162.77129746147
10
1291548.996106748
20
424162.98037386045
10
1291549.1452443558
20
424163.27203361184
10
1291549.345646487
20
424163.6462767156
10
1291549.5973131424
20
424164.1031031719
10
1291549.9002443217
20
424164.6425129807
10
1291550.1717746332
20
424165.2341918891
10
1291550.4119040773
20
424165.87813989737
10
1291550.620632654
20
424166.5743570053
10
1291550.7979603629
20
424167.322843213
10
1291550.943764097
20
424168.07132942067
10
1291551.0580438562
20
424168.8198156283
10
1291551.1407996402
20
424169.56830183597
10
1291551.1920314496
20
424170.3167880437
10
1291551.250187437
20
424171.0652742514
10
1291551.315267603
20
424171.813760459
10
1291551.3872719472
20
424172.5622466667
10
1291551.4662004702
20
424173.3107328744
10
1291551.5599136092
20
424173.9707245475
10
1291551.6684113645
20
424174.54222168605
10
1291551.7916937359
20
424175.02522429003
10
1291551.9297607234
20
424175.41973235947
10
1291552.0932083058
20
424175.8041079461
10
1291552.282036483
20
424176.17835104995
10
1291552.4962452552
20
424176.542461671
10
1291552.7358346223
20
424176.89643980924
10
1291553.0427508578
20
424177.27217276976
10
1291553.4169939617
20
424177.6696605527
10
1291553.858563934
20
424178.088903158
10
1291554.3674607743
20
424178.5299005855
10
1291554.8204888657
20
424178.9375208512
10
1291555.2176482077
20
424179.31176395505
10
1291555.5589388004
20
424179.652629897
10
1291555.844360644
20
424179.96011867706
10
1291556.1741931175
20
424180.3180884567
10
1291556.5484362212
20
424180.7265392359
10
1291556.9670899552
20
424181.18547101476
10
1291557.4301543199
20
424181.6948837932
10
1291557.8166162388
20
424182.13671173435
10
1291558.1264757123
20
424182.51095483813
10
1291558.3597327406
20
424182.81761310465
10
1291558.5163873236
20
424183.05668653396
10
1291558.7473928228
20
424183.4231131578
10
1291559.052749238
20
424183.91689297627
10
1291559.4324565695
20
424184.5380259894
10
1291559.8865148167
20
424185.28651219705
10
1291560.2615018466
20
424185.9145734652
10
1291560.557417659
20
424186.42220979376
10
1291560.774262254
20
424186.80942118284
10
1291560.912035631
20
424187.0762076324
10
1291561.0776506837
20
424187.39672240906
10
1291561.2711074117
20
424187.77096551284
10
1291561.492405815
20
424188.1989369438
10
1291561.741545894
20
424188.680636702
10
1291562.0311427636
20
424189.22903307254
10
1291562.3611964239
20
424189.8441260555
10
1291562.7317068751
20
424190.52591565077
10
1291563.1426741173
20
424191.2744018584
10
1291563.4729942705
20
424191.86979578447
10
1291563.7226673348
20
424192.31209742907
10
1291563.8916933103
20
424192.6013067921
10
1291563.9800721973
20
424192.7374238735
10
1291564.1395189737
20
424192.99260396615
10
1291564.3700336395
20
424193.36684706993
10
1291564.6716161952
20
424193.86015318497
10
1291565.0442666402
20
424194.47252231126
10
1291565.4177134149
20
424195.06977081485
10
1291565.7919565188
20
424195.65189869585
10
1291566.166995952
20
424196.21890595433
10
1291566.5428317143
20
424196.7707925901
10
1291566.8581303153
20
424197.23385745997
10
1291567.112891755
20
424197.6081005638
10
1291567.307116033
20
424197.8935219016
10
1291567.44080315
20
424198.0901214735
10
1291567.595078237
20
424198.4246927043
10
1291567.769941294
20
424198.89723559405
10
1291567.9653923218
20
424199.5077501428
10
1291568.18143132
20
424200.25623635045
10
1291568.3164873896
20
424201.00472255814
10
1291568.37056053
20
424201.7532087658
10
1291568.3436507422
20
424202.5016949735
10
1291568.2357580254
20
424203.2501811812
10
1291568.1239143852
20
424203.99866738886
10
1291568.0081198215
20
424204.7471535965
10
1291567.8883743344
20
424205.49563980417
10
1291567.7646779239
20
424206.24412601185
10
1291567.6706343126
20
424206.99261221953
10
1291567.6062435005
20
424207.7410984271
10
1291567.5715054877
20
424208.4895846348
10
1291567.566420274
20
424209.23807084246
10
1291567.554047555
20
424209.98655705014
10
1291567.53438733
20
424210.73504325777
10
1291567.5074395996
20
424211.48352946545
10
1291567.4732043638
20
424212.23201567313
10
1291567.4278238025
20
424212.85506931844
10
1291567.3712979155
20
424213.3526904015
10
1291567.303626703
20
424213.7248789221
10
1291567.224810165
20
424213.9716348804
10
1291567.1232068026
20
424214.2821344115
10
1291566.9988166154
20
424214.6563775153
10
1291566.8516396042
20
424215.09436419193
10
1291566.6816757685
20
424215.5960944413
10
1291566.5205534818
20
424216.15951368026
10
1291566.3682727437
20
424216.78462190874
10
1291566.2248335548
20
424217.47141912684
10
1291566.0902359148
20
424218.2199053345
10
1291565.9951161393
20
424218.9683915422
10
1291565.9394742285
20
424219.7168777499
10
1291565.9233101823
20
424220.46536395757
10
1291565.9466240003
20
424221.2138501652
10
1291566.004694129
20
424221.9623363728
10
1291566.0975205682
20
424222.7108225806
10
1291566.2251033178
20
424223.45930878824
10
1291566.3874423779
20
424224.20779499586
10
1291566.5389238223
20
424224.8263618279
10
1291566.6795476512
20
424225.3150092841
10
1291566.8093138642
20
424225.67373736476
10
1291566.9282224618
20
424225.9025460697
10
1291567.0724068945
20
424226.20407197415
10
1291567.241867163
20
424226.578315078
10
1291567.4366032667
20
424227.0252753813
10
1291567.6566152056
20
424227.54495288397
10
1291567.9127337786
20
424228.12183256296
10
1291568.2049589853
20
424228.75591441814
10
1291568.533290826
20
424229.4471984496
10
1291568.8977293007
20
424230.19568465726
10
1291569.212067105
20
424230.84449356544
10
1291569.4763042396
20
424231.3936251742
10
1291569.6904407036
20
424231.8430794834
10
1291569.8544764977
20
424232.19285649323
10
1291570.0225751894
20
424232.5548665501
10
1291570.1947367787
20
424232.92910965387
10
1291570.3709612656
20
424233.31558580475
10
1291570.55124865
20
424233.71429500263
10
1291570.7526015588
20
424234.20044845296
10
1291570.9750199912
20
424234.77404615574
10
1291571.2185039476
20
424235.435088111
10
1291571.4830534281
20
424236.18357431865
10
1291571.7197948343
20
424236.93206052633
10
1291571.9287281663
20
424237.6805467339
10
1291572.1098534241
20
424238.4290329416
10
1291572.2631706076
20
424239.17751914926
10
1291572.4035056985
20
424239.92600535695
10
1291572.530858697
20
424240.67449156457
10
1291572.6452296022
20
424241.42297777225
10
1291572.7466184152
20
424242.17146397993
10
1291572.8348958616
20
424242.83748387825
10
1291572.910061941
20
424243.4210374672
10
1291572.972116654
20
424243.92212474684
10
1291573.02106
20
424244.34074571717
10
1291573.065997383
20
424244.7371777542
10
1291573.1069288033
20
424245.11142085807
10
1291573.1438542602
20
424245.46347502864
10
1291573.1767737542
20
424245.79334026604
10
1291573.2109415242
20
424246.22786074603
10
1291573.2463575706
20
424246.7670364685
10
1291573.2830218931
20
424247.41086743365
10
1291573.3209344915
20
424248.15935364127
10
1291573.3547952424
20
424248.9078398489
10
1291573.3846041458
20
424249.6563260567
10
1291573.4103612013
20
424250.4048122644
10
1291573.4320664092
20
424251.15329847194
10
1291573.4496097509
20
424251.9017846796
10
1291573.462991227
20
424252.6502708874
10
1291573.4722108366
20
424253.39875709504
10
1291573.4772685803
20
424254.14724330266
0
LWPOLYLINE
5
3A
330
C
100
AcDbEntity
8
C-TOPO-MAJR-E
100
AcDbPolyline
90
370
70
0
43
0
38
0
39
0
10
1291442.5425572572
20
424124.65912937577
10
1291442.8902567097
20
424125.40761558345
10
1291443.2099713872
20
424126.14169421064
10
1291443.5017012898
20
424126.8613652573
10
1291443.7654464177
20
424127.5666287235
10
1291444.0012067708
20
424128.2574846092
10
1291444.1829458866
20
424128.79003410396
10
1291444.310663765
20
424129.1642772078
10
1291444.3843604065
20
424129.3802139207
10
1291444.4040358106
20
424129.4378442427
10
1291444.480418861
20
424129.66818853613
10
1291444.6135095572
20
424130.0712468009
10
1291444.8033079
20
424130.64701903716
10
1291445.0498138892
20
424131.3955052448
10
1291445.3552695846
20
424132.1390214189
10
1291445.719674986
20
424132.8775675596
10
1291446.1430300942
20
424133.6111436666
10
1291446.625334909
20
424134.3397497401
10
1291446.9909565377
20
424134.8911743288
10
1291447.2398949806
20
424135.2654174326
10
1291447.3721502377
20
424135.4624790516
10
1291447.3877223092
20
424135.4823591858
10
1291447.5826298967
20
424135.6699252791
10
1291447.9568730006
20
424136.0251773316
10
1291448.5104516207
20
424136.5481153432
10
1291449.243365757
20
424137.2387393139
10
1291449.8227399234
20
424137.7711728512
10
1291450.2485741195
20
424138.1454159551
10
1291450.5208683456
20
424138.3614686255
10
1291450.6396226017
20
424138.4193308623
10
1291450.8861212817
20
424138.535226182
10
1291451.2603643856
20
424138.70915458456
10
1291451.7623519131
20
424138.94111606985
10
1291452.392083865
20
424139.23111063807
10
1291453.0515043805
20
424139.4583813292
10
1291453.74061346
20
424139.6229281433
10
1291454.4594111037
20
424139.7247510805
10
1291455.2078973115
20
424139.7638501407
10
1291455.9563835193
20
424139.8099199787
10
1291456.7048697271
20
424139.8629605946
10
1291457.4533559347
20
424139.9229719882
10
1291458.201842142
20
424139.9899541596
10
1291458.9503283496
20
424140.1195579022
10
1291459.6988145574
20
424140.3117832161
10
1291460.4473007652
20
424140.56663010106
10
1291461.195786973
20
424140.8840985573
10
1291461.7694025664
20
424141.1309353874
10
1291462.1681475453
20
424141.3071405913
10
1291462.3920219103
20
424141.4127141691
10
1291462.4410256613
20
424141.4476561209
10
1291462.6526490888
20
424141.60501339834
10
1291463.0268921927
20
424141.8847860016
10
1291463.563754973
20
424142.28697393055
10
1291464.2632374298
20
424142.81157718535
10
1291464.8771771607
20
424143.26100036467
10
1291465.4055741658
20
424143.63524346845
10
1291465.8484284447
20
424143.93430649675
10
1291466.2057399978
20
424144.1581894497
10
1291466.5715173264
20
424144.39662811474
10
1291466.94576043
20
424144.6496224919
10
1291467.3284693093
20
424144.9171725812
10
1291467.719643964
20
424145.1992783826
10
1291468.2001465068
20
424145.5045693454
10
1291468.769976938
20
424145.8330454697
10
1291469.4291352574
20
424146.18470675545
10
1291470.1776214647
20
424146.5595532026
10
1291470.9261076725
20
424146.835118833
10
1291471.6745938803
20
424147.0114036468
10
1291472.4230800879
20
424147.0884076437
10
1291473.1715662954
20
424147.0661308239
10
1291473.9200525032
20
424147.01698000485
10
1291474.6685387106
20
424146.9409551866
10
1291475.4170249184
20
424146.83805636904
10
1291476.1655111262
20
424146.70828355226
10
1291476.913997334
20
424146.6326325552
10
1291477.6624835418
20
424146.6111033777
10
1291478.4109697493
20
424146.64369602
10
1291479.1594559567
20
424146.7304104819
10
1291479.827864823
20
424146.8346636118
10
1291480.4161963474
20
424146.95645540964
10
1291480.9244505307
20
424147.0957858754
10
1291481.3526273724
20
424147.25265500916
10
1291481.7538373452
20
424147.3979119423
10
1291482.128080449
20
424147.53155667486
10
1291482.475356684
20
424147.65358920686
10
1291482.7956660502
20
424147.7640095382
10
1291483.2230196267
20
424147.89558805013
10
1291483.7574174134
20
424148.04832474235
10
1291484.3988594108
20
424148.2222196152
10
1291485.147345618
20
424148.41727266856
10
1291485.8958318257
20
424148.6066717917
10
1291486.6443180335
20
424148.7904169847
10
1291487.3928042413
20
424148.96850824764
10
1291488.141290449
20
424149.1409455804
10
1291488.8745728773
20
424149.3379174525
10
1291489.5926515267
20
424149.55942386406
10
1291490.2955263967
20
424149.8054648149
10
1291490.983197488
20
424150.0760403051
10
1291491.514154585
20
424150.285747948
10
1291491.888397689
20
424150.43458774354
10
1291492.1059267994
20
424150.52255969186
10
1291492.166741916
20
424150.5496637929
10
1291492.3994748057
20
424150.6657724639
10
1291492.8041254678
20
424150.8708857048
10
1291493.3806939027
20
424151.1650035158
10
1291494.12918011
20
424151.5481258967
10
1291494.8776663179
20
424151.919549113
10
1291495.6261525257
20
424152.2792731648
10
1291496.3746387335
20
424152.6272980519
10
1291497.1231249408
20
424152.9636237744
10
1291497.686187597
20
424153.2163515671
10
1291498.0638267016
20
424153.38548143
10
1291498.2560422546
20
424153.47101336304
10
1291498.2628342565
20
424153.47294736624
10
1291498.4533518092
20
424153.5273197072
10
1291498.8275949128
20
424153.6341303859
10
1291499.3855635677
20
424153.7933794023
10
1291500.1272577741
20
424154.0050667565
10
1291500.8706499806
20
424154.2123432569
10
1291501.6157401872
20
424154.4152089036
10
1291502.3625283944
20
424154.61366369657
10
1291503.1110146022
20
424154.8077076358
10
1291503.85950081
20
424154.9818477259
10
1291504.6079870178
20
424155.136083967
10
1291505.3564732254
20
424155.27041635895
10
1291506.1049594327
20
424155.3848449017
10
1291506.8534456403
20
424155.4735843603
10
1291507.601931848
20
424155.5366347347
10
1291508.350418056
20
424155.57399602485
10
1291509.0989042637
20
424155.5856682308
10
1291509.8473904715
20
424155.58963426616
10
1291510.5958766793
20
424155.58589413104
10
1291511.3443628869
20
424155.57444782543
10
1291512.0928490942
20
424155.5552953493
10
1291512.8413353018
20
424155.5484124305
10
1291513.5898215096
20
424155.55379906914
10
1291514.3383077173
20
424155.57145526516
10
1291515.0867939251
20
424155.60138101847
10
1291515.835280133
20
424155.63844998827
10
1291516.5837663403
20
424155.6826621745
10
1291517.332252548
20
424155.7340175772
10
1291518.0807387556
20
424155.7925161964
10
1291518.8292249632
20
424155.8356074989
10
1291519.577711171
20
424155.86329148477
10
1291520.3261973788
20
424155.87556815404
10
1291521.0746835861
20
424155.87243750674
10
1291521.823169794
20
424155.8653544696
10
1291522.5716560017
20
424155.85431904264
10
1291523.3201422095
20
424155.83933122596
10
1291524.0686284169
20
424155.82039101946
10
1291524.8171146247
20
424155.8297059501
10
1291525.5656008325
20
424155.86727601785
10
1291526.3140870403
20
424155.93310122273
10
1291527.0625732476
20
424156.02718156483
10
1291527.6917029384
20
424156.11658501666
10
1291528.201476112
20
424156.20131157816
10
1291528.5918927686
20
424156.2813612494
10
1291528.8629529083
20
424156.3567340303
10
1291529.18560453
20
424156.46928474185
10
1291529.5598476338
20
424156.61901338404
10
1291529.9856822197
20
424156.8059199569
10
1291530.463108288
20
424157.0300044603
10
1291531.0082993908
20
424157.2660222566
10
1291531.6212555286
20
424157.51397334575
10
1291532.3019767015
20
424157.77385772776
10
1291533.050462909
20
424158.0456754026
10
1291533.7989491168
20
424158.2937488939
10
1291534.5474353242
20
424158.5180782014
10
1291535.295921532
20
424158.71866332524
10
1291536.0444077398
20
424158.89550426544
10
1291536.6360849414
20
424159.0470707428
10
1291537.070953137
20
424159.17336275754
10
1291537.3490123267
20
424159.2743803095
10
1291537.4702625102
20
424159.3501233987
10
1291537.718009154
20
424159.56421721284
10
1291538.0922522577
20
424159.9166617518
10
1291538.5929918217
20
424160.4074570157
10
1291539.2202278457
20
424161.03660300456
10
1291539.710002498
20
424161.53829755087
10
1291540.0623157783
20
424161.91254065477
10
1291540.277167687
20
424162.1593323161
10
1291540.3545582236
20
424162.27867253486
10
1291540.4912163743
20
424162.5552992509
10
1291540.687142139
20
424162.9892124642
10
1291540.9423355178
20
424163.58041217463
10
1291541.2567965111
20
424164.32889838226
10
1291541.477508876
20
424165.07738458994
10
1291541.6044726125
20
424165.8258707976
10
1291541.6376877208
20
424166.5743570053
10
1291541.577154201
20
424167.322843213
10
1291541.4908924303
20
424168.07132942067
10
1291541.3789024088
20
424168.8198156283
10
1291541.241184136
20
424169.56830183597
10
1291541.0777376122
20
424170.3167880437
10
1291540.929688877
20
424171.0652742514
10
1291540.7970379307
20
424171.813760459
10
1291540.679784773
20
424172.5622466667
10
1291540.577929404
20
424173.3107328744
10
1291540.4850338479
20
424174.0253979167
10
1291540.4010981051
20
424174.7062417935
10
1291540.326122175
20
424175.353264505
10
1291540.2601060576
20
424175.96646605106
10
1291540.204540011
20
424176.460188376
10
1291540.1594240349
20
424176.83443147986
10
1291540.1247581292
20
424177.0891953626
10
1291540.1005422946
20
424177.2244800241
10
1291540.0547629604
20
424177.51306507224
10
1291539.987420127
20
424177.95495050686
10
1291539.8985137946
20
424178.550136328
10
1291539.7880439633
20
424179.29862253566
10
1291539.6855652109
20
424180.04710874334
10
1291539.5910775373
20
424180.79559495096
10
1291539.5045809427
20
424181.54408115864
10
1291539.4260754269
20
424182.2925673663
10
1291539.3509424143
20
424183.041053574
10
1291539.2791819042
20
424183.7895397817
10
1291539.210793897
20
424184.5380259894
10
1291539.145778393
20
424185.28651219705
10
1291539.080215706
20
424186.03499840474
10
1291539.014105836
20
424186.78348461236
10
1291538.9474487836
20
424187.53197082004
10
1291538.880244548
20
424188.2804570278
10
1291538.8334053168
20
424189.02894323546
10
1291538.8069310891
20
424189.7774294431
10
1291538.800821866
20
424190.52591565077
10
1291538.8150776462
20
424191.2744018584
10
1291538.8537002634
20
424192.022888066
10
1291538.9166897167
20
424192.7713742738
10
1291539.0040460066
20
424193.51986048144
10
1291539.115769133
20
424194.26834668906
10
1291539.2544194814
20
424194.92229499615
10
1291539.4199970518
20
424195.48170540255
10
1291539.6125018448
20
424195.9465779084
10
1291539.8319338595
20
424196.31691251363
10
1291540.1836294224
20
424196.6810218479
10
1291540.6675885338
20
424197.0389059112
10
1291541.2838111934
20
424197.39056470356
10
1291542.0322974012
20
424197.735998225
10
1291542.780783609
20
424197.9972515649
10
1291543.5292698168
20
424198.1743247233
10
1291544.2777560244
20
424198.26721770025
10
1291545.0262422317
20
424198.2759304957
10
1291545.7747284393
20
424198.25889588165
10
1291546.523214647
20
424198.21611385816
10
1291547.2717008549
20
424198.14758442517
10
1291548.0201870627
20
424198.0533075828
10
1291548.6674332237
20
424198.012170483
10
1291549.2134393384
20
424198.02417312586
10
1291549.6582054067
20
424198.0893155112
10
1291550.0017314283
20
424198.20759763924
10
1291550.360615991
20
424198.3465555819
10
1291550.734859095
20
424198.50618933927
10
1291551.1244607398
20
424198.6864989113
10
1291551.5294209258
20
424198.887484298
10
1291551.9313044834
20
424199.1750985433
10
1291552.3301114135
20
424199.5493416471
10
1291552.7258417152
20
424200.01021360955
10
1291553.1184953887
20
424200.5577144305
10
1291553.4481932982
20
424201.1554615982
10
1291553.7149354436
20
424201.8034551125
10
1291553.9187218247
20
424202.5016949735
10
1291554.0595524416
20
424203.2501811812
10
1291554.0318043316
20
424203.9323535169
10
1291553.8354774949
20
424204.5482119808
10
1291553.4705719312
20
424205.09775657277
10
1291552.9370876404
20
424205.5809872928
10
1291552.3498528707
20
424205.9517538253
10
1291551.7088676214
20
424206.21005617036
10
1291551.014131893
20
424206.35589432786
10
1291550.2656456856
20
424206.3892682978
10
1291549.5171594778
20
424206.3807729684
10
1291548.76867327
20
424206.33040833974
10
1291548.0201870622
20
424206.2381744116
10
1291547.2717008549
20
424206.10407118395
10
1291546.5542425504
20
424206.0949899496
10
1291545.8678121492
20
424206.21093070845
10
1291545.2124096514
20
424206.4518934605
10
1291544.5880350568
20
424206.81787820556
10
1291544.1139270784
20
424207.2794883164
10
1291543.7900857166
20
424207.8367237928
10
1291543.6165109708
20
424208.4895846348
10
1291543.5932028412
20
424209.23807084246
10
1291543.668920061
20
424209.98655705014
10
1291543.8436626303
20
424210.73504325777
10
1291544.117430549
20
424211.48352946545
10
1291544.4902238173
20
424212.23201567313
10
1291544.8385411324
20
424212.8958779497
10
1291545.1623824947
20
424213.4751162953
10
1291545.4617479036
20
424213.96973070974
10
1291545.7366373595
20
424214.3797211931
10
1291545.993887179
20
424214.7718379867
10
1291546.2334973621
20
424215.14608109056
10
1291546.4554679089
20
424215.50245050463
10
1291546.6597988193
20
424215.8409462289
10
1291546.9367721102
20
424216.28193957405
10
1291547.2863877816
20
424216.82543054
10
1291547.7086458334
20
424217.47141912684
10
1291548.2035462658
20
424218.2199053345
10
1291548.5870353065
20
424218.7993032937
10
1291548.859112955
20
424219.20961300435
10
1291549.0197792118
20
424219.4508344665
10
1291549.0690340765
20
424219.52296768007
10
1291549.251088664
20
424219.7461558388
10
1291549.5659429738
20
424220.1203989426
10
1291550.0135970062
20
424220.6456969916
10
1291550.594050761
20
424221.32204998564
10
1291551.0713991905
20
424221.87174822774
10
1291551.4456422944
20
424222.29479171796
10
1291551.7167800725
20
424222.5911804563
10
1291551.8848125255
20
424222.7609144427
10
1291552.139212603
20
424223.0329029878
10
1291552.4799803055
20
424223.4071460917
10
1291552.9071156331
20
424223.88364375423
10
1291553.4206185853
20
424224.4623959755
10
1291553.8644916136
20
424224.9704837933
10
1291554.2387347175
20
424225.4079072077
10
1291554.543347897
20
424225.7746662186
10
1291554.7783311522
20
424226.07076082606
10
1291555.0271254464
20
424226.4059296817
10
1291555.2897307796
20
424226.78017278557
10
1291555.5661471514
20
424227.1934901376
10
1291555.8563745618
20
424227.64588173776
10
1291556.188609819
20
424228.1459534439
10
1291556.5628529228
20
424228.693705256
10
1291556.9791038735
20
424229.28913717397
10
1291557.4373626704
20
424229.9322491979
10
1291557.7958592682
20
424230.44092676183
10
1291558.054593666
20
424230.8151698656
10
1291558.2135658646
20
424231.05497850943
10
1291558.2727758635
20
424231.1603526932
10
1291558.4321401778
20
424231.42650488287
10
1291558.691658807
20
424231.8534350785
10
1291559.0513317517
20
424232.44114328024
10
1291559.5111590114
20
424233.1896294879
10
1291559.9133916935
20
424233.8409630548
10
1291560.258029798
20
424234.3951439808
10
1291560.5450733246
20
424234.852172266
10
1291560.7745222733
20
424235.2120479103
10
1291561.0015393882
20
424235.57910728443
10
1291561.2261246685
20
424235.9533503883
10
1291561.448278115
20
424236.3347772219
10
1291561.6679997272
20
424236.72338778514
10
1291561.9300976654
20
424237.2019672595
10
1291562.2345719298
20
424237.77051564504
10
1291562.5814225203
20
424238.4290329416
10
1291562.9706494368
20
424239.17751914926
10
1291563.297454044
20
424239.81809795665
10
1291563.5618363419
20
424240.35076936363
10
1291563.76379633
20
424240.7755333704
10
1291563.903334009
20
424241.0923899768
10
1291564.0464061545
20
424241.43793983187
10
1291564.193012766
20
424241.8121829357
10
1291564.3431538444
20
424242.21511928824
10
1291564.496829389
20
424242.6467488895
10
1291564.663747693
20
424243.1575926424
10
1291564.8439087565
20
424243.74765054684
10
1291565.0373125796
20
424244.4169226029
10
1291565.2439591622
20
424245.16540881066
10
1291565.4319549133
20
424245.91389501834
10
1291565.601299833
20
424246.66238122596
10
1291565.7519939214
20
424247.41086743365
10
1291565.8840371785
20
424248.15935364127
10
1291566.0026050508
20
424248.9078398489
10
1291566.1076975388
20
424249.6563260567
10
1291566.199314642
20
424250.4048122644
10
1291566.2774563606
20
424251.15329847194
10
1291566.3418142418
20
424251.9017846796
10
1291566.3923882851
20
424252.6502708874
10
1291566.4291784912
20
424253.39875709504
10
1291566.4521848597
20
424254.14724330266
0
LWPOLYLINE
5
3B
330
C
100
AcDbEntity
8
C-TOPO-MAJR-E
100
AcDbPolyline
90
321
70
0
43
0
38
0
39
0
10
1291432.4882805806
20
424147.8267144443
10
1291432.861287633
20
424148.2009575482
10
1291433.38215275
20
424148.73704984016
10
1291434.0508759315
20
424149.43499132025
10
1291434.5723590744
20
424149.976349579
10
1291434.946602178
20
424150.3611246164
10
1291435.173605243
20
424150.58931643254
10
1291435.2533682692
20
424150.6609250273
10
1291435.4883945803
20
424150.8838508766
10
1291435.8786841761
20
424151.2580939805
10
1291436.4242370573
20
424151.78365433885
10
1291437.1250532235
20
424152.4605319517
10
1291437.6625828585
20
424152.97581833915
10
1291438.0368259624
20
424153.3295135012
10
1291438.247782535
20
424153.5216174378
10
1291438.2954525766
20
424153.5521301489
10
1291438.5183266597
20
424153.69713703153
10
1291438.9164047842
20
424153.9566380856
10
1291439.4896869506
20
424154.3306333112
10
1291440.238173158
20
424154.81912270817
10
1291440.8903857074
20
424155.2428607808
10
1291441.446324598
20
424155.6018475292
10
1291441.9059898306
20
424155.896082953
10
1291442.2693814049
20
424156.1255670525
10
1291442.6381987436
20
424156.33515559504
10
1291443.0124418475
20
424156.5248485807
10
1291443.3921107163
20
424156.6946460095
10
1291443.7772053499
20
424156.8445478813
10
1291444.253147877
20
424157.0158337125
10
1291444.8199382976
20
424157.208503503
10
1291445.4775766118
20
424157.42255725287
10
1291446.2260628194
20
424157.65799496206
10
1291446.9745490272
20
424157.90510922985
10
1291447.7230352345
20
424158.1639000562
10
1291448.4715214423
20
424158.4343674411
10
1291449.22000765
20
424158.7165113845
10
1291449.823238708
20
424158.9483700129
10
1291450.2812146163
20
424159.1299433261
10
1291450.593935375
20
424159.2612313244
10
1291450.761400984
20
424159.34223400766
10
1291451.0322553404
20
424159.47039567214
10
1291451.4064984443
20
424159.64571631805
10
1291451.8841302956
20
424159.86819594516
10
1291452.4651508941
20
424160.1378345536
10
1291453.088037895
20
424160.45720711915
10
1291453.7527912983
20
424160.8263136418
10
1291454.4594111037
20
424161.24515412166
10
1291455.2078973115
20
424161.7137285586
10
1291455.7751453693
20
424162.0677276769
10
1291456.1611552774
20
424162.3071514765
10
1291456.3659270352
20
424162.4319999574
10
1291456.3894606435
20
424162.4422731197
10
1291456.5883489994
20
424162.5336143893
10
1291456.9625921033
20
424162.7060237663
10
1291457.512189955
20
424162.95950125065
10
1291458.2371425545
20
424163.2940468423
10
1291458.9679785562
20
424163.55481889617
10
1291459.7046979596
20
424163.74181741214
10
1291460.4473007652
20
424163.8550423903
10
1291461.195786973
20
424163.8944938305
10
1291461.9442731806
20
424163.89654861746
10
1291462.6927593881
20
424163.8612067511
10
1291463.441245596
20
424163.78846823133
10
1291464.1897318033
20
424163.67833305825
10
1291464.938218011
20
424163.5577587547
10
1291465.6867042189
20
424163.4267453208
10
1291466.4351904267
20
424163.2852927564
10
1291467.183676634
20
424163.13340106164
10
1291467.822433695
20
424162.9914897496
10
1291468.3514616094
20
424162.8595588201
10
1291468.770760377
20
424162.73760827334
10
1291469.0803299975
20
424162.6256381093
10
1291469.4222363597
20
424162.50734292244
10
1291469.7964794636
20
424162.3827227129
10
1291470.203059309
20
424162.2517774806
10
1291470.641975896
20
424162.1145072255
10
1291471.158284888
20
424161.98965235037
10
1291471.7519862854
20
424161.8772128551
10
1291472.4230800879
20
424161.7771887396
10
1291473.1715662954
20
424161.68958000414
10
1291473.9200525032
20
424161.6675572599
10
1291474.6685387106
20
424161.7111205071
10
1291475.4170249184
20
424161.8202697457
10
1291476.1655111262
20
424161.9950049756
10
1291476.7642456186
20
424162.13859233825
10
1291477.2132283957
20
424162.2510318335
10
1291477.5124594572
20
424162.3323234615
10
1291477.6619388035
20
424162.38246722217
10
1291477.9238000286
20
424162.4795579172
10
1291478.2980431325
20
424162.6235955467
10
1291478.7846681152
20
424162.8145801106
10
1291479.3836749762
20
424163.05251160887
10
1291480.020051674
20
424163.30379431107
10
1291480.6937982086
20
424163.56842821726
10
1291481.4049145798
20
424163.8464133273
10
1291482.1534007876
20
424164.13774964126
10
1291482.8375870604
20
424164.4110564756
10
1291483.4574733982
20
424164.66633383033
10
1291484.0130598014
20
424164.90358170535
10
1291484.5043462696
20
424165.12280010065
10
1291484.9371110557
20
424165.3162416063
10
1291485.3113541596
20
424165.48390622233
10
1291485.627075581
20
424165.62579394854
10
1291485.8842753207
20
424165.74190478504
10
1291486.264296677
20
424165.87096456264
10
1291486.7671396506
20
424166.0129732812
10
1291487.3928042413
20
424166.16793094075
10
1291488.141290449
20
424166.3358375414
10
1291488.8897766566
20
424166.45235529356
10
1291489.6382628642
20
424166.5174841973
10
1291490.386749072
20
424166.53122425254
10
1291491.1352352793
20
424166.4935754594
10
1291491.8837214871
20
424166.43966879026
10
1291492.632207695
20
424166.3695042451
10
1291493.3806939027
20
424166.28308182396
10
1291494.12918011
20
424166.1804015268
10
1291494.8776663179
20
424166.11404405744
10
1291495.6261525257
20
424166.08400941576
10
1291496.3746387335
20
424166.0902976018
10
1291497.1231249408
20
424166.13290861563
10
1291497.8716111486
20
424166.24681484804
10
1291498.6200973564
20
424166.432016299
10
1291499.3685835642
20
424166.6885129685
10
1291500.1170697715
20
424167.0163048566
10
1291500.830483278
20
424167.3207475124
10
1291501.5088240833
20
424167.6018409359
10
1291502.1520921872
20
424167.8595851271
10
1291502.7602875899
20
424168.09398008604
10
1291503.2515068431
20
424168.2849542042
10
1291503.6257499468
20
424168.4325074819
10
1291503.883016901
20
424168.5366399187
10
1291504.0233077062
20
424168.59735151485
10
1291504.315647362
20
424168.6685597548
10
1291504.7600358683
20
424168.75026463845
10
1291505.3564732254
20
424168.84246616584
10
1291506.1049594327
20
424168.945164337
10
1291506.8534456403
20
424169.03180796467
10
1291507.601931848
20
424169.10239704873
10
1291508.350418056
20
424169.15693158936
10
1291509.0989042637
20
424169.19541158644
10
1291509.8473904715
20
424169.28162499564
10
1291510.5958766793
20
424169.4155718171
10
1291511.3443628869
20
424169.5972520506
10
1291512.0928490942
20
424169.8266656963
10
1291512.8098389073
20
424170.07802162995
10
1291513.4953323256
20
424170.3513198516
10
1291514.1493293492
20
424170.6465603612
10
1291514.771829978
20
424170.9637431588
10
1291515.2702018444
20
424171.21858638054
10
1291515.6444449483
20
424171.4110900265
10
1291515.8945592896
20
424171.54125409655
10
1291516.0205448684
20
424171.6090785908
10
1291516.3021556044
20
424171.8269441448
10
1291516.7393914976
20
424172.1948507584
10
1291517.332252548
20
424172.71279843175
10
1291518.0807387556
20
424173.3807871648
10
1291518.644206437
20
424173.8849469597
10
1291519.022655592
20
424174.22527781635
10
1291519.216086221
20
424174.4017797349
10
1291519.2244983234
20
424174.4144527153
10
1291519.2572980493
20
424174.6110790025
10
1291519.3144853984
20
424174.9916585965
10
1291519.3960603708
20
424175.55619149737
10
1291519.5020229663
20
424176.30467770505
10
1291519.5529012387
20
424176.98324751836
10
1291519.548695187
20
424177.5919009374
10
1291519.4894048125
20
424178.130637962
10
1291519.3750301143
20
424178.5994585923
10
1291519.2723875185
20
424179.02099045936
10
1291519.1814770256
20
424179.39523356326
10
1291519.102298635
20
424179.7221879038
10
1291519.0348523469
20
424180.00185348117
10
1291518.9202884603
20
424180.3987242161
10
1291518.758606975
20
424180.91280010855
10
1291518.5498078912
20
424181.54408115864
10
1291518.293891209
20
424182.2925673663
10
1291518.0748710018
20
424183.041053574
10
1291517.8927472695
20
424183.7895397817
10
1291517.7475200128
20
424184.5380259894
10
1291517.6391892307
20
424185.28651219705
10
1291517.6443882564
20
424186.03499840474
10
1291517.7631170892
20
424186.78348461236
10
1291517.9953757292
20
424187.53197082004
10
1291518.3411641766
20
424188.2804570278
10
1291518.6219818383
20
424188.8638330362
10
1291518.8378287144
20
424189.28209884535
10
1291518.988704805
20
424189.53525445523
10
1291519.0746101097
20
424189.6232998659
10
1291519.3228858344
20
424189.85444412316
10
1291519.733531979
20
424190.22868722695
10
1291520.3065485433
20
424190.7460291774
10
1291521.0419355272
20
424191.40646997443
10
1291521.5967505714
20
424191.90650946123
10
1291521.9709936753
20
424192.2461476379
10
1291522.164664839
20
424192.4253845044
10
1291522.1777640623
20
424192.4442200606
10
1291522.3369380296
20
424192.64075939066
10
1291522.6421867406
20
424193.01500249456
10
1291523.0935101951
20
424193.5669493722
10
1291523.690908393
20
424194.29660002346
10
1291524.176729044
20
424194.95843873214
10
1291524.5509721478
20
424195.5524654981
10
1291524.8136377046
20
424196.0786803213
10
1291524.9647257142
20
424196.53708320187
10
1291525.107961543
20
424196.953406194
10
1291525.2433451908
20
424197.32764929783
10
1291525.3708766573
20
424197.65981251333
10
1291525.4905559432
20
424197.9498958405
10
1291525.6137389506
20
424198.3545798878
10
1291525.7404256798
20
424198.8738646552
10
1291525.8706161303
20
424199.5077501428
10
1291526.0043103027
20
424200.25623635045
10
1291526.158730804
20
424201.00472255814
10
1291526.3338776343
20
424201.7532087658
10
1291526.5297507937
20
424202.5016949735
10
1291526.7463502823
20
424203.2501811812
10
1291526.978428214
20
424203.93259660894
10
1291527.2259845887
20
424204.54894125677
10
1291527.4890194067
20
424205.0992151247
10
1291527.7675326676
20
424205.58341821266
10
1291528.0219079508
20
424206.0126413086
10
1291528.2521452557
20
424206.38688441244
10
1291528.4582445826
20
424206.7061475242
10
1291528.6402059316
20
424206.97043064376
10
1291528.918308158
20
424207.3110280919
10
1291529.2925512618
20
424207.72793986835
10
1291529.762935243
20
424208.2211659732
10
1291530.329460102
20
424208.7907064065
10
1291530.8011791587
20
424209.2625981751
10
1291531.1780924133
20
424209.6368412789
10
1291531.4601998662
20
424209.913435718
10
1291531.647501517
20
424210.0923814924
10
1291531.9282738944
20
424210.4041918968
10
1291532.3025169983
20
424210.8488669312
10
1291532.7702308286
20
424211.4264065957
10
1291533.3314153852
20
424212.1368108901
10
1291533.7578175012
20
424212.67913458927
10
1291534.0494371764
20
424213.0533776931
10
1291534.2062744107
20
424213.25954020163
10
1291534.2283292045
20
424213.29762211477
10
1291534.30775938
20
424213.5133051016
10
1291534.444564938
20
424213.90658916207
10
1291534.6387458781
20
424214.4774742961
10
1291534.8903022006
20
424215.22596050386
10
1291535.0999060841
20
424215.97444671154
10
1291535.2675575293
20
424216.72293291916
10
1291535.3932565353
20
424217.47141912684
10
1291535.4770031027
20
424218.2199053345
10
1291535.5370348804
20
424218.9683915422
10
1291535.5733518684
20
424219.7168777499
10
1291535.585954067
20
424220.46536395757
10
1291535.5748414763
20
424221.2138501652
10
1291535.6061322794
20
424221.9623363728
10
1291535.6798264764
20
424222.7108225806
10
1291535.795924068
20
424223.45930878824
10
1291535.9544250537
20
424224.20779499586
10
1291536.1342358254
20
424224.86695099814
10
1291536.3353563831
20
424225.43677679496
10
1291536.5577867269
20
424225.91727238643
10
1291536.8015268566
20
424226.30843777244
10
1291537.072398868
20
424226.6911420174
10
1291537.3704027606
20
424227.0653851212
10
1291537.695538535
20
424227.4311670839
10
1291538.0478061908
20
424227.7884879056
10
1291538.4110615707
20
424228.16985426843
10
1291538.7853046744
20
424228.5752661724
10
1291539.1705355023
20
424229.0047236175
10
1291539.566754054
20
424229.4582266038
10
1291539.9070759066
20
424229.87209964887
10
1291540.1915010605
20
424230.2463427527
10
1291540.420029515
20
424230.5809559153
10
1291540.5926612704
20
424230.87593913666
10
1291540.834403438
20
424231.28429810464
10
1291541.1452560178
20
424231.80603281915
10
1291541.5252190097
20
424232.44114328024
10
1291541.9742924143
20
424233.1896294879
10
1291542.3427927294
20
424233.8027832346
10
1291542.6307199553
20
424234.28060452035
10
1291542.8380740923
20
424234.623093345
10
1291542.9648551405
20
424234.8302497088
10
1291543.1487132532
20
424235.12094944256
10
1291543.38964843
20
424235.49519254634
10
1291543.6876606715
20
424235.95297902025
10
1291544.0427499774
20
424236.49430886423
10
1291544.4074161823
20
424237.04812703514
10
1291544.7816592862
20
424237.61443353305
10
1291545.1654792891
20
424238.19322835794
10
1291545.5588761906
20
424238.7845115099
10
1291545.8907140861
20
424239.26727463776
10
1291546.1609929756
20
424239.64151774155
10
1291546.3697128587
20
424239.90724082134
10
1291546.5168737357
20
424240.06444387714
10
1291546.753921757
20
424240.36946772086
10
1291547.0808569225
20
424240.82231235254
10
1291547.4976792324
20
424241.42297777225
10
1291548.0043886865
20
424242.17146397993
10
1291548.4080747464
20
424242.7698482397
10
1291548.7087374115
20
424243.2181305516
10
1291548.9063766827
20
424243.51631091564
10
1291549.0009925594
20
424243.66438933177
10
1291549.1670214718
20
424243.9255500917
10
1291549.4044634204
20
424244.29979319556
10
1291549.7133184052
20
424244.7871186433
10
1291550.0935864258
20
424245.38752643485
10
1291550.470841988
20
424245.9425752462
10
1291550.845085092
20
424246.45226507727
10
1291551.2163157375
20
424246.91659592814
10
1291551.5845339242
20
424247.3355677988
10
1291551.9172502172
20
424247.73217528604
10
1291552.214464616
20
424248.1064183898
10
1291552.4761771208
20
424248.4582971103
10
1291552.7023877315
20
424248.7878114473
10
1291552.9830016934
20
424249.22206875193
10
1291553.3180190064
20
424249.76106902433
10
1291553.7074396703
20
424250.4048122644
10
1291554.1512636857
20
424251.15329847194
10
1291554.5037445924
20
424251.8229389227
10
1291554.7648823909
20
424252.4137336165
10
1291554.934677081
20
424252.9256825532
10
1291555.0131286627
20
424253.358785733
10
1291555.0868066247
20
424253.76245887484
0
LWPOLYLINE
5
3C
330
C
100
AcDbEntity
8
C-TOPO-MAJR-E
100
AcDbPolyline
90
269
70
0
43
0
38
0
39
0
10
1291537.009155886
20
424254.0117438842
10
1291536.7934407399
20
424253.5665232408
10
1291536.5443098655
20
424253.05032505793
10
1291536.2803545436
20
424252.4760548688
10
1291536.0015747747
20
424251.84371267346
10
1291535.7079705582
20
424251.15329847194
10
1291535.399541894
20
424250.4048122644
10
1291535.1204887289
20
424249.7345719464
10
1291534.870811062
20
424249.142577518
10
1291534.6505088941
20
424248.62882897945
10
1291534.4595822245
20
424248.1933263307
10
1291534.2824091818
20
424247.7884534543
10
1291534.1189897652
20
424247.4142103505
10
1291533.9693239755
20
424247.07059701916
10
1291533.8334118123
20
424246.75761346036
10
1291533.6358401647
20
424246.33575423935
10
1291533.3766090332
20
424245.8050193561
10
1291533.0557184177
20
424245.16540881066
10
1291532.6731683179
20
424244.4169226029
10
1291532.3287497568
20
424243.74272345036
10
1291532.022462735
20
424243.14281135297
10
1291531.7543072514
20
424242.6171863107
10
1291531.524283307
20
424242.16584832355
10
1291531.3131900271
20
424241.75305777806
10
1291531.121027412
20
424241.3788146742
10
1291530.9477954614
20
424241.043119012
10
1291530.7934941757
20
424240.7459707915
10
1291530.5799381197
20
424240.3359880742
10
1291530.3071272937
20
424239.8131708602
10
1291529.975061697
20
424239.17751914926
10
1291529.58374133
20
424238.4290329416
10
1291529.2395349161
20
424237.7715345704
10
1291528.942442455
20
424237.20502403565
10
1291528.692463947
20
424236.7295013373
10
1291528.489599392
20
424236.3449664755
10
1291528.2929636692
20
424235.96557749267
10
1291528.1025567786
20
424235.5913343888
10
1291527.91837872
20
424235.222237164
10
1291527.7404294936
20
424234.8582858182
10
1291527.530778755
20
424234.3982007569
10
1291527.2894265037
20
424233.84198198013
10
1291527.0163727405
20
424233.1896294879
10
1291526.711617465
20
424232.44114328024
10
1291526.4364915136
20
424231.69265707256
10
1291526.1909948864
20
424230.94417086494
10
1291525.9751275838
20
424230.19568465726
10
1291525.7888896056
20
424229.4471984496
10
1291525.63161817
20
424228.6987122419
10
1291525.5033132774
20
424227.95022603427
10
1291525.4039749273
20
424227.2017398266
10
1291525.3336031202
20
424226.45325361885
10
1291525.2877854696
20
424225.70476741117
10
1291525.2665219759
20
424224.95628120354
10
1291525.269812639
20
424224.20779499586
10
1291525.2976574588
20
424223.45930878824
10
1291525.3169474686
20
424222.7108225806
10
1291525.3276826679
20
424221.9623363728
10
1291525.329863057
20
424221.2138501652
10
1291525.3234886357
20
424220.46536395757
10
1291525.3110472402
20
424219.7181371928
10
1291525.2925388701
20
424218.9721698708
10
1291525.2679635258
20
424218.2274619917
10
1291525.2373212068
20
424217.48401355546
10
1291525.2143016285
20
424216.9251677854
10
1291525.198904791
20
424216.5509246816
10
1291525.1911306935
20
424216.36128424393
10
1291525.1909793364
20
424216.3562464725
10
1291525.1492019764
20
424216.165346592
10
1291525.065798613
20
424215.7885846025
10
1291524.9407692463
20
424215.22596050386
10
1291524.774113876
20
424214.4774742961
10
1291524.5618319064
20
424213.72898808843
10
1291524.303923337
20
424212.9805018808
10
1291524.000388168
20
424212.23201567313
10
1291523.6512263995
20
424211.48352946545
10
1291523.3312256448
20
424210.82443565794
10
1291523.0403859045
20
424210.2547342506
10
1291522.7787071783
20
424209.77442524343
10
1291522.546189466
20
424209.38350863644
10
1291522.3331408193
20
424209.000928781
10
1291522.1395612378
20
424208.6266856772
10
1291521.9654507213
20
424208.260779325
10
1291521.81080927
20
424207.90320972423
10
1291521.606581952
20
424207.4479109718
10
1291521.3527687672
20
424206.89488306775
10
1291521.0493697154
20
424206.24412601185
10
1291520.6963847966
20
424205.49563980417
10
1291520.3714311481
20
424204.77637531585
10
1291520.07450877
20
424204.086332547
10
1291519.8056176617
20
424203.42551149754
10
1291519.564757824
20
424202.7939121674
10
1291519.3720917762
20
424202.29099095054
10
1291519.227619519
20
424201.91674784676
10
1291519.131341052
20
424201.671182856
10
1291519.0832563753
20
424201.5542959784
10
1291519.0082778912
20
424201.2795092683
10
1291518.9064055996
20
424200.8468227256
10
1291518.7776395006
20
424200.25623635045
10
1291518.6219795942
20
424199.5077501428
10
1291518.4663920456
20
424198.7592639351
10
1291518.310876855
20
424198.01077772747
10
1291518.1554340222
20
424197.2622915198
10
1291518.0000635474
20
424196.51380531205
10
1291517.7861929038
20
424195.78142364253
10
1291517.5138220917
20
424195.06514651113
10
1291517.1829511106
20
424194.3649739179
10
1291516.7935799612
20
424193.68090586277
10
1291516.4900332948
20
424193.15175028326
10
1291516.2723111121
20
424192.7775071795
10
1291516.1404134126
20
424192.55817655125
10
1291516.094340196
20
424192.4937583987
10
1291515.8891141722
20
424192.2583232324
10
1291515.5247353406
20
424191.8518710523
10
1291515.001203701
20
424191.2744018584
10
1291514.3185192535
20
424190.52591565077
10
1291513.8015737818
20
424189.95455332706
10
1291513.450367286
20
424189.5603148875
10
1291513.264899766
20
424189.3432003318
10
1291513.245171222
20
424189.3032096601
10
1291513.0432532618
20
424189.12016730045
10
1291512.659145886
20
424188.7940732529
10
1291512.0928490942
20
424188.3249275174
10
1291511.3443628869
20
424187.7127300939
10
1291510.6203070208
20
424187.2295074982
10
1291509.9206814968
20
424186.87525973015
10
1291509.2454863144
20
424186.6499867899
10
1291508.5947214738
20
424186.5536886774
10
1291508.0822175017
20
424186.4774281165
10
1291507.707974398
20
424186.42120510724
10
1291507.4719921625
20
424186.38501964975
10
1291507.3742707951
20
424186.3688717439
10
1291507.1138582178
20
424186.3237417804
10
1291506.6907544304
20
424186.24962975935
10
1291506.1049594327
20
424186.14653568063
10
1291505.3564732254
20
424186.0144595443
10
1291504.6079870178
20
424185.8662188952
10
1291503.85950081
20
424185.70181373326
10
1291503.1110146022
20
424185.52124405856
10
1291502.3625283944
20
424185.3245098711
10
1291501.6140421869
20
424185.11911573773
10
1291500.8655559793
20
424184.90506165853
10
1291500.1170697715
20
424184.6823476335
10
1291499.3685835642
20
424184.4509736628
10
1291498.6200973564
20
424184.24559023196
10
1291497.8716111486
20
424184.0661973412
10
1291497.1231249408
20
424183.91279499047
10
1291496.3746387335
20
424183.78538317967
10
1291495.710043074
20
424183.6786387725
10
1291495.1293379632
20
424183.59256176895
10
1291494.6325234007
20
424183.527152169
10
1291494.219599387
20
424183.48240997246
10
1291493.8260158282
20
424183.4392314572
10
1291493.4517727243
20
424183.3976166231
10
1291493.0968700754
20
424183.3575654701
10
1291492.7613078817
20
424183.3190779983
10
1291492.3225146844
20
424183.24765106244
10
1291491.7804904836
20
424183.1432846627
10
1291491.1352352793
20
424183.005978799
10
1291490.386749072
20
424182.83573347144
10
1291489.6382628642
20
424182.63509691437
10
1291488.8897766566
20
424182.4040691278
10
1291488.141290449
20
424182.1426501117
10
1291487.3928042413
20
424181.85083986603
10
1291486.6813970385
20
424181.5699963912
10
1291486.0070688413
20
424181.3001196871
10
1291485.3698196488
20
424181.0412097537
10
1291484.7696494614
20
424180.79326659115
10
1291484.2824428158
20
424180.594336094
10
1291483.908199712
20
424180.44441826234
10
1291483.6469201497
20
424180.3435130962
10
1291483.4986041295
20
424180.2916205956
10
1291483.2002455625
20
424180.20993475633
10
1291482.7518444485
20
424180.0984555784
10
1291482.1534007876
20
424179.95718306187
10
1291481.4049145798
20
424179.78611720674
10
1291480.656428372
20
424179.6338749075
10
1291479.9079421642
20
424179.5004561643
10
1291479.1594559567
20
424179.38586097705
10
1291478.4109697493
20
424179.29008934577
10
1291477.6624835418
20
424179.14824419294
10
1291476.913997334
20
424178.96032551856
10
1291476.1655111262
20
424178.7263333227
10
1291475.4170249184
20
424178.4462676053
10
1291474.75150808
20
424178.1987956914
10
1291474.1689606109
20
424177.98391758115
10
1291473.6693825107
20
424177.8016332744
10
1291473.2527737801
20
424177.6519427712
10
1291472.8573478628
20
424177.508661582
10
1291472.483104759
20
424177.371789707
10
1291472.1300444687
20
424177.2413271458
10
1291471.7981669917
20
424177.11727389856
10
1291471.362137332
20
424176.9841096886
10
1291470.82195549
20
424176.8418345158
10
1291470.1776214647
20
424176.6904483802
10
1291469.4291352574
20
424176.5299512818
10
1291468.6806490496
20
424176.34575564374
10
1291467.9321628418
20
424176.13786146604
10
1291467.183676634
20
424175.9062687487
10
1291466.4351904267
20
424175.6509774917
10
1291465.7814709593
20
424175.40734789765
10
1291465.2225182322
20
424175.1753799666
10
1291464.7583322455
20
424174.9550736986
10
1291464.3889129993
20
424174.7464290935
10
1291464.0170818241
20
424174.5561172448
10
1291463.6428387202
20
424174.38413815264
10
1291463.2661836878
20
424174.2304918168
10
1291462.8871167263
20
424174.09517823736
10
1291462.4156949534
20
424173.92531158624
10
1291461.851918369
20
424173.72089186346
10
1291461.195786973
20
424173.4819190689
10
1291460.4473007652
20
424173.20839320257
10
1291459.6988145574
20
424172.93697609776
10
1291458.9503283496
20
424172.6676677543
10
1291458.201842142
20
424172.4004681723
10
1291457.4533559347
20
424172.13537735166
10
1291456.84607134
20
424171.9179202508
10
1291456.379988358
20
424171.7480968699
10
1291456.055106989
20
424171.6259072087
10
1291455.871427233
20
424171.55135126726
10
1291455.5924658033
20
424171.4400207254
10
1291455.2182226994
20
424171.291915583
10
1291454.7486979216
20
424171.10703584005
10
1291454.1838914698
20
424170.8853814967
10
1291453.573165079
20
424170.6353582288
10
1291452.9165187492
20
424170.3569660365
10
1291452.2139524806
20
424170.0502049197
10
1291451.4654662733
20
424169.7150748786
10
1291450.7387377617
20
424169.41580189194
10
1291450.0337669465
20
424169.15238595975
10
1291449.3505538276
20
424168.92482708214
10
1291448.6890984045
20
424168.7331252591
10
1291448.1712491412
20
424168.5828231975
10
1291447.7970060376
20
424168.4739208974
10
1291447.566369093
20
424168.40641835885
10
1291447.4793383083
20
424168.3803155817
10
1291447.2269436675
20
424168.30248747347
10
1291446.8091851715
20
424168.17293403397
10
1291446.2260628194
20
424167.9916552633
10
1291445.4775766118
20
424167.75865116145
10
1291444.7290904042
20
424167.5085082439
10
1291443.9806041964
20
424167.24122651055
10
1291443.2321179886
20
424166.95680596144
10
1291442.4836317813
20
424166.6552465965
10
1291441.7417811758
20
424166.3821220818
10
1291441.0065661727
20
424166.1374324175
10
1291440.277986772
20
424165.92117760336
10
1291439.556042973
20
424165.7333576395
10
1291439.0079495218
20
424165.59082114755
10
1291438.6337064179
20
424165.4935681274
10
1291438.4333136615
20
424165.4415985791
10
1291438.4067712526
20
424165.43491250277
10
1291438.219279774
20
424165.43156946456
10
1291437.8708392263
20
424165.43156946456
10
1291437.361449609
20
424165.43491250277
10
1291436.6911109225
20
424165.4415985792
10
1291436.1688200273
20
424165.44686019956
10
1291435.7945769234
20
424165.4506973638
10
1291435.5683816108
20
424165.45311007195
10
1291435.49023409
20
424165.4540983242
10
1291435.42945111
20
424165.4545924502
10
1291435.3860326714
20
424165.4545924502
10
1291435.359978774
20
424165.4540983241
10
1291435.3512894185
20
424165.45311007195
10
1291435.1598231886
20
424165.4324058637
10
1291434.7855800847
20
424165.3919856993
10
1291434.2285601068
20
424165.3318495788
10
1291433.488763255
20
424165.2519975022
10
1291432.7467940643
20
424165.10210560774
10
1291432.0026525347
20
424164.8821738955
0
LWPOLYLINE
5
3D
330
C
100
AcDbEntity
8
C-TOPO-MAJR-E
100
AcDbPolyline
90
240
70
0
43
0
38
0
39
0
10
1291524.1125585916
20
424254.14724330266
10
1291523.5302186867
20
424253.39875709504
10
1291523.0647577625
20
424252.79314724053
10
1291522.7161758184
20
424252.3304137392
10
1291522.484472855
20
424252.01055659103
10
1291522.369648872
20
424251.833575796
10
1291522.1870569836
20
424251.5579638466
10
1291521.9366971897
20
424251.1837207427
10
1291521.61856949
20
424250.71084648446
10
1291521.232673885
20
424250.13934107183
10
1291520.8526045308
20
424249.5288056287
10
1291520.4783614269
20
424248.87924015516
10
1291520.1099445736
20
424248.1906446512
10
1291519.747353971
20
424247.4630191167
10
1291519.47190007
20
424246.9120847976
10
1291519.2835828708
20
424246.5378416938
10
1291519.1824023728
20
424246.34028980526
10
1291519.1683585767
20
424246.319429132
10
1291519.083383595
20
424246.11666207516
10
1291518.9274774287
20
424245.73198863474
10
1291518.7006400768
20
424245.16540881066
10
1291518.4028715396
20
424244.4169226029
10
1291518.13992604
20
424243.66843639524
10
1291517.9118035785
20
424242.9199501876
10
1291517.7185041546
20
424242.17146397993
10
1291517.5600277688
20
424241.42297777225
10
1291517.405629618
20
424240.67449156457
10
1291517.2553097033
20
424239.92600535695
10
1291517.1090680237
20
424239.17751914926
10
1291516.9669045797
20
424238.4290329416
10
1291516.8262734858
20
424237.7637011719
10
1291516.6871747414
20
424237.1815238402
10
1291516.5496083472
20
424236.68250094645
10
1291516.4135743033
20
424236.26663249073
10
1291516.2728796764
20
424235.87157671095
10
1291516.1275244674
20
424235.49733360717
10
1291515.9775086758
20
424235.14390317927
10
1291515.8228323022
20
424234.81128542736
10
1291515.600164704
20
424234.3747005615
10
1291515.309505882
20
424233.83414858166
10
1291514.9508558356
20
424233.1896294879
10
1291514.5242145648
20
424232.44114328024
10
1291514.1624414711
20
424231.7952556249
10
1291513.8655365543
20
424231.251966522
10
1291513.6334998142
20
424230.8112759714
10
1291513.4663312507
20
424230.47318397317
10
1291513.2645278939
20
424230.1170164221
10
1291513.0280897436
20
424229.7427733183
10
1291512.7570167996
20
424229.35045466165
10
1291512.4513090623
20
424228.9400604522
10
1291512.1113336417
20
424228.47605267225
10
1291511.737090538
20
424227.95843132155
10
1291511.3285797508
20
424227.38719640044
10
1291510.8858012806
20
424226.7623479087
10
1291510.5191145795
20
424226.26280211087
10
1291510.2285196478
20
424225.8885590071
10
1291510.0140164858
20
424225.63961859717
10
1291509.8756050928
20
424225.51598088123
10
1291509.8063993964
20
424225.2584199196
10
1291509.8063993964
20
424224.8669357122
10
1291509.8756050928
20
424224.3415282591
10
1291510.0140164858
20
424223.68219756027
10
1291510.120310883
20
424223.1654106589
10
1291510.194488285
20
424222.791167555
10
1291510.2365486915
20
424222.55946824874
10
1291510.2464921023
20
424222.4703127399
10
1291510.3080192232
20
424222.2163245564
10
1291510.4211300542
20
424221.79750369815
10
1291510.585824595
20
424221.2138501652
10
1291510.8021028456
20
424220.46536395757
10
1291511.0714732278
20
424219.7168777499
10
1291511.3939357414
20
424218.9683915422
10
1291511.7694903864
20
424218.2199053345
10
1291512.1981371627
20
424217.47141912684
10
1291512.5430266876
20
424216.88404623495
10
1291512.8041589605
20
424216.4577866589
10
1291512.9815339819
20
424216.19264039857
10
1291513.0751517513
20
424216.0886074541
10
1291513.2713585782
20
424215.84946942993
10
1291513.5701544622
20
424215.4752263261
10
1291513.9715394035
20
424214.9658781426
10
1291514.475513402
20
424214.3214248794
10
1291514.914621953
20
424213.7424998112
10
1291515.2888650568
20
424213.2291029381
10
1291515.5982427134
20
424212.78123426
10
1291515.8427549226
20
424212.39889377693
10
1291516.0550147418
20
424212.0206019834
10
1291516.2350221712
20
424211.6463588796
10
1291516.3827772103
20
424211.27616446535
10
1291516.4982798598
20
424210.9100187408
10
1291516.5562939867
20
424210.4482878955
10
1291516.5568195914
20
424209.89097192936
10
1291516.4998566739
20
424209.23807084246
10
1291516.3854052343
20
424208.4895846348
10
1291516.299303852
20
424207.92766853154
10
1291516.2415525273
20
424207.55232253263
10
1291516.2121512603
20
424207.36354663817
10
1291516.211100051
20
424207.36134084815
10
1291516.1007799883
20
424207.1731164012
10
1291515.8811910725
20
424206.7988732974
10
1291515.5523333035
20
424206.2386115367
10
1291515.1142066813
20
424205.492331119
10
1291514.7080218182
20
424204.8251616862
10
1291514.3337787145
20
424204.23710323824
10
1291513.9914773698
20
424203.728155775
10
1291513.6811177842
20
424203.29831929656
10
1291513.3567150836
20
424202.89627950545
10
1291513.0182692679
20
424202.5220364017
10
1291512.665780337
20
424202.1755899851
10
1291512.2992482914
20
424201.85694025585
10
1291511.9288607165
20
424201.52538086084
10
1291511.5546176126
20
424201.1809118
10
1291511.1765189797
20
424200.8235330734
10
1291510.794564818
20
424200.45324468095
10
1291510.3209776445
20
424200.1040381219
10
1291509.75575746
20
424199.7759133961
10
1291509.0989042637
20
424199.46887050365
10
1291508.350418056
20
424199.18290944456
10
1291507.6837136662
20
424198.94537946116
10
1291507.0987910945
20
424198.7562805535
10
1291506.5956503411
20
424198.61561272165
10
1291506.1742914058
20
424198.5233759655
10
1291505.776490386
20
424198.43756960763
10
1291505.4022472822
20
424198.35819364816
10
1291505.0515620941
20
424198.285248087
10
1291504.724434822
20
424198.2187329242
10
1291504.2919678162
20
424198.1537085522
10
1291503.7541610762
20
424198.09017497103
10
1291503.1110146022
20
424198.02813218074
10
1291502.3625283944
20
424197.96758018126
10
1291501.6140421869
20
424197.89792192855
10
1291500.8655559793
20
424197.8191574227
10
1291500.1170697715
20
424197.73128666356
10
1291499.3685835642
20
424197.6343096512
10
1291498.6200973564
20
424197.53606447094
10
1291497.8716111486
20
424197.4365511227
10
1291497.1231249408
20
424197.33576960646
10
1291496.3746387335
20
424197.23371992225
10
1291495.6261525257
20
424197.1174374517
10
1291494.8776663179
20
424196.98692219483
10
1291494.12918011
20
424196.8421741517
10
1291493.3806939027
20
424196.6831933223
10
1291492.632207695
20
424196.5146200525
10
1291491.8837214871
20
424196.33645434235
10
1291491.1352352793
20
424196.14869619196
10
1291490.386749072
20
424195.95134560124
10
1291489.7650813968
20
424195.78681742604
10
1291489.2702322537
20
424195.65511166636
10
1291488.9022016434
20
424195.5562283222
10
1291488.6609895653
20
424195.4901673935
10
1291488.3532619746
20
424195.4129165698
10
1291487.9790188707
20
424195.3244758511
10
1291487.538260254
20
424195.2248452373
10
1291487.0309861242
20
424195.11402472836
10
1291486.4634089752
20
424194.988723204
10
1291485.8355288063
20
424194.8489406642
10
1291485.147345618
20
424194.69467710884
10
1291484.3988594108
20
424194.525932538
10
1291483.6503732032
20
424194.3493640496
10
1291482.9018869954
20
424194.1649716437
10
1291482.1534007876
20
424193.97275532025
10
1291481.4049145798
20
424193.7727150793
10
1291480.656428372
20
424193.56112062174
10
1291479.9079421642
20
424193.3379719476
10
1291479.1594559567
20
424193.103269057
10
1291478.4109697493
20
424192.8570119499
10
1291477.832104076
20
424192.6666631745
10
1291477.422858937
20
424192.53222273104
10
1291477.1832343324
20
424192.4536906194
10
1291477.1132302617
20
424192.4310668396
10
1291476.8911066747
20
424192.35850473994
10
1291476.516863571
20
424192.23600432026
10
1291475.9905009503
20
424192.0635655808
10
1291475.312018813
20
424191.8411885215
10
1291474.616035658
20
424191.6510028641
10
1291473.9025514857
20
424191.49300860876
10
1291473.1715662954
20
424191.3672057554
10
1291472.4230800879
20
424191.2735943041
10
1291471.6745938803
20
424191.1882929256
10
1291470.9261076725
20
424191.1113016199
10
1291470.1776214647
20
424191.04262038716
10
1291469.4291352574
20
424190.9822492273
10
1291468.6806490496
20
424190.92490844545
10
1291467.9321628418
20
424190.8705980417
10
1291467.183676634
20
424190.819318016
10
1291466.4351904267
20
424190.77106836846
10
1291465.6867042189
20
424190.74280558096
10
1291464.938218011
20
424190.73452965345
10
1291464.1897318033
20
424190.74624058604
10
1291463.441245596
20
424190.7779383788
10
1291462.6927593881
20
424190.82102337375
10
1291461.9442731806
20
424190.87549557106
10
1291461.195786973
20
424190.9413549707
10
1291460.4473007652
20
424191.0186015726
10
1291459.6988145574
20
424191.1057808575
10
1291458.9503283496
20
424191.20289282536
10
1291458.201842142
20
424191.3099374763
10
1291457.4533559347
20
424191.4269148101
10
1291456.7048697271
20
424191.5152862106
10
1291455.9563835193
20
424191.57505167753
10
1291455.2078973115
20
424191.606211211
10
1291454.4594111037
20
424191.60876481107
10
1291453.710924896
20
424191.5727628694
10
1291452.9624386881
20
424191.49820538604
10
1291452.2139524806
20
424191.3850923609
10
1291451.4654662733
20
424191.23342379386
10
1291450.7169800657
20
424191.1210024989
10
1291449.968493858
20
424191.04782847606
10
1291449.22000765
20
424191.01390172506
10
1291448.4715214423
20
424191.019222246
10
1291447.7230352345
20
424191.08091865794
10
1291446.9745490272
20
424191.19899096084
10
1291446.2260628194
20
424191.3734391546
10
1291445.4775766118
20
424191.6042632393
10
1291444.8441571195
20
424191.8052957906
10
1291444.3258043425
20
424191.9765368084
10
1291443.922518281
20
424192.11798629275
10
1291443.6342989348
20
424192.2296442436
10
1291443.3030677098
20
424192.3565177603
10
1291442.928824606
20
424192.49860684294
10
1291442.5115696231
20
424192.65591149137
10
1291442.0513027618
20
424192.8284317058
10
1291441.5189810637
20
424193.0242310179
10
1291440.914604529
20
424193.24330942787
10
1291440.238173158
20
424193.4856669356
10
1291439.4896869506
20
424193.7513035411
10
1291438.7412007428
20
424194.0243933537
10
1291437.992714535
20
424194.30493637343
10
1291437.2442283272
20
424194.5929326002
10
1291436.4957421198
20
424194.8883820339
10
1291435.9068726117
20
424195.1136890978
10
1291435.477619803
20
424195.2688537917
10
1291435.207983694
20
424195.35387611564
10
1291435.097964285
20
424195.3687560696
10
1291434.8558330284
20
424195.4079797878
10
1291434.4815899245
20
424195.4715472702
10
1291433.9752349732
20
424195.55945851683
10
1291433.336768175
20
424195.67171352764
10
1291432.7907253862
20
424195.7278410331
10
1291432.3371066074
20
424195.7278410331
0
LWPOLYLINE
5
3E
330
C
100
AcDbEntity
8
C-TOPO-MAJR-E
100
AcDbPolyline
90
203
70
0
43
0
38
0
39
0
10
1291499.7500286875
20
424254.14724330266
10
1291499.6668019688
20
424253.39875709504
10
1291499.6079239345
20
424252.6502708874
10
1291499.5733945845
20
424251.9017846796
10
1291499.5632139186
20
424251.15329847194
10
1291499.577381937
20
424250.4048122644
10
1291499.611784553
20
424249.6563260567
10
1291499.6664217657
20
424248.9078398489
10
1291499.7412935758
20
424248.15935364127
10
1291499.8363999834
20
424247.41086743365
10
1291499.8882052053
20
424246.66238122596
10
1291499.8967092417
20
424245.91389501834
10
1291499.861912093
20
424245.16540881066
10
1291499.783813759
20
424244.4169226029
10
1291499.6614722684
20
424243.66843639524
10
1291499.4948876211
20
424242.9199501876
10
1291499.2840598177
20
424242.17146397993
10
1291499.0289888578
20
424241.42297777225
10
1291498.8126526277
20
424240.740785497
10
1291498.6350511268
20
424240.12488715415
10
1291498.4961843558
20
424239.57528274367
10
1291498.3960523147
20
424239.0919722656
10
1291498.3104891288
20
424238.6631954747
10
1291498.2394947982
20
424238.2889523709
10
1291498.1830693232
20
424237.9692429541
10
1291498.1412127032
20
424237.7040672245
10
1291498.1202843934
20
424237.43869652564
10
1291498.1202843934
20
424237.1731308574
10
1291498.1412127032
20
424236.90737021994
10
1291498.1830693232
20
424236.6414146132
10
1291498.2347984144
20
424236.3213152578
10
1291498.296399977
20
424235.947072154
10
1291498.3678740116
20
424235.51868530165
10
1291498.4492205174
20
424235.0361547008
10
1291498.5798317904
20
424234.48713519826
10
1291498.7597078304
20
424233.8716267939
10
1291498.9888486369
20
424233.1896294879
10
1291499.2672542105
20
424232.44114328024
10
1291499.542121625
20
424231.69265707256
10
1291499.8134508808
20
424230.94417086494
10
1291500.0812419774
20
424230.19568465726
10
1291500.345494915
20
424229.4471984496
10
1291500.574804916
20
424228.8134153136
10
1291500.76917198
20
424228.2943352493
10
1291500.928596107
20
424227.8899582566
10
1291501.0530772975
20
424227.60028433567
10
1291501.1911908437
20
424227.26832582324
10
1291501.3429367456
20
424226.89408271946
10
1291501.5083150037
20
424226.4775550242
10
1291501.687325618
20
424226.0187427375
10
1291501.8772578342
20
424225.4875119705
10
1291502.0781116523
20
424224.8838627233
10
1291502.2898870725
20
424224.20779499586
10
1291502.512584095
20
424223.45930878824
10
1291502.742004482
20
424222.7108225806
10
1291502.9781482334
20
424221.9623363728
10
1291503.2210153493
20
424221.2138501652
10
1291503.4706058297
20
424220.46536395757
10
1291503.6820957125
20
424219.83182358823
10
1291503.8554849983
20
424219.3132290574
10
1291503.9907736864
20
424218.9095803649
10
1291504.0879617773
20
424218.62087751075
10
1291504.1979562435
20
424218.2894045318
10
1291504.3207570845
20
424217.9151614279
10
1291504.4563643008
20
424217.4981481992
10
1291504.6047778924
20
424217.0383648457
10
1291504.7417256609
20
424216.5064057786
10
1291504.8672076068
20
424215.902270998
10
1291504.98122373
20
424215.22596050386
10
1291505.0837740304
20
424214.4774742961
10
1291505.0979457828
20
424213.7732444717
10
1291505.0237389868
20
424213.1132710306
10
1291504.861153643
20
424212.4975539727
10
1291504.6101897515
20
424211.92609329807
10
1291504.3505845321
20
424211.45324140886
10
1291504.0823379853
20
424211.078998305
10
1291503.805450111
20
424210.8033639866
10
1291503.5199209086
20
424210.62633845356
10
1291503.1900347557
20
424210.4490245673
10
1291502.815791652
20
424210.271422328
10
1291502.3971915974
20
424210.0935317355
10
1291501.9342345917
20
424209.91535278986
10
1291501.3998952855
20
424209.7557224827
10
1291500.7941736788
20
424209.6146408139
10
1291500.1170697715
20
424209.4921077837
10
1291499.3685835642
20
424209.38812339184
10
1291498.6200973564
20
424209.320967913
10
1291497.8716111486
20
424209.2906413473
10
1291497.1231249408
20
424209.29714369454
10
1291496.3746387335
20
424209.3404749548
10
1291495.6261525257
20
424209.41535893246
10
1291494.8776663179
20
424209.5217956275
10
1291494.12918011
20
424209.65978503996
10
1291493.3806939027
20
424209.8293271698
10
1291492.7544015632
20
424209.973806254
10
1291492.2503030915
20
424210.0932222926
10
1291491.8683984883
20
424210.1875752856
10
1291491.608687753
20
424210.2568652329
10
1291491.2917108336
20
424210.3444566152
10
1291490.9174677297
20
424210.4503494325
10
1291490.4859584416
20
424210.57454368466
10
1291489.997182969
20
424210.7170393719
10
1291489.443479813
20
424210.85626466887
10
1291488.8248489727
20
424210.99221957556
10
1291488.141290449
20
424211.12490409205
10
1291487.3928042413
20
424211.2543182183
10
1291486.6443180335
20
424211.3451145078
10
1291485.8958318257
20
424211.39729296055
10
1291485.147345618
20
424211.4108535764
10
1291484.3988594108
20
424211.3857963554
10
1291483.6503732032
20
424211.3155995639
10
1291482.9018869954
20
424211.2002632018
10
1291482.1534007876
20
424211.03978726914
10
1291481.4049145798
20
424210.8341717659
10
1291480.8170798891
20
424210.6696508661
10
1291480.3898967155
20
424210.5462245699
10
1291480.1233650593
20
424210.4638928771
10
1291480.01748492
20
424210.42265578784
10
1291479.7774232985
20
424210.3354335445
10
1291479.4031801946
20
424210.20222614706
10
1291478.8947556084
20
424210.0230335955
10
1291478.2521495402
20
424209.7978558899
10
1291477.5830734372
20
424209.624317349
10
1291476.887527299
20
424209.5024179728
10
1291476.1655111262
20
424209.4321577613
10
1291475.4170249184
20
424209.41353671445
10
1291474.6685387106
20
424209.4115978214
10
1291473.9200525032
20
424209.42634108226
10
1291473.1715662954
20
424209.4577664968
10
1291472.4230800879
20
424209.5058740651
10
1291471.6745938803
20
424209.50484093395
10
1291470.9261076725
20
424209.4546671032
10
1291470.1776214647
20
424209.3553525729
10
1291469.4291352574
20
424209.20689734316
10
1291468.6806490496
20
424209.0600466896
10
1291467.9321628418
20
424208.91480061214
10
1291467.183676634
20
424208.77115911094
10
1291466.4351904267
20
424208.62912218587
10
1291465.6867042189
20
424208.5231158496
10
1291464.938218011
20
424208.45314010204
10
1291464.1897318033
20
424208.41919494316
10
1291463.441245596
20
424208.421280373
10
1291462.6927593881
20
424208.4748673445
10
1291461.9442731806
20
424208.5799558576
10
1291461.195786973
20
424208.73654591234
10
1291460.4473007652
20
424208.94463750866
10
1291459.7417969217
20
424209.1697077841
10
1291459.0792754428
20
424209.41175673855
10
1291458.4597363279
20
424209.6707843722
10
1291457.8831795773
20
424209.9467906849
10
1291457.40777965
20
424210.1750557528
10
1291457.0335365462
20
424210.355579576
10
1291456.7604502656
20
424210.4883621544
10
1291456.5885208088
20
424210.573403488
10
1291456.272452164
20
424210.7813759914
10
1291455.8122443317
20
424211.1122796646
10
1291455.2078973115
20
424211.56611450756
10
1291454.4594111037
20
424212.1428805203
10
1291453.8743646466
20
424212.5971247452
10
1291453.4527579397
20
424212.92884718225
10
1291453.1945909837
20
424213.1380478314
10
1291453.099863778
20
424213.22472669266
10
1291452.8653786234
20
424213.4541786242
10
1291452.4911355197
20
424213.82640362595
10
1291451.9771344666
20
424214.34140169795
10
1291451.3233754646
20
424214.9991728404
10
1291450.8058065958
20
424215.51517996343
10
1291450.42442786
20
424215.8894230672
10
1291450.1792392577
20
424216.12190215185
10
1291450.0702407884
20
424216.2126172172
10
1291449.828620002
20
424216.4059976324
10
1291449.454376898
20
424216.70204339747
10
1291448.947511477
20
424217.10075451236
10
1291448.3080237384
20
424217.602130977
10
1291447.641286383
20
424218.0128723527
10
1291446.9472994097
20
424218.3329786395
10
1291446.2260628194
20
424218.5624498373
10
1291445.4775766118
20
424218.701285946
10
1291444.7290904042
20
424218.7304749972
10
1291443.9806041964
20
424218.65001699066
10
1291443.2321179886
20
424218.4599119265
10
1291442.4836317813
20
424218.1601598046
10
1291441.7351455735
20
424217.8936609032
10
1291440.9866593657
20
424217.6604152222
10
1291440.238173158
20
424217.4604227616
10
1291439.4896869506
20
424217.2936835214
10
1291438.7412007428
20
424217.27118622273
10
1291437.992714535
20
424217.3929308655
10
1291437.2442283272
20
424217.6589174498
10
1291436.4957421198
20
424218.0691459757
10
1291435.8882687236
20
424218.41795148765
10
1291435.4218081394
20
424218.7053339857
10
1291435.0963603668
20
424218.93129346997
10
1291434.9119254057
20
424219.0958299404
10
1291434.687091962
20
424219.40635384514
10
1291434.4218600355
20
424219.8628651842
10
1291434.116229626
20
424220.46536395757
10
1291433.7702007336
20
424221.2138501652
10
1291433.4561734758
20
424221.9105473351
10
1291433.1741478522
20
424222.5554554673
10
1291432.9241238635
20
424223.1485745618
10
1291432.706101509
20
424223.68990461854
10
1291432.5124619654
20
424224.14769119886
0
LWPOLYLINE
5
3F
330
C
100
AcDbEntity
8
C-TOPO-MAJR-E
100
AcDbPolyline
90
160
70
0
43
0
38
0
39
0
10
1291491.9926280743
20
424254.14724330266
10
1291491.924721272
20
424253.39875709504
10
1291491.882531222
20
424252.6502708874
10
1291491.8660579247
20
424251.9017846796
10
1291491.8753013797
20
424251.15329847194
10
1291491.9102615868
20
424250.4048122644
10
1291491.9549356606
20
424249.7633436085
10
1291492.0093236011
20
424249.22889250447
10
1291492.073425408
20
424248.80145895237
10
1291492.147241081
20
424248.48104295204
10
1291492.226328034
20
424248.13371339993
10
1291492.3106862656
20
424247.75947029615
10
1291492.400315777
20
424247.3583136405
10
1291492.4952165675
20
424246.93024343316
10
1291492.5980661728
20
424246.42206922575
10
1291492.7088645927
20
424245.83379101823
10
1291492.8276118275
20
424245.16540881066
10
1291492.954307877
20
424244.4169226029
10
1291493.051761522
20
424243.66843639524
10
1291493.119972762
20
424242.9199501876
10
1291493.1589415974
20
424242.17146397993
10
1291493.1686680282
20
424241.42297777225
10
1291493.1708711623
20
424240.67449156457
10
1291493.1655509996
20
424239.92600535695
10
1291493.1527075402
20
424239.17751914926
10
1291493.1323407844
20
424238.4290329416
10
1291493.1219925722
20
424237.6805467339
10
1291493.1216629043
20
424236.93206052633
10
1291493.1313517801
20
424236.18357431865
10
1291493.1510591996
20
424235.435088111
10
1291493.173966148
20
424234.6866019033
10
1291493.2000726243
20
424233.9381156956
10
1291493.2293786292
20
424233.1896294879
10
1291493.2618841627
20
424232.44114328024
10
1291493.2258679091
20
424231.69265707256
10
1291493.121329869
20
424230.94417086494
10
1291492.948270042
20
424230.19568465726
10
1291492.7066884283
20
424229.4471984496
10
1291492.5201052544
20
424228.8800721334
10
1291492.3885205206
20
424228.4943057087
10
1291492.3119342267
20
424228.2898991754
10
1291492.2903463724
20
424228.26685253356
10
1291492.2211945967
20
424228.25532921264
10
1291492.1044788994
20
424228.25532921264
10
1291491.9401992809
20
424228.26685253356
10
1291491.7283557404
20
424228.2898991754
10
1291491.4353124185
20
424228.31553674536
10
1291491.0610693148
20
424228.3437652435
10
1291490.605626429
20
424228.3745846697
10
1291490.0689837616
20
424228.40799502406
10
1291489.479380209
20
424228.47807207267
10
1291488.8368157716
20
424228.58481581544
10
1291488.141290449
20
424228.7282262524
10
1291487.3928042413
20
424228.90830338356
10
1291486.6443180335
20
424229.1032928403
10
1291485.8958318257
20
424229.3131946227
10
1291485.147345618
20
424229.5380087307
10
1291484.3988594108
20
424229.77773516433
10
1291483.6503732032
20
424230.0175532651
10
1291482.9018869954
20
424230.257463033
10
1291482.1534007876
20
424230.49746446806
10
1291481.4049145798
20
424230.73755757016
10
1291480.775813328
20
424230.9314221934
10
1291480.2660970325
20
424231.0790583377
10
1291479.8757656927
20
424231.180466003
10
1291479.604819309
20
424231.2356451893
10
1291479.282224565
20
424231.30283788353
10
1291478.9079814614
20
424231.38204408553
10
1291478.4820899975
20
424231.47326379543
10
1291478.0045501736
20
424231.5764970132
10
1291477.5496801855
20
424231.6281136221
10
1291477.1174800335
20
424231.628113622
10
1291476.707949717
20
424231.5764970131
10
1291476.3210892365
20
424231.47326379543
10
1291475.9405374443
20
424231.3749840348
10
1291475.5662943404
20
424231.2816577314
10
1291475.198359925
20
424231.1932848851
10
1291474.8367341978
20
424231.10986549594
10
1291474.3783933504
20
424231.0444443913
10
1291473.823337383
20
424230.99702157103
10
1291473.1715662954
20
424230.9675970352
10
1291472.4230800879
20
424230.95617078396
10
1291471.77485659
20
424230.97131250554
10
1291471.2268958017
20
424231.0130222001
10
1291470.7791977234
20
424231.0812998676
10
1291470.4317623547
20
424231.17614550807
10
1291470.0709231184
20
424231.28014111286
10
1291469.6966800145
20
424231.39328668197
10
1291469.309033043
20
424231.5155822153
10
1291468.907982204
20
424231.64702771284
10
1291468.420072523
20
424231.79926915455
10
1291467.8453039995
20
424231.9723065403
10
1291467.183676634
20
424232.1661398701
10
1291466.4351904267
20
424232.3807691439
10
1291465.7286648406
20
424232.6423439584
10
1291465.0640998762
20
424232.95086431346
10
1291464.4414955336
20
424233.306330209
10
1291463.8608518122
20
424233.7087416452
10
1291463.3834083998
20
424234.0502787126
10
1291463.009165296
20
424234.3309414111
10
1291462.738122501
20
424234.5507297408
10
1291462.570280014
20
424234.7096437017
10
1291462.2865270497
20
424234.9762222341
10
1291461.8868636077
20
424235.3504653379
10
1291461.3712896877
20
424235.83237301325
10
1291460.7398052902
20
424236.4219452599
10
1291460.2369415397
20
424236.88374091184
10
1291459.8626984358
20
424237.21775996906
10
1291459.6170759788
20
424237.42400243133
10
1291459.5000741687
20
424237.5024682988
10
1291459.2252012591
20
424237.6467683123
10
1291458.7924572504
20
424237.856902472
10
1291458.201842142
20
424238.1328707776
10
1291457.4533559347
20
424238.4746732294
10
1291456.7048697271
20
424238.79037538066
10
1291455.9563835193
20
424239.07997723145
10
1291455.2078973115
20
424239.34347878175
10
1291454.4594111037
20
424239.5808800316
10
1291453.8122454935
20
424239.78163512866
10
1291453.266400481
20
424239.9457440728
10
1291452.821876066
20
424240.07320686424
10
1291452.4786722488
20
424240.16402350285
10
1291452.119948788
20
424240.25311148365
10
1291451.7457056842
20
424240.3404708066
10
1291451.355942937
20
424240.42610147165
10
1291450.950660547
20
424240.5100034789
10
1291450.4595772023
20
424240.61105572095
10
1291449.8826929035
20
424240.7292581978
10
1291449.22000765
20
424240.86461090937
10
1291448.4715214423
20
424241.0171138558
10
1291447.7230352345
20
424241.15506613493
10
1291446.9745490272
20
424241.2784677468
10
1291446.2260628194
20
424241.3873186915
10
1291445.4775766118
20
424241.48161896894
10
1291444.7290904042
20
424241.52009183005
10
1291443.9806041964
20
424241.50273727474
10
1291443.2321179886
20
424241.4295553032
10
1291442.4836317813
20
424241.3005459153
10
1291441.8636996518
20
424241.1533649136
10
1291441.3723216003
20
424240.98801229807
10
1291441.0094976272
20
424240.80448806874
10
1291440.7752277325
20
424240.6027922255
10
1291440.4709712332
20
424240.36414107645
10
1291440.0967281293
20
424240.0885346215
10
1291439.652498421
20
424239.77597286063
10
1291439.1382821081
20
424239.4264557939
10
1291438.5654983218
20
424239.2136815298
10
1291437.9341470613
20
424239.13765006844
10
1291437.2442283272
20
424239.1983614098
10
1291436.4957421198
20
424239.39581555384
10
1291435.8939574596
20
424239.5819218926
10
1291435.4388743471
20
424239.75668042595
10
1291435.1304927822
20
424239.920091154
10
1291434.9688127646
20
424240.0721540767
10
1291434.700851204
20
424240.33903806645
10
1291434.3266081004
20
424240.7207431232
10
1291433.8460834534
20
424241.21726924693
10
1291433.2592772627
20
424241.82861643774
10
1291432.7787577738
20
424242.32141158497
10
1291432.4045249862
20
424242.69565468875
0
LWPOLYLINE
5
40
330
C
100
AcDbEntity
8
C-TOPO-MAJR-E
100
AcDbPolyline
90
37
70
0
43
0
38
0
39
0
10
1291483.5110809507
20
424254.03212386166
10
1291483.3435481011
20
424253.59743255924
10
1291483.165116303
20
424253.22318945534
10
1291482.975785556
20
424252.90939455014
10
1291482.7755558607
20
424252.6560478435
10
1291482.4883194612
20
424252.3668471974
10
1291482.1140763573
20
424252.04179261194
10
1291481.6528265493
20
424251.6808840871
10
1291481.1045700368
20
424251.2841216228
10
1291480.5062561007
20
424250.90952819237
10
1291479.8578847405
20
424250.55710379593
10
1291479.1594559567
20
424250.2268484333
10
1291478.4109697493
20
424249.9187621046
10
1291477.7933124262
20
424249.6767880044
10
1291477.3064839873
20
424249.50092613266
10
1291476.9504844327
20
424249.3911764895
10
1291476.7253137627
20
424249.34753907484
10
1291476.4256068757
20
424249.30294893513
10
1291476.0513637718
20
424249.2574060705
10
1291475.6025844512
20
424249.2109104808
10
1291475.0792689135
20
424249.1634621661
10
1291474.666011101
20
424249.1397380088
10
1291474.3628110145
20
424249.1397380088
10
1291474.1696686533
20
424249.1634621661
10
1291474.0865840174
20
424249.2109104808
10
1291473.8642051518
20
424249.43361826875
10
1291473.502532056
20
424249.83158552996
10
1291473.0015647304
20
424250.4048122644
10
1291472.3613031746
20
424251.153298472
10
1291471.8748220038
20
424251.7230036204
10
1291471.542121218
20
424252.11392770964
10
1291471.3632008168
20
424252.32607073965
10
1291471.338060801
20
424252.35943271033
10
1291471.1320842367
20
424252.52577018586
10
1291470.7452711246
20
424252.8250831661
10
1291470.1776214647
20
424253.2573716511
10
1291469.4291352574
20
424253.8226356409
0
LWPOLYLINE
5
41
330
C
100
AcDbEntity
8
C-SITE-N
100
AcDbPolyline
90
8
70
1
43
0
38
0
39
0
10
1291587.6514625512
20
424177.25799560756
10
1291587.4413985307
20
424177.601690458
10
1291568.8862451212
20
424207.95915473584
10
1291566.4331028003
20
424207.1383430109
10
1291508.4711833328
20
424180.56162057235
10
1291532.7405984777
20
424162.41337802296
10
1291569.8091843745
20
424165.30368516577
10
1291587.6514625512
20
424177.25799560756
0
LWPOLYLINE
5
42
330
C
100
AcDbEntity
8
C-BLDG-FTPR-N
100
AcDbPolyline
90
5
70
1
43
0
38
0
39
0
10
1291583.0569342452
20
424180.94490356545
10
1291571.6104673252
20
424199.6729643112
10
1291544.2142251895
20
424182.92856222985
10
1291555.6606921095
20
424164.2005014841
10
1291583.0569342452
20
424180.94490356545
0
LWPOLYLINE
5
43
330
C
100
AcDbEntity
8
C-PVMT
100
AcDbPolyline
90
5
70
1
43
0
38
0
39
0
10
1291607.7646104791
20
424201.8762447054
10
1291601.5065970009
20
424212.11525184993
10
1291574.2046833804
20
424195.42845496075
10
1291580.462696859
20
424185.18944781634
10
1291607.7646104791
20
424201.8762447054
0
LWPOLYLINE
5
44
330
C
100
AcDbEntity
8
C-PVMT
100
AcDbPolyline
90
5
70
1
43
0
38
0
39
0
10
1291576.3855658069
20
424190.90145196434
10
1291580.6518154622
20
424193.5089630151
10
1291575.5410938025
20
424201.8708123391
10
1291571.2748441473
20
424199.26330128836
10
1291576.3855658069
20
424190.90145196434
0
LWPOLYLINE
5
45
330
C
100
AcDbEntity
8
C-PVMT
100
AcDbPolyline
90
5
70
1
43
0
38
0
39
0
10
1291582.8327015475
20
424188.98196225497
10
1291578.6606838661
20
424195.80796170316
10
1291575.247684142
20
424193.7219528625
10
1291579.4197018235
20
424186.8959534143
10
1291582.8327015475
20
424188.98196225497
0
LWPOLYLINE
5
46
330
C
100
AcDbEntity
8
C-PVMT
100
AcDbPolyline
90
5
70
1
43
0
38
0
39
0
10
1291620.4256410508
20
424181.1611340698
10
1291588.3270847693
20
424233.67882316
10
1291585.7673349762
20
424232.11431652954
10
1291617.8658912578
20
424179.5966274393
10
1291620.4256410508
20
424181.1611340698
0
LWPOLYLINE
5
47
330
C
100
AcDbEntity
8
C-TOPO-SURF
100
AcDbPolyline
90
5
70
1
43
0
38
0
39
0
10
1291623.8386407748
20
424183.24714291043
10
1291591.7400844933
20
424235.76483200066
10
1291588.3270847693
20
424233.67882316
10
1291620.4256410508
20
424181.1611340698
10
1291623.8386407748
20
424183.24714291043
0
LWPOLYLINE
5
48
330
C
100
AcDbEntity
8
C-PVMT
100
AcDbPolyline
90
5
70
1
43
0
38
0
39
0
10
1291625.1185156715
20
424184.0293962257
10
1291593.01995939
20
424236.5470853159
10
1291591.7400844933
20
424235.76483200066
10
1291623.8386407748
20
424183.24714291043
10
1291625.1185156715
20
424184.0293962257
0
LWPOLYLINE
5
49
330
C
100
AcDbEntity
8
C-PVMT
100
AcDbPolyline
90
5
70
1
43
0
38
0
39
0
10
1291604.6349719057
20
424217.5432598136
10
1291614.0219921235
20
424202.1847490969
10
1291605.2048586933
20
424200.3117413359
10
1291598.9468452148
20
424210.55074848037
10
1291604.6349719057
20
424217.5432598136
0
LWPOLYLINE
5
4A
330
C
100
AcDbEntity
8
C-LODS
100
AcDbPolyline
90
8
70
1
43
0
38
0
39
0
10
1291544.2142251895
20
424182.92856222985
10
1291555.6606921095
20
424164.2005014841
10
1291617.8658912578
20
424179.5966274393
10
1291625.1185156715
20
424184.0293962257
10
1291593.01995939
20
424236.5470853159
10
1291591.7400844933
20
424235.76483200066
10
1291585.7673349762
20
424232.11431652954
10
1291544.2142251895
20
424182.92856222985
0
LWPOLYLINE
5
4B
330
C
100
AcDbEntity
8
C-SITE-N
100
AcDbPolyline
90
12
70
1
43
0
38
0
39
0
10
1291615.4273152146
20
424181.29051272327
10
1291571.5938539566
20
424154.41129655886
10
1291509.2650498822
20
424148.6499481113
10
1291481.0780348617
20
424168.3542723862
10
1291470.0327539374
20
424176.033133759
10
1291466.0697242478
20
424178.80751541536
10
1291457.6114317223
20
424184.776098619
10
1291559.1308472587
20
424216.43608012964
10
1291585.1377582478
20
424229.8280834468
10
1291608.0960146294
20
424192.49245643994
10
1291613.437177606
20
424184.32325122115
10
1291615.4273152146
20
424181.29051272327
0
POINT
5
4C
330
C
100
AcDbEntity
8
C-TOPO-SPOT
100
AcDbPoint
10
1291546.4166093313
20
424183.0768132755
30
0
0
LWPOLYLINE
5
4D
330
C
100
AcDbEntity
8
C-UTIL
100
AcDbPolyline
90
2
70
0
43
0
38
0
39
0
10
1291629.402138725
20
424212.3590446269
10
1291581.6833582148
20
424183.19227085495
0
LWPOLYLINE
5
4E
330
C
100
AcDbEntity
8
C-UTIL
100
AcDbPolyline
90
2
70
0
43
0
38
0
39
0
10
1291624.479989558
20
424220.41200782306
10
1291576.7613774391
20
424191.2453369756
0
LWPOLYLINE
5
4F
330
C
100
AcDbEntity
8
C-SWMG
100
AcDbPolyline
90
5
70
1
43
0
38
0
39
0
10
1291511.5975889692
20
424151.25145867455
10
1291523.966905846
20
424151.25145867455
10
1291523.966905846
20
424163.6207755514
10
1291511.5975889692
20
424163.6207755514
10
1291511.5975889692
20
424151.25145867455
0
LWPOLYLINE
5
50
330
C
100
AcDbEntity
8
C-STRM-AREA
100
AcDbPolyline
90
12
70
1
43
0
38
0
39
0
10
1291620.4256410508
20
424181.1611340698
10
1291574.8934164678
20
424150.6545842683
10
1291505.5975889692
20
424145.25145867455
10
1291476.2003278367
20
424167.25519359997
10
1291465.053877979
20
424175.5740104741
10
1291461.076767875
20
424178.54221056955
10
1291452.6123468396
20
424184.8717560108
10
1291560.9115510825
20
424221.1082417163
10
1291588.3270847693
20
424233.67882316
10
1291613.0387549233
20
424193.2469883398
10
1291618.436313131
20
424184.41622435424
10
1291620.4256410508
20
424181.1611340698
0
LWPOLYLINE
5
51
330
C
100
AcDbEntity
8
C-SITE-N
100
AcDbPolyline
90
5
70
1
43
0
38
0
39
0
10
1291544.2142251895
20
424166.92856222985
10
1291574.2142251895
20
424166.92856222985
10
1291574.2142251895
20
424182.92856222985
10
1291544.2142251895
20
424182.92856222985
10
1291544.2142251895
20
424166.92856222985
0
LWPOLYLINE
5
52
330
C
100
AcDbEntity
8
L-PLNT-TREE
100
AcDbPolyline
90
5
70
1
43
0
38
0
39
0
10
1291615.0037324787
20
424186.43920117186
10
1291625.0037324787
20
424186.43920117186
10
1291625.0037324787
20
424196.43920117186
10
1291615.0037324787
20
424196.43920117186
10
1291615.0037324787
20
424186.43920117186
0
LWPOLYLINE
5
53
330
C
100
AcDbEntity
8
L-PLNT-TREE
100
AcDbPolyline
90
5
70
1
43
0
38
0
39
0
10
1291578.5708488293
20
424205.27156224474
10
1291590.5708488293
20
424205.27156224474
10
1291590.5708488293
20
424217.27156224474
10
1291578.5708488293
20
424217.27156224474
10
1291578.5708488293
20
424205.27156224474
0
ENDSEC
0
SECTION
2
OBJECTS
0
DICTIONARY
5
A
330
0
100
AcDbDictionary
281
1
3
ACAD_GROUP
350
B
0
DICTIONARY
5
B
330
A
100
AcDbDictionary
281
0
0
ENDSEC
0
EOF