0
SECTION
2
HEADER
9
$ACADVER
1
AC1021
9
$LASTSAVEDBY
1
@tarikjabiri/dxf
9
$HANDSEED
5
50
9
$INSUNITS
70
0
9
$CLAYER
8
0
9
$VIEWCTR
10
1319908.9489254635
20
256148.66716947127
0
ENDSEC
0
SECTION
2
CLASSES
0
ENDSEC
0
SECTION
2
TABLES
0
TABLE
2
VPORT
5
1
330
0
100
AcDbSymbolTable
70
1
0
VPORT
5
19
330
1
100
AcDbSymbolTableRecord
100
AcDbViewportTableRecord
2
*Active
70
0
10
0
20
0
11
1
21
1
12
1319908.9489254635
22
256148.66716947127
13
0
23
0
14
10
24
10
15
10
25
10
16
0
26
0
36
1
17
0
27
0
37
0
40
299.38478451245464
41
2
42
50
43
0
44
0
50
0
51
0
71
0
72
100
73
1
74
3
75
0
76
1
77
0
78
0
281
0
65
1
110
0
120
0
130
0
111
1
121
0
131
0
112
0
122
1
132
0
79
0
146
0
348
10020
60
7
61
5
292
1
282
1
141
0
142
0
63
250
421
3358443
0
ENDTAB
0
TABLE
2
LTYPE
5
2
330
0
100
AcDbSymbolTable
70
7
0
LTYPE
5
12
330
2
100
AcDbSymbolTableRecord
100
AcDbLinetypeTableRecord
2
ByBlock
70
0
3

72
65
73
0
40
0
0
LTYPE
5
13
330
2
100
AcDbSymbolTableRecord
100
AcDbLinetypeTableRecord
2
ByLayer
70
0
3

72
65
73
0
40
0
0
LTYPE
5
14
330
2
100
AcDbSymbolTableRecord
100
AcDbLinetypeTableRecord
2
Continuous
70
0
3
Solid line
72
65
73
0
40
0
0
LTYPE
5
1A
330
2
100
AcDbSymbolTableRecord
100
AcDbLinetypeTableRecord
2
DASHED
70
0
3
Dashed __ __ __ __ __ __
72
65
73
2
40
6
49
4
74
0
49
-2
74
0
0
LTYPE
5
1B
330
2
100
AcDbSymbolTableRecord
100
AcDbLinetypeTableRecord
2
HIDDEN
70
0
3
Hidden __ __ __ __ __
72
65
73
2
40
3
49
2
74
0
49
-1
74
0
0
LTYPE
5
1C
330
2
100
AcDbSymbolTableRecord
100
AcDbLinetypeTableRecord
2
PHANTOM
70
0
3
Phantom ____ _ _ ____ _ _
72
65
73
6
40
13
49
8
74
0
49
-1
74
0
49
1
74
0
49
-1
74
0
49
1
74
0
49
-1
74
0
0
LTYPE
5
1D
330
2
100
AcDbSymbolTableRecord
100
AcDbLinetypeTableRecord
2
DASHDOT
70
0
3
Dash dot __ . __ . __ .
72
65
73
4
40
8
49
4
74
0
49
-2
74
0
49
0
74
0
49
-2
74
0
0
ENDTAB
0
TABLE
2
LAYER
5
3
330
0
100
AcDbSymbolTable
70
14
0
LAYER
5
15
330
3
100
AcDbSymbolTableRecord
100
AcDbLayerTableRecord
2
0
70
0
62
7
6
Continuous
370
0
390
0
0
LAYER
5
1E
330
3
100
AcDbSymbolTableRecord
100
AcDbLayerTableRecord
2
C-BLDG-FTPR-N
70
0
62
6
6
Continuous
370
0
390
0
0
LAYER
5
1F
330
3
100
AcDbSymbolTableRecord
100
AcDbLayerTableRecord
2
C-LODS
70
0
62
30
6
PHANTOM
370
0
390
0
0
LAYER
5
20
330
3
100
AcDbSymbolTableRecord
100
AcDbLayerTableRecord
2
C-PVMT
70
0
62
8
6
Continuous
370
0
390
0
0
LAYER
5
21
330
3
100
AcDbSymbolTableRecord
100
AcDbLayerTableRecord
2
C-SITE-N
70
0
62
6
6
Continuous
370
0
390
0
0
LAYER
5
22
330
3
100
AcDbSymbolTableRecord
100
AcDbLayerTableRecord
2
C-STRM-AREA
70
0
62
150
6
PHANTOM
370
0
390
0
0
LAYER
5
23
330
3
100
AcDbSymbolTableRecord
100
AcDbLayerTableRecord
2
C-SWMG
70
0
62
92
6
Continuous
370
0
390
0
0
LAYER
5
24
330
3
100
AcDbSymbolTableRecord
100
AcDbLayerTableRecord
2
C-TOPO-MAJR-E
70
0
62
32
6
DASHED
370
0
390
0
0
LAYER
5
25
330
3
100
AcDbSymbolTableRecord
100
AcDbLayerTableRecord
2
C-TOPO-SPOT
70
0
62
7
6
Continuous
370
0
390
0
0
LAYER
5
26
330
3
100
AcDbSymbolTableRecord
100
AcDbLayerTableRecord
2
C-TOPO-SURF
70
0
62
253
6
Continuous
370
0
390
0
0
LAYER
5
27
330
3
100
AcDbSymbolTableRecord
100
AcDbLayerTableRecord
2
C-UTIL
70
0
62
4
6
DASHED
370
0
390
0
0
LAYER
5
28
330
3
100
AcDbSymbolTableRecord
100
AcDbLayerTableRecord
2
L-PLNT-TREE
70
0
62
90
6
Continuous
370
0
390
0
0
LAYER
5
29
330
3
100
AcDbSymbolTableRecord
100
AcDbLayerTableRecord
2
V-PROP-BNDY
70
0
62
7
6
Continuous
370
0
390
0
0
LAYER
5
2A
330
3
100
AcDbSymbolTableRecord
100
AcDbLayerTableRecord
2
C-ANNO-NPLT
70
0
62
250
6
Continuous
370
0
390
0
0
ENDTAB
0
TABLE
2
STYLE
5
4
330
0
100
AcDbSymbolTable
70
1
0
STYLE
5
16
330
4
100
AcDbSymbolTableRecord
100
AcDbTextStyleTableRecord
2
Standard
70
0
40
0
41
1
50
0
71
0
42
1
3
txt
4

0
ENDTAB
0
TABLE
2
VIEW
5
5
330
0
100
AcDbSymbolTable
70
0
0
ENDTAB
0
TABLE
2
UCS
5
6
330
0
100
AcDbSymbolTable
70
0
0
ENDTAB
0
TABLE
2
APPID
5
7
330
0
100
AcDbSymbolTable
70
1
0
APPID
5
17
330
7
100
AcDbSymbolTableRecord
100
AcDbRegAppTableRecord
2
ACAD
70
0
0
ENDTAB
0
TABLE
2
DIMSTYLE
5
8
330
0
100
AcDbSymbolTable
70
1
100
AcDbDimStyleTable
0
DIMSTYLE
105
18
330
8
100
AcDbSymbolTableRecord
100
AcDbDimStyleTableRecord
2
Standard
70
0
340
16
0
ENDTAB
0
TABLE
2
BLOCK_RECORD
5
9
330
0
100
AcDbSymbolTable
70
2
0
BLOCK_RECORD
5
C
330
9
100
AcDbSymbolTableRecord
100
AcDbBlockTableRecord
2
*Model_Space
70
0
280
1
281
0
0
BLOCK_RECORD
5
F
330
9
100
AcDbSymbolTableRecord
100
AcDbBlockTableRecord
2
*Paper_Space
70
0
280
1
281
0
0
ENDTAB
0
ENDSEC
0
SECTION
2
BLOCKS
0
BLOCK
5
D
330
C
100
AcDbEntity
8
0
100
AcDbBlockBegin
2
*Model_Space
70
0
10
0
20
0
30
0
3
*Model_Space
1

0
ENDBLK
5
E
100
AcDbEntity
8
0
100
AcDbBlockEnd
0
BLOCK
5
10
330
F
100
AcDbEntity
8
0
100
AcDbBlockBegin
2
*Paper_Space
70
0
10
0
20
0
30
0
3
*Paper_Space
1

0
ENDBLK
5
11
100
AcDbEntity
8
0
100
AcDbBlockEnd
0
ENDSEC
0
SECTION
2
ENTITIES
0
TEXT
5
2B
330
C
100
AcDbEntity
8
C-ANNO-NPLT
100
AcDbText
10
1319846.5453748836
20
256118.97477721504
30
0
40
2.5
1
PRELIMINARY - NOT SEALED - NOT FOR CONSTRUCTION OR PERMIT SUBMISSION
7
STANDARD
100
AcDbText
0
TEXT
5
2C
330
C
100
AcDbEntity
8
C-ANNO-NPLT
100
AcDbText
10
1319846.5453748836
20
256114.97477721504
30
0
40
2.5
1
GENERATED 2026-09-26T02:49:59.686Z BY KEALEE SITE PLAN ENGINE
7
STANDARD
100
AcDbText
0
TEXT
5
2D
330
C
100
AcDbEntity
8
C-ANNO-NPLT
100
AcDbText
10
1319846.5453748836
20
256110.97477721504
30
0
40
2.5
1
HORIZONTAL: EPSG:2248
7
STANDARD
100
AcDbText
0
TEXT
5
2E
330
C
100
AcDbEntity
8
C-ANNO-NPLT
100
AcDbText
10
1319846.5453748836
20
256106.97477721504
30
0
40
2.5
1
VERTICAL: NAVD88 (feet)
7
STANDARD
100
AcDbText
0
TEXT
5
2F
330
C
100
AcDbEntity
8
C-ANNO-NPLT
100
AcDbText
10
1319846.5453748836
20
256102.97477721504
30
0
40
2.5
1
SOURCES: Parcel boundary — jurisdiction gis (Maryland Department of Planning — MD iMAP parcel boundaries — Plat 17  66, Block O, Lot 24, level 1); Existing contours (U.S. Geological Survey — 3D Elevation Program — 3DEP bare-earth DEM — MD_VA_Sandy_NCR_2014, level 1)
7
STANDARD
100
AcDbText
0
TEXT
5
30
330
C
100
AcDbEntity
8
C-ANNO-NPLT
100
AcDbText
10
1319846.5453748836
20
256098.97477721504
30
0
40
2.5
1
THIS FILE IS DATA FOR A LICENSED PROFESSIONAL. IT IS NOT A SEALED DRAWING.
7
STANDARD
100
AcDbText
0
LWPOLYLINE
5
31
330
C
100
AcDbEntity
8
V-PROP-BNDY
100
AcDbPolyline
90
18
70
1
43
0
38
0
39
0
10
1320005.809156384
20
256265.11269953966
10
1320004.1093177523
20
256222.03867105904
10
1320003.2598063797
20
256191.63054751416
10
1320002.8429417994
20
256187.72972815295
10
1320001.8210531985
20
256183.94235599873
10
1320000.2188381765
20
256180.36128775368
10
1319998.0764488818
20
256177.07476787936
10
1319995.4466596576
20
256174.16411942255
10
1319992.3935800816
20
256171.70092210436
10
1319988.9929130937
20
256169.74521701303
10
1319985.3278340425
20
256168.34576177303
10
1319981.489249217
20
256167.53669638952
10
1319977.5714171606
20
256167.33831116612
10
1319922.26730249
20
256169.4754535003
10
1319867.0220938944
20
256172.79437887127
10
1319875.612564432
20
256264.64575658579
10
1319876.2742357543
20
256271.72273683164
10
1320005.809156384
20
256265.11269953966
0
LWPOLYLINE
5
32
330
C
100
AcDbEntity
8
C-TOPO-MAJR-E
100
AcDbPolyline
90
105
70
0
43
0
38
0
39
0
10
1320001.6707101204
20
256147.28227479756
10
1320001.1018938576
20
256147.59009376794
10
1320000.6229125678
20
256147.87216967603
10
1320000.2337662505
20
256148.12850252184
10
1320000.0096024002
20
256148.50787370815
10
1319999.9504210167
20
256149.01028323485
10
1320000.0562221
20
256149.63573110208
10
1320000.3270056504
20
256150.38421730977
10
1320000.4455640712
20
256151.13270351742
10
1320000.4118973631
20
256151.88118972513
10
1320000.2260055253
20
256152.62967593278
10
1319999.8878885582
20
256153.3781621404
10
1319999.5612992146
20
256153.9964604603
10
1319999.2462374945
20
256154.4845708925
10
1319998.9427033975
20
256154.84249343688
10
1319998.650696924
20
256155.07022809348
10
1319998.2445705165
20
256155.23244429432
10
1319997.724324176
20
256155.32914203935
10
1319997.0899579017
20
256155.3603213286
10
1319996.3414716944
20
256155.32598216203
10
1319995.65648609
20
256155.2518789146
10
1319995.0350010889
20
256155.1380115863
10
1319994.4770166911
20
256154.9843801771
10
1319993.982532897
20
256154.79098468702
10
1319993.548169448
20
256154.61687252353
10
1319993.1739263441
20
256154.46204368662
10
1319992.8598035856
20
256154.3264981763
10
1319992.605801172
20
256154.21023599256
10
1319992.22817781
20
256154.01192230408
10
1319991.7269334996
20
256153.73155711088
10
1319991.1020682403
20
256153.36914041295
10
1319990.353582033
20
256152.92467221027
10
1319989.6050958252
20
256152.57693169342
10
1319988.8566096174
20
256152.3259188624
10
1319988.1081234096
20
256152.17163371717
10
1319987.3596372022
20
256152.11407625777
10
1319986.6276254714
20
256152.03835857275
10
1319985.9120882177
20
256151.94448066212
10
1319985.2130254414
20
256151.8324425259
10
1319984.530437142
20
256151.70224416404
10
1319984.0020214403
20
256151.60036996854
10
1319983.6277783364
20
256151.52681993938
10
1319983.4077078304
20
256151.4815940766
10
1319983.3418099224
20
256151.46469238016
10
1319983.1052649394
20
256151.44901758374
10
1319982.6980728814
20
256151.43456968735
10
1319982.1202337486
20
256151.42134869093
10
1319981.3717475408
20
256151.40935459445
10
1319980.623261333
20
256151.39864819852
10
1319979.8747751252
20
256151.38922950305
10
1319979.1262889176
20
256151.38109850805
10
1319978.3778027103
20
256151.37425521354
10
1319977.788490121
20
256151.3780575145
10
1319977.35835115
20
256151.3925054109
10
1319977.0873857976
20
256151.41759890283
10
1319976.9755940635
20
256151.4533379902
10
1319976.7325766445
20
256151.51718277053
10
1319976.3583335408
20
256151.6091332438
10
1319975.852864752
20
256151.72918941
10
1319975.2161702784
20
256151.87735126913
10
1319974.5515278713
20
256151.9909800816
10
1319973.8589375303
20
256152.0700758475
10
1319973.1383992562
20
256152.11463856674
10
1319972.3899130488
20
256152.12466823932
10
1319971.6414268413
20
256152.1420156208
10
1319970.8929406335
20
256152.16668071115
10
1319970.1444544257
20
256152.19866351032
10
1319969.3959682179
20
256152.23796401845
10
1319968.6829999299
20
256152.21806638956
10
1319968.0055495617
20
256152.13897062367
10
1319967.363617113
20
256152.0006767208
10
1319966.7572025843
20
256151.803184681
10
1319966.2668737678
20
256151.64157729468
10
1319965.8926306642
20
256151.51585456188
10
1319965.6344732728
20
256151.42601648264
10
1319965.492401594
20
256151.37206305692
10
1319965.198726283
20
256151.258185126
10
1319964.7534473399
20
256151.0843826899
10
1319964.1565647642
20
256150.85065574863
10
1319963.4080785569
20
256150.55700430213
10
1319962.659592349
20
256150.31734946894
10
1319961.9111061413
20
256150.13169124903
10
1319961.1626199335
20
256150.00002964237
10
1319960.4141337262
20
256149.922364649
10
1319959.6656475184
20
256149.91040658462
10
1319958.9171613106
20
256149.96415544912
10
1319958.1686751028
20
256150.0836112426
10
1319957.4201888954
20
256150.268773965
10
1319956.6717026876
20
256150.466938162
10
1319955.92321648
20
256150.67810383352
10
1319955.1747302725
20
256150.90227097963
10
1319954.4262440647
20
256151.13943960035
10
1319953.677757857
20
256151.22198525973
10
1319952.929271649
20
256151.14990795776
10
1319952.1807854415
20
256150.92320769452
10
1319951.4322992342
20
256150.54188446997
10
1319950.7710615331
20
256150.1648359364
10
1319950.1970723383
20
256149.79206209377
10
1319949.71033165
20
256149.42356294213
10
1319949.3108394681
20
256149.05933848157
10
1319948.9239718253
20
256148.68735261587
10
1319948.5497287214
20
256148.30760534515
10
1319948.1881101565
20
256147.9200966694
10
1319947.8391161305
20
256147.52482658863
10
1319947.390249059
20
256147.20165489463
0
LWPOLYLINE
5
33
330
C
100
AcDbEntity
8
C-TOPO-MAJR-E
100
AcDbPolyline
90
24
70
0
43
0
38
0
39
0
10
1319941.7425229144
20
256147.1196782862
10
1319941.0751254675
20
256147.37075159347
10
1319940.4482724012
20
256147.66574050434
10
1319939.8619637156
20
256148.00464501884
10
1319939.381687821
20
256148.2789806637
10
1319939.007444717
20
256148.48874743888
10
1319938.7392344042
20
256148.63394534445
10
1319938.5770568824
20
256148.71457438037
10
1319938.2683021892
20
256148.7923946993
10
1319937.8129703244
20
256148.86740630123
10
1319937.2110612881
20
256148.93960918614
10
1319936.4625750808
20
256149.00900335412
10
1319935.714088873
20
256149.04954929056
10
1319934.9656026652
20
256149.06124699558
10
1319934.2171164574
20
256149.04409646918
10
1319933.46863025
20
256148.9980977113
10
1319932.764348846
20
256148.93759253138
10
1319932.1042722454
20
256148.86258092948
10
1319931.4884004486
20
256148.77306290553
10
1319930.9167334554
20
256148.66903845954
10
1319930.6308999588
20
256148.46633380343
10
1319930.6308999588
20
256148.1649489372
10
1319930.9167334554
20
256147.76488386077
10
1319931.4884004486
20
256147.26613857428
0
LWPOLYLINE
5
34
330
C
100
AcDbEntity
8
C-TOPO-MAJR-E
100
AcDbPolyline
90
327
70
0
43
0
38
0
39
0
10
1320025.9937108327
20
256193.45008151216
10
1320025.698522849
20
256193.59811840768
10
1320025.4823899851
20
256193.7154145123
10
1320025.1794314254
20
256193.96118411652
10
1320024.7896471694
20
256194.33542722033
10
1320024.3130372174
20
256194.83814382378
10
1320023.7496015693
20
256195.46933392683
10
1320023.2807621933
20
256195.9680139966
10
1320022.9065190894
20
256196.3341840331
10
1320022.6268722578
20
256196.56784403627
10
1320022.441821698
20
256196.66899400624
10
1320022.1159122265
20
256196.770267691
10
1320021.649143843
20
256196.8716650906
10
1320021.041516547
20
256196.97318620508
10
1320020.2930303398
20
256197.07483103446
10
1320019.6158757291
20
256197.10036595666
10
1320019.0100527154
20
256197.04979097174
10
1320018.4755612991
20
256196.9231060796
10
1320018.0124014798
20
256196.72031128034
10
1320017.5937000182
20
256196.5312927592
10
1320017.2194569143
20
256196.3560505162
10
1320016.8896721683
20
256196.19458455133
10
1320016.6043457799
20
256196.04689486462
10
1320016.2032294367
20
256195.83848572633
10
1320015.686323139
20
256195.5693571365
10
1320015.053626886
20
256195.23950909506
10
1320014.3051406783
20
256194.84894160207
10
1320013.6375278381
20
256194.50345872535
10
1320013.0507883658
20
256194.20306046485
10
1320012.5449222608
20
256193.94774682063
10
1320012.1199295237
20
256193.73751779267
10
1320011.720311603
20
256193.54314685395
10
1320011.3460684991
20
256193.3646340045
10
1320010.997200212
20
256193.20197924427
10
1320010.6737067418
20
256193.0551825733
10
1320010.243965087
20
256192.8584510351
10
1320009.707975248
20
256192.61178462964
10
1320009.0657372246
20
256192.315183357
10
1320008.3172510169
20
256191.9686472171
10
1320007.568764809
20
256191.6996371078
10
1320006.8202786013
20
256191.5081530292
10
1320006.0717923937
20
256191.3941949812
10
1320005.3233061864
20
256191.3577629638
10
1320004.5748199788
20
256191.3165734065
10
1320003.826333771
20
256191.27062630933
10
1320003.0778475632
20
256191.2199216722
10
1320002.3293613554
20
256191.1644594951
10
1320001.5808751476
20
256191.0977636893
10
1320000.8323889403
20
256191.01983425475
10
1320000.0839027325
20
256190.93067119143
10
1319999.335416525
20
256190.8302744993
10
1319998.654683171
20
256190.7392613527
10
1319998.0417026707
20
256190.6576317515
10
1319997.4964750244
20
256190.5853856958
10
1319997.019000232
20
256190.52252318553
10
1319996.5931412838
20
256190.4636692808
10
1319996.21889818
20
256190.40882398165
10
1319995.8962709205
20
256190.3579872881
10
1319995.6252595051
20
256190.31115920015
10
1319995.234879392
20
256190.2259325701
10
1319994.7251305806
20
256190.10230739793
10
1319994.096013071
20
256189.94028368368
10
1319993.3475268637
20
256189.73986142737
10
1319992.599040656
20
256189.54294845925
10
1319991.850554448
20
256189.3495447793
10
1319991.1020682403
20
256189.15965038756
10
1319990.353582033
20
256188.973265284
10
1319989.6050958252
20
256188.79228817747
10
1319988.8566096174
20
256188.61671906794
10
1319988.1081234096
20
256188.44655795547
10
1319987.3596372022
20
256188.28180484005
10
1319986.6111509944
20
256188.13081915613
10
1319985.8626647866
20
256187.9936009037
10
1319985.114178579
20
256187.87015008277
10
1319984.3656923715
20
256187.7604666934
10
1319983.6172061637
20
256187.70001208739
10
1319982.8687199564
20
256187.6887862647
10
1319982.1202337486
20
256187.72678922545
10
1319981.3717475408
20
256187.81402096953
10
1319980.623261333
20
256187.85301581176
10
1319979.8747751252
20
256187.84377375225
10
1319979.1262889176
20
256187.78629479086
10
1319978.3778027103
20
256187.68057892768
10
1319977.6293165027
20
256187.73552800628
10
1319976.880830295
20
256187.95114202664
10
1319976.1323440871
20
256188.32742098876
10
1319975.3838578793
20
256188.86436489265
10
1319974.6353716715
20
256189.19552615934
10
1319973.8868854637
20
256189.3209047888
10
1319973.1383992562
20
256189.24050078104
10
1319972.3899130488
20
256188.95431413603
10
1319971.7374395118
20
256188.6715023036
10
1319971.180978645
20
256188.39206528373
10
1319970.720530449
20
256188.1160030764
10
1319970.3560949233
20
256187.8433156816
10
1319969.9867556086
20
256187.57230309036
10
1319969.6125125047
20
256187.30296530272
10
1319969.2333656116
20
256187.0353023186
10
1319968.84931493
20
256186.76931413807
10
1319968.393652859
20
256186.4491984959
10
1319967.8663793989
20
256186.07495539205
10
1319967.26749455
20
256185.64658482655
10
1319966.5969983125
20
256185.16408679943
10
1319966.0746286418
20
256184.78624668138
10
1319965.700385538
20
256184.51306447247
10
1319965.474269001
20
256184.3445401727
10
1319965.396279031
20
256184.28067378202
10
1319965.1648228697
20
256184.06161903476
10
1319964.7799005166
20
256183.68737593092
10
1319964.2415119724
20
256183.15794447053
10
1319963.549657237
20
256182.47332465355
10
1319963.0166083174
20
256181.9463862119
10
1319962.6423652135
20
256181.57712914562
10
1319962.4269279256
20
256181.3655534547
10
1319962.3702964531
20
256181.31165913912
10
1319962.1407012972
20
256181.19707045399
10
1319961.7381424573
20
256181.02178739937
10
1319961.1626199335
20
256180.7858099752
10
1319960.4141337262
20
256180.4891381815
10
1319959.6656475184
20
256180.27733251645
10
1319958.9171613106
20
256180.15039298008
10
1319958.1686751028
20
256180.10831957232
10
1319957.4201888954
20
256180.15111229318
10
1319956.6717026876
20
256180.14885314665
10
1319955.92321648
20
256180.10154213262
10
1319955.1747302725
20
256180.00917925118
10
1319954.4262440647
20
256179.8717645023
10
1319953.7039878238
20
256179.69287892303
10
1319953.0079615498
20
256179.47252251342
10
1319952.3381652427
20
256179.2106952734
10
1319951.6945989025
20
256178.90739720297
10
1319951.1856941802
20
256178.67124507495
10
1319950.8114510763
20
256178.5022388893
10
1319950.5718695908
20
256178.40037864604
10
1319950.4669497234
20
256178.3656643451
10
1319950.201138271
20
256178.32246956506
10
1319949.7744352338
20
256178.2707943059
10
1319949.186840611
20
256178.21063856757
10
1319948.4383544032
20
256178.14200235007
10
1319947.849909827
20
256178.11636281657
10
1319947.4215068822
20
256178.13371996704
10
1319947.1531455691
20
256178.19407380145
10
1319947.0448258875
20
256178.2974243198
10
1319946.8250866286
20
256178.5620587605
10
1319946.4939277917
20
256178.98797712353
10
1319946.0513493777
20
256179.57517940886
10
1319945.4973513866
20
256180.3236656165
10
1319945.060310759
20
256180.90363834298
10
1319944.7402274963
20
256181.3150975882
10
1319944.5371015973
20
256181.55804335218
10
1319944.450933063
20
256181.63247563492
10
1319944.322089162
20
256181.66969177627
10
1319944.1505698946
20
256181.66969177627
10
1319943.9363752606
20
256181.63247563492
10
1319943.6795052604
20
256181.55804335218
10
1319943.3639487084
20
256181.42275043772
10
1319942.9897056045
20
256181.22659689153
10
1319942.556775949
20
256180.96958271362
10
1319942.0651597413
20
256180.65170790398
10
1319941.6228703237
20
256180.49277049914
10
1319941.2299076961
20
256180.49277049914
10
1319940.8862718581
20
256180.65170790398
10
1319940.5919628101
20
256180.96958271362
10
1319940.2576867342
20
256181.2783712766
10
1319939.8834436303
20
256181.57807359297
10
1319939.4692334987
20
256181.86868966272
10
1319939.0150563393
20
256182.1502194858
10
1319938.55481982
20
256182.4781059493
10
1319938.0885239406
20
256182.85234905314
10
1319937.6161687016
20
256183.27294879733
10
1319937.1377541022
20
256183.7399051819
10
1319936.7114252509
20
256184.14606029537
10
1319936.3371821472
20
256184.4914141378
10
1319936.015024791
20
256184.77596670916
10
1319935.744953182
20
256184.99971800947
10
1319935.3905019644
20
256185.29871521154
10
1319934.951671138
20
256185.67295831535
10
1319934.4284607023
20
256186.12244732096
10
1319933.8208706575
20
256186.64718222836
10
1319933.329954083
20
256187.06686086528
10
1319932.9557109792
20
256187.38148323173
10
1319932.6981413458
20
256187.59104932772
10
1319932.5572451828
20
256187.69555915325
10
1319932.2644515086
20
256187.77132683725
10
1319931.8197603233
20
256187.8183523797
10
1319931.2231716267
20
256187.8366357806
10
1319930.4746854194
20
256187.82617704
10
1319929.8670095098
20
256187.79482021328
10
1319929.400143899
20
256187.74256530052
10
1319929.0740885863
20
256187.66941230168
10
1319928.8888435722
20
256187.57536121676
10
1319928.6090995132
20
256187.41493115766
10
1319928.2348564095
20
256187.18812212438
10
1319927.7661142608
20
256186.8949341169
10
1319927.2028730672
20
256186.53536713525
10
1319926.6166222417
20
256186.16846209246
10
1319926.007361784
20
256185.79421898865
10
1319925.3750916945
20
256185.41263782373
10
1319924.719811973
20
256185.02371859772
10
1319924.2050505602
20
256184.70929802215
10
1319923.8308074563
20
256184.4693760969
10
1319923.5970826615
20
256184.30395282217
10
1319923.5038761753
20
256184.21302819793
10
1319923.246849759
20
256184.0636584285
10
1319922.8260034123
20
256183.8558435139
10
1319922.241337135
20
256183.58958345422
10
1319921.4928509272
20
256183.26487824944
10
1319920.7443647194
20
256183.05463971925
10
1319919.9958785116
20
256182.95886786375
10
1319919.247392304
20
256182.97756268285
10
1319918.4989060967
20
256183.11072417657
10
1319917.8190736645
20
256183.2812123807
10
1319917.2078950075
20
256183.48902729526
10
1319916.6653701263
20
256183.73416892023
10
1319916.1914990202
20
256184.01663725564
10
1319915.7674419153
20
256184.26035214937
10
1319915.3931988114
20
256184.46531360142
10
1319915.0687697087
20
256184.63152161185
10
1319914.794154607
20
256184.7589761806
10
1319914.4010717287
20
256184.9134583875
10
1319913.8895210738
20
256185.09496823265
10
1319913.2595026426
20
256185.30350571594
10
1319912.5110164352
20
256185.5390708374
10
1319911.7625302277
20
256185.72942463937
10
1319911.0140440199
20
256185.8745671218
10
1319910.265557812
20
256185.97449828466
10
1319909.5170716043
20
256186.02921812804
10
1319908.7685853967
20
256186.06858858583
10
1319908.0200991891
20
256186.09260965802
10
1319907.2716129813
20
256186.10128134466
10
1319906.523126774
20
256186.09460364567
10
1319905.7746405662
20
256186.05524565658
10
1319905.0261543584
20
256185.98320737726
10
1319904.2776681506
20
256185.87848880782
10
1319903.5291819433
20
256185.74108994822
10
1319902.7806957355
20
256185.62097738544
10
1319902.0322095277
20
256185.5181511194
10
1319901.2837233199
20
256185.43261115014
10
1319900.5352371125
20
256185.36435747764
10
1319899.7867509048
20
256185.34426149935
10
1319899.038264697
20
256185.37232321518
10
1319898.2897784892
20
256185.44854262518
10
1319897.5412922818
20
256185.57291972934
10
1319896.792806074
20
256185.70977779917
10
1319896.0443198665
20
256185.85911683468
10
1319895.295833659
20
256186.02093683588
10
1319894.547347451
20
256186.19523780272
10
1319893.7988612433
20
256186.36734266137
10
1319893.0503750355
20
256186.53725141176
10
1319892.301888828
20
256186.70496405393
10
1319891.5534026206
20
256186.87048058788
10
1319890.9127188185
20
256187.01433856337
10
1319890.3798374217
20
256187.13653798043
10
1319889.9547584308
20
256187.23707883904
10
1319889.6374818454
20
256187.3159611392
10
1319889.2917220008
20
256187.40853935163
10
1319888.9174788971
20
256187.51481347636
10
1319888.514752534
20
256187.63478351338
10
1319888.0835429116
20
256187.7684494627
10
1319887.573014143
20
256187.93031971628
10
1319886.9831662278
20
256188.12039427407
10
1319886.3139991665
20
256188.3386731362
10
1319885.5655129591
20
256188.58515630255
10
1319884.8170267516
20
256188.77608460543
10
1319884.0685405438
20
256188.9114580449
10
1319883.320054336
20
256188.99127662086
10
1319882.5715681282
20
256189.01554033338
10
1319881.8230819204
20
256188.97881433397
10
1319881.074595713
20
256188.8810986226
10
1319880.3261095053
20
256188.72239319928
10
1319879.5776232977
20
256188.50269806397
10
1319878.867930083
20
256188.2917472893
10
1319878.1970298612
20
256188.0895408752
10
1319877.5649226324
20
256187.89607882168
10
1319876.9716083966
20
256187.71136112878
10
1319876.4878297267
20
256187.56170951092
10
1319876.113586623
20
256187.4471239681
10
1319875.8488790852
20
256187.36760450035
10
1319875.6937071132
20
256187.32315110767
10
1319875.3902065824
20
256187.25032310048
10
1319874.9383774926
20
256187.14912047883
10
1319874.3382198438
20
256187.01954324273
10
1319873.5897336365
20
256186.8615913921
10
1319872.8412474287
20
256186.65437069145
10
1319872.0927612209
20
256186.39788114067
10
1319871.344275013
20
256186.09212273982
10
1319870.5957888057
20
256185.73709548893
10
1319869.8634561
20
256185.61018317429
10
1319869.1472768963
20
256185.71138579593
10
1319868.4472511946
20
256186.04070335388
10
1319867.7633789948
20
256186.5981358481
10
1319867.234321343
20
256187.0422827515
10
1319866.8600782393
20
256187.3731440641
10
1319866.6406496833
20
256187.59071978592
10
1319866.5760356756
20
256187.6950099169
10
1319866.3404536175
20
256187.88829424683
10
1319865.9339035098
20
256188.17057277568
10
1319865.3563853519
20
256188.54184550344
10
1319864.6078991445
20
256189.00211243014
10
1319863.859412937
20
256189.31486580902
10
1319863.1109267292
20
256189.48010564008
10
1319862.3624405214
20
256189.49783192333
10
1319861.6139543136
20
256189.3680446588
10
1319860.8654681058
20
256189.26712188538
10
1319860.116981898
20
256189.19506360302
10
1319859.3684956904
20
256189.15186981182
10
1319858.620009483
20
256189.13754051173
10
1319857.8715232755
20
256189.1284065639
10
1319857.1230370677
20
256189.1244679683
10
1319856.37455086
20
256189.12572472496
10
1319855.626064652
20
256189.1321768339
10
1319854.8775784443
20
256189.18008693832
10
1319854.129092237
20
256189.2694550382
10
1319853.3806060292
20
256189.4002811336
10
1319852.6321198216
20
256189.5725652245
10
1319852.0314311641
20
256189.73910567135
10
1319851.5785400567
20
256189.89990247422
10
1319851.2734464998
20
256190.05495563307
10
1319851.1161504928
20
256190.20426514786
10
1319850.8503809376
20
256190.4169139875
10
1319850.4761378337
20
256190.69290215196
10
1319849.9934211813
20
256191.03222964128
10
1319849.4022309806
20
256191.43489645538
10
1319848.7717167782
20
256191.7794562271
10
1319848.1018785737
20
256192.0659089564
10
1319847.3927163677
20
256192.2942546433
10
1319846.6442301604
20
256192.46449328779
0
LWPOLYLINE
5
35
330
C
100
AcDbEntity
8
C-TOPO-MAJR-E
100
AcDbPolyline
90
17
70
0
43
0
38
0
39
0
10
1319865.7241062813
20
256179.98707201495
10
1319865.2207673597
20
256180.5708011802
10
1319864.969097899
20
256181.15285444888
10
1319864.969097899
20
256181.733231821
10
1319865.2207673597
20
256182.31193329662
10
1319865.7241062813
20
256182.88895887567
10
1319866.2515975675
20
256183.1774716652
10
1319866.803241219
20
256183.1774716652
10
1319867.379037235
20
256182.88895887567
10
1319867.978985616
20
256182.31193329662
10
1319868.2789598063
20
256181.733231821
10
1319868.2789598063
20
256181.15285444888
10
1319867.978985616
20
256180.5708011802
10
1319867.379037235
20
256179.98707201495
10
1319866.803241219
20
256179.69520743235
10
1319866.2515975675
20
256179.69520743235
10
1319865.7241062813
20
256179.98707201495
0
LWPOLYLINE
5
36
330
C
100
AcDbEntity
8
C-TOPO-MAJR-E
100
AcDbPolyline
90
381
70
0
43
0
38
0
39
0
10
1320026.280920001
20
256252.68554918285
10
1320025.5324337934
20
256252.69836815938
10
1320024.7839475856
20
256252.69806579166
10
1320024.0354613778
20
256252.68464207966
10
1320023.2869751705
20
256252.6580970234
10
1320022.5384889627
20
256252.56848738884
10
1320021.790002755
20
256252.41581317596
10
1320021.041516547
20
256252.20007438477
10
1320020.2930303398
20
256251.9212710153
10
1320019.6816908137
20
256251.63742224273
10
1320019.2074979695
20
256251.34852806706
10
1320018.870451807
20
256251.0545884883
10
1320018.6705523264
20
256250.75560350643
10
1320018.383481034
20
256250.4624099006
10
1320018.0092379302
20
256250.1750076708
10
1320017.5478230147
20
256249.89339681697
10
1320016.999236288
20
256249.61757733914
10
1320016.5083059585
20
256249.29254604832
10
1320016.0750320263
20
256248.9183029445
10
1320015.6994144917
20
256248.49484802765
10
1320015.3814533548
20
256248.0221812978
10
1320015.100657624
20
256247.48055969848
10
1320014.857027299
20
256246.86998322967
10
1320014.65056238
20
256246.19045189145
10
1320014.4812628669
20
256245.4419656838
10
1320014.3134135923
20
256244.69347947615
10
1320014.1470145562
20
256243.94499326847
10
1320013.9820657587
20
256243.19650706078
10
1320013.8185671992
20
256242.4480208531
10
1320013.6715115302
20
256241.84073018905
10
1320013.5408987515
20
256241.37463506864
10
1320013.4267288628
20
256241.04973549183
10
1320013.3290018644
20
256240.86603145863
10
1320013.1433151588
20
256240.58705789014
10
1320012.8696687454
20
256240.2128147863
10
1320012.5080626248
20
256239.74330214714
10
1320012.0584967965
20
256239.17851997266
10
1320011.6465923307
20
256238.6183458306
10
1320011.2723492268
20
256238.062779721
10
1320010.935767485
20
256237.5118216438
10
1320010.6368471056
20
256236.96547159902
10
1320010.3812414773
20
256236.50517502474
10
1320010.1689506005
20
256236.13093192092
10
1320009.999974475
20
256235.84274228755
10
1320009.8743131007
20
256235.64060612462
10
1320009.6243608617
20
256235.404623786
10
1320009.250117758
20
256235.13479527165
10
1320008.7515837895
20
256234.83112058157
10
1320008.1287589557
20
256234.49359971582
10
1320007.4745187785
20
256234.24129813013
10
1320006.788863258
20
256234.07421582445
10
1320006.0717923937
20
256233.99235279893
10
1320005.3233061864
20
256233.99570905347
10
1320004.7057939628
20
256234.08176739718
10
1320004.219255723
20
256234.2505278301
10
1320003.8636914673
20
256234.50199035218
10
1320003.6391011956
20
256234.83615496338
10
1320003.5268060598
20
256235.17757235194
10
1320003.5268060598
20
256235.52624251784
10
1320003.6391011956
20
256235.88216546102
10
1320003.8636914673
20
256236.24534118152
10
1320004.1167588653
20
256236.6140505937
10
1320004.3983033895
20
256236.9882936975
10
1320004.70832504
20
256237.36807049302
10
1320005.0468238168
20
256237.7533809802
10
1320005.2160732052
20
256238.19549910814
10
1320005.2160732052
20
256238.69442487686
10
1320005.0468238168
20
256239.25015828633
10
1320004.70832504
20
256239.8626993366
10
1320004.430431584
20
256240.35609141365
10
1320004.2131434488
20
256240.7303345175
10
1320004.056460634
20
256240.98542864813
10
1320003.9603831405
20
256241.1213738055
10
1320003.7252228418
20
256241.32295371953
10
1320003.350979738
20
256241.59016839016
10
1320002.837653829
20
256241.92301781737
10
1320002.1852451148
20
256242.32150200123
10
1320001.5088170276
20
256242.6110365808
10
1320000.8083695667
20
256242.7916215561
10
1320000.0839027325
20
256242.86325692708
10
1319999.335416525
20
256242.8259426938
10
1319998.5869303173
20
256242.78970227076
10
1319997.8384441095
20
256242.75453565794
10
1319997.0899579017
20
256242.72044285535
10
1319996.3414716944
20
256242.687423863
10
1319995.5929854866
20
256242.6536404983
10
1319994.8444992788
20
256242.61909276122
10
1319994.096013071
20
256242.58378065177
10
1319993.3475268637
20
256242.54770416993
10
1319992.599040656
20
256242.46587546327
10
1319991.850554448
20
256242.33829453177
10
1319991.1020682403
20
256242.16496137544
10
1319990.353582033
20
256241.94587599425
10
1319989.7564474442
20
256241.76331468456
10
1319989.310664475
20
256241.61727744638
10
1319989.0162331248
20
256241.50776427967
10
1319988.8731533936
20
256241.43477518443
10
1319988.6144919763
20
256241.26854712737
10
1319988.2402488724
20
256241.0090801085
10
1319987.7504240822
20
256240.65637412775
10
1319987.1450176055
20
256240.2104291852
10
1319986.5325289182
20
256239.800335162
10
1319985.9129580206
20
256239.42609205816
10
1319985.2863049123
20
256239.0876998737
10
1319984.6525695934
20
256238.7851586086
10
1319984.148580382
20
256238.54741510516
10
1319983.7743372782
20
256238.37446936336
10
1319983.529840282
20
256238.26632138324
10
1319983.4150893933
20
256238.22297116477
10
1319983.2531485627
20
256238.20129605551
10
1319983.0440177904
20
256238.20129605551
10
1319982.7876970763
20
256238.22297116477
10
1319982.4841864202
20
256238.26632138324
10
1319982.1453095404
20
256238.3265544057
10
1319981.7710664365
20
256238.4036702322
10
1319981.3614571088
20
256238.4976688627
10
1319980.916481557
20
256238.60855029715
10
1319980.3956283412
20
256238.72729664485
10
1319979.7988974613
20
256238.8539079058
10
1319979.1262889176
20
256238.98838407992
10
1319978.3778027103
20
256239.13072516723
10
1319977.6496359783
20
256239.17417535227
10
1319976.9417887218
20
256239.11873463503
10
1319976.2542609414
20
256238.9644030155
10
1319975.5870526365
20
256238.71118049367
10
1319975.0663269323
20
256238.5151769303
10
1319974.6920838284
20
256238.37639232527
10
1319974.464323325
20
256238.2948266787
10
1319974.3830454221
20
256238.27047999058
10
1319974.134965443
20
256238.20171977754
10
1319973.7200833876
20
256238.08854603965
10
1319973.1383992562
20
256237.93095877688
10
1319972.3899130488
20
256237.72895798922
10
1319971.7262569685
20
256237.63404426744
10
1319971.1474310155
20
256237.6462176115
10
1319970.65343519
20
256237.76547802144
10
1319970.2442694916
20
256237.99182549727
10
1319969.8525650906
20
256238.19972351892
10
1319969.478321987
20
256238.3891720864
10
1319969.1215401804
20
256238.56017119976
10
1319968.7822196707
20
256238.71272085898
10
1319968.3406077367
20
256238.85369937416
10
1319967.7967043782
20
256238.98310674532
10
1319967.150509595
20
256239.10094297247
10
1319966.4020233876
20
256239.20720805557
10
1319965.6535371798
20
256239.25996207749
10
1319964.905050972
20
256239.25920503822
10
1319964.1565647642
20
256239.20493693778
10
1319963.4080785569
20
256239.09715777612
10
1319962.6981212017
20
256238.97856450974
10
1319962.0266926992
20
256238.84915713858
10
1319961.3937930493
20
256238.70893566264
10
1319960.7994222515
20
256238.55790008197
10
1319960.315115301
20
256238.42923998352
10
1319959.940872197
20
256238.32295536733
10
1319959.67669294
20
256238.23904623333
10
1319959.52257753
20
256238.1775125816
10
1319959.2198694204
20
256238.01129834176
10
1319958.7685686112
20
256237.74040351386
10
1319958.1686751028
20
256237.3648280979
10
1319957.4201888954
20
256236.8845720938
10
1319956.7444521314
20
256236.47270595282
10
1319956.1414648113
20
256236.12922967484
10
1319955.611226935
20
256235.85414325993
10
1319955.153738502
20
256235.64744670806
10
1319954.7378727337
20
256235.4774843448
10
1319954.3636296298
20
256235.3442561702
10
1319954.0310091907
20
256235.24776218424
10
1319953.7400114157
20
256235.1880023869
10
1319953.4272318818
20
256235.15812248824
10
1319953.0926705888
20
256235.15812248824
10
1319952.7363275364
20
256235.1880023869
10
1319952.3582027252
20
256235.24776218424
10
1319951.9820187676
20
256235.31712054726
10
1319951.6077756637
20
256235.39607747595
10
1319951.2354734137
20
256235.48463297033
10
1319950.8651120171
20
256235.58278703035
10
1319950.400219418
20
256235.68665144307
10
1319949.840795616
20
256235.79622620848
10
1319949.186840611
20
256235.91151132653
10
1319948.4383544032
20
256236.03250679723
10
1319947.787405227
20
256236.06846601758
10
1319947.2339930828
20
256236.0193889876
10
1319946.7781179699
20
256235.8852757072
10
1319946.4197798886
20
256235.66612617642
10
1319946.053489296
20
256235.48324983587
10
1319945.679246192
20
256235.33664668552
10
1319945.297050577
20
256235.2263167254
10
1319944.9069024508
20
256235.15225995547
10
1319944.427169804
20
256235.01205844647
10
1319943.857852637
20
256234.8057121984
10
1319943.1989509496
20
256234.53322121123
10
1319942.4504647418
20
256234.194585485
10
1319941.776750741
20
256233.85666026245
10
1319941.177808947
20
256233.51944554356
10
1319940.65363936
20
256233.18294132836
10
1319940.20424198
20
256232.84714761685
10
1319939.7924217382
20
256232.55248056722
10
1319939.4181786345
20
256232.29894017943
10
1319939.0815126689
20
256232.08652645355
10
1319938.782423841
20
256231.91523938955
10
1319938.3709856686
20
256231.67919883077
10
1319937.8471981508
20
256231.37840477726
10
1319937.2110612881
20
256231.012857229
10
1319936.4625750808
20
256230.58255618598
10
1319935.8462981107
20
256230.22310587857
10
1319935.362230378
20
256229.93450630674
10
1319935.010371883
20
256229.7167574705
10
1319934.7907226258
20
256229.56985936983
10
1319934.4937764453
20
256229.33997780696
10
1319934.1195333414
20
256229.02711278183
10
1319933.667993314
20
256228.63126429444
10
1319933.139156364
20
256228.1524323449
10
1319932.6765363782
20
256227.7258948182
10
1319932.2801333575
20
256227.3516517143
10
1319931.9499473015
20
256227.02970303336
10
1319931.6859782103
20
256226.7600487753
10
1319931.3668721127
20
256226.3816341585
10
1319930.9926290088
20
256225.8944591829
10
1319930.5632488986
20
256225.29852384856
10
1319930.0787317823
20
256224.59382815548
10
1319929.7055078375
20
256224.054358757
10
1319929.4435770644
20
256223.68011565317
10
1319929.2929394632
20
256223.47109884396
10
1319929.2535950334
20
256223.4273083294
10
1319929.0918516451
20
256223.20734389155
10
1319928.8077092983
20
256222.81120553042
10
1319928.4011679927
20
256222.23889324605
10
1319927.8722277281
20
256221.49040703836
10
1319927.4304721514
20
256220.84833636507
10
1319927.0759012625
20
256220.31268122623
10
1319926.8085150612
20
256219.88344162173
10
1319926.6283135475
20
256219.56061755167
10
1319926.3423614518
20
256219.21208396473
10
1319925.9506587742
20
256218.83784086083
10
1319925.4532055147
20
256218.43788824012
10
1319924.8500016727
20
256218.01222610258
10
1319924.3612782
20
256217.6806923585
10
1319923.9870350964
20
256217.44328700795
10
1319923.7272723615
20
256217.30001005094
10
1319923.5819899954
20
256217.25086148738
10
1319923.4445394396
20
256217.22628720565
10
1319923.3149206939
20
256217.22628720565
10
1319923.1931337581
20
256217.2508614874
10
1319923.0791786325
20
256217.30001005094
10
1319922.8350795177
20
256217.41931217755
10
1319922.4608364138
20
256217.60876786726
10
1319921.9564493208
20
256217.86837712006
10
1319921.3219182387
20
256218.19813993594
10
1319920.6588983752
20
256218.47826353495
10
1319919.9673897303
20
256218.7087479172
10
1319919.247392304
20
256218.88959308254
10
1319918.4989060967
20
256219.02079903096
10
1319917.750419889
20
256219.1142837298
10
1319917.0019336813
20
256219.17004717904
10
1319916.2534474735
20
256219.1880893786
10
1319915.5049612657
20
256219.1684103285
10
1319914.756475058
20
256219.19045555565
10
1319914.0079888501
20
256219.25422506002
10
1319913.2595026426
20
256219.35971884162
10
1319912.5110164352
20
256219.50693690046
10
1319911.7625302277
20
256219.62454590865
10
1319911.0140440199
20
256219.71254586618
10
1319910.265557812
20
256219.7709367731
10
1319909.5170716043
20
256219.79971862934
10
1319908.782431746
20
256219.8541041661
10
1319908.0616382367
20
256219.93409338343
10
1319907.3546910766
20
256220.03968628118
10
1319906.661590266
20
256220.17088285944
10
1319906.1279183086
20
256220.2726546759
10
1319905.7536752047
20
256220.3450017305
10
1319905.5388609543
20
256220.3879240233
10
1319905.4834755575
20
256220.40142155427
10
1319905.4322157972
20
256220.40817031974
10
1319905.385081674
20
256220.40817031974
10
1319905.3420731872
20
256220.40142155427
10
1319905.303190337
20
256220.3879240233
10
1319905.0966273602
20
256220.32433443036
10
1319904.7223842563
20
256220.2106527755
10
1319904.1804610256
20
256220.04687905865
10
1319903.470857668
20
256219.83301327986
10
1319902.7515335977
20
256219.6022944341
10
1319902.0224888152
20
256219.35472252133
10
1319901.2837233199
20
256219.09029754164
10
1319900.5352371125
20
256218.809019495
10
1319899.7867509048
20
256218.5810081159
10
1319899.038264697
20
256218.40626340435
10
1319898.2897784892
20
256218.2847853604
10
1319897.5412922818
20
256218.21657398395
10
1319896.792806074
20
256218.14098748087
10
1319896.0443198665
20
256218.05802585115
10
1319895.295833659
20
256217.96768909474
10
1319894.547347451
20
256217.8699772117
10
1319893.7988612433
20
256217.7802301839
10
1319893.0503750355
20
256217.69844801136
10
1319892.301888828
20
256217.62463069404
10
1319891.5534026206
20
256217.558778232
10
1319890.804916413
20
256217.58694997343
10
1319890.0564302052
20
256217.70914591837
10
1319889.3079439974
20
256217.92536606677
10
1319888.5594577896
20
256218.2356104187
10
1319887.8806885697
20
256218.5724624814
10
1319887.2716363375
20
256218.9359222549
10
1319886.7323010932
20
256219.32598973918
10
1319886.2626828365
20
256219.74266493425
10
1319885.8407521562
20
256220.09998230764
10
1319885.4665090523
20
256220.39794185932
10
1319885.139953525
20
256220.6365435893
10
1319884.861085574
20
256220.8157874976
10
1319884.4769380994
20
256221.09253100364
10
1319883.9875111012
20
256221.46677410745
10
1319883.392804579
20
256221.93851680908
10
1319882.6928185334
20
256222.50775910844
10
1319882.1557039586
20
256222.9467554367
10
1319881.781460855
20
256223.2555057938
10
1319881.570089222
20
256223.43401017974
10
1319881.5215890598
20
256223.48226859453
10
1319881.3258386874
20
256223.69351935384
10
1319880.9828381047
20
256224.06776245768
10
1319880.4925873114
20
256224.60499790605
10
1319879.855086308
20
256225.30522569892
10
1319879.3492142542
20
256225.8644811387
10
1319878.9749711505
20
256226.28276422538
10
1319878.7323569965
20
256226.56007495895
10
1319878.6213717924
20
256226.6964133394
10
1319878.3510113372
20
256226.8307243721
10
1319877.9212756315
20
256226.96300805704
10
1319877.3321646745
20
256227.0932643942
10
1319876.5836784672
20
256227.22149338358
10
1319875.8351922594
20
256227.37450603524
10
1319875.0867060516
20
256227.55230234918
10
1319874.3382198438
20
256227.75488232533
10
1319873.5897336365
20
256227.9822459637
10
1319872.8412474287
20
256228.18609847553
10
1319872.0927612209
20
256228.36643986084
10
1319871.344275013
20
256228.52327011956
10
1319870.5957888057
20
256228.6565892517
10
1319869.847302598
20
256228.6980379052
10
1319869.0988163904
20
256228.64761608
10
1319868.3503301828
20
256228.50532377613
10
1319867.601843975
20
256228.27116099364
10
1319866.93220272
20
256227.99776706728
10
1319866.3414064185
20
256227.68514199706
10
1319865.8294550695
20
256227.333285783
10
1319865.3963486736
20
256226.94219842507
10
1319864.9926739237
20
256226.58250854805
10
1319864.6184308198
20
256226.25421615192
10
1319864.2736193622
20
256225.95732123667
10
1319863.9582395502
20
256225.6918238023
10
1319863.5345831397
20
256225.3792100947
10
1319863.00265013
20
256225.01948011375
10
1319862.3624405214
20
256224.61263385953
10
1319861.6139543136
20
256224.15867133206
10
1319861.0404752144
20
256223.81094287496
10
1319860.6420032242
20
256223.56944848833
10
1319860.4185383422
20
256223.43418817208
10
1319860.370080569
20
256223.40516192626
10
1319860.1587301306
20
256223.28424276237
10
1319859.7844870267
20
256223.0714306804
10
1319859.2473512576
20
256222.76672568035
10
1319858.5473228232
20
256222.37012776217
10
1319857.8559809742
20
256221.9847072512
10
1319857.1733257105
20
256221.61046414738
10
1319856.4993570321
20
256221.24739845068
10
1319855.8340749391
20
256220.89551016115
10
1319855.314312341
20
256220.62062742328
10
1319854.9400692373
20
256220.4227502371
10
1319854.711345628
20
256220.30187860256
10
1319854.6281415129
20
256220.25801251974
10
1319854.3786168748
20
256220.16346539377
10
1319853.9627717137
20
256220.01823722458
10
1319853.3806060292
20
256219.82232801232
10
1319852.6321198216
20
256219.5757377569
10
1319851.883633614
20
256219.37930919058
10
1319851.1351474063
20
256219.23304231337
10
1319850.3866611985
20
256219.1369371252
10
1319849.6381749911
20
256219.09099362616
10
1319848.8896887833
20
256219.06540483263
10
1319848.1412025755
20
256219.06017074463
10
1319847.3927163677
20
256219.07529136218
10
1319846.6442301604
20
256219.11076668525
0
LWPOLYLINE
5
37
330
C
100
AcDbEntity
8
C-TOPO-MAJR-E
100
AcDbPolyline
90
343
70
0
43
0
38
0
39
0
10
1320015.44213587
20
256291.75212449918
10
1320015.2941908517
20
256291.09962435166
10
1320015.1527665707
20
256290.351138144
10
1320015.002606614
20
256289.60265193635
10
1320014.8437109818
20
256288.85416572867
10
1320014.6760796737
20
256288.105679521
10
1320014.4997126898
20
256287.3571933133
10
1320014.3016405238
20
256286.65028930345
10
1320014.081863176
20
256285.98496749141
10
1320013.8403806463
20
256285.3612278772
10
1320013.5771929345
20
256284.77907046082
10
1320013.3628042575
20
256284.30087020068
10
1320013.1972146153
20
256283.92662709684
10
1320013.0804240077
20
256283.6563411493
10
1320013.012432435
20
256283.490012358
10
1320012.871712566
20
256283.17814421264
10
1320012.6582644007
20
256282.72073671318
10
1320012.372087939
20
256282.1177898596
10
1320012.013183181
20
256281.36930365194
10
1320011.680446031
20
256280.6208174443
10
1320011.3738764897
20
256279.8723312366
10
1320011.0934745562
20
256279.12384502895
10
1320010.839240231
20
256278.3753588213
10
1320010.631725599
20
256277.76953717944
10
1320010.4709306604
20
256277.30638010346
10
1320010.3568554153
20
256276.9858875933
10
1320010.2894998637
20
256276.80805964896
10
1320010.166149968
20
256276.53202412487
10
1320009.9868057282
20
256276.15778102103
10
1320009.7514671443
20
256275.68533033744
10
1320009.4601342164
20
256275.11467207412
10
1320009.1444087676
20
256274.49955682468
10
1320008.8042907976
20
256273.8399845892
10
1320008.439780307
20
256273.1359553676
10
1320008.050877295
20
256272.3874691599
10
1320007.7421374694
20
256271.7967613855
10
1320007.5135608292
20
256271.36383204436
10
1320007.3651473755
20
256271.08868113652
10
1320007.2968971073
20
256270.97130866192
10
1320007.1008453243
20
256270.7255008727
10
1320006.7769920267
20
256270.35125776887
10
1320006.325337214
20
256269.8485793504
10
1320005.7458808864
20
256269.21746561734
10
1320005.2690311708
20
256268.7024421225
10
1320004.8947880669
20
256268.30350886588
10
1320004.623151575
20
256268.0206658475
10
1320004.454121695
20
256267.85391306735
10
1320004.1402277327
20
256267.5973630442
10
1320003.6814696891
20
256267.25101577808
10
1320003.0778475632
20
256266.814871269
10
1320002.3293613554
20
256266.28892951692
10
1320001.6869954008
20
256265.880525284
10
1320001.1507496992
20
256265.58965857024
10
1320000.720624251
20
256265.41632937564
10
1320000.3966190557
20
256265.3605377002
10
1320000.0474949062
20
256265.30289417322
10
1319999.6732518026
20
256265.24339879473
10
1319999.2738897444
20
256265.18205156462
10
1319998.849408732
20
256265.11885248296
10
1319998.375761787
20
256265.08725294215
10
1319997.8529489087
20
256265.08725294218
10
1319997.280970098
20
256265.118852483
10
1319996.6598253543
20
256265.18205156462
10
1319996.1621314306
20
256265.23205849086
10
1319995.7878883267
20
256265.2688732617
10
1319995.5370960427
20
256265.29249587716
10
1319995.4097545785
20
256265.3029263372
10
1319995.1271269287
20
256265.31455539915
10
1319994.689213093
20
256265.32738306298
10
1319994.096013071
20
256265.34140932868
10
1319993.3475268637
20
256265.35663419624
10
1319992.7424301994
20
256265.36163901503
10
1319992.2807230786
20
256265.35642378504
10
1319991.9624055016
20
256265.34098850618
10
1319991.7874774681
20
256265.31533317853
10
1319991.5128918993
20
256265.27093946905
10
1319991.1386487957
20
256265.20780737777
10
1319990.6647481567
20
256265.12593690463
10
1319990.0911899824
20
256265.02532804973
10
1319989.4738997999
20
256264.9408344876
10
1319988.812877609
20
256264.8724562183
10
1319988.1081234096
20
256264.82019324187
10
1319987.3596372022
20
256264.78404555836
10
1319986.649244305
20
256264.7911239303
10
1319985.9769447183
20
256264.84142835776
10
1319985.3427384421
20
256264.93495884072
10
1319984.7466254765
20
256265.07171537925
10
1319984.2614474418
20
256265.18133869523
10
1319983.8872043379
20
256265.2638287887
10
1319983.623896165
20
256265.31918565958
10
1319983.4715229233
20
256265.34740930796
10
1319983.1701214397
20
256265.39407975238
10
1319982.719691715
20
256265.4591969928
10
1319982.1202337486
20
256265.54276102936
10
1319981.3717475408
20
256265.64477186202
10
1319980.623261333
20
256265.6916980249
10
1319979.8747751252
20
256265.68353951807
10
1319979.1262889176
20
256265.62029634154
10
1319978.3778027103
20
256265.5019684953
10
1319977.75700911
20
256265.41024595193
10
1319977.2639081166
20
256265.34512871146
10
1319976.8984997305
20
256265.30661677386
10
1319976.660783952
20
256265.29471013913
10
1319976.3548045107
20
256265.277646939
10
1319975.980561407
20
256265.2554271735
10
1319975.5380546406
20
256265.2280508426
10
1319975.0272842112
20
256265.1955179463
10
1319974.5774038723
20
256265.17925149814
10
1319974.1884136237
20
256265.17925149814
10
1319973.8603134651
20
256265.1955179463
10
1319973.5931033967
20
256265.2280508426
10
1319973.2723768104
20
256265.26644782565
10
1319972.8981337068
20
256265.3107088954
10
1319972.4703740852
20
256265.36083405194
10
1319971.989097946
20
256265.41682329524
10
1319971.4410192897
20
256265.50235349187
10
1319970.8261381164
20
256265.61742464182
10
1319970.1444544257
20
256265.76203674517
10
1319969.3959682179
20
256265.9361898019
10
1319968.6474820103
20
256266.0834027705
10
1319967.8989958027
20
256266.20367565108
10
1319967.150509595
20
256266.29700844357
10
1319966.4020233876
20
256266.363401148
10
1319965.6535371798
20
256266.42646691023
10
1319964.905050972
20
256266.48620573018
10
1319964.1565647642
20
256266.54261760792
10
1319963.4080785569
20
256266.59570254348
10
1319962.659592349
20
256266.66203215203
10
1319961.9111061413
20
256266.74160643364
10
1319961.1626199335
20
256266.8344253883
10
1319960.4141337262
20
256266.940489016
10
1319959.6656475184
20
256267.0697206817
10
1319958.9171613106
20
256267.22212038533
10
1319958.1686751028
20
256267.39768812698
10
1319957.4201888954
20
256267.59642390665
10
1319956.7806132399
20
256267.7689924565
10
1319956.2499481367
20
256267.91539377646
10
1319955.8281935859
20
256268.0356278667
10
1319955.515349587
20
256268.12969472713
10
1319955.1718060356
20
256268.231960676
10
1319954.7975629317
20
256268.34242571337
10
1319954.3926202755
20
256268.4610898392
10
1319953.9569780666
20
256268.58795305347
10
1319953.443124858
20
256268.69126381984
10
1319952.8510606496
20
256268.77102213824
10
1319952.1807854415
20
256268.8272280087
10
1319951.4322992342
20
256268.85988143124
10
1319950.7147609245
20
256268.84449233892
10
1319950.0281705123
20
256268.78106073177
10
1319949.3725279982
20
256268.6695866098
10
1319948.747833382
20
256268.51006997298
10
1319948.2483645221
20
256268.38068409357
10
1319947.8741214182
20
256268.2814289716
10
1319947.6251040706
20
256268.212304607
10
1319947.501312479
20
256268.17331099985
10
1319947.2213472335
20
256268.0763885172
10
1319946.7852083337
20
256267.92153715898
10
1319946.19289578
20
256267.7087569253
10
1319945.4444095728
20
256267.43804781607
10
1319944.6959233652
20
256267.25511291536
10
1319943.9474371574
20
256267.15995222318
10
1319943.1989509496
20
256267.15256573953
10
1319942.4504647418
20
256267.23295346435
10
1319941.701978534
20
256267.310534193
10
1319940.9534923267
20
256267.38530792546
10
1319940.2050061189
20
256267.45727466175
10
1319939.4565199113
20
256267.52643440184
10
1319938.7080337037
20
256267.5677904617
10
1319937.959547496
20
256267.5813428413
10
1319937.2110612881
20
256267.56709154064
10
1319936.4625750808
20
256267.52503655973
10
1319935.714088873
20
256267.49573926177
10
1319934.9656026652
20
256267.47919964668
10
1319934.2171164574
20
256267.47541771454
10
1319933.46863025
20
256267.48439346536
10
1319932.7201440423
20
256267.5053152431
10
1319931.9716578345
20
256267.53818304779
10
1319931.2231716267
20
256267.58299687947
10
1319930.4746854194
20
256267.6397567381
10
1319929.7261992116
20
256267.69988671446
10
1319928.9777130038
20
256267.7633868085
10
1319928.229226796
20
256267.83025702025
10
1319927.4807405886
20
256267.9004973497
10
1319926.7596439328
20
256267.96973617014
10
1319926.065936829
20
256268.0379734816
10
1319925.399619277
20
256268.10520928408
10
1319924.7606912772
20
256268.17144357754
10
1319924.2541057253
20
256268.22353658397
10
1319923.8798626214
20
256268.26148830337
10
1319923.6379619655
20
256268.2852987357
10
1319923.528403758
20
256268.294967881
10
1319923.2591135502
20
256268.32584890007
10
1319922.8300913428
20
256268.37794179298
10
1319922.241337135
20
256268.45124655968
10
1319921.4928509272
20
256268.54576320015
10
1319920.7443647194
20
256268.64739400987
10
1319919.9958785116
20
256268.75613898883
10
1319919.247392304
20
256268.871998137
10
1319918.4989060967
20
256268.99497145443
10
1319917.750419889
20
256269.0937743989
10
1319917.0019336813
20
256269.16840697042
10
1319916.2534474735
20
256269.21886916898
10
1319915.5049612657
20
256269.2451609946
10
1319914.756475058
20
256269.2632953077
10
1319914.0079888501
20
256269.2732721082
10
1319913.2595026426
20
256269.2750913962
10
1319912.5110164352
20
256269.26875317167
10
1319911.7625302277
20
256269.2510869606
10
1319911.0140440199
20
256269.22209276303
10
1319910.265557812
20
256269.18177057893
10
1319909.5170716043
20
256269.1301204083
10
1319908.7685853967
20
256269.07664315676
10
1319908.0200991891
20
256269.02133882424
10
1319907.2716129813
20
256268.96420741078
10
1319906.523126774
20
256268.90524891636
10
1319905.7746405662
20
256268.85113674932
10
1319905.0261543584
20
256268.80187090964
10
1319904.2776681506
20
256268.75745139728
10
1319903.5291819433
20
256268.71787821228
10
1319902.7806957355
20
256268.69245119998
10
1319902.0322095277
20
256268.68117036033
10
1319901.2837233199
20
256268.68403569338
10
1319900.5352371125
20
256268.70104719914
10
1319899.7867509048
20
256268.72729549606
10
1319899.038264697
20
256268.76278058413
10
1319898.2897784892
20
256268.80750246343
10
1319897.5412922818
20
256268.86146113393
10
1319896.792806074
20
256268.9052061744
10
1319896.0443198665
20
256268.93873758483
10
1319895.295833659
20
256268.96205536526
10
1319894.547347451
20
256268.97515951566
10
1319893.7988612433
20
256268.98167506777
10
1319893.0503750355
20
256268.9816020216
10
1319892.301888828
20
256268.9749403771
10
1319891.5534026206
20
256268.9616901343
10
1319890.804916413
20
256268.95961236197
10
1319890.0564302052
20
256268.9687070601
10
1319889.3079439974
20
256268.98897422868
10
1319888.5594577896
20
256269.02041386772
10
1319887.8109715818
20
256269.06333596483
10
1319887.062485374
20
256269.11774052
10
1319886.3139991665
20
256269.1836275333
10
1319885.5655129591
20
256269.26099700466
10
1319884.8170267516
20
256269.33388183382
10
1319884.0685405438
20
256269.40228202083
10
1319883.320054336
20
256269.4661975656
10
1319882.5715681282
20
256269.5256284682
10
1319881.8230819204
20
256269.6198248536
10
1319881.074595713
20
256269.74878672173
10
1319880.3261095053
20
256269.91251407267
10
1319879.5776232977
20
256270.11100690643
10
1319878.9647980928
20
256270.3133761374
10
1319878.4876338912
20
256270.5196217657
10
1319878.1461306922
20
256270.72974379128
10
1319877.9402884957
20
256270.94374221412
10
1319877.7209257619
20
256271.29136258317
10
1319877.4880424896
20
256271.77260489843
10
1319877.24163868
20
256272.3874691599
10
1319876.981714332
20
256273.1359553676
10
1319876.7178526516
20
256273.88444157527
10
1319876.450053638
20
256274.63292778295
10
1319876.178317292
20
256275.3814139906
10
1319875.9026436133
20
256276.12990019826
10
1319875.694126858
20
256276.69287992432
10
1319875.552767026
20
256277.07035316876
10
1319875.4785641176
20
256277.2623199316
10
1319875.4715181328
20
256277.26878021282
10
1319875.4540474205
20
256277.27201035342
10
1319875.4261519816
20
256277.27201035342
10
1319875.387831815
20
256277.26878021282
10
1319875.3390869214
20
256277.2623199316
10
1319875.1275929227
20
256277.13500224362
10
1319874.7533498188
20
256276.8868271489
10
1319874.2163576097
20
256276.51779464743
10
1319873.516616296
20
256276.0279047392
10
1319872.9645845098
20
256275.59583823316
10
1319872.5602622512
20
256275.22159512932
10
1319872.3036495207
20
256274.90517542767
10
1319872.194746318
20
256274.64657912825
10
1319872.101406939
20
256274.26551035175
10
1319872.0236313841
20
256273.7619690982
10
1319871.961419653
20
256273.1359553676
10
1319871.9147717452
20
256272.3874691599
10
1319871.9186735922
20
256271.6804556474
10
1319871.9731251937
20
256271.01491483004
10
1319872.0781265495
20
256270.3908467079
10
1319872.2336776594
20
256269.8082512809
10
1319872.3845087509
20
256269.32983201547
10
1319872.5306198231
20
256268.95558891163
10
1319872.6720108767
20
256268.6855219694
10
1319872.8086819113
20
256268.5196311887
10
1319872.8770174286
20
256268.3805004268
10
1319872.8770174286
20
256268.26812968374
10
1319872.8086819113
20
256268.18251895937
10
1319872.6720108767
20
256268.12366825377
10
1319872.3823860488
20
256268.0549369771
10
1319871.9398074276
20
256267.9763251294
10
1319871.344275013
20
256267.88783271064
10
1319870.5957888057
20
256267.7894597208
10
1319869.847302598
20
256267.70191189472
10
1319869.0988163904
20
256267.62518923244
10
1319868.3503301828
20
256267.55929173384
10
1319867.601843975
20
256267.504219399
10
1319866.8533577672
20
256267.47413102677
10
1319866.1048715594
20
256267.46902661707
10
1319865.3563853519
20
256267.48890616992
10
1319864.6078991445
20
256267.53376968537
10
1319863.9269789476
20
256267.60927545064
10
1319863.313624761
20
256267.71542346574
10
1319862.7678365852
20
256267.8522137307
10
1319862.28961442
20
256268.01964624552
10
1319861.8633817853
20
256268.18701017648
10
1319861.4891386814
20
256268.35430552356
10
1319861.1668851085
20
256268.52153228683
10
1319860.896621066
20
256268.68869046622
10
1319860.506801482
20
256268.91802891923
10
1319859.997426357
20
256269.20954764588
10
1319859.3684956904
20
256269.5632466462
10
1319858.620009483
20
256269.97912592007
10
1319857.8715232755
20
256270.284568407
10
1319857.1230370677
20
256270.47957410692
10
1319856.37455086
20
256270.56414301982
10
1319855.626064652
20
256270.53827514572
10
1319854.8775784443
20
256270.43422683026
10
1319854.129092237
20
256270.2519980734
10
1319853.3806060292
20
256269.9915888752
10
1319852.6321198216
20
256269.6529992356
10
1319851.8893748494
20
256269.34441202102
10
1319851.1523711123
20
256269.06582723142
10
1319850.4211086105
20
256268.8172448668
10
1319849.695587344
20
256268.59866492718
10
1319849.1457051588
20
256268.43210641277
10
1319848.771462055
20
256268.31756932364
10
1319848.5728580325
20
256268.2550536597
10
1319848.5498930914
20
256268.24455942094
10
1319848.5161935058
20
256268.2393123016
10
1319848.4717592765
20
256268.2393123016
10
1319848.4165904028
20
256268.24455942094
10
1319848.350686885
20
256268.2550536597
10
1319848.1306135743
20
256268.27887698275
10
1319847.7563704704
20
256268.31602939012
10
1319847.2279575735
20
256268.36651088184
10
1319846.5453748836
20
256268.43032145788
0
LWPOLYLINE
5
38
330
C
100
AcDbEntity
8
C-TOPO-MAJR-E
100
AcDbPolyline
90
74
70
0
43
0
38
0
39
0
10
1319846.6442301604
20
256253.90745168485
10
1319847.3927163677
20
256253.8235803141
10
1319848.1412025755
20
256253.74162246217
10
1319848.8896887833
20
256253.66157812907
10
1319849.6381749911
20
256253.5834473148
10
1319850.3866611985
20
256253.5072300193
10
1319850.9755378305
20
256253.44432747198
10
1319851.4048048868
20
256253.3947396728
10
1319851.6744623675
20
256253.35846662172
10
1319851.7845102728
20
256253.33550831876
10
1319852.0266557771
20
256253.29682516828
10
1319852.4008988808
20
256253.24241717023
10
1319852.907239584
20
256253.17228432462
10
1319853.5456778866
20
256253.0864266315
10
1319854.2116281656
20
256252.97138025818
10
1319854.9050904205
20
256252.8271452047
10
1319855.626064652
20
256252.65372147108
10
1319856.37455086
20
256252.45110905726
10
1319857.101375954
20
256252.18414572172
10
1319857.8065399341
20
256251.8528314645
10
1319858.4900428008
20
256251.4571662855
10
1319859.1518845537
20
256250.99715018473
10
1319859.6699269821
20
256250.6303783815
10
1319860.044170086
20
256250.35685087575
10
1319860.2746138654
20
256250.17656766745
10
1319860.3612583198
20
256250.08952875668
10
1319860.5283925105
20
256249.85888774937
10
1319860.7760164368
20
256249.48464464548
10
1319861.1041300988
20
256248.96679944513
10
1319861.5127334967
20
256248.3053521483
10
1319861.8366150984
20
256247.62214512372
10
1319862.075774904
20
256246.91717837143
10
1319862.2302129138
20
256246.19045189145
10
1319862.2999291273
20
256245.4419656838
10
1319862.3074141562
20
256244.69347947615
10
1319862.252668
20
256243.94499326847
10
1319862.135690659
20
256243.1965070608
10
1319861.9564821334
20
256242.44802085316
10
1319861.7487454645
20
256241.69953464548
10
1319861.5124806527
20
256240.9510484378
10
1319861.2476876976
20
256240.20256223012
10
1319860.9543666
20
256239.45407602246
10
1319860.7329282793
20
256238.88969058872
10
1319860.5833727366
20
256238.50940592887
10
1319860.5056999712
20
256238.31322204298
10
1319860.4999099835
20
256238.30113893098
10
1319860.40617301
20
256238.10797582308
10
1319860.22448905
20
256237.73373271927
10
1319859.9548581045
20
256237.1784096195
10
1319859.5972801729
20
256236.4420065238
10
1319859.231369655
20
256235.78048750342
10
1319858.8571265514
20
256235.19385255835
10
1319858.4745508614
20
256234.68210168858
10
1319858.0836425854
20
256234.24523489413
10
1319857.693213804
20
256233.83967994497
10
1319857.3032645173
20
256233.4654368412
10
1319856.913794725
20
256233.12250558264
10
1319856.5248044275
20
256232.81088616943
10
1319856.1431877268
20
256232.5189579476
10
1319855.768944623
20
256232.24672091717
10
1319855.402075116
20
256231.99417507809
10
1319855.0425792057
20
256231.7613204304
10
1319854.5858357213
20
256231.51259159335
10
1319854.0318446623
20
256231.24798856684
10
1319853.380606029
20
256230.967511351
10
1319852.6321198216
20
256230.67115994572
10
1319851.883633614
20
256230.41003444302
10
1319851.1351474063
20
256230.18413484294
10
1319850.3866611985
20
256229.9934611454
10
1319849.6381749907
20
256229.83801335044
10
1319848.889688783
20
256229.71478418063
10
1319848.1412025755
20
256229.62377363595
10
1319847.3927163677
20
256229.5649817164
10
1319846.6442301604
20
256229.53840842194
0
LWPOLYLINE
5
39
330
C
100
AcDbEntity
8
C-TOPO-MAJR-E
100
AcDbPolyline
90
36
70
0
43
0
38
0
39
0
10
1320004.6207691943
20
256291.72523434123
10
1320004.7006038316
20
256291.09962435166
10
1320004.774634997
20
256290.351138144
10
1320004.7873393167
20
256289.69654594728
10
1320004.7387167907
20
256289.13584776153
10
1320004.6287674187
20
256288.66904358676
10
1320004.457491201
20
256288.296133423
10
1320004.2206757942
20
256287.92255678918
10
1320003.918321198
20
256287.54831368534
10
1320003.5504274126
20
256287.1734041115
10
1320003.1169944378
20
256286.79782806762
10
1320002.7131563984
20
256286.47217796615
10
1320002.3389132945
20
256286.19645380706
10
1320001.994265126
20
256285.97065559038
10
1320001.6792118931
20
256285.79478331612
10
1320001.2558004167
20
256285.69317972916
10
1320000.7240306963
20
256285.66584482946
10
1320000.0839027325
20
256285.7127786171
10
1319999.335416525
20
256285.83398109203
10
1319998.7445173813
20
256285.93855039804
10
1319998.3112053021
20
256286.0264865352
10
1319998.035480287
20
256286.09778950346
10
1319997.9173423364
20
256286.1524593028
10
1319997.671151809
20
256286.31539724898
10
1319997.296908705
20
256286.586603342
10
1319996.7946130247
20
256286.96607758186
10
1319996.164264768
20
256287.4538199686
10
1319995.5727758347
20
256287.8848127139
10
1319995.020146225
20
256288.25905581767
10
1319994.5063759391
20
256288.5765492801
10
1319994.0314649763
20
256288.83729310107
10
1319993.6213215033
20
256289.21997251868
10
1319993.2759455198
20
256289.724587533
10
1319992.9953370257
20
256290.351138144
10
1319992.7794960216
20
256291.09962435166
10
1319992.7903032599
20
256291.73654676485
0
LWPOLYLINE
5
3A
330
C
100
AcDbEntity
8
C-TOPO-MAJR-E
100
AcDbPolyline
90
85
70
0
43
0
38
0
39
0
10
1319988.1081234096
20
256291.7668390985
10
1319987.3596372022
20
256291.49934940346
10
1319986.7102675969
20
256291.1818755054
10
1319986.160014594
20
256290.8144174043
10
1319985.7088781935
20
256290.39697510022
10
1319985.3568583955
20
256289.92954859315
10
1319984.9997528447
20
256289.3918571609
10
1319984.6375615415
20
256288.78390080354
10
1319984.2702844853
20
256288.105679521
10
1319983.8979216765
20
256287.3571933133
10
1319983.6126236697
20
256286.78777537384
10
1319983.4143904648
20
256286.39742570248
10
1319983.303222062
20
256286.18614429937
10
1319983.279118461
20
256286.15393116442
10
1319983.0739192087
20
256285.97770812034
10
1319982.6876243046
20
256285.65747516707
10
1319982.1202337486
20
256285.19323230468
10
1319981.3717475408
20
256284.58497953316
10
1319980.623261333
20
256284.16792386677
10
1319979.8747751252
20
256283.94206530554
10
1319979.1262889176
20
256283.90740384947
10
1319978.3778027103
20
256284.06393949853
10
1319977.6293165027
20
256284.24682507696
10
1319976.880830295
20
256284.45606058475
10
1319976.1323440871
20
256284.69164602185
10
1319975.3838578793
20
256284.95358138834
10
1319974.6353716715
20
256285.17138742696
10
1319973.8868854637
20
256285.3450641377
10
1319973.1383992562
20
256285.47461152062
10
1319972.3899130488
20
256285.56002957575
10
1319971.6414268413
20
256285.4895321746
10
1319970.8929406335
20
256285.26311931724
10
1319970.1444544257
20
256284.8807910037
10
1319969.3959682179
20
256284.34254723397
10
1319968.6474820103
20
256283.93894854866
10
1319967.8989958027
20
256283.66999494782
10
1319967.150509595
20
256283.53568643142
10
1319966.4020233876
20
256283.53602299947
10
1319965.6535371798
20
256283.62895721325
10
1319964.905050972
20
256283.81448907283
10
1319964.1565647642
20
256284.0926185781
10
1319963.4080785569
20
256284.4633457291
10
1319962.748946883
20
256284.81733031402
10
1319962.1791697429
20
256285.1545723328
10
1319961.6987471366
20
256285.47507178545
10
1319961.3076790646
20
256285.77882867202
10
1319960.9250234766
20
256286.06280606857
10
1319960.5507803727
20
256286.32700397517
10
1319960.184949753
20
256286.57142239177
10
1319959.8275316176
20
256286.7960613184
10
1319959.372346464
20
256287.0810384518
10
1319958.8193942925
20
256287.42635379202
10
1319958.1686751028
20
256287.83200733896
10
1319957.4201888954
20
256288.29799909267
10
1319956.7751207326
20
256288.6619567898
10
1319956.233470615
20
256288.92388043032
10
1319955.7952385424
20
256289.08377001423
10
1319955.4604245147
20
256289.14162554155
10
1319955.105895949
20
256289.20311064855
10
1319954.7316528454
20
256289.26822533522
10
1319954.3376952035
20
256289.33696960163
10
1319953.924023023
20
256289.4093434477
10
1319953.4266473362
20
256289.4542044074
10
1319952.8455681424
20
256289.4715524807
10
1319952.1807854415
20
256289.46138766766
10
1319951.4322992342
20
256289.42370996825
10
1319950.6838130266
20
256289.42266448488
10
1319949.9353268188
20
256289.4582512176
10
1319949.186840611
20
256289.53047016647
10
1319948.4383544032
20
256289.6393213314
10
1319947.6898681954
20
256289.78889913802
10
1319946.9413819876
20
256289.9792035864
10
1319946.19289578
20
256290.21023467643
10
1319945.4444095728
20
256290.4819924082
10
1319944.6959233652
20
256290.71961237834
10
1319943.9474371574
20
256290.92309458682
10
1319943.1989509496
20
256291.09243903373
10
1319942.4504647418
20
256291.227645719
10
1319941.701978534
20
256291.3331100784
10
1319940.9534923267
20
256291.40883211204
10
1319940.2050061189
20
256291.4548118198
10
1319939.4565199113
20
256291.47104920173
10
1319938.7822085894
20
256291.52866151245
10
1319938.1820721535
20
256291.62764875198
10
1319937.6561106034
20
256291.76801092032
0
LWPOLYLINE
5
3B
330
C
100
AcDbEntity
8
C-TOPO-MAJR-E
100
AcDbPolyline
90
39
70
0
43
0
38
0
39
0
10
1319846.6442301604
20
256246.96690713585
10
1319847.3927163677
20
256246.83614041668
10
1319848.1412025755
20
256246.6990316687
10
1319848.8896887833
20
256246.5555808919
10
1319849.6381749911
20
256246.4057880863
10
1319850.3866611985
20
256246.24965325187
10
1319851.1351474063
20
256246.04652370152
10
1319851.883633614
20
256245.7963994352
10
1319852.6321198216
20
256245.49928045296
10
1319853.3806060292
20
256245.1551667548
10
1319853.9629346053
20
256244.87709649146
10
1319854.3791055493
20
256244.6650696629
10
1319854.6291188619
20
256244.51908626928
10
1319854.7129745428
20
256244.4391463105
10
1319854.7956552682
20
256244.19206978945
10
1319854.8771610386
20
256243.77785670626
10
1319854.9574918537
20
256243.1965070608
10
1319855.0366477135
20
256242.44802085316
10
1319855.0552617232
20
256241.77056106177
10
1319855.0133338827
20
256241.16412768664
10
1319854.9108641923
20
256240.6287207278
10
1319854.7478526516
20
256240.16434018526
10
1319854.590351039
20
256239.74502836206
10
1319854.4383593544
20
256239.37078525822
10
1319854.291877598
20
256239.04161087374
10
1319854.1509057698
20
256238.75750520863
10
1319853.8932983037
20
256238.41903542838
10
1319853.5190551998
20
256238.026201533
10
1319853.0281764583
20
256237.5790035225
10
1319852.420662079
20
256237.0774413968
10
1319851.7779047424
20
256236.64625095177
10
1319851.0999044492
20
256236.2854321874
10
1319850.3866611985
20
256235.9949851036
10
1319849.6381749907
20
256235.77490970044
10
1319848.957742473
20
256235.60314097838
10
1319848.3453636456
20
256235.47967893735
10
1319847.8010385078
20
256235.40452357742
10
1319847.32476706
20
256235.37767489854
10
1319846.8995097843
20
256235.35482584557
0
LWPOLYLINE
5
3C
330
C
100
AcDbEntity
8
C-SITE-N
100
AcDbPolyline
90
9
70
1
43
0
38
0
39
0
10
1319883.9408227091
20
256246.29899025417
10
1319879.3408429842
20
256197.09938835603
10
1319923.4997280238
20
256194.44648781247
10
1319977.4216562386
20
256192.3627579451
10
1319978.2336294043
20
256192.40387340786
10
1319993.603367107
20
256209.41508590913
10
1319994.114825429
20
256222.37547515906
10
1319994.62538485
20
256240.65086788038
10
1319883.9408227091
20
256246.29899025417
0
LWPOLYLINE
5
3D
330
C
100
AcDbEntity
8
C-BLDG-FTPR-N
100
AcDbPolyline
90
5
70
1
43
0
38
0
39
0
10
1319906.796846967
20
256200.3070194608
10
1319982.72323079
20
256197.37296129685
10
1319984.0207402983
20
256230.94939346678
10
1319908.0943564752
20
256233.88345163074
10
1319906.796846967
20
256200.3070194608
0
LWPOLYLINE
5
3E
330
C
100
AcDbEntity
8
C-PVMT
100
AcDbPolyline
90
5
70
1
43
0
38
0
39
0
10
1319940.9365605258
20
256168.75400877718
10
1319952.9581322486
20
256168.2894536531
10
1319951.9694151198
20
256198.56139513757
10
1319939.947843397
20
256199.02595026165
10
1319940.9365605258
20
256168.75400877718
0
LWPOLYLINE
5
3F
330
C
100
AcDbEntity
8
C-PVMT
100
AcDbPolyline
90
5
70
1
43
0
38
0
39
0
10
1319946.946051451
20
256199.19509861345
10
1319947.109270284
20
256194.19776336226
10
1319956.9040473762
20
256194.5176722749
10
1319956.7408285432
20
256199.5150075261
10
1319946.946051451
20
256199.19509861345
0
LWPOLYLINE
5
40
330
C
100
AcDbEntity
8
C-PVMT
100
AcDbPolyline
90
5
70
1
43
0
38
0
39
0
10
1319942.0956131495
20
256194.53427805437
10
1319950.0913495515
20
256194.79542818718
10
1319949.960774485
20
256198.79329638812
10
1319941.965038083
20
256198.5321462553
10
1319942.0956131495
20
256194.53427805437
0
LWPOLYLINE
5
41
330
C
100
AcDbEntity
8
C-PVMT
100
AcDbPolyline
90
5
70
1
43
0
38
0
39
0
10
1319867.0220938944
20
256172.79437887127
10
1319998.0764488818
20
256177.07476787936
10
1319997.978517582
20
256180.07316903005
10
1319866.9241625946
20
256175.79278002196
10
1319867.0220938944
20
256172.79437887127
0
LWPOLYLINE
5
42
330
C
100
AcDbEntity
8
C-TOPO-SURF
100
AcDbPolyline
90
5
70
1
43
0
38
0
39
0
10
1319867.1526689609
20
256168.79651067033
10
1319998.2070239482
20
256173.07689967842
10
1319998.0764488818
20
256177.07476787936
10
1319867.0220938944
20
256172.79437887127
10
1319867.1526689609
20
256168.79651067033
0
LWPOLYLINE
5
43
330
C
100
AcDbEntity
8
C-PVMT
100
AcDbPolyline
90
5
70
1
43
0
38
0
39
0
10
1319867.2016346108
20
256167.297310095
10
1319998.255989598
20
256171.57769910307
10
1319998.2070239482
20
256173.07689967842
10
1319867.1526689609
20
256168.79651067033
10
1319867.2016346108
20
256167.297310095
0
LWPOLYLINE
5
44
330
C
100
AcDbEntity
8
C-PVMT
100
AcDbPolyline
90
5
70
1
43
0
38
0
39
0
10
1319955.728253465
20
256162.67830149538
10
1319937.7416782842
20
256163.37336499104
10
1319941.0676652428
20
256171.75118157716
10
1319953.0587153633
20
256171.28780591342
10
1319955.728253465
20
256162.67830149538
0
LWPOLYLINE
5
45
330
C
100
AcDbEntity
8
C-LODS
100
AcDbPolyline
90
11
70
1
43
0
38
0
39
0
10
1319866.9241625946
20
256175.79278002196
10
1319867.1526689609
20
256168.79651067033
10
1319867.2016346108
20
256167.297310095
10
1319937.7416782842
20
256163.37336499104
10
1319955.728253465
20
256162.67830149538
10
1319998.255989598
20
256171.57769910307
10
1319998.0764488818
20
256177.07476787936
10
1319997.978517582
20
256180.07316903005
10
1319984.0207402983
20
256230.94939346678
10
1319908.0943564752
20
256233.88345163074
10
1319866.9241625946
20
256175.79278002196
0
LWPOLYLINE
5
46
330
C
100
AcDbEntity
8
C-SITE-N
100
AcDbPolyline
90
18
70
1
43
0
38
0
39
0
10
1320003.5157605715
20
256260.66968978875
10
1320000.0571779225
20
256219.10947956648
10
1319998.3674188338
20
256192.66231497907
10
1319998.1055625195
20
256189.32886465715
10
1319997.3014876042
20
256186.0809365648
10
1319995.9759951916
20
256183.00671463905
10
1319994.1653757587
20
256180.18981314803
10
1319991.918547182
20
256177.70705921313
10
1319989.295829409
20
256175.62570754692
10
1319986.3690165556
20
256174.00140861553
10
1319983.217262068
20
256172.8784746407
10
1319979.9271948866
20
256172.2864317789
10
1319976.5886041836
20
256172.24076755575
10
1319926.576571556
20
256172.01123742588
10
1319871.878420327
20
256173.98437617318
10
1319879.7234305884
20
256261.79956976054
10
1319880.2328026076
20
256268.66827313593
10
1320003.5157605715
20
256260.66968978875
0
POINT
5
47
330
C
100
AcDbEntity
8
C-TOPO-SPOT
100
AcDbPoint
10
1319971.3524760436
20
256198.3595617275
30
0
0
LWPOLYLINE
5
48
330
C
100
AcDbEntity
8
C-UTIL
100
AcDbPolyline
90
2
70
0
43
0
38
0
39
0
10
1319902.4576191467
20
256138.9875973645
10
1319907.9785125593
20
256230.8856891006
0
LWPOLYLINE
5
49
330
C
100
AcDbEntity
8
C-UTIL
100
AcDbPolyline
90
2
70
0
43
0
38
0
39
0
10
1319902.6710170847
20
256138.97477721504
10
1319907.5923661727
20
256220.89314733344
0
LWPOLYLINE
5
4A
330
C
100
AcDbEntity
8
C-SWMG
100
AcDbPolyline
90
5
70
1
43
0
38
0
39
0
10
1319880.5045928387
20
256187.56205958227
10
1319900.7283412549
20
256187.56205958227
10
1319900.7283412549
20
256207.78580799844
10
1319880.5045928387
20
256207.78580799844
10
1319880.5045928387
20
256187.56205958227
0
LWPOLYLINE
5
4B
330
C
100
AcDbEntity
8
C-STRM-AREA
100
AcDbPolyline
90
18
70
1
43
0
38
0
39
0
10
1320005.809156384
20
256265.11269953966
10
1320004.1093177523
20
256222.03867105904
10
1320003.2598063797
20
256191.63054751416
10
1320002.8429417994
20
256187.72972815295
10
1320001.8210531985
20
256183.94235599873
10
1320000.2188381765
20
256180.36128775368
10
1319998.0764488818
20
256177.07476787936
10
1319995.4466596576
20
256174.16411942255
10
1319992.3935800816
20
256171.70092210436
10
1319988.9929130937
20
256169.74521701303
10
1319985.3278340425
20
256168.34576177303
10
1319981.489249217
20
256167.53669638952
10
1319977.5714171606
20
256167.33831116612
10
1319922.26730249
20
256169.4754535003
10
1319867.0220938944
20
256172.79437887127
10
1319875.612564432
20
256264.64575658579
10
1319876.2742357543
20
256271.72273683164
10
1320005.809156384
20
256265.11269953966
0
LWPOLYLINE
5
4C
330
C
100
AcDbEntity
8
L-PLNT-TREE
100
AcDbPolyline
90
5
70
1
43
0
38
0
39
0
10
1319889.3448575041
20
256161.143914727
10
1319899.3448575041
20
256161.143914727
10
1319899.3448575041
20
256171.143914727
10
1319889.3448575041
20
256171.143914727
10
1319889.3448575041
20
256161.143914727
0
LWPOLYLINE
5
4D
330
C
100
AcDbEntity
8
L-PLNT-TREE
100
AcDbPolyline
90
5
70
1
43
0
38
0
39
0
10
1319931.6864042995
20
256243.38143806724
10
1319943.6864042995
20
256243.38143806724
10
1319943.6864042995
20
256255.38143806724
10
1319931.6864042995
20
256255.38143806724
10
1319931.6864042995
20
256243.38143806724
0
LWPOLYLINE
5
4E
330
C
100
AcDbEntity
8
L-PLNT-TREE
100
AcDbPolyline
90
5
70
1
43
0
38
0
39
0
10
1319931.6864042995
20
256169.74650005915
10
1319943.6864042995
20
256169.74650005915
10
1319943.6864042995
20
256181.74650005915
10
1319931.6864042995
20
256181.74650005915
10
1319931.6864042995
20
256169.74650005915
0
LWPOLYLINE
5
4F
330
C
100
AcDbEntity
8
L-PLNT-TREE
100
AcDbPolyline
90
5
70
1
43
0
38
0
39
0
10
1319950.0951388015
20
256174.67910560264
10
1319962.0951388015
20
256174.67910560264
10
1319962.0951388015
20
256186.67910560264
10
1319950.0951388015
20
256186.67910560264
10
1319950.0951388015
20
256174.67910560264
0
ENDSEC
0
SECTION
2
OBJECTS
0
DICTIONARY
5
A
330
0
100
AcDbDictionary
281
1
3
ACAD_GROUP
350
B
0
DICTIONARY
5
B
330
A
100
AcDbDictionary
281
0
0
ENDSEC
0
EOF