0
SECTION
2
HEADER
9
$ACADVER
1
AC1021
9
$LASTSAVEDBY
1
@tarikjabiri/dxf
9
$HANDSEED
5
56
9
$INSUNITS
70
0
9
$CLAYER
8
0
9
$VIEWCTR
10
1238633.0841082872
20
433161.0181222708
0
ENDSEC
0
SECTION
2
CLASSES
0
ENDSEC
0
SECTION
2
TABLES
0
TABLE
2
VPORT
5
1
330
0
100
AcDbSymbolTable
70
1
0
VPORT
5
19
330
1
100
AcDbSymbolTableRecord
100
AcDbViewportTableRecord
2
*Active
70
0
10
0
20
0
11
1
21
1
12
1238633.0841082872
22
433161.0181222708
13
0
23
0
14
10
24
10
15
10
25
10
16
0
26
0
36
1
17
0
27
0
37
0
40
374.40072636981495
41
2
42
50
43
0
44
0
50
0
51
0
71
0
72
100
73
1
74
3
75
0
76
1
77
0
78
0
281
0
65
1
110
0
120
0
130
0
111
1
121
0
131
0
112
0
122
1
132
0
79
0
146
0
348
10020
60
7
61
5
292
1
282
1
141
0
142
0
63
250
421
3358443
0
ENDTAB
0
TABLE
2
LTYPE
5
2
330
0
100
AcDbSymbolTable
70
7
0
LTYPE
5
12
330
2
100
AcDbSymbolTableRecord
100
AcDbLinetypeTableRecord
2
ByBlock
70
0
3

72
65
73
0
40
0
0
LTYPE
5
13
330
2
100
AcDbSymbolTableRecord
100
AcDbLinetypeTableRecord
2
ByLayer
70
0
3

72
65
73
0
40
0
0
LTYPE
5
14
330
2
100
AcDbSymbolTableRecord
100
AcDbLinetypeTableRecord
2
Continuous
70
0
3
Solid line
72
65
73
0
40
0
0
LTYPE
5
1A
330
2
100
AcDbSymbolTableRecord
100
AcDbLinetypeTableRecord
2
DASHED
70
0
3
Dashed __ __ __ __ __ __
72
65
73
2
40
6
49
4
74
0
49
-2
74
0
0
LTYPE
5
1B
330
2
100
AcDbSymbolTableRecord
100
AcDbLinetypeTableRecord
2
HIDDEN
70
0
3
Hidden __ __ __ __ __
72
65
73
2
40
3
49
2
74
0
49
-1
74
0
0
LTYPE
5
1C
330
2
100
AcDbSymbolTableRecord
100
AcDbLinetypeTableRecord
2
PHANTOM
70
0
3
Phantom ____ _ _ ____ _ _
72
65
73
6
40
13
49
8
74
0
49
-1
74
0
49
1
74
0
49
-1
74
0
49
1
74
0
49
-1
74
0
0
LTYPE
5
1D
330
2
100
AcDbSymbolTableRecord
100
AcDbLinetypeTableRecord
2
DASHDOT
70
0
3
Dash dot __ . __ . __ .
72
65
73
4
40
8
49
4
74
0
49
-2
74
0
49
0
74
0
49
-2
74
0
0
ENDTAB
0
TABLE
2
LAYER
5
3
330
0
100
AcDbSymbolTable
70
14
0
LAYER
5
15
330
3
100
AcDbSymbolTableRecord
100
AcDbLayerTableRecord
2
0
70
0
62
7
6
Continuous
370
0
390
0
0
LAYER
5
1E
330
3
100
AcDbSymbolTableRecord
100
AcDbLayerTableRecord
2
C-BLDG-FTPR-N
70
0
62
6
6
Continuous
370
0
390
0
0
LAYER
5
1F
330
3
100
AcDbSymbolTableRecord
100
AcDbLayerTableRecord
2
C-LODS
70
0
62
30
6
PHANTOM
370
0
390
0
0
LAYER
5
20
330
3
100
AcDbSymbolTableRecord
100
AcDbLayerTableRecord
2
C-PVMT
70
0
62
8
6
Continuous
370
0
390
0
0
LAYER
5
21
330
3
100
AcDbSymbolTableRecord
100
AcDbLayerTableRecord
2
C-SITE-N
70
0
62
6
6
Continuous
370
0
390
0
0
LAYER
5
22
330
3
100
AcDbSymbolTableRecord
100
AcDbLayerTableRecord
2
C-STRM-AREA
70
0
62
150
6
PHANTOM
370
0
390
0
0
LAYER
5
23
330
3
100
AcDbSymbolTableRecord
100
AcDbLayerTableRecord
2
C-SWMG
70
0
62
92
6
Continuous
370
0
390
0
0
LAYER
5
24
330
3
100
AcDbSymbolTableRecord
100
AcDbLayerTableRecord
2
C-TOPO-MAJR-E
70
0
62
32
6
DASHED
370
0
390
0
0
LAYER
5
25
330
3
100
AcDbSymbolTableRecord
100
AcDbLayerTableRecord
2
C-TOPO-SPOT
70
0
62
7
6
Continuous
370
0
390
0
0
LAYER
5
26
330
3
100
AcDbSymbolTableRecord
100
AcDbLayerTableRecord
2
C-TOPO-SURF
70
0
62
253
6
Continuous
370
0
390
0
0
LAYER
5
27
330
3
100
AcDbSymbolTableRecord
100
AcDbLayerTableRecord
2
C-UTIL
70
0
62
4
6
DASHED
370
0
390
0
0
LAYER
5
28
330
3
100
AcDbSymbolTableRecord
100
AcDbLayerTableRecord
2
L-PLNT-TREE
70
0
62
90
6
Continuous
370
0
390
0
0
LAYER
5
29
330
3
100
AcDbSymbolTableRecord
100
AcDbLayerTableRecord
2
V-PROP-BNDY
70
0
62
7
6
Continuous
370
0
390
0
0
LAYER
5
2A
330
3
100
AcDbSymbolTableRecord
100
AcDbLayerTableRecord
2
C-ANNO-NPLT
70
0
62
250
6
Continuous
370
0
390
0
0
ENDTAB
0
TABLE
2
STYLE
5
4
330
0
100
AcDbSymbolTable
70
1
0
STYLE
5
16
330
4
100
AcDbSymbolTableRecord
100
AcDbTextStyleTableRecord
2
Standard
70
0
40
0
41
1
50
0
71
0
42
1
3
txt
4

0
ENDTAB
0
TABLE
2
VIEW
5
5
330
0
100
AcDbSymbolTable
70
0
0
ENDTAB
0
TABLE
2
UCS
5
6
330
0
100
AcDbSymbolTable
70
0
0
ENDTAB
0
TABLE
2
APPID
5
7
330
0
100
AcDbSymbolTable
70
1
0
APPID
5
17
330
7
100
AcDbSymbolTableRecord
100
AcDbRegAppTableRecord
2
ACAD
70
0
0
ENDTAB
0
TABLE
2
DIMSTYLE
5
8
330
0
100
AcDbSymbolTable
70
1
100
AcDbDimStyleTable
0
DIMSTYLE
105
18
330
8
100
AcDbSymbolTableRecord
100
AcDbDimStyleTableRecord
2
Standard
70
0
340
16
0
ENDTAB
0
TABLE
2
BLOCK_RECORD
5
9
330
0
100
AcDbSymbolTable
70
2
0
BLOCK_RECORD
5
C
330
9
100
AcDbSymbolTableRecord
100
AcDbBlockTableRecord
2
*Model_Space
70
0
280
1
281
0
0
BLOCK_RECORD
5
F
330
9
100
AcDbSymbolTableRecord
100
AcDbBlockTableRecord
2
*Paper_Space
70
0
280
1
281
0
0
ENDTAB
0
ENDSEC
0
SECTION
2
BLOCKS
0
BLOCK
5
D
330
C
100
AcDbEntity
8
0
100
AcDbBlockBegin
2
*Model_Space
70
0
10
0
20
0
30
0
3
*Model_Space
1

0
ENDBLK
5
E
100
AcDbEntity
8
0
100
AcDbBlockEnd
0
BLOCK
5
10
330
F
100
AcDbEntity
8
0
100
AcDbBlockBegin
2
*Paper_Space
70
0
10
0
20
0
30
0
3
*Paper_Space
1

0
ENDBLK
5
11
100
AcDbEntity
8
0
100
AcDbBlockEnd
0
ENDSEC
0
SECTION
2
ENTITIES
0
TEXT
5
2B
330
C
100
AcDbEntity
8
C-ANNO-NPLT
100
AcDbText
10
1238538.4422677741
20
433093.8177590859
30
0
40
2.5
1
PRELIMINARY - NOT SEALED - NOT FOR CONSTRUCTION OR PERMIT SUBMISSION
7
STANDARD
100
AcDbText
0
TEXT
5
2C
330
C
100
AcDbEntity
8
C-ANNO-NPLT
100
AcDbText
10
1238538.4422677741
20
433089.8177590859
30
0
40
2.5
1
GENERATED 2026-09-25T22:23:10.706Z BY KEALEE SITE PLAN ENGINE
7
STANDARD
100
AcDbText
0
TEXT
5
2D
330
C
100
AcDbEntity
8
C-ANNO-NPLT
100
AcDbText
10
1238538.4422677741
20
433085.8177590859
30
0
40
2.5
1
HORIZONTAL: EPSG:2248
7
STANDARD
100
AcDbText
0
TEXT
5
2E
330
C
100
AcDbEntity
8
C-ANNO-NPLT
100
AcDbText
10
1238538.4422677741
20
433081.8177590859
30
0
40
2.5
1
VERTICAL: NAVD88 (feet)
7
STANDARD
100
AcDbText
0
TEXT
5
2F
330
C
100
AcDbEntity
8
C-ANNO-NPLT
100
AcDbText
10
1238538.4422677741
20
433077.8177590859
30
0
40
2.5
1
SOURCES: Parcel boundary — jurisdiction gis (Fairfax County — parcels, level 1); Existing contours (U.S. Geological Survey — 3D Elevation Program — 3DEP bare-earth DEM — VA_NorthernVA_B22, level 1)
7
STANDARD
100
AcDbText
0
TEXT
5
30
330
C
100
AcDbEntity
8
C-ANNO-NPLT
100
AcDbText
10
1238538.4422677741
20
433073.8177590859
30
0
40
2.5
1
THIS FILE IS DATA FOR A LICENSED PROFESSIONAL. IT IS NOT A SEALED DRAWING.
7
STANDARD
100
AcDbText
0
LWPOLYLINE
5
31
330
C
100
AcDbEntity
8
V-PROP-BNDY
100
AcDbPolyline
90
21
70
1
43
0
38
0
39
0
10
1238785.3790864607
20
433293.69057456875
10
1238784.3478410998
20
433284.267247037
10
1238783.5043075557
20
433274.8248470959
10
1238782.848567653
20
433265.36837408604
10
1238782.381653912
20
433255.8998113356
10
1238782.1046479987
20
433246.4241418229
10
1238782.0145993866
20
433236.9444141352
10
1238782.0370731093
20
433227.98491204676
10
1238782.227604929
20
433219.02766171645
10
1238782.5872274349
20
433210.0746464815
10
1238783.116006037
20
433201.12986580824
10
1238783.8130063035
20
433192.19733545516
10
1238784.6792771334
20
433183.28003865195
10
1238785.7138514046
20
433174.3799914972
10
1238786.915794643
20
433165.5012097707
10
1238554.582053157
20
433134.29799021914
10
1238551.6534640908
20
433189.314853895
10
1238547.4701873616
20
433267.90122138784
10
1238544.980017661
20
433318.29332774365
10
1238544.509571009
20
433327.80822641886
10
1238785.3790864607
20
433293.69057456875
0
LWPOLYLINE
5
32
330
C
100
AcDbEntity
8
C-TOPO-MAJR-E
100
AcDbPolyline
90
114
70
0
43
0
38
0
39
0
10
1238601.1269763727
20
433348.1762660106
10
1238600.976919343
20
433347.42777980294
10
1238600.7697348834
20
433346.67929359525
10
1238600.507358248
20
433345.9308073876
10
1238600.189789437
20
433345.1823211799
10
1238599.81702845
20
433344.4338349722
10
1238599.3890752876
20
433343.6853487646
10
1238599.0414865934
20
433343.05605426035
10
1238598.7742623675
20
433342.54595145956
10
1238598.58740261
20
433342.15504036227
10
1238598.4809073214
20
433341.88332096837
10
1238598.3553702538
20
433341.56033971946
10
1238598.2107914076
20
433341.1860966157
10
1238598.047170783
20
433340.7605916569
10
1238597.8645083797
20
433340.2838248431
10
1238597.6120376654
20
433339.7391281809
10
1238597.2897586399
20
433339.1265016701
10
1238596.8976713035
20
433338.44594531093
10
1238596.4357756558
20
433337.6974591032
10
1238596.063371881
20
433337.1114412672
10
1238595.7804599789
20
433336.68789180304
10
1238595.5870399494
20
433336.42681071046
10
1238595.4831117922
20
433336.3281979896
10
1238595.2180441227
20
433336.1450315794
10
1238594.7918369407
20
433335.8773114799
10
1238594.2044902458
20
433335.525037691
10
1238593.456004038
20
433335.08821021277
10
1238592.8173761554
20
433334.70732810197
10
1238592.2886065976
20
433334.3823913585
10
1238591.869695365
20
433334.1133999825
10
1238591.5606424576
20
433333.9003539739
10
1238591.2189944517
20
433333.67007505766
10
1238590.8447513478
20
433333.4225632338
10
1238590.4379131459
20
433333.1578185024
10
1238589.998479846
20
433332.87584086333
10
1238589.481783319
20
433332.645256395
10
1238588.8878235652
20
433332.4660650976
10
1238588.2166005843
20
433332.3382669708
10
1238587.4681143765
20
433332.2618620149
10
1238586.7196281687
20
433332.2371694273
10
1238585.971141961
20
433332.2641892079
10
1238585.2226557534
20
433332.34292135685
10
1238584.474169546
20
433332.4733658741
10
1238583.7256833385
20
433332.56220713723
10
1238582.9771971307
20
433332.6094451463
10
1238582.2287109229
20
433332.61507990124
10
1238581.480224715
20
433332.57911140216
10
1238580.7317385073
20
433332.5167521697
10
1238579.9832523
20
433332.42800220393
10
1238579.2347660922
20
433332.31286150485
10
1238578.4862798846
20
433332.1713300724
10
1238577.737793677
20
433332.04589450534
10
1238576.9893074692
20
433331.9365548036
10
1238576.2408212614
20
433331.8433109672
10
1238575.492335054
20
433331.7661629961
10
1238574.7438488463
20
433331.6975102866
10
1238573.9953626385
20
433331.63735283876
10
1238573.2468764307
20
433331.58569065237
10
1238572.4983902234
20
433331.5425237274
10
1238571.7499040156
20
433331.5132395693
10
1238571.0014178078
20
433331.49783817807
10
1238570.2529316
20
433331.49631955347
10
1238569.5044453926
20
433331.50868369563
10
1238568.7559591848
20
433331.54245146306
10
1238568.007472977
20
433331.59762285574
10
1238567.2589867692
20
433331.6741978736
10
1238566.510500562
20
433331.77217651665
10
1238565.762014354
20
433331.8645010316
10
1238565.0135281463
20
433331.9511714183
10
1238564.2650419388
20
433332.0321876768
10
1238563.5165557312
20
433332.10754980723
10
1238562.7680695234
20
433332.1517460206
10
1238562.019583316
20
433332.1647763169
10
1238561.2710971083
20
433332.14664069633
10
1238560.5226109005
20
433332.0973391587
10
1238559.7741246927
20
433332.0481444897
10
1238559.0256384849
20
433331.9990566893
10
1238558.2771522773
20
433331.9500757576
10
1238557.52866607
20
433331.90120169433
10
1238556.7801798624
20
433331.8303485781
10
1238556.0316936546
20
433331.7375164089
10
1238555.2832074468
20
433331.6227051867
10
1238554.534721239
20
433331.4859149116
10
1238553.7862350312
20
433331.3711383441
10
1238553.0377488234
20
433331.2783754843
10
1238552.2892626158
20
433331.20762633206
10
1238551.5407764085
20
433331.1588908875
10
1238550.792290201
20
433331.1014448128
10
1238550.0438039931
20
433331.0352881078
10
1238549.2953177853
20
433330.96042077255
10
1238548.5468315776
20
433330.876842807
10
1238547.9016839569
20
433330.8038695998
10
1238547.3598749232
20
433330.741501151
10
1238546.9214044763
20
433330.6897374606
10
1238546.5862726162
20
433330.6485785285
10
1238546.2315851343
20
433330.60615721915
10
1238545.8573420304
20
433330.5624735327
10
1238545.4635433047
20
433330.5175274691
10
1238545.050188957
20
433330.4713190283
10
1238544.5530516445
20
433330.43050258904
10
1238543.9721313666
20
433330.39507815137
10
1238543.307428124
20
433330.36504571524
10
1238542.5589419166
20
433330.34040528064
10
1238541.898223898
20
433330.3396371736
10
1238541.325274068
20
433330.36274139397
10
1238540.8400924273
20
433330.40971794183
10
1238540.4426789756
20
433330.4805668172
10
1238540.0568506978
20
433330.5487998531
10
1238539.682607594
20
433330.6144170493
10
1238539.3199496642
20
433330.6774184059
10
1238538.968876908
20
433330.73780392297
10
1238538.705572341
20
433330.7830930608
10
1238538.5300359633
20
433330.81328581925
10
1238538.4422677741
20
433330.8283821985
0
LWPOLYLINE
5
33
330
C
100
AcDbEntity
8
C-TOPO-MAJR-E
100
AcDbPolyline
90
266
70
0
43
0
38
0
39
0
10
1238671.7183483846
20
433348.1553586286
10
1238671.366017261
20
433347.42777980294
10
1238671.0009191579
20
433346.67929359525
10
1238670.7097561006
20
433346.0856710781
10
1238670.4925280893
20
433345.6469122514
10
1238670.3492351235
20
433345.36301711533
10
1238670.2798772037
20
433345.23398566985
10
1238670.1248401143
20
433344.98234839516
10
1238669.8841238557
20
433344.60810529126
10
1238669.5577284275
20
433344.11125635833
10
1238669.1456538297
20
433343.4918015962
10
1238668.7544815037
20
433342.8400889727
10
1238668.38421145
20
433342.1561184878
10
1238668.0348436676
20
433341.43989014154
10
1238667.706378157
20
433340.6914039339
10
1238667.4580424994
20
433340.11719993374
10
1238667.2898366945
20
433339.7172781411
10
1238667.201760742
20
433339.491638556
10
1238667.1938146425
20
433339.44028117834
10
1238667.1489970423
20
433339.2274809376
10
1238667.0673079416
20
433338.8532378338
10
1238666.9487473401
20
433338.3175518669
10
1238666.793315238
20
433337.62042303674
10
1238666.5284776352
20
433336.9492433629
10
1238666.1542345313
20
433336.30401284527
10
1238665.6705859266
20
433335.6847314838
10
1238665.077531821
20
433335.0913992786
10
1238664.44561969
20
433334.61503367114
10
1238663.7748495333
20
433334.2556346613
10
1238663.065221351
20
433334.01320224925
10
1238662.3167351438
20
433333.88773643493
10
1238661.677343457
20
433333.7862150272
10
1238661.1470462908
20
433333.70863802603
10
1238660.725843646
20
433333.6550054314
10
1238660.413735522
20
433333.6253172432
10
1238660.0705599082
20
433333.593616833
10
1238659.6963168043
20
433333.5599042006
10
1238659.2910062105
20
433333.5241793461
10
1238658.8546281268
20
433333.4864422695
10
1238658.379357224
20
433333.4675737312
10
1238657.8651935025
20
433333.4675737312
10
1238657.3121369616
20
433333.4864422695
10
1238656.7201876019
20
433333.5241793461
10
1238656.23709137
20
433333.55509348644
10
1238655.862848266
20
433333.5791846906
10
1238655.5974582904
20
433333.5964529585
10
1238655.4409214424
20
433333.6068982901
10
1238655.1363972547
20
433333.6239904936
10
1238654.6838857266
20
433333.64772956894
10
1238654.083386859
20
433333.6781155161
10
1238653.3349006516
20
433333.7151483352
10
1238652.5864144438
20
433333.76834006835
10
1238651.837928236
20
433333.8376907157
10
1238651.0894420284
20
433333.9232002772
10
1238650.3409558209
20
433334.0248687528
10
1238649.592469613
20
433334.1087979582
10
1238648.8439834057
20
433334.17498789326
10
1238648.095497198
20
433334.22343855805
10
1238647.3470109901
20
433334.2541499525
10
1238646.6940099236
20
433334.23221899313
10
1238646.136493998
20
433334.15764568
10
1238645.6744632141
20
433334.030430013
10
1238645.307917571
20
433333.8505719922
10
1238644.9375231976
20
433333.6191340145
10
1238644.5632800937
20
433333.33611607976
10
1238644.1851882595
20
433333.00151818804
10
1238643.8032476949
20
433332.61534033937
10
1238643.4447459436
20
433332.23512986314
10
1238643.1096830058
20
433331.86088675924
10
1238642.7980588814
20
433331.49261102785
10
1238642.5098735704
20
433331.13030266884
10
1238642.2363427682
20
433330.67144984764
10
1238641.977466475
20
433330.11605256435
10
1238641.7332446906
20
433329.4641108188
10
1238641.503677415
20
433328.7156246111
10
1238641.273818553
20
433328.04449331237
10
1238641.0436681048
20
433327.4507169225
10
1238640.81322607
20
433326.9342954415
10
1238640.5824924489
20
433326.4952288694
10
1238640.3384445887
20
433326.08857403137
10
1238640.0810824889
20
433325.7143309276
10
1238639.8104061503
20
433325.3724995579
10
1238639.5264155725
20
433325.06307992234
10
1238639.1972987317
20
433324.760459704
10
1238638.8230556278
20
433324.4646389028
10
1238638.4036862608
20
433324.1756175188
10
1238637.9391906313
20
433323.89339555195
10
1238637.403697357
20
433323.67356491403
10
1238636.7972064381
20
433323.51612560503
10
1238636.119717875
20
433323.42107762495
10
1238635.3712316672
20
433323.3884209738
10
1238634.6227454597
20
433323.4143348753
10
1238633.874259252
20
433323.4988193295
10
1238633.1257730443
20
433323.6418743364
10
1238632.377286837
20
433323.84349989594
10
1238631.6288006292
20
433323.9917612362
10
1238630.8803144214
20
433324.0866583572
10
1238630.1318282136
20
433324.12819125876
10
1238629.3833420062
20
433324.1163599412
10
1238628.6348557984
20
433324.00306639477
10
1238627.8863695906
20
433323.78831061965
10
1238627.1378833828
20
433323.4720926158
10
1238626.3893971755
20
433323.0544123833
10
1238625.7515254905
20
433322.6897218091
10
1238625.2242683284
20
433322.37802089343
10
1238624.8076256886
20
433322.11930963595
10
1238624.501597572
20
433321.9135880369
10
1238624.1614619615
20
433321.6815684098
10
1238623.7872188576
20
433321.4232507545
10
1238623.3788682604
20
433321.1386350711
10
1238622.9364101693
20
433320.8277213597
10
1238622.4174450494
20
433320.5040368425
10
1238621.8219729
20
433320.16758151946
10
1238621.1499937219
20
433319.81835539086
10
1238620.401507514
20
433319.4563584565
10
1238619.779191082
20
433319.1659668653
10
1238619.283044426
20
433318.94718061725
10
1238618.9130675457
20
433318.79999971227
10
1238618.6692604413
20
433318.7244241504
10
1238618.360235337
20
433318.635010547
10
1238617.985992233
20
433318.53175890195
10
1238617.5465311296
20
433318.4146692154
10
1238617.0418520265
20
433318.28374148725
10
1238616.4762211475
20
433318.12767755863
10
1238615.8496384919
20
433317.9464774296
10
1238615.1621040604
20
433317.7401411001
10
1238614.4136178526
20
433317.5086685701
10
1238613.6651316448
20
433317.29195722286
10
1238612.916645437
20
433317.0900070584
10
1238612.1681592294
20
433316.90281807666
10
1238611.419673022
20
433316.7303902776
10
1238610.6711868146
20
433316.5584905588
10
1238609.9227006068
20
433316.38711892033
10
1238609.174214399
20
433316.21627536207
10
1238608.4257281912
20
433316.045959884
10
1238607.8340749536
20
433315.9073876074
10
1238607.3992546857
20
433315.8005585321
10
1238607.1212673876
20
433315.72547265823
10
1238607.0001130598
20
433315.68212998577
10
1238606.7524143439
20
433315.58979760174
10
1238606.37817124
20
433315.4484755063
10
1238605.877383748
20
433315.2581636993
10
1238605.2500518686
20
433315.0188621807
10
1238604.592431407
20
433314.7801548626
10
1238603.904522363
20
433314.54204174504
10
1238603.1863247375
20
433314.30452282773
10
1238602.4378385302
20
433314.06759811094
10
1238601.6893523224
20
433313.84312307107
10
1238600.9408661146
20
433313.63109770813
10
1238600.1923799068
20
433313.4315220221
10
1238599.4438936994
20
433313.24439601315
10
1238598.8303706504
20
433313.08276801556
10
1238598.35181076
20
433312.94663802936
10
1238598.0082140286
20
433312.8360060546
10
1238597.7995804558
20
433312.7508720913
10
1238597.5081421174
20
433312.63535658014
10
1238597.1338990135
20
433312.4894595211
10
1238596.676851144
20
433312.31318091427
10
1238596.1369985095
20
433312.10652075964
10
1238595.5449874813
20
433311.9012265377
10
1238594.9008180602
20
433311.6972982484
10
1238594.2044902458
20
433311.4947358918
10
1238593.456004038
20
433311.29353946797
10
1238592.7075178302
20
433311.1546067163
10
1238591.9590316224
20
433311.07793763676
10
1238591.2105454148
20
433311.0635322296
10
1238590.4620592075
20
433311.11139049457
10
1238589.713573
20
433311.1458169603
10
1238588.9650867921
20
433311.1668116268
10
1238588.2166005843
20
433311.17437449406
10
1238587.4681143765
20
433311.16850556206
10
1238586.7196281687
20
433311.1166251907
10
1238585.971141961
20
433311.0187333801
10
1238585.2226557534
20
433310.8748301301
10
1238584.474169546
20
433310.68491544074
10
1238583.7256833385
20
433310.54734487575
10
1238582.9771971307
20
433310.462118435
10
1238582.2287109229
20
433310.42923611857
10
1238581.480224715
20
433310.4486979265
10
1238580.7317385073
20
433310.487713903
10
1238579.9832523
20
433310.54628404806
10
1238579.2347660922
20
433310.6244083618
10
1238578.4862798846
20
433310.7220868442
10
1238577.737793677
20
433310.8308477582
10
1238576.9893074692
20
433310.9506911039
10
1238576.2408212614
20
433311.0816168813
10
1238575.492335054
20
433311.2236250904
10
1238574.7438488463
20
433311.3641093706
10
1238573.9953626385
20
433311.5030697221
10
1238573.2468764307
20
433311.64050614473
10
1238572.4983902234
20
433311.77641863853
10
1238571.7712102507
20
433311.91853324434
10
1238571.065336513
20
433312.0668499621
10
1238570.3807690106
20
433312.2213687919
10
1238569.7175077428
20
433312.38208973367
10
1238569.1987555572
20
433312.50822933525
10
1238568.8245124535
20
433312.5997875966
10
1238568.5947784316
20
433312.65676451783
10
1238568.5095534911
20
433312.6791600987
10
1238568.258513234
20
433312.77976210235
10
1238567.8416576602
20
433312.9585705286
10
1238567.2589867692
20
433313.2155853775
10
1238566.510500562
20
433313.55080664903
10
1238565.8008950818
20
433313.8999399415
10
1238565.13017033
20
433314.2629852548
10
1238564.4983263055
20
433314.6399425891
10
1238563.905363009
20
433315.03081194416
10
1238563.421759809
20
433315.34188918053
10
1238563.047516705
20
433315.57317429804
10
1238562.7826336976
20
433315.72466729674
10
1238562.6271107863
20
433315.7963681766
10
1238562.3233470512
20
433315.8866084193
10
1238561.8713424918
20
433315.99538802484
10
1238561.2710971083
20
433316.12270699325
10
1238560.5226109005
20
433316.26856532454
10
1238559.7741246927
20
433316.33800834406
10
1238559.0256384849
20
433316.33103605185
10
1238558.2771522773
20
433316.2476484479
10
1238557.52866607
20
433316.0878455323
10
1238556.9441574442
20
433315.95355427166
10
1238556.5236264002
20
433315.8447746661
10
1238556.2670729384
20
433315.7615067156
10
1238556.1744970581
20
433315.7037504201
10
1238555.9410875663
20
433315.5181958125
10
1238555.5668444624
20
433315.2048428926
10
1238555.0517677467
20
433314.7636916605
10
1238554.3958574191
20
433314.19474211615
10
1238553.854678771
20
433313.723145792
10
1238553.4282318023
20
433313.3489026882
10
1238553.1165165133
20
433313.07201280457
10
1238552.9195329035
20
433312.89247614134
10
1238552.6339195468
20
433312.6103128757
10
1238552.259676443
20
433312.2255230079
10
1238551.796803592
20
433311.7381065379
10
1238551.245300994
20
433311.1480634656
10
1238550.7937093112
20
433310.6659203776
10
1238550.4420285434
20
433310.2916772737
10
1238550.1902586909
20
433310.0253341541
10
1238550.0383997534
20
433309.8668910187
10
1238549.7753487327
20
433309.61224589706
10
1238549.4011056288
20
433309.2613987891
10
1238548.915670442
20
433308.81434969493
10
1238548.3190431716
20
433308.27109861455
10
1238547.70612441
20
433307.8123515224
10
1238547.0769141573
20
433307.43810841854
10
1238546.4314124128
20
433307.14836930303
10
1238545.7696191769
20
433306.9431341758
10
1238545.251601007
20
433306.78409348044
10
1238544.8773579034
20
433306.67124721693
10
1238544.6468898654
20
433306.60459538526
10
1238544.5601968935
20
433306.5841379855
10
1238544.4224198055
20
433306.5739092856
10
1238544.233558602
20
433306.5739092856
10
1238543.9936132822
20
433306.5841379855
10
1238543.702583847
20
433306.60459538526
10
1238543.3699475774
20
433306.6307955221
10
1238542.9957044735
20
433306.66273839585
10
1238542.5798545354
20
433306.7004240068
10
1238542.1223977632
20
433306.7438523547
10
1238541.592183632
20
433306.8087526425
10
1238540.989212142
20
433306.8951248701
10
1238540.3134832932
20
433307.0029690376
10
1238539.5649970858
20
433307.1322851451
10
1238539.00363243
20
433307.22927222564
10
1238538.629389326
20
433307.2939302794
10
1238538.4422677741
20
433307.3262593062
0
LWPOLYLINE
5
34
330
C
100
AcDbEntity
8
C-TOPO-MAJR-E
100
AcDbPolyline
90
331
70
0
43
0
38
0
39
0
10
1238691.1393908858
20
433347.8382659372
10
1238690.9990335633
20
433347.4640228333
10
1238690.8265552842
20
433346.99017844844
10
1238690.6219560476
20
433346.41673278256
10
1238690.3703812337
20
433345.7995269812
10
1238690.0718308422
20
433345.13856104447
10
1238689.7263048731
20
433344.4338349722
10
1238689.3338033268
20
433343.6853487646
10
1238689.0015808106
20
433343.0647680912
10
1238688.7296373253
20
433342.572092952
10
1238688.51797287
20
433342.2073233471
10
1238688.3665874451
20
433341.9704592765
10
1238688.1668029388
20
433341.6649056893
10
1238687.9186193505
20
433341.2906625854
10
1238687.6220366806
20
433340.847729965
10
1238687.277054929
20
433340.33610782796
10
1238687.0038857944
20
433339.76526967325
10
1238686.8025292777
20
433339.13521550095
10
1238686.6729853782
20
433338.44594531093
10
1238686.6152540962
20
433337.6974591032
10
1238686.6709425175
20
433336.9489728955
10
1238686.8400506426
20
433336.2004866879
10
1238687.1225784712
20
433335.4520004802
10
1238687.5185260035
20
433334.7035142725
10
1238687.8171780282
20
433334.1400665026
10
1238688.0185345449
20
433333.76165717054
10
1238688.1225955542
20
433333.56828627625
10
1238688.1293610558
20
433333.55995381984
10
1238688.2972127802
20
433333.36866603966
10
1238688.6261507275
20
433332.99442293576
10
1238689.1161748976
20
433332.43722450826
10
1238689.767285291
20
433331.6970707571
10
1238690.2799620396
20
433331.1156546495
10
1238690.6542051435
20
433330.69297618547
10
1238690.8900146026
20
433330.42903536506
10
1238690.987390417
20
433330.32383218827
10
1238691.2079531949
20
433330.0841090479
10
1238691.551702936
20
433329.7098659441
10
1238692.0186396404
20
433329.2011028768
10
1238692.608763308
20
433328.55781984585
10
1238693.090946694
20
433328.01056584413
10
1238693.4651897978
20
433327.5593408715
10
1238693.7314926195
20
433327.2041449279
10
1238693.8898551594
20
433326.94497801334
10
1238694.0978934295
20
433326.62827300414
10
1238694.3556074298
20
433326.25402990036
10
1238694.6629971599
20
433325.8222487019
10
1238695.0200626203
20
433325.3329294087
10
1238695.3116834967
20
433324.77881838696
10
1238695.5378597896
20
433324.1599156366
10
1238695.6985914984
20
433323.4762211575
10
1238695.7938786235
20
433322.72773494985
10
1238695.7522558211
20
433322.0359748234
10
1238695.5737230908
20
433321.4009407781
10
1238695.2582804332
20
433320.822632814
10
1238694.805927848
20
433320.3010509311
10
1238694.3621759862
20
433319.8531384377
10
1238693.9270248478
20
433319.4788953339
10
1238693.5004744334
20
433319.1783216196
10
1238693.0825247425
20
433318.9514172948
10
1238692.6864283453
20
433318.73990007536
10
1238692.3121852414
20
433318.54376996116
10
1238691.959795431
20
433318.3630269523
10
1238691.6292589142
20
433318.19767104875
10
1238691.1942349747
20
433318.0643398778
10
1238690.6547236121
20
433317.96303343953
10
1238690.0107248272
20
433317.8937517339
10
1238689.2622386198
20
433317.8564947609
10
1238688.5310230474
20
433317.69208369835
10
1238687.8170781105
20
433317.4005185463
10
1238687.120403809
20
433316.9817993047
10
1238686.4410001426
20
433316.4359259736
10
1238685.9141767577
20
433315.9827624398
10
1238685.539933654
20
433315.6223087034
10
1238685.3182708314
20
433315.3545647642
10
1238685.2491882895
20
433315.17953062226
10
1238685.1454856491
20
433314.9048919994
10
1238685.0071629097
20
433314.5306488956
10
1238684.8342200713
20
433314.05680131074
10
1238684.6266571344
20
433313.4833492449
10
1238684.3357541137
20
433312.91995250527
10
1238683.9615110098
20
433312.36661109165
10
1238683.5039278227
20
433311.8233250042
10
1238682.9630045523
20
433311.29009424284
10
1238682.3799092942
20
433310.8363573102
10
1238681.7546420486
20
433310.46211420634
10
1238681.0872028153
20
433310.1673649313
10
1238680.3775915941
20
433309.95210948505
10
1238679.8356644318
20
433309.7881542301
10
1238679.4614213281
20
433309.6754991666
10
1238679.254862283
20
433309.6141442944
10
1238679.215987296
20
433309.6040896136
10
1238679.1386292933
20
433309.5990622732
10
1238679.0227882743
20
433309.5990622732
10
1238678.8684642392
20
433309.6040896136
10
1238678.675657188
20
433309.6141442944
10
1238678.3921321104
20
433309.6279749902
10
1238678.0178890065
20
433309.645581701
10
1238677.5529278764
20
433309.6669644268
10
1238676.9972487201
20
433309.6921231675
10
1238676.3933678009
20
433309.7513426406
10
1238675.741285119
20
433309.844622846
10
1238675.041000674
20
433309.97196378367
10
1238674.2925144662
20
433310.1333654537
10
1238673.5440282584
20
433310.29214550904
10
1238672.7955420506
20
433310.4483039497
10
1238672.047055843
20
433310.6018407758
10
1238671.2985696357
20
433310.7527559872
10
1238670.5500834282
20
433310.8719709419
10
1238669.8015972204
20
433310.9594856399
10
1238669.0531110126
20
433311.0153000811
10
1238668.3046248048
20
433311.03941426566
10
1238667.556138597
20
433311.0161123172
10
1238666.8076523896
20
433310.9453942358
10
1238666.0591661818
20
433310.8272600214
10
1238665.3106799743
20
433310.6617096741
10
1238664.6559076041
20
433310.4885370488
10
1238664.0948490717
20
433310.3077421454
10
1238663.627504377
20
433310.119324964
10
1238663.2538735196
20
433309.9232855047
10
1238662.879936539
20
433309.6794094085
10
1238662.5056934352
20
433309.3876966756
10
1238662.1311442081
20
433309.0481473059
10
1238661.7562888577
20
433308.6607612994
10
1238661.4070769872
20
433308.2799467443
10
1238661.083508597
20
433307.9057036405
10
1238660.7855836865
20
433307.53803198796
10
1238660.5133022561
20
433307.1769317867
10
1238660.2277504508
20
433306.71898508386
10
1238659.92892827
20
433306.16419187945
10
1238659.6168357143
20
433305.5125521734
10
1238659.2914727833
20
433304.7640659657
10
1238659.0097401235
20
433304.14493789955
10
1238658.771637735
20
433303.65516797494
10
1238658.5771656176
20
433303.29475619184
10
1238658.426323771
20
433303.06370255037
10
1238658.149052022
20
433302.76105417765
10
1238657.7453503702
20
433302.38681107375
10
1238657.215218816
20
433301.9409732388
10
1238656.5586573589
20
433301.42354067275
10
1238656.0432550786
20
433301.0209317034
10
1238655.6690119747
20
433300.7331463307
10
1238655.4359280474
20
433300.5601845548
10
1238655.3440032967
20
433300.50204637565
10
1238655.0879381816
20
433300.4148332931
10
1238654.6677327026
20
433300.29854530725
10
1238654.083386859
20
433300.153182418
10
1238653.3349006516
20
433299.97874462535
10
1238652.5864144438
20
433299.8649969991
10
1238651.837928236
20
433299.81193953933
10
1238651.0894420284
20
433299.8195722459
10
1238650.3409558209
20
433299.8878951188
10
1238649.592469613
20
433299.9237651699
10
1238648.8439834057
20
433299.92718239914
10
1238648.095497198
20
433299.8981468066
10
1238647.3470109901
20
433299.83665839216
10
1238646.5985247823
20
433299.7818708424
10
1238645.8500385745
20
433299.7337841573
10
1238645.101552367
20
433299.6923983369
10
1238644.3530661596
20
433299.65771338117
10
1238643.604579952
20
433299.64913990855
10
1238642.8560937443
20
433299.66667791904
10
1238642.1076075365
20
433299.7103274127
10
1238641.3591213287
20
433299.7800883894
10
1238640.610635121
20
433299.8453990902
10
1238639.862148913
20
433299.9062595152
10
1238639.1136627055
20
433299.9626696641
10
1238638.3651764982
20
433300.0146295371
10
1238637.6166902906
20
433300.0472974081
10
1238636.8682040828
20
433300.0606732771
10
1238636.119717875
20
433300.0547571441
10
1238635.3712316672
20
433300.0295490091
10
1238634.6227454597
20
433299.9996900688
10
1238633.874259252
20
433299.9651803232
10
1238633.1257730443
20
433299.92601977236
10
1238632.377286837
20
433299.88220841624
10
1238631.6288006292
20
433299.8247047814
10
1238630.8803144214
20
433299.753508868
10
1238630.1318282136
20
433299.6686206759
10
1238629.3833420062
20
433299.57004020526
10
1238628.6348557984
20
433299.4086431959
10
1238627.8863695906
20
433299.18442964787
10
1238627.1378833828
20
433298.89739956125
10
1238626.3893971755
20
433298.5475529359
10
1238625.7974186884
20
433298.26208446664
10
1238625.361947922
20
433298.04099415336
10
1238625.0829848764
20
433297.88428199606
10
1238624.9605295514
20
433297.79194799485
10
1238624.712180337
20
433297.5976890563
10
1238624.337937233
20
433297.30150518066
10
1238623.8378002397
20
433296.9033963678
10
1238623.2117693573
20
433296.4033626177
10
1238622.6349902817
20
433295.9662241907
10
1238622.1074630134
20
433295.59198108694
10
1238621.6291875523
20
433295.2806333062
10
1238621.200163898
20
433295.0321808486
10
1238620.7985305192
20
433294.78411000135
10
1238620.4242874156
20
433294.53642076446
10
1238620.0774345868
20
433294.28911313793
10
1238619.757972033
20
433294.04218712164
10
1238619.3312535658
20
433293.8304857719
10
1238618.7972791851
20
433293.65400908864
10
1238618.156048891
20
433293.51275707176
10
1238617.4075626836
20
433293.40672972135
10
1238616.659076476
20
433293.3427252145
10
1238615.9105902682
20
433293.32074355107
10
1238615.1621040604
20
433293.34078473126
10
1238614.4136178526
20
433293.402848755
10
1238613.6651316448
20
433293.45365382393
10
1238612.916645437
20
433293.493199938
10
1238612.1681592294
20
433293.52148709726
10
1238611.419673022
20
433293.53851530177
10
1238610.6711868146
20
433293.5338975516
10
1238609.9227006068
20
433293.50763384666
10
1238609.174214399
20
433293.4597241871
10
1238608.4257281912
20
433293.3901685728
10
1238607.6772419836
20
433293.3127131411
10
1238606.928755776
20
433293.22735789197
10
1238606.1802695682
20
433293.1341028254
10
1238605.431783361
20
433293.0329479416
10
1238604.683297153
20
433292.933762639
10
1238603.9348109453
20
433292.8365469177
10
1238603.1863247375
20
433292.7413007777
10
1238602.4378385302
20
433292.6480242189
10
1238601.6893523224
20
433292.55278583744
10
1238600.9408661146
20
433292.45558563323
10
1238600.1923799068
20
433292.3564236062
10
1238599.4438936994
20
433292.2552997565
10
1238598.701785535
20
433292.15207832854
10
1238597.9660554142
20
433292.04675932234
10
1238597.2367033367
20
433291.939342738
10
1238596.5137293027
20
433291.82982857537
10
1238595.9651207337
20
433291.74679065787
10
1238595.5908776298
20
433291.6902289853
10
1238595.390999991
20
433291.66014355776
10
1238595.3654878172
20
433291.6565343753
10
1238595.1592321352
20
433291.61664882494
10
1238594.7722329448
20
433291.54048690683
10
1238594.2044902458
20
433291.42804862093
10
1238593.456004038
20
433291.2793339672
10
1238592.7075178302
20
433291.15556389187
10
1238591.9590316224
20
433291.0567383949
10
1238591.2105454148
20
433290.9828574763
10
1238590.4620592075
20
433290.9339211361
10
1238589.713573
20
433290.92377000215
10
1238588.9650867921
20
433290.95240407455
10
1238588.2166005843
20
433291.0198233532
10
1238587.4681143765
20
433291.1260278382
10
1238586.7811601297
20
433291.2294451248
10
1238586.1557378438
20
433291.330075213
10
1238585.5918475187
20
433291.4279181028
10
1238585.0894891543
20
433291.5229737944
10
1238584.6511884204
20
433291.60643282346
10
1238584.2769453165
20
433291.6782951901
10
1238583.9667598428
20
433291.7385608944
10
1238583.7206319994
20
433291.7872299362
10
1238583.348914565
20
433291.8609988443
10
1238582.8516075395
20
433291.9598676187
10
1238582.2287109229
20
433292.0838362593
10
1238581.480224715
20
433292.23290476616
10
1238580.7317385073
20
433292.36695680674
10
1238579.9832523
20
433292.4859923809
10
1238579.2347660922
20
433292.5900114889
10
1238578.4862798846
20
433292.6790141306
10
1238577.737793677
20
433292.75103571056
10
1238576.9893074692
20
433292.80607622874
10
1238576.2408212614
20
433292.8441356852
10
1238575.492335054
20
433292.86521407985
10
1238574.7438488463
20
433292.8591873172
10
1238573.9953626385
20
433292.8260553972
10
1238573.2468764307
20
433292.7658183199
10
1238572.4983902234
20
433292.67847608525
10
1238571.7499040156
20
433292.57447692566
10
1238571.0014178078
20
433292.4538208412
10
1238570.2529316
20
433292.3165078317
10
1238569.5044453926
20
433292.16253789724
10
1238568.8624411067
20
433292.03043384233
10
1238568.3269187426
20
433291.9201956671
10
1238567.8978783004
20
433291.83182337147
10
1238567.5753197796
20
433291.7653169556
10
1238567.2269189674
20
433291.6953051093
10
1238566.8526758635
20
433291.6217878327
10
1238566.452590468
20
433291.5447651257
10
1238566.0266627811
20
433291.4642369885
10
1238565.5200954638
20
433291.38031420775
10
1238564.9328885162
20
433291.2929967834
10
1238564.2650419388
20
433291.2022847155
10
1238563.5165557312
20
433291.10817800404
10
1238562.7680695234
20
433291.03418465855
10
1238562.019583316
20
433290.980304679
10
1238561.2710971083
20
433290.94653806544
10
1238560.5226109005
20
433290.93288481794
10
1238559.7741246927
20
433290.92083661794
10
1238559.0256384849
20
433290.9103934654
10
1238558.2771522773
20
433290.90155536047
10
1238557.52866607
20
433290.894322303
10
1238556.7801798624
20
433290.88635063934
10
1238556.0316936546
20
433290.87764036946
10
1238555.2832074468
20
433290.8681914933
10
1238554.534721239
20
433290.858004011
10
1238553.7862350312
20
433290.89126389404
10
1238553.0377488234
20
433290.96797114244
10
1238552.2892626158
20
433291.0881257563
10
1238551.5407764085
20
433291.2517277355
10
1238550.8399309255
20
433291.38495588413
10
1238550.1867261676
20
433291.4878102022
10
1238549.5811621344
20
433291.5602906896
10
1238549.023238826
20
433291.60239734635
10
1238548.5571556203
20
433291.63720122946
10
1238548.1829125164
20
433291.66470233904
10
1238547.9005095148
20
433291.68490067485
10
1238547.7099466152
20
433291.69779623684
10
1238547.5484250602
20
433291.70424401795
10
1238547.4159448494
20
433291.70424401795
10
1238547.3125059828
20
433291.69779623684
10
1238547.2381084608
20
433291.68490067485
10
1238547.0137881478
20
433291.646234233
10
1238546.639545044
20
433291.5817969114
10
1238546.115379149
20
433291.4915887102
10
1238545.4412904638
20
433291.3756096294
10
1238544.7486023977
20
433291.2427285857
10
1238544.037314951
20
433291.0929455791
10
1238543.307428124
20
433290.92626060976
10
1238542.5589419166
20
433290.7426736776
10
1238541.8104557088
20
433290.58038240764
10
1238541.061969501
20
433290.4393867997
10
1238540.3134832932
20
433290.3196868539
10
1238539.5649970858
20
433290.22128257033
10
1238539.00363243
20
433290.1474793576
10
1238538.629389326
20
433290.09827721573
10
1238538.4422677741
20
433290.0736761449
0
LWPOLYLINE
5
35
330
C
100
AcDbEntity
8
C-TOPO-MAJR-E
100
AcDbPolyline
90
442
70
0
43
0
38
0
39
0
10
1238711.6879423936
20
433348.02029056044
10
1238711.469676773
20
433347.42777980294
10
1238711.1962616544
20
433346.67929359525
10
1238710.9284019899
20
433345.9308073876
10
1238710.6660977798
20
433345.1823211799
10
1238710.4093490243
20
433344.4338349722
10
1238710.1581557228
20
433343.6853487646
10
1238709.9269955812
20
433342.98240220564
10
1238709.7158685997
20
433342.3249952954
10
1238709.5247747777
20
433341.7131280338
10
1238709.353714116
20
433341.1468004209
10
1238709.2117041121
20
433340.6765150625
10
1238709.0987447663
20
433340.30227195873
10
1238709.0148360785
20
433340.02407110936
10
1238708.9599780492
20
433339.8419125146
10
1238708.8957032147
20
433339.5181720166
10
1238708.8220115756
20
433339.05284961534
10
1238708.7389031316
20
433338.44594531093
10
1238708.6463778827
20
433337.6974591032
10
1238708.6138297657
20
433337.0212567975
10
1238708.6412587804
20
433336.4173383939
10
1238708.728664927
20
433335.8857038923
10
1238708.8760482054
20
433335.42635329266
10
1238709.0280708168
20
433335.00955644087
10
1238709.1847327612
20
433334.635313337
10
1238709.3460340388
20
433334.3036239811
10
1238709.5119746493
20
433334.01448837307
10
1238709.7820665063
20
433333.6795746167
10
1238710.1563096102
20
433333.2988827119
10
1238710.6347039607
20
433332.87241265876
10
1238711.2172495578
20
433332.40016445727
10
1238711.6997046294
20
433331.97691880463
10
1238712.0820691758
20
433331.6026757008
10
1238712.3643431964
20
433331.27743514575
10
1238712.5465266916
20
433331.00119713956
10
1238712.7824355948
20
433330.606897083
10
1238713.072069906
20
433330.0945349761
10
1238713.415429625
20
433329.4641108188
10
1238713.8125147517
20
433328.7156246111
10
1238714.1526329932
20
433328.1027110304
10
1238714.4357843495
20
433327.62537007674
10
1238714.6619688203
20
433327.2836017499
10
1238714.8311864058
20
433327.07740605006
10
1238715.0851428013
20
433326.78718664823
10
1238715.4238380063
20
433326.41294354445
10
1238715.8472720212
20
433325.9546767386
10
1238716.3554448462
20
433325.4123862308
10
1238716.7966528104
20
433324.96408530814
10
1238717.170895914
20
433324.60977397056
10
1238717.4781741574
20
433324.3494522182
10
1238717.7184875407
20
433324.18312005105
10
1238718.0858441298
20
433323.9815934259
10
1238718.580243925
20
433323.7448723428
10
1238719.2016869267
20
433323.47295680176
10
1238719.950173134
20
433323.1658468028
10
1238720.6854627747
20
433322.8667532932
10
1238721.4075558488
20
433322.5756762729
10
1238722.1164523559
20
433322.2926157421
10
1238722.8121522958
20
433322.01757170056
10
1238723.347123818
20
433321.80373253446
10
1238723.7213669217
20
433321.6510982438
10
1238723.9348816073
20
433321.55966882844
10
1238723.987667875
20
433321.5294442885
10
1238724.2143791274
20
433321.45453118766
10
1238724.6150153652
20
433321.3349295258
10
1238725.1895765879
20
433321.17063930293
10
1238725.9380627952
20
433320.9616605191
10
1238726.6865490028
20
433320.7187593884
10
1238727.4350352106
20
433320.4419359106
10
1238728.1835214184
20
433320.1311900859
10
1238728.9320076262
20
433319.78652191424
10
1238729.5506329604
20
433319.48686710745
10
1238730.039397421
20
433319.2322256655
10
1238730.3983010082
20
433319.0225975883
10
1238730.6273437217
20
433318.85798287607
10
1238730.9289866304
20
433318.5528105306
10
1238731.3032297343
20
433318.1070805519
10
1238731.7500730334
20
433317.5207929401
10
1238732.2695165272
20
433316.7939476951
10
1238732.6623987786
20
433316.24340352067
10
1238732.9287197872
20
433315.8691604168
10
1238733.0684795529
20
433315.6712183836
10
1238733.081678076
20
433315.6495774209
10
1238733.0882773374
20
433315.6298789304
10
1238733.0882773374
20
433315.61212291196
10
1238733.081678076
20
433315.59630936553
10
1238733.0684795529
20
433315.58243829117
10
1238732.8714591088
20
433315.4162269398
10
1238732.4906167432
20
433315.09767531144
10
1238731.9259524567
20
433314.6267834061
10
1238731.1774662493
20
433314.0035512236
10
1238730.5753626036
20
433313.5082813491
10
1238730.1196415196
20
433313.1409737824
10
1238729.8103029975
20
433312.9016285236
10
1238729.6473470377
20
433312.7902455727
10
1238729.3787475056
20
433312.64683341
10
1238729.004504402
20
433312.4713920357
10
1238728.5246177262
20
433312.2639214498
10
1238727.9390874782
20
433312.02442165196
10
1238727.3128182406
20
433311.73601417034
10
1238726.6458100132
20
433311.39869900467
10
1238725.9380627954
20
433311.01247615507
10
1238725.1895765879
20
433310.57734562154
10
1238724.608360933
20
433310.2325337522
10
1238724.1944158303
20
433309.97804054734
10
1238723.9477412808
20
433309.8138660066
10
1238723.8683372836
20
433309.7400101302
10
1238723.7547364486
20
433309.497496671
10
1238723.6069387752
20
433309.086325629
10
1238723.4249442639
20
433308.5064970041
10
1238723.2087529146
20
433307.7580107964
10
1238723.1205082391
20
433307.0371001699
10
1238723.1602102376
20
433306.34376512485
10
1238723.3278589102
20
433305.6780056609
10
1238723.6234542567
20
433305.0398217782
10
1238723.8591061858
20
433304.53360828495
10
1238724.0348146982
20
433304.1593651811
10
1238724.150579793
20
433303.9170924667
10
1238724.2064014706
20
433303.80679014174
10
1238724.386105463
20
433303.5369418461
10
1238724.6896917694
20
433303.10754757974
10
1238725.1171603908
20
433302.51860734273
10
1238725.6685113267
20
433301.77012113505
10
1238726.117352927
20
433301.15249130747
10
1238726.463685192
20
433300.66571785987
10
1238726.7075081214
20
433300.3098007923
10
1238726.8488217157
20
433300.08474010485
10
1238727.0064535602
20
433299.7850882092
10
1238727.180403655
20
433299.41084510536
10
1238727.3706719999
20
433298.96201079333
10
1238727.5772585953
20
433298.4385852731
10
1238727.785359106
20
433297.8588945811
10
1238727.9949735324
20
433297.22293871717
10
1238728.2061018741
20
433296.5307176814
10
1238728.4187441315
20
433295.7822314737
10
1238728.5893081478
20
433295.03374526603
10
1238728.717793923
20
433294.2852590584
10
1238728.8042014574
20
433293.5367728507
10
1238728.848530751
20
433292.78828664304
10
1238728.7658881843
20
433292.1332330698
10
1238728.5562737582
20
433291.5716121311
10
1238728.219687472
20
433291.10342382675
10
1238727.7561293258
20
433290.7286681568
10
1238727.2453026546
20
433290.3541687699
10
1238726.6872074578
20
433289.9799256661
10
1238726.0818437359
20
433289.6059388453
10
1238725.4292114885
20
433289.2322083075
10
1238724.915773813
20
433288.9391913868
10
1238724.5415307092
20
433288.7268880831
10
1238724.3064821772
20
433288.5952983965
10
1238724.2106282166
20
433288.544422327
10
1238723.9516161946
20
433288.40611047554
10
1238723.5294461106
20
433288.18036284205
10
1238722.9441179647
20
433287.86717942666
10
1238722.1956317574
20
433287.4665602293
10
1238721.4769296546
20
433287.09184809617
10
1238720.7880116566
20
433286.74304302706
10
1238720.1288777636
20
433286.42014502216
10
1238719.499527976
20
433286.1231540814
10
1238718.99773153
20
433285.89086062455
10
1238718.6234884262
20
433285.72326465166
10
1238718.3767986642
20
433285.62036616274
10
1238718.2576622446
20
433285.58216515783
10
1238717.9811883778
20
433285.51282650686
10
1238717.547377064
20
433285.4123502099
10
1238716.9562283033
20
433285.280736267
10
1238716.207742096
20
433285.11798467813
10
1238715.4592558881
20
433284.9888669068
10
1238714.7107696803
20
433284.8933829531
10
1238713.9622834725
20
433284.831532817
10
1238713.2137972652
20
433284.8033164985
10
1238712.4653110574
20
433284.76902007323
10
1238711.7168248496
20
433284.72864354117
10
1238710.968338642
20
433284.68218690227
10
1238710.2198524345
20
433284.62965015654
10
1238709.4713662267
20
433284.55738710664
10
1238708.7228800193
20
433284.46539775253
10
1238707.9743938115
20
433284.3536820942
10
1238707.2259076037
20
433284.2222401316
10
1238706.477421396
20
433284.0916210959
10
1238705.7289351881
20
433283.9618249872
10
1238704.9804489806
20
433283.8328518053
10
1238704.2319627733
20
433283.7047015503
10
1238703.4834765657
20
433283.58741217386
10
1238702.734990358
20
433283.4809836759
10
1238701.98650415
20
433283.38541605655
10
1238701.2380179423
20
433283.3007093158
10
1238700.4985262586
20
433283.2065588624
10
1238699.768029099
20
433283.1029646963
10
1238699.0465264637
20
433282.98992681765
10
1238698.334018352
20
433282.8674452264
10
1238697.7906427444
20
433282.7746541321
10
1238697.4163996405
20
433282.71155353484
10
1238697.2112890405
20
433282.6781434346
10
1238697.1753109444
20
433282.6744238313
10
1238696.9612058206
20
433282.6329981411
10
1238696.5689736684
20
433282.55386636406
10
1238695.9986144886
20
433282.43702850014
10
1238695.2501282808
20
433282.2824845493
10
1238694.5016420733
20
433282.13670156663
10
1238693.7531558657
20
433281.99967955216
10
1238693.004669658
20
433281.8714185059
10
1238692.2561834506
20
433281.7519184278
10
1238691.5076972428
20
433281.65255245287
10
1238690.759211035
20
433281.57332058117
10
1238690.0107248272
20
433281.5142228127
10
1238689.2622386198
20
433281.47525914747
10
1238688.513752412
20
433281.44992814714
10
1238687.7652662043
20
433281.43822981184
10
1238687.0167799965
20
433281.44016414153
10
1238686.2682937891
20
433281.4557311361
10
1238685.5198075813
20
433281.4896819839
10
1238684.7713213735
20
433281.5420166849
10
1238684.0228351657
20
433281.612735239
10
1238683.2743489584
20
433281.70183764625
10
1238682.5258627506
20
433281.7758847333
10
1238681.777376543
20
433281.83487650007
10
1238681.0288903355
20
433281.8788129467
10
1238680.2804041277
20
433281.9076940732
10
1238679.5319179199
20
433281.9125760467
10
1238678.783431712
20
433281.8934588672
10
1238678.0349455045
20
433281.8503425348
10
1238677.2864592972
20
433281.78322704945
10
1238676.5379730896
20
433281.70002635836
10
1238675.7894868818
20
433281.60074046167
10
1238675.041000674
20
433281.48536935926
10
1238674.2925144662
20
433281.3539130511
10
1238673.5440282584
20
433281.21257378685
10
1238672.7955420506
20
433281.06135156646
10
1238672.047055843
20
433280.9002463899
10
1238671.2985696357
20
433280.7292582573
10
1238670.5522857276
20
433280.55207977974
10
1238669.8082041189
20
433280.3687109571
10
1238669.0663248098
20
433280.1791517897
10
1238668.3266478004
20
433279.98340227734
10
1238667.7696877439
20
433279.836137038
10
1238667.39544464
20
433279.73735607177
10
1238667.203918489
20
433279.6870593786
10
1238667.1951092905
20
433279.6852469584
10
1238667.00138084
20
433279.6436766095
10
1238666.622733137
20
433279.5623483319
10
1238666.0591661818
20
433279.44126212556
10
1238665.3106799743
20
433279.2804179904
10
1238664.5621937667
20
433279.1187755376
10
1238663.813707559
20
433278.95633476716
10
1238663.065221351
20
433278.793095679
10
1238662.3167351438
20
433278.62905827304
10
1238661.568248936
20
433278.4683031437
10
1238660.8197627282
20
433278.3108302908
10
1238660.0712765204
20
433278.1566397144
10
1238659.322790313
20
433278.00573141436
10
1238658.5743041052
20
433277.8614505272
10
1238657.8258178975
20
433277.72379705304
10
1238657.0773316897
20
433277.5927709916
10
1238656.3288454823
20
433277.4683723431
10
1238655.5803592745
20
433277.3772959905
10
1238654.8318730667
20
433277.3195419336
10
1238654.083386859
20
433277.29511017253
10
1238653.3349006516
20
433277.3040007074
10
1238652.5864144438
20
433277.3243183028
10
1238651.837928236
20
433277.3560629587
10
1238651.0894420284
20
433277.3992346752
10
1238650.3409558209
20
433277.4538334522
10
1238649.592469613
20
433277.4731551645
10
1238648.8439834057
20
433277.4571998123
10
1238648.095497198
20
433277.40596739535
10
1238647.3470109901
20
433277.31945791375
10
1238646.6740787714
20
433277.22370952053
10
1238646.0767005412
20
433277.1187222156
10
1238645.5548763003
20
433277.00449599896
10
1238645.108606048
20
433276.8810308706
10
1238644.69834937
20
433276.7511400522
10
1238644.324106266
20
433276.6148235438
10
1238643.9858767362
20
433276.4720813454
10
1238643.683660781
20
433276.3229134568
10
1238643.2698772626
20
433276.1160443655
10
1238642.7445261811
20
433275.85147407127
10
1238642.1076075365
20
433275.52920257417
10
1238641.3591213287
20
433275.1492298742
10
1238640.610635121
20
433274.8139917834
10
1238639.862148913
20
433274.5234883018
10
1238639.1136627055
20
433274.27771942934
10
1238638.3651764982
20
433274.07668516604
10
1238637.677358071
20
433273.92133162956
10
1238637.0502074244
20
433273.81165881996
10
1238636.4837245587
20
433273.7476667372
10
1238635.9779094732
20
433273.72935538134
10
1238635.5378803788
20
433273.7126071155
10
1238635.1636372749
20
433273.6974219396
10
1238634.855180162
20
433273.68379985384
10
1238634.6125090395
20
433273.6717408581
10
1238634.2963317134
20
433273.6657113603
10
1238633.9066481837
20
433273.6657113603
10
1238633.4434584505
20
433273.6717408581
10
1238632.9067625136
20
433273.68379985384
10
1238632.451292993
20
433273.69389089115
10
1238632.0770498891
20
433273.7020139701
10
1238631.7840332019
20
433273.7081690906
10
1238631.5722429312
20
433273.71235625277
10
1238631.3994981777
20
433273.71444983385
10
1238631.2657989413
20
433273.71444983385
10
1238631.171145222
20
433273.71235625277
10
1238631.1155370197
20
433273.7081690906
10
1238630.9006113666
20
433273.6872424934
10
1238630.5263682627
20
433273.6495764612
10
1238629.992807708
20
433273.5951709938
10
1238629.2999297027
20
433273.52402609144
10
1238628.5931496467
20
433273.42446317116
10
1238627.87246754
20
433273.29648223275
10
1238627.1378833828
20
433273.14008327655
10
1238626.3893971755
20
433272.95526630245
10
1238625.6409109677
20
433272.7821825534
10
1238624.89242476
20
433272.6208320295
10
1238624.1439385521
20
433272.4712147307
10
1238623.3954523448
20
433272.33333065704
10
1238622.646966137
20
433272.21900237945
10
1238621.8984799294
20
433272.128229898
10
1238621.1499937219
20
433272.06101321254
10
1238620.401507514
20
433272.01735232316
10
1238619.6530213063
20
433271.95101088355
10
1238618.9045350985
20
433271.8619888937
10
1238618.156048891
20
433271.7502863535
10
1238617.4075626836
20
433271.61590326304
10
1238616.659076476
20
433271.5006997599
10
1238615.9105902682
20
433271.4046758442
10
1238615.1621040604
20
433271.3278315158
10
1238614.4136178526
20
433271.27016677475
10
1238613.6651316448
20
433271.23697921867
10
1238612.916645437
20
433271.2282688475
10
1238612.1681592294
20
433271.2440356612
10
1238611.419673022
20
433271.2842796599
10
1238610.6711868146
20
433271.311464666
10
1238609.9227006068
20
433271.3255906794
10
1238609.174214399
20
433271.3266577001
10
1238608.4257281912
20
433271.3146657282
10
1238607.6772419836
20
433271.29321044026
10
1238606.928755776
20
433271.2622918364
10
1238606.1802695682
20
433271.2219099165
10
1238605.431783361
20
433271.17206468066
10
1238604.683297153
20
433271.1346111088
10
1238603.9348109453
20
433271.10954920086
10
1238603.1863247375
20
433271.096878957
10
1238602.4378385302
20
433271.0966003771
10
1238601.6893523224
20
433271.1192995913
10
1238600.9408661146
20
433271.1649765995
10
1238600.1923799068
20
433271.2336314019
10
1238599.4438936994
20
433271.3252639984
10
1238598.6954074916
20
433271.424497527
10
1238597.9469212838
20
433271.53133198776
10
1238597.198435076
20
433271.64576738066
10
1238596.4499488687
20
433271.7678037057
10
1238595.701462661
20
433271.8815308595
10
1238594.9529764534
20
433271.98694884195
10
1238594.2044902458
20
433272.08405765315
10
1238593.456004038
20
433272.1728572931
10
1238592.7075178302
20
433272.23553712183
10
1238591.9590316224
20
433272.27209713944
10
1238591.2105454148
20
433272.2825373459
10
1238590.4620592075
20
433272.26685774117
10
1238589.713573
20
433272.21219809866
10
1238588.9650867921
20
433272.11855841824
10
1238588.2166005843
20
433271.98593870003
10
1238587.4681143765
20
433271.81433894404
10
1238586.780785211
20
433271.63257689
10
1238586.154613088
20
433271.44065253774
10
1238585.5895980068
20
433271.23856588756
10
1238585.085739968
20
433271.0263169392
10
1238584.6466893968
20
433270.84430082765
10
1238584.272446293
20
433270.6925175529
10
1238583.9630106566
20
433270.5709671149
10
1238583.7183824875
20
433270.47964951355
10
1238583.347789809
20
433270.35893912124
10
1238582.851232621
20
433270.2088359379
10
1238582.2287109229
20
433270.02933996357
10
1238581.480224715
20
433269.82045119826
10
1238580.7317385073
20
433269.6421378269
10
1238579.9832523
20
433269.49439984956
10
1238579.2347660922
20
433269.3772372663
10
1238578.4862798846
20
433269.29065007705
10
1238577.737793677
20
433269.2544357696
10
1238576.9893074692
20
433269.2685943438
10
1238576.2408212614
20
433269.3331257997
10
1238575.492335054
20
433269.44803013746
10
1238574.747318686
20
433269.6021806953
10
1238574.005772158
20
433269.79557747324
10
1238573.2676954695
20
433270.02822047134
10
1238572.5330886212
20
433270.3001096895
10
1238571.978663645
20
433270.50575652363
10
1238571.6044205413
20
433270.64516097377
10
1238571.4103593098
20
433270.7183230398
10
1238571.3964799505
20
433270.7252427218
10
1238571.1989488793
20
433270.8181259511
10
1238570.8177660955
20
433270.9969727278
10
1238570.2529316
20
433271.2617830519
10
1238569.5044453926
20
433271.6125569233
10
1238568.7559591848
20
433271.91259084904
10
1238568.007472977
20
433272.16188482917
10
1238567.2589867692
20
433272.36043886363
10
1238566.510500562
20
433272.5082529524
10
1238565.762014354
20
433272.57919473335
10
1238565.0135281463
20
433272.5732642064
10
1238564.2650419388
20
433272.4904613716
10
1238563.5165557312
20
433272.3307862289
10
1238562.7680695234
20
433272.15631312237
10
1238562.019583316
20
433271.9670420521
10
1238561.2710971083
20
433271.7629730181
10
1238560.5226109005
20
433271.5441060202
10
1238559.7741246927
20
433271.3631454311
10
1238559.0256384849
20
433271.2200912507
10
1238558.2771522773
20
433271.114943479
10
1238557.52866607
20
433271.04770211614
10
1238556.7801798624
20
433271.0425507433
10
1238556.0316936546
20
433271.0994893607
10
1238555.2832074468
20
433271.21851796826
10
1238554.534721239
20
433271.39963656594
10
1238553.7862350312
20
433271.54179318866
10
1238553.0377488234
20
433271.64498783625
10
1238552.2892626158
20
433271.70922050887
10
1238551.5407764085
20
433271.7344912065
10
1238550.7951402937
20
433271.6869158712
10
1238550.0523542718
20
433271.566494503
10
1238549.3124183428
20
433271.37322710187
10
1238548.5753325068
20
433271.10711366776
10
1238548.019668037
20
433270.90654662973
10
1238547.6454249332
20
433270.77152598766
10
1238547.4526031953
20
433270.70205174154
10
1238547.4412028235
20
433270.6981238914
10
1238547.245530993
20
433270.6642500404
10
1238546.8655877034
20
433270.6004301887
10
1238546.3013729546
20
433270.5066643362
10
1238545.5528867473
20
433270.3829524828
10
1238544.8044005395
20
433270.27478863753
10
1238544.0559143317
20
433270.1821728004
10
1238543.307428124
20
433270.1051049713
10
1238542.5589419166
20
433270.04358515027
10
1238541.8104557088
20
433270.0071789935
10
1238541.061969501
20
433269.9958865009
10
1238540.3134832932
20
433270.00970767264
10
1238539.5649970858
20
433270.0486425085
10
1238539.00363243
20
433270.07784363546
10
1238538.629389326
20
433270.0973110533
10
1238538.4422677741
20
433270.10704476235
0
LWPOLYLINE
5
36
330
C
100
AcDbEntity
8
C-TOPO-MAJR-E
100
AcDbPolyline
90
123
70
0
43
0
38
0
39
0
10
1238806.9399165874
20
433321.27031291125
10
1238806.3016592884
20
433321.40419000207
10
1238805.795409087
20
433321.5097019903
10
1238805.4211659832
20
433321.586848876
10
1238805.178929977
20
433321.635630659
10
1238805.0687010682
20
433321.65604733943
10
1238804.975406717
20
433321.6662556797
10
1238804.8990469235
20
433321.6662556797
10
1238804.839621688
20
433321.65604733943
10
1238804.7971310106
20
433321.635630659
10
1238804.58876412
20
433321.566832574
10
1238804.214521016
20
433321.4496530845
10
1238803.674401699
20
433321.2840921905
10
1238802.9684061687
20
433321.07014989195
10
1238802.2517879694
20
433320.8542836818
10
1238801.5245471005
20
433320.6364935599
10
1238800.7866835622
20
433320.4167795265
10
1238800.0381973549
20
433320.1951415814
10
1238799.289711147
20
433320.03122537374
10
1238798.5412249393
20
433319.92503090354
10
1238797.7927387317
20
433319.87655817065
10
1238797.0442525242
20
433319.8858071753
10
1238796.2957663164
20
433319.9913219271
10
1238795.547280109
20
433320.1931024261
10
1238794.7987939012
20
433320.4911486723
10
1238794.0503076934
20
433320.88546066574
10
1238793.476839878
20
433321.1891994722
10
1238793.0783904546
20
433321.40236509184
10
1238792.8549594237
20
433321.5249575244
10
1238792.806546785
20
433321.55697676993
10
1238792.5952189136
20
433321.72321084375
10
1238792.2209758097
20
433322.02365974564
10
1238791.6838174735
20
433322.4583234757
10
1238790.9837439046
20
433323.0272020339
10
1238790.3934612703
20
433323.4987628649
10
1238789.912969571
20
433323.87300596875
10
1238789.5422688061
20
433324.1499313454
10
1238789.281358976
20
433324.3295389949
10
1238788.9637825089
20
433324.56631492573
10
1238788.589539405
20
433324.860259138
10
1238788.1586296645
20
433325.21137163165
10
1238787.6710532869
20
433325.6196524067
10
1238787.2281335047
20
433326.0109143462
10
1238786.8298703178
20
433326.38515745
10
1238786.4762637266
20
433326.7423817182
10
1238786.1673137303
20
433327.08258715086
10
1238785.850263684
20
433327.5248627772
10
1238785.5251135873
20
433328.06920859724
10
1238785.19186344
20
433328.7156246111
10
1238784.8505132427
20
433329.4641108189
10
1238784.5970828845
20
433330.2125970266
10
1238784.431572366
20
433330.9610832342
10
1238784.353981687
20
433331.70956944185
10
1238784.3643108474
20
433332.45805564953
10
1238784.3866974479
20
433333.2065418572
10
1238784.4211414882
20
433333.95502806484
10
1238784.4676429685
20
433334.7035142725
10
1238784.5262018887
20
433335.4520004802
10
1238784.5283525551
20
433336.16321411787
10
1238784.474094968
20
433336.8371551855
10
1238784.3634291268
20
433337.47382368316
10
1238784.196355032
20
433338.0732196108
10
1238784.059790732
20
433338.5600391265
10
1238783.9537362272
20
433338.93428223033
10
1238783.8781915174
20
433339.1959489223
10
1238783.8331566025
20
433339.34503920237
10
1238783.6887111343
20
433339.64397846436
10
1238783.4448551121
20
433340.0927667081
10
1238783.1015885368
20
433340.6914039339
10
1238782.658911408
20
433341.43989014154
10
1238782.2617100202
20
433342.07787815307
10
1238781.909984374
20
433342.6053679687
10
1238781.6037344688
20
433343.02235958807
10
1238781.342960305
20
433343.32885301136
10
1238780.9602581302
20
433343.57448864647
10
1238780.4556279443
20
433343.7592664934
10
1238779.8290697476
20
433343.883186552
10
1238779.0805835403
20
433343.9462488224
10
1238778.3791855937
20
433343.9011566017
10
1238777.7248759083
20
433343.74790989
10
1238777.117654484
20
433343.4865086874
10
1238776.5575213206
20
433343.1169529936
10
1238776.0903331873
20
433342.781841923
10
1238775.7160900836
20
433342.48117547575
10
1238775.4347920092
20
433342.21495365154
10
1238775.2464389647
20
433341.9831764505
10
1238774.918052629
20
433341.68632733845
10
1238774.4496330032
20
433341.3244063156
10
1238773.8411800861
20
433340.8974133817
10
1238773.0926938788
20
433340.4053485369
10
1238772.455521407
20
433340.0301388628
10
1238771.9296626714
20
433339.7717843596
10
1238771.5151176718
20
433339.630285027
10
1238771.2118864083
20
433339.60564086516
10
1238770.8731492246
20
433339.57320109126
10
1238770.4989061207
20
433339.53296570515
10
1238770.0891570966
20
433339.4849347069
10
1238769.6439021523
20
433339.4291080966
10
1238769.2581095058
20
433339.40119479137
10
1238768.9317791567
20
433339.40119479137
10
1238768.6649111048
20
433339.4291080966
10
1238768.4575053502
20
433339.4849347069
10
1238768.166680921
20
433339.5798382163
10
1238767.7924378174
20
433339.7138186248
10
1238767.3347760388
20
433339.8868759323
10
1238766.7936955858
20
433340.0990101389
10
1238766.2893820498
20
433340.3921987941
10
1238765.8218354308
20
433340.7664418979
10
1238765.3910557295
20
433341.22173945035
10
1238764.9970429451
20
433341.7580914515
10
1238764.6141480193
20
433342.34747700416
10
1238764.2423709517
20
433342.9898961086
10
1238763.8817117426
20
433343.68534876464
10
1238763.5321703919
20
433344.4338349722
10
1238763.2687813607
20
433345.00927277637
10
1238763.091544649
20
433345.41166217695
10
1238763.0004602568
20
433345.641003174
10
1238762.995528184
20
433345.69729576755
10
1238762.980282356
20
433345.91256361624
10
1238762.9547227724
20
433346.28680672
10
1238762.9188494333
20
433346.820025079
10
1238762.8726623384
20
433347.5122186932
10
1238762.8354203422
20
433348.2184854557
0
LWPOLYLINE
5
37
330
C
100
AcDbEntity
8
C-TOPO-MAJR-E
100
AcDbPolyline
90
118
70
0
43
0
38
0
39
0
10
1238781.4998238448
20
433113.8177590859
10
1238781.221620822
20
433114.3626589568
10
1238781.0305646344
20
433114.7369020606
10
1238780.926655281
20
433114.9404883974
10
1238780.9098927623
20
433114.973417967
10
1238780.793148681
20
433115.18523669615
10
1238780.5764230366
20
433115.5759445848
10
1238780.2597158297
20
433116.14554163296
10
1238779.84302706
20
433116.89402784064
10
1238779.451751753
20
433117.5158811544
10
1238779.0858899083
20
433118.01110157423
10
1238778.7454415264
20
433118.37968910014
10
1238778.4304066075
20
433118.6216437321
10
1238778.007008866
20
433118.9233826676
10
1238777.4752483026
20
433119.28490590653
10
1238776.8351249169
20
433119.70621344895
10
1238776.0866387095
20
433120.18730529485
10
1238775.5208839811
20
433120.5544841117
10
1238775.1378607326
20
433120.8077498995
10
1238774.9375689633
20
433120.94710265833
10
1238774.9200086738
20
433120.97254238813
10
1238774.885421118
20
433121.1787437374
10
1238774.8338062963
20
433121.56570670614
10
1238774.7651642086
20
433122.13343129435
10
1238774.6794948545
20
433122.88191750203
10
1238774.6410502503
20
433123.5081188415
10
1238774.649830395
20
433124.0120353127
10
1238774.705835289
20
433124.3936669158
10
1238774.8090649326
20
433124.65301365085
10
1238774.941794879
20
433124.9698085702
10
1238775.1040251283
20
433125.344051674
10
1238775.2957556807
20
433125.7757429623
10
1238775.5169865354
20
433126.26488243503
10
1238775.784342407
20
433126.8188585915
10
1238776.097823295
20
433127.4376714317
10
1238776.4574291995
20
433128.12132095563
10
1238776.8631601208
20
433128.8698071633
10
1238777.1978394194
20
433129.4976820113
10
1238777.4614670957
20
433130.00494549953
10
1238777.6540431497
20
433130.3915976281
10
1238777.775567581
20
433130.657638397
10
1238777.984684465
20
433130.9777803334
10
1238778.2813938013
20
433131.35202343715
10
1238778.6656955902
20
433131.7803677084
10
1238779.1375898314
20
433132.2628131473
10
1238779.5482032995
20
433132.8117687783
10
1238779.8975359949
20
433133.4272346016
10
1238780.1855879172
20
433134.109210617
10
1238780.4123590665
20
433134.85769682465
10
1238780.5762798288
20
433135.6061830323
10
1238780.677350204
20
433136.35466924007
10
1238780.715570192
20
433137.10315544775
10
1238780.6909397931
20
433137.8516416553
10
1238780.6510789134
20
433138.600127863
10
1238780.5959875528
20
433139.3486140708
10
1238780.5256657114
20
433140.0971002784
10
1238780.4401133892
20
433140.84558648604
10
1238780.3870694418
20
433141.5940726937
10
1238780.366533869
20
433142.34255890135
10
1238780.3785066712
20
433143.09104510903
10
1238780.422987848
20
433143.8395313168
10
1238780.485229321
20
433144.4678051941
10
1238780.5652310902
20
433144.97586674086
10
1238780.6629931554
20
433145.3637159573
10
1238780.7785155172
20
433145.63135284337
10
1238780.9136908029
20
433145.95229283837
10
1238781.0685190125
20
433146.3265359422
10
1238781.2430001465
20
433146.75408215495
10
1238781.437134205
20
433147.23493147653
10
1238781.721322786
20
433147.7421852957
10
1238782.09556589
20
433148.27584361244
10
1238782.5598635164
20
433148.8359064267
10
1238783.1142156657
20
433149.4223737386
10
1238783.5890444834
20
433149.9027289465
10
1238783.984349969
20
433150.27697205025
10
1238784.300132123
20
433150.54510305007
10
1238784.5363909453
20
433150.7071219459
10
1238784.8416419083
20
433150.884678965
10
1238785.2158850122
20
433151.0777741074
10
1238785.659120257
20
433151.28640737315
10
1238786.1713476423
20
433151.5105787622
10
1238786.7426397332
20
433151.6625659626
10
1238787.3729965298
20
433151.74236897426
10
1238788.062418032
20
433151.7499877973
10
1238788.8109042398
20
433151.6854224317
10
1238789.5593904476
20
433151.6510418714
10
1238790.3078766554
20
433151.6468461165
10
1238791.056362863
20
433151.67283516703
10
1238791.8048490703
20
433151.729009023
10
1238792.5533352778
20
433151.861094499
10
1238793.3018214856
20
433152.06909159507
10
1238794.0503076934
20
433152.3530003113
10
1238794.7987939012
20
433152.7128206475
10
1238795.4205332668
20
433153.02590739774
10
1238795.9155257903
20
433153.29226056195
10
1238796.2837714716
20
433153.51188014005
10
1238796.5252703107
20
433153.68476613215
10
1238796.8279370079
20
433154.0015521782
10
1238797.191771563
20
433154.462238278
10
1238797.6167739755
20
433155.06682443176
10
1238798.1029442458
20
433155.81531063945
10
1238798.472776223
20
433156.40631448914
10
1238798.7262699073
20
433156.83983598073
10
1238798.8634252984
20
433157.1158751144
10
1238798.8842423963
20
433157.23443189
10
1238799.0869767717
20
433157.45185364503
10
1238799.4716284245
20
433157.7681403796
10
1238800.0381973549
20
433158.18329209357
10
1238800.7866835622
20
433158.697308787
10
1238801.53516977
20
433158.93907133944
10
1238802.2836559778
20
433158.9085797509
10
1238803.0321421856
20
433158.6058340213
10
1238803.780628393
20
433158.03083415073
10
1238804.5291146007
20
433157.6637897459
10
1238805.2776008085
20
433157.50470080687
10
1238806.0260870163
20
433157.55356733355
10
1238806.7745732237
20
433157.81038932595
10
1238807.3912827903
20
433158.11152847443
0
LWPOLYLINE
5
38
330
C
100
AcDbEntity
8
C-TOPO-MAJR-E
100
AcDbPolyline
90
49
70
0
43
0
38
0
39
0
10
1238786.5828029567
20
433182.62026361004
10
1238786.3448791143
20
433183.1255755368
10
1238786.1547191204
20
433183.6916810338
10
1238786.012322975
20
433184.3185801011
10
1238785.9176906783
20
433185.00627273857
10
1238785.8708222301
20
433185.75475894625
10
1238785.8777448304
20
433186.50324515393
10
1238785.9384584788
20
433187.25173136155
10
1238786.0529631758
20
433188.00021756924
10
1238786.2212589209
20
433188.7487037769
10
1238786.3766048662
20
433189.42026621243
10
1238786.5190010117
20
433190.0149048759
10
1238786.6484473571
20
433190.5326197671
10
1238786.7649439024
20
433190.97341088625
10
1238787.0394378633
20
433191.3516683113
10
1238787.4719292398
20
433191.66739204223
10
1238788.062418032
20
433191.9205820791
10
1238788.8109042398
20
433192.1112384219
10
1238789.4235853504
20
433192.09636881354
10
1238789.9004613638
20
433191.87597325386
10
1238790.24153228
20
433191.4500517432
10
1238790.4467980997
20
433190.8186042813
10
1238790.6573421692
20
433190.1578971329
10
1238790.873164489
20
433189.4679302982
10
1238791.094265059
20
433188.7487037769
10
1238791.3206438795
20
433188.00021756924
10
1238791.52196029
20
433187.25173136155
10
1238791.6982142907
20
433186.50324515393
10
1238791.8494058815
20
433185.75475894625
10
1238791.9755350624
20
433185.00627273857
10
1238791.9458540878
20
433184.2577865309
10
1238791.7603629578
20
433183.5093003233
10
1238791.4190616722
20
433182.76081411564
10
1238790.921950231
20
433182.01232790784
10
1238790.5339510553
20
433181.44581913884
10
1238790.2550641452
20
433181.06128780846
10
1238790.0852895002
20
433180.8587339168
10
1238790.0246271207
20
433180.83815746376
10
1238789.949137433
20
433180.8278692372
10
1238789.8588204365
20
433180.8278692372
10
1238789.753676132
20
433180.83815746376
10
1238789.6337045194
20
433180.8587339168
10
1238789.3865971612
20
433180.93495982676
10
1238789.0123540573
20
433181.0668351937
10
1238788.510975208
20
433181.2543600176
10
1238787.8824606128
20
433181.49753429857
10
1238787.351593706
20
433181.8062429909
10
1238786.9183744872
20
433182.1804860947
10
1238786.5828029567
20
433182.62026361004
0
LWPOLYLINE
5
39
330
C
100
AcDbEntity
8
C-TOPO-MAJR-E
100
AcDbPolyline
90
642
70
0
43
0
38
0
39
0
10
1238754.0269422869
20
433114.0489248218
10
1238754.0875835856
20
433114.3671740317
10
1238754.141775587
20
433114.6294293476
10
1238754.2716965862
20
433115.0132423864
10
1238754.477346582
20
433115.51861314825
10
1238754.7587255754
20
433116.14554163296
10
1238755.115833566
20
433116.89402784064
10
1238755.4679611127
20
433117.5704351312
10
1238755.8151082157
20
433118.1747635046
10
1238756.1572748749
20
433118.7070129608
10
1238756.4944610905
20
433119.16718349967
10
1238756.794139734
20
433119.5843903211
10
1238757.0563108057
20
433119.95863342495
10
1238757.2809743052
20
433120.28991281125
10
1238757.4681302328
20
433120.5782284799
10
1238757.7360632285
20
433120.9815867833
10
1238758.0847732923
20
433121.49998772144
10
1238758.514260424
20
433122.13343129435
10
1238759.0245246238
20
433122.88191750203
10
1238759.419989294
20
433123.6261074597
10
1238759.7006544338
20
433124.36600116745
10
1238759.866520044
20
433125.1015986252
10
1238759.917586124
20
433125.83289983304
10
1238759.9563413276
20
433126.3856719889
10
1238759.9827856547
20
433126.7599150927
10
1238759.996919105
20
433126.95562914456
10
1238759.9987416787
20
433126.9728141444
10
1238759.9996529657
20
433126.9865886909
10
1238759.9996529657
20
433126.99695278413
10
1238759.9987416787
20
433127.0039064241
10
1238759.996919105
20
433127.0074496107
10
1238759.9185377345
20
433127.1963427559
10
1238759.7635975676
20
433127.57058585976
10
1238759.5320986041
20
433128.1301789222
10
1238759.2240408438
20
433128.87512194325
10
1238758.9728720475
20
433129.62095076096
10
1238758.7785922152
20
433130.36766537523
10
1238758.6412013464
20
433131.1152657863
10
1238758.5606994415
20
433131.86375199404
10
1238758.537256698
20
433132.6122382017
10
1238758.5708731154
20
433133.36072440934
10
1238758.6615486941
20
433134.109210617
10
1238758.8092834335
20
433134.8576968247
10
1238758.9523086296
20
433135.6061830324
10
1238759.0906242821
20
433136.35466924007
10
1238759.224230391
20
433137.10315544775
10
1238759.3531269557
20
433137.8516416554
10
1238759.4472827017
20
433138.600127863
10
1238759.5066976282
20
433139.3486140708
10
1238759.5313717357
20
433140.0971002784
10
1238759.521305024
20
433140.84558648604
10
1238759.4897975288
20
433141.5940726937
10
1238759.436849251
20
433142.34255890135
10
1238759.3624601895
20
433143.09104510903
10
1238759.2666303455
20
433143.8395313168
10
1238759.2025743858
20
433144.58801752445
10
1238759.1702923104
20
433145.3365037321
10
1238759.1697841203
20
433146.08498993976
10
1238759.2010498145
20
433146.83347614744
10
1238759.2711388909
20
433147.4974620904
10
1238759.380051349
20
433148.0769477687
10
1238759.5277871892
20
433148.57193318225
10
1238759.7143464112
20
433148.9824183311
10
1238759.8876013346
20
433149.3747824575
10
1238760.047551959
20
433149.74902556126
10
1238760.1941982848
20
433150.1051476426
10
1238760.3275403117
20
433150.44314870145
10
1238760.5160575649
20
433150.88377104746
10
1238760.7597500447
20
433151.4270146807
10
1238761.0586177506
20
433152.07287960115
10
1238761.4126606826
20
433152.82136580884
10
1238761.743468194
20
433153.5481472622
10
1238762.0510402843
20
433154.2532239611
10
1238762.3353769537
20
433154.9365959058
10
1238762.5964782024
20
433155.5982630963
10
1238762.805983075
20
433156.1162182434
10
1238762.9638915714
20
433156.49046134716
10
1238763.0702036917
20
433156.72099240776
10
1238763.1249194364
20
433156.807811425
10
1238763.2399184816
20
433157.0600472399
10
1238763.4152008276
20
433157.4776998524
10
1238763.6507664747
20
433158.06076926243
10
1238763.9466154221
20
433158.8092554701
10
1238764.2637971495
20
433159.5577416778
10
1238764.6023116568
20
433160.3062278854
10
1238764.9621589435
20
433161.0547140931
10
1238765.34333901
20
433161.80320030084
10
1238765.633409422
20
433162.370157092
10
1238765.8323701797
20
433162.7555844667
10
1238765.9402212831
20
433162.95948242483
10
1238765.9569627321
20
433162.9818509665
10
1238766.0906598028
20
433163.1801567893
10
1238766.3413124946
20
433163.5543998931
10
1238766.7089208083
20
433164.10458027804
10
1238767.1934847434
20
433164.83069794404
10
1238767.6039487338
20
433165.56240774546
10
1238767.9403127795
20
433166.2997096823
10
1238768.2025768806
20
433167.04260375455
10
1238768.3907410367
20
433167.7910899622
10
1238768.5387385506
20
433168.5395761698
10
1238768.6465694224
20
433169.2880623776
10
1238768.714233652
20
433170.0365485852
10
1238768.7417312395
20
433170.78503479285
10
1238768.7641739366
20
433171.5335210005
10
1238768.781561744
20
433172.28200720815
10
1238768.7938946611
20
433173.03049341583
10
1238768.8011726881
20
433173.7789796236
10
1238768.7629208525
20
433174.52746583126
10
1238768.6791391543
20
433175.2759520389
10
1238768.5498275931
20
433176.02443824656
10
1238768.3749861694
20
433176.77292445424
10
1238768.1273985498
20
433177.5214106619
10
1238767.807064735
20
433178.26989686955
10
1238767.4139847246
20
433179.01838307723
10
1238766.9481585184
20
433179.7668692849
10
1238766.582079845
20
433180.3612083658
10
1238766.315748704
20
433180.8014003199
10
1238766.1491650955
20
433181.08744514734
10
1238766.0823290197
20
433181.2193428481
10
1238765.9574293601
20
433181.47241325036
10
1238765.7744661174
20
433181.84665635414
10
1238765.5334392912
20
433182.3420721596
10
1238765.2343488815
20
433182.9586606666
10
1238765.0154436608
20
433183.6082235988
10
1238764.876723629
20
433184.29076095606
10
1238764.8181887865
20
433185.00627273857
10
1238764.8398391327
20
433185.75475894625
10
1238764.8927224984
20
433186.50324515393
10
1238764.9768388832
20
433187.25173136155
10
1238765.0921882875
20
433188.00021756924
10
1238765.2387707108
20
433188.7487037769
10
1238765.3756997357
20
433189.4971899846
10
1238765.5029753614
20
433190.2456761922
10
1238765.6205975888
20
433190.9941623999
10
1238765.7285664175
20
433191.74264860764
10
1238765.8148870359
20
433192.4911348153
10
1238765.879559444
20
433193.23962102295
10
1238765.922583642
20
433193.98810723063
10
1238765.9439596296
20
433194.73659343825
10
1238765.9603698265
20
433195.4414767199
10
1238765.9718142324
20
433196.1027570757
10
1238765.978292847
20
433196.7204345054
10
1238765.9798056702
20
433197.29450900917
10
1238765.9810803987
20
433197.768667813
10
1238765.9821170322
20
433198.14291091677
10
1238765.9829155703
20
433198.4172383207
10
1238765.9834760136
20
433198.59165002464
10
1238765.983756235
20
433198.72362495644
10
1238765.983756235
20
433198.8131631161
10
1238765.9834760136
20
433198.86026450375
10
1238765.9829155705
20
433198.86492911924
10
1238765.9611888444
20
433199.05438297894
10
1238765.9182958356
20
433199.4286260827
10
1238765.8542365436
20
433199.9876584307
10
1238765.769010969
20
433200.7314800229
10
1238765.679012614
20
433201.47646776895
10
1238765.5842414792
20
433202.2226216688
10
1238765.484697564
20
433202.96994172264
10
1238765.3803808687
20
433203.7184279304
10
1238765.2850659136
20
433204.46691413806
10
1238765.198752699
20
433205.2154003457
10
1238765.1214412241
20
433205.96388655336
10
1238765.0531314898
20
433206.71237276105
10
1238764.9731781825
20
433207.4608589687
10
1238764.8815813023
20
433208.20934517635
10
1238764.7783408496
20
433208.95783138403
10
1238764.6634568237
20
433209.7063175917
10
1238764.5071215471
20
433210.4548037994
10
1238764.3093350194
20
433211.20329000696
10
1238764.0700972406
20
433211.95177621464
10
1238763.7894082107
20
433212.7002624223
10
1238763.5551261515
20
433213.3079595751
10
1238763.3672510628
20
433213.77486767294
10
1238763.2257829444
20
433214.1009867159
10
1238763.1307217968
20
433214.28631670395
10
1238762.9640953224
20
433214.5661032499
10
1238762.7259035208
20
433214.9403463537
10
1238762.4161463927
20
433215.40904601547
10
1238762.0348239376
20
433215.9722022351
10
1238761.657041158
20
433216.49835380376
10
1238761.2827980542
20
433216.9875007216
10
1238760.9120946259
20
433217.43964298844
10
1238760.5449308732
20
433217.85478060436
10
1238760.1176415116
20
433218.2494709643
10
1238759.630226541
20
433218.62371406815
10
1238759.0826859616
20
433218.97750991595
10
1238758.4750197732
20
433219.31085850764
10
1238757.984065127
20
433219.5997329487
10
1238757.6098220232
20
433219.84413323924
10
1238757.3522904618
20
433220.04405937914
10
1238757.2114704424
20
433220.1995113685
10
1238756.9540063036
20
433220.4643589151
10
1238756.5798980445
20
433220.8386020189
10
1238756.0891456658
20
433221.32224068
10
1238755.481749167
20
433221.9152748984
10
1238754.9909293656
20
433222.47802815266
10
1238754.616686262
20
433223.0105004429
10
1238754.3590198555
20
433223.51269176905
10
1238754.2179301467
20
433223.9846021311
10
1238754.0970866296
20
433224.4076788641
10
1238753.9964893046
20
433224.78192196786
10
1238753.9161381712
20
433225.1073314426
10
1238753.8560332302
20
433225.3839072882
10
1238753.789399388
20
433225.7784607243
10
1238753.7162366447
20
433226.29099175095
10
1238753.6365450006
20
433226.9215003681
10
1238753.5503244558
20
433227.6699865757
10
1238753.4552667118
20
433228.4184727834
10
1238753.3513717684
20
433229.1669589911
10
1238753.238639626
20
433229.91544519877
10
1238753.1170702842
20
433230.66393140645
10
1238752.9820226263
20
433231.41241761413
10
1238752.8334966518
20
433232.16090382176
10
1238752.6714923612
20
433232.90939002944
10
1238752.4960097542
20
433233.6578762372
10
1238752.323359455
20
433234.40636244486
10
1238752.153541464
20
433235.1548486525
10
1238751.9865557803
20
433235.90333486017
10
1238751.8224024046
20
433236.65182106785
10
1238751.6640485236
20
433237.3812017142
10
1238751.5114941369
20
433238.0914767993
10
1238751.3647392453
20
433238.78264632303
10
1238751.223783848
20
433239.45471028547
10
1238751.114230339
20
433239.97786381864
10
1238751.0360787178
20
433240.3521069225
10
1238750.9893289844
20
433240.577439597
10
1238750.973981139
20
433240.6538618421
10
1238750.8922526645
20
433240.898300078
10
1238750.744143561
20
433241.3107543044
10
1238750.5296538286
20
433241.89122452145
10
1238750.248783467
20
433242.6397107291
10
1238749.9250636958
20
433243.3435833671
10
1238749.5584945148
20
433244.00284243544
10
1238749.149075924
20
433244.61748793407
10
1238748.6968079228
20
433245.187519863
10
1238748.326955525
20
433245.6596573794
10
1238748.0395187298
20
433246.0339004832
10
1238747.8344975375
20
433246.3102491745
10
1238747.711891948
20
433246.4887034532
10
1238747.4901203492
20
433246.8096657142
10
1238747.169182741
20
433247.2731359574
10
1238746.7490791238
20
433247.87911418284
10
1238746.2298094977
20
433248.6276003905
10
1238745.8137045298
20
433249.2418254786
10
1238745.5007642207
20
433249.72178944724
10
1238745.2909885703
20
433250.0674922963
10
1238745.1843775786
20
433250.2789340258
10
1238745.0513421486
20
433250.57177644246
10
1238744.89188228
20
433250.9460195463
10
1238744.7059979732
20
433251.4016633373
10
1238744.4936892278
20
433251.9387078155
10
1238744.3236103554
20
433252.528612726
10
1238744.1957613553
20
433253.1713780689
10
1238744.1101422277
20
433253.86700384424
10
1238744.066752973
20
433254.61549005186
10
1238743.9581772669
20
433255.3639762595
10
1238743.78441511
20
433256.1124624673
10
1238743.545466502
20
433256.8609486749
10
1238743.2413314425
20
433257.6094348825
10
1238742.966066861
20
433258.3076765901
10
1238742.7196727574
20
433258.9556737975
10
1238742.5021491311
20
433259.55342650483
10
1238742.313495983
20
433260.10093471204
10
1238742.1562701715
20
433260.5618103675
10
1238742.030471698
20
433260.93605347135
10
1238741.9361005612
20
433261.22366402356
10
1238741.873156762
20
433261.424642024
10
1238741.6545633106
20
433261.66298343474
10
1238741.2803202067
20
433261.93868825585
10
1238740.7504274505
20
433262.25175648706
10
1238740.0648850421
20
433262.6021881285
10
1238739.363606684
20
433262.9342573971
10
1238738.6465923758
20
433263.24796429265
10
1238737.913842118
20
433263.5433088152
10
1238737.1653559108
20
433263.8202909647
10
1238736.5211184004
20
433264.05829568097
10
1238735.9811295872
20
433264.257322964
10
1238735.5453894713
20
433264.4173728139
10
1238735.2138980527
20
433264.5384452306
10
1238734.8610307914
20
433264.6554062692
10
1238734.4867876878
20
433264.7682559297
10
1238734.0911687412
20
433264.8769942122
10
1238733.674173952
20
433264.98162111675
10
1238733.1743063084
20
433265.0945683635
10
1238732.5915658097
20
433265.2158359526
10
1238731.9259524567
20
433265.34542388393
10
1238731.1774662493
20
433265.48333215754
10
1238730.4289800418
20
433265.61215686623
10
1238729.680493834
20
433265.73189801
10
1238728.9320076262
20
433265.84255558887
10
1238728.1835214184
20
433265.94412960287
10
1238727.4350352106
20
433266.06376915576
10
1238726.6865490032
20
433266.2014742478
10
1238725.9380627954
20
433266.35724487883
10
1238725.1895765879
20
433266.5310810489
10
1238724.472115256
20
433266.7190933878
10
1238723.7856787995
20
433266.9212818956
10
1238723.1302672187
20
433267.13764657226
10
1238722.5058805137
20
433267.3681874178
10
1238722.006565609
20
433267.55025951436
10
1238721.6323225051
20
433267.68386286194
10
1238721.383151202
20
433267.7689974606
10
1238721.2590516997
20
433267.8056633102
10
1238720.9788555207
20
433267.8980929237
10
1238720.5425626654
20
433268.0462863011
10
1238719.950173134
20
433268.25024344237
10
1238719.2016869267
20
433268.50996434747
10
1238718.4532007189
20
433268.76916075224
10
1238717.704714511
20
433269.02783265663
10
1238716.9562283033
20
433269.2859800607
10
1238716.207742096
20
433269.5436029643
10
1238715.5128249463
20
433269.7854392794
10
1238714.8714768547
20
433270.0114890058
10
1238714.2836978212
20
433270.22175214364
10
1238713.7494878462
20
433270.41622869286
10
1238713.2952613067
20
433270.58091583103
10
1238712.9210182028
20
433270.715813558
10
1238712.6267585345
20
433270.8209218739
10
1238712.4124823022
20
433270.8962407788
10
1238712.064653576
20
433271.007229151
10
1238711.5832723558
20
433271.1538869906
10
1238710.968338642
20
433271.3362142977
10
1238710.2198524345
20
433271.55421107216
10
1238709.4713662267
20
433271.75379563076
10
1238708.7228800193
20
433271.9349679736
10
1238707.9743938115
20
433272.09772810066
10
1238707.2259076037
20
433272.24207601184
10
1238706.477421396
20
433272.3749053974
10
1238705.7289351881
20
433272.4962162574
10
1238704.9804489806
20
433272.60600859177
10
1238704.2319627733
20
433272.7042824005
10
1238703.4834765657
20
433272.7979454024
10
1238702.734990358
20
433272.8869975974
10
1238701.98650415
20
433272.97143898555
10
1238701.2380179423
20
433273.0512695668
10
1238700.4895317345
20
433273.1250889878
10
1238699.7410455267
20
433273.19289724843
10
1238698.9925593191
20
433273.2546943489
10
1238698.2440731118
20
433273.31048028904
10
1238697.4955869042
20
433273.3567688104
10
1238696.7471006964
20
433273.39355991303
10
1238695.9986144886
20
433273.4208535969
10
1238695.2501282808
20
433273.43864986196
10
1238694.5016420733
20
433273.45168069686
10
1238693.7531558657
20
433273.4599461017
10
1238693.004669658
20
433273.4634460763
10
1238692.2561834506
20
433273.4621806207
10
1238691.5076972428
20
433273.4693577508
10
1238690.759211035
20
433273.4849774665
10
1238690.0107248272
20
433273.50903976784
10
1238689.2622386198
20
433273.5415446548
10
1238688.6804804334
20
433273.57289746765
10
1238688.265450268
20
433273.6030982064
10
1238688.017148124
20
433273.63214687107
10
1238687.9355740016
20
433273.6600434616
10
1238687.7076653885
20
433273.7362127416
10
1238687.3334222846
20
433273.86065471114
10
1238686.8128446902
20
433274.03336937015
10
1238686.145932605
20
433274.2543567186
10
1238685.4586269893
20
433274.5149227353
10
1238684.750927843
20
433274.8150674202
10
1238684.0228351657
20
433275.1547907733
10
1238683.2743489584
20
433275.53409279464
10
1238682.5382388465
20
433275.85561852006
10
1238681.8145048302
20
433276.1193679496
10
1238681.1031469097
20
433276.32534108334
10
1238680.4041650854
20
433276.47353792127
10
1238679.8675526213
20
433276.58716055343
10
1238679.4933095174
20
433276.66620897985
10
1238679.281435774
20
433276.71068320057
10
1238679.2319313907
20
433276.72058321553
10
1238679.1424809676
20
433276.725533223
10
1238679.0130845038
20
433276.725533223
10
1238678.843742
20
433276.72058321553
10
1238678.6344534555
20
433276.71068320057
10
1238678.3426876315
20
433276.69743888604
10
1238677.9684445276
20
433276.68085027183
10
1238677.511724144
20
433276.6609173581
10
1238676.9725264807
20
433276.6376401448
10
1238676.3810066814
20
433276.58166489867
10
1238675.7371647456
20
433276.49299161986
10
1238675.041000674
20
433276.3716203083
10
1238674.2925144662
20
433276.217550964
10
1238673.5440282584
20
433276.03468231205
10
1238672.7955420506
20
433275.8230143524
10
1238672.047055843
20
433275.5825470851
10
1238671.2985696357
20
433275.31328051025
10
1238670.5975503365
20
433275.03586231027
10
1238669.9439979459
20
433274.75029248535
10
1238669.3379124638
20
433274.45657103526
10
1238668.7792938903
20
433274.15469796007
10
1238668.312863052
20
433273.8983776311
10
1238667.938619948
20
433273.6876100483
10
1238667.6565645789
20
433273.5223952115
10
1238667.4666969446
20
433273.40273312095
10
1238667.1371746669
20
433273.1878404673
10
1238666.6679977463
20
433272.8777172506
10
1238666.0591661818
20
433272.472363471
10
1238665.3106799743
20
433271.9717791283
10
1238664.6992837363
20
433271.5642809277
10
1238664.2249774684
20
433271.2498688692
10
1238663.88776117
20
433271.0285429527
10
1238663.687634842
20
433270.90030317835
10
1238663.4004501258
20
433270.6998051792
10
1238663.026207022
20
433270.4270489553
10
1238662.5649055303
20
433270.0820345066
10
1238662.016545651
20
433269.66476183326
10
1238661.4999753379
20
433269.26900394465
10
1238661.015194591
20
433268.8947608408
10
1238660.56220341
20
433268.54203252174
10
1238660.141001795
20
433268.2108189875
10
1238659.7432794357
20
433267.87118109537
10
1238659.3690363318
20
433267.5231188454
10
1238659.0182724835
20
433267.1666322375
10
1238658.6909878908
20
433266.8017212717
10
1238658.3549578083
20
433266.4321442369
10
1238658.0101822359
20
433266.0579011331
10
1238657.656661174
20
433265.6789919602
10
1238657.2943946228
20
433265.2954167183
10
1238656.9261397952
20
433264.87995630613
10
1238656.5518966913
20
433264.43261072366
10
1238656.1716653113
20
433263.953379971
10
1238655.7854456548
20
433263.44226404803
10
1238655.437600985
20
433262.9995845347
10
1238655.1281313014
20
433262.6253414309
10
1238654.857036604
20
433262.31953473657
10
1238654.6243168933
20
433262.08216445183
10
1238654.320835486
20
433261.7498107361
10
1238653.9465923822
20
433261.32247358933
10
1238653.5015875818
20
433260.8001530116
10
1238652.985821085
20
433260.1828490028
10
1238652.5608718619
20
433259.68707544653
10
1238652.2267399128
20
433259.3128323427
10
1238651.9834252368
20
433259.06011969136
10
1238651.8309278348
20
433258.92893749237
10
1238651.5675575817
20
433258.6579415353
10
1238651.1933144778
20
433258.24713182
10
1238650.7081985231
20
433257.69650834653
10
1238650.1122097177
20
433257.00607111485
10
1238649.6460749032
20
433256.47373094707
10
1238649.309794079
20
433256.0994878433
10
1238649.1033672462
20
433255.88334180333
10
1238649.0267944038
20
433255.8252928274
10
1238648.8013864309
20
433255.65452972875
10
1238648.427143327
20
433255.3710525074
10
1238647.9040650923
20
433254.97486116353
10
1238647.232151727
20
433254.46595569694
10
1238646.612007001
20
433254.0243814117
10
1238646.0436309145
20
433253.65013830794
10
1238645.5270234677
20
433253.3432263855
10
1238645.0621846605
20
433253.1036456444
10
1238644.642643705
20
433252.89591099665
10
1238644.268400601
20
433252.7200224423
10
1238643.939455349
20
433252.57597998134
10
1238643.6558079487
20
433252.46378361376
10
1238643.2559508465
20
433252.31709841726
10
1238642.7398840424
20
433252.1359243919
10
1238642.1076075365
20
433251.9202615376
10
1238641.3591213287
20
433251.67010985437
10
1238640.610635121
20
433251.4015484047
10
1238639.862148913
20
433251.1145771886
10
1238639.1136627055
20
433250.80919620604
10
1238638.3651764982
20
433250.4854054571
10
1238637.7727790102
20
433250.22697554337
10
1238637.3364702421
20
433250.0339064648
10
1238637.0562501939
20
433249.90619822167
10
1238636.9321188654
20
433249.8438508138
10
1238636.6829316495
20
433249.70680582337
10
1238636.3086885456
20
433249.4950632504
10
1238635.809389554
20
433249.2086230949
10
1238635.1850346746
20
433248.8474853568
10
1238634.5483317343
20
433248.4797949358
10
1238633.899280733
20
433248.105551832
10
1238633.2378816707
20
433247.72475604527
10
1238632.564134547
20
433247.3374075757
10
1238632.0401394335
20
433247.0335121543
10
1238631.6658963296
20
433246.81306978106
10
1238631.4414052356
20
433246.676080456
10
1238631.3666661514
20
433246.62254417915
10
1238631.1234902865
20
433246.5085863413
10
1238630.7118776403
20
433246.33420694224
10
1238630.1318282136
20
433246.0994059823
10
1238629.3833420062
20
433245.80418346135
10
1238628.6348557984
20
433245.57844084996
10
1238627.8863695906
20
433245.4221781483
10
1238627.1378833828
20
433245.33539535623
10
1238626.3893971755
20
433245.3180924738
10
1238625.6409109677
20
433245.3168309141
10
1238624.89242476
20
433245.3316106771
10
1238624.1439385521
20
433245.36243176286
10
1238623.3954523448
20
433245.40929417126
10
1238622.646966137
20
433245.4328574508
10
1238621.8984799294
20
433245.43312160124
10
1238621.1499937219
20
433245.41008662275
10
1238620.401507514
20
433245.3637525153
10
1238619.6530213063
20
433245.3337596796
10
1238618.9045350985
20
433245.3201081155
10
1238618.156048891
20
433245.3227978232
10
1238617.4075626836
20
433245.34182880266
10
1238616.659076476
20
433245.33426009765
10
1238615.9105902682
20
433245.3000917082
10
1238615.1621040604
20
433245.23932363436
10
1238614.4136178526
20
433245.15195587603
10
1238613.6651316448
20
433245.04459777
10
1238612.916645437
20
433244.91724931623
10
1238612.1681592294
20
433244.7699105147
10
1238611.419673022
20
433244.6025813654
10
1238610.6711868146
20
433244.4745271625
10
1238609.9227006068
20
433244.38574790605
10
1238609.174214399
20
433244.33624359604
10
1238608.4257281912
20
433244.3260142325
10
1238607.6772419836
20
433244.3409748137
10
1238606.928755776
20
433244.3811253398
10
1238606.1802695682
20
433244.4464658106
10
1238605.431783361
20
433244.53699622623
10
1238604.683297153
20
433244.62091062294
10
1238603.9348109453
20
433244.69820900075
10
1238603.1863247375
20
433244.76889135956
10
1238602.4378385302
20
433244.83295769943
10
1238601.6893523224
20
433244.90650926944
10
1238600.9408661146
20
433244.9895460695
10
1238600.1923799068
20
433245.08206809976
10
1238599.4438936994
20
433245.1840753601
10
1238598.6954074916
20
433245.3031883294
10
1238597.9469212838
20
433245.43940700754
10
1238597.198435076
20
433245.5927313945
10
1238596.4499488687
20
433245.76316149044
10
1238595.701462661
20
433245.93065611244
10
1238594.9529764534
20
433246.09521526063
10
1238594.2044902458
20
433246.25683893496
10
1238593.456004038
20
433246.4155271354
10
1238592.8630593666
20
433246.5409698755
10
1238592.4256562316
20
433246.63316715515
10
1238592.143794633
20
433246.69211897434
10
1238592.0174745708
20
433246.7178253331
10
1238591.7671929875
20
433246.81067854987
10
1238591.3929498836
20
433246.97067862464
10
1238590.894745259
20
433247.19782555744
10
1238590.2725791137
20
433247.49211934814
10
1238589.6188329528
20
433247.64256494684
10
1238588.9335067766
20
433247.6491623535
10
1238588.2166005843
20
433247.51191156806
10
1238587.4681143765
20
433247.2308125905
10
1238586.8988154882
20
433247.0166896541
10
1238586.5087039191
20
433246.8695427587
10
1238586.2977796695
20
433246.78937190433
10
1238586.2660427392
20
433246.7761770912
10
1238586.063052722
20
433246.716417711
10
1238585.6888096181
20
433246.6100937638
10
1238585.1433134277
20
433246.4572052498
10
1238584.4265641503
20
433246.2577521688
10
1238583.7018806404
20
433246.11963062885
10
1238582.969262898
20
433246.04284063005
10
1238582.2287109229
20
433246.0273821723
10
1238581.480224715
20
433246.0732552556
10
1238580.7980361634
20
433246.1460550675
10
1238580.182145268
20
433246.2457816079
10
1238579.6325520286
20
433246.37243487703
10
1238579.149256445
20
433246.52601487475
10
1238578.7204871015
20
433246.66882215906
10
1238578.3462439976
20
433246.80085672985
10
1238578.0265271335
20
433246.9221185873
10
1238577.7613365094
20
433247.0326077314
10
1238577.3753219894
20
433247.20393645763
10
1238576.8684835732
20
433247.436104766
10
1238576.2408212614
20
433247.72911265655
10
1238575.492335054
20
433248.08296012937
10
1238574.8445700484
20
433248.41938313167
10
1238574.297526245
20
433248.73838166345
10
1238573.8512036437
20
433249.03995572485
10
1238573.5056022443
20
433249.3241053157
10
1238573.1456799926
20
433249.68737743085
10
1238572.7714368887
20
433250.12977207033
10
1238572.3828729326
20
433250.65128923405
10
1238571.9799881242
20
433251.251928922
10
1238571.657979781
20
433251.73937031796
10
1238571.4168479033
20
433252.1136134218
10
1238571.2565924905
20
433252.3746582336
10
1238571.177213543
20
433252.52250475326
10
1238570.9504025173
20
433252.7711206409
10
1238570.5761594137
20
433253.1205058964
10
1238570.0544842316
20
433253.57066052
10
1238569.3853769712
20
433254.1215845115
10
1238568.7490602126
20
433254.5841680591
10
1238568.1455339552
20
433254.95841116295
10
1238567.5747981996
20
433255.244313823
10
1238567.0368529453
20
433255.44187603914
10
1238566.5807587663
20
433255.6021057592
10
1238566.2065156624
20
433255.7250029831
10
1238565.9141236339
20
433255.8105677109
10
1238565.7035826803
20
433255.85879994254
10
1238565.3585554135
20
433255.8857980035
10
1238564.8790418329
20
433255.891561894
10
1238564.2650419388
20
433255.8760916137
10
1238563.5165557312
20
433255.8393871628
10
1238562.945152364
20
433255.80897687946
10
1238562.5508318376
20
433255.78486076364
10
1238562.3335941515
20
433255.7670388153
10
1238562.2934393059
20
433255.75551103463
10
1238562.0862403312
20
433255.6509133417
10
1238561.7119972275
20
433255.4532457368
10
1238561.1707099946
20
433255.1625082197
10
1238560.4623786323
20
433254.77870079066
10
1238559.7440085586
20
433254.4381939025
10
1238559.0155997737
20
433254.14098755515
10
1238558.2771522773
20
433253.8870817488
10
1238557.52866607
20
433253.67647648335
10
1238556.7801798624
20
433253.5423991542
10
1238556.0316936546
20
433253.4848497615
10
1238555.2832074468
20
433253.50382830517
10
1238554.534721239
20
433253.59933478525
10
1238553.7862350312
20
433253.63739462564
10
1238553.0377488234
20
433253.6180078263
10
1238552.2892626158
20
433253.5411743873
10
1238551.5407764085
20
433253.40689430863
10
1238550.9042565462
20
433253.277359271
10
1238550.3797030293
20
433253.15256927436
10
1238549.9671158579
20
433253.03252431884
10
1238549.6664950314
20
433252.91722440446
10
1238549.3290630665
20
433252.782868307
10
1238548.9548199628
20
433252.62945602654
10
1238548.5437657202
20
433252.4569875632
10
1238548.0959003386
20
433252.26546291675
10
1238547.5728797505
20
433252.05440651707
10
1238546.974703956
20
433251.82381836406
10
1238546.3013729546
20
433251.5736984577
10
1238545.5528867473
20
433251.30404679803
10
1238544.8044005395
20
433251.036687138
10
1238544.0559143317
20
433250.77161947754
10
1238543.307428124
20
433250.5088438167
10
1238542.5589419166
20
433250.2483601554
10
1238541.9666189593
20
433250.0462908494
10
1238541.5304592524
20
433249.90263589856
10
1238541.250462796
20
433249.81739530293
10
1238541.1266295903
20
433249.79056906264
10
1238540.8775914353
20
433249.735707424
10
1238540.5033483314
20
433249.6528103871
10
1238540.0039002786
20
433249.541877952
10
1238539.3792472768
20
433249.40291011863
10
1238538.9107575254
20
433249.29868424364
10
1238538.5984310247
20
433249.22920032695
10
1238538.4422677741
20
433249.19445836864
0
LWPOLYLINE
5
3A
330
C
100
AcDbEntity
8
C-TOPO-MAJR-E
100
AcDbPolyline
90
17
70
0
43
0
38
0
39
0
10
1238768.9109437475
20
433246.67428352963
10
1238768.8675597552
20
433246.7071240663
10
1238768.8458677588
20
433246.7362050151
10
1238768.8458677588
20
433246.761526376
10
1238768.8675597552
20
433246.78308814904
10
1238768.9109437475
20
433246.8008903342
10
1238768.9475600054
20
433246.80979142676
10
1238768.977408528
20
433246.80979142676
10
1238769.0004893162
20
433246.8008903342
10
1238769.0168023696
20
433246.78308814904
10
1238769.0249588962
20
433246.761526376
10
1238769.0249588962
20
433246.7362050151
10
1238769.0168023696
20
433246.7071240663
10
1238769.0004893162
20
433246.67428352963
10
1238768.977408528
20
433246.6578632613
10
1238768.9475600054
20
433246.6578632613
10
1238768.9109437475
20
433246.67428352963
0
LWPOLYLINE
5
3B
330
C
100
AcDbEntity
8
C-TOPO-MAJR-E
100
AcDbPolyline
90
17
70
0
43
0
38
0
39
0
10
1238768.1885904288
20
433279.2537412291
10
1238767.663637557
20
433279.428155941
10
1238767.4011611212
20
433279.64779281657
10
1238767.4011611212
20
433279.91265185573
10
1238767.663637557
20
433280.2227330586
10
1238768.1885904288
20
433280.5780364251
10
1238768.6501861885
20
433280.7556881084
10
1238769.0484248358
20
433280.7556881084
10
1238769.3833063715
20
433280.5780364251
10
1238769.6548307948
20
433280.2227330586
10
1238769.7905930066
20
433279.91265185573
10
1238769.7905930066
20
433279.64779281657
10
1238769.6548307948
20
433279.428155941
10
1238769.3833063715
20
433279.2537412291
10
1238769.0484248358
20
433279.1665338732
10
1238768.6501861885
20
433279.1665338732
10
1238768.1885904288
20
433279.2537412291
0
LWPOLYLINE
5
3C
330
C
100
AcDbEntity
8
C-TOPO-MAJR-E
100
AcDbPolyline
90
600
70
0
43
0
38
0
39
0
10
1238737.6373626092
20
433113.90008300997
10
1238737.7519396958
20
433114.64856921765
10
1238737.8479063553
20
433115.3970554253
10
1238737.9252625876
20
433116.14554163296
10
1238737.9840083926
20
433116.89402784064
10
1238738.0252381628
20
433117.6425140483
10
1238738.048951899
20
433118.391000256
10
1238738.0551496004
20
433119.1394864637
10
1238738.0438312674
20
433119.88797267136
10
1238738.0265649424
20
433120.63645887905
10
1238738.0033506253
20
433121.38494508667
10
1238737.9741883161
20
433122.13343129435
10
1238737.9390780153
20
433122.88191750203
10
1238737.9049518523
20
433123.6304037097
10
1238737.871809828
20
433124.3788899173
10
1238737.8396519418
20
433125.12737612496
10
1238737.808478194
20
433125.87586233264
10
1238737.7895803757
20
433126.6243485403
10
1238737.7829584868
20
433127.37283474795
10
1238737.7886125275
20
433128.12132095563
10
1238737.8065424974
20
433128.8698071633
10
1238737.7994054374
20
433129.618293371
10
1238737.767201347
20
433130.3667795786
10
1238737.7099302267
20
433131.1152657863
10
1238737.627592076
20
433131.86375199404
10
1238737.5230380842
20
433132.6122382017
10
1238737.3962682514
20
433133.36072440934
10
1238737.2472825772
20
433134.109210617
10
1238737.076081062
20
433134.8576968247
10
1238736.9196088393
20
433135.6061830324
10
1238736.777865909
20
433136.35466924007
10
1238736.6508522711
20
433137.10315544775
10
1238736.5385679258
20
433137.8516416554
10
1238736.4374108743
20
433138.600127863
10
1238736.3473811173
20
433139.3486140708
10
1238736.268478654
20
433140.0971002784
10
1238736.200703485
20
433140.84558648604
10
1238736.1630578407
20
433141.5940726937
10
1238736.1555417208
20
433142.34255890135
10
1238736.178155126
20
433143.09104510903
10
1238736.2308980557
20
433143.8395313168
10
1238736.3551385757
20
433144.58801752445
10
1238736.550876685
20
433145.3365037321
10
1238736.8181123845
20
433146.08498993976
10
1238737.1568456742
20
433146.83347614744
10
1238737.496622255
20
433147.52226579614
10
1238737.8374421273
20
433148.15135888587
10
1238738.1793052913
20
433148.7207554166
10
1238738.5222117465
20
433149.2304553884
10
1238738.8195915811
20
433149.6724269262
10
1238739.0714447948
20
433150.04667003005
10
1238739.2777713875
20
433150.3531846999
10
1238739.4385713597
20
433150.5919709358
10
1238739.617748967
20
433150.9581821647
10
1238739.8153042092
20
433151.45181838644
10
1238740.0312370872
20
433152.07287960115
10
1238740.2655476
20
433152.82136580884
10
1238740.503887466
20
433153.5698520165
10
1238740.7462566842
20
433154.3183382241
10
1238740.9926552551
20
433155.06682443176
10
1238741.2430831785
20
433155.81531063945
10
1238741.4367645131
20
433156.5637968471
10
1238741.573699259
20
433157.31228305475
10
1238741.6538874158
20
433158.06076926243
10
1238741.6773289833
20
433158.8092554701
10
1238741.619459585
20
433159.5577416778
10
1238741.4802792207
20
433160.3062278854
10
1238741.2597878904
20
433161.0547140931
10
1238740.9579855937
20
433161.80320030084
10
1238740.6398394515
20
433162.5414587695
10
1238740.3053494634
20
433163.2694894992
10
1238739.9545156292
20
433163.98729248997
10
1238739.5873379495
20
433164.6948677417
10
1238739.3050533994
20
433165.2357769195
10
1238739.107661979
20
433165.6100200233
10
1238738.9951636884
20
433165.81759705325
10
1238738.9675585278
20
433165.8585080091
10
1238738.878559103
20
433166.076312778
10
1238738.7281654146
20
433166.4710113598
10
1238738.5163774623
20
433167.04260375455
10
1238738.2431952464
20
433167.7910899622
10
1238738.043482081
20
433168.5395761698
10
1238737.917237966
20
433169.2880623776
10
1238737.8644629018
20
433170.0365485852
10
1238737.8851568885
20
433170.78503479285
10
1238737.8798621092
20
433171.5335210005
10
1238737.848578564
20
433172.28200720815
10
1238737.7913062526
20
433173.03049341583
10
1238737.7080451758
20
433173.7789796236
10
1238737.5871864567
20
433174.52746583126
10
1238737.4287300953
20
433175.2759520389
10
1238737.232676092
20
433176.02443824656
10
1238736.9990244466
20
433176.77292445424
10
1238736.800003717
20
433177.5214106619
10
1238736.635613903
20
433178.26989686955
10
1238736.5058550048
20
433179.01838307723
10
1238736.4107270222
20
433179.7668692849
10
1238736.3340958622
20
433180.5153554926
10
1238736.2759615243
20
433181.26384170016
10
1238736.236324009
20
433182.01232790784
10
1238736.2151833163
20
433182.76081411564
10
1238736.193393993
20
433183.5093003233
10
1238736.1709560389
20
433184.2577865309
10
1238736.1478694545
20
433185.00627273857
10
1238736.124134239
20
433185.75475894625
10
1238736.1034637766
20
433186.4030224267
10
1238736.085858067
20
433186.95106317993
10
1238736.07131711
20
433187.39888120594
10
1238736.0598409057
20
433187.7464765047
10
1238736.0464209057
20
433188.10739570606
10
1238736.03105711
20
433188.4816388099
10
1238736.0137495187
20
433188.8692058163
10
1238735.9944981316
20
433189.27009672514
10
1238735.8882336912
20
433189.7578864587
10
1238735.6949561974
20
433190.3325750169
10
1238735.4146656503
20
433190.9941623999
10
1238735.04736205
20
433191.74264860764
10
1238734.6814015447
20
433192.38575462427
10
1238734.3167841344
20
433192.92348044994
10
1238733.953509819
20
433193.35582608456
10
1238733.5915785988
20
433193.6827915282
10
1238733.1330086316
20
433194.02079209976
10
1238732.5777999174
20
433194.36982779927
10
1238731.9259524567
20
433194.7298986267
10
1238731.1774662493
20
433195.101004582
10
1238730.5892262836
20
433195.39193775074
10
1238730.1612325602
20
433195.60269813274
10
1238729.8934850786
20
433195.73328572814
10
1238729.785983839
20
433195.7837005368
10
1238729.5451116674
20
433195.9293027515
10
1238729.1708685635
20
433196.1700923721
10
1238728.6632545274
20
433196.50606939883
10
1238728.022269559
20
433196.93723383156
10
1238727.4784615696
20
433197.33993759984
10
1238727.0318305595
20
433197.7141807036
10
1238726.682376528
20
433198.059963143
10
1238726.4300994754
20
433198.3772849181
10
1238726.1168393972
20
433198.77541960403
10
1238725.7425962936
20
433199.25436720095
10
1238725.3073701642
20
433199.8141277089
10
1238724.811161009
20
433200.4547011279
10
1238724.418288384
20
433200.9621093893
10
1238724.128752289
20
433201.3363524931
10
1238723.9425527244
20
433201.5774304394
10
1238723.8596896897
20
433201.68534322816
10
1238723.6494138227
20
433201.9533993716
10
1238723.3117251233
20
433202.3815988697
10
1238722.8466235918
20
433202.96994172264
10
1238722.2541092283
20
433203.7184279304
10
1238721.7914462532
20
433204.3086499312
10
1238721.4586346666
20
433204.7406077252
10
1238721.2556744688
20
433205.0143013124
10
1238721.1825656598
20
433205.1297306927
10
1238721.0234315176
20
433205.3745669348
10
1238720.7782720425
20
433205.74881003867
10
1238720.4470872348
20
433206.2524600042
10
1238720.0298770946
20
433206.8855168316
10
1238719.6341504725
20
433207.5190500256
10
1238719.2599073686
20
433208.1530595863
10
1238718.9071477829
20
433208.7875455138
10
1238718.5758717158
20
433209.42250780796
10
1238718.3125647479
20
433209.927110507
10
1238718.1172268793
20
433210.3013536108
10
1238717.9898581102
20
433210.54523711954
10
1238717.9304584404
20
433210.65876103303
10
1238717.8214466516
20
433210.9310255201
10
1238717.6628227439
20
433211.3620305805
10
1238717.454586717
20
433211.95177621464
10
1238717.1967385714
20
433212.7002624223
10
1238716.9442395056
20
433213.44874863
10
1238716.6970895194
20
433214.1972348377
10
1238716.4552886132
20
433214.94572104537
10
1238716.218836787
20
433215.69420725305
10
1238715.9928012756
20
433216.39482037234
10
1238715.7771820796
20
433217.0475604032
10
1238715.5719791986
20
433217.65242734563
10
1238715.377192633
20
433218.2094211997
10
1238715.2092388552
20
433218.67503967864
10
1238715.0681178654
20
433219.0492827825
10
1238714.9538296633
20
433219.3321505112
10
1238714.8663742493
20
433219.52364286483
10
1238714.685590058
20
433219.85438368196
10
1238714.411477089
20
433220.3243729625
10
1238714.0440353425
20
433220.9336107067
10
1238713.5832648184
20
433221.68209691445
10
1238713.187621858
20
433222.394728572
10
1238712.8571064612
20
433223.0715056794
10
1238712.5917186278
20
433223.7124282367
10
1238712.391458358
20
433224.3174962438
10
1238712.2309229043
20
433224.8071517993
10
1238712.110112267
20
433225.18139490316
10
1238712.029026446
20
433225.4402255553
10
1238711.9876654414
20
433225.5836437559
10
1238711.931228444
20
433225.8783289582
10
1238711.8597154538
20
433226.32428116223
10
1238711.7731264718
20
433226.9215003681
10
1238711.671461497
20
433227.6699865757
10
1238711.589149229
20
433228.4184727834
10
1238711.5261896676
20
433229.1669589911
10
1238711.4825828127
20
433229.91544519877
10
1238711.4583286645
20
433230.66393140645
10
1238711.4342004443
20
433231.41241761413
10
1238711.4101981516
20
433232.16090382176
10
1238711.386321787
20
433232.90939002944
10
1238711.36257135
20
433233.6578762372
10
1238711.3283551165
20
433234.40636244486
10
1238711.2836730862
20
433235.1548486525
10
1238711.2285252593
20
433235.90333486017
10
1238711.162911636
20
433236.65182106785
10
1238711.092078797
20
433237.40030727553
10
1238711.0160267423
20
433238.14879348315
10
1238710.934755472
20
433238.89727969083
10
1238710.8482649862
20
433239.6457658985
10
1238710.7631436842
20
433240.3942521062
10
1238710.6793915662
20
433241.14273831376
10
1238710.597008632
20
433241.89122452145
10
1238710.5159948813
20
433242.6397107291
10
1238710.438751386
20
433243.3881969368
10
1238710.3652781453
20
433244.13668314443
10
1238710.29557516
20
433244.8851693521
10
1238710.2296424299
20
433245.6336555598
10
1238710.165699183
20
433246.3821417675
10
1238710.10374542
20
433247.13062797516
10
1238710.0437811401
20
433247.87911418284
10
1238709.985806344
20
433248.6276003905
10
1238709.9016591087
20
433249.3760865982
10
1238709.7913394338
20
433250.1245728058
10
1238709.6548473197
20
433250.8730590135
10
1238709.492182766
20
433251.62154522125
10
1238709.3607429252
20
433252.22315880726
10
1238709.260527797
20
433252.6778997716
10
1238709.1915373811
20
433252.9857681143
10
1238709.153771678
20
433253.14676383534
10
1238709.0516418228
20
433253.4143832478
10
1238708.885147815
20
433253.78862635157
10
1238708.6542896556
20
433254.2694931468
10
1238708.3590673439
20
433254.8569836335
10
1238708.024334636
20
433255.3803108149
10
1238707.6500915322
20
433255.83947469114
10
1238707.2363380322
20
433256.23447526223
10
1238706.7830741361
20
433256.56531252805
10
1238706.2560046623
20
433256.8932732472
10
1238705.6551296103
20
433257.21835741954
10
1238704.9804489806
20
433257.5405650451
10
1238704.2319627733
20
433257.859896124
10
1238703.6357015087
20
433258.1239738989
10
1238703.191665187
20
433258.3327983697
10
1238702.8998538083
20
433258.4863695366
10
1238702.7602673732
20
433258.5846873996
10
1238702.5033526034
20
433258.7909462186
10
1238702.1291094997
20
433259.10514599364
10
1238701.6375380617
20
433259.5272867247
10
1238701.028638289
20
433260.05736841186
10
1238700.5271145373
20
433260.5095308074
10
1238700.132966806
20
433260.88377391116
10
1238699.846195095
20
433261.1800977234
10
1238699.666799405
20
433261.3985022439
10
1238699.3899800077
20
433261.69614836527
10
1238699.0157369038
20
433262.07303608744
10
1238698.5440700932
20
433262.5291654103
10
1238697.974979576
20
433263.06453633413
10
1238697.4858852657
20
433263.51934334787
10
1238697.0767871626
20
433263.89358645165
10
1238696.7476852664
20
433264.1872656456
10
1238696.498579577
20
433264.4003809296
10
1238696.1869051806
20
433264.603130763
10
1238695.812662077
20
433264.79551514576
10
1238695.3758502658
20
433264.977534078
10
1238694.8764697472
20
433265.1491875597
10
1238694.3148128064
20
433265.31265229953
10
1238693.6908794434
20
433265.4679282974
10
1238693.004669658
20
433265.61501555337
10
1238692.2561834506
20
433265.75391406746
10
1238691.5076972428
20
433265.8946848605
10
1238690.759211035
20
433266.0373279325
10
1238690.0107248272
20
433266.1818432835
10
1238689.2622386198
20
433266.3282309135
10
1238688.5903477957
20
433266.51090828143
10
1238687.9950523558
20
433266.72987538745
10
1238687.476352299
20
433266.9851322314
10
1238687.0342476266
20
433267.2766788133
10
1238686.626073738
20
433267.52603830735
10
1238686.2518306344
20
433267.7332107136
10
1238685.911518315
20
433267.898196032
10
1238685.6051367798
20
433268.02099426254
10
1238685.1976722518
20
433268.26951492974
10
1238684.6891247306
20
433268.6437580336
10
1238684.0794942162
20
433269.14372357406
10
1238683.368780709
20
433269.76941155107
10
1238682.8263024036
20
433270.2451584935
10
1238682.4520592997
20
433270.5709644014
10
1238682.2460513976
20
433270.7468292746
10
1238682.208278697
20
433270.77275311307
10
1238681.99282762
20
433270.86461447
10
1238681.5996981661
20
433271.0224133453
10
1238681.0288903355
20
433271.2461497389
10
1238680.2804041277
20
433271.53582365095
10
1238679.5319179199
20
433271.757156473
10
1238678.783431712
20
433271.910148205
10
1238678.0349455045
20
433271.99479884707
10
1238677.2864592972
20
433272.01110839914
10
1238676.5379730896
20
433271.98212658765
10
1238675.7894868818
20
433271.90785341256
10
1238675.041000674
20
433271.78828887397
10
1238674.2925144662
20
433271.6234329719
10
1238673.6370343962
20
433271.4580281952
10
1238673.0745604634
20
433271.2920745439
10
1238672.6050926684
20
433271.125572018
10
1238672.2286310112
20
433270.95852061745
10
1238671.8532786304
20
433270.7668107761
10
1238671.4790355265
20
433270.55044249375
10
1238671.1059016995
20
433270.30941577046
10
1238670.7338771494
20
433270.0437306062
10
1238670.286593915
20
433269.72376647213
10
1238669.7640519962
20
433269.34952336835
10
1238669.166251393
20
433268.9210012947
10
1238668.4931921056
20
433268.43820025126
10
1238667.9695409099
20
433268.05851274566
10
1238667.595297806
20
433267.78193877777
10
1238667.370462794
20
433267.60847834765
10
1238667.2950358738
20
433267.5381314553
10
1238667.0607279392
20
433267.31583645724
10
1238666.6675389907
20
433266.9415933534
10
1238666.115469028
20
433266.4154021438
10
1238665.404518051
20
433265.73726282845
10
1238664.8619210108
20
433265.21384532726
10
1238664.487677907
20
433264.84514964034
10
1238664.2817887398
20
433264.6311757675
10
1238664.2442535087
20
433264.5719237089
10
1238664.1339550433
20
433264.3551761277
10
1238663.9508933425
20
433263.98093302385
10
1238663.6950684073
20
433263.44919439737
10
1238663.3664802369
20
433262.7599602483
10
1238663.108726462
20
433262.0559130846
10
1238662.9218070814
20
433261.3370529063
10
1238662.8057220965
20
433260.60337971325
10
1238662.7604715067
20
433259.8548935055
10
1238662.8199932543
20
433259.1369508508
10
1238662.9842873395
20
433258.449551749
10
1238663.253353762
20
433257.7926962001
10
1238663.6271925224
20
433257.1663842041
10
1238663.9871024352
20
433256.6661066542
10
1238664.3330835006
20
433256.2918635503
10
1238664.6651357189
20
433256.0436548926
10
1238664.9832590898
20
433255.92148068093
10
1238665.3294423271
20
433255.73012433085
10
1238665.703685431
20
433255.46958584245
10
1238666.1059884012
20
433255.13986521563
10
1238666.5363512381
20
433254.74096245045
10
1238667.030277729
20
433254.35438951594
10
1238667.587767874
20
433253.9801464121
10
1238668.2088216732
20
433253.6182331389
10
1238668.893439127
20
433253.2686496965
10
1238669.2357478535
20
433252.9447160588
10
1238669.2357478535
20
433252.64643222606
10
1238668.893439127
20
433252.3737981981
10
1238668.2088216732
20
433252.12681397493
10
1238667.5204960199
20
433251.81620031147
10
1238666.828462167
20
433251.4419572077
10
1238666.132720114
20
433251.00408466347
10
1238665.433269861
20
433250.50258267886
10
1238664.8964231827
20
433250.1187278992
10
1238664.522180079
20
433249.8525203245
10
1238664.3105405497
20
433249.7039599547
10
1238664.261504595
20
433249.67304678983
10
1238664.0376060768
20
433249.47050731006
10
1238663.6388449958
20
433249.09634151537
10
1238663.065221351
20
433248.55054940574
10
1238662.3167351438
20
433247.8331309812
10
1238661.7553359086
20
433247.2950285082
10
1238661.3810236459
20
433246.9362419868
10
1238661.1937983558
20
433246.756771417
10
1238661.1936600383
20
433246.7566167987
10
1238661.0562122455
20
433246.56937928306
10
1238660.7814549776
20
433246.19505887013
10
1238660.3693882343
20
433245.6336555598
10
1238659.8200120162
20
433244.8851693521
10
1238659.3582369345
20
433244.2667321239
10
1238658.9840629892
20
433243.77834387525
10
1238658.6974901808
20
433243.4200046061
10
1238658.498518509
20
433243.1917143165
10
1238658.2541926645
20
433242.8904476197
10
1238657.9645126474
20
433242.5162045158
10
1238657.6294784574
20
433242.0689850049
10
1238657.2490900948
20
433241.548789087
10
1238656.8717743615
20
433241.02223086986
10
1238656.4975312576
20
433240.4893103537
10
1238656.1263607834
20
433239.9500275384
10
1238655.7582629381
20
433239.40438242396
10
1238655.4569022441
20
433238.94443831476
10
1238655.2222787016
20
433238.5701952109
10
1238655.0543923099
20
433238.2816531124
10
1238654.953243069
20
433238.0788120192
10
1238654.8033156786
20
433237.73955964734
10
1238654.604610139
20
433237.2638959969
10
1238654.3571264495
20
433236.65182106785
10
1238654.0608646104
20
433235.90333486017
10
1238653.7837478723
20
433235.1548486525
10
1238653.5257762354
20
433234.4063624448
10
1238653.2869496995
20
433233.6578762371
10
1238653.067268265
20
433232.90939002944
10
1238652.8696587656
20
433232.19216433936
10
1238652.6941212015
20
433231.5061991668
10
1238652.540655573
20
433230.8514945119
10
1238652.40926188
20
433230.22805037454
10
1238652.3022272997
20
433229.7292067539
10
1238652.2195518329
20
433229.3549636501
10
1238652.1612354792
20
433229.105321063
10
1238652.1272782385
20
433228.9802789927
10
1238651.9861663245
20
433228.69937588804
10
1238651.7378997365
20
433228.26261174906
10
1238651.3824784749
20
433227.6699865757
10
1238650.9199025393
20
433226.9215003681
10
1238650.50998233
20
433226.31091384264
10
1238650.1527178462
20
433225.8382269993
10
1238649.8481090886
20
433225.5034398382
10
1238649.5961560572
20
433225.3065523593
10
1238649.2200697316
20
433225.12865647924
10
1238648.7198501118
20
433224.9697521979
10
1238648.095497198
20
433224.8298395155
10
1238647.3470109901
20
433224.7089184319
10
1238646.5985247823
20
433224.6783339677
10
1238645.8500385745
20
433224.73808612284
10
1238645.101552367
20
433224.8881748974
10
1238644.3530661596
20
433225.12860029144
10
1238643.604579952
20
433225.32395005843
10
1238642.8560937443
20
433225.4742241984
10
1238642.1076075365
20
433225.5794227114
10
1238641.3591213287
20
433225.63954559737
10
1238640.610635121
20
433225.62843857484
10
1238639.862148913
20
433225.5461016438
10
1238639.1136627055
20
433225.39253480424
10
1238638.3651764982
20
433225.1677380563
10
1238637.6236318573
20
433224.87253320095
10
1238636.889028783
20
433224.5069202383
10
1238636.1613672758
20
433224.0708991685
10
1238635.440647335
20
433223.56446999154
10
1238634.8931658128
20
433223.18108405574
10
1238634.518922709
20
433222.9207413612
10
1238634.3179180236
20
433222.7834419079
10
1238634.2901517567
20
433222.7691856958
10
1238634.0822055044
20
433222.7263242952
10
1238633.6940792669
20
433222.65485770616
10
1238633.1257730443
20
433222.5547859285
10
1238632.377286837
20
433222.42610896233
10
1238631.701943607
20
433222.3653345322
10
1238631.0997433546
20
433222.37246263825
10
1238630.5706860803
20
433222.4474932804
10
1238630.1147717836
20
433222.5904264586
10
1238629.6996930833
20
433222.7174733873
10
1238629.3254499796
20
433222.8286340665
10
1238628.9920424721
20
433222.9239084963
10
1238628.6994705612
20
433223.0032966765
10
1238628.2929200758
20
433223.1157210506
10
1238627.7723910166
20
433223.26118161855
10
1238627.1378833828
20
433223.43967838044
10
1238626.3893971755
20
433223.6512113361
10
1238625.6409109677
20
433223.8285124037
10
1238624.89242476
20
433223.9715815833
10
1238624.1439385521
20
433224.0804188748
10
1238623.3954523448
20
433224.15502427815
10
1238622.646966137
20
433224.21925780666
10
1238621.8984799294
20
433224.27311946027
10
1238621.1499937219
20
433224.3166092389
10
1238620.401507514
20
433224.34972714266
10
1238619.6530213063
20
433224.41089921136
10
1238618.9045350985
20
433224.500125445
10
1238618.156048891
20
433224.61740584363
10
1238617.4075626836
20
433224.7627404072
10
1238616.659076476
20
433224.9228605503
10
1238615.9105902682
20
433225.09776627296
10
1238615.1621040604
20
433225.28745757515
10
1238614.4136178526
20
433225.4919344568
10
1238613.6651316448
20
433225.62569017103
10
1238612.916645437
20
433225.6887247178
10
1238612.1681592294
20
433225.68103809713
10
1238611.419673022
20
433225.60263030895
10
1238610.6711868146
20
433225.5358922548
10
1238609.9227006068
20
433225.4808239349
10
1238609.174214399
20
433225.4374253489
10
1238608.4257281912
20
433225.40569649707
10
1238607.6772419836
20
433225.40425327606
10
1238606.928755776
20
433225.4330956858
10
1238606.1802695682
20
433225.4922237264
10
1238605.431783361
20
433225.58163739776
10
1238604.8569798265
20
433225.65388597327
10
1238604.455858965
20
433225.70896945294
10
1238604.2284207768
20
433225.7468878367
10
1238604.174665262
20
433225.76764112466
10
1238603.9606659524
20
433225.8762629046
10
1238603.5864228485
20
433226.0727531765
10
1238603.0519359503
20
433226.3571119404
10
1238602.3572052578
20
433226.7293391963
10
1238601.7428542504
20
433227.10257437616
10
1238601.2088829284
20
433227.47681748
10
1238600.755291292
20
433227.8520685078
10
1238600.3820793412
20
433228.22832745954
10
1238600.008351814
20
433228.57175168075
10
1238599.63410871
20
433228.8823411714
10
1238599.2593500298
20
433229.16009593144
10
1238598.884075773
20
433229.40501596086
10
1238598.4154985284
20
433229.6553890926
10
1238597.853618296
20
433229.9112153265
10
1238597.198435076
20
433230.17249466263
10
1238596.4499488687
20
433230.439227101
10
1238595.701462661
20
433230.6158869363
10
1238594.9529764534
20
433230.7024741686
10
1238594.2044902458
20
433230.69898879784
10
1238593.456004038
20
433230.6054308241
10
1238592.7075178302
20
433230.45104939624
10
1238591.9590316224
20
433230.2358445142
10
1238591.2105454148
20
433229.9598161782
10
1238590.4620592075
20
433229.62296438817
10
1238589.8556234562
20
433229.3500148696
10
1238589.3912381611
20
433229.14096762263
10
1238589.0689033228
20
433228.9958226471
10
1238588.8886189407
20
433228.9145799432
10
1238588.6113551978
20
433228.7636652225
10
1238588.237112094
20
433228.543078485
10
1238587.7658896293
20
433228.25281973084
10
1238587.1976878035
20
433227.89288896
10
1238586.6383546097
20
433227.71292357455
10
1238586.0878900476
20
433227.71292357455
10
1238585.5462941176
20
433227.89288896
10
1238585.0135668197
20
433228.25281973084
10
1238584.5600816186
20
433228.54259115737
10
1238584.1858385147
20
433228.7622032395
10
1238583.890837508
20
433228.9116559772
10
1238583.6750785985
20
433228.9909493705
10
1238583.3261378645
20
433229.1334802473
10
1238582.844015306
20
433229.3392486077
10
1238582.2287109229
20
433229.6082544516
10
1238581.480224715
20
433229.940497779
10
1238580.7317385073
20
433230.22200948495
10
1238579.9832523
20
433230.4527895694
10
1238579.2347660922
20
433230.63283803227
10
1238578.4862798846
20
433230.7621548736
10
1238577.737793677
20
433230.87177114293
10
1238576.9893074692
20
433230.96168684034
10
1238576.2408212614
20
433231.03190196573
10
1238575.492335054
20
433231.0824165192
10
1238574.7438488463
20
433231.1080081298
10
1238573.9953626385
20
433231.10867679765
10
1238573.2468764307
20
433231.08442252275
10
1238572.4983902234
20
433231.0352453051
10
1238571.7499040156
20
433230.9757529873
10
1238571.0014178078
20
433230.9059455693
10
1238570.2529316
20
433230.82582305116
10
1238569.5044453926
20
433230.73538543284
10
1238568.7559591848
20
433230.6623892754
10
1238568.007472977
20
433230.606834579
10
1238567.2589867692
20
433230.5687213434
10
1238566.510500562
20
433230.54804956866
10
1238565.762014354
20
433230.5220265515
10
1238565.0135281463
20
433230.4906522918
10
1238564.2650419388
20
433230.4539267896
10
1238563.5165557312
20
433230.4118500449
10
1238562.7680695234
20
433230.3530054921
10
1238562.019583316
20
433230.27739313105
10
1238561.2710971083
20
433230.18501296197
10
1238560.5226109005
20
433230.0758649849
10
1238559.7741246927
20
433230.0252332364
10
1238559.0256384849
20
433230.03311771667
10
1238558.2771522773
20
433230.09951842565
10
1238557.52866607
20
433230.2244353633
10
1238556.806504624
20
433230.4040511884
10
1238556.1106679398
20
433230.6383659007
10
1238555.4411560174
20
433230.9273795004
10
1238554.7979688565
20
433231.27109198744
10
1238554.2892537243
20
433231.54451663565
10
1238553.9150106206
20
433231.7476534451
10
1238553.6752395453
20
433231.8805024157
10
1238553.569940498
20
433231.9430635476
10
1238553.3038446608
20
433232.0772529867
10
1238552.8769520335
20
433232.2830707332
10
1238552.2892626158
20
433232.560516787
10
1238551.5407764085
20
433232.909591148
10
1238550.8190246837
20
433233.0684880456
10
1238550.1240074413
20
433233.0372074797
10
1238549.455724682
20
433232.8157494503
10
1238548.8141764055
20
433232.4041139573
10
1238548.3062807154
20
433232.0771555127
10
1238547.9320376115
20
433231.83487411635
10
1238547.691447094
20
433231.6772697682
10
1238547.5845091632
20
433231.6043424684
10
1238547.3171841628
20
433231.42328472785
10
1238546.8894720932
20
433231.1340965468
10
1238546.3013729546
20
433230.73677792493
10
1238545.5528867473
20
433230.23132886237
10
1238544.8044005395
20
433229.8110406975
10
1238544.0559143317
20
433229.4759134302
10
1238543.307428124
20
433229.22594706056
10
1238542.5589419166
20
433229.06114158855
10
1238541.8104557088
20
433229.0161804205
10
1238541.061969501
20
433229.0910635565
10
1238540.3134832932
20
433229.2857909965
10
1238539.5649970858
20
433229.6003627405
10
1238539.00363243
20
433229.83629154856
10
1238538.629389326
20
433229.9935774205
10
1238538.4422677741
20
433230.07222035655
0
LWPOLYLINE
5
3D
330
C
100
AcDbEntity
8
C-TOPO-MAJR-E
100
AcDbPolyline
90
416
70
0
43
0
38
0
39
0
10
1238720.6622783476
20
433113.90008300997
10
1238720.6262403324
20
433114.64856921765
10
1238720.5632313439
20
433115.3970554253
10
1238720.473251382
20
433116.14554163296
10
1238720.3563004464
20
433116.89402784064
10
1238720.2369076288
20
433117.6425140483
10
1238720.1150729284
20
433118.391000256
10
1238719.9907963458
20
433119.1394864637
10
1238719.864077881
20
433119.88797267136
10
1238719.7680908141
20
433120.63645887905
10
1238719.7028351454
20
433121.38494508667
10
1238719.6683108748
20
433122.13343129435
10
1238719.6645180027
20
433122.88191750203
10
1238719.7062443658
20
433123.6304037097
10
1238719.7934899644
20
433124.3788899173
10
1238719.926254799
20
433125.12737612496
10
1238720.1045388686
20
433125.87586233264
10
1238720.282060513
20
433126.5814366715
10
1238720.458819732
20
433127.2440991414
10
1238720.6348165255
20
433127.8638497425
10
1238720.8100508936
20
433128.4406884748
10
1238720.9574050244
20
433128.91622939287
10
1238721.076878918
20
433129.29047249665
10
1238721.1684725746
20
433129.56341778627
10
1238721.2321859938
20
433129.7350652617
10
1238721.3805581797
20
433130.05092242017
10
1238721.6135891317
20
433130.5109892617
10
1238721.9312788504
20
433131.1152657863
10
1238722.3336273357
20
433131.86375199404
10
1238722.7059947753
20
433132.58317903173
10
1238723.0483811696
20
433133.2735468994
10
1238723.3607865183
20
433133.9348555971
10
1238723.6432108216
20
433134.5671051248
10
1238723.8619392808
20
433135.0703514406
10
1238724.0169718957
20
433135.44459454436
10
1238724.1083086666
20
433135.6898344363
10
1238724.1359495937
20
433135.8060711163
10
1238724.1497700573
20
433136.01163059386
10
1238724.1497700573
20
433136.3065128689
10
1238724.1359495937
20
433136.6907179416
10
1238724.1083086669
20
433137.1642458119
10
1238724.0818981123
20
433137.5881312989
10
1238724.0567179308
20
433137.9623744027
10
1238724.0327681217
20
433138.28697512334
10
1238724.0100486851
20
433138.56193346076
10
1238723.9401452267
20
433138.9552737657
10
1238723.8230577465
20
433139.46699603833
10
1238723.6587862442
20
433140.0971002784
10
1238723.4473307203
20
433140.84558648604
10
1238723.283742038
20
433141.5940726937
10
1238723.1680201981
20
433142.34255890135
10
1238723.1001652004
20
433143.09104510903
10
1238723.0801770447
20
433143.8395313168
10
1238723.1083035124
20
433144.58801752445
10
1238723.1845446029
20
433145.3365037321
10
1238723.308900317
20
433146.08498993976
10
1238723.481370654
20
433146.83347614744
10
1238723.6311466016
20
433147.51156960067
10
1238723.7582281597
20
433148.1192702995
10
1238723.8626153283
20
433148.65657824394
10
1238723.9443081075
20
433149.12349343405
10
1238724.0184559263
20
433149.544072581
10
1238724.085058785
20
433149.9183156848
10
1238724.1441166832
20
433150.2462227455
10
1238724.1956296212
20
433150.5277937632
10
1238724.2213860904
20
433150.8025465674
10
1238724.2213860904
20
433151.0704811583
10
1238724.1956296214
20
433151.33159753575
10
1238724.1441166834
20
433151.5858956998
10
1238724.0768601447
20
433151.90016633377
10
1238723.9938600059
20
433152.27440943755
10
1238723.8951162663
20
433152.70862501126
10
1238723.7806289261
20
433153.2028130549
10
1238723.6384525173
20
433153.76057563955
10
1238723.468587039
20
433154.3819127651
10
1238723.2710324922
20
433155.06682443176
10
1238723.0457888758
20
433155.81531063945
10
1238722.8521534135
20
433156.5637968471
10
1238722.6901261047
20
433157.31228305475
10
1238722.5597069496
20
433158.06076926243
10
1238722.460895948
20
433158.8092554701
10
1238722.3093016343
20
433159.53006101464
10
1238722.1049240087
20
433160.223185896
10
1238721.8477630708
20
433160.88863011426
10
1238721.5378188207
20
433161.52639366937
10
1238721.2593480153
20
433162.03239699884
10
1238721.0123506538
20
433162.4066401026
10
1238720.796826737
20
433162.6491229808
10
1238720.6127762645
20
433162.7598456334
10
1238720.3336294764
20
433162.89432905306
10
1238719.9593863725
20
433163.0525732398
10
1238719.4900469529
20
433163.2345781936
10
1238718.925611218
20
433163.4403439143
10
1238718.3151628645
20
433163.6390426679
10
1238717.658701893
20
433163.83067445445
10
1238716.9562283033
20
433164.0152392738
10
1238716.207742096
20
433164.1927371259
10
1238715.4592558881
20
433164.3805091261
10
1238714.7107696803
20
433164.5785552744
10
1238713.9622834725
20
433164.7868755707
10
1238713.2137972652
20
433165.0054700151
10
1238712.5269711083
20
433165.206072896
10
1238711.9018050022
20
433165.38868421334
10
1238711.3382989466
20
433165.5533039672
10
1238710.836452942
20
433165.6999321576
10
1238710.3984083878
20
433165.8293985828
10
1238710.024165284
20
433165.94170324295
10
1238709.7137236306
20
433166.036846138
10
1238709.4670834276
20
433166.11482726794
10
1238709.0949817235
20
433166.25124706235
10
1238708.597418518
20
433166.44610552123
10
1238707.9743938115
20
433166.69940264453
10
1238707.2259076037
20
433167.0111384322
10
1238706.5217042067
20
433167.3346325955
10
1238705.8617836204
20
433167.6698851343
10
1238705.246145845
20
433168.01689604874
10
1238704.6747908797
20
433168.3756653387
10
1238704.2019918454
20
433168.68819206895
10
1238703.8277487415
20
433168.95447623945
10
1238703.5520615682
20
433169.17451785016
10
1238703.3749303257
20
433169.3483169011
10
1238703.1531492136
20
433169.62233797845
10
1238702.8867182322
20
433169.99658108235
10
1238702.5756373813
20
433170.4710462126
10
1238702.2199066612
20
433171.04573336925
10
1238701.8942580493
20
433171.6638702887
10
1238701.5986915461
20
433172.3254569709
10
1238701.3332071514
20
433173.03049341583
10
1238701.0978048649
20
433173.7789796236
10
1238700.8819148499
20
433174.46800067544
10
1238700.6855371061
20
433175.0975565713
10
1238700.5086716337
20
433175.6676473114
10
1238700.3513184325
20
433176.17827289563
10
1238700.2113192284
20
433176.6207072397
10
1238700.0886740214
20
433176.99495034356
10
1238699.9833828115
20
433177.3010022072
10
1238699.8954455985
20
433177.5388628306
10
1238699.6643554403
20
433177.8984690901
10
1238699.2901123364
20
433178.37982098584
10
1238698.772716287
20
433178.98291851766
10
1238698.1121672923
20
433179.7077616857
10
1238697.602882485
20
433180.2573048216
10
1238697.2448618647
20
433180.6315479254
10
1238697.0381054322
20
433180.8304909972
10
1238696.9826131868
20
433180.8541340368
10
1238696.7677455125
20
433180.9280633973
10
1238696.3935024086
20
433181.0522790785
10
1238695.8598838756
20
433181.2267810804
10
1238695.166889913
20
433181.45156940306
10
1238694.4600228893
20
433181.6678697098
10
1238693.7392828043
20
433181.8756820004
10
1238693.004669658
20
433182.07500627515
10
1238692.2561834506
20
433182.26584253384
10
1238691.5076972428
20
433182.4427264631
10
1238690.759211035
20
433182.60565806285
10
1238690.0107248272
20
433182.7546373331
10
1238689.2622386198
20
433182.88966427394
10
1238688.513752412
20
433183.0087210251
10
1238687.7652662043
20
433183.1118075865
10
1238687.0167799965
20
433183.19892395823
10
1238686.2682937891
20
433183.27007014025
10
1238685.5198075813
20
433183.3319367906
10
1238684.7713213735
20
433183.3845239093
10
1238684.0228351657
20
433183.42783149634
10
1238683.2743489584
20
433183.4618595516
10
1238682.5258627506
20
433183.49789389386
10
1238681.777376543
20
433183.535934523
10
1238681.0288903355
20
433183.575981439
10
1238680.2804041277
20
433183.61803464196
10
1238679.6018974683
20
433183.66222635546
10
1238678.993370357
20
433183.7085565794
10
1238678.454822794
20
433183.7570253141
10
1238677.9862547796
20
433183.8076325593
10
1238677.5648492202
20
433183.85317511036
10
1238677.1906061163
20
433183.89365296724
10
1238676.863525468
20
433183.92906612996
10
1238676.583607275
20
433183.95941459853
10
1238676.1865470784
20
433184.0090927508
10
1238675.672344878
20
433184.07810058666
10
1238675.041000674
20
433184.1664381062
10
1238674.2925144662
20
433184.27410530945
10
1238673.5440282584
20
433184.39384816954
10
1238672.7955420506
20
433184.5256666866
10
1238672.047055843
20
433184.6695608605
10
1238671.2985696357
20
433184.8255306913
10
1238670.5500834282
20
433185.0010888418
10
1238669.8015972204
20
433185.196235312
10
1238669.0531110126
20
433185.4109701019
10
1238668.3046248048
20
433185.64529321145
10
1238667.6107152367
20
433185.8760799425
10
1238666.9713823083
20
433186.10333029507
10
1238666.3866260196
20
433186.32704426907
10
1238665.8564463707
20
433186.5472218645
10
1238665.4042349942
20
433186.7330063164
10
1238665.0299918903
20
433186.88439762476
10
1238664.7337170593
20
433187.0013957895
10
1238664.5154105006
20
433187.0840008107
10
1238664.16455903
20
433187.18036679854
10
1238663.6811626465
20
433187.29049375304
10
1238663.065221351
20
433187.41438167426
10
1238662.3167351438
20
433187.55203056213
10
1238661.568248936
20
433187.63857126253
10
1238660.8197627282
20
433187.67400377546
10
1238660.0712765204
20
433187.65832810086
10
1238659.322790313
20
433187.59154423885
10
1238658.5743041052
20
433187.53530763555
10
1238657.8258178975
20
433187.4896182909
10
1238657.0773316897
20
433187.45447620505
10
1238656.3288454823
20
433187.42988137784
10
1238655.5803592745
20
433187.4279149255
10
1238654.8318730667
20
433187.4485768481
10
1238654.083386859
20
433187.4918671455
10
1238653.3349006516
20
433187.55778581783
10
1238652.5864144438
20
433187.7412151266
10
1238651.837928236
20
433188.0421550716
10
1238651.0894420284
20
433188.46060565324
10
1238650.3409558209
20
433188.9965668713
10
1238649.7727280047
20
433189.4029705592
10
1238649.38475858
20
433189.67981671693
10
1238649.1770475467
20
433189.8271053446
10
1238649.149594905
20
433189.84483644215
10
1238648.9487470323
20
433189.98691438587
10
1238648.5745039284
20
433190.25333917583
10
1238648.0268655936
20
433190.6441108121
10
1238647.3058320275
20
433191.1592292946
10
1238646.6318620536
20
433191.6039100877
10
1238646.004955672
20
433191.9781531915
10
1238645.4251128824
20
433192.281958606
10
1238644.8923336847
20
433192.51532633125
10
1238644.4388225342
20
433192.71936788247
10
1238644.0645794303
20
433192.89408325974
10
1238643.7696043733
20
433193.039472463
10
1238643.5538973631
20
433193.1555354922
10
1238643.2049955535
20
433193.30405503424
10
1238642.7228989447
20
433193.4850310891
10
1238642.1076075365
20
433193.69846365676
10
1238641.3591213287
20
433193.9443527373
10
1238640.610635121
20
433194.2076909563
10
1238639.862148913
20
433194.488478314
10
1238639.1136627055
20
433194.7867148103
10
1238638.3651764982
20
433195.10240044515
10
1238637.7720710842
20
433195.35687678703
10
1238637.334346464
20
433195.55014383607
10
1238637.0520026374
20
433195.6822015921
10
1238636.9250396045
20
433195.7530500551
10
1238636.6744365362
20
433195.9015263779
10
1238636.3001934325
20
433196.1276305603
10
1238635.802310293
20
433196.4313626024
10
1238635.1807871184
20
433196.8127225042
10
1238634.5275231851
20
433197.1052660851
10
1238633.842518494
20
433197.30899334507
10
1238633.1257730443
20
433197.42390428425
10
1238632.377286837
20
433197.4499989025
10
1238631.6288006292
20
433197.399128444
10
1238630.8803144214
20
433197.27129290905
10
1238630.1318282136
20
433197.0664922972
10
1238629.3833420062
20
433196.7847266088
10
1238628.7348318915
20
433196.54198013456
10
1238628.1862978693
20
433196.33825287456
10
1238627.7377399404
20
433196.1735448287
10
1238627.389158104
20
433196.0478559971
10
1238627.0277456343
20
433195.91065825475
10
1238626.6535025304
20
433195.76195160154
10
1238626.2664287926
20
433195.6017360375
10
1238625.8665244211
20
433195.43001156277
10
1238625.3794745905
20
433195.3101944801
10
1238624.8052793008
20
433195.24228478957
10
1238624.1439385521
20
433195.2262824911
10
1238623.3954523448
20
433195.26218758477
10
1238622.7756824293
20
433195.3230712503
10
1238622.284628806
20
433195.4089334877
10
1238621.9222914749
20
433195.51977429696
10
1238621.6886704362
20
433195.6555936781
10
1238621.3847383647
20
433195.8162451544
10
1238621.010495261
20
433196.00172872585
10
1238620.5659411247
20
433196.2120443925
10
1238620.0510759559
20
433196.44719215436
10
1238619.4778055274
20
433196.7015580688
10
1238618.8461298388
20
433196.9751421359
10
1238618.156048891
20
433197.2679443557
10
1238617.4075626836
20
433197.57996472815
10
1238616.659076476
20
433197.86085314327
10
1238615.9105902682
20
433198.110609601
10
1238615.1621040604
20
433198.3292341014
10
1238614.4136178526
20
433198.51672664436
10
1238613.8370226524
20
433198.6608024342
10
1238613.4323184602
20
433198.761461471
10
1238613.199505275
20
433198.8187037545
10
1238613.1385830978
20
433198.8325292849
10
1238612.9210004574
20
433198.9305659021
10
1238612.5467573535
20
433199.11281360616
10
1238612.0158537864
20
433199.379272397
10
1238611.328289756
20
433199.72994227463
10
1238610.6254951814
20
433200.0404319444
10
1238609.9074700624
20
433200.3107414064
10
1238609.174214399
20
433200.5408706605
10
1238608.4257281912
20
433200.7308197068
10
1238607.6772419836
20
433200.8898572606
10
1238606.928755776
20
433201.01798332203
10
1238606.1802695682
20
433201.11519789096
10
1238605.431783361
20
433201.18150096753
10
1238604.683297153
20
433201.240216553
10
1238603.9348109453
20
433201.2913446473
10
1238603.1863247375
20
433201.3348852506
10
1238602.4378385302
20
433201.3708383629
10
1238601.777935922
20
433201.42420597083
10
1238601.2066169132
20
433201.49498807435
10
1238600.723881504
20
433201.5831846737
10
1238600.3297296942
20
433201.68879576866
10
1238599.9455322374
20
433201.7896763006
10
1238599.5712891337
20
433201.8858262695
10
1238599.2070003827
20
433201.97724567534
10
1238598.8526659848
20
433202.06393451814
10
1238598.3997936342
20
433202.2205062623
10
1238597.8483833314
20
433202.446960908
10
1238597.198435076
20
433202.74329845514
10
1238596.4499488687
20
433203.1095189037
10
1238595.701462661
20
433203.4067946081
10
1238594.9529764534
20
433203.63512556814
10
1238594.2044902458
20
433203.79451178416
10
1238593.456004038
20
433203.884953256
10
1238592.7075178302
20
433203.920251777
10
1238591.9590316224
20
433203.900407347
10
1238591.2105454148
20
433203.8254199662
10
1238590.4620592075
20
433203.6952896345
10
1238589.713573
20
433203.6390260233
10
1238588.9650867921
20
433203.6566291325
10
1238588.2166005843
20
433203.7480989622
10
1238587.4681143765
20
433203.9134355122
10
1238586.7196281687
20
433204.03961358743
10
1238585.971141961
20
433204.12663318776
10
1238585.2226557534
20
433204.1744943132
10
1238584.474169546
20
433204.1831969637
10
1238583.7256833385
20
433204.2239394783
10
1238582.9771971307
20
433204.29672185704
10
1238582.2287109229
20
433204.4015440999
10
1238581.480224715
20
433204.5384062068
10
1238580.9053340084
20
433204.64714390424
10
1238580.5040388028
20
433204.72775719204
10
1238580.2763390983
20
433204.78024607024
10
1238580.222234895
20
433204.8046105389
10
1238580.0080612414
20
433204.9018098984
10
1238579.6338181375
20
433205.0718441487
10
1238579.0995055835
20
433205.31471328984
10
1238578.4051235793
20
433205.63041732187
10
1238577.6972155245
20
433205.9617705585
10
1238576.9757814184
20
433206.3087729998
10
1238576.2408212614
20
433206.6714246457
10
1238575.492335054
20
433207.0497254962
10
1238574.9118744393
20
433207.34707146534
10
1238574.4994394174
20
433207.56346255314
10
1238574.2550299885
20
433207.69889875967
10
1238574.1786461526
20
433207.7533800848
10
1238573.9533326826
20
433207.87963491783
10
1238573.5790895787
20
433208.07766325853
10
1238573.055916841
20
433208.3474651072
10
1238572.3838144692
20
433208.68904046377
10
1238571.6926161386
20
433208.9910805677
10
1238570.9823218486
20
433209.25358541927
10
1238570.2529316
20
433209.47655501834
10
1238569.5044453926
20
433209.6599893648
10
1238568.7559591848
20
433209.8000993653
10
1238568.007472977
20
433209.8968850197
10
1238567.2589867692
20
433209.950346328
10
1238566.510500562
20
433209.9604832903
10
1238565.762014354
20
433209.9438403654
10
1238565.0135281463
20
433209.9004175533
10
1238564.2650419388
20
433209.83021485404
10
1238563.5165557312
20
433209.7332322676
10
1238562.7680695234
20
433209.68008582114
10
1238562.019583316
20
433209.67077551456
10
1238561.2710971083
20
433209.705301348
10
1238560.5226109005
20
433209.78366332134
10
1238559.7741246927
20
433209.86522798205
10
1238559.0256384849
20
433209.9499953302
10
1238558.2771522773
20
433210.0379653656
10
1238557.52866607
20
433210.1291380885
10
1238556.9145227117
20
433210.2327144888
10
1238556.434722203
20
433210.3486945665
10
1238556.0892645437
20
433210.4770783217
10
1238555.8781497339
20
433210.6178657543
10
1238555.585470777
20
433210.81188232196
10
1238555.211227673
20
433211.0591280246
10
1238554.7554204222
20
433211.3596028624
10
1238554.2180490242
20
433211.71330683527
10
1238553.6278989238
20
433211.99723436753
10
1238552.9849701212
20
433212.2113854592
10
1238552.2892626158
20
433212.35576011025
10
1238551.5407764085
20
433212.43035832077
10
1238550.8536361787
20
433212.3792314328
10
1238550.2278419263
20
433212.20237944636
10
1238549.6633936518
20
433211.8998023615
10
1238549.160291355
20
433211.4715001782
10
1238548.7216186551
20
433211.0989325572
10
1238548.3473755512
20
433210.7820994986
10
1238548.0375620439
20
433210.5210010024
10
1238547.7921781326
20
433210.3156370685
10
1238547.4210186475
20
433210.04400115414
10
1238546.9240835882
20
433209.7060932594
10
1238546.3013729546
20
433209.30191338423
10
1238545.5528867473
20
433208.83146152855
10
1238544.9448863016
20
433208.46045503224
10
1238544.4773716177
20
433208.18889389536
10
1238544.1503426963
20
433208.01677811786
10
1238543.9637995367
20
433207.9441076997
10
1238543.6834064052
20
433207.8290140731
10
1238543.3091633013
20
433207.6714972382
10
1238542.8410702252
20
433207.47155719483
10
1238542.279127177
20
433207.22919394297
10
1238541.670548339
20
433207.0361235023
10
1238541.0153337112
20
433206.8923458728
10
1238540.3134832932
20
433206.79786105437
10
1238539.5649970858
20
433206.7526690471
10
1238539.00363243
20
433206.71877504163
10
1238538.629389326
20
433206.696179038
10
1238538.4422677741
20
433206.68488103617
0
LWPOLYLINE
5
3E
330
C
100
AcDbEntity
8
C-TOPO-MAJR-E
100
AcDbPolyline
90
332
70
0
43
0
38
0
39
0
10
1238699.218452136
20
433113.90008300997
10
1238699.1423521966
20
433114.64856921765
10
1238699.0927122755
20
433115.3970554253
10
1238699.0695323725
20
433116.14554163296
10
1238699.0728124874
20
433116.89402784064
10
1238699.0899963267
20
433117.6425140483
10
1238699.12108389
20
433118.391000256
10
1238699.166075178
20
433119.1394864637
10
1238699.2249701896
20
433119.88797267136
10
1238699.2613358502
20
433120.63645887905
10
1238699.2751721595
20
433121.38494508667
10
1238699.2664791173
20
433122.13343129435
10
1238699.235256724
20
433122.88191750203
10
1238699.1969897402
20
433123.6304037097
10
1238699.151678166
20
433124.3788899173
10
1238699.099322001
20
433125.12737612496
10
1238699.0399212458
20
433125.87586233264
10
1238698.9841034934
20
433126.6243485403
10
1238698.931868744
20
433127.37283474795
10
1238698.8832169978
20
433128.12132095563
10
1238698.8381482547
20
433128.8698071633
10
1238698.7882045023
20
433129.618293371
10
1238698.7333857408
20
433130.3667795786
10
1238698.6736919698
20
433131.1152657863
10
1238698.6091231897
20
433131.86375199404
10
1238698.5712601924
20
433132.6122382017
10
1238698.5601029783
20
433133.36072440934
10
1238698.5756515465
20
433134.109210617
10
1238698.6179058976
20
433134.8576968247
10
1238698.725208505
20
433135.6061830324
10
1238698.8975593694
20
433136.35466924007
10
1238699.1349584898
20
433137.10315544775
10
1238699.4374058668
20
433137.8516416554
10
1238699.6782546306
20
433138.4481485785
10
1238699.8575047813
20
433138.89267621725
10
1238699.975156319
20
433139.1852245715
10
1238700.0312092437
20
433139.32579364115
10
1238700.1224538079
20
433139.58319972793
10
1238700.2488900118
20
433139.95744283183
10
1238700.410517855
20
433140.44852295273
10
1238700.607337338
20
433141.05644009064
10
1238700.7837628652
20
433141.699499496
10
1238700.9397944366
20
433142.37770116876
10
1238701.0754320526
20
433143.09104510903
10
1238701.190675713
20
433143.8395313168
10
1238701.2740349136
20
433144.58801752445
10
1238701.3255096553
20
433145.3365037321
10
1238701.3450999372
20
433146.08498993976
10
1238701.3328057597
20
433146.83347614744
10
1238701.2486428854
20
433147.4989244304
10
1238701.0926113136
20
433148.08133478864
10
1238700.864711045
20
433148.58070722217
10
1238700.5649420794
20
433148.99704173097
10
1238700.1529938031
20
433149.3518521781
10
1238699.6288662164
20
433149.64513856353
10
1238698.9925593191
20
433149.87690088723
10
1238698.2440731118
20
433150.04713914904
10
1238697.4955869042
20
433150.2122190779
10
1238696.7471006964
20
433150.3721406737
10
1238695.9986144886
20
433150.5269039364
10
1238695.2501282808
20
433150.67650886596
10
1238694.6715138927
20
433150.7917896899
10
1238694.262771324
20
433150.87274640833
10
1238694.0239005745
20
433150.9193790213
10
1238693.954901645
20
433150.9316875286
10
1238693.733280628
20
433150.9590858624
10
1238693.359037524
20
433151.0015740226
10
1238692.8321723333
20
433151.05915200914
10
1238692.1526850555
20
433151.1318198221
10
1238691.4559480452
20
433151.21247833304
10
1238690.7419613025
20
433151.30112754187
10
1238690.0107248272
20
433151.39776744856
10
1238689.2622386198
20
433151.5023980532
10
1238688.513752412
20
433151.60878756014
10
1238687.7652662043
20
433151.7169359693
10
1238687.0167799965
20
433151.82684328075
10
1238686.2682937891
20
433151.93850949453
10
1238685.5198075813
20
433152.1039168826
10
1238684.7713213735
20
433152.323065445
10
1238684.0228351657
20
433152.59595518175
10
1238683.2743489584
20
433152.9225860929
10
1238682.6456862367
20
433153.2007819425
10
1238682.136847001
20
433153.43054273067
10
1238681.7478312515
20
433153.61186845734
10
1238681.4786389885
20
433153.7447591225
10
1238681.1569213048
20
433153.8965877497
10
1238680.7826782009
20
433154.0673543389
10
1238680.3559096768
20
433154.25705889007
10
1238679.8766157324
20
433154.4657014031
10
1238679.3300237223
20
433154.7187099077
10
1238678.7161336462
20
433155.01608440385
10
1238678.0349455045
20
433155.35782489146
10
1238677.2864592972
20
433155.74393137044
10
1238676.6478850464
20
433156.0719455336
10
1238676.1192227523
20
433156.3418673808
10
1238675.7004724152
20
433156.5536969122
10
1238675.391634035
20
433156.7074341277
10
1238675.050093293
20
433156.89351344935
10
1238674.675850189
20
433157.11193487706
10
1238674.2689047235
20
433157.3626984109
10
1238673.829256896
20
433157.645804051
10
1238673.3123994735
20
433157.9723321158
10
1238672.7183324557
20
433158.34228260536
10
1238672.047055843
20
433158.7556555197
10
1238671.2985696357
20
433159.21245085885
10
1238670.7334763985
20
433159.5571936703
10
1238670.3517761314
20
433159.7898839542
10
1238670.1534688352
20
433159.9105217104
10
1238670.138554509
20
433159.91910693876
10
1238669.9439757941
20
433160.0578384537
10
1238669.5697326902
20
433160.32671625493
10
1238669.0158251976
20
433160.72574034263
10
1238668.282253316
20
433161.2549107167
10
1238667.6096812587
20
433161.70661745564
10
1238666.9981090263
20
433162.0808605595
10
1238666.4475366184
20
433162.3776400282
10
1238665.9579640352
20
433162.59695586184
10
1238665.526056192
20
433162.78608179686
10
1238665.151813088
20
433162.94501783315
10
1238664.8352347238
20
433163.07376397087
10
1238664.5763210994
20
433163.17232020985
10
1238664.1950143292
20
433163.3092616565
10
1238663.691314413
20
433163.4845883108
10
1238663.065221351
20
433163.6983001727
10
1238662.3167351438
20
433163.95039724215
10
1238661.568248936
20
433164.21147125674
10
1238660.8197627282
20
433164.48152221646
10
1238660.0712765204
20
433164.76055012125
10
1238659.322790313
20
433165.0485549712
10
1238658.6562915253
20
433165.2920156209
10
1238658.0717801582
20
433165.49093207053
10
1238657.5692562112
20
433165.6453043199
10
1238657.1487196842
20
433165.7551323691
10
1238656.751329869
20
433165.8586386366
10
1238656.3770867651
20
433165.9558231223
10
1238656.0259903728
20
433166.04668582615
10
1238655.698040692
20
433166.1312267482
10
1238655.2649568794
20
433166.23195833084
10
1238654.7267389349
20
433166.34888057405
10
1238654.083386859
20
433166.4819934778
10
1238653.3349006516
20
433166.63129704207
10
1238652.5864144438
20
433166.7520089337
10
1238651.837928236
20
433166.84412915254
10
1238651.0894420284
20
433166.9076576987
10
1238650.3409558209
20
433166.9425945722
10
1238649.592469613
20
433167.0008084665
10
1238648.8439834057
20
433167.08229938184
10
1238648.095497198
20
433167.18706731795
10
1238647.3470109901
20
433167.31511227496
10
1238646.641978053
20
433167.49906096543
10
1238645.9803983863
20
433167.7389133894
10
1238645.36227199
20
433168.03466954676
10
1238644.7875988642
20
433168.3863294375
10
1238644.3131407492
20
433168.6803287945
10
1238643.9388976456
20
433168.91666761786
10
1238643.6648695527
20
433169.0953459074
10
1238643.491056471
20
433169.2163636631
10
1238643.1735751075
20
433169.42934265366
10
1238642.712425463
20
433169.73428287904
10
1238642.1076075365
20
433170.1311843392
10
1238641.3591213287
20
433170.6200470342
10
1238640.7061213693
20
433171.02134549466
10
1238640.1486076587
20
433171.33507972053
10
1238639.686580196
20
433171.561249712
10
1238639.320038982
20
433171.69985546893
10
1238638.949646823
20
433171.8303489594
10
1238638.5754037192
20
433171.9527301836
10
1238638.1973096705
20
433172.0669991413
10
1238637.815364677
20
433172.1731558326
10
1238637.34178438
20
433172.2813325962
10
1238636.7765687793
20
433172.3915294321
10
1238636.119717875
20
433172.5037463402
10
1238635.3712316672
20
433172.61798332067
10
1238634.6227454597
20
433172.724850173
10
1238633.874259252
20
433172.82434689713
10
1238633.1257730443
20
433172.91647349315
10
1238632.377286837
20
433173.00122996105
10
1238631.6288006292
20
433173.09869372065
10
1238630.8803144214
20
433173.2088647719
10
1238630.1318282136
20
433173.33174311486
10
1238629.3833420062
20
433173.4673287496
10
1238628.6348557984
20
433173.61449214927
10
1238627.8863695906
20
433173.7732333139
10
1238627.1378833828
20
433173.9435522436
10
1238626.3893971755
20
433174.1254489382
10
1238625.6409109677
20
433174.2871442949
10
1238624.89242476
20
433174.42863831355
10
1238624.1439385521
20
433174.5499309943
10
1238623.3954523448
20
433174.6510223371
10
1238622.6982056408
20
433174.73303144315
10
1238622.0521984403
20
433174.79595831246
10
1238621.4574307436
20
433174.83980294515
10
1238620.9139025507
20
433174.86456534115
10
1238620.4550169022
20
433174.8851117869
10
1238620.0807737985
20
433174.9014422824
10
1238619.7911732392
20
433174.9135568277
10
1238619.5862152246
20
433174.9214554227
10
1238619.2453751618
20
433174.9631125238
10
1238618.7686530503
20
433175.0385281308
10
1238618.156048891
20
433175.1477022438
10
1238617.4075626836
20
433175.29063486285
10
1238616.659076476
20
433175.4165815586
10
1238615.9105902682
20
433175.5255423311
10
1238615.1621040604
20
433175.6175171804
10
1238614.4136178526
20
433175.6925061065
10
1238613.6651316448
20
433175.777234156
10
1238612.916645437
20
433175.8717013287
10
1238612.1681592294
20
433175.97590762493
10
1238611.419673022
20
433176.0898530445
10
1238610.6711868146
20
433176.2136486167
10
1238609.9227006068
20
433176.34729434166
10
1238609.174214399
20
433176.4907902193
10
1238608.4257281912
20
433176.64413624955
10
1238607.6772419836
20
433176.7873114101
10
1238606.928755776
20
433176.9203157008
10
1238606.1802695682
20
433177.04314912186
10
1238605.431783361
20
433177.1558116731
10
1238604.683297153
20
433177.26582289336
10
1238603.9348109453
20
433177.3731827828
10
1238603.1863247375
20
433177.47789134126
10
1238602.4378385302
20
433177.5799485688
10
1238601.8312445213
20
433177.6666551992
10
1238601.3665427114
20
433177.7380112324
10
1238601.0437331004
20
433177.79401666846
10
1238600.8628156881
20
433177.83467150736
10
1238600.5852354302
20
433177.8969557961
10
1238600.2109923265
20
433177.9808695347
10
1238599.7400863767
20
433178.0864127232
10
1238599.1725175811
20
433178.21358536143
10
1238598.5597194326
20
433178.3505144375
10
1238597.9016919308
20
433178.49719995144
10
1238597.198435076
20
433178.6536419031
10
1238596.4499488687
20
433178.8198402925
10
1238595.701462661
20
433178.980539209
10
1238594.9529764534
20
433179.13573865255
10
1238594.2044902458
20
433179.2854386231
10
1238593.456004038
20
433179.4296391206
10
1238592.7075178302
20
433179.5788835201
10
1238591.9590316224
20
433179.73317182163
10
1238591.2105454148
20
433179.892504025
10
1238590.4620592075
20
433180.0568801303
10
1238589.713573
20
433180.21420512395
10
1238588.9650867921
20
433180.3644790058
10
1238588.2166005843
20
433180.5077017759
10
1238587.4681143765
20
433180.64387343416
10
1238586.8758470733
20
433180.74859390757
10
1238586.4397986745
20
433180.8218631961
10
1238586.1599691806
20
433180.8636812997
10
1238586.0363585912
20
433180.87404821836
10
1238585.7874317444
20
433180.89455406397
10
1238585.4131886405
20
433180.9251988365
10
1238584.9136292795
20
433180.96598253585
10
1238584.2887536616
20
433181.01690516225
10
1238583.6329753962
20
433181.08309597184
10
1238582.9462944833
20
433181.16455496475
10
1238582.2287109229
20
433181.261282141
10
1238581.480224715
20
433181.3732775005
10
1238580.7317385073
20
433181.4896644074
10
1238579.9832523
20
433181.6104428616
10
1238579.2347660922
20
433181.7356128632
10
1238578.4862798846
20
433181.86517441215
10
1238577.737793677
20
433181.9746280429
10
1238576.9893074692
20
433182.06397375534
10
1238576.2408212614
20
433182.13321154966
10
1238575.492335054
20
433182.1823414258
10
1238574.7438488463
20
433182.2487670054
10
1238573.9953626385
20
433182.3324882884
10
1238573.2468764307
20
433182.433505275
10
1238572.4983902234
20
433182.5518179651
10
1238571.7499040156
20
433182.6975732668
10
1238571.0014178078
20
433182.8707711802
10
1238570.2529316
20
433183.0714117052
10
1238569.5044453926
20
433183.2994948419
10
1238568.9022780145
20
433183.4856774369
10
1238568.446429466
20
433183.6299594903
10
1238568.136899747
20
433183.732341002
10
1238567.9736888576
20
433183.792821972
10
1238567.704961861
20
433183.89417421573
10
1238567.3307187571
20
433184.03639773326
10
1238566.850959546
20
433184.2194925244
10
1238566.265684228
20
433184.44345858926
10
1238565.6396061871
20
433184.68883474125
10
1238564.972725424
20
433184.95562098024
10
1238564.2650419388
20
433185.24381730636
10
1238563.5165557312
20
433185.5534237197
10
1238562.847062703
20
433185.839356962
10
1238562.2565628542
20
433186.10161703336
10
1238561.7450561847
20
433186.3402039339
10
1238561.3125426949
20
433186.5551176634
10
1238560.909164398
20
433186.7504427392
10
1238560.534921294
20
433186.9261791613
10
1238560.1898133834
20
433187.08232692955
10
1238559.8738406654
20
433187.2188860441
10
1238559.4497395754
20
433187.370756378
10
1238558.9175101125
20
433187.5379379312
10
1238558.2771522773
20
433187.72043070383
10
1238557.52866607
20
433187.9182346959
10
1238556.7801798624
20
433188.15777434286
10
1238556.0316936546
20
433188.43904964474
10
1238555.2832074468
20
433188.76206060156
10
1238554.534721239
20
433189.12680721324
10
1238553.9218424084
20
433189.41271129437
10
1238553.444570955
20
433189.61977284495
10
1238553.102906878
20
433189.7479918649
10
1238552.8968501787
20
433189.7973683543
10
1238552.606700277
20
433189.8623336748
10
1238552.232457173
20
433189.94288782636
10
1238551.774120867
20
433190.0390308091
10
1238551.231691359
20
433190.1507626228
10
1238550.7657070083
20
433190.2066285297
10
1238550.3761678152
20
433190.2066285297
10
1238550.0630737795
20
433190.1507626228
10
1238549.826424901
20
433190.0390308091
10
1238549.52097891
20
433189.91298476886
10
1238549.146735806
20
433189.7726245022
10
1238548.7036955897
20
433189.6179500092
10
1238548.1918582602
20
433189.4489612897
10
1238547.6208587112
20
433189.2815594387
10
1238546.990696943
20
433189.11574445607
10
1238546.3013729546
20
433188.951516342
10
1238545.5528867473
20
433188.7888750964
10
1238544.8044005395
20
433188.6570924523
10
1238544.0559143317
20
433188.55616840953
10
1238543.307428124
20
433188.48610296834
10
1238542.5589419166
20
433188.44689612865
10
1238541.8104557088
20
433188.42535856366
10
1238541.061969501
20
433188.42149027344
10
1238540.3134832932
20
433188.435291258
10
1238539.5649970858
20
433188.4667615173
10
1238539.00363243
20
433188.4903642118
10
1238538.629389326
20
433188.50609934144
10
1238538.4422677741
20
433188.5139669063
0
LWPOLYLINE
5
3F
330
C
100
AcDbEntity
8
C-TOPO-MAJR-E
100
AcDbPolyline
90
268
70
0
43
0
38
0
39
0
10
1238673.8724637353
20
433113.90008300997
10
1238673.6901961314
20
433114.5218941547
10
1238673.5364802647
20
433115.0170302365
10
1238673.4113161354
20
433115.3854912553
10
1238673.3147037432
20
433115.62727721117
10
1238673.1920591185
20
433115.93529174104
10
1238673.0433822614
20
433116.3095348448
10
1238672.868673172
20
433116.75000652263
10
1238672.6679318508
20
433117.2567067746
10
1238672.4748197696
20
433117.8238535153
10
1238672.2893369286
20
433118.45144674496
10
1238672.111483328
20
433119.1394864637
10
1238671.9412589683
20
433119.88797267136
10
1238671.7825194404
20
433120.63645887905
10
1238671.6352647447
20
433121.38494508667
10
1238671.4994948811
20
433122.13343129435
10
1238671.3752098498
20
433122.88191750203
10
1238671.2186872025
20
433123.6006040904
10
1238671.0299269394
20
433124.2894910595
10
1238670.8089290606
20
433124.9485784094
10
1238670.555693566
20
433125.5778661398
10
1238670.350186658
20
433126.07963155705
10
1238670.1924083366
20
433126.4538746609
10
1238670.0823586017
20
433126.7005954514
10
1238670.0200374536
20
433126.8197939285
10
1238669.927894989
20
433127.0963143382
10
1238669.8059312077
20
433127.5301566806
10
1238669.65414611
20
433128.12132095563
10
1238669.472539696
20
433128.8698071633
10
1238669.2892005865
20
433129.618293371
10
1238669.1041287824
20
433130.3667795786
10
1238668.917324283
20
433131.1152657863
10
1238668.7287870883
20
433131.86375199404
10
1238668.5083788298
20
433132.49562631315
10
1238668.2560995072
20
433133.01088874374
10
1238667.9719491205
20
433133.40953928576
10
1238667.6559276695
20
433133.69157793914
10
1238667.2317900294
20
433133.97422887164
10
1238666.6995362004
20
433134.2574920832
10
1238666.0591661818
20
433134.5413675737
10
1238665.3106799743
20
433134.82585534325
10
1238664.5621937667
20
433135.07372839854
10
1238663.813707559
20
433135.2849867396
10
1238663.065221351
20
433135.4596303665
10
1238662.3167351438
20
433135.5976592791
10
1238661.721741598
20
433135.71216368163
10
1238661.2802407146
20
433135.803143574
10
1238660.9922324931
20
433135.8705989561
10
1238660.8577169343
20
433135.9145298282
10
1238660.6033376027
20
433135.9932894235
10
1238660.2290944988
20
433136.1068777422
10
1238659.7349876226
20
433136.25529478426
10
1238659.121016974
20
433136.4385405496
10
1238658.511779504
20
433136.71728498425
10
1238657.907275212
20
433137.091528088
10
1238657.3075040984
20
433137.5612698611
10
1238656.712466163
20
433138.12651030347
10
1238656.2278256435
20
433138.5815777442
10
1238655.8535825396
20
433138.9264721834
10
1238655.5897368514
20
433139.161193621
10
1238655.436288579
20
433139.2857420571
10
1238655.1340808228
20
433139.5091097582
10
1238654.683113583
20
433139.8312967244
10
1238654.083386859
20
433140.2523029556
10
1238653.3349006516
20
433140.77212845196
10
1238652.5864144438
20
433141.1830499219
10
1238651.837928236
20
433141.48506736534
10
1238651.0894420284
20
433141.6781807825
10
1238650.3409558209
20
433141.7623901733
10
1238649.592469613
20
433141.8235535798
10
1238648.8439834057
20
433141.8616710021
10
1238648.095497198
20
433141.87674244016
10
1238647.3470109901
20
433141.868767894
10
1238646.7689860328
20
433141.869756342
10
1238646.3614223255
20
433141.87970778433
10
1238646.1243198686
20
433141.89862222085
10
1238646.0576786622
20
433141.92649965145
10
1238645.8372365069
20
433142.01394533395
10
1238645.462993403
20
433142.1609592682
10
1238644.9349493505
20
433142.3675414542
10
1238644.2531043496
20
433142.633691892
10
1238643.554599047
20
433142.9327603999
10
1238642.8394334426
20
433143.2647469778
10
1238642.1076075365
20
433143.62965162576
10
1238641.3591213287
20
433144.0274743438
10
1238640.7588119013
20
433144.34696964524
10
1238640.3066792549
20
433144.5881375302
10
1238640.0027233886
20
433144.7509779986
10
1238639.8469443028
20
433144.8354910505
10
1238639.581933208
20
433144.96149891976
10
1238639.2076901041
20
433145.12900160643
10
1238638.724214991
20
433145.3379991106
10
1238638.1315078693
20
433145.58849143214
10
1238637.499855976
20
433145.8332024806
10
1238636.8292593113
20
433146.0721322559
10
1238636.119717875
20
433146.3052807581
10
1238635.3712316672
20
433146.5326479873
10
1238634.6227454597
20
433146.7277860904
10
1238633.874259252
20
433146.8906950674
10
1238633.1257730443
20
433147.02137491846
10
1238632.377286837
20
433147.1198256434
10
1238631.6288006292
20
433147.1849368708
10
1238630.8803144214
20
433147.21670860064
10
1238630.1318282136
20
433147.2151408328
10
1238629.3833420062
20
433147.1802335674
10
1238628.6348557984
20
433147.1285815473
10
1238627.8863695906
20
433147.0601847724
10
1238627.1378833828
20
433146.97504324286
10
1238626.3893971755
20
433146.8731569586
10
1238625.6409109677
20
433146.7880562595
10
1238624.89242476
20
433146.71974114573
10
1238624.1439385521
20
433146.6682116171
10
1238623.3954523448
20
433146.63346767356
10
1238622.646966137
20
433146.6180307426
10
1238621.8984799294
20
433146.62190082425
10
1238621.1499937219
20
433146.6450779183
10
1238620.401507514
20
433146.6875620248
10
1238619.6530213063
20
433146.7255838772
10
1238618.9045350985
20
433146.7591434753
10
1238618.156048891
20
433146.7882408194
10
1238617.4075626836
20
433146.8128759093
10
1238616.659076476
20
433146.8573063907
10
1238615.9105902682
20
433146.9215322636
10
1238615.1621040604
20
433147.0055535279
10
1238614.4136178526
20
433147.1093701837
10
1238613.740745823
20
433147.2304270688
10
1238613.1434879713
20
433147.3687241831
10
1238612.621844298
20
433147.52426152676
10
1238612.175814803
20
433147.69703909964
10
1238611.7656785033
20
433147.8592881289
10
1238611.3914353994
20
433148.0110086148
10
1238611.0530854913
20
433148.152200557
10
1238610.750628779
20
433148.2828639556
10
1238610.336664693
20
433148.49322936696
10
1238609.811193233
20
433148.78329679096
10
1238609.174214399
20
433149.15306622756
10
1238608.4257281912
20
433149.60253767687
10
1238607.771154252
20
433149.9817291037
10
1238607.2104925816
20
433150.2906405082
10
1238606.7437431794
20
433150.5292718903
10
1238606.370906046
20
433150.6976232501
10
1238605.9973659273
20
433150.8692894221
10
1238605.6231228234
20
433151.0442704066
10
1238605.2481767344
20
433151.2225662034
10
1238604.8725276603
20
433151.40417681256
10
1238604.4036693028
20
433151.60162595526
10
1238603.8416016619
20
433151.8149136314
10
1238603.1863247375
20
433152.0440398411
10
1238602.4378385302
20
433152.28900458425
10
1238601.697573469
20
433152.5532058554
10
1238600.9655295545
20
433152.83664365474
10
1238600.2417067867
20
433153.139317982
10
1238599.526105165
20
433153.46122883726
10
1238598.9811828025
20
433153.7099696592
10
1238598.6069396986
20
433153.88554044766
10
1238598.4033758536
20
433153.9879412027
10
1238598.3704912674
20
433154.01717192435
10
1238598.1627671989
20
433154.2189088371
10
1238597.7802036486
20
433154.5931519409
10
1238597.2228006162
20
433155.1399012359
10
1238596.4905581018
20
433155.8591567219
10
1238595.9373152927
20
433156.4010553477
10
1238595.5630721888
20
433156.7655971133
10
1238595.36782879
20
433156.9527820186
10
1238595.3515850971
20
433156.9626100637
10
1238595.1522807751
20
433156.969169875
10
1238594.7699158248
20
433156.9724614526
10
1238594.2044902458
20
433156.9724847965
10
1238593.456004038
20
433156.9692399065
10
1238592.8858042718
20
433156.9651604503
10
1238592.4938909472
20
433156.96024642786
10
1238592.2802640644
20
433156.954497839
10
1238592.244923623
20
433156.9479146837
10
1238592.0401318504
20
433156.8985696004
10
1238591.6658887465
20
433156.80646258907
10
1238591.1221943113
20
433156.67159364955
10
1238590.4090485454
20
433156.49396278185
10
1238589.687067669
20
433156.39839640865
10
1238588.9562516818
20
433156.3848945298
10
1238588.2166005843
20
433156.45345714537
10
1238587.4681143765
20
433156.6040842554
10
1238586.7196281687
20
433156.71596617077
10
1238585.971141961
20
433156.78910289146
10
1238585.2226557534
20
433156.8234944176
10
1238584.474169546
20
433156.8191407491
10
1238583.7819657458
20
433156.82371485425
10
1238583.1460443533
20
433156.8372167331
10
1238582.5664053683
20
433156.8596463856
10
1238582.043048791
20
433156.8910038117
10
1238581.5942489505
20
433156.918101441
10
1238581.2200058466
20
433156.94093927345
10
1238580.9203194794
20
433156.959517309
10
1238580.695189849
20
433156.9738355477
10
1238580.3392210742
20
433157.0207335069
10
1238579.8524131556
20
433157.1002111867
10
1238579.2347660922
20
433157.2122685871
10
1238578.4862798846
20
433157.3569057079
10
1238577.737793677
20
433157.4894652278
10
1238576.9893074692
20
433157.6099471466
10
1238576.2408212614
20
433157.7183514643
10
1238575.492335054
20
433157.8146781811
10
1238574.7438488463
20
433157.8880435012
10
1238573.9953626385
20
433157.93844742473
10
1238573.2468764307
20
433157.9658899518
10
1238572.4983902234
20
433157.97037108225
10
1238571.7499040156
20
433157.9864666876
10
1238571.0014178078
20
433158.0141767678
10
1238570.2529316
20
433158.0535013228
10
1238569.5044453926
20
433158.1044403527
10
1238568.7559591848
20
433158.20706059725
10
1238568.007472977
20
433158.36136205646
10
1238567.2589867692
20
433158.5673447303
10
1238566.510500562
20
433158.8250086188
10
1238565.8749531303
20
433159.0632865558
10
1238565.3523444748
20
433159.2821785414
10
1238564.9426745952
20
433159.48168457544
10
1238564.6459434915
20
433159.6618046578
10
1238564.310456388
20
433159.85775389493
10
1238563.9362132843
20
433160.0695322867
10
1238563.5232141803
20
433160.2971398332
10
1238563.0714590761
20
433160.54057653435
10
1238562.545521196
20
433160.7844919948
10
1238561.9454005403
20
433161.02888621466
10
1238561.2710971083
20
433161.2737591939
10
1238560.5226109005
20
433161.51911093254
10
1238559.7741246927
20
433161.73492447473
10
1238559.0256384849
20
433161.9211998204
10
1238558.2771522773
20
433162.0779369696
10
1238557.52866607
20
433162.2051359222
10
1238556.8691712962
20
433162.3336598405
10
1238556.2986679568
20
433162.46350872447
10
1238555.8171560515
20
433162.5946825741
10
1238555.4246355803
20
433162.7271813894
10
1238555.0412537928
20
433162.8630873668
10
1238554.667010689
20
433163.00240050623
10
1238554.3019062688
20
433163.14512080775
10
1238553.9459405323
20
433163.29124827124
10
1238553.491844678
20
433163.50783040375
10
1238552.9396187058
20
433163.794867205
10
1238552.2892626158
20
433164.15235867514
10
1238551.5407764085
20
433164.58030481415
10
1238550.792290201
20
433164.88311013044
10
1238550.0438039931
20
433165.060774624
10
1238549.2953177853
20
433165.11329829495
10
1238548.5468315776
20
433165.0406811434
10
1238547.8763606304
20
433164.8608541669
10
1238547.2839049438
20
433164.57381736557
10
1238546.7694645175
20
433164.17957073945
10
1238546.3330393513
20
433163.6781142886
10
1238545.9277052165
20
433163.21770283044
10
1238545.5534621128
20
433162.7983363649
10
1238545.21031004
20
433162.4200148921
10
1238544.898248998
20
433162.0827384121
10
1238544.579880025
20
433161.72697862005
10
1238544.2552031206
20
433161.35273551627
10
1238543.924218285
20
433160.96000910056
10
1238543.5869255178
20
433160.548799373
10
1238543.2311575823
20
433160.14706550934
10
1238542.8569144784
20
433159.7548075098
10
1238542.464196206
20
433159.3720253742
10
1238542.0530027654
20
433158.9987191028
10
1238541.5574861332
20
433158.7146227788
10
1238540.9776463092
20
433158.5197364023
10
1238540.3134832932
20
433158.4140599733
10
1238539.5649970858
20
433158.39759349194
10
1238539.00363243
20
433158.3852436309
10
1238538.629389326
20
433158.3770103903
10
1238538.4422677741
20
433158.37289376993
0
LWPOLYLINE
5
40
330
C
100
AcDbEntity
8
C-TOPO-MAJR-E
100
AcDbPolyline
90
196
70
0
43
0
38
0
39
0
10
1238642.6341778785
20
433113.90008300997
10
1238642.4885020424
20
433114.64856921765
10
1238642.267167884
20
433115.3970554253
10
1238641.9701754027
20
433116.14554163296
10
1238641.5975245992
20
433116.89402784064
10
1238641.2679017228
20
433117.50751529797
10
1238640.9813067738
20
433117.9860040049
10
1238640.7377397525
20
433118.3294939615
10
1238640.5372006583
20
433118.5379851677
10
1238640.1996747858
20
433118.75717444095
10
1238639.725162135
20
433118.9870617813
10
1238639.1136627055
20
433119.2276471887
10
1238638.3651764982
20
433119.4789306631
10
1238637.6166902906
20
433119.65792007645
10
1238636.8682040828
20
433119.76461542887
10
1238636.119717875
20
433119.7990167201
10
1238635.3712316672
20
433119.76112395024
10
1238634.6227454597
20
433119.7166430104
10
1238633.874259252
20
433119.6655739004
10
1238633.1257730443
20
433119.6079166203
10
1238632.377286837
20
433119.54367117025
10
1238631.6288006292
20
433119.4887381251
10
1238630.8803144214
20
433119.4431174848
10
1238630.1318282136
20
433119.40680924954
10
1238629.3833420062
20
433119.3798134192
10
1238628.6348557984
20
433119.3597874822
10
1238627.8863695906
20
433119.34673143853
10
1238627.1378833828
20
433119.34064528823
10
1238626.3893971755
20
433119.34152903117
10
1238625.6409109677
20
433119.33409159223
10
1238624.89242476
20
433119.3183329713
10
1238624.1439385521
20
433119.2942531683
10
1238623.3954523448
20
433119.2618521834
10
1238622.646966137
20
433119.21603667183
10
1238621.8984799294
20
433119.1568066337
10
1238621.1499937219
20
433119.0841620689
10
1238620.401507514
20
433118.99810297746
10
1238619.6530213063
20
433118.9290038742
10
1238618.9045350985
20
433118.876864759
10
1238618.156048891
20
433118.84168563195
10
1238617.4075626836
20
433118.82346649305
10
1238616.659076476
20
433118.8203646699
10
1238615.9105902682
20
433118.83238016267
10
1238615.1621040604
20
433118.8595129712
10
1238614.4136178526
20
433118.9017630955
10
1238613.6651316448
20
433118.9343675907
10
1238612.916645437
20
433118.95732645673
10
1238612.1681592294
20
433118.9706396936
10
1238611.419673022
20
433118.97430730134
10
1238610.6711868146
20
433118.9601042013
10
1238609.9227006068
20
433118.92803039355
10
1238609.174214399
20
433118.8780858781
10
1238608.4257281912
20
433118.8102706549
10
1238607.6828416302
20
433118.71617232077
10
1238606.945554716
20
433118.59579087567
10
1238606.2138674485
20
433118.4491263196
10
1238605.4877798278
20
433118.27617865265
10
1238604.9376144654
20
433118.14535506006
10
1238604.5633713617
20
433118.05665554194
10
1238604.3650505163
20
433118.0100800983
10
1238604.3426519295
20
433118.00562872906
10
1238604.1387314373
20
433117.9664896414
10
1238603.7532890402
20
433117.8926628352
10
1238603.1863247375
20
433117.7841483106
10
1238602.4378385302
20
433117.6409460676
10
1238601.6893523224
20
433117.5066454262
10
1238600.9408661146
20
433117.3812463865
10
1238600.1923799068
20
433117.26474894857
10
1238599.4438936994
20
433117.15715311235
10
1238598.6954074916
20
433117.0658039814
10
1238597.9469212838
20
433116.9907015557
10
1238597.198435076
20
433116.9318458353
10
1238596.4499488687
20
433116.8892368203
10
1238595.701462661
20
433116.8966834445
10
1238594.9529764534
20
433116.9541857081
10
1238594.2044902458
20
433117.061743611
10
1238593.456004038
20
433117.2193571531
10
1238592.8279834914
20
433117.37262854015
10
1238592.320428606
20
433117.52155777195
10
1238591.9333393816
20
433117.66614484857
10
1238591.666715818
20
433117.80638977
10
1238591.3462824845
20
433118.00124292274
10
1238590.9720393806
20
433118.2507043067
10
1238590.5439865065
20
433118.55477392185
10
1238590.0621238623
20
433118.9134517683
10
1238589.59266318
20
433119.2799122434
10
1238589.1356044598
20
433119.65415534726
10
1238588.6909477015
20
433120.0361810798
10
1238588.2586929053
20
433120.42598944105
10
1238587.8554439554
20
433120.7955109713
10
1238587.4812008515
20
433121.1447456705
10
1238587.1359635938
20
433121.47369353875
10
1238586.8197321822
20
433121.782354576
10
1238586.4680999941
20
433122.12380664656
10
1238586.0810670296
20
433122.49804975034
10
1238585.6586332885
20
433122.90508388745
10
1238585.2007987704
20
433123.34490905784
10
1238584.7847599597
20
433123.74626986
10
1238584.4105168558
20
433124.10916629387
10
1238584.078069459
20
433124.43359835946
10
1238583.7874177692
20
433124.71956605685
10
1238583.3950982029
20
433125.04967145744
10
1238582.9011107595
20
433125.4239145612
10
1238582.3054554397
20
433125.8422953683
10
1238581.6081322432
20
433126.30481387867
10
1238581.0723490932
20
433126.66203386907
10
1238580.6981059895
20
433126.91395533946
10
1238580.485402932
20
433127.06057828997
10
1238580.4342399205
20
433127.1019027205
10
1238580.2590816405
20
433127.3096864878
10
1238579.9599280918
20
433127.6839295916
10
1238579.5367792745
20
433128.2246320321
10
1238578.9896351884
20
433128.93179380917
10
1238578.7160631453
20
433129.6015202029
10
1238578.7160631453
20
433130.2338112133
10
1238578.9896351884
20
433130.82866684033
10
1238579.5367792745
20
433131.38608708396
10
1238580.0042807804
20
433131.8519187577
10
1238580.3921397068
20
433132.22616186156
10
1238580.7003560532
20
433132.50881639554
10
1238580.9289298193
20
433132.69988235953
10
1238581.0432167025
20
433132.9266778715
10
1238581.0432167025
20
433133.1892029315
10
1238580.9289298193
20
433133.48745753936
10
1238580.7003560532
20
433133.82144169515
10
1238580.3418041766
20
433134.0627936681
10
1238579.8532741894
20
433134.2115134582
10
1238579.2347660922
20
433134.2676010654
10
1238578.4862798846
20
433134.23105648963
10
1238577.737793677
20
433134.2013221291
10
1238576.9893074692
20
433134.1783979839
10
1238576.2408212614
20
433134.16228405386
10
1238575.492335054
20
433134.15298033913
10
1238574.7438488463
20
433134.15766106395
10
1238573.9953626385
20
433134.1763262283
10
1238573.2468764307
20
433134.20897583227
10
1238572.4983902234
20
433134.2556098758
10
1238571.7499040156
20
433134.3071014418
10
1238571.0014178078
20
433134.3634505302
10
1238570.2529316
20
433134.4246571411
10
1238569.5044453926
20
433134.49072127446
10
1238568.7559591848
20
433134.5489654999
10
1238568.007472977
20
433134.5993898174
10
1238567.2589867692
20
433134.6419942271
10
1238566.510500562
20
433134.6767787288
10
1238565.762014354
20
433134.69405048183
10
1238565.0135281463
20
433134.69380948634
10
1238564.2650419388
20
433134.6760557421
10
1238563.5165557312
20
433134.6407892492
10
1238562.7680695234
20
433134.5887358296
10
1238562.019583316
20
433134.51989548304
10
1238561.2710971083
20
433134.4342682098
10
1238560.5226109005
20
433134.33185400977
10
1238559.7741246927
20
433134.22995172086
10
1238559.0256384849
20
433134.12856134307
10
1238558.2771522773
20
433134.02768287645
10
1238557.52866607
20
433133.92731632106
10
1238556.7801798624
20
433133.8767327591
10
1238556.0316936546
20
433133.8759321908
10
1238555.2832074468
20
433133.92491461587
10
1238554.534721239
20
433134.0236800345
10
1238553.786811918
20
433134.2107914719
10
1238553.0394794839
20
433134.48624892783
10
1238552.2927239365
20
433134.8500524026
10
1238551.546545276
20
433135.3022018961
10
1238550.9863343937
20
433135.6418260904
10
1238550.6120912898
20
433135.86892498564
10
1238550.4238159643
20
433135.9834985818
10
1238550.4215084175
20
433135.98554687883
10
1238550.232656205
20
433136.1343789251
10
1238549.857259328
20
433136.42999472056
10
1238549.2953177853
20
433136.8723942652
10
1238548.5468315776
20
433137.46157755906
10
1238547.79834537
20
433137.86265660974
10
1238547.0498591624
20
433138.07563141733
10
1238546.3013729546
20
433138.1005019817
10
1238545.5528867473
20
433137.9372683029
10
1238544.9178591215
20
433137.7078435658
10
1238544.3962900776
20
433137.4122277703
10
1238543.9881796157
20
433137.0504209165
10
1238543.6935277362
20
433136.6224230044
10
1238543.3590802443
20
433136.18130831094
10
1238542.9848371404
20
433135.72707683616
10
1238542.5707984245
20
433135.2597285801
10
1238542.1169640967
20
433134.7792635426
10
1238541.7005642527
20
433134.351909472
10
1238541.321598893
20
433133.9776663681
10
1238540.980068017
20
433133.6565342311
10
1238540.675971625
20
433133.3885130609
10
1238540.3368018772
20
433133.1062918246
10
1238539.9625587733
20
433132.8098705222
10
1238539.5532423134
20
433132.49924915377
10
1238539.1088524978
20
433132.17442771926
10
1238538.775560136
20
433131.93081164337
10
1238538.553365228
20
433131.76840092614
10
1238538.4422677741
20
433131.6871955675
0
LWPOLYLINE
5
41
330
C
100
AcDbEntity
8
C-SITE-N
100
AcDbPolyline
90
6
70
1
43
0
38
0
39
0
10
1238570.7224206377
20
433303.8957080693
10
1238577.9549211676
20
433157.6166146889
10
1238732.520710672
20
433178.3753311554
10
1238738.0135052628
20
433228.5674623962
10
1238730.8872365921
20
433281.2093692891
10
1238570.7224206377
20
433303.8957080693
0
LWPOLYLINE
5
42
330
C
100
AcDbEntity
8
C-BLDG-FTPR-N
100
AcDbPolyline
90
5
70
1
43
0
38
0
39
0
10
1238731.7124498284
20
433234.0257632236
10
1238732.0194072209
20
433266.3402256701
10
1238694.8876822873
20
433266.692942584
10
1238694.5807248948
20
433234.3784801375
10
1238731.7124498284
20
433234.0257632236
0
LWPOLYLINE
5
43
330
C
100
AcDbEntity
8
C-PVMT
100
AcDbPolyline
90
5
70
1
43
0
38
0
39
0
10
1238782.0928639646
20
433245.1835959472
10
1238782.4452106997
20
433257.18868202146
10
1238731.9267233633
20
433256.5830766112
10
1238731.8127133313
20
433244.5808476692
10
1238782.0928639646
20
433245.1835959472
0
LWPOLYLINE
5
44
330
C
100
AcDbEntity
8
C-PVMT
100
AcDbPolyline
90
5
70
1
43
0
38
0
39
0
10
1238731.4186196856
20
433251.57662631175
10
1238736.4182604558
20
433251.6365609943
10
1238736.300788478
20
433261.4358569044
10
1238731.3011477077
20
433261.37592222187
10
1238731.4186196856
20
433251.57662631175
0
LWPOLYLINE
5
45
330
C
100
AcDbEntity
8
C-PVMT
100
AcDbPolyline
90
5
70
1
43
0
38
0
39
0
10
1238735.9782310615
20
433246.63092675555
10
1238735.8823355695
20
433254.6303519883
10
1238731.882622953
20
433254.5824042423
10
1238731.978518445
20
433246.58297900954
10
1238735.9782310615
20
433246.63092675555
0
LWPOLYLINE
5
46
330
C
100
AcDbEntity
8
C-PVMT
100
AcDbPolyline
90
5
70
1
43
0
38
0
39
0
10
1238786.915794643
20
433165.5012097707
10
1238785.3790864607
20
433293.69057456875
10
1238782.3793019983
20
433293.65461375925
10
1238783.9160101807
20
433165.4652489612
10
1238786.915794643
20
433165.5012097707
0
LWPOLYLINE
5
47
330
C
100
AcDbEntity
8
C-TOPO-SURF
100
AcDbPolyline
90
5
70
1
43
0
38
0
39
0
10
1238790.9155072595
20
433165.5491575167
10
1238789.3787990771
20
433293.73852231476
10
1238785.3790864607
20
433293.69057456875
10
1238786.915794643
20
433165.5012097707
10
1238790.9155072595
20
433165.5491575167
0
LWPOLYLINE
5
48
330
C
100
AcDbEntity
8
C-PVMT
100
AcDbPolyline
90
5
70
1
43
0
38
0
39
0
10
1238792.4153994906
20
433165.56713792146
10
1238790.8786913082
20
433293.75650271954
10
1238789.3787990771
20
433293.73852231476
10
1238790.9155072595
20
433165.5491575167
10
1238792.4153994906
20
433165.56713792146
0
LWPOLYLINE
5
49
330
C
100
AcDbEntity
8
C-PVMT
100
AcDbPolyline
90
5
70
1
43
0
38
0
39
0
10
1238788.00448799
20
433260.02127885947
10
1238787.4785117246
20
433242.0289652515
10
1238779.0698041206
20
433245.276061867
10
1238779.4204549643
20
433257.27093760564
10
1238788.00448799
20
433260.02127885947
0
LWPOLYLINE
5
4A
330
C
100
AcDbEntity
8
C-LODS
100
AcDbPolyline
90
9
70
1
43
0
38
0
39
0
10
1238694.5807248948
20
433234.3784801375
10
1238783.9160101807
20
433165.4652489612
10
1238786.915794643
20
433165.5012097707
10
1238790.9155072595
20
433165.5491575167
10
1238792.4153994906
20
433165.56713792146
10
1238790.8786913082
20
433293.75650271954
10
1238782.3793019983
20
433293.65461375925
10
1238694.8876822873
20
433266.692942584
10
1238694.5807248948
20
433234.3784801375
0
LWPOLYLINE
5
4B
330
C
100
AcDbEntity
8
C-SITE-N
100
AcDbPolyline
90
21
70
1
43
0
38
0
39
0
10
1238781.8354908184
20
433290.16312082356
10
1238780.5327826594
20
433281.03532360087
10
1238779.3902078958
20
433271.9833362322
10
1238778.425843319
20
433263.036098488
10
1238777.6751264168
20
433254.2120320437
10
1238777.1891134323
20
433245.5089806745
10
1238777.0149515343
20
433236.8850731428
10
1238777.0946632652
20
433228.74160546775
10
1238777.4612347411
20
433220.53819646715
10
1238778.0761534902
20
433212.2310814715
10
1238778.8950076234
20
433203.8100099073
10
1238779.882583359
20
433195.2879301353
10
1238781.0196312994
20
433186.6869422856
10
1238782.2960961945
20
433178.0295050709
10
1238783.7087755015
20
433169.3372270054
10
1238558.890062713
20
433136.83591331996
10
1238556.4844164148
20
433190.6040007615
10
1238552.3950778053
20
433267.0378245392
10
1238549.541886835
20
433316.2465376618
10
1238548.9826833343
20
433325.5741122486
10
1238781.8354908184
20
433290.16312082356
0
POINT
5
4C
330
C
100
AcDbEntity
8
C-TOPO-SPOT
100
AcDbPoint
10
1238727.7259488003
20
433236.30006027356
30
0
0
LWPOLYLINE
5
4D
330
C
100
AcDbEntity
8
C-UTIL
100
AcDbPolyline
90
2
70
0
43
0
38
0
39
0
10
1238796.3820203529
20
433245.7762543701
10
1238731.7409457576
20
433237.0256278842
0
LWPOLYLINE
5
4E
330
C
100
AcDbEntity
8
C-UTIL
100
AcDbPolyline
90
2
70
0
43
0
38
0
39
0
10
1238795.0544258456
20
433255.5832248433
10
1238731.8359321882
20
433247.02517675294
0
LWPOLYLINE
5
4F
330
C
100
AcDbEntity
8
C-SWMG
100
AcDbPolyline
90
5
70
1
43
0
38
0
39
0
10
1238560.582053157
20
433140.29799021914
10
1238581.173313439
20
433140.29799021914
10
1238581.173313439
20
433160.8892505011
10
1238560.582053157
20
433160.8892505011
10
1238560.582053157
20
433140.29799021914
0
LWPOLYLINE
5
50
330
C
100
AcDbEntity
8
C-STRM-AREA
100
AcDbPolyline
90
21
70
1
43
0
38
0
39
0
10
1238785.3790864607
20
433293.69057456875
10
1238784.3478410998
20
433284.267247037
10
1238783.5043075557
20
433274.8248470959
10
1238782.848567653
20
433265.36837408604
10
1238782.381653912
20
433255.8998113356
10
1238782.1046479987
20
433246.4241418229
10
1238782.0145993866
20
433236.9444141352
10
1238782.0370731093
20
433227.98491204676
10
1238782.227604929
20
433219.02766171645
10
1238782.5872274349
20
433210.0746464815
10
1238783.116006037
20
433201.12986580824
10
1238783.8130063035
20
433192.19733545516
10
1238784.6792771334
20
433183.28003865195
10
1238785.7138514046
20
433174.3799914972
10
1238786.915794643
20
433165.5012097707
10
1238554.582053157
20
433134.29799021914
10
1238551.6534640908
20
433189.314853895
10
1238547.4701873616
20
433267.90122138784
10
1238544.980017661
20
433318.29332774365
10
1238544.509571009
20
433327.80822641886
10
1238785.3790864607
20
433293.69057456875
0
LWPOLYLINE
5
51
330
C
100
AcDbEntity
8
C-SITE-N
100
AcDbPolyline
90
5
70
1
43
0
38
0
39
0
10
1238694.5807248948
20
433218.3784801375
10
1238724.5807248948
20
433218.3784801375
10
1238724.5807248948
20
433234.3784801375
10
1238694.5807248948
20
433234.3784801375
10
1238694.5807248948
20
433218.3784801375
0
LWPOLYLINE
5
52
330
C
100
AcDbEntity
8
L-PLNT-TREE
100
AcDbPolyline
90
5
70
1
43
0
38
0
39
0
10
1238786.269628933
20
433165.61134529737
10
1238796.269628933
20
433165.61134529737
10
1238796.269628933
20
433175.61134529737
10
1238786.269628933
20
433175.61134529737
10
1238786.269628933
20
433165.61134529737
0
LWPOLYLINE
5
53
330
C
100
AcDbEntity
8
L-PLNT-TREE
100
AcDbPolyline
90
5
70
1
43
0
38
0
39
0
10
1238758.982542812
20
433241.0926349677
10
1238770.982542812
20
433241.0926349677
10
1238770.982542812
20
433253.0926349677
10
1238758.982542812
20
433253.0926349677
10
1238758.982542812
20
433241.0926349677
0
LWPOLYLINE
5
54
330
C
100
AcDbEntity
8
L-PLNT-TREE
100
AcDbPolyline
90
5
70
1
43
0
38
0
39
0
10
1238752.5517621934
20
433265.0926349677
10
1238764.5517621934
20
433265.0926349677
10
1238764.5517621934
20
433277.0926349677
10
1238752.5517621934
20
433277.0926349677
10
1238752.5517621934
20
433265.0926349677
0
LWPOLYLINE
5
55
330
C
100
AcDbEntity
8
L-PLNT-TREE
100
AcDbPolyline
90
5
70
1
43
0
38
0
39
0
10
1238734.982542812
20
433282.66185434937
10
1238746.982542812
20
433282.66185434937
10
1238746.982542812
20
433294.66185434937
10
1238734.982542812
20
433294.66185434937
10
1238734.982542812
20
433282.66185434937
0
ENDSEC
0
SECTION
2
OBJECTS
0
DICTIONARY
5
A
330
0
100
AcDbDictionary
281
1
3
ACAD_GROUP
350
B
0
DICTIONARY
5
B
330
A
100
AcDbDictionary
281
0
0
ENDSEC
0
EOF