0
SECTION
2
HEADER
9
$ACADVER
1
AC1021
9
$LASTSAVEDBY
1
@tarikjabiri/dxf
9
$HANDSEED
5
55
9
$INSUNITS
70
0
9
$CLAYER
8
0
9
$VIEWCTR
10
1161687.1580262445
20
500002.35189148155
0
ENDSEC
0
SECTION
2
CLASSES
0
ENDSEC
0
SECTION
2
TABLES
0
TABLE
2
VPORT
5
1
330
0
100
AcDbSymbolTable
70
1
0
VPORT
5
19
330
1
100
AcDbSymbolTableRecord
100
AcDbViewportTableRecord
2
*Active
70
0
10
0
20
0
11
1
21
1
12
1161687.1580262445
22
500002.35189148155
13
0
23
0
14
10
24
10
15
10
25
10
16
0
26
0
36
1
17
0
27
0
37
0
40
412.72199984040344
41
2
42
50
43
0
44
0
50
0
51
0
71
0
72
100
73
1
74
3
75
0
76
1
77
0
78
0
281
0
65
1
110
0
120
0
130
0
111
1
121
0
131
0
112
0
122
1
132
0
79
0
146
0
348
10020
60
7
61
5
292
1
282
1
141
0
142
0
63
250
421
3358443
0
ENDTAB
0
TABLE
2
LTYPE
5
2
330
0
100
AcDbSymbolTable
70
7
0
LTYPE
5
12
330
2
100
AcDbSymbolTableRecord
100
AcDbLinetypeTableRecord
2
ByBlock
70
0
3

72
65
73
0
40
0
0
LTYPE
5
13
330
2
100
AcDbSymbolTableRecord
100
AcDbLinetypeTableRecord
2
ByLayer
70
0
3

72
65
73
0
40
0
0
LTYPE
5
14
330
2
100
AcDbSymbolTableRecord
100
AcDbLinetypeTableRecord
2
Continuous
70
0
3
Solid line
72
65
73
0
40
0
0
LTYPE
5
1A
330
2
100
AcDbSymbolTableRecord
100
AcDbLinetypeTableRecord
2
DASHED
70
0
3
Dashed __ __ __ __ __ __
72
65
73
2
40
6
49
4
74
0
49
-2
74
0
0
LTYPE
5
1B
330
2
100
AcDbSymbolTableRecord
100
AcDbLinetypeTableRecord
2
HIDDEN
70
0
3
Hidden __ __ __ __ __
72
65
73
2
40
3
49
2
74
0
49
-1
74
0
0
LTYPE
5
1C
330
2
100
AcDbSymbolTableRecord
100
AcDbLinetypeTableRecord
2
PHANTOM
70
0
3
Phantom ____ _ _ ____ _ _
72
65
73
6
40
13
49
8
74
0
49
-1
74
0
49
1
74
0
49
-1
74
0
49
1
74
0
49
-1
74
0
0
LTYPE
5
1D
330
2
100
AcDbSymbolTableRecord
100
AcDbLinetypeTableRecord
2
DASHDOT
70
0
3
Dash dot __ . __ . __ .
72
65
73
4
40
8
49
4
74
0
49
-2
74
0
49
0
74
0
49
-2
74
0
0
ENDTAB
0
TABLE
2
LAYER
5
3
330
0
100
AcDbSymbolTable
70
14
0
LAYER
5
15
330
3
100
AcDbSymbolTableRecord
100
AcDbLayerTableRecord
2
0
70
0
62
7
6
Continuous
370
0
390
0
0
LAYER
5
1E
330
3
100
AcDbSymbolTableRecord
100
AcDbLayerTableRecord
2
C-BLDG-FTPR-N
70
0
62
6
6
Continuous
370
0
390
0
0
LAYER
5
1F
330
3
100
AcDbSymbolTableRecord
100
AcDbLayerTableRecord
2
C-LODS
70
0
62
30
6
PHANTOM
370
0
390
0
0
LAYER
5
20
330
3
100
AcDbSymbolTableRecord
100
AcDbLayerTableRecord
2
C-PVMT
70
0
62
8
6
Continuous
370
0
390
0
0
LAYER
5
21
330
3
100
AcDbSymbolTableRecord
100
AcDbLayerTableRecord
2
C-SITE-N
70
0
62
6
6
Continuous
370
0
390
0
0
LAYER
5
22
330
3
100
AcDbSymbolTableRecord
100
AcDbLayerTableRecord
2
C-STRM-AREA
70
0
62
150
6
PHANTOM
370
0
390
0
0
LAYER
5
23
330
3
100
AcDbSymbolTableRecord
100
AcDbLayerTableRecord
2
C-SWMG
70
0
62
92
6
Continuous
370
0
390
0
0
LAYER
5
24
330
3
100
AcDbSymbolTableRecord
100
AcDbLayerTableRecord
2
C-TOPO-MAJR-E
70
0
62
32
6
DASHED
370
0
390
0
0
LAYER
5
25
330
3
100
AcDbSymbolTableRecord
100
AcDbLayerTableRecord
2
C-TOPO-SPOT
70
0
62
7
6
Continuous
370
0
390
0
0
LAYER
5
26
330
3
100
AcDbSymbolTableRecord
100
AcDbLayerTableRecord
2
C-TOPO-SURF
70
0
62
253
6
Continuous
370
0
390
0
0
LAYER
5
27
330
3
100
AcDbSymbolTableRecord
100
AcDbLayerTableRecord
2
C-UTIL
70
0
62
4
6
DASHED
370
0
390
0
0
LAYER
5
28
330
3
100
AcDbSymbolTableRecord
100
AcDbLayerTableRecord
2
L-PLNT-TREE
70
0
62
90
6
Continuous
370
0
390
0
0
LAYER
5
29
330
3
100
AcDbSymbolTableRecord
100
AcDbLayerTableRecord
2
V-PROP-BNDY
70
0
62
7
6
Continuous
370
0
390
0
0
LAYER
5
2A
330
3
100
AcDbSymbolTableRecord
100
AcDbLayerTableRecord
2
C-ANNO-NPLT
70
0
62
250
6
Continuous
370
0
390
0
0
ENDTAB
0
TABLE
2
STYLE
5
4
330
0
100
AcDbSymbolTable
70
1
0
STYLE
5
16
330
4
100
AcDbSymbolTableRecord
100
AcDbTextStyleTableRecord
2
Standard
70
0
40
0
41
1
50
0
71
0
42
1
3
txt
4

0
ENDTAB
0
TABLE
2
VIEW
5
5
330
0
100
AcDbSymbolTable
70
0
0
ENDTAB
0
TABLE
2
UCS
5
6
330
0
100
AcDbSymbolTable
70
0
0
ENDTAB
0
TABLE
2
APPID
5
7
330
0
100
AcDbSymbolTable
70
1
0
APPID
5
17
330
7
100
AcDbSymbolTableRecord
100
AcDbRegAppTableRecord
2
ACAD
70
0
0
ENDTAB
0
TABLE
2
DIMSTYLE
5
8
330
0
100
AcDbSymbolTable
70
1
100
AcDbDimStyleTable
0
DIMSTYLE
105
18
330
8
100
AcDbSymbolTableRecord
100
AcDbDimStyleTableRecord
2
Standard
70
0
340
16
0
ENDTAB
0
TABLE
2
BLOCK_RECORD
5
9
330
0
100
AcDbSymbolTable
70
2
0
BLOCK_RECORD
5
C
330
9
100
AcDbSymbolTableRecord
100
AcDbBlockTableRecord
2
*Model_Space
70
0
280
1
281
0
0
BLOCK_RECORD
5
F
330
9
100
AcDbSymbolTableRecord
100
AcDbBlockTableRecord
2
*Paper_Space
70
0
280
1
281
0
0
ENDTAB
0
ENDSEC
0
SECTION
2
BLOCKS
0
BLOCK
5
D
330
C
100
AcDbEntity
8
0
100
AcDbBlockBegin
2
*Model_Space
70
0
10
0
20
0
30
0
3
*Model_Space
1

0
ENDBLK
5
E
100
AcDbEntity
8
0
100
AcDbBlockEnd
0
BLOCK
5
10
330
F
100
AcDbEntity
8
0
100
AcDbBlockBegin
2
*Paper_Space
70
0
10
0
20
0
30
0
3
*Paper_Space
1

0
ENDBLK
5
11
100
AcDbEntity
8
0
100
AcDbBlockEnd
0
ENDSEC
0
SECTION
2
ENTITIES
0
TEXT
5
2B
330
C
100
AcDbEntity
8
C-ANNO-NPLT
100
AcDbText
10
1161626.2686579963
20
499915.9908915613
30
0
40
2.5
1
PRELIMINARY - NOT SEALED - NOT FOR CONSTRUCTION OR PERMIT SUBMISSION
7
STANDARD
100
AcDbText
0
TEXT
5
2C
330
C
100
AcDbEntity
8
C-ANNO-NPLT
100
AcDbText
10
1161626.2686579963
20
499911.9908915613
30
0
40
2.5
1
GENERATED 2026-09-26T16:16:01.018Z BY KEALEE SITE PLAN ENGINE
7
STANDARD
100
AcDbText
0
TEXT
5
2D
330
C
100
AcDbEntity
8
C-ANNO-NPLT
100
AcDbText
10
1161626.2686579963
20
499907.9908915613
30
0
40
2.5
1
HORIZONTAL: EPSG:2248
7
STANDARD
100
AcDbText
0
TEXT
5
2E
330
C
100
AcDbEntity
8
C-ANNO-NPLT
100
AcDbText
10
1161626.2686579963
20
499903.9908915613
30
0
40
2.5
1
VERTICAL: NAVD88 (feet)
7
STANDARD
100
AcDbText
0
TEXT
5
2F
330
C
100
AcDbEntity
8
C-ANNO-NPLT
100
AcDbText
10
1161626.2686579963
20
499899.9908915613
30
0
40
2.5
1
SOURCES: Parcel boundary — jurisdiction gis (Loudoun County — parcel boundaries — AVONMORE, Plat 2023-0020, Lot 8, level 1); Existing contours (U.S. Geological Survey — 3D Elevation Program — 3DEP bare-earth DEM — VA_NorthernVA_B22, level 1)
7
STANDARD
100
AcDbText
0
TEXT
5
30
330
C
100
AcDbEntity
8
C-ANNO-NPLT
100
AcDbText
10
1161626.2686579963
20
499895.9908915613
30
0
40
2.5
1
THIS FILE IS DATA FOR A LICENSED PROFESSIONAL. IT IS NOT A SEALED DRAWING.
7
STANDARD
100
AcDbText
0
LWPOLYLINE
5
31
330
C
100
AcDbEntity
8
V-PROP-BNDY
100
AcDbPolyline
90
17
70
1
43
0
38
0
39
0
10
1161787.5103003564
20
500116.1940218128
10
1161785.1921108565
20
500091.3025111112
10
1161790.795154849
20
499956.42145872884
10
1161646.376251837
20
499981.797838985
10
1161685.4527163955
20
500142.1998676217
10
1161704.586612193
20
500138.39937976736
10
1161723.9757535006
20
500136.2520848011
10
1161743.4775711866
20
500135.7737718689
10
1161745.9189017462
20
500135.6255555816
10
1161748.3065204606
20
500135.09514079697
10
1161750.580972716
20
500134.19573548913
10
1161752.685621881
20
500132.9497359457
10
1161754.5680596277
20
500131.3881690728
10
1161761.7100034396
20
500125.5339709231
10
1161769.737825617
20
500120.9696452909
10
1161778.4210293512
20
500117.8262442187
10
1161787.5103003564
20
500116.1940218128
0
LWPOLYLINE
5
32
330
C
100
AcDbEntity
8
C-TOPO-MAJR-E
100
AcDbPolyline
90
67
70
0
43
0
38
0
39
0
10
1161635.2302782843
20
499935.9908915613
10
1161635.023722928
20
499936.73937776894
10
1161634.8200719235
20
499937.4878639766
10
1161634.6193252709
20
499938.23635018425
10
1161634.4458434698
20
499938.882474571
10
1161634.2996265204
20
499939.4262371368
10
1161634.1806744225
20
499939.8676378817
10
1161634.0889871763
20
499940.20667680574
10
1161633.9932536995
20
499940.5633178196
10
1161633.8934739917
20
499940.9375609235
10
1161633.7896480528
20
499941.32940611726
10
1161633.681775883
20
499941.7388534009
10
1161633.5456086637
20
499942.2330604156
10
1161633.381146395
20
499942.81202716136
10
1161633.1883890769
20
499943.475753638
10
1161632.9673367094
20
499944.22423984564
10
1161632.7649986066
20
499944.9727260533
10
1161632.5813747686
20
499945.72121226095
10
1161632.4164651958
20
499946.46969846863
10
1161632.2702698875
20
499947.21818467637
10
1161632.141519982
20
499947.96667088405
10
1161632.0302154794
20
499948.7151570917
10
1161631.9363563792
20
499949.46364329936
10
1161631.859942682
20
499950.21212950704
10
1161631.7702120538
20
499950.9606157147
10
1161631.6671644943
20
499951.70910192234
10
1161631.5508000043
20
499952.45758813
10
1161631.421118583
20
499953.2060743377
10
1161631.3070397063
20
499953.83059029083
10
1161631.2085633741
20
499954.3311359895
10
1161631.1256895862
20
499954.70771143376
10
1161631.0584183424
20
499954.96031662344
10
1161630.9670649222
20
499955.2737407703
10
1161630.8516293261
20
499955.6479838741
10
1161630.7121115534
20
499956.08304593497
10
1161630.5485116045
20
499956.5789269529
10
1161630.393456088
20
499957.1379592683
10
1161630.2469450035
20
499957.76014288113
10
1161630.1089783513
20
499958.44547779136
10
1161629.9795561314
20
499959.19396399905
10
1161629.861277378
20
499959.9424502067
10
1161629.7541420907
20
499960.69093641435
10
1161629.65815027
20
499961.43942262203
10
1161629.5733019158
20
499962.1879088297
10
1161629.4765051983
20
499962.9363950374
10
1161629.3677601174
20
499963.684881245
10
1161629.2470666734
20
499964.4333674527
10
1161629.1144248662
20
499965.18185366044
10
1161628.9671402352
20
499965.9303398681
10
1161628.8052127806
20
499966.67882607575
10
1161628.6286425027
20
499967.4273122834
10
1161628.4374294016
20
499968.17579849105
10
1161628.2823293814
20
499968.7753730654
10
1161628.1633424428
20
499969.22603600635
10
1161628.0804685857
20
499969.52778731403
10
1161628.0337078099
20
499969.68062698835
10
1161627.9531187112
20
499969.94416837743
10
1161627.8387012896
20
499970.3184114813
10
1161627.6904555452
20
499970.8033562999
10
1161627.5083814776
20
499971.3990028332
10
1161627.321037517
20
499972.03285928513
10
1161627.1284236629
20
499972.7049256557
10
1161626.9305399158
20
499973.41520194476
10
1161626.7273862753
20
499974.16368815245
10
1161626.5493547418
20
499974.9121743601
10
1161626.3964453156
20
499975.66066056775
10
1161626.2686579963
20
499976.40914677543
0
LWPOLYLINE
5
33
330
C
100
AcDbEntity
8
C-TOPO-MAJR-E
100
AcDbPolyline
90
168
70
0
43
0
38
0
39
0
10
1161645.387195086
20
499936.2202577154
10
1161645.1764076848
20
499936.81583315367
10
1161644.9326677239
20
499937.4878639766
10
1161644.6559752026
20
499938.23635018425
10
1161644.3956159865
20
499938.9848363919
10
1161644.1515900753
20
499939.73332259967
10
1161643.923897469
20
499940.48180880735
10
1161643.7125381674
20
499941.2302950149
10
1161643.5251306654
20
499941.9375106469
10
1161643.3616749626
20
499942.6034557031
10
1161643.2221710593
20
499943.22813018353
10
1161643.1066189555
20
499943.8115340882
10
1161643.0116352371
20
499944.2903575925
10
1161642.9372199043
20
499944.6646006963
10
1161642.8833729571
20
499944.9342633997
10
1161642.8500943955
20
499945.0993457027
10
1161642.7695072433
20
499945.41027898184
10
1161642.6416115004
20
499945.8670632371
10
1161642.4664071673
20
499946.46969846863
10
1161642.2438942434
20
499947.21818467637
10
1161642.0282427117
20
499947.96667088405
10
1161641.8194525721
20
499948.7151570917
10
1161641.6175238246
20
499949.46364329936
10
1161641.4224564692
20
499950.21212950704
10
1161641.2315581245
20
499950.9606157147
10
1161641.0448287907
20
499951.70910192234
10
1161640.8622684677
20
499952.45758813
10
1161640.6838771559
20
499953.2060743377
10
1161640.5240799142
20
499953.9545605454
10
1161640.3828767433
20
499954.70304675295
10
1161640.2602676428
20
499955.45153296064
10
1161640.1562526128
20
499956.2000191683
10
1161640.0744360841
20
499956.7930250078
10
1161640.014818057
20
499957.23055047914
10
1161639.9773985308
20
499957.5125955823
10
1161639.9621775062
20
499957.63916031725
10
1161639.9331777373
20
499957.8895642367
10
1161639.8903992241
20
499958.26380734047
10
1161639.833841967
20
499958.7618896288
10
1161639.763505966
20
499959.3838111015
10
1161639.6763407607
20
499960.0373737579
10
1161639.5723463506
20
499960.7225775981
10
1161639.4515227368
20
499961.43942262203
10
1161639.3138699185
20
499962.1879088297
10
1161639.1732081906
20
499962.9363950374
10
1161639.0295375527
20
499963.684881245
10
1161638.8828580054
20
499964.4333674527
10
1161638.7331695487
20
499965.18185366044
10
1161638.5854399279
20
499965.9303398681
10
1161638.4396691436
20
499966.67882607575
10
1161638.2958571957
20
499967.4273122834
10
1161638.154004084
20
499968.17579849105
10
1161638.0127484968
20
499968.9242846987
10
1161637.8720904342
20
499969.6727709065
10
1161637.7320298958
20
499970.4212571141
10
1161637.5925668823
20
499971.1697433217
10
1161637.4606767031
20
499971.9182295294
10
1161637.3363593593
20
499972.6667157371
10
1161637.21961485
20
499973.41520194476
10
1161637.1104431758
20
499974.16368815245
10
1161637.028484137
20
499974.72587820736
10
1161636.9737377341
20
499975.10177210945
10
1161636.946203967
20
499975.29136985884
10
1161636.9458828354
20
499975.2946714554
10
1161636.9281823696
20
499975.4834438056
10
1161636.893102569
20
499975.85768690944
10
1161636.8406434339
20
499976.41740076686
10
1161636.7708049645
20
499977.16258537804
10
1161636.713105875
20
499977.9085953883
10
1161636.667546166
20
499978.6554307976
10
1161636.6341258371
20
499979.40309160616
10
1161636.6128448881
20
499980.15157781384
10
1161636.5928762308
20
499980.9000640215
10
1161636.5742198648
20
499981.64855022915
10
1161636.5568757907
20
499982.3970364368
10
1161636.540844008
20
499983.1455226445
10
1161636.5115082352
20
499983.8940088522
10
1161636.4688684726
20
499984.64249505976
10
1161636.4129247195
20
499985.39098126744
10
1161636.3436769764
20
499986.1394674751
10
1161636.2667619013
20
499986.8879536828
10
1161636.1821794938
20
499987.6364398904
10
1161636.0899297546
20
499988.3849260981
10
1161635.9900126832
20
499989.1334123058
10
1161635.8583358189
20
499989.8818985135
10
1161635.6948991618
20
499990.63038472115
10
1161635.4997027116
20
499991.37887092883
10
1161635.2727464687
20
499992.1273571365
10
1161635.0412257991
20
499992.8639776537
10
1161634.805140703
20
499993.58873248025
10
1161634.5644911805
20
499994.30162161635
10
1161634.319277231
20
499995.002645062
10
1161634.1308809584
20
499995.5402783367
10
1161633.9993023616
20
499995.9145214405
10
1161633.9245414413
20
499996.12537437346
10
1161633.9065981973
20
499996.17283713556
10
1161633.8371151118
20
499996.3955557591
10
1161633.7160921851
20
499996.7935302439
10
1161633.5435294171
20
499997.36676059023
10
1161633.3194268078
20
499998.11524679785
10
1161633.1099891434
20
499998.8637330055
10
1161632.915216424
20
499999.6122192133
10
1161632.7351086496
20
500000.3607054209
10
1161632.56966582
20
500001.1091916285
10
1161632.4144753132
20
500001.8576778362
10
1161632.2695371285
20
500002.6061640438
10
1161632.1348512664
20
500003.3546502515
10
1161632.010417727
20
500004.10313645925
10
1161631.8918427965
20
500004.85162266693
10
1161631.7791264753
20
500005.60010887455
10
1161631.6722687632
20
500006.34859508224
10
1161631.5712696603
20
500007.0970812899
10
1161631.4790523238
20
500007.8455674976
10
1161631.395616754
20
500008.5940537053
10
1161631.3209629508
20
500009.34253991296
10
1161631.2550909142
20
500010.09102612064
10
1161631.193263675
20
500010.7686131845
10
1161631.1354812342
20
500011.37530110456
10
1161631.0817435908
20
500011.9110898808
10
1161631.032050745
20
500012.3759795132
10
1161630.9866549664
20
500012.7955458814
10
1161630.945556254
20
500013.1697889852
10
1161630.9087546084
20
500013.49870882474
10
1161630.8762500298
20
500013.7823053999
10
1161630.8320934502
20
500014.1821243833
10
1161630.77628487
20
500014.6981657747
10
1161630.7088242895
20
500015.33042957424
10
1161630.629711708
20
500016.0789157819
10
1161630.5529172579
20
500016.8274019896
10
1161630.478440938
20
500017.5758881972
10
1161630.4062827493
20
500018.3243744049
10
1161630.336442691
20
500019.0728606126
10
1161630.2455125696
20
500019.8213468203
10
1161630.1334923848
20
500020.56983302796
10
1161630.0003821368
20
500021.31831923564
10
1161629.8461818253
20
500022.0668054433
10
1161629.6858898907
20
500022.815291651
10
1161629.5195063327
20
500023.5637778586
10
1161629.3470311514
20
500024.3122640663
10
1161629.1684643473
20
500025.06075027405
10
1161628.9886739147
20
500025.8092364817
10
1161628.8076598537
20
500026.55772268935
10
1161628.6254221648
20
500027.30620889703
10
1161628.4419608475
20
500028.05469510466
10
1161628.2916647203
20
500028.68949543184
10
1161628.1745337837
20
500029.21060987853
10
1161628.090568037
20
500029.61803844466
10
1161628.0397674807
20
500029.91178113036
10
1161627.9810675425
20
500030.24577402516
10
1161627.9144682218
20
500030.62001712894
10
1161627.839969519
20
500031.0345104418
10
1161627.7575714346
20
500031.4892539638
10
1161627.680228682
20
500032.0174331572
10
1161627.607941262
20
500032.6190480221
10
1161627.540709174
20
500033.2940985583
10
1161627.4785324181
20
500034.04258476605
10
1161627.4204534919
20
500034.79107097373
10
1161627.3664723951
20
500035.53955718136
10
1161627.3165891278
20
500036.28804338904
10
1161627.2708036895
20
500037.0365295967
10
1161627.205472401
20
500037.7850158044
10
1161627.1205952622
20
500038.533502012
10
1161627.0161722726
20
500039.2819882197
10
1161626.892203433
20
500040.0304744274
10
1161626.7614520718
20
500040.77896063507
10
1161626.6239181892
20
500041.52744684275
10
1161626.4796017848
20
500042.27593305043
10
1161626.3285028592
20
500043.0244192581
0
LWPOLYLINE
5
34
330
C
100
AcDbEntity
8
C-TOPO-MAJR-E
100
AcDbPolyline
90
352
70
0
43
0
38
0
39
0
10
1161656.8070874966
20
499935.9908915613
10
1161656.5412975473
20
499936.73937776894
10
1161656.276577782
20
499937.4878639766
10
1161656.0129282002
20
499938.23635018425
10
1161655.7709170324
20
499938.92109700985
10
1161655.5505442785
20
499939.54210445343
10
1161655.3518099382
20
499940.0993725149
10
1161655.1747140118
20
499940.59290119435
10
1161655.0171935346
20
499941.026787086
10
1161654.8792485066
20
499941.40103018977
10
1161654.7608789278
20
499941.7156305058
10
1161654.6620847979
20
499941.97058803414
10
1161654.5454992033
20
499942.3489277322
10
1161654.4111221442
20
499942.8506496002
10
1161654.25895362
20
499943.475753638
10
1161654.0889936308
20
499944.22423984564
10
1161653.9409906701
20
499944.9727260533
10
1161653.8149447378
20
499945.72121226095
10
1161653.7108558335
20
499946.46969846863
10
1161653.6287239576
20
499947.21818467637
10
1161653.5268899482
20
499947.96667088405
10
1161653.4053538053
20
499948.7151570917
10
1161653.2641155291
20
499949.46364329936
10
1161653.1031751195
20
499950.21212950704
10
1161652.934577982
20
499950.9606157147
10
1161652.758324117
20
499951.70910192234
10
1161652.574413524
20
499952.45758813
10
1161652.3828462032
20
499953.2060743377
10
1161652.2278975921
20
499953.8218522399
10
1161652.1095676906
20
499954.3049218367
10
1161652.0278564983
20
499954.65528312814
10
1161651.9827640157
20
499954.8729361141
10
1161651.9202539027
20
499955.16888415895
10
1161651.8403261593
20
499955.54312726285
10
1161651.742980786
20
499955.9956654256
10
1161651.6282177826
20
499956.52649864723
10
1161651.4870008489
20
499957.1117451154
10
1161651.3193299852
20
499957.7514048302
10
1161651.1252051916
20
499958.44547779136
10
1161650.9046264677
20
499959.19396399905
10
1161650.6954471925
20
499959.9424502067
10
1161650.4976673662
20
499960.69093641435
10
1161650.311286988
20
499961.43942262203
10
1161650.1363060581
20
499962.1879088297
10
1161649.9714106352
20
499962.9363950374
10
1161649.8166007183
20
499963.684881245
10
1161649.6718763083
20
499964.4333674527
10
1161649.5372374046
20
499965.18185366044
10
1161649.4104070864
20
499965.9303398681
10
1161649.2913853533
20
499966.67882607575
10
1161649.180172206
20
499967.4273122834
10
1161649.076767644
20
499968.17579849105
10
1161648.9991842012
20
499968.73743778444
10
1161648.9474218776
20
499969.11223016365
10
1161648.9214806734
20
499969.3001756285
10
1161648.9213605884
20
499969.3012741791
10
1161648.8995993985
20
499969.4889450063
10
1161648.8561971039
20
499969.8631881102
10
1161648.7911537047
20
499970.4240034906
10
1161648.7044692005
20
499971.17139114765
10
1161648.6173712807
20
499971.91905344237
10
1161648.5298599456
20
499972.66699037474
10
1161648.4419351947
20
499973.41520194476
10
1161648.3535970277
20
499974.16368815245
10
1161648.2697917046
20
499974.9121743601
10
1161648.1905192253
20
499975.66066056775
10
1161648.115779589
20
499976.40914677543
10
1161648.0455727964
20
499977.1576329832
10
1161647.9692470636
20
499977.90611919085
10
1161647.8868023916
20
499978.6546053985
10
1161647.7982387794
20
499979.40309160616
10
1161647.7035562277
20
499980.15157781384
10
1161647.5803669307
20
499980.9000640215
10
1161647.428670888
20
499981.64855022915
10
1161647.2484681003
20
499982.3970364368
10
1161647.0397585675
20
499983.1455226445
10
1161646.8359594871
20
499983.8940088522
10
1161646.6370708593
20
499984.64249505976
10
1161646.4430926845
20
499985.39098126744
10
1161646.2540249627
20
499986.1394674751
10
1161646.1095249366
20
499986.71571365546
10
1161646.009592607
20
499987.11971980834
10
1161645.9542279735
20
499987.35148593393
10
1161645.943431036
20
499987.4110120322
10
1161645.9037768254
20
499987.62789663323
10
1161645.8352653407
20
499988.0021397371
10
1161645.7378965828
20
499988.5337413437
10
1161645.611670551
20
499989.22270145314
10
1161645.4847090947
20
499989.9265430871
10
1161645.357012214
20
499990.6452662457
10
1161645.2285799088
20
499991.37887092883
10
1161645.0994121793
20
499992.1273571365
10
1161644.9717646462
20
499992.8758433442
10
1161644.8456373096
20
499993.6243295518
10
1161644.7210301694
20
499994.3728157595
10
1161644.5979432256
20
499995.12130196724
10
1161644.4857230892
20
499995.8697881749
10
1161644.38436976
20
499996.61827438255
10
1161644.293883238
20
499997.36676059023
10
1161644.2142635232
20
499998.11524679785
10
1161644.1443403699
20
499998.8637330055
10
1161644.0841137778
20
499999.6122192133
10
1161644.0335837475
20
500000.3607054209
10
1161643.9927502784
20
500001.1091916285
10
1161643.9508246302
20
500001.8576778362
10
1161643.9078068025
20
500002.6061640438
10
1161643.8636967957
20
500003.3546502515
10
1161643.8184946096
20
500004.10313645925
10
1161643.7670460637
20
500004.85162266693
10
1161643.7093511587
20
500005.60010887455
10
1161643.6454098937
20
500006.34859508224
10
1161643.5752222692
20
500007.0970812899
10
1161643.4901367195
20
500007.8455674976
10
1161643.3901532446
20
500008.5940537053
10
1161643.2752718441
20
500009.34253991296
10
1161643.1454925186
20
500010.09102612064
10
1161643.0470622287
20
500010.6661441614
10
1161642.9799809745
20
500011.06789403537
10
1161642.9442487562
20
500011.2962757424
10
1161642.9398655735
20
500011.3512892825
10
1161642.9235667014
20
500011.5659176045
10
1161642.8953521396
20
500011.9401607084
10
1161642.8552218885
20
500012.474018594
10
1161642.8031759476
20
500013.16749126156
10
1161642.7437611138
20
500013.87471731415
10
1161642.6769773862
20
500014.5956967516
10
1161642.6028247657
20
500015.33042957424
10
1161642.5213032514
20
500016.0789157819
10
1161642.437316539
20
500016.8274019896
10
1161642.350864628
20
500017.5758881972
10
1161642.2619475187
20
500018.3243744049
10
1161642.1705652103
20
500019.0728606126
10
1161642.0646294253
20
500019.8213468203
10
1161641.9441401628
20
500020.56983302796
10
1161641.8090974235
20
500021.31831923564
10
1161641.6595012068
20
500022.0668054433
10
1161641.5155950598
20
500022.815291651
10
1161641.377378982
20
500023.5637778586
10
1161641.244852974
20
500024.3122640663
10
1161641.118017035
20
500025.06075027405
10
1161640.9951428124
20
500025.8092364817
10
1161640.876230305
20
500026.55772268935
10
1161640.7612795138
20
500027.30620889703
10
1161640.6502904382
20
500028.05469510466
10
1161640.5529870908
20
500028.8031813123
10
1161640.4693694715
20
500029.5516675201
10
1161640.3994375805
20
500030.3001537277
10
1161640.3431914176
20
500031.0486399353
10
1161640.2910672678
20
500031.797126143
10
1161640.243065131
20
500032.54561235063
10
1161640.1991850073
20
500033.2940985583
10
1161640.1594268966
20
500034.04258476605
10
1161640.1195805785
20
500034.68289672746
10
1161640.079646053
20
500035.21503444266
10
1161640.03962332
20
500035.6389979116
10
1161639.9995123795
20
500035.9547871343
10
1161639.954650279
20
500036.2998032976
10
1161639.905037018
20
500036.6740464014
10
1161639.8506725966
20
500037.07751644583
10
1161639.7915570154
20
500037.5102134308
10
1161639.7178988191
20
500038.02185772144
10
1161639.6296980074
20
500038.6124493177
10
1161639.5269545808
20
500039.2819882197
10
1161639.409668539
20
500040.0304744274
10
1161639.2910722857
20
500040.77896063507
10
1161639.1711658207
20
500041.52744684275
10
1161639.0499491445
20
500042.27593305043
10
1161638.9274222567
20
500043.0244192581
10
1161638.7999179638
20
500043.7729054658
10
1161638.6674362666
20
500044.52139167336
10
1161638.5299771642
20
500045.26987788104
10
1161638.3875406575
20
500046.0183640887
10
1161638.2319900286
20
500046.7668502964
10
1161638.063325278
20
500047.51533650403
10
1161637.8815464051
20
500048.2638227117
10
1161637.6866534106
20
500049.0123089194
10
1161637.5124266157
20
500049.68804656214
10
1161637.3588660206
20
500050.2910356398
10
1161637.2259716257
20
500050.8212761526
10
1161637.113743431
20
500051.2787681004
10
1161637.0097731883
20
500051.6946356262
10
1161636.9140608981
20
500052.06887873006
10
1161636.8266065607
20
500052.4014974119
10
1161636.747410176
20
500052.6924916718
10
1161636.652614785
20
500053.09785891866
10
1161636.5422203871
20
500053.6175991524
10
1161636.416226983
20
500054.2517123731
10
1161636.2746345731
20
500055.0001985808
10
1161636.1472791226
20
500055.7486847885
10
1161636.034160632
20
500056.49717099615
10
1161635.9352791011
20
500057.24565720384
10
1161635.8506345304
20
500057.99414341146
10
1161635.7542868406
20
500058.7426296191
10
1161635.6462360313
20
500059.4911158269
10
1161635.526482103
20
500060.2396020345
10
1161635.3950250554
20
500060.9880882421
10
1161635.2503108382
20
500061.7365744498
10
1161635.0923394514
20
500062.48506065743
10
1161634.9211108948
20
500063.2335468651
10
1161634.7366251685
20
500063.98203307285
10
1161634.566483357
20
500064.724565987
10
1161634.4106854596
20
500065.46114560746
10
1161634.2692314773
20
500066.1917719344
10
1161634.1421214095
20
500066.91644496785
10
1161634.045872937
20
500067.4659030364
10
1161633.9804860596
20
500067.8401461402
10
1161633.9459607776
20
500068.0391742793
10
1161633.9422970912
20
500068.06298745354
10
1161633.940465248
20
500068.11145517253
10
1161633.940465248
20
500068.1845774362
10
1161633.9422970912
20
500068.2823542445
10
1161633.9459607776
20
500068.4047855976
10
1161633.9540390612
20
500068.653122826
10
1161633.9665319417
20
500069.0273659298
10
1161633.9834394194
20
500069.52751490904
10
1161634.004761494
20
500070.15356976376
10
1161634.05262404
20
500070.81023245666
10
1161634.1270270576
20
500071.49750298774
10
1161634.2279705463
20
500072.2153813571
10
1161634.3554545066
20
500072.9638675648
10
1161634.4712928147
20
500073.7123537725
10
1161634.5754854702
20
500074.46083998017
10
1161634.668032474
20
500075.20932618785
10
1161634.748933825
20
500075.9578123955
10
1161634.7940453389
20
500076.7062986032
10
1161634.8033670154
20
500077.45478481083
10
1161634.7768988544
20
500078.2032710185
10
1161634.7146408563
20
500078.9517572262
10
1161634.6400951233
20
500079.7002434339
10
1161634.5532616558
20
500080.4487296415
10
1161634.4541404538
20
500081.1972158492
10
1161634.3427315173
20
500081.9457020569
10
1161634.252230836
20
500082.6941882646
10
1161634.1826384105
20
500083.44267447223
10
1161634.1339542405
20
500084.1911606799
10
1161634.1061783258
20
500084.93964688753
10
1161634.0782802557
20
500085.5536842125
10
1161634.0502600302
20
500086.03327265475
10
1161634.0221176492
20
500086.37841221434
10
1161633.9938531122
20
500086.5891028913
10
1161633.9525597238
20
500086.88156978163
10
1161633.898237483
20
500087.2558128854
10
1161633.8308863905
20
500087.71183220274
10
1161633.750506446
20
500088.24962773354
10
1161633.6619680403
20
500088.8400959335
10
1161633.565271174
20
500089.4832368028
10
1161633.4604158467
20
500090.17905034125
10
1161633.3474020585
20
500090.92753654893
10
1161633.2463009567
20
500091.6760227566
10
1161633.1571125407
20
500092.42450896424
10
1161633.0798368114
20
500093.1729951719
10
1161633.014473768
20
500093.92148137966
10
1161632.9660510144
20
500094.66996758734
10
1161632.9345685502
20
500095.41845379496
10
1161632.9200263757
20
500096.16694000264
10
1161632.9224244908
20
500096.9154262103
10
1161632.9404500753
20
500097.663912418
10
1161632.9741031295
20
500098.41239862563
10
1161633.0233836528
20
500099.1608848333
10
1161633.088291646
20
500099.909371041
10
1161633.1589756315
20
500100.6578572487
10
1161633.2354356097
20
500101.40634345624
10
1161633.3176715807
20
500102.1548296639
10
1161633.405683544
20
500102.9033158716
10
1161633.4852520723
20
500103.6518020793
10
1161633.556377166
20
500104.4002882869
10
1161633.6190588244
20
500105.1487744946
10
1161633.6732970478
20
500105.8972607023
10
1161633.7167643134
20
500106.64574690996
10
1161633.7494606213
20
500107.39423311764
10
1161633.7713859712
20
500108.1427193253
10
1161633.7825403635
20
500108.891205533
10
1161633.7863779005
20
500109.6396917407
10
1161633.7828985823
20
500110.3881779483
10
1161633.772102409
20
500111.136664156
10
1161633.7539893806
20
500111.8851503637
10
1161633.7293949449
20
500112.6336365714
10
1161633.6983191022
20
500113.38212277903
10
1161633.6607618523
20
500114.1306089867
10
1161633.6167231952
20
500114.87909519434
10
1161633.5651814963
20
500115.62758140196
10
1161633.5061367557
20
500116.37606760976
10
1161633.4395889733
20
500117.1245538174
10
1161633.3655381496
20
500117.873040025
10
1161633.3033249383
20
500118.6215262327
10
1161633.2529493403
20
500119.3700124403
10
1161633.2144113546
20
500120.118498648
10
1161633.1877109823
20
500120.86698485573
10
1161633.1662579828
20
500121.6154710634
10
1161633.1500523565
20
500122.36395727104
10
1161633.1390941034
20
500123.1124434787
10
1161633.1333832236
20
500123.8609296864
10
1161633.133833903
20
500124.6094158941
10
1161633.1404461416
20
500125.35790210176
10
1161633.15321994
20
500126.10638830945
10
1161633.1721552974
20
500126.8548745171
10
1161633.1912393267
20
500127.6033607248
10
1161633.2104720278
20
500128.35184693243
10
1161633.2298534005
20
500129.1003331401
10
1161633.2493834454
20
500129.8488193478
10
1161633.279179058
20
500130.5973055555
10
1161633.319240239
20
500131.34579176304
10
1161633.3695669882
20
500132.0942779707
10
1161633.4301593055
20
500132.8427641784
10
1161633.5025040763
20
500133.54011125606
10
1161633.5866013009
20
500134.1863192037
10
1161633.6824509788
20
500134.78138802137
10
1161633.79005311
20
500135.32531770895
10
1161633.8816350792
20
500135.7844041047
10
1161633.9571968857
20
500136.15864720853
10
1161634.0167385298
20
500136.4480470205
10
1161634.0602600113
20
500136.65260354045
10
1161634.1302696802
20
500136.9931424824
10
1161634.2267675367
20
500137.4696638463
10
1161634.3497535803
20
500138.08216763206
10
1161634.4992278111
20
500138.8306538398
10
1161634.6337444219
20
500139.5791400475
10
1161634.7533034126
20
500140.3276262551
10
1161634.857904783
20
500141.0761124628
10
1161634.9475485333
20
500141.8245986705
10
1161635.0356912434
20
500142.57308487815
10
1161635.1223329133
20
500143.32157108583
10
1161635.2074735435
20
500144.0700572935
10
1161635.291113133
20
500144.81854350114
10
1161635.3751636455
20
500145.56702970876
10
1161635.4596250798
20
500146.31551591656
10
1161635.5444974366
20
500147.0640021242
10
1161635.6297807156
20
500147.8124883318
10
1161635.7127531688
20
500148.5609745395
10
1161635.793414796
20
500149.3094607471
10
1161635.8717655975
20
500150.0579469548
10
1161635.9478055735
20
500150.80643316254
10
1161636.0185888044
20
500151.5549193702
10
1161636.0841152905
20
500152.30340557784
10
1161636.1443850321
20
500153.0518917855
10
1161636.199398029
20
500153.8003779932
10
1161636.260584387
20
500154.5488642009
10
1161636.3279441067
20
500155.2973504085
10
1161636.4014771876
20
500156.0458366162
10
1161636.4811836297
20
500156.7943228239
10
1161636.5625045768
20
500157.5402103083
10
1161636.6454400285
20
500158.28349906945
10
1161636.729989985
20
500159.0241891073
10
1161636.8161544462
20
500159.76228042186
10
1161636.881107741
20
500160.3184476311
10
1161636.924849869
20
500160.6926907349
10
1161636.9473808305
20
500160.8850097334
10
1161636.9487006254
20
500160.8954046264
10
1161636.98419829
20
500161.0903223482
10
1161637.0538738235
20
500161.4697628985
10
1161637.1577272266
20
500162.0337262775
10
1161637.2957584993
20
500162.7822124852
0
LWPOLYLINE
5
35
330
C
100
AcDbEntity
8
C-TOPO-MAJR-E
100
AcDbPolyline
90
341
70
0
43
0
38
0
39
0
10
1161669.6987099145
20
499936.1068125844
10
1161669.5781322033
20
499936.4230951767
10
1161669.4090105253
20
499936.88344564073
10
1161669.1913448805
20
499937.4878639766
10
1161668.925135269
20
499938.23635018425
10
1161668.6592417895
20
499938.9848363919
10
1161668.3936644415
20
499939.73332259967
10
1161668.1284032254
20
499940.48180880735
10
1161667.8634581412
20
499941.2302950149
10
1161667.6284248861
20
499941.9062992366
10
1161667.4233034602
20
499942.5098214722
10
1161667.2480938635
20
499943.04086172185
10
1161667.1027960964
20
499943.49941998534
10
1161666.9731644506
20
499943.91582066903
10
1161666.859198927
20
499944.2900637728
10
1161666.7608995251
20
499944.6221492968
10
1161666.678266245
20
499944.912077241
10
1161666.578764036
20
499945.316644751
10
1161666.4623928987
20
499945.8358518268
10
1161666.3291528325
20
499946.46969846863
10
1161666.179043838
20
499947.21818467637
10
1161666.012091942
20
499947.96667088405
10
1161665.8282971443
20
499948.7151570917
10
1161665.6276594454
20
499949.46364329936
10
1161665.410178845
20
499950.21212950704
10
1161665.1725025617
20
499950.960302819
10
1161664.9146305951
20
499951.70816323516
10
1161664.6365629456
20
499952.4557107556
10
1161664.3382996132
20
499953.2029453803
10
1161664.1144996816
20
499953.7636842446
10
1161663.9651631515
20
499954.13792734843
10
1161663.8902900224
20
499954.3256746918
10
1161663.8898802944
20
499954.3269262747
10
1161663.8391010505
20
499954.5149865139
10
1161663.7379522906
20
499954.88985540916
10
1161663.5864340146
20
499955.45153296064
10
1161663.3845462226
20
499956.2000191683
10
1161663.1900576395
20
499956.948505376
10
1161663.0029682657
20
499957.6969915837
10
1161662.8232781005
20
499958.44547779136
10
1161662.650987144
20
499959.19396399905
10
1161662.4821777001
20
499959.9424502067
10
1161662.3168497689
20
499960.69093641435
10
1161662.1550033498
20
499961.43942262203
10
1161661.9966384429
20
499962.1879088297
10
1161661.8394318165
20
499962.9363950374
10
1161661.6833834706
20
499963.684881245
10
1161661.5284934053
20
499964.4333674527
10
1161661.3747616205
20
499965.18185366044
10
1161661.244012522
20
499965.8216441516
10
1161661.1362461094
20
499966.3527389262
10
1161661.0514623835
20
499966.7751379843
10
1161660.9896613434
20
499967.0888413259
10
1161660.9209730558
20
499967.4328145486
10
1161660.84539752
20
499967.8070576525
10
1161660.762934737
20
499968.2115706374
10
1161660.6735847057
20
499968.6463535035
10
1161660.5708839588
20
499969.15956220496
10
1161660.454832496
20
499969.7511967418
10
1161660.325430317
20
499970.4212571141
10
1161660.1826774224
20
499971.1697433217
10
1161660.0407355123
20
499971.9182295294
10
1161659.8996045864
20
499972.6667157371
10
1161659.759284645
20
499973.41520194476
10
1161659.6197756885
20
499974.16368815245
10
1161659.474787576
20
499974.9121743601
10
1161659.3243203077
20
499975.66066056775
10
1161659.1683738837
20
499976.40914677543
10
1161659.0069483041
20
499977.1576329832
10
1161658.844738219
20
499977.90611919085
10
1161658.6817436279
20
499978.6546053985
10
1161658.5179645317
20
499979.40309160616
10
1161658.3534009294
20
499980.15157781384
10
1161658.217256942
20
499980.76544263936
10
1161658.1095325695
20
499981.24468608276
10
1161658.0302278115
20
499981.58930814406
10
1161657.979342668
20
499981.7993088232
10
1161657.9086718122
20
499982.0914307147
10
1161657.8182152435
20
499982.4656738186
10
1161657.7079729626
20
499982.92203813477
10
1161657.5779449693
20
499983.4605236632
10
1161657.4225730645
20
499984.0515093615
10
1161657.2418572481
20
499984.6949952296
10
1161657.0357975205
20
499985.39098126744
10
1161656.804393882
20
499986.1394674751
10
1161656.5752417487
20
499986.8879536828
10
1161656.3483411209
20
499987.6364398904
10
1161656.1236919987
20
499988.3849260981
10
1161655.901294382
20
499989.1334123058
10
1161655.7131272838
20
499989.8818985135
10
1161655.559190704
20
499990.63038472115
10
1161655.4394846428
20
499991.37887092883
10
1161655.3540091002
20
499992.1273571365
10
1161655.296059751
20
499992.8758433442
10
1161655.265636595
20
499993.6243295518
10
1161655.2627396323
20
499994.3728157595
10
1161655.287368863
20
499995.12130196724
10
1161655.3108917756
20
499995.8697881749
10
1161655.3333083703
20
499996.61827438255
10
1161655.3546186474
20
499997.36676059023
10
1161655.3748226063
20
499998.11524679785
10
1161655.3737453683
20
499998.8637330055
10
1161655.3513869327
20
499999.6122192133
10
1161655.3077473002
20
500000.3607054209
10
1161655.2428264706
20
500001.1091916285
10
1161655.1793624044
20
500001.7555210196
10
1161655.1173551017
20
500002.2996935939
10
1161655.0568045622
20
500002.7417093516
10
1161654.9977107863
20
500003.08156829263
10
1161654.9370127514
20
500003.43861931504
10
1161654.8747104574
20
500003.8128624189
10
1161654.8108039047
20
500004.2042976041
10
1161654.745293093
20
500004.6129248708
10
1161654.6683748146
20
500005.1065168727
10
1161654.5800490698
20
500005.6850736098
10
1161654.4803158583
20
500006.34859508224
10
1161654.36917518
20
500007.0970812899
10
1161654.2539264737
20
500007.8455674976
10
1161654.1345697395
20
500008.5940537053
10
1161654.0111049768
20
500009.34253991296
10
1161653.8835321856
20
500010.09102612064
10
1161653.7578530402
20
500010.8395123283
10
1161653.6340675403
20
500011.58799853595
10
1161653.5121756857
20
500012.33648474363
10
1161653.3921774768
20
500013.0849709513
10
1161653.2776648467
20
500013.833457159
10
1161653.168637796
20
500014.58194336656
10
1161653.0650963243
20
500015.33042957424
10
1161652.9670404317
20
500016.0789157819
10
1161652.8769468185
20
500016.8274019896
10
1161652.7948154842
20
500017.5758881972
10
1161652.7206464293
20
500018.3243744049
10
1161652.6544396533
20
500019.0728606126
10
1161652.5969621947
20
500019.8213468203
10
1161652.5482140528
20
500020.56983302796
10
1161652.5081952284
20
500021.31831923564
10
1161652.476905721
20
500022.0668054433
10
1161652.4476403415
20
500022.815291651
10
1161652.4203990898
20
500023.5637778586
10
1161652.3951819658
20
500024.3122640663
10
1161652.3719889699
20
500025.06075027405
10
1161652.3532768306
20
500025.8092364817
10
1161652.339045548
20
500026.55772268935
10
1161652.3292951225
20
500027.30620889703
10
1161652.3240255541
20
500028.05469510466
10
1161652.330718677
20
500028.8031813123
10
1161652.3493744913
20
500029.5516675201
10
1161652.379992997
20
500030.3001537277
10
1161652.4225741946
20
500031.0486399353
10
1161652.4664581828
20
500031.797126143
10
1161652.5116449618
20
500032.54561235063
10
1161652.5581345316
20
500033.2940985583
10
1161652.6059268923
20
500034.04258476605
10
1161652.648868987
20
500034.79107097373
10
1161652.6869608166
20
500035.53955718136
10
1161652.72020238
20
500036.28804338904
10
1161652.7485936778
20
500037.0365295967
10
1161652.782203067
20
500037.7850158044
10
1161652.8210305478
20
500038.533502012
10
1161652.86507612
20
500039.2819882197
10
1161652.9143397836
20
500040.0304744274
10
1161652.9379589707
20
500040.77896063507
10
1161652.9359336812
20
500041.52744684275
10
1161652.9082639152
20
500042.27593305043
10
1161652.8549496732
20
500043.0244192581
10
1161652.788457836
20
500043.7729054658
10
1161652.7087884042
20
500044.52139167336
10
1161652.6159413778
20
500045.26987788104
10
1161652.5099167568
20
500046.0183640887
10
1161652.4031636326
20
500046.6976533768
10
1161652.2956820054
20
500047.3077457452
10
1161652.187471875
20
500047.848641194
10
1161652.0785332415
20
500048.3203397232
10
1161651.9783921193
20
500048.74331053975
10
1161651.8870485083
20
500049.1175536436
10
1161651.8045024085
20
500049.4430690347
10
1161651.73075382
20
500049.7198567132
10
1161651.637101218
20
500050.114569024
10
1161651.523544603
20
500050.627205967
10
1161651.3900839752
20
500051.2577675424
10
1161651.2367193345
20
500052.0062537501
10
1161651.1041681615
20
500052.7547399578
10
1161650.9924304567
20
500053.5032261654
10
1161650.90150622
20
500054.2517123731
10
1161650.8313954512
20
500055.0001985808
10
1161650.7558697294
20
500055.7486847885
10
1161650.6749290542
20
500056.49717099615
10
1161650.588573426
20
500057.24565720384
10
1161650.4968028446
20
500057.99414341146
10
1161650.4027993986
20
500058.7426296191
10
1161650.3065630884
20
500059.4911158269
10
1161650.2080939137
20
500060.2396020345
10
1161650.1073918743
20
500060.9880882421
10
1161650.017595247
20
500061.7365744498
10
1161649.9387040315
20
500062.48506065743
10
1161649.8707182275
20
500063.2335468651
10
1161649.8136378352
20
500063.98203307285
10
1161649.7660032613
20
500064.73051928054
10
1161649.7278145053
20
500065.47900548816
10
1161649.699071568
20
500066.22749169584
10
1161649.6797744487
20
500066.9759779035
10
1161649.6574906956
20
500067.7244641112
10
1161649.6322203085
20
500068.4729503188
10
1161649.6039632875
20
500069.2214365265
10
1161649.5727196326
20
500069.9699227342
10
1161649.5360004269
20
500070.7184089419
10
1161649.4938056697
20
500071.46689514944
10
1161649.4461353617
20
500072.2153813571
10
1161649.3929895028
20
500072.9638675649
10
1161649.350134368
20
500073.7123537726
10
1161649.317569958
20
500074.46083998017
10
1161649.2952962727
20
500075.20932618785
10
1161649.2833133116
20
500075.9578123955
10
1161649.2855563338
20
500076.7062986032
10
1161649.302025339
20
500077.45478481083
10
1161649.3327203274
20
500078.2032710185
10
1161649.3776412986
20
500078.9517572262
10
1161649.4076113482
20
500079.7002434339
10
1161649.4226304756
20
500080.4487296415
10
1161649.4226986812
20
500081.1972158492
10
1161649.4078159654
20
500081.9457020569
10
1161649.3926075073
20
500082.6941882646
10
1161649.3770733073
20
500083.44267447223
10
1161649.3612133656
20
500084.1911606799
10
1161649.3450276824
20
500084.93964688753
10
1161649.3488330431
20
500085.68813309516
10
1161649.3726294478
20
500086.43661930296
10
1161649.416416897
20
500087.18510551064
10
1161649.4801953903
20
500087.9335917182
10
1161649.5225708815
20
500088.6820779259
10
1161649.543543371
20
500089.4305641337
10
1161649.5431128584
20
500090.1790503413
10
1161649.521279344
20
500090.92753654893
10
1161649.4839208706
20
500091.6760227566
10
1161649.431037438
20
500092.42450896424
10
1161649.3626290464
20
500093.1729951719
10
1161649.2786956958
20
500093.92148137966
10
1161649.2012697323
20
500094.6161886641
10
1161649.1303511558
20
500095.2571170254
10
1161649.0659399666
20
500095.8442664634
10
1161649.008036164
20
500096.37763697817
10
1161648.958788022
20
500096.83144378755
10
1161648.91819554
20
500097.20568689134
10
1161648.886258718
20
500097.5003662897
10
1161648.8629775562
20
500097.71548198257
10
1161648.8324932875
20
500098.0639403041
10
1161648.794805912
20
500098.54574125435
10
1161648.7499154296
20
500099.1608848333
10
1161648.6978218404
20
500099.909371041
10
1161648.6553320412
20
500100.6578572487
10
1161648.6224460322
20
500101.40634345624
10
1161648.5991638133
20
500102.1548296639
10
1161648.585485384
20
500102.9033158716
10
1161648.571022582
20
500103.6518020793
10
1161648.5557754068
20
500104.4002882869
10
1161648.5397438582
20
500105.1487744946
10
1161648.5229279364
20
500105.8972607023
10
1161648.4940907864
20
500106.64574690996
10
1161648.4532324083
20
500107.39423311764
10
1161648.4003528021
20
500108.1427193253
10
1161648.3354519675
20
500108.891205533
10
1161648.2769237347
20
500109.6396917407
10
1161648.2247681026
20
500110.3881779483
10
1161648.1789850723
20
500111.136664156
10
1161648.1395746435
20
500111.8851503637
10
1161648.090424749
20
500112.6336365714
10
1161648.0315353896
20
500113.38212277903
10
1161647.9629065646
20
500114.1306089867
10
1161647.8845382747
20
500114.87909519434
10
1161647.8466905737
20
500115.62758140196
10
1161647.8493634616
20
500116.37606760976
10
1161647.8925569388
20
500117.1245538174
10
1161647.9762710049
20
500117.873040025
10
1161648.0762109237
20
500118.6215262327
10
1161648.192376695
20
500119.3700124403
10
1161648.3247683193
20
500120.118498648
10
1161648.4733857962
20
500120.86698485573
10
1161648.5989031817
20
500121.5117894672
10
1161648.7013204764
20
500122.05291248235
10
1161648.7806376796
20
500122.4903539013
10
1161648.8368547922
20
500122.82411372405
10
1161648.8969124774
20
500123.17811518733
10
1161648.9608107358
20
500123.5523582911
10
1161649.0285495666
20
500123.9468430355
10
1161649.1001289703
20
500124.36156942055
10
1161649.166017045
20
500124.8597357612
10
1161649.2262137907
20
500125.4413420574
10
1161649.2807192076
20
500126.10638830945
10
1161649.3295332952
20
500126.8548745171
10
1161649.3655209152
20
500127.6033607248
10
1161649.3886820674
20
500128.35184693243
10
1161649.3990167514
20
500129.1003331401
10
1161649.396524968
20
500129.8488193478
10
1161649.3904159646
20
500130.5973055555
10
1161649.3806897418
20
500131.34579176304
10
1161649.3673462993
20
500132.0942779707
10
1161649.350385637
20
500132.8427641784
10
1161649.3335782576
20
500133.5912503861
10
1161649.3169241606
20
500134.3397365937
10
1161649.300423346
20
500135.0882228014
10
1161649.2840758143
20
500135.8367090091
10
1161649.2696734036
20
500136.58519521676
10
1161649.257216114
20
500137.3336814244
10
1161649.246703946
20
500138.08216763206
10
1161649.2381368987
20
500138.8306538398
10
1161649.2423596866
20
500139.5791400475
10
1161649.2593723098
20
500140.3276262551
10
1161649.2891747677
20
500141.0761124628
10
1161649.3317670606
20
500141.8245986705
10
1161649.4272226873
20
500142.57308487815
10
1161649.5755416476
20
500143.32157108583
10
1161649.7767239416
20
500144.0700572935
10
1161650.030769569
20
500144.81854350114
10
1161650.26254764
20
500145.56702970876
10
1161650.4720581537
20
500146.31551591656
10
1161650.6593011108
20
500147.0640021242
10
1161650.824276511
20
500147.8124883318
10
1161650.9765297319
20
500148.5609745395
10
1161651.116060773
20
500149.3094607471
10
1161651.2428696349
20
500150.0579469548
10
1161651.3569563173
20
500150.80643316254
10
1161651.4515889941
20
500151.5549193702
10
1161651.5267676653
20
500152.30340557784
10
1161651.5824923308
20
500153.0518917855
10
1161651.6187629905
20
500153.8003779932
10
1161651.6610882548
20
500154.5114686707
10
1161651.7094681237
20
500155.1851638179
10
1161651.7639025971
20
500155.8214634349
10
1161651.8243916747
20
500156.4203675217
10
1161651.8736638466
20
500156.906941117
10
1161651.9117191127
20
500157.28118422086
10
1161651.9385574728
20
500157.5430968332
10
1161651.9541789268
20
500157.6926789541
10
1161652.006953961
20
500157.99198709667
10
1161652.0968825752
20
500158.4410212609
10
1161652.2239647694
20
500159.0397814469
10
1161652.3882005434
20
500159.7882676546
10
1161652.5585275106
20
500160.5367538623
10
1161652.7349456707
20
500161.28524006985
10
1161652.9174550239
20
500162.0337262775
10
1161653.10605557
20
500162.7822124852
0
LWPOLYLINE
5
36
330
C
100
AcDbEntity
8
C-TOPO-MAJR-E
100
AcDbPolyline
90
353
70
0
43
0
38
0
39
0
10
1161685.2376685042
20
499936.40922017186
10
1161685.1060899128
20
499936.82754878246
10
1161685.0030613192
20
499937.13582486066
10
1161684.8841710023
20
499937.47708445165
10
1161684.7494189618
20
499937.8513275555
10
1161684.598805198
20
499938.2585541722
10
1161684.4323297108
20
499938.6987643016
10
1161684.2470276628
20
499939.21604345064
10
1161684.0428990545
20
499939.8103916192
10
1161683.8199438853
20
499940.48180880735
10
1161683.5781621558
20
499941.2302950149
10
1161683.3482056397
20
499941.9787812226
10
1161683.1300743371
20
499942.7272674304
10
1161682.9237682482
20
499943.475753638
10
1161682.7292873727
20
499944.22423984564
10
1161682.5469896873
20
499944.9227804686
10
1161682.3768751917
20
499945.5713755068
10
1161682.2189438865
20
499946.1700249603
10
1161682.0731957713
20
499946.71872882906
10
1161681.9494246307
20
499947.1802023154
10
1161681.8476304647
20
499947.5544454192
10
1161681.7678132732
20
499947.84145814064
10
1161681.7099730563
20
499948.0412404795
10
1161681.6055233295
20
499948.3781987856
10
1161681.4544640926
20
499948.8523330589
10
1161681.2567953458
20
499949.46364329936
10
1161681.0125170886
20
499950.21212950704
10
1161680.738095013
20
499950.9606157147
10
1161680.433529119
20
499951.70910192234
10
1161680.098819406
20
499952.45758813
10
1161679.7339658742
20
499953.2060743377
10
1161679.4399471749
20
499953.804221372
10
1161679.216763308
20
499954.2520292329
10
1161679.0644142735
20
499954.54949792044
10
1161678.982900071
20
499954.6966274347
10
1161678.8421944003
20
499954.9573137437
10
1161678.6422972614
20
499955.33155684755
10
1161678.383208654
20
499955.8193567462
10
1161678.0649285777
20
499956.42071343964
10
1161677.7436249992
20
499957.05885251163
10
1161677.4192979173
20
499957.73377396225
10
1161677.091947333
20
499958.44547779136
10
1161676.7615732457
20
499959.19396399905
10
1161676.4888346693
20
499959.83463330404
10
1161676.2737316033
20
499960.3674857062
10
1161676.1162640483
20
499960.7925212058
10
1161676.0164320038
20
499961.1097398026
10
1161675.9079041583
20
499961.4554706529
10
1161675.7906805116
20
499961.82971375674
10
1161675.6647610639
20
499962.23246911407
10
1161675.5301458153
20
499962.66373672494
10
1161675.3787898056
20
499963.174308985
10
1161675.2106930348
20
499963.7641858942
10
1161675.025855503
20
499964.4333674527
10
1161674.8242772105
20
499965.18185366044
10
1161674.6216037162
20
499965.9303398681
10
1161674.41783502
20
499966.67882607575
10
1161674.2129711227
20
499967.4273122834
10
1161674.0070120236
20
499968.17579849105
10
1161673.8083852953
20
499968.9242846987
10
1161673.6170909381
20
499969.6727709065
10
1161673.4331289516
20
499970.4212571141
10
1161673.2564993359
20
499971.1697433217
10
1161673.1166011363
20
499971.76435164723
10
1161673.0134343528
20
499972.2050820906
10
1161672.9469989853
20
499972.49193465174
10
1161672.9172950336
20
499972.62490933074
10
1161672.8643509704
20
499972.8785182222
10
1161672.7881667954
20
499973.252761326
10
1161672.6887425086
20
499973.74763864226
10
1161672.5660781106
20
499974.36315017095
10
1161672.4128982243
20
499975.01190536935
10
1161672.2292028498
20
499975.69390423753
10
1161672.014991988
20
499976.40914677543
10
1161671.770265638
20
499977.1576329832
10
1161671.5004869145
20
499977.90611919085
10
1161671.2056558174
20
499978.6546053985
10
1161670.885772347
20
499979.40309160616
10
1161670.5408365028
20
499980.15157781384
10
1161670.273094716
20
499980.74279533786
10
1161670.0825469864
20
499981.17674417817
10
1161669.969193314
20
499981.4534243349
10
1161669.9330336985
20
499981.5728358079
10
1161669.8657059204
20
499981.81966309634
10
1161669.7672099792
20
499982.19390620023
10
1161669.637545875
20
499982.69556511944
10
1161669.4767136083
20
499983.324639854
10
1161669.322286196
20
499983.98356745695
10
1161669.1742636391
20
499984.67234792805
10
1161669.032645937
20
499985.39098126744
10
1161668.89743309
20
499986.1394674751
10
1161668.7530757398
20
499986.8879536828
10
1161668.5995738865
20
499987.6364398904
10
1161668.4369275302
20
499988.3849260981
10
1161668.265136671
20
499989.1334123058
10
1161668.1097510618
20
499989.8818985135
10
1161667.9707707025
20
499990.63038472115
10
1161667.8481955938
20
499991.37887092883
10
1161667.742025735
20
499992.1273571365
10
1161667.6567616358
20
499992.8758433442
10
1161667.592403296
20
499993.6243295518
10
1161667.5489507152
20
499994.3728157595
10
1161667.5264038944
20
499995.12130196724
10
1161667.4987837912
20
499995.8697881749
10
1161667.4660904058
20
499996.61827438255
10
1161667.4283237385
20
499997.36676059023
10
1161667.385483789
20
499998.11524679785
10
1161667.3282947247
20
499998.8637330055
10
1161667.2567565455
20
499999.6122192133
10
1161667.1708692515
20
500000.3607054209
10
1161667.0706328426
20
500001.1091916285
10
1161666.993241237
20
500001.68402500096
10
1161666.9386944342
20
500002.085205538
10
1161666.906992435
20
500002.3127332399
10
1161666.8981352388
20
500002.3666081066
10
1161666.8595194768
20
500002.58066709177
10
1161666.7911451487
20
500002.9549101956
10
1161666.6930122543
20
500003.48933741805
10
1161666.5651207936
20
500004.1839487591
10
1161666.4356967404
20
500004.89202881686
10
1161666.3047400948
20
500005.6135775912
10
1161666.1722508562
20
500006.34859508224
10
1161666.038229025
20
500007.0970812899
10
1161665.929578691
20
500007.8455674976
10
1161665.846299854
20
500008.5940537053
10
1161665.7883925147
20
500009.34253991296
10
1161665.7558566725
20
500010.09102612064
10
1161665.7293239099
20
500010.8395123283
10
1161665.7087942264
20
500011.58799853595
10
1161665.6942676227
20
500012.33648474363
10
1161665.6857440982
20
500013.0849709513
10
1161665.6462428507
20
500013.833457159
10
1161665.57576388
20
500014.58194336656
10
1161665.4743071864
20
500015.33042957424
10
1161665.3418727694
20
500016.0789157819
10
1161665.2433092983
20
500016.8274019896
10
1161665.1786167724
20
500017.5758881972
10
1161665.1477951922
20
500018.3243744049
10
1161665.150844558
20
500019.0728606126
10
1161665.1561579516
20
500019.8213468203
10
1161665.1637353734
20
500020.56983302796
10
1161665.1735768237
20
500021.31831923564
10
1161665.185682302
20
500022.0668054433
10
1161665.1875656503
20
500022.815291651
10
1161665.1792268679
20
500023.5637778586
10
1161665.1606659554
20
500024.3122640663
10
1161665.1318829125
20
500025.06075027405
10
1161665.1043928857
20
500025.8092364817
10
1161665.078195875
20
500026.55772268935
10
1161665.0532918808
20
500027.30620889703
10
1161665.0296809028
20
500028.05469510466
10
1161665.0154152876
20
500028.8031813123
10
1161665.0104950352
20
500029.5516675201
10
1161665.0149201462
20
500030.3001537277
10
1161665.0286906199
20
500031.0486399353
10
1161665.046069231
20
500031.797126143
10
1161665.0670559788
20
500032.54561235063
10
1161665.0916508636
20
500033.2940985583
10
1161665.1198538854
20
500034.04258476605
10
1161665.1489146384
20
500034.79107097373
10
1161665.1788331228
20
500035.53955718136
10
1161665.2096093388
20
500036.28804338904
10
1161665.241243286
20
500037.0365295967
10
1161665.2746409508
20
500037.7850158044
10
1161665.3098023334
20
500038.533502012
10
1161665.3467274336
20
500039.2819882197
10
1161665.3854162516
20
500040.0304744274
10
1161665.40346098
20
500040.77896063507
10
1161665.400861619
20
500041.52744684275
10
1161665.3776181682
20
500042.27593305043
10
1161665.3337306282
20
500043.0244192581
10
1161665.276070761
20
500043.7729054658
10
1161665.2046385673
20
500044.52139167336
10
1161665.1194340466
20
500045.26987788104
10
1161665.0204571993
20
500046.0183640887
10
1161664.9214643687
20
500046.7668502964
10
1161664.8224555547
20
500047.51533650403
10
1161664.7234307579
20
500048.2638227117
10
1161664.6243899777
20
500049.0123089194
10
1161664.5363062131
20
500049.7607951271
10
1161664.4591794643
20
500050.5092813347
10
1161664.393009731
20
500051.2577675424
10
1161664.337797013
20
500052.0062537501
10
1161664.2758626097
20
500052.7547399578
10
1161664.2072065207
20
500053.5032261654
10
1161664.1318287458
20
500054.2517123731
10
1161664.0497292848
20
500055.0001985808
10
1161663.9859249718
20
500055.5911453803
10
1161663.9404158061
20
500056.0245527716
10
1161663.9132017887
20
500056.30042075465
10
1161663.904282919
20
500056.4187493294
10
1161663.886271297
20
500056.66503516876
10
1161663.8591669234
20
500057.03927827266
10
1161663.8229697975
20
500057.541478641
10
1161663.7776799197
20
500058.17163627374
10
1161663.737356883
20
500058.83137605025
10
1161663.7020006878
20
500059.5206979706
10
1161663.6716113337
20
500060.2396020345
10
1161663.6461888207
20
500060.9880882421
10
1161663.6157588551
20
500061.7365744498
10
1161663.5803214365
20
500062.48506065743
10
1161663.5398765653
20
500063.2335468651
10
1161663.4944242411
20
500063.98203307285
10
1161663.461245014
20
500064.73051928054
10
1161663.4403388838
20
500065.47900548816
10
1161663.4317058502
20
500066.22749169584
10
1161663.4353459137
20
500066.9759779035
10
1161663.459801034
20
500067.7244641112
10
1161663.505071212
20
500068.4729503188
10
1161663.5711564468
20
500069.2214365265
10
1161663.6580567388
20
500069.9699227342
10
1161663.7264495858
20
500070.7184089419
10
1161663.7763349875
20
500071.46689514944
10
1161663.8077129442
20
500072.2153813571
10
1161663.8205834562
20
500072.9638675648
10
1161663.822518315
20
500073.7123537725
10
1161663.8135175204
20
500074.46083998017
10
1161663.793581073
20
500075.20932618785
10
1161663.7627089722
20
500075.9578123955
10
1161663.7344749568
20
500076.7062986032
10
1161663.7088790264
20
500077.45478481083
10
1161663.685921181
20
500078.2032710185
10
1161663.665601421
20
500078.9517572262
10
1161663.665588108
20
500079.7002434339
10
1161663.6858812426
20
500080.4487296415
10
1161663.7264808244
20
500081.1972158492
10
1161663.7873868535
20
500081.9457020569
10
1161663.833826295
20
500082.56053258036
10
1161663.8657991495
20
500083.0417074197
10
1161663.8833054162
20
500083.3892265747
10
1161663.8863450952
20
500083.6030900455
10
1161663.8903085093
20
500083.8971433328
10
1161663.895195658
20
500084.2713864366
10
1161663.9010065417
20
500084.725819357
10
1161663.90774116
20
500085.26044209383
10
1161663.9122792152
20
500085.84853069833
10
1161663.9146207073
20
500086.4900851706
10
1161663.9147656362
20
500087.1851055106
10
1161663.9127140022
20
500087.9335917182
10
1161663.9100045306
20
500088.5667979462
10
1161663.9066372213
20
500089.08472419437
10
1161663.9026120747
20
500089.48737046286
10
1161663.8979290905
20
500089.7747367516
10
1161663.8925048292
20
500090.10554144793
10
1161663.8863392905
20
500090.4797845518
10
1161663.879432475
20
500090.89746606315
10
1161663.8717843818
20
500091.35858598206
10
1161663.8395443233
20
500091.89154747315
10
1161663.7827122994
20
500092.4963505365
10
1161663.7012883099
20
500093.1729951719
10
1161663.5952723548
20
500093.92148137966
10
1161663.4836480275
20
500094.66996758734
10
1161663.3664153279
20
500095.41845379496
10
1161663.2435742563
20
500096.16694000264
10
1161663.1151248121
20
500096.9154262103
10
1161663.001507465
20
500097.663912418
10
1161662.9027222148
20
500098.41239862563
10
1161662.8187690612
20
500099.1608848333
10
1161662.7496480048
20
500099.909371041
10
1161662.705974864
20
500100.6578572487
10
1161662.6877496394
20
500101.40634345624
10
1161662.6949723307
20
500102.1548296639
10
1161662.7276429376
20
500102.9033158716
10
1161662.7839915624
20
500103.6518020793
10
1161662.8640182056
20
500104.4002882869
10
1161662.9677228665
20
500105.1487744946
10
1161663.0951055456
20
500105.8972607023
10
1161663.1930632982
20
500106.64574690996
10
1161663.2615961249
20
500107.39423311764
10
1161663.3007040252
20
500108.1427193253
10
1161663.3103869993
20
500108.891205533
10
1161663.336723329
20
500109.6396917407
10
1161663.379713014
20
500110.3881779483
10
1161663.4393560546
20
500111.136664156
10
1161663.5156524505
20
500111.8851503637
10
1161663.5891752206
20
500112.4995373894
10
1161663.659924365
20
500112.979825233
10
1161663.7278998834
20
500113.3260138946
10
1161663.7931017755
20
500113.5381033741
10
1161663.8790533436
20
500113.83126966585
10
1161663.9857545872
20
500114.2055127697
10
1161664.1132055065
20
500114.66083268565
10
1161664.2614061013
20
500115.1972294138
10
1161664.400222225
20
500115.78664851177
10
1161664.5296538775
20
500116.4290899796
10
1161664.6497010589
20
500117.1245538174
10
1161664.7603637693
20
500117.873040025
10
1161664.8534137788
20
500118.6215262327
10
1161664.928851088
20
500119.3700124403
10
1161664.9866756964
20
500120.118498648
10
1161665.0268876045
20
500120.86698485573
10
1161665.0537457708
20
500121.6154710634
10
1161665.067250195
20
500122.36395727104
10
1161665.0674008774
20
500123.1124434787
10
1161665.054197818
20
500123.8609296864
10
1161665.0411023006
20
500124.6094158941
10
1161665.0281143254
20
500125.35790210176
10
1161665.015233892
20
500126.10638830945
10
1161665.0024610006
20
500126.8548745171
10
1161664.9966736296
20
500127.6033607248
10
1161664.997871779
20
500128.35184693243
10
1161665.006055449
20
500129.1003331401
10
1161665.0212246394
20
500129.8488193478
10
1161665.038439637
20
500130.5973055555
10
1161665.057700442
20
500131.34579176304
10
1161665.0790070542
20
500132.0942779707
10
1161665.1023594742
20
500132.8427641784
10
1161665.1254617902
20
500133.5912503861
10
1161665.1483140027
20
500134.3397365937
10
1161665.1709161117
20
500135.0882228014
10
1161665.1932681168
20
500135.8367090091
10
1161665.2339816962
20
500136.58519521676
10
1161665.29305685
20
500137.3336814244
10
1161665.3704935778
20
500138.08216763206
10
1161665.46629188
20
500138.8306538398
10
1161665.5893377357
20
500139.5791400475
10
1161665.7396311448
20
500140.3276262551
10
1161665.9171721078
20
500141.0761124628
10
1161666.1219606244
20
500141.8245986705
10
1161666.3040336398
20
500142.5261838916
10
1161666.4633911536
20
500143.1808681261
10
1161666.6000331664
20
500143.788651374
10
1161666.7139596776
20
500144.3495336353
10
1161666.810231544
20
500144.81709631794
10
1161666.8888487653
20
500145.1913394217
10
1161666.9498113412
20
500145.47226294683
10
1161666.9931192724
20
500145.6598668932
10
1161667.0493416353
20
500145.9876914049
10
1161667.1184784304
20
500146.4557364819
10
1161667.2005296578
20
500147.0640021242
10
1161667.295495317
20
500147.8124883318
10
1161667.3612226776
20
500148.5609745395
10
1161667.397711739
20
500149.3094607471
10
1161667.4049625015
20
500150.0579469548
10
1161667.382974965
20
500150.80643316254
10
1161667.3798417225
20
500151.5549193702
10
1161667.395562774
20
500152.30340557784
10
1161667.4301381195
20
500153.0518917855
10
1161667.4835677587
20
500153.8003779932
10
1161667.5783774792
20
500154.5488642009
10
1161667.7145672804
20
500155.2973504085
10
1161667.8921371629
20
500156.0458366162
10
1161668.1110871267
20
500156.7943228239
10
1161668.3461789696
20
500157.54280903155
10
1161668.5974126922
20
500158.29129523924
10
1161668.8647882943
20
500159.0397814469
10
1161669.1483057765
20
500159.7882676546
10
1161669.380019655
20
500160.4105517876
10
1161669.5599299306
20
500160.906633846
10
1161669.688036603
20
500161.2765138298
10
1161669.764339672
20
500161.52019173896
10
1161669.8604558255
20
500161.8291522454
10
1161669.9763850628
20
500162.2033953493
0
LWPOLYLINE
5
37
330
C
100
AcDbEntity
8
C-TOPO-MAJR-E
100
AcDbPolyline
90
352
70
0
43
0
38
0
39
0
10
1161697.959476456
20
499935.9908915613
10
1161697.7612268364
20
499936.73937776894
10
1161697.5574742237
20
499937.4878639766
10
1161697.348218618
20
499938.23635018425
10
1161697.1781495728
20
499938.855405926
10
1161697.0472670875
20
499939.34503120196
10
1161696.9555711627
20
499939.7052260119
10
1161696.9030617985
20
499939.935990356
10
1161696.8325771866
20
499940.23849408
10
1161696.7441173277
20
499940.6127371838
10
1161696.6376822214
20
499941.0587196675
10
1161696.5132718678
20
499941.5764415312
10
1161696.398497812
20
499942.15185448073
10
1161696.2933600545
20
499942.78495851636
10
1161696.1978585946
20
499943.475753638
10
1161696.1119934327
20
499944.22423984564
10
1161696.0398865046
20
499944.9727260533
10
1161695.98153781
20
499945.72121226095
10
1161695.9369473492
20
499946.46969846863
10
1161695.9061151221
20
499947.21818467637
10
1161695.8746661725
20
499947.96667088405
10
1161695.842600501
20
499948.7151570917
10
1161695.8099181068
20
499949.46364329936
10
1161695.7766189899
20
499950.21212950704
10
1161695.7380530809
20
499950.9606157147
10
1161695.6942203795
20
499951.70910192234
10
1161695.6451208855
20
499952.45758813
10
1161695.590754599
20
499953.2060743377
10
1161695.5160178933
20
499953.9545605454
10
1161695.4209107687
20
499954.70304675295
10
1161695.3054332244
20
499955.45153296064
10
1161695.169585261
20
499956.2000191683
10
1161695.0165880215
20
499956.948505376
10
1161694.8464415055
20
499957.6969915837
10
1161694.6591457133
20
499958.44547779136
10
1161694.454700645
20
499959.19396399905
10
1161694.281511836
20
499959.8127584234
10
1161694.1395792868
20
499960.3018610644
10
1161694.0289029968
20
499960.6612719222
10
1161693.9494829667
20
499960.8909909966
10
1161693.8330613468
20
499961.19297208573
10
1161693.6796381378
20
499961.56721518957
10
1161693.4892133393
20
499962.01372030814
10
1161693.2617869517
20
499962.5324874414
10
1161692.9990164894
20
499963.1086843432
10
1161692.7009019528
20
499963.74231101363
10
1161692.3674433415
20
499964.4333674527
10
1161691.9986406558
20
499965.18185366044
10
1161691.6839743578
20
499965.836838702
10
1161691.423444448
20
499966.39832257736
10
1161691.2170509258
20
499966.86630528665
10
1161691.0647937916
20
499967.24078682973
10
1161690.9160444015
20
499967.6151491532
10
1161690.7708027554
20
499967.98939225706
10
1161690.6290688533
20
499968.36351614125
10
1161690.4908426953
20
499968.7375208058
10
1161690.3353267694
20
499969.20514585613
10
1161690.162521075
20
499969.7663912922
10
1161689.9724256129
20
499970.4212571141
10
1161689.7650403825
20
499971.1697433217
10
1161689.572283409
20
499971.9182295294
10
1161689.394154692
20
499972.6667157371
10
1161689.2306542322
20
499973.41520194476
10
1161689.081782029
20
499974.16368815245
10
1161688.9198421696
20
499974.9121743601
10
1161688.744834654
20
499975.66066056775
10
1161688.5567594818
20
499976.40914677543
10
1161688.3556166533
20
499977.1576329832
10
1161688.1915445852
20
499977.7520934021
10
1161688.0645432768
20
499978.19252803223
10
1161687.974612729
20
499978.4789368736
10
1161687.9217529416
20
499978.61131992616
10
1161687.8170756742
20
499978.8646330044
10
1161687.6605809268
20
499979.23887610825
10
1161687.4522686999
20
499979.7340492377
10
1161687.1921389934
20
499980.35015239276
10
1161686.9293427337
20
499980.999351311
10
1161686.6638799207
20
499981.6816459923
10
1161686.3957505547
20
499982.3970364368
10
1161686.1249546357
20
499983.1455226445
10
1161685.867467551
20
499983.8689902616
10
1161685.6232893006
20
499984.56743928813
10
1161685.3924198842
20
499985.2408697242
10
1161685.174859302
20
499985.8892815695
10
1161685.003700032
20
499986.4006090442
10
1161684.8789420743
20
499986.774852148
10
1161684.8005854283
20
499987.0120108811
10
1161684.7686300946
20
499987.1120852433
10
1161684.6629328993
20
499987.37426256685
10
1161684.4834938427
20
499987.7985428518
10
1161684.2303129244
20
499988.3849260981
10
1161683.9033901445
20
499989.1334123058
10
1161683.589227259
20
499989.8818985135
10
1161683.2878242675
20
499990.63038472115
10
1161682.9991811707
20
499991.37887092883
10
1161682.7232979678
20
499992.1273571365
10
1161682.487954343
20
499992.8739946257
10
1161682.293150296
20
499993.6187833964
10
1161682.1388858268
20
499994.36172344856
10
1161682.0251609352
20
499995.10281478224
10
1161681.939576996
20
499995.66048200097
10
1161681.8821340087
20
499996.0347251048
10
1161681.8528319732
20
499996.22554409376
10
1161681.8516708896
20
499996.2329389677
10
1161681.8449484655
20
499996.42560667515
10
1161681.8326647007
20
499996.803547216
10
1161681.8148195953
20
499997.36676059023
10
1161681.7914131493
20
499998.11524679785
10
1161681.7671730444
20
499998.8637330055
10
1161681.74209928
20
499999.6122192133
10
1161681.7161918571
20
500000.3607054209
10
1161681.689450775
20
500001.1091916285
10
1161681.653649523
20
500001.8576778362
10
1161681.6087881008
20
500002.6061640438
10
1161681.5548665083
20
500003.3546502515
10
1161681.491884746
20
500004.10313645925
10
1161681.4205405768
20
500004.85162266693
10
1161681.3408340006
20
500005.60010887455
10
1161681.252765018
20
500006.34859508224
10
1161681.1563336286
20
500007.0970812899
10
1161681.06529222
20
500007.8455674976
10
1161680.9796407926
20
500008.5940537053
10
1161680.8993793456
20
500009.34253991296
10
1161680.8245078796
20
500010.09102612064
10
1161680.7500363137
20
500010.8395123283
10
1161680.675964648
20
500011.58799853595
10
1161680.6022928827
20
500012.33648474363
10
1161680.5290210173
20
500013.0849709513
10
1161680.429759289
20
500013.833457159
10
1161680.3045076972
20
500014.58194336656
10
1161680.1532662422
20
500015.33042957424
10
1161679.9760349242
20
500016.0789157819
10
1161679.7900139869
20
500016.8138050425
10
1161679.5952034302
20
500017.5350973559
10
1161679.3916032545
20
500018.24279272225
10
1161679.1792134598
20
500018.9368911414
10
1161679.016056016
20
500019.47106190294
10
1161678.9021309235
20
500019.8453050068
10
1161678.837438182
20
500020.0596204529
10
1161678.8219777916
20
500020.1140082414
10
1161678.7710609534
20
500020.3419206347
10
1161678.6846876673
20
500020.74335763266
10
1161678.5628579333
20
500021.3183192356
10
1161678.4055717518
20
500022.0668054433
10
1161678.2693313374
20
500022.815291651
10
1161678.1541366912
20
500023.5637778586
10
1161678.0599878123
20
500024.3122640663
10
1161677.9868847008
20
500025.060750274
10
1161677.931127681
20
500025.80923648167
10
1161677.8927167528
20
500026.55772268935
10
1161677.8716519158
20
500027.30620889703
10
1161677.8679331706
20
500028.05469510466
10
1161677.860950334
20
500028.8031813123
10
1161677.8507034057
20
500029.5516675201
10
1161677.8371923864
20
500030.3001537277
10
1161677.820417276
20
500031.0486399353
10
1161677.7966642058
20
500031.797126143
10
1161677.7659331765
20
500032.54561235063
10
1161677.7282241879
20
500033.2940985583
10
1161677.6835372394
20
500034.04258476605
10
1161677.6455027533
20
500034.79107097373
10
1161677.6141207295
20
500035.53955718136
10
1161677.5893911673
20
500036.28804338904
10
1161677.5713140673
20
500037.0365295967
10
1161677.5607763724
20
500037.7850158044
10
1161677.5577780828
20
500038.533502012
10
1161677.5623191984
20
500039.2819882197
10
1161677.574399719
20
500040.0304744274
10
1161677.5898771144
20
500040.77896063507
10
1161677.6087513843
20
500041.52744684264
10
1161677.631022529
20
500042.2759330503
10
1161677.656690548
20
500043.0244192581
10
1161677.6708797433
20
500043.7729054658
10
1161677.6735901148
20
500044.52139167336
10
1161677.6648216622
20
500045.26987788104
10
1161677.644574386
20
500046.0183640887
10
1161677.6087695784
20
500046.7668502964
10
1161677.5574072397
20
500047.51533650403
10
1161677.4904873695
20
500048.2638227117
10
1161677.4080099682
20
500049.0123089194
10
1161677.3269657427
20
500049.7607951271
10
1161677.247354693
20
500050.5092813347
10
1161677.1691768193
20
500051.2577675424
10
1161677.0924321213
20
500052.0062537501
10
1161677.0300346245
20
500052.7547399578
10
1161676.981984329
20
500053.5032261654
10
1161676.9482812344
20
500054.2517123731
10
1161676.9289253405
20
500055.00019858073
10
1161676.91229128
20
500055.74868478836
10
1161676.898379052
20
500056.49717099615
10
1161676.887188657
20
500057.24565720384
10
1161676.878720095
20
500057.9941434114
10
1161676.8697998093
20
500058.7426296191
10
1161676.8604278008
20
500059.4911158269
10
1161676.8506040687
20
500060.2396020345
10
1161676.840328613
20
500060.9880882421
10
1161676.826936299
20
500061.7365744498
10
1161676.8104271262
20
500062.48506065743
10
1161676.7908010946
20
500063.2335468651
10
1161676.7680582043
20
500063.98203307285
10
1161676.755373492
20
500064.73051928054
10
1161676.7527469578
20
500065.47900548816
10
1161676.7601786014
20
500066.22749169584
10
1161676.777668423
20
500066.9759779035
10
1161676.8115251246
20
500067.7244641112
10
1161676.861748706
20
500068.4729503188
10
1161676.928339168
20
500069.2214365265
10
1161677.0112965098
20
500069.9699227342
10
1161677.0769587618
20
500070.7184089419
10
1161677.1253259243
20
500071.46689514944
10
1161677.156397997
20
500072.2153813571
10
1161677.1701749796
20
500072.9638675648
10
1161677.1582780168
20
500073.7123537725
10
1161677.1207071082
20
500074.46083998017
10
1161677.0574622534
20
500075.20932618785
10
1161676.9685434524
20
500075.9578123955
10
1161676.9228249239
20
500076.7062986032
10
1161676.9203066677
20
500077.45478481083
10
1161676.9609886832
20
500078.2032710185
10
1161677.0448709708
20
500078.9517572262
10
1161677.13133661
20
500079.7002434339
10
1161677.2203856006
20
500080.4487296415
10
1161677.312017943
20
500081.1972158492
10
1161677.4062336371
20
500081.9457020569
10
1161677.505093008
20
500082.6941882646
10
1161677.608596056
20
500083.44267447223
10
1161677.716742781
20
500084.1911606799
10
1161677.8295331835
20
500084.93964688753
10
1161677.9445417766
20
500085.68813309516
10
1161678.0617685607
20
500086.43661930296
10
1161678.1812135356
20
500087.1851055106
10
1161678.3028767016
20
500087.9335917182
10
1161678.4175776585
20
500088.6715138051
10
1161678.525316406
20
500089.3988717712
10
1161678.6260929445
20
500090.1156656165
10
1161678.7199072738
20
500090.82189534116
10
1161678.7916037822
20
500091.3621317554
10
1161678.8411824699
20
500091.7363748592
10
1161678.8686433367
20
500091.9446246526
10
1161678.873986383
20
500091.98688113573
10
1161678.895300236
20
500092.20569504995
10
1161678.9325848958
20
500092.6010663954
10
1161678.9858403627
20
500093.1729951719
10
1161679.0550666368
20
500093.92148137966
10
1161679.114417558
20
500094.66996758734
10
1161679.1638931266
20
500095.41845379496
10
1161679.203493343
20
500096.16694000264
10
1161679.2332182066
20
500096.9154262103
10
1161679.250153594
20
500097.663912418
10
1161679.254299505
20
500098.41239862563
10
1161679.2456559397
20
500099.1608848333
10
1161679.2242228978
20
500099.909371041
10
1161679.1874328312
20
500100.6276381876
10
1161679.1352857393
20
500101.31568627304
10
1161679.0677816225
20
500101.9735152975
10
1161678.9849204805
20
500102.60112526093
10
1161678.9186897147
20
500103.1020517945
10
1161678.8690893245
20
500103.4762948983
10
1161678.8361193105
20
500103.7238545724
10
1161678.8197796724
20
500103.84473081667
10
1161678.7675386644
20
500104.12250955176
10
1161678.6793962868
20
500104.55719077773
10
1161678.5553525393
20
500105.1487744946
10
1161678.3954074224
20
500105.8972607023
10
1161678.2666544525
20
500106.64574690996
10
1161678.16909363
20
500107.39423311764
10
1161678.102724955
20
500108.1427193253
10
1161678.0675484277
20
500108.891205533
10
1161678.0704178575
20
500109.6396917407
10
1161678.1113332447
20
500110.3881779483
10
1161678.1902945894
20
500111.136664156
10
1161678.307301892
20
500111.8851503637
10
1161678.4186708638
20
500112.5614175551
10
1161678.524401505
20
500113.1654657301
10
1161678.6244938162
20
500113.69729488884
10
1161678.7189477966
20
500114.1569050313
10
1161678.806856859
20
500114.57383165444
10
1161678.8882210026
20
500114.9480747582
10
1161678.9630402282
20
500115.27963434276
10
1161679.0313145355
20
500115.56851040805
10
1161679.0968182795
20
500115.9722890089
10
1161679.1595514598
20
500116.4909701453
10
1161679.219514077
20
500117.1245538174
10
1161679.2767061312
20
500117.873040025
10
1161679.332307726
20
500118.6215262327
10
1161679.3863188617
20
500119.3700124403
10
1161679.4387395382
20
500120.118498648
10
1161679.4895697557
20
500120.86698485573
10
1161679.5531669632
20
500121.6154710634
10
1161679.629531161
20
500122.36395727104
10
1161679.7186623486
20
500123.1124434787
10
1161679.820560526
20
500123.8609296864
10
1161679.9310413618
20
500124.6094158941
10
1161680.0501048556
20
500125.35790210176
10
1161680.177751007
20
500126.10638830945
10
1161680.3139798166
20
500126.8548745171
10
1161680.4532889035
20
500127.6033607248
10
1161680.5956782673
20
500128.35184693243
10
1161680.7411479084
20
500129.1003331401
10
1161680.8896978267
20
500129.8488193478
10
1161681.0340944943
20
500130.5973055555
10
1161681.1743379112
20
500131.34579176304
10
1161681.3104280778
20
500132.0942779707
10
1161681.4423649935
20
500132.8427641784
10
1161681.5547116324
20
500133.5267075683
10
1161681.6474679941
20
500134.1461081404
10
1161681.7206340788
20
500134.7009658948
10
1161681.7742098868
20
500135.1912808314
10
1161681.8208078423
20
500135.62355985167
10
1161681.8604279459
20
500135.99780295545
10
1161681.893070197
20
500136.3140101429
10
1161681.9187345959
20
500136.572181414
10
1161681.9521566087
20
500136.9529314192
10
1161681.9933362354
20
500137.4562601585
10
1161682.042273476
20
500138.08216763206
10
1161682.0989683303
20
500138.8306538398
10
1161682.1723417107
20
500139.5791400475
10
1161682.2623936168
20
500140.3276262551
10
1161682.3691240489
20
500141.0761124628
10
1161682.4925330072
20
500141.8245986705
10
1161682.6215530285
20
500142.57308487815
10
1161682.7561841134
20
500143.32157108583
10
1161682.8964262614
20
500144.0700572935
10
1161683.042279473
20
500144.81854350114
10
1161683.2101703226
20
500145.56702970876
10
1161683.400098811
20
500146.31551591656
10
1161683.6120649371
20
500147.0640021242
10
1161683.8460687017
20
500147.8124883318
10
1161684.0622867802
20
500148.50606371317
10
1161684.2607191727
20
500149.1447282682
10
1161684.4413658788
20
500149.7284819969
10
1161684.6042268989
20
500150.2573248993
10
1161684.743268684
20
500150.7088679024
10
1161684.8584912342
20
500151.0831110062
10
1161684.9498945496
20
500151.3800542108
10
1161685.0174786297
20
500151.59969751607
10
1161685.0914378497
20
500151.951551547
10
1161685.1717722092
20
500152.43561630347
10
1161685.2584817081
20
500153.0518917855
10
1161685.3515663466
20
500153.8003779932
10
1161685.4412478046
20
500154.5488642009
10
1161685.527526082
20
500155.2973504085
10
1161685.6104011787
20
500156.0458366162
10
1161685.689873095
20
500156.7943228239
10
1161685.782733481
20
500157.54280903155
10
1161685.8889823372
20
500158.29129523924
10
1161686.0086196633
20
500159.0397814469
10
1161686.1416454595
20
500159.7882676546
10
1161686.2881277155
20
500160.5367538623
10
1161686.4480664313
20
500161.28524006985
10
1161686.621461607
20
500162.0337262775
10
1161686.8083132426
20
500162.7822124852
0
LWPOLYLINE
5
38
330
C
100
AcDbEntity
8
C-TOPO-MAJR-E
100
AcDbPolyline
90
368
70
0
43
0
38
0
39
0
10
1161710.3667459732
20
499935.9908915613
10
1161710.248215068
20
499936.73937776894
10
1161710.1188868356
20
499937.4878639766
10
1161709.9787612762
20
499938.23635018425
10
1161709.823273006
20
499938.9848363919
10
1161709.652422024
20
499939.73332259967
10
1161709.4662083308
20
499940.48180880735
10
1161709.2646319265
20
499941.2302950149
10
1161709.103312733
20
499941.82548649923
10
1161708.98225075
20
499942.26738326007
10
1161708.9014459779
20
499942.55598529754
10
1161708.8608984165
20
499942.6912926116
10
1161708.7875813558
20
499942.94606782054
10
1161708.6814947962
20
499943.3203109244
10
1161708.542638737
20
499943.8140219231
10
1161708.3710131783
20
499944.4272008167
10
1161708.2109513485
20
499945.07420653885
10
1161708.0624532476
20
499945.7550390895
10
1161707.925518875
20
499946.46969846863
10
1161707.8001482314
20
499947.21818467637
10
1161707.6796022374
20
499947.96667088405
10
1161707.563880893
20
499948.7151570917
10
1161707.4529841985
20
499949.46364329936
10
1161707.3469121538
20
499950.21212950704
10
1161707.2370966761
20
499950.9606157147
10
1161707.123537766
20
499951.70910192234
10
1161707.006235423
20
499952.45758813
10
1161706.8851896473
20
499953.2060743377
10
1161706.7702579254
20
499953.9545605454
10
1161706.661440257
20
499954.70304675295
10
1161706.5587366426
20
499955.45153296064
10
1161706.4621470817
20
499956.2000191683
10
1161706.387562922
20
499956.948505376
10
1161706.334984163
20
499957.6969915837
10
1161706.304410805
20
499958.44547779136
10
1161706.295842848
20
499959.19396399905
10
1161706.2917890088
20
499959.9424502067
10
1161706.292249287
20
499960.69093641435
10
1161706.297223683
20
499961.43942262203
10
1161706.3067121967
20
499962.1879088297
10
1161706.2945256955
20
499962.9363950374
10
1161706.2606641795
20
499963.684881245
10
1161706.2051276488
20
499964.4333674527
10
1161706.1279161035
20
499965.18185366044
10
1161706.0571345354
20
499965.8064197274
10
1161705.9927829448
20
499966.30706565356
10
1161705.934861332
20
499966.68379143905
10
1161705.8833696966
20
499966.9365970838
10
1161705.8160030572
20
499967.2501214581
10
1161705.7327614136
20
499967.624364562
10
1161705.633644766
20
499968.05932639533
10
1161705.5186531146
20
499968.5550069582
10
1161705.3908412415
20
499969.1138889323
10
1161705.2502091466
20
499969.73597231763
10
1161705.0967568308
20
499970.4212571141
10
1161704.9304842935
20
499971.1697433217
10
1161704.769721659
20
499971.9182295294
10
1161704.6144689275
20
499972.6667157371
10
1161704.464726099
20
499973.41520194476
10
1161704.3204931733
20
499974.16368815245
10
1161704.1828664679
20
499974.9121743601
10
1161704.0518459824
20
499975.66066056775
10
1161703.9274317173
20
499976.40914677543
10
1161703.809623672
20
499977.1576329832
10
1161703.7053149096
20
499977.90611919085
10
1161703.61450543
20
499978.6546053985
10
1161703.537195233
20
499979.40309160616
10
1161703.4733843186
20
499980.15157781384
10
1161703.4158264552
20
499980.9000640215
10
1161703.364521643
20
499981.64855022915
10
1161703.3194698815
20
499982.3970364368
10
1161703.280671171
20
499983.1455226445
10
1161703.2259292824
20
499983.86797907716
10
1161703.1552442156
20
499984.56440573477
10
1161703.0686159707
20
499985.23480261746
10
1161702.966044548
20
499985.8791697252
10
1161702.8851051237
20
499986.38847483095
10
1161702.825797698
20
499986.76271793473
10
1161702.7881222717
20
499987.00189903664
10
1161702.7720788438
20
499987.10601813666
10
1161702.7062819744
20
499987.37122901354
10
1161702.5907316632
20
499987.79753166734
10
1161702.42542791
20
499988.3849260981
10
1161702.2103707148
20
499989.1334123058
10
1161701.976946514
20
499989.8818985135
10
1161701.7251553077
20
499990.63038472115
10
1161701.4549970953
20
499991.37887092883
10
1161701.1664718774
20
499992.1273571365
10
1161700.8928628722
20
499992.8682947594
10
1161700.6341700796
20
499993.60168379766
10
1161700.3903934998
20
499994.32752425113
10
1161700.1615331327
20
499995.0458161199
10
1161699.9875134556
20
499995.5920836061
10
1161699.8683344678
20
499995.96632670995
10
1161699.8039961695
20
499996.16854543134
10
1161699.794498561
20
499996.1987397703
10
1161699.7539227568
20
499996.40850707644
10
1161699.6822687574
20
499996.7978473497
10
1161699.5795365623
20
499997.36676059023
10
1161699.445726172
20
499998.11524679785
10
1161699.3192655146
20
499998.8637330055
10
1161699.20015459
20
499999.6122192133
10
1161699.0883933986
20
500000.3607054209
10
1161698.9839819402
20
500001.1091916285
10
1161698.862979059
20
500001.8576778362
10
1161698.725384755
20
500002.6061640438
10
1161698.5711990283
20
500003.3546502515
10
1161698.4004218788
20
500004.10313645925
10
1161698.2136828376
20
500004.85162266693
10
1161698.0109819046
20
500005.60010887455
10
1161697.7923190799
20
500006.34859508224
10
1161697.5576943639
20
500007.0970812899
10
1161697.3578846054
20
500007.739844506
10
1161697.192889805
20
500008.27688473056
10
1161697.0627099625
20
500008.7082019635
10
1161696.9673450785
20
500009.0337962049
10
1161696.8660618812
20
500009.3837148775
10
1161696.758860371
20
500009.7579579813
10
1161696.6457405481
20
500010.15652551636
10
1161696.5267024129
20
500010.57941748266
10
1161696.3915170683
20
500011.08370800933
10
1161696.2401845152
20
500011.66939709627
10
1161696.0727047534
20
500012.33648474363
10
1161695.8890777826
20
500013.0849709513
10
1161695.7149945449
20
500013.833457159
10
1161695.5504550396
20
500014.58194336656
10
1161695.395459267
20
500015.33042957424
10
1161695.2500072273
20
500016.0789157819
10
1161695.0971653936
20
500016.8274019896
10
1161694.9369337657
20
500017.5758881972
10
1161694.769312344
20
500018.3243744049
10
1161694.5943011288
20
500019.0728606126
10
1161694.4317032555
20
500019.81855598325
10
1161694.2815187247
20
500020.5614605169
10
1161694.1437475362
20
500021.3015742135
10
1161694.0183896902
20
500022.0388970731
10
1161693.9239225225
20
500022.5946800548
10
1161693.8603460328
20
500022.96892315865
10
1161693.8276602216
20
500023.1616263846
10
1161693.8258650887
20
500023.1727897327
10
1161693.8049973603
20
500023.3682837957
10
1161693.7650570371
20
500023.7481085735
10
1161693.7060441182
20
500024.3122640663
10
1161693.6279586041
20
500025.06075027405
10
1161693.532791102
20
500025.8092364817
10
1161693.4205416122
20
500026.55772268935
10
1161693.2912101343
20
500027.30620889703
10
1161693.1447966686
20
500028.05469510466
10
1161692.9807169214
20
500028.8031813123
10
1161692.7989708933
20
500029.5516675201
10
1161692.5995585837
20
500030.3001537277
10
1161692.3824799925
20
500031.0486399353
10
1161692.1674065553
20
500031.797126143
10
1161691.954338272
20
500032.54561235063
10
1161691.7432751423
20
500033.2940985583
10
1161691.5342171662
20
500034.04258476605
10
1161691.3534098023
20
500034.776961347
10
1161691.2008530502
20
500035.49722830096
10
1161691.0765469102
20
500036.2033856282
10
1161690.9804913823
20
500036.8954333287
10
1161690.906246122
20
500037.4285787308
10
1161690.8538111297
20
500037.8028218346
10
1161690.823186405
20
500038.01816264016
10
1161690.8143719486
20
500038.0746011473
10
1161690.8099647202
20
500038.21295457816
10
1161690.8099647202
20
500038.4332229326
10
1161690.8143719486
20
500038.7354062107
10
1161690.823186405
20
500039.11950441235
10
1161690.8318545553
20
500039.4986750651
10
1161690.840376399
20
500039.8729181689
10
1161690.8487519359
20
500040.2422337238
10
1161690.8569811662
20
500040.6066217299
10
1161690.8711897447
20
500041.06703428633
10
1161690.8913776707
20
500041.6234713931
10
1161690.9175449451
20
500042.2759330503
10
1161690.9496915676
20
500043.0244192581
10
1161690.9881723814
20
500043.7729054658
10
1161691.0329873865
20
500044.52139167336
10
1161691.0841365831
20
500045.26987788104
10
1161691.141619971
20
500046.0183640887
10
1161691.1860218467
20
500046.7668502964
10
1161691.21734221
20
500047.51533650403
10
1161691.2355810609
20
500048.2638227117
10
1161691.2407383996
20
500049.0123089194
10
1161691.2271205415
20
500049.7607951271
10
1161691.1947274865
20
500050.5092813347
10
1161691.1435592347
20
500051.2577675424
10
1161691.0736157862
20
500052.0062537501
10
1161691.012889917
20
500052.6855618557
10
1161690.9613816277
20
500053.29569185904
10
1161690.9190909173
20
500053.8366437603
10
1161690.8860177866
20
500054.3084175595
10
1161690.8566728744
20
500054.73142601096
10
1161690.8310561809
20
500055.10566911474
10
1161690.8091677062
20
500055.43114687095
10
1161690.79100745
20
500055.7078592795
10
1161690.7711893774
20
500056.10251513775
10
1161690.7497134882
20
500056.6151144459
10
1161690.7265797823
20
500057.24565720384
10
1161690.70178826
20
500057.9941434114
10
1161690.662453202
20
500058.7426296191
10
1161690.6085746093
20
500059.4911158269
10
1161690.5401524808
20
500060.2396020345
10
1161690.4571868167
20
500060.9880882421
10
1161690.375258843
20
500061.7365744498
10
1161690.294368559
20
500062.48506065743
10
1161690.214515965
20
500063.2335468651
10
1161690.1357010603
20
500063.98203307285
10
1161690.093454706
20
500064.73051928054
10
1161690.0877769017
20
500065.47900548816
10
1161690.1186676477
20
500066.22749169584
10
1161690.1861269434
20
500066.9759779035
10
1161690.2688465072
20
500067.7244641112
10
1161690.3668263392
20
500068.4729503188
10
1161690.480066439
20
500069.2214365265
10
1161690.6085668067
20
500069.9699227342
10
1161690.7071352531
20
500070.61036425154
10
1161690.7757717785
20
500071.14276107843
10
1161690.814476383
20
500071.5671132151
10
1161690.8232490658
20
500071.88342066144
10
1161690.8325013034
20
500072.22869593656
10
1161690.8422330949
20
500072.60293904034
10
1161690.852444441
20
500073.00614997296
10
1161690.8631353416
20
500073.4383287343
10
1161690.8684807918
20
500073.80641028704
10
1161690.8684807918
20
500074.1103946312
10
1161690.8631353416
20
500074.3502817668
10
1161690.852444441
20
500074.5260716938
10
1161690.8343109929
20
500074.80108820926
10
1161690.808734997
20
500075.17533131305
10
1161690.7757164533
20
500075.6488010053
10
1161690.735255362
20
500076.221497286
10
1161690.6840283393
20
500076.8381410484
10
1161690.6220353853
20
500077.49873229256
10
1161690.5492765
20
500078.2032710185
10
1161690.4657516838
20
500078.9517572262
10
1161690.4341045483
20
500079.6160858872
10
1161690.454335094
20
500080.1962570016
10
1161690.5264433208
20
500080.6922705693
10
1161690.6504292286
20
500081.1041265904
10
1161690.7676721092
20
500081.4971761529
10
1161690.8781719627
20
500081.8714192567
10
1161690.9819287886
20
500082.22685590194
10
1161691.0789425876
20
500082.56348608853
10
1161691.2117569158
20
500083.0030802804
10
1161691.3803717731
20
500083.5456384775
10
1161691.5847871602
20
500084.1911606799
10
1161691.8250030763
20
500084.93964688753
10
1161692.047826909
20
500085.68813309516
10
1161692.2532586583
20
500086.43661930296
10
1161692.4412983241
20
500087.1851055106
10
1161692.6119459062
20
500087.9335917182
10
1161692.7700707538
20
500088.6820779259
10
1161692.9156728669
20
500089.43056413357
10
1161693.048752245
20
500090.17905034125
10
1161693.1693088883
20
500090.92753654893
10
1161693.2770062953
20
500091.6760227566
10
1161693.3718444656
20
500092.42450896424
10
1161693.4538233993
20
500093.1729951719
10
1161693.5229430965
20
500093.92148137966
10
1161693.5875160117
20
500094.643761931
10
1161693.647542145
20
500095.339836826
10
1161693.7030214968
20
500096.0097060647
10
1161693.7539540664
20
500096.6533696471
10
1161693.7944156483
20
500097.16232299025
10
1161693.8244062425
20
500097.53656609403
10
1161693.8439258486
20
500097.77609895857
10
1161693.8529744665
20
500097.88092158386
10
1161693.8737730354
20
500098.14666010474
10
1161693.9063215544
20
500098.5733145212
10
1161693.950620024
20
500099.1608848333
10
1161694.006668444
20
500099.909371041
10
1161694.0521639963
20
500100.6578572487
10
1161694.0871066814
20
500101.40634345624
10
1161694.1114964988
20
500102.1548296639
10
1161694.1253334486
20
500102.9033158716
10
1161694.134907039
20
500103.6518020793
10
1161694.1402172702
20
500104.4002882869
10
1161694.1412641418
20
500105.1487744946
10
1161694.138047654
20
500105.8972607023
10
1161694.1434645085
20
500106.64574690996
10
1161694.1575147058
20
500107.39423311764
10
1161694.1801982454
20
500108.1427193253
10
1161694.2115151277
20
500108.891205533
10
1161694.25373424
20
500109.6396917407
10
1161694.3068555822
20
500110.3881779483
10
1161694.3708791544
20
500111.136664156
10
1161694.4458049566
20
500111.8851503637
10
1161694.5382021344
20
500112.6336365714
10
1161694.6480706881
20
500113.38212277903
10
1161694.7754106172
20
500114.1306089867
10
1161694.920221922
20
500114.87909519434
10
1161695.0661020852
20
500115.62758140196
10
1161695.2130511065
20
500116.37606760976
10
1161695.3610689866
20
500117.1245538174
10
1161695.510155725
20
500117.873040025
10
1161695.6575573767
20
500118.6215262327
10
1161695.8032739419
20
500119.3700124403
10
1161695.94730542
20
500120.118498648
10
1161696.0896518119
20
500120.86698485573
10
1161696.2289820025
20
500121.60968067014
10
1161696.3652959927
20
500122.3465860912
10
1161696.4985937816
20
500123.07770111907
10
1161696.6288753697
20
500123.80302575364
10
1161696.7276540254
20
500124.3528096229
10
1161696.7949297484
20
500124.72705272667
10
1161696.8307025395
20
500124.92575506517
10
1161696.834972398
20
500124.94891663827
10
1161696.866897485
20
500125.15340937
10
1161696.9264778004
20
500125.53923326044
10
1161697.0137133442
20
500126.10638830945
10
1161697.1286041168
20
500126.8548745171
10
1161697.2418990629
20
500127.6033607248
10
1161697.353598183
20
500128.35184693243
10
1161697.4637014768
20
500129.1003331401
10
1161697.5722089442
20
500129.8488193478
10
1161697.6908406466
20
500130.5973055555
10
1161697.8195965835
20
500131.34579176304
10
1161697.9584767555
20
500132.0942779707
10
1161698.1074811623
20
500132.8427641784
10
1161698.2672746459
20
500133.5912503861
10
1161698.4378572062
20
500134.3397365937
10
1161698.6192288434
20
500135.0882228014
10
1161698.8113895576
20
500135.8367090091
10
1161698.9981955388
20
500136.58519521676
10
1161699.1796467872
20
500137.3336814244
10
1161699.355743303
20
500138.08216763206
10
1161699.5264850857
20
500138.8306538398
10
1161699.6567692244
20
500139.3995956116
10
1161699.7465957184
20
500139.78899294755
10
1161699.7959645684
20
500139.9988458476
10
1161699.8048757738
20
500140.02915431175
10
1161699.8589972174
20
500140.23143009574
10
1161699.958328899
20
500140.60567319964
10
1161700.1028708182
20
500141.15188362333
10
1161700.2926229753
20
500141.8700613668
10
1161700.4710630334
20
500142.5958162264
10
1161700.6381909922
20
500143.32914820185
10
1161700.794006852
20
500144.0700572935
10
1161700.9385106124
20
500144.81854350114
10
1161701.0928108844
20
500145.56702970876
10
1161701.2569076677
20
500146.31551591656
10
1161701.4308009627
20
500147.0640021242
10
1161701.6144907689
20
500147.8124883318
10
1161701.8024826243
20
500148.5609745395
10
1161701.9947765283
20
500149.3094607471
10
1161702.1913724816
20
500150.0579469548
10
1161702.3922704838
20
500150.80643316254
10
1161702.550354606
20
500151.39660198474
10
1161702.6656248476
20
500151.8284534215
10
1161702.7380812094
20
500152.10198747274
10
1161702.767723691
20
500152.2172041385
10
1161702.826876942
20
500152.46193402336
10
1161702.9155409625
20
500152.8361771272
10
1161703.0337157524
20
500153.33993345
10
1161703.1814013124
20
500153.97320299194
10
1161703.322669815
20
500154.63527670025
10
1161703.4575212612
20
500155.326154575
10
1161703.5859556505
20
500156.0458366162
10
1161703.707972983
20
500156.7943228239
10
1161703.8394833757
20
500157.54280903155
10
1161703.9804868284
20
500158.29129523924
10
1161704.130983341
20
500159.0397814469
10
1161704.2909729138
20
500159.7882676546
10
1161704.4676352772
20
500160.5367538623
10
1161704.6609704308
20
500161.28524006985
10
1161704.8709783754
20
500162.0337262775
10
1161705.09765911
20
500162.7822124852
0
LWPOLYLINE
5
39
330
C
100
AcDbEntity
8
C-TOPO-MAJR-E
100
AcDbPolyline
90
352
70
0
43
0
38
0
39
0
10
1161723.4172602687
20
499935.9908915613
10
1161723.3256162698
20
499936.73937776894
10
1161723.21735135
20
499937.4878639766
10
1161723.0924655101
20
499938.23635018425
10
1161722.932786618
20
499938.9848363919
10
1161722.7383146742
20
499939.73332259967
10
1161722.5090496785
20
499940.48180880735
10
1161722.244991631
20
499941.2302950149
10
1161721.9798825854
20
499941.9475751773
10
1161721.713722541
20
499942.6336492944
10
1161721.4465114987
20
499943.28851736605
10
1161721.1782494583
20
499943.91217939236
10
1161720.965045269
20
499944.41113195743
10
1161720.806898931
20
499944.7853750613
10
1161720.703810445
20
499945.0349087039
10
1161720.6557798102
20
499945.15973288513
10
1161720.5682420414
20
499945.44047257304
10
1161720.4411971385
20
499945.87712776754
10
1161720.2746451015
20
499946.46969846863
10
1161720.0685859304
20
499947.21818467637
10
1161719.8706094013
20
499947.96667088405
10
1161719.680715514
20
499948.7151570917
10
1161719.4989042687
20
499949.46364329936
10
1161719.3251756653
20
499950.21212950704
10
1161719.175348208
20
499950.9606157147
10
1161719.0494218965
20
499951.70910192234
10
1161718.9473967312
20
499952.45758813
10
1161718.8692727122
20
499953.2060743377
10
1161718.8121487899
20
499953.9545605454
10
1161718.7760249646
20
499954.70304675295
10
1161718.7609012364
20
499955.45153296064
10
1161718.7667776055
20
499956.2000191683
10
1161718.7619629912
20
499956.948505376
10
1161718.7464573933
20
499957.6969915837
10
1161718.720260812
20
499958.44547779136
10
1161718.6833732473
20
499959.19396399905
10
1161718.6142672873
20
499959.9424502067
10
1161718.512942932
20
499960.69093641435
10
1161718.3794001816
20
499961.43942262203
10
1161718.2136390354
20
499962.1879088297
10
1161718.0778753166
20
499962.785153499
10
1161717.9721090246
20
499963.23115662974
10
1161717.8963401602
20
499963.52591822215
10
1161717.8505687227
20
499963.6694382761
10
1161717.7719544056
20
499963.92831985495
10
1161717.6604972086
20
499964.3025629588
10
1161717.516197132
20
499964.7921675876
10
1161717.3390541757
20
499965.39713374135
10
1161717.1713050539
20
499966.0379799086
10
1161717.0129497666
20
499966.71470608923
10
1161716.8639883138
20
499967.4273122834
10
1161716.7244206956
20
499968.17579849105
10
1161716.6178840026
20
499968.9242846987
10
1161716.5443782355
20
499969.6727709065
10
1161716.5039033934
20
499970.4212571141
10
1161716.4964594769
20
499971.1697433217
10
1161716.5160803667
20
499971.9182295294
10
1161716.5627660626
20
499972.6667157371
10
1161716.6365165648
20
499973.41520194476
10
1161716.7373318733
20
499974.16368815245
10
1161716.8335057376
20
499974.9121743601
10
1161716.9250381577
20
499975.66066056775
10
1161717.0119291337
20
499976.40914677543
10
1161717.0941786657
20
499977.1576329832
10
1161717.1478299005
20
499977.90611919085
10
1161717.1728828382
20
499978.6546053985
10
1161717.169337479
20
499979.40309160616
10
1161717.1371938228
20
499980.15157781384
10
1161717.091472857
20
499980.9000640215
10
1161717.0321745814
20
499981.64855022915
10
1161716.9592989967
20
499982.3970364368
10
1161716.8728461026
20
499983.1455226445
10
1161716.7957709576
20
499983.8940088522
10
1161716.7280735625
20
499984.64249505976
10
1161716.6697539163
20
499985.39098126744
10
1161716.6208120198
20
499986.1394674751
10
1161716.5780830535
20
499986.8879536828
10
1161716.541567018
20
499987.6364398904
10
1161716.5112639128
20
499988.3849260981
10
1161716.487173738
20
499989.1334123058
10
1161716.4545837434
20
499989.8818985135
10
1161716.4134939285
20
499990.63038472115
10
1161716.3639042939
20
499991.37887092883
10
1161716.3058148394
20
499992.1273571365
10
1161716.2360517322
20
499992.8758433442
10
1161716.1546149724
20
499993.6243295518
10
1161716.06150456
20
499994.3728157595
10
1161715.9567204956
20
499995.12130196724
10
1161715.8600240308
20
499995.8697881749
10
1161715.7714151656
20
499996.61827438255
10
1161715.6908939008
20
499997.36676059023
10
1161715.618460236
20
499998.11524679785
10
1161715.5548414905
20
499998.8637330055
10
1161715.500037664
20
499999.6122192133
10
1161715.4540487574
20
500000.3607054209
10
1161715.41687477
20
500001.1091916285
10
1161715.364848991
20
500001.8576778362
10
1161715.2979714207
20
500002.6061640438
10
1161715.2162420591
20
500003.3546502515
10
1161715.119660906
20
500004.10313645925
10
1161715.035548639
20
500004.7115950984
10
1161714.9639052572
20
500005.1800261689
10
1161714.9047307614
20
500005.5084296708
10
1161714.8580251513
20
500005.69680560427
10
1161714.7721896037
20
500005.9781151229
10
1161714.647224118
20
500006.35235822666
10
1161714.483128695
20
500006.81953491573
10
1161714.2799033343
20
500007.3796451901
10
1161714.0747946454
20
500007.9868494477
10
1161713.8678026288
20
500008.6411476886
10
1161713.6589272837
20
500009.34253991296
10
1161713.4481686107
20
500010.09102612064
10
1161713.2558813046
20
500010.8395123283
10
1161713.0820653655
20
500011.58799853595
10
1161712.9267207934
20
500012.33648474363
10
1161712.7898475882
20
500013.0849709513
10
1161712.6377854422
20
500013.82077043504
10
1161712.4705343554
20
500014.5438831949
10
1161712.2880943276
20
500015.25430923095
10
1161712.0904653585
20
500015.952048543
10
1161711.938021771
20
500016.4880397511
10
1161711.8307635647
20
500016.86228285485
10
1161711.7686907398
20
500017.07477785455
10
1161711.7518032964
20
500017.1255247501
10
1161711.6568807887
20
500017.3507064737
10
1161711.4839232173
20
500017.7503230253
10
1161711.2329305816
20
500018.3243744049
10
1161710.903902882
20
500019.0728606126
10
1161710.5999946166
20
500019.8213468203
10
1161710.321205785
20
500020.56983302796
10
1161710.067536388
20
500021.31831923564
10
1161709.8389864247
20
500022.0668054433
10
1161709.6417197408
20
500022.815291651
10
1161709.4757363359
20
500023.5637778586
10
1161709.34103621
20
500024.3122640663
10
1161709.2376193635
20
500025.06075027405
10
1161709.1513086264
20
500025.8092364817
10
1161709.0821039984
20
500026.55772268935
10
1161709.0300054802
20
500027.30620889703
10
1161708.9950130712
20
500028.05469510466
10
1161708.9684709755
20
500028.8031813123
10
1161708.9503791933
20
500029.5516675201
10
1161708.940737724
20
500030.3001537277
10
1161708.9395465686
20
500031.0486399353
10
1161708.9362420645
20
500031.797126143
10
1161708.9308242123
20
500032.54561235063
10
1161708.923293012
20
500033.2940985583
10
1161708.913648463
20
500034.04258476605
10
1161708.9002210163
20
500034.68452788924
10
1161708.8830106715
20
500035.21992792777
10
1161708.8620174283
20
500035.6487848819
10
1161708.8372412866
20
500035.9710987515
10
1161708.8099690126
20
500036.3193772382
10
1161708.780200606
20
500036.69362034206
10
1161708.7479360665
20
500037.09382806305
10
1161708.7131753943
20
500037.5200004011
10
1161708.658081652
20
500038.0267512066
10
1161708.5826548394
20
500038.6140804794
10
1161708.4868949566
20
500039.2819882197
10
1161708.3708020032
20
500040.0304744274
10
1161708.2409623098
20
500040.77896063507
10
1161708.0973758763
20
500041.52744684275
10
1161707.9400427022
20
500042.27593305043
10
1161707.7689627882
20
500043.0244192581
10
1161707.5979490587
20
500043.7729054658
10
1161707.4270015138
20
500044.52139167336
10
1161707.2561201535
20
500045.26987788104
10
1161707.0853049776
20
500046.0183640887
10
1161706.923716914
20
500046.7668502964
10
1161706.771355962
20
500047.51533650403
10
1161706.6282221223
20
500048.2638227117
10
1161706.4943153947
20
500049.0123089194
10
1161706.3669822249
20
500049.7607951271
10
1161706.246222613
20
500050.5092813347
10
1161706.1320365586
20
500051.2577675424
10
1161706.024424062
20
500052.0062537501
10
1161705.9401601227
20
500052.58742682484
10
1161705.8792447406
20
500053.00128676667
10
1161705.841677915
20
500053.24783357553
10
1161705.8274596464
20
500053.3270672515
10
1161705.7849652823
20
500053.5538056414
10
1161705.7141948221
20
500053.9280487452
10
1161705.6151482663
20
500054.449796563
10
1161705.4878256144
20
500055.11904909473
10
1161705.389272491
20
500055.8081100454
10
1161705.3194888951
20
500056.5169794151
10
1161705.2784748278
20
500057.24565720384
10
1161705.2662302884
20
500057.9941434114
10
1161705.2747498795
20
500058.7426296191
10
1161705.3040336007
20
500059.4911158269
10
1161705.3540814526
20
500060.2396020345
10
1161705.4248934344
20
500060.9880882421
10
1161705.479510648
20
500061.7365744498
10
1161705.517933093
20
500062.48506065743
10
1161705.5401607696
20
500063.2335468651
10
1161705.5461936775
20
500063.98203307285
10
1161705.5445228615
20
500064.73051928054
10
1161705.5351483207
20
500065.47900548816
10
1161705.518070056
20
500066.22749169584
10
1161705.4932880667
20
500066.9759779035
10
1161705.4888087597
20
500067.7244641112
10
1161705.5046321345
20
500068.4729503188
10
1161705.5407581911
20
500069.2214365265
10
1161705.5971869298
20
500069.9699227342
10
1161705.6472773715
20
500070.56674300146
10
1161705.6910295165
20
500071.0118973284
10
1161705.7284433648
20
500071.3053857151
10
1161705.7595189165
20
500071.44720816123
10
1161705.8158294477
20
500071.7052409363
10
1161705.8973749587
20
500072.07948404015
10
1161706.0041554498
20
500072.5699374728
10
1161706.1361709205
20
500073.1766012342
10
1161706.274806017
20
500073.81872060715
10
1161706.4200607399
20
500074.49629559176
10
1161706.5719350888
20
500075.20932618785
10
1161706.7304290636
20
500075.9578123955
10
1161706.869181395
20
500076.7062986032
10
1161706.9881920833
20
500077.45478481083
10
1161707.087461128
20
500078.2032710185
10
1161707.1669885297
20
500078.9517572262
10
1161707.2429576516
20
500079.7002434339
10
1161707.3153684936
20
500080.4487296415
10
1161707.3842210562
20
500081.1972158492
10
1161707.4495153395
20
500081.9457020569
10
1161707.5186306206
20
500082.6941882646
10
1161707.5915669003
20
500083.44267447223
10
1161707.6683241783
20
500084.1911606799
10
1161707.7489024545
20
500084.93964688753
10
1161707.8297241528
20
500085.68813309516
10
1161707.910789273
20
500086.43661930296
10
1161707.9920978153
20
500087.1851055106
10
1161708.0736497792
20
500087.9335917182
10
1161708.1554884498
20
500088.6820779259
10
1161708.2376138268
20
500089.43056413357
10
1161708.3200259102
20
500090.17905034125
10
1161708.4027246998
20
500090.92753654893
10
1161708.481830304
20
500091.6115814267
10
1161708.5573427225
20
500092.2311849744
10
1161708.6292619556
20
500092.78634719225
10
1161708.6975880032
20
500093.27706808015
10
1161708.7584342016
20
500093.70955007605
10
1161708.8118005511
20
500094.0837931799
10
1161708.8576870514
20
500094.39979739167
10
1161708.8960937026
20
500094.65756271145
10
1161708.954772532
20
500095.0380082532
10
1161709.0337235394
20
500095.54113401694
10
1161709.1329467248
20
500096.16694000264
10
1161709.2524420882
20
500096.9154262103
10
1161709.3694138327
20
500097.663912418
10
1161709.4838619586
20
500098.41239862563
10
1161709.5957864653
20
500099.1608848333
10
1161709.7051873528
20
500099.909371041
10
1161709.813052159
20
500100.6578572487
10
1161709.9193808837
20
500101.40634345624
10
1161710.0241735266
20
500102.1548296639
10
1161710.127430088
20
500102.9033158716
10
1161710.2304648708
20
500103.6518020793
10
1161710.3332778753
20
500104.4002882869
10
1161710.4358691014
20
500105.1487744946
10
1161710.5382385491
20
500105.8972607023
10
1161710.6401227321
20
500106.64574690996
10
1161710.74152165
20
500107.39423311764
10
1161710.8424353031
20
500108.1427193253
10
1161710.9428636916
20
500108.891205533
10
1161711.044829561
20
500109.6396917407
10
1161711.1483329118
20
500110.3881779483
10
1161711.2533737437
20
500111.136664156
10
1161711.359952057
20
500111.8851503637
10
1161711.4570234406
20
500112.57978090993
10
1161711.5445878946
20
500113.22055579466
10
1161711.6226454189
20
500113.8074750179
10
1161711.6911960132
20
500114.3405385797
10
1161711.749217486
20
500114.7941919125
10
1161711.7967098372
20
500115.16843501636
10
1161711.8336730662
20
500115.4632678912
10
1161711.8601071737
20
500115.6786905371
10
1161711.9025640893
20
500116.02737907344
10
1161711.961043813
20
500116.5093335002
10
1161712.0355463452
20
500117.1245538174
10
1161712.1260716855
20
500117.873040025
10
1161712.220382425
20
500118.6215262327
10
1161712.3184785638
20
500119.3700124403
10
1161712.4203601023
20
500120.118498648
10
1161712.5260270399
20
500120.86698485573
10
1161712.6416305564
20
500121.6154710634
10
1161712.7671706518
20
500122.36395727104
10
1161712.9026473265
20
500123.1124434787
10
1161713.04806058
20
500123.8609296864
10
1161713.1982066666
20
500124.6094158941
10
1161713.353085587
20
500125.35790210176
10
1161713.5126973407
20
500126.10638830945
10
1161713.6770419276
20
500126.8548745171
10
1161713.8451585355
20
500127.6033607248
10
1161714.0170471643
20
500128.35184693243
10
1161714.1927078138
20
500129.1003331401
10
1161714.372140484
20
500129.8488193478
10
1161714.5158823146
20
500130.4568755191
10
1161714.6239333055
20
500130.924501654
10
1161714.696293457
20
500131.2516977527
10
1161714.7329627685
20
500131.438463815
10
1161714.785925325
20
500131.71896839805
10
1161714.8551811264
20
500132.09321150195
10
1161714.9407301724
20
500132.56119312654
10
1161715.0425724636
20
500133.1229132718
10
1161715.1346378992
20
500133.73132493277
10
1161715.21692648
20
500134.3864281093
10
1161715.2894382053
20
500135.0882228014
10
1161715.3521730755
20
500135.8367090091
10
1161715.416590022
20
500136.58519521676
10
1161715.482689044
20
500137.3336814244
10
1161715.5504701424
20
500138.08216763206
10
1161715.6199333167
20
500138.8306538398
10
1161715.714834362
20
500139.5791400475
10
1161715.8351732783
20
500140.3276262551
10
1161715.9809500657
20
500141.0761124628
10
1161716.152164724
20
500141.8245986705
10
1161716.3663835211
20
500142.55600776756
10
1161716.6236064574
20
500143.27033975406
10
1161716.9238335323
20
500143.9675946299
10
1161717.267064746
20
500144.64777239517
10
1161717.5333244433
20
500145.1749828297
10
1161717.722612624
20
500145.54922593356
10
1161717.8349292884
20
500145.7705017067
10
1161717.8702744362
20
500145.838810149
10
1161717.9895372957
20
500146.0771630327
10
1161718.1927178667
20
500146.48556035786
10
1161718.4798161495
20
500147.0640021242
10
1161718.8508321438
20
500147.8124883318
10
1161719.207365957
20
500148.5609745395
10
1161719.549417589
20
500149.3094607471
10
1161719.8769870403
20
500150.0579469548
10
1161720.1900743104
20
500150.80643316254
10
1161720.4321492119
20
500151.38754644943
10
1161720.6032117445
20
500151.8012868155
10
1161720.7032619086
20
500152.04765426076
10
1161720.7322997039
20
500152.1266487852
10
1161720.808709581
20
500152.35326759936
10
1161720.9324915395
20
500152.72751070315
10
1161721.1036455794
20
500153.24937809666
10
1161721.3221717011
20
500153.9188697799
10
1161721.5340080932
20
500154.6081100942
10
1161721.739154756
20
500155.3170990396
10
1161721.9376116893
20
500156.0458366162
10
1161722.1293788934
20
500156.7943228239
10
1161722.3149770086
20
500157.54280903155
10
1161722.4944060354
20
500158.29129523924
10
1161722.6676659735
20
500159.0397814469
10
1161722.834756823
20
500159.7882676546
10
1161722.9968470887
20
500160.5367538623
10
1161723.1539367705
20
500161.28524006985
10
1161723.3060258683
20
500162.0337262775
10
1161723.4531143825
20
500162.7822124852
0
LWPOLYLINE
5
3A
330
C
100
AcDbEntity
8
C-TOPO-MAJR-E
100
AcDbPolyline
90
353
70
0
43
0
38
0
39
0
10
1161741.227231572
20
499936.19872970827
10
1161741.0375894173
20
499936.8086571513
10
1161740.8216957795
20
499937.4878639766
10
1161740.579550658
20
499938.23635018425
10
1161740.3243742348
20
499938.9848363919
10
1161740.0561665096
20
499939.73332259967
10
1161739.774927483
20
499940.48180880735
10
1161739.4806571547
20
499941.2302950149
10
1161739.2412215157
20
499941.83167449123
10
1161739.0566205664
20
499942.2859472361
10
1161738.9268543068
20
499942.5931132495
10
1161738.8519227365
20
499942.75317253167
10
1161738.725974902
20
499943.0203237246
10
1161738.5490108035
20
499943.3945668284
10
1161738.3210304405
20
499943.87590184313
10
1161738.0420338132
20
499944.4643287687
10
1161737.7276082495
20
499945.09277051484
10
1161737.3777537495
20
499945.7612270815
10
1161736.9924703129
20
499946.46969846863
10
1161736.5717579396
20
499947.21818467637
10
1161736.244029358
20
499947.79942538857
10
1161736.0092845676
20
499948.2134206051
10
1161735.867523569
20
499948.46017032623
10
1161735.8187463616
20
499948.5396745518
10
1161735.6881463171
20
499948.7665482166
10
1161735.4757234352
20
499949.1407913204
10
1161735.1814777162
20
499949.6624038634
10
1161734.80540916
20
499950.33138584543
10
1161734.4475380094
20
499951.0202438839
10
1161734.1078642642
20
499951.72897797875
10
1161733.7863879246
20
499952.45758813
10
1161733.4831089908
20
499953.2060743377
10
1161733.238365111
20
499953.8753320907
10
1161733.0521562851
20
499954.465361389
10
1161732.9244825137
20
499954.9761622327
10
1161732.855343796
20
499955.4077346218
10
1161732.791984728
20
499955.8106423682
10
1161732.73440531
20
499956.184885472
10
1161732.6826055408
20
499956.53046393325
10
1161732.6365854212
20
499956.8473777519
10
1161732.578843246
20
499957.27218466776
10
1161732.5093790155
20
499957.80488468095
10
1161732.4281927291
20
499958.44547779136
10
1161732.3352843875
20
499959.19396399905
10
1161732.2186513797
20
499959.9424502067
10
1161732.0782937058
20
499960.69093641435
10
1161731.9142113663
20
499961.43942262203
10
1161731.7264043605
20
499962.1879088297
10
1161731.5241845995
20
499962.9363950374
10
1161731.3075520834
20
499963.684881245
10
1161731.0765068121
20
499964.4333674527
10
1161730.8310487852
20
499965.18185366044
10
1161730.6081188237
20
499965.9303398681
10
1161730.4077169271
20
499966.67882607575
10
1161730.2298430956
20
499967.4273122834
10
1161730.0744973293
20
499968.17579849105
10
1161729.9527512677
20
499968.88243811915
10
1161729.8646049104
20
499969.5472311678
10
1161729.8100582582
20
499970.1701776369
10
1161729.7891113106
20
499970.7512775264
10
1161729.7720628148
20
499971.22894902306
10
1161729.7589127705
20
499971.60319212696
10
1161729.749661178
20
499971.87400683796
10
1161729.7443080372
20
499972.04139315605
10
1161729.7408593497
20
499972.35405444656
10
1161729.7393151158
20
499972.8119907095
10
1161729.7396753351
20
499973.41520194476
10
1161729.7419400075
20
499974.16368815245
10
1161729.7370659898
20
499974.9121743601
10
1161729.7250532813
20
499975.66066056775
10
1161729.7059018824
20
499976.40914677543
10
1161729.679611793
20
499977.1576329832
10
1161729.6446259492
20
499977.90611919085
10
1161729.6009443507
20
499978.6546053985
10
1161729.548566998
20
499979.40309160616
10
1161729.4874938908
20
499980.15157781384
10
1161729.4126291887
20
499980.9000640215
10
1161729.3239728918
20
499981.64855022915
10
1161729.221525
20
499982.3970364368
10
1161729.105285513
20
499983.1455226445
10
1161729.0007342144
20
499983.8940088522
10
1161728.907871104
20
499984.64249505976
10
1161728.826696182
20
499985.39098126744
10
1161728.7572094477
20
499986.1394674751
10
1161728.6727808432
20
499986.8879536828
10
1161728.573410368
20
499987.6364398904
10
1161728.4590980227
20
499988.3849260981
10
1161728.3298438068
20
499989.1334123058
10
1161728.2066191693
20
499989.8818985135
10
1161728.08942411
20
499990.63038472115
10
1161727.9782586293
20
499991.37887092883
10
1161727.8731227268
20
499992.1273571365
10
1161727.773954212
20
499992.8758433442
10
1161727.6807530848
20
499993.6243295518
10
1161727.593519345
20
499994.3728157595
10
1161727.5122529927
20
499995.12130196724
10
1161727.442157444
20
499995.8697881749
10
1161727.3832326988
20
499996.61827438255
10
1161727.3354787575
20
499997.36676059023
10
1161727.2988956198
20
499998.11524679785
10
1161727.2773523629
20
499998.8637330055
10
1161727.2708489867
20
499999.6122192133
10
1161727.2793854917
20
500000.3607054209
10
1161727.3029618775
20
500001.1091916285
10
1161727.3304225195
20
500001.8576778362
10
1161727.3617674168
20
500002.6061640438
10
1161727.39699657
20
500003.3546502515
10
1161727.4361099792
20
500004.10313645925
10
1161727.464442479
20
500004.85162266693
10
1161727.4819940692
20
500005.60010887455
10
1161727.4887647503
20
500006.34859508224
10
1161727.4847545219
20
500007.0970812899
10
1161727.473643601
20
500007.8455674976
10
1161727.4554319868
20
500008.5940537053
10
1161727.4301196802
20
500009.34253991296
10
1161727.3977066805
20
500010.09102612064
10
1161727.361003132
20
500010.8395123283
10
1161727.3200090346
20
500011.58799853595
10
1161727.2747243885
20
500012.33648474363
10
1161727.2251491933
20
500013.0849709513
10
1161727.1637777758
20
500013.8229168238
10
1161727.0906101353
20
500014.5503223612
10
1161727.0056462726
20
500015.26718756347
10
1161726.9088861868
20
500015.97351243044
10
1161726.8348917866
20
500016.51379641594
10
1161726.783663072
20
500016.8880395198
10
1161726.7552000424
20
500017.096241742
10
1161726.749502698
20
500017.13840308256
10
1161726.6885168464
20
500017.3571456399
10
1161726.5722424877
20
500017.75246941403
10
1161726.4006796218
20
500018.3243744049
10
1161726.1738282489
20
500019.0728606126
10
1161725.9528242452
20
500019.8213468203
10
1161725.7376676116
20
500020.56983302796
10
1161725.5283583475
20
500021.31831923564
10
1161725.3248964532
20
500022.0668054433
10
1161725.1493706005
20
500022.815291651
10
1161725.0017807893
20
500023.5637778586
10
1161724.8821270196
20
500024.3122640663
10
1161724.7904092912
20
500025.06075027405
10
1161724.7245328908
20
500025.8092364817
10
1161724.6844978186
20
500026.55772268935
10
1161724.670304074
20
500027.30620889703
10
1161724.681951657
20
500028.05469510466
10
1161724.7065520594
20
500028.8031813123
10
1161724.7441052813
20
500029.5516675201
10
1161724.7946113227
20
500030.3001537277
10
1161724.858070183
20
500031.0486399353
10
1161724.9229157811
20
500031.797126143
10
1161724.9891481167
20
500032.54561235063
10
1161725.0567671894
20
500033.2940985583
10
1161725.1257729998
20
500034.04258476605
10
1161725.1809956466
20
500034.79107097373
10
1161725.22243513
20
500035.53955718136
10
1161725.2500914498
20
500036.28804338904
10
1161725.2639646064
20
500037.0365295967
10
1161725.2651684089
20
500037.7850158044
10
1161725.253702857
20
500038.533502012
10
1161725.2295679515
20
500039.2819882197
10
1161725.1927636918
20
500040.0304744274
10
1161725.1608733232
20
500040.77896063507
10
1161725.1338968463
20
500041.52744684275
10
1161725.1118342604
20
500042.27593305043
10
1161725.0946855661
20
500043.0244192581
10
1161725.072838185
20
500043.7729054658
10
1161725.0462921164
20
500044.52139167336
10
1161725.0150473607
20
500045.26987788104
10
1161724.9791039182
20
500046.0183640887
10
1161724.9214085
20
500046.7668502964
10
1161724.8419611072
20
500047.51533650403
10
1161724.7407617387
20
500048.2638227117
10
1161724.617810395
20
500049.0123089194
10
1161724.4841230027
20
500049.7111941942
10
1161724.3396995622
20
500050.36047853617
10
1161724.1845400727
20
500050.9601619453
10
1161724.0186445347
20
500051.5102444216
10
1161723.8765950757
20
500051.97240721167
10
1161723.7583916953
20
500052.34665031545
10
1161723.6640343938
20
500052.6329737331
10
1161723.5935231715
20
500052.83137746446
10
1161723.4902183947
20
500053.16730181494
10
1161723.3541200636
20
500053.6407467845
10
1161723.1852281785
20
500054.2517123731
10
1161722.9835427392
20
500055.00019858073
10
1161722.8112726472
20
500055.74868478836
10
1161722.668417903
20
500056.49717099615
10
1161722.554978506
20
500057.24565720384
10
1161722.4709544561
20
500057.9941434114
10
1161722.4015134496
20
500058.7426296191
10
1161722.3466554864
20
500059.4911158269
10
1161722.3063805657
20
500060.2396020345
10
1161722.2806886884
20
500060.9880882421
10
1161722.253999164
20
500061.7365744498
10
1161722.226311993
20
500062.48506065743
10
1161722.1976271751
20
500063.2335468651
10
1161722.1679447107
20
500063.98203307285
10
1161722.127472607
20
500064.73051928054
10
1161722.0762108644
20
500065.47900548816
10
1161722.0141594827
20
500066.22749169584
10
1161721.941318462
20
500066.9759779035
10
1161721.8637039473
20
500067.7244641112
10
1161721.7813159388
20
500068.4729503188
10
1161721.6941544365
20
500069.2214365265
10
1161721.6022194403
20
500069.9699227342
10
1161721.523166369
20
500070.7184089419
10
1161721.4569952227
20
500071.46689514944
10
1161721.4037060014
20
500072.2153813571
10
1161721.363298705
20
500072.9638675648
10
1161721.370371291
20
500073.7123537725
10
1161721.4249237585
20
500074.46083998017
10
1161721.526956108
20
500075.20932618785
10
1161721.6764683393
20
500075.9578123955
10
1161721.856700506
20
500076.7062986032
10
1161722.067652608
20
500077.45478481083
10
1161722.309324645
20
500078.2032710185
10
1161722.5817166169
20
500078.9517572262
10
1161722.826198372
20
500079.7002434339
10
1161723.0427699103
20
500080.4487296415
10
1161723.2314312316
20
500081.1972158492
10
1161723.3921823364
20
500081.9457020569
10
1161723.5212764293
20
500082.5773528494
10
1161723.618713511
20
500083.0921682267
10
1161723.684493581
20
500083.49014818884
10
1161723.7186166397
20
500083.7712927357
10
1161723.7606901983
20
500084.09898656106
10
1161723.8107142563
20
500084.47322966496
10
1161723.8686888139
20
500084.8940220472
10
1161723.9346138714
20
500085.3613637079
10
1161724.0069246858
20
500085.8989915054
10
1161724.0856212578
20
500086.50690543966
10
1161724.1707035867
20
500087.1851055106
10
1161724.262171673
20
500087.9335917182
10
1161724.358367746
20
500088.6820779259
10
1161724.459291806
20
500089.43056413357
10
1161724.564943853
20
500090.17905034125
10
1161724.6753238875
20
500090.92753654893
10
1161724.7893821292
20
500091.6760227566
10
1161724.9071185787
20
500092.42450896424
10
1161725.028533236
20
500093.1729951719
10
1161725.1536261006
20
500093.92148137966
10
1161725.2678899574
20
500094.66996758734
10
1161725.371324806
20
500095.41845379496
10
1161725.4639306464
20
500096.16694000264
10
1161725.545707479
20
500096.9154262103
10
1161725.6154747745
20
500097.663912418
10
1161725.6732325333
20
500098.41239862563
10
1161725.7189807554
20
500099.1608848333
10
1161725.7527194407
20
500099.909371041
10
1161725.7857044335
20
500100.6578572487
10
1161725.8179357338
20
500101.40634345624
10
1161725.8494133414
20
500102.1548296639
10
1161725.8801372566
20
500102.9033158716
10
1161725.9177978286
20
500103.6518020793
10
1161725.962395058
20
500104.4002882869
10
1161726.0139289442
20
500105.1487744946
10
1161726.0723994873
20
500105.8972607023
10
1161726.1404894027
20
500106.64574690996
10
1161726.21819869
20
500107.39423311764
10
1161726.3055273492
20
500108.1427193253
10
1161726.4024753803
20
500108.891205533
10
1161726.4886769434
20
500109.5618050876
10
1161726.5641320378
20
500110.154517989
10
1161726.628840664
20
500110.6693442374
10
1161726.682802822
20
500111.1062838328
10
1161726.7339473765
20
500111.51187518233
10
1161726.782274328
20
500111.8861182862
10
1161726.8277836763
20
500112.2290131443
10
1161726.8704754212
20
500112.5405597566
10
1161726.9062855972
20
500112.96134126786
10
1161726.9352142045
20
500113.49135767785
10
1161726.957261243
20
500114.1306089867
10
1161726.972426712
20
500114.87909519434
10
1161727.019109346
20
500115.62758140196
10
1161727.0973091447
20
500116.37606760976
10
1161727.2070261077
20
500117.1245538174
10
1161727.3482602355
20
500117.873040025
10
1161727.5325735954
20
500118.6215262327
10
1161727.7599661874
20
500119.3700124403
10
1161728.0304380115
20
500120.118498648
10
1161728.3439890677
20
500120.86698485573
10
1161728.6381133124
20
500121.5567471534
10
1161728.9128107454
20
500122.187785541
10
1161729.1680813665
20
500122.7601000186
10
1161729.4039251753
20
500123.2736905861
10
1161729.6114082632
20
500123.7176074218
10
1161729.7905306295
20
500124.0918505256
10
1161729.9412922745
20
500124.39641989756
10
1161730.063693198
20
500124.63131553784
10
1161730.237368784
20
500124.99460881983
10
1161730.4623190323
20
500125.48629974364
10
1161730.7385439433
20
500126.10638830945
10
1161731.0660435169
20
500126.8548745171
10
1161731.365106123
20
500127.6033607248
10
1161731.6357317616
20
500128.35184693243
10
1161731.877920433
20
500129.1003331401
10
1161732.0916721367
20
500129.8488193478
10
1161732.2731944164
20
500130.5680755971
10
1161732.422487272
20
500131.2581018881
10
1161732.539550703
20
500131.9188982209
10
1161732.6243847096
20
500132.5504645952
10
1161732.6917325892
20
500133.0533693343
10
1161732.7415943416
20
500133.4276124382
10
1161732.7739699665
20
500133.6731939068
10
1161732.7888594638
20
500133.79011373996
10
1161732.830289751
20
500134.06492516684
10
1161732.898260828
20
500134.4976281873
10
1161732.9927726947
20
500135.0882228014
10
1161733.113825351
20
500135.8367090091
10
1161733.2589871718
20
500136.58519521676
10
1161733.4282581573
20
500137.3336814244
10
1161733.6216383073
20
500138.08216763206
10
1161733.8391276218
20
500138.8306538398
10
1161734.0693068309
20
500139.5791400475
10
1161734.3121759337
20
500140.3276262551
10
1161734.5677349311
20
500141.0761124628
10
1161734.835983823
20
500141.8245986705
10
1161735.0688719535
20
500142.46923597914
10
1161735.2663993232
20
500143.0100243888
10
1161735.4285659317
20
500143.44696389936
10
1161735.5553717792
20
500143.7800545109
10
1161735.6909544598
20
500144.1337213686
10
1161735.835313973
20
500144.50796447246
10
1161735.9884503193
20
500144.90278382244
10
1161736.1503634986
20
500145.31817941845
10
1161736.328747265
20
500145.81684766745
10
1161736.5236016188
20
500146.39878856944
10
1161736.7349265602
20
500147.0640021242
10
1161736.962722089
20
500147.8124883318
10
1161737.1655833516
20
500148.5609745395
10
1161737.3435103486
20
500149.3094607471
10
1161737.4965030795
20
500150.0579469548
10
1161737.6245615445
20
500150.80643316254
10
1161737.7478064364
20
500151.5549193702
10
1161737.8662377554
20
500152.30340557784
10
1161737.979855501
20
500153.0518917855
10
1161738.088659674
20
500153.8003779932
10
1161738.200741519
20
500154.4790423098
10
1161738.3161010365
20
500155.08788473526
10
1161738.434738226
20
500155.62690526963
10
1161738.5566530882
20
500156.0961039128
10
1161738.6725772205
20
500156.51782478637
10
1161738.7825106229
20
500156.89206789027
10
1161738.8864532958
20
500157.2188332244
10
1161738.9844052393
20
500157.4981207888
10
1161739.1618955731
20
500157.89470801404
10
1161739.4189242972
20
500158.40859490004
10
1161739.7554914122
20
500159.0397814469
10
1161740.1715969176
20
500159.7882676546
10
1161740.5422832365
20
500160.44456186466
10
1161740.867550369
20
500161.00866407715
10
1161741.1473983144
20
500161.480574292
10
1161741.3818270734
20
500161.8602925093
10
1161741.616305668
20
500162.2372731699
0
LWPOLYLINE
5
3B
330
C
100
AcDbEntity
8
C-TOPO-MAJR-E
100
AcDbPolyline
90
368
70
0
43
0
38
0
39
0
10
1161758.8105253237
20
499936.18081173307
10
1161758.57708415
20
499936.8026844929
10
1161758.355237937
20
499937.4878639766
10
1161758.1449866844
20
499938.23635018425
10
1161757.9277991636
20
499938.9848363919
10
1161757.703675374
20
499939.73332259967
10
1161757.4726153156
20
499940.48180880735
10
1161757.2346189886
20
499941.2302950149
10
1161757.04521986
20
499941.8156142893
10
1161756.9044179297
20
499942.23776663037
10
1161756.8122131983
20
499942.49675203813
10
1161756.768605665
20
499942.5925705125
10
1161756.656364047
20
499942.8276013016
10
1161756.4754883437
20
499943.2018444055
10
1161756.2259785554
20
499943.715299824
10
1161755.9078346821
20
499944.3679675573
10
1161755.6058339726
20
499945.04458990914
10
1161755.319976427
20
499945.74516687955
10
1161755.0502620449
20
499946.46969846863
10
1161754.7966908268
20
499947.21818467637
10
1161754.562319634
20
499947.8926646836
10
1161754.3471484669
20
499948.4931384902
10
1161754.1511773253
20
499949.0196060964
10
1161753.9744062088
20
499949.4720675021
10
1161753.8151628808
20
499949.8854197568
10
1161753.6734473405
20
499950.25966286066
10
1161753.5492595884
20
499950.59479681356
10
1161753.442599624
20
499950.8908216155
10
1161753.3200518857
20
499951.29996176896
10
1161753.181616373
20
499951.82221727376
10
1161753.0272930863
20
499952.45758813
10
1161752.8570820254
20
499953.2060743377
10
1161752.6758061573
20
499953.9545605454
10
1161752.4834654825
20
499954.70304675295
10
1161752.2800600003
20
499955.45153296064
10
1161752.065589711
20
499956.2000191683
10
1161751.840450771
20
499956.92064409715
10
1161751.6046431796
20
499957.61340774706
10
1161751.3581669373
20
499958.2783101181
10
1161751.101022044
20
499958.91535121034
10
1161750.895716203
20
499959.42099330836
10
1161750.7422494143
20
499959.7952364122
10
1161750.6406216782
20
499960.03808052186
10
1161750.590832994
20
499960.14952563733
10
1161750.473677158
20
499960.42023102584
10
1161750.2891541691
20
499960.8501966874
10
1161750.0372640279
20
499961.43942262203
10
1161749.7180067343
20
499962.1879088297
10
1161749.4184576222
20
499962.9363950374
10
1161749.1386166916
20
499963.684881245
10
1161748.8784839427
20
499964.4333674527
10
1161748.638059375
20
499965.18185366044
10
1161748.4229870338
20
499965.8837281432
10
1161748.233266919
20
499966.53899090085
10
1161748.0688990299
20
499967.14764193364
10
1161747.9298833674
20
499967.70968124154
10
1161747.8120393762
20
499968.17782244744
10
1161747.715367057
20
499968.5520655512
10
1161747.639866409
20
499968.83241055306
10
1161747.5855374322
20
499969.0188574529
10
1161747.488849439
20
499969.3458141796
10
1161747.3498024286
20
499969.8132807334
10
1161747.1683964012
20
499970.4212571141
10
1161746.9446313567
20
499971.1697433217
10
1161746.717987033
20
499971.9182295294
10
1161746.4884634302
20
499972.6667157371
10
1161746.2560605477
20
499973.41520194476
10
1161746.0207783857
20
499974.16368815245
10
1161745.8160685613
20
499974.9121743601
10
1161745.6419310737
20
499975.66066056775
10
1161745.4983659238
20
499976.40914677543
10
1161745.3853731109
20
499977.1576329832
10
1161745.2700991982
20
499977.8472330625
10
1161745.1525441858
20
499978.4779470135
10
1161745.0327080735
20
499979.04977483617
10
1161744.910590861
20
499979.5627165303
10
1161744.8075979569
20
499980.00630892935
10
1161744.7237293604
20
499980.3805520332
10
1161744.658985072
20
499980.68544584187
10
1161744.6133650918
20
499980.92099035525
10
1161744.5379663121
20
499981.28477029223
10
1161744.4327887334
20
499981.77678565274
10
1161744.2978323554
20
499982.3970364368
10
1161744.1330971778
20
499983.1455226445
10
1161743.9648767314
20
499983.8940088522
10
1161743.7931710156
20
499984.64249505976
10
1161743.6179800304
20
499985.39098126744
10
1161743.439303776
20
499986.1394674751
10
1161743.2502108766
20
499986.8879536828
10
1161743.0507013323
20
499987.6364398904
10
1161742.840775143
20
499988.3849260981
10
1161742.6204323086
20
499989.1334123058
10
1161742.4203971927
20
499989.78116134193
10
1161742.2406697948
20
499990.3281732064
10
1161742.0812501153
20
499990.7744478994
10
1161741.942138154
20
499991.11998542096
10
1161741.8022107969
20
499991.4798757336
10
1161741.661468044
20
499991.8541188374
10
1161741.5199098948
20
499992.2427147324
10
1161741.3775363502
20
499992.6456634187
10
1161741.2171347053
20
499993.13499648526
10
1161741.0387049601
20
499993.7107139322
10
1161740.842247115
20
499994.3728157595
10
1161740.6277611693
20
499995.12130196724
10
1161740.454973805
20
499995.8697881749
10
1161740.3238850217
20
499996.61827438255
10
1161740.2344948193
20
499997.36676059023
10
1161740.186803198
20
499998.11524679785
10
1161740.1737894919
20
499998.8637330055
10
1161740.1954537008
20
499999.6122192133
10
1161740.2517958253
20
500000.3607054209
10
1161740.342815865
20
500001.1091916285
10
1161740.428925596
20
500001.8576778362
10
1161740.510125018
20
500002.6061640438
10
1161740.5864141309
20
500003.3546502515
10
1161740.6577929351
20
500004.10313645925
10
1161740.708177189
20
500004.85162266693
10
1161740.7375668935
20
500005.60010887455
10
1161740.7459620475
20
500006.34859508224
10
1161740.733362652
20
500007.0970812899
10
1161740.7299736214
20
500007.8455674976
10
1161740.7357949563
20
500008.5940537053
10
1161740.7508266564
20
500009.34253991296
10
1161740.7750687217
20
500010.09102612064
10
1161740.7895508274
20
500010.8395123283
10
1161740.7942729734
20
500011.58799853595
10
1161740.7892351595
20
500012.33648474363
10
1161740.7744373858
20
500013.0849709513
10
1161740.7464449133
20
500013.833457159
10
1161740.705257742
20
500014.58194336656
10
1161740.6508758718
20
500015.33042957424
10
1161740.5832993027
20
500016.0789157819
10
1161740.510087541
20
500016.8274019896
10
1161740.4312405866
20
500017.5758881972
10
1161740.3467584397
20
500018.3243744049
10
1161740.2566411002
20
500019.0728606126
10
1161740.1630082473
20
500019.8213468203
10
1161740.065859881
20
500020.56983302796
10
1161739.9651960013
20
500021.31831923564
10
1161739.861016608
20
500022.0668054433
10
1161739.772703676
20
500022.815291651
10
1161739.700257205
20
500023.5637778586
10
1161739.6436771946
20
500024.3122640663
10
1161739.602963645
20
500025.06075027405
10
1161739.5679287808
20
500025.8092364817
10
1161739.538572602
20
500026.55772268935
10
1161739.5148951085
20
500027.30620889703
10
1161739.4968963
20
500028.05469510466
10
1161739.4698245628
20
500028.8031813123
10
1161739.433679896
20
500029.5516675201
10
1161739.3884623002
20
500030.3001537277
10
1161739.3341717753
20
500031.0486399353
10
1161739.2731399487
20
500031.797126143
10
1161739.2053668213
20
500032.54561235063
10
1161739.130852392
20
500033.2940985583
10
1161739.0495966615
20
500034.04258476605
10
1161738.9768931333
20
500034.7769561001
10
1161738.9127418075
20
500035.4972125604
10
1161738.857142684
20
500036.2033541471
10
1161738.8100957628
20
500036.89538086014
10
1161738.7738833004
20
500037.4285157686
10
1161738.7485052967
20
500037.8027588724
10
1161738.7339617517
20
500038.01811017166
10
1161738.7302526655
20
500038.0745696663
10
1161738.7283981221
20
500038.1932175882
10
1161738.7283981221
20
500038.3740539374
10
1161738.7302526655
20
500038.61707871384
10
1161738.7339617517
20
500038.9222919176
10
1161738.7383095776
20
500039.2620200714
10
1161738.7432961436
20
500039.6362631753
10
1161738.748921449
20
500040.04502122913
10
1161738.7551854944
20
500040.488294233
10
1161738.7892073032
20
500041.0078705378
10
1161738.8509868756
20
500041.6037501436
10
1161738.9405242114
20
500042.2759330503
10
1161739.0578193103
20
500043.0244192581
10
1161739.181666719
20
500043.7729054658
10
1161739.312066437
20
500044.52139167336
10
1161739.4490184642
20
500045.26987788104
10
1161739.592522801
20
500046.0183640887
10
1161739.7395090999
20
500046.7668502964
10
1161739.8899773613
20
500047.51533650403
10
1161740.0439275852
20
500048.2638227117
10
1161740.201359772
20
500049.0123089194
10
1161740.3328690645
20
500049.7607951271
10
1161740.4384554634
20
500050.5092813347
10
1161740.5181189685
20
500051.2577675424
10
1161740.5718595793
20
500052.0062537501
10
1161740.621964083
20
500052.7547399578
10
1161740.6684324795
20
500053.5032261654
10
1161740.7112647684
20
500054.2517123731
10
1161740.7504609497
20
500055.00019858073
10
1161740.7882050024
20
500055.74868478836
10
1161740.824496926
20
500056.49717099615
10
1161740.859336721
20
500057.24565720384
10
1161740.892724387
20
500057.9941434114
10
1161740.9181997129
20
500058.7426296191
10
1161740.9357626978
20
500059.4911158269
10
1161740.9454133427
20
500060.2396020345
10
1161740.947151647
20
500060.9880882421
10
1161740.9506084288
20
500061.7365744498
10
1161740.955783688
20
500062.48506065743
10
1161740.9626774248
20
500063.2335468651
10
1161740.9712896394
20
500063.98203307285
10
1161740.989847697
20
500064.73051928054
10
1161741.0183515977
20
500065.47900548816
10
1161741.0568013417
20
500066.22749169584
10
1161741.1051969284
20
500066.9759779035
10
1161741.154897046
20
500067.7244641112
10
1161741.2059016947
20
500068.4729503188
10
1161741.258210874
20
500069.2214365265
10
1161741.3118245837
20
500069.9699227342
10
1161741.360798
20
500070.7184089419
10
1161741.4051311223
20
500071.46689514944
10
1161741.4448239508
20
500072.2153813571
10
1161741.4798764854
20
500072.9638675648
10
1161741.5166956242
20
500073.7123537725
10
1161741.5552813667
20
500074.46083998017
10
1161741.5956337135
20
500075.20932618785
10
1161741.6377526643
20
500075.9578123955
10
1161741.6687327854
20
500076.7062986032
10
1161741.6885740773
20
500077.45478481083
10
1161741.69727654
20
500078.2032710185
10
1161741.6948401732
20
500078.9517572262
10
1161741.695655685
20
500079.5413587531
10
1161741.6997230751
20
500079.97207559913
10
1161741.707042344
20
500080.24390776444
10
1161741.7176134912
20
500080.3568552489
10
1161741.741350546
20
500080.60045054305
10
1161741.7782535083
20
500080.9746936469
10
1161741.8283223785
20
500081.4795845604
10
1161741.891557156
20
500082.11512328364
10
1161741.9790553157
20
500082.77889887796
10
1161742.0908168575
20
500083.47091134335
10
1161742.2268417813
20
500084.1911606799
10
1161742.387130087
20
500084.93964688753
10
1161742.5294075813
20
500085.68813309516
10
1161742.6536742637
20
500086.43661930296
10
1161742.7599301348
20
500087.1851055106
10
1161742.848175194
20
500087.9335917182
10
1161742.9160634165
20
500088.6820779259
10
1161742.9635948017
20
500089.43056413357
10
1161742.9907693502
20
500090.17905034125
10
1161742.9975870615
20
500090.92753654893
10
1161743.01812624
20
500091.6760227566
10
1161743.0523868855
20
500092.42450896424
10
1161743.100368998
20
500093.1729951719
10
1161743.1620725773
20
500093.92148137966
10
1161743.2555561368
20
500094.66996758734
10
1161743.380819677
20
500095.41845379496
10
1161743.537863197
20
500096.16694000264
10
1161743.7266866975
20
500096.9154262103
10
1161743.9131476409
20
500097.60118392383
10
1161744.097246028
20
500098.2242131432
10
1161744.2789818584
20
500098.78451386845
10
1161744.458355132
20
500099.2820860995
10
1161744.616624786
20
500099.717993767
10
1161744.753790821
20
500100.0922368708
10
1161744.869853236
20
500100.40481541096
10
1161744.9648120317
20
500100.65572938765
10
1161745.0965441756
20
500101.031036422
10
1161745.265049668
20
500101.530736514
10
1161745.4703285086
20
500102.1548296639
10
1161745.7123806973
20
500102.9033158716
10
1161745.9435945072
20
500103.6518020793
10
1161746.1639699384
20
500104.4002882869
10
1161746.3735069905
20
500105.1487744946
10
1161746.5722056634
20
500105.8972607023
10
1161746.7744238058
20
500106.61840725737
10
1161746.9801614175
20
500107.31221415993
10
1161747.1894184982
20
500107.97868140996
10
1161747.4021950483
20
500108.6178090074
10
1161747.5698493617
20
500109.1244943581
10
1161747.6923814386
20
500109.49873746186
10
1161747.7697912785
20
500109.74053831893
10
1161747.8020788818
20
500109.8498969291
10
1161747.8868315304
20
500110.1190374387
10
1161748.0240492243
20
500110.54795984767
10
1161748.2137319634
20
500111.136664156
10
1161748.4558797476
20
500111.8851503637
10
1161748.7045074934
20
500112.6336365714
10
1161748.9596152008
20
500113.38212277903
10
1161749.2212028694
20
500114.1306089867
10
1161749.4892704997
20
500114.87909519434
10
1161749.7241112003
20
500115.62758140196
10
1161749.9257249713
20
500116.37606760976
10
1161750.0941118125
20
500117.1245538174
10
1161750.2292717241
20
500117.873040025
10
1161750.3483474774
20
500118.5778853984
10
1161750.451339072
20
500119.2390899375
10
1161750.5382465087
20
500119.85665364226
10
1161750.6090697867
20
500120.4305765128
10
1161750.6677285577
20
500120.9046595
10
1161750.7142228216
20
500121.2789026038
10
1161750.7485525783
20
500121.5533058243
10
1161750.7707178278
20
500121.7278691615
10
1161750.8214448597
20
500122.0459132163
10
1161750.9007336742
20
500122.50743798865
10
1161751.008584271
20
500123.1124434787
10
1161751.14499665
20
500123.8609296864
10
1161751.284812856
20
500124.6094158941
10
1161751.4280328886
20
500125.35790210176
10
1161751.5746567477
20
500126.10638830945
10
1161751.724684433
20
500126.8548745171
10
1161751.888936985
20
500127.6033607248
10
1161752.0674144034
20
500128.35184693243
10
1161752.2601166877
20
500129.1003331401
10
1161752.4670438385
20
500129.8488193478
10
1161752.680477637
20
500130.56092536723
10
1161752.9004180836
20
500131.2366511985
10
1161753.1268651783
20
500131.87599684147
10
1161753.3598189207
20
500132.47896229627
10
1161753.5475551225
20
500132.9675665756
10
1161753.6900737835
20
500133.34180967946
10
1161753.787374904
20
500133.6016916078
10
1161753.8394584837
20
500133.7472123606
10
1161753.9388126004
20
500134.0434744772
10
1161754.0854372547
20
500134.4904779574
10
1161754.2793324462
20
500135.0882228014
10
1161754.5204981752
20
500135.8367090091
10
1161754.746458965
20
500136.58519521676
10
1161754.957214816
20
500137.3336814244
10
1161755.152765728
20
500138.08216763206
10
1161755.3331117015
20
500138.8306538398
10
1161755.5185349588
20
500139.5791400475
10
1161755.7090355002
20
500140.3276262551
10
1161755.9046133256
20
500141.0761124628
10
1161756.1052684353
20
500141.8245986705
10
1161756.2743187216
20
500142.43191003543
10
1161756.4117641845
20
500142.8980465578
10
1161756.5176048242
20
500143.22300823743
10
1161756.5918406406
20
500143.40679507435
10
1161756.7066618274
20
500143.6858100447
10
1161756.8620683844
20
500144.06005314854
10
1161757.0580603117
20
500144.5295243859
10
1161757.2946376097
20
500145.0942237566
10
1161757.54784119
20
500145.70486983657
10
1161757.8176710526
20
500146.3614626258
10
1161758.104127198
20
500147.0640021242
10
1161758.4072096255
20
500147.8124883318
10
1161758.686728067
20
500148.5356999559
10
1161758.942682522
20
500149.2336369962
10
1161759.1750729908
20
500149.906299453
10
1161759.3838994727
20
500150.55368732614
10
1161759.5483910623
20
500151.0645028146
10
1161759.6685477593
20
500151.43874591845
10
1161759.7443695636
20
500151.67641663767
10
1161759.7758564756
20
500151.7775149722
10
1161759.8605662875
20
500152.040460275
10
1161759.9984989997
20
500152.4652525461
10
1161760.1896546122
20
500153.0518917855
10
1161760.4340331245
20
500153.8003779932
10
1161760.6882674694
20
500154.5488642009
10
1161760.9523576468
20
500155.2973504085
10
1161761.2263036564
20
500156.0458366162
10
1161761.5101054984
20
500156.7943228239
10
1161761.7701616152
20
500157.4745156463
10
1161762.006472007
20
500158.08641508344
10
1161762.2190366734
20
500158.6300211353
10
1161762.4078556148
20
500159.1053338019
10
1161762.5774083035
20
500159.5301116871
10
1161762.7276947396
20
500159.9043547909
10
1161762.858714923
20
500160.2280631134
10
1161762.9704688538
20
500160.50123665447
10
1161763.1168346033
20
500160.89323836216
10
1161763.297812171
20
500161.40406823653
10
1161763.5134015575
20
500162.0337262775
10
1161763.7636027627
20
500162.7822124852
0
LWPOLYLINE
5
3C
330
C
100
AcDbEntity
8
C-TOPO-MAJR-E
100
AcDbPolyline
90
368
70
0
43
0
38
0
39
0
10
1161776.8666091152
20
499935.9908915613
10
1161776.6928942103
20
499936.73937776894
10
1161776.5181356461
20
499937.4878639766
10
1161776.342333422
20
499938.23635018425
10
1161776.154979624
20
499938.9848363919
10
1161775.9560742523
20
499939.73332259967
10
1161775.7456173063
20
499940.48180880735
10
1161775.5236087868
20
499941.2302950149
10
1161775.324369106
20
499941.86062251206
10
1161775.1478982638
20
499942.37279129867
10
1161774.9941962603
20
499942.76680137473
10
1161774.8632630962
20
499943.04265274014
10
1161774.6993113942
20
499943.3676999748
10
1161774.502341155
20
499943.7419430786
10
1161774.2723523781
20
499944.1653820516
10
1161774.0093450637
20
499944.6380168939
10
1161773.6907198546
20
499945.1568196794
10
1161773.3164767507
20
499945.72179040837
10
1161772.886615752
20
499946.3329290807
10
1161772.4011368586
20
499946.99023569643
10
1161772.02303625
20
499947.50601055624
10
1161771.752313926
20
499947.88025366
10
1161771.5889698863
20
499948.11296500795
10
1161771.5330041316
20
499948.2041445999
10
1161771.4301700522
20
499948.4596508458
10
1161771.280467649
20
499948.8794837456
10
1161771.0838969212
20
499949.46364329936
10
1161770.8404578695
20
499950.21212950704
10
1161770.6139031777
20
499950.9606157147
10
1161770.404232846
20
499951.70910192234
10
1161770.2114468745
20
499952.45758813
10
1161770.0355452632
20
499953.2060743377
10
1161769.8787646298
20
499953.9545605454
10
1161769.7411049746
20
499954.70304675295
10
1161769.6225662974
20
499955.45153296064
10
1161769.5231485981
20
499956.2000191683
10
1161769.4247549074
20
499956.948505376
10
1161769.327385225
20
499957.6969915837
10
1161769.231039551
20
499958.44547779136
10
1161769.1357178856
20
499959.19396399905
10
1161769.0446165302
20
499959.8722222464
10
1161768.957735485
20
499960.48025253345
10
1161768.8750747498
20
499961.0180548602
10
1161768.7966343253
20
499961.48562922666
10
1161768.7240190122
20
499961.9065379618
10
1161768.6572288112
20
499962.2807810656
10
1161768.5962637218
20
499962.6083585381
10
1161768.541123744
20
499962.8892703794
10
1161768.4538646494
20
499963.28707581223
10
1161768.3344864375
20
499963.8017748366
10
1161768.1829891084
20
499964.4333674527
10
1161767.999372662
20
499965.18185366044
10
1161767.8154420971
20
499965.9303398681
10
1161767.631197414
20
499966.67882607575
10
1161767.446638612
20
499967.4273122834
10
1161767.2617656915
20
499968.17579849105
10
1161767.0777249688
20
499968.9242846987
10
1161766.8945164438
20
499969.6727709065
10
1161766.7121401164
20
499970.4212571141
10
1161766.5305959862
20
499971.1697433217
10
1161766.3586097055
20
499971.90895475453
10
1161766.1961812738
20
499972.6388914124
10
1161766.0433106911
20
499973.3595532955
10
1161765.8999979575
20
499974.07094040373
10
1161765.7903012405
20
499974.6137555098
10
1161765.7142205406
20
499974.98799861356
10
1161765.671755857
20
499975.1936697152
10
1161765.6629071904
20
499975.2307688147
10
1161765.60394953
20
499975.4457146912
10
1161765.4948828765
20
499975.83850734483
10
1161765.335707229
20
499976.40914677543
10
1161765.1264225882
20
499977.1576329832
10
1161764.9238974433
20
499977.90611919085
10
1161764.7281317944
20
499978.6546053985
10
1161764.5391256413
20
499979.40309160616
10
1161764.3568789838
20
499980.15157781384
10
1161764.158052993
20
499980.9000640215
10
1161763.9426476683
20
499981.64855022915
10
1161763.7106630101
20
499982.3970364368
10
1161763.4620990183
20
499983.1455226445
10
1161763.2507904614
20
499983.77373285394
10
1161763.07673734
20
499984.2816670652
10
1161762.939939654
20
499984.6693252784
10
1161762.840397403
20
499984.93670749327
10
1161762.7187736272
20
499985.2575201527
10
1161762.5750683262
20
499985.6317632565
10
1161762.4092815004
20
499986.0594368048
10
1161762.2214131497
20
499986.5405407975
10
1161762.011827696
20
499987.088490344
10
1161761.7805251395
20
499987.7032854442
10
1161761.5275054805
20
499988.3849260981
10
1161761.2527687189
20
499989.1334123058
10
1161761.0134763685
20
499989.8818985135
10
1161760.8096284298
20
499990.63038472115
10
1161760.6412249028
20
499991.37887092883
10
1161760.5082657873
20
499992.1273571365
10
1161760.375789965
20
499992.8758433442
10
1161760.2437974354
20
499993.6243295518
10
1161760.1122881994
20
499994.3728157595
10
1161759.9812622564
20
499995.12130196724
10
1161759.87751879
20
499995.72105161834
10
1161759.8010578004
20
499996.17206471274
10
1161759.7518792874
20
499996.4743412506
10
1161759.7299832506
20
499996.62788123195
10
1161759.6892683846
20
499996.8917727745
10
1161759.6297346884
20
499997.2660158783
10
1161759.5513821628
20
499997.7506105434
10
1161759.454210807
20
499998.34555676975
10
1161759.3391216663
20
499998.9788879915
10
1161759.2061147396
20
499999.6506042086
10
1161759.055190028
20
500000.3607054209
10
1161758.8863475306
20
500001.1091916285
10
1161758.699342639
20
500001.8576778362
10
1161758.4941753533
20
500002.6061640438
10
1161758.270845673
20
500003.3546502515
10
1161758.0293535988
20
500004.10313645925
10
1161757.8192297628
20
500004.85162266693
10
1161757.6404741649
20
500005.60010887455
10
1161757.4930868056
20
500006.34859508224
10
1161757.3770676844
20
500007.0970812899
10
1161757.2588130538
20
500007.7973313867
10
1161757.1383229136
20
500008.4493453727
10
1161757.0155972638
20
500009.0531232477
10
1161756.8906361044
20
500009.60866501194
10
1161756.788829183
20
500010.0735574459
10
1161756.7101764996
20
500010.4478005497
10
1161756.6546780537
20
500010.7313943234
10
1161756.622333846
20
500010.92433876684
10
1161756.5695841718
20
500011.2561686514
10
1161756.4964290312
20
500011.72688397695
10
1161756.4028684243
20
500012.33648474363
10
1161756.2889023512
20
500013.0849709513
10
1161756.1629035485
20
500013.833457159
10
1161756.0248720164
20
500014.58194336656
10
1161755.874807755
20
500015.33042957424
10
1161755.712710764
20
500016.0789157819
10
1161755.5895422015
20
500016.8274019896
10
1161755.5053020671
20
500017.5758881972
10
1161755.459990361
20
500018.3243744049
10
1161755.4536070828
20
500019.0728606126
10
1161755.4203328742
20
500019.8213468203
10
1161755.3601677343
20
500020.5698330279
10
1161755.2731116638
20
500021.3183192356
10
1161755.1591646625
20
500022.0668054433
10
1161755.0609443332
20
500022.815291651
10
1161754.9784506755
20
500023.5637778586
10
1161754.91168369
20
500024.3122640663
10
1161754.8606433764
20
500025.060750274
10
1161754.8157574073
20
500025.80923648167
10
1161754.7770257827
20
500026.55772268935
10
1161754.744448503
20
500027.30620889703
10
1161754.7180255677
20
500028.05469510466
10
1161754.6809763082
20
500028.8031813123
10
1161754.6333007244
20
500029.5516675201
10
1161754.5749988162
20
500030.3001537277
10
1161754.5060705838
20
500031.0486399353
10
1161754.4345303713
20
500031.797126143
10
1161754.3603781792
20
500032.54561235063
10
1161754.2836140068
20
500033.2940985583
10
1161754.2042378548
20
500034.04258476605
10
1161754.1485730577
20
500034.79107097373
10
1161754.1166196158
20
500035.53955718136
10
1161754.108377529
20
500036.28804338904
10
1161754.1238467975
20
500037.0365295967
10
1161754.155815666
20
500037.7850158044
10
1161754.2042841348
20
500038.533502012
10
1161754.2692522036
20
500039.2819882197
10
1161754.3507198726
20
500040.0304744274
10
1161754.4321129175
20
500040.77896063507
10
1161754.5134313381
20
500041.52744684264
10
1161754.5946751349
20
500042.2759330503
10
1161754.675844307
20
500043.0244192581
10
1161754.7814343327
20
500043.7729054658
10
1161754.9114452114
20
500044.52139167336
10
1161755.065876943
20
500045.26987788104
10
1161755.2447295282
20
500046.0183640887
10
1161755.4442535993
20
500046.7668502964
10
1161755.6644491563
20
500047.51533650403
10
1161755.9053161992
20
500048.2638227117
10
1161756.166854728
20
500049.0123089194
10
1161756.3720106152
20
500049.60532077006
10
1161756.52078386
20
500050.0428582638
10
1161756.6131744632
20
500050.3249214005
10
1161756.649182424
20
500050.45151018025
10
1161756.7237729304
20
500050.70192612207
10
1161756.8369459822
20
500051.07616922585
10
1161756.9887015794
20
500051.5742394917
10
1161757.179039722
20
500052.1961369197
10
1161757.3424213515
20
500052.8496815426
10
1161757.478846468
20
500053.53487336036
10
1161757.588315071
20
500054.2517123731
10
1161757.6708271606
20
500055.00019858073
10
1161757.7505311042
20
500055.74868478836
10
1161757.8274269013
20
500056.49717099615
10
1161757.901514552
20
500057.24565720384
10
1161757.972794056
20
500057.9941434114
10
1161758.0631407918
20
500058.7426296191
10
1161758.1725547593
20
500059.4911158269
10
1161758.3010359586
20
500060.2396020345
10
1161758.4485843894
20
500060.9880882421
10
1161758.594871129
20
500061.7365744498
10
1161758.7398961768
20
500062.48506065743
10
1161758.883659534
20
500063.2335468651
10
1161759.0261611994
20
500063.98203307285
10
1161759.1512478723
20
500064.73051928054
10
1161759.258919552
20
500065.47900548816
10
1161759.349176239
20
500066.22749169584
10
1161759.422017933
20
500066.9759779035
10
1161759.4870153738
20
500067.65871819406
10
1161759.544168561
20
500068.27571256744
10
1161759.593477495
20
500068.82696102373
10
1161759.6349421754
20
500069.3124635628
10
1161759.6718683825
20
500069.7423363843
10
1161759.704256116
20
500070.11657948815
10
1161759.7321053757
20
500070.43519287434
10
1161759.7554161618
20
500070.6981765429
10
1161759.7928089548
20
500071.08253584616
10
1161759.844283755
20
500071.58827078424
10
1161759.9098405617
20
500072.2153813571
10
1161759.9894793753
20
500072.9638675648
10
1161760.0551027206
20
500073.7123537725
10
1161760.1067105979
20
500074.46083998017
10
1161760.1443030066
20
500075.20932618785
10
1161760.1678799475
20
500075.9578123955
10
1161760.214054764
20
500076.7062986032
10
1161760.2828274567
20
500077.45478481083
10
1161760.3741980256
20
500078.2032710185
10
1161760.4881664705
20
500078.9517572262
10
1161760.6016317233
20
500079.7002434339
10
1161760.714593784
20
500080.4487296415
10
1161760.8270526524
20
500081.1972158492
10
1161760.9390083286
20
500081.9457020569
10
1161761.0500584901
20
500082.6941882646
10
1161761.1602031374
20
500083.44267447223
10
1161761.2694422698
20
500084.1911606799
10
1161761.377775888
20
500084.93964688753
10
1161761.4756945453
20
500085.68813309516
10
1161761.563198242
20
500086.43661930296
10
1161761.6402869783
20
500087.1851055106
10
1161761.7069607535
20
500087.9335917182
10
1161761.7720897256
20
500088.6820779259
10
1161761.835673894
20
500089.43056413357
10
1161761.8977132589
20
500090.17905034125
10
1161761.9582078205
20
500090.92753654893
10
1161762.0289918855
20
500091.6760227566
10
1161762.1100654537
20
500092.42450896424
10
1161762.2014285251
20
500093.1729951719
10
1161762.3030811003
20
500093.92148137966
10
1161762.3940407855
20
500094.5431553228
10
1161762.474307581
20
500095.03801700124
10
1161762.5438814869
20
500095.4060664152
10
1161762.6027625029
20
500095.6473035646
10
1161762.6768731421
20
500095.95504369115
10
1161762.766213405
20
500096.329286795
10
1161762.870783291
20
500096.77003287605
10
1161762.9905828002
20
500097.27728193434
10
1161763.132749605
20
500097.84484028
10
1161763.2972837046
20
500098.47270791297
10
1161763.4841850996
20
500099.1608848333
10
1161763.6934537897
20
500099.909371041
10
1161763.892175694
20
500100.6578572487
10
1161764.0803508125
20
500101.40634345624
10
1161764.257979145
20
500102.1548296639
10
1161764.4250606918
20
500102.9033158716
10
1161764.5951852454
20
500103.6518020793
10
1161764.7683528063
20
500104.4002882869
10
1161764.9445633744
20
500105.1487744946
10
1161765.1238169493
20
500105.8972607023
10
1161765.2765278523
20
500106.51774243393
10
1161765.4026960828
20
500107.01021968946
10
1161765.5023216414
20
500107.374692469
10
1161765.5754045278
20
500107.6111607725
10
1161765.6705848905
20
500107.91651647614
10
1161765.7878627302
20
500108.29075958
10
1161765.9272380462
20
500108.733890084
10
1161766.088710839
20
500109.2459079882
10
1161766.260467007
20
500109.8170429683
10
1161766.4425065508
20
500110.4472950242
10
1161766.6348294697
20
500111.136664156
10
1161766.8374357643
20
500111.8851503637
10
1161767.021461109
20
500112.6336365714
10
1161767.1869055037
20
500113.38212277903
10
1161767.333768949
20
500114.1306089867
10
1161767.462051444
20
500114.87909519434
10
1161767.5960022812
20
500115.62758140196
10
1161767.7356214598
20
500116.37606760976
10
1161767.8809089805
20
500117.1245538174
10
1161768.0318648433
20
500117.873040025
10
1161768.1713739308
20
500118.5408939273
10
1161768.2994362433
20
500119.1281155241
10
1161768.416051781
20
500119.63470481546
10
1161768.521220544
20
500120.0606618014
10
1161768.6207017167
20
500120.4607618463
10
1161768.7144952996
20
500120.8350049501
10
1161768.8026012927
20
500121.18339111295
10
1161768.8850196959
20
500121.5059203346
10
1161768.9904945767
20
500121.93493880285
10
1161769.1190259352
20
500122.4704465176
10
1161769.2706137716
20
500123.1124434787
10
1161769.4452580856
20
500123.8609296864
10
1161769.6104684519
20
500124.6094158941
10
1161769.7662448704
20
500125.35790210176
10
1161769.912587341
20
500126.10638830945
10
1161770.0494958642
20
500126.8548745171
10
1161770.1981299247
20
500127.6033607248
10
1161770.358489523
20
500128.35184693243
10
1161770.530574659
20
500129.1003331401
10
1161770.7143853328
20
500129.8488193478
10
1161770.8949194115
20
500130.52100376145
10
1161771.0721768953
20
500131.11688638106
10
1161771.2461577842
20
500131.63646720676
10
1161771.4168620778
20
500132.0797462383
10
1161771.577435591
20
500132.488507306
10
1161771.7278783235
20
500132.86275040987
10
1161771.8681902753
20
500133.2024755498
10
1161771.9983714465
20
500133.50768272585
10
1161772.1850675168
20
500133.9237096598
10
1161772.428278486
20
500134.4505563516
10
1161772.7280043545
20
500135.0882228014
10
1161773.0842451223
20
500135.8367090091
10
1161773.4169417652
20
500136.53854432213
10
1161773.7260942834
20
500137.1937287407
10
1161774.011702677
20
500137.80226226454
10
1161774.2737669463
20
500138.3641448938
10
1161774.4932123576
20
500138.8322077604
10
1161774.6700389113
20
500139.2064508642
10
1161774.8042466075
20
500139.48687420535
10
1161774.895835446
20
500139.67347778374
10
1161775.0364258639
20
500140.00055201945
10
1161775.2260178607
20
500140.46809691243
10
1161775.464611437
20
500141.0761124628
10
1161775.7522065924
20
500141.8245986705
10
1161776.0473945835
20
500142.57308487815
10
1161776.3501754105
20
500143.32157108583
10
1161776.6605490735
20
500144.0700572935
10
1161776.9785155721
20
500144.81854350114
10
1161777.229824375
20
500145.40611815883
10
1161777.414475482
20
500145.83278126654
10
1161777.5324688926
20
500146.0985328242
10
1161777.5838046079
20
500146.20337283204
10
1161777.6902889241
20
500146.4429143878
10
1161777.8519218415
20
500146.8171574916
10
1161778.0687033606
20
500147.3261021435
10
1161778.340633481
20
500147.9697483434
10
1161778.6165886133
20
500148.63960454526
10
1161778.896568757
20
500149.3356707491
10
1161779.1805739128
20
500150.0579469548
10
1161779.4686040801
20
500150.80643316254
10
1161779.7317581857
20
500151.53982930107
10
1161779.9700362291
20
500152.2581353705
10
1161780.183438211
20
500152.9613513708
10
1161780.371964131
20
500153.649477302
10
1161780.5172273568
20
500154.1806618195
10
1161780.619227888
20
500154.5549049233
10
1161780.6779657255
20
500154.77220661344
10
1161780.693440869
20
500154.83256688993
10
1161780.7622304915
20
500155.0649586492
10
1161780.8843345935
20
500155.4693818913
10
1161781.059753175
20
500156.0458366162
10
1161781.2884862355
20
500156.7943228239
10
1161781.5076378891
20
500157.54280903155
10
1161781.7172081359
20
500158.29129523924
10
1161781.9171969753
20
500159.0397814469
10
1161782.1076044075
20
500159.7882676546
10
1161782.2855938082
20
500160.5367538623
10
1161782.4511651774
20
500161.28524006985
10
1161782.604318515
20
500162.0337262775
10
1161782.7450538203
20
500162.7822124852
0
LWPOLYLINE
5
3D
330
C
100
AcDbEntity
8
C-TOPO-MAJR-E
100
AcDbPolyline
90
364
70
0
43
0
38
0
39
0
10
1161791.9215588407
20
499936.2080591021
10
1161791.669766452
20
499936.8117669492
10
1161791.389257419
20
499937.4878639766
10
1161791.080031741
20
499938.23635018425
10
1161790.786887125
20
499938.9356877296
10
1161790.509823571
20
499939.5858766128
10
1161790.2488410787
20
499940.1869168336
10
1161790.0039396484
20
499940.7388083922
10
1161789.801386631
20
499941.20187572343
10
1161789.6411820264
20
499941.5761188272
10
1161789.523325835
20
499941.86153770366
10
1161789.4478180567
20
499942.0581323529
10
1161789.318491343
20
499942.3926998916
10
1161789.1353456946
20
499942.86524032
10
1161788.898381111
20
499943.475753638
10
1161788.6075975928
20
499944.22423984564
10
1161788.317528676
20
499944.9727260533
10
1161788.0281743614
20
499945.72121226095
10
1161787.7395346484
20
499946.46969846863
10
1161787.4516095368
20
499947.21818467637
10
1161787.2120982534
20
499947.8410863799
10
1161787.0210007983
20
499948.33840357914
10
1161786.8783171708
20
499948.7101362743
10
1161786.7840473715
20
499948.95628446527
10
1161786.6604492054
20
499949.2664801127
10
1161786.5075226729
20
499949.6407232165
10
1161786.3252677736
20
499950.0790137768
10
1161786.1136845078
20
499950.5813517935
10
1161785.9209399172
20
499951.1452268579
10
1161785.7470340012
20
499951.7706389701
10
1161785.5919667606
20
499952.45758813
10
1161785.4557381948
20
499953.2060743377
10
1161785.342716085
20
499953.9545605454
10
1161785.2529004312
20
499954.70304675295
10
1161785.1862912334
20
499955.45153296064
10
1161785.1428884915
20
499956.2000191683
10
1161785.0955812703
20
499956.948505376
10
1161785.0443695697
20
499957.6969915837
10
1161784.9892533899
20
499958.44547779136
10
1161784.9302327305
20
499959.19396399905
10
1161784.840983894
20
499959.9424502067
10
1161784.7215068804
20
499960.69093641435
10
1161784.5718016892
20
499961.43942262203
10
1161784.391868321
20
499962.1879088297
10
1161784.2273388933
20
499962.84362475167
10
1161784.0782134058
20
499963.4065703879
10
1161783.9444918586
20
499963.87674573844
10
1161783.8261742517
20
499964.2541508033
10
1161783.7095195083
20
499964.62997488765
10
1161783.5945276287
20
499965.0042179915
10
1161783.4811986124
20
499965.3768801148
10
1161783.3695324596
20
499965.74796125764
10
1161783.2280484433
20
499966.2133936667
10
1161783.056746563
20
499966.7731773419
10
1161782.8556268192
20
499967.4273122834
10
1161782.6246892116
20
499968.17579849105
10
1161782.4030695497
20
499968.9242846987
10
1161782.1907678335
20
499969.6727709065
10
1161781.9877840625
20
499970.4212571141
10
1161781.7941182374
20
499971.1697433217
10
1161781.6245219917
20
499971.9182295294
10
1161781.4789953255
20
499972.6667157371
10
1161781.3575382386
20
499973.41520194476
10
1161781.2601507313
20
499974.16368815245
10
1161781.1905684276
20
499974.9121743601
10
1161781.1487913267
20
499975.66066056775
10
1161781.1348194294
20
499976.40914677543
10
1161781.1486527352
20
499977.1576329832
10
1161781.1796985061
20
499977.90611919085
10
1161781.227956742
20
499978.6546053985
10
1161781.2934274427
20
499979.40309160616
10
1161781.376110608
20
499980.15157781384
10
1161781.4368912787
20
499980.9000640215
10
1161781.4757694548
20
499981.64855022915
10
1161781.4927451361
20
499982.3970364368
10
1161781.4878183228
20
499983.1455226445
10
1161781.4692321562
20
499983.8940088522
10
1161781.436986636
20
499984.64249505976
10
1161781.3910817625
20
499985.39098126744
10
1161781.3315175357
20
499986.1394674751
10
1161781.2528532722
20
499986.8879536828
10
1161781.1550889723
20
499987.6364398904
10
1161781.0382246356
20
499988.3849260981
10
1161780.902260262
20
499989.1334123058
10
1161780.797564439
20
499989.7110219337
10
1161780.724137166
20
499990.11775498185
10
1161780.681978443
20
499990.35361145023
10
1161780.67108827
20
499990.41859133885
10
1161780.6302340014
20
499990.6382028351
10
1161780.5594156373
20
499991.01244593895
10
1161780.4586331774
20
499991.5413206504
10
1161780.3278866222
20
499992.22482696944
10
1161780.2137414096
20
499992.9245782607
10
1161780.1161975395
20
499993.64057452395
10
1161780.0352550123
20
499994.3728157595
10
1161779.9709138281
20
499995.12130196724
10
1161779.9041096224
20
499995.8697881749
10
1161779.834842395
20
499996.61827438255
10
1161779.7631121462
20
499997.36676059023
10
1161779.688918876
20
499998.11524679785
10
1161779.6107018187
20
499998.8637330055
10
1161779.5284609746
20
499999.6122192133
10
1161779.4421963436
20
500000.3607054209
10
1161779.3519079254
20
500001.1091916285
10
1161779.254438676
20
500001.8576778362
10
1161779.1497885948
20
500002.6061640438
10
1161779.0379576823
20
500003.3546502515
10
1161778.9189459383
20
500004.10313645925
10
1161778.7826346178
20
500004.85162266693
10
1161778.6290237212
20
500005.60010887455
10
1161778.4581132482
20
500006.34859508224
10
1161778.2699031993
20
500007.0970812899
10
1161778.141952587
20
500007.8455674976
10
1161778.074261412
20
500008.5940537053
10
1161778.0668296737
20
500009.34253991296
10
1161778.1196573726
20
500010.09102612064
10
1161778.1499838321
20
500010.8395123283
10
1161778.1578090522
20
500011.58799853595
10
1161778.1431330328
20
500012.33648474363
10
1161778.1059557742
20
500013.0849709513
10
1161778.0537364737
20
500013.7725397538
10
1161777.986475131
20
500014.39919115114
10
1161777.9041717467
20
500014.9649251434
10
1161777.80682632
20
500015.4697417306
10
1161777.7211364305
20
500015.9092715761
10
1161777.6471020784
20
500016.2835146799
10
1161777.5847232633
20
500016.59247104207
10
1161777.5339999858
20
500016.83614066266
10
1161777.4870323816
20
500017.20601443
10
1161777.4438204512
20
500017.70209234406
10
1161777.4043641945
20
500018.3243744049
10
1161777.3686636111
20
500019.0728606126
10
1161777.3483086645
20
500019.8213468203
10
1161777.3432993544
20
500020.5698330279
10
1161777.3536356804
20
500021.3183192356
10
1161777.379317643
20
500022.0668054433
10
1161777.4098600382
20
500022.815291651
10
1161777.4452628666
20
500023.5637778586
10
1161777.485526128
20
500024.3122640663
10
1161777.5306498222
20
500025.060750274
10
1161777.5566055856
20
500025.80923648167
10
1161777.5633934177
20
500026.55772268935
10
1161777.551013319
20
500027.30620889703
10
1161777.5194652893
20
500028.05469510466
10
1161777.4837214595
20
500028.8031813123
10
1161777.44378183
20
500029.5516675201
10
1161777.3996464
20
500030.3001537277
10
1161777.3513151703
20
500031.0486399353
10
1161777.299332495
20
500031.797126143
10
1161777.2436983741
20
500032.54561235063
10
1161777.1844128082
20
500033.2940985583
10
1161777.1214757964
20
500034.04258476605
10
1161777.0491993255
20
500034.79107097373
10
1161776.967583395
20
500035.53955718136
10
1161776.8766280054
20
500036.28804338904
10
1161776.7763331565
20
500037.0365295967
10
1161776.6956410483
20
500037.7850158044
10
1161776.6345516806
20
500038.533502012
10
1161776.593065054
20
500039.2819882197
10
1161776.571181168
20
500040.0304744274
10
1161776.5623374365
20
500040.77896063507
10
1161776.5665338591
20
500041.52744684264
10
1161776.583770436
20
500042.2759330503
10
1161776.614047167
20
500043.0244192581
10
1161776.6694782614
20
500043.7729054658
10
1161776.7500637195
20
500044.52139167336
10
1161776.855803541
20
500045.26987788104
10
1161776.986697726
20
500046.0183640887
10
1161777.0809197356
20
500046.7668502964
10
1161777.1384695703
20
500047.51533650403
10
1161777.1593472294
20
500048.2638227117
10
1161777.1435527136
20
500049.0123089194
10
1161777.1318276366
20
500049.7607951271
10
1161777.124171999
20
500050.5092813347
10
1161777.1205858006
20
500051.2577675424
10
1161777.121069041
20
500052.0062537501
10
1161777.1342764415
20
500052.7547399578
10
1161777.1602080017
20
500053.5032261654
10
1161777.1988637217
20
500054.2517123731
10
1161777.2502436012
20
500055.00019858073
10
1161777.3096219334
20
500055.7133959327
10
1161777.3769987184
20
500056.39130442915
10
1161777.4523739556
20
500057.03392406984
10
1161777.5357476454
20
500057.64125485485
10
1161777.603591234
20
500058.13204179925
10
1161777.655904721
20
500058.50628490315
10
1161777.6926881066
20
500058.7639841664
10
1161777.713941391
20
500058.905139589
10
1161777.7792823354
20
500059.19812770793
10
1161777.8887109403
20
500059.6429485231
10
1161778.0422272051
20
500060.2396020345
10
1161778.2398311303
20
500060.9880882421
10
1161778.4333648933
20
500061.7365744498
10
1161778.6228284943
20
500062.48506065743
10
1161778.8082219332
20
500063.2335468651
10
1161778.9895452103
20
500063.98203307285
10
1161779.1626452275
20
500064.73051928054
10
1161779.327521985
20
500065.47900548816
10
1161779.4841754828
20
500066.22749169584
10
1161779.632605721
20
500066.9759779035
10
1161779.779078729
20
500067.7244641112
10
1161779.9235945065
20
500068.4729503188
10
1161780.0661530541
20
500069.2214365265
10
1161780.206754371
20
500069.9699227342
10
1161780.3270239006
20
500070.60600611643
10
1161780.426961642
20
500071.1296866732
10
1161780.5065675958
20
500071.5409644046
10
1161780.5658417619
20
500071.8398393106
10
1161780.6330173272
20
500072.1763983155
10
1161780.7080942923
20
500072.5506414193
10
1161780.7910726564
20
500072.9625686221
10
1161780.8819524203
20
500073.4121799238
10
1161780.9869276993
20
500073.93650995195
10
1161781.1059984937
20
500074.5355587067
10
1161781.2391648032
20
500075.20932618785
10
1161781.386426628
20
500075.9578123955
10
1161781.5337176423
20
500076.7062986032
10
1161781.681037846
20
500077.45478481083
10
1161781.8283872395
20
500078.2032710185
10
1161781.975765822
20
500078.9517572262
10
1161782.120890528
20
500079.7002434339
10
1161782.2637613574
20
500080.4487296415
10
1161782.4043783103
20
500081.1972158492
10
1161782.5427413867
20
500081.9457020569
10
1161782.6661262081
20
500082.6941882646
10
1161782.7745327745
20
500083.44267447223
10
1161782.867961086
20
500084.1911606799
10
1161782.9464111426
20
500084.93964688753
10
1161783.041786911
20
500085.68566028855
10
1161783.154088391
20
500086.4292008829
10
1161783.2833155827
20
500087.17026867054
10
1161783.4294684862
20
500087.90886365157
10
1161783.5395331217
20
500088.46528269403
10
1161783.6135094892
20
500088.8395257978
10
1161783.651397589
20
500089.0315929631
10
1161783.6531974205
20
500089.04148418974
10
1161783.691530298
20
500089.2360241616
10
1161783.7663962208
20
500089.61521287885
10
1161783.8777951896
20
500090.17905034125
10
1161784.025727204
20
500090.92753654893
10
1161784.1701616251
20
500091.6760227566
10
1161784.311098453
20
500092.42450896424
10
1161784.4485376878
20
500093.1729951719
10
1161784.5824793298
20
500093.92148137966
10
1161784.732406983
20
500094.66996758734
10
1161784.8983206472
20
500095.41845379496
10
1161785.080220323
20
500096.16694000264
10
1161785.2781060105
20
500096.9154262103
10
1161785.493252034
20
500097.62745292846
10
1161785.725658394
20
500098.3030201571
10
1161785.9753250903
20
500098.94212789624
10
1161786.242252123
20
500099.54477614595
10
1161786.4571706364
20
500100.0332218227
10
1161786.6200806298
20
500100.4074649265
10
1161786.730982104
20
500100.6675054574
10
1161786.7898750587
20
500100.8133434155
10
1161786.9093509582
20
500101.10984343593
10
1161787.0894098026
20
500101.5570055187
10
1161787.3300515916
20
500102.1548296639
10
1161787.6312763256
20
500102.9033158716
10
1161787.9175359446
20
500103.6518020793
10
1161788.1888304488
20
500104.4002882869
10
1161788.4451598378
20
500105.1487744946
10
1161788.6865241115
20
500105.8972607023
10
1161788.9042983784
20
500106.6103501854
10
1161789.0984826381
20
500107.28804294404
10
1161789.2690768903
20
500107.9303389782
10
1161789.4160811354
20
500108.53723828774
10
1161789.5341435913
20
500109.02780949447
10
1161789.6232642583
20
500109.4020525983
10
1161789.6834431363
20
500109.6599675993
10
1161789.7146802251
20
500109.8015544974
10
1161789.7702446962
20
500110.0948662229
10
1161789.8501365492
20
500110.53990277566
10
1161789.9543557842
20
500111.136664156
10
1161790.0829024015
20
500111.8851503637
10
1161790.2286044045
20
500112.6336365714
10
1161790.3914617933
20
500113.38212277903
10
1161790.571474568
20
500114.1306089867
10
1161790.7686427287
20
500114.87909519434
10
1161790.990174936
20
500115.62758140196
10
1161791.2360711903
20
500116.37606760976
10
1161791.5063314913
20
500117.1245538174
10
1161791.8009558395
20
500117.873040025
10
1161792.0461515987
20
500118.5146816605
10
1161792.241918769
20
500119.0494787238
10
1161792.3882573508
20
500119.47743121494
10
1161792.485167344
20
500119.7985391339
10
1161792.5858808882
20
500120.14621464536
10
1161792.690397983
20
500120.52045774914
10
1161792.798718629
20
500120.92126844544
10
1161792.9108428261
20
500121.34864673414
10
1161793.0803018971
20
500121.85630200256
10
1161793.307095842
20
500122.4442342508
10
1161793.5912246609
20
500123.1124434787
10
1161793.9326883538
20
500123.8609296864
10
1161794.262510703
20
500124.53769162414
10
1161794.5806917083
20
500125.1427292919
10
1161794.8872313697
20
500125.6760426897
10
1161795.1821296876
20
500126.13763181755
10
1161795.466794235
20
500126.5555479334
10
1161795.7412250119
20
500126.9297910372
10
1161796.0054220185
20
500127.260361129
10
1161796.2593852545
20
500127.5472582089
10
1161796.5734884245
20
500127.94321697555
10
1161796.9477315284
20
500128.44823742897
10
1161797.3821145662
20
500129.06231956923
10
1161797.8766375375
20
500129.7854633963
10
1161798.2516213087
20
500130.33415686176
10
1161798.5070658794
20
500130.7083999656
10
1161798.6429712498
20
500130.9081927078
10
1161798.6593374198
20
500130.9335350883
10
1161798.782009435
20
500131.13966342574
10
1161799.0109872948
20
500131.52657771984
10
1161799.3462709999
20
500132.0942779707
10
1161799.78786055
20
500132.8427641784
10
1161800.1916853345
20
500133.5420234702
10
1161800.5577453533
20
500134.1920558461
10
1161800.8860406065
20
500134.79286130617
10
1161801.1765710942
20
500135.34443985036
10
1161801.416432171
20
500135.8073506744
10
1161801.6056238369
20
500136.18159377825
10
1161801.7441460919
20
500136.4671691619
10
1161801.8319989364
20
500136.6640768254
10
1161801.9676797113
20
500136.99887912493
10
1161802.1511884169
20
500137.4715760604
10
1161802.3825250533
20
500138.08216763206
10
1161802.6616896202
20
500138.8306538398
10
1161802.9475187182
20
500139.5791400475
10
1161803.2400123472
20
500140.3276262551
10
1161803.5391705069
20
500141.0761124628
10
1161803.8449931978
20
500141.8245986705
10
1161804.093271742
20
500142.41755133634
10
1161804.2840061404
20
500142.8549704605
10
1161804.4171963923
20
500143.13685604284
10
1161804.4928424978
20
500143.26320808346
10
1161804.6544847507
20
500143.51350565563
10
1161804.9021231509
20
500143.8877487594
10
1161805.2357576983
20
500144.3859373949
10
1161805.655388393
20
500145.008071562
10
1161806.0523252923
20
500145.5798389518
10
1161806.426568396
20
500146.10123956436
10
1161806.7781177044
20
500146.57227339956
10
1161807.1069732173
20
500146.99294045754
10
1161807.397110872
20
500147.3903955385
10
1161807.6485306686
20
500147.76463864226
10
1161807.861232607
20
500148.115669769
10
1161808.0352166872
20
500148.4434889187
10
1161808.214851906
20
500148.8764748329
10
1161808.4001382638
20
500149.41462751164
10
1161808.59107576
20
500150.0579469548
10
1161808.787664395
20
500150.80643316254
10
1161808.9959468632
20
500151.5549193702
10
1161809.2159231645
20
500152.30340557784
10
1161809.447593299
20
500153.0518917855
10
1161809.6909572664
20
500153.8003779932
10
1161809.9071176234
20
500154.48329462495
10
1161810.0960743695
20
500155.10064168076
10
1161810.257827505
20
500155.65241916064
10
1161810.39237703
20
500156.1386270646
10
1161810.513427247
20
500156.5688525685
10
1161810.6209781563
20
500156.9430956723
10
1161810.715029758
20
500157.2613563761
10
1161810.7955820514
20
500157.52363467985
0
LWPOLYLINE
5
3E
330
C
100
AcDbEntity
8
C-TOPO-MAJR-E
100
AcDbPolyline
90
247
70
0
43
0
38
0
39
0
10
1161811.1437684128
20
499938.8964018146
10
1161810.7459301879
20
499939.13279962953
10
1161810.523415954
20
499939.2690120301
10
1161810.4762257119
20
499939.3050390164
10
1161810.2655090387
20
499939.49797369563
10
1161809.891265935
20
499939.8478160678
10
1161809.3534964004
20
499940.354566133
10
1161808.6522004348
20
499941.0182238911
10
1161808.1096229607
20
499941.53717432206
10
1161807.7257639777
20
499941.91141742596
10
1161807.500623486
20
499942.1409532026
10
1161807.4342014855
20
499942.2257816522
10
1161807.3015895952
20
499942.4765245413
10
1161807.1027878146
20
499942.8931818699
10
1161806.8377961444
20
499943.475753638
10
1161806.5066145845
20
499944.22423984564
10
1161806.1705077526
20
499944.97006357537
10
1161805.8294756492
20
499945.7132248271
10
1161805.4835182738
20
499946.4537236009
10
1161805.1326356267
20
499947.1915598967
10
1161804.8682079876
20
499947.7475995965
10
1161804.6902353563
20
499948.12184270035
10
1161804.598717733
20
499948.31428920815
10
1161804.5936551176
20
499948.32493912004
10
1161804.5266012084
20
499948.52004810586
10
1161804.397556006
20
499948.89961616567
10
1161804.2065195101
20
499949.46364329936
10
1161803.9534917208
20
499950.21212950704
10
1161803.7224302408
20
499950.9606157147
10
1161803.5133350706
20
499951.70910192234
10
1161803.32620621
20
499952.45758813
10
1161803.1610436589
20
499953.2060743377
10
1161802.9866267683
20
499953.9545605454
10
1161802.8029555385
20
499954.70304675295
10
1161802.6100299691
20
499955.45153296064
10
1161802.4078500604
20
499956.2000191683
10
1161802.225451793
20
499956.8644458681
10
1161802.0628351672
20
499957.44481306005
10
1161801.9200001827
20
499957.94112074416
10
1161801.7969468401
20
499958.35336892033
10
1161801.6806510848
20
499958.74661456037
10
1161801.571112917
20
499959.12085766427
10
1161801.468332337
20
499959.4760982319
10
1161801.3723093441
20
499959.8123362633
10
1161801.2570025017
20
499960.2516363388
10
1161801.1224118099
20
499960.7939984584
10
1161800.9685372678
20
499961.43942262203
10
1161800.795378876
20
499962.1879088297
10
1161800.6273735883
20
499962.9363950374
10
1161800.464521405
20
499963.684881245
10
1161800.3068223258
20
499964.4333674527
10
1161800.154276351
20
499965.18185366044
10
1161800.0179777178
20
499965.9303398681
10
1161799.8979264267
20
499966.67882607575
10
1161799.794122477
20
499967.4273122834
10
1161799.7065658695
20
499968.17579849105
10
1161799.6394173047
20
499968.9242846987
10
1161799.592676783
20
499969.6727709065
10
1161799.5663443045
20
499970.4212571141
10
1161799.5604198691
20
499971.1697433217
10
1161799.5442795227
20
499971.9182295294
10
1161799.5179232652
20
499972.6667157371
10
1161799.481351097
20
499973.41520194476
10
1161799.4345630181
20
499974.16368815245
10
1161799.3711820804
20
499974.9121743601
10
1161799.2912082837
20
499975.66066056775
10
1161799.1946416285
20
499976.40914677543
10
1161799.0814821145
20
499977.1576329832
10
1161798.9863349157
20
499977.90611919085
10
1161798.9092000327
20
499978.6546053985
10
1161798.850077465
20
499979.40309160616
10
1161798.8089672124
20
499980.15157781384
10
1161798.7758598172
20
499980.9000640215
10
1161798.7507552789
20
499981.64855022915
10
1161798.7336535973
20
499982.3970364368
10
1161798.7245547727
20
499983.1455226445
10
1161798.727092239
20
499983.8940088522
10
1161798.7412659966
20
499984.64249505976
10
1161798.7670760448
20
499985.39098126744
10
1161798.804522384
20
499986.1394674751
10
1161798.8347274086
20
499986.8879536828
10
1161798.8576911185
20
499987.6364398904
10
1161798.8734135139
20
499988.3849260981
10
1161798.8818945948
20
499989.1334123058
10
1161798.8855404048
20
499989.8818985135
10
1161798.8843509438
20
499990.63038472115
10
1161798.878326212
20
499991.37887092883
10
1161798.867466209
20
499992.1273571365
10
1161798.8558399624
20
499992.8758433442
10
1161798.8434474715
20
499993.6243295518
10
1161798.8302887366
20
499994.3728157595
10
1161798.816363758
20
499995.12130196724
10
1161798.8025041001
20
499995.8697881749
10
1161798.7887097632
20
499996.61827438255
10
1161798.7749807476
20
499997.36676059023
10
1161798.7613170533
20
499998.11524679785
10
1161798.7516366844
20
499998.8637330055
10
1161798.745939641
20
499999.6122192133
10
1161798.7442259234
20
500000.3607054209
10
1161798.7464955316
20
500001.1091916285
10
1161798.7585663882
20
500001.8576778362
10
1161798.780438493
20
500002.6061640438
10
1161798.8121118464
20
500003.3546502515
10
1161798.8535864481
20
500004.10313645925
10
1161798.9004410573
20
500004.85162266693
10
1161798.952675674
20
500005.60010887455
10
1161799.0102902984
20
500006.34859508224
10
1161799.07328493
20
500007.0970812899
10
1161799.118061362
20
500007.8455674976
10
1161799.144619594
20
500008.5940537053
10
1161799.1529596262
20
500009.34253991296
10
1161799.1430814585
20
500010.09102612064
10
1161799.1116357045
20
500010.8395123283
10
1161799.0586223644
20
500011.58799853595
10
1161798.984041438
20
500012.33648474363
10
1161798.8878929254
20
500013.0849709513
10
1161798.807953531
20
500013.6740349961
10
1161798.7442232543
20
500014.10367687803
10
1161798.696702096
20
500014.37389659707
10
1161798.6653900554
20
500014.48469415325
10
1161798.5947655682
20
500014.7272144833
10
1161798.4848286337
20
500015.10145758715
10
1161798.3355792526
20
500015.60742346477
10
1161798.1470174245
20
500016.2451121162
10
1161797.91693458
20
500016.91050015675
10
1161797.64533072
20
500017.6035875863
10
1161797.332205844
20
500018.3243744049
10
1161796.977559952
20
500019.0728606126
10
1161796.7079616943
20
500019.8213468203
10
1161796.5234110714
20
500020.5698330279
10
1161796.4239080823
20
500021.3183192356
10
1161796.409452728
20
500022.0668054433
10
1161796.46096951
20
500022.815291651
10
1161796.5784584288
20
500023.5637778586
10
1161796.7619194845
20
500024.3122640663
10
1161797.011352677
20
500025.060750274
10
1161797.2480888993
20
500025.80923648167
10
1161797.472128152
20
500026.55772268935
10
1161797.683470435
20
500027.30620889703
10
1161797.8821157485
20
500028.05469510466
10
1161798.0440542414
20
500028.8031813123
10
1161798.1692859142
20
500029.5516675201
10
1161798.2578107663
20
500030.3001537277
10
1161798.3096287982
20
500031.0486399353
10
1161798.3616092158
20
500031.797126143
10
1161798.4137520187
20
500032.54561235063
10
1161798.466057207
20
500033.2940985583
10
1161798.5185247809
20
500034.04258476605
10
1161798.5592002019
20
500034.6166163611
10
1161798.5880834705
20
500035.0161933435
10
1161798.6051745864
20
500035.24131571327
10
1161798.6104735497
20
500035.29198347044
10
1161798.6345897063
20
500035.50443890097
10
1161798.6775230563
20
500035.87868200475
10
1161798.7392735993
20
500036.41471278196
10
1161798.8198413358
20
500037.1125312325
10
1161798.8883975975
20
500037.8230166223
10
1161798.9449423847
20
500038.5461689513
10
1161798.9894756973
20
500039.2819882197
10
1161799.0219975354
20
500040.0304744274
10
1161799.0598147493
20
500040.77896063507
10
1161799.1029273393
20
500041.52744684264
10
1161799.1513353048
20
500042.2759330503
10
1161799.205038646
20
500043.0244192581
10
1161799.2479124567
20
500043.7729054658
10
1161799.279956737
20
500044.52139167336
10
1161799.3011714863
20
500045.26987788104
10
1161799.3115567048
20
500046.0183640887
10
1161799.2912710533
20
500046.7668502964
10
1161799.2403145318
20
500047.51533650403
10
1161799.1586871403
20
500048.2638227117
10
1161799.0463888785
20
500049.0123089194
10
1161798.9609267788
20
500049.7607951271
10
1161798.9023008412
20
500050.5092813347
10
1161798.8705110652
20
500051.2577675424
10
1161798.8655574513
20
500052.0062537501
10
1161798.8826151844
20
500052.7547399578
10
1161798.9216842642
20
500053.5032261654
10
1161798.9827646913
20
500054.2517123731
10
1161799.0658564658
20
500055.00019858073
10
1161799.1462569246
20
500055.74868478836
10
1161799.2239660681
20
500056.49717099615
10
1161799.2989838964
20
500057.24565720384
10
1161799.3713104092
20
500057.9941434114
10
1161799.4836441022
20
500058.7426296191
10
1161799.6359849756
20
500059.4911158269
10
1161799.828333029
20
500060.2396020345
10
1161800.0606882623
20
500060.9880882421
10
1161800.3101512943
20
500061.6987744343
10
1161800.576722125
20
500062.3716606109
10
1161800.8604007547
20
500063.00674677204
10
1161801.1611871833
20
500063.6040329176
10
1161801.4066937496
20
500064.0897975423
10
1161801.5969204535
20
500064.46404064615
10
1161801.7318672952
20
500064.7267622291
10
1161801.8115342748
20
500064.8779622912
10
1161801.9470503717
20
500065.1784838897
10
1161802.1384155853
20
500065.6283270246
10
1161802.385629916
20
500066.22749169584
10
1161802.688693364
20
500066.9759779035
10
1161802.9678755773
20
500067.7244641112
10
1161803.2231765564
20
500068.4729503188
10
1161803.454596301
20
500069.2214365265
10
1161803.6621348115
20
500069.9699227342
10
1161803.8573430118
20
500070.68185106013
10
1161804.0402209018
20
500071.3572215043
10
1161804.210768482
20
500071.9960340668
10
1161804.3689857514
20
500072.59828874754
10
1161804.4968962874
20
500073.08653763984
10
1161804.59450009
20
500073.4607807437
10
1161804.6617971587
20
500073.72101805906
10
1161804.6987874936
20
500073.8672495859
10
1161804.7561799488
20
500074.16404478304
10
1161804.8339745249
20
500074.6114036504
10
1161804.9321712211
20
500075.20932618785
10
1161805.0507700376
20
500075.9578123955
10
1161805.14681779
20
500076.7062986032
10
1161805.2203144785
20
500077.45478481083
10
1161805.2712601025
20
500078.2032710185
10
1161805.2996546624
20
500078.9517572262
10
1161805.3689032423
20
500079.7002434339
10
1161805.4790058425
20
500080.4487296415
10
1161805.6299624625
20
500081.1972158492
10
1161805.8217731025
20
500081.9457020569
10
1161805.9971646785
20
500082.6941882646
10
1161806.1561371905
20
500083.44267447223
10
1161806.2986906385
20
500084.1911606799
10
1161806.4248250227
20
500084.93964688753
10
1161806.5810651786
20
500085.6472316195
10
1161806.7674111067
20
500086.31391487585
10
1161806.9838628066
20
500086.9396966564
10
1161807.2304202789
20
500087.52457696147
10
1161807.4332171236
20
500088.00413866586
10
1161807.5922533409
20
500088.37838176964
10
1161807.707528931
20
500088.64730627293
10
1161807.7790438938
20
500088.8109121756
10
1161807.934836293
20
500089.12073815457
10
1161808.1749061286
20
500089.5767842098
10
1161808.4992534004
20
500090.17905034125
10
1161808.9078781086
20
500090.92753654893
10
1161809.281433274
20
500091.6093052804
10
1161809.6199188964
20
500092.2243565355
10
1161809.923334976
20
500092.7726903144
10
1161810.1916815126
20
500093.254306617
10
1161810.4343335568
20
500093.6822363202
10
1161810.6512911085
20
500094.05647942406
10
1161810.8425541678
20
500094.3770359285
0
LWPOLYLINE
5
3F
330
C
100
AcDbEntity
8
C-SITE-N
100
AcDbPolyline
90
7
70
1
43
0
38
0
39
0
10
1161771.342331978
20
500071.9981334924
10
1161743.6714414575
20
500094.95238313754
10
1161710.3220451814
20
500101.5764380001
10
1161688.040302575
20
500102.122932989
10
1161666.5220204962
20
500013.79416176537
10
1161764.3212575745
20
499996.60949565104
10
1161771.342331978
20
500071.9981334924
0
LWPOLYLINE
5
40
330
C
100
AcDbEntity
8
C-BLDG-FTPR-N
100
AcDbPolyline
90
5
70
1
43
0
38
0
39
0
10
1161758.8432983174
20
500082.17909632175
10
1161687.826307496
20
500090.0440360058
10
1161680.0178265302
20
500019.5368428964
10
1161751.0348173515
20
500011.6719032124
10
1161758.8432983174
20
500082.17909632175
0
LWPOLYLINE
5
41
330
C
100
AcDbEntity
8
C-PVMT
100
AcDbPolyline
90
5
70
1
43
0
38
0
39
0
10
1161744.1218328855
20
500135.73465792066
10
1161731.9091533
20
500136.0575056197
10
1161721.0488831457
20
500086.3647255956
10
1161733.041847291
20
500085.03653724876
10
1161744.1218328855
20
500135.73465792066
0
LWPOLYLINE
5
42
330
C
100
AcDbEntity
8
C-PVMT
100
AcDbPolyline
90
5
70
1
43
0
38
0
39
0
10
1161726.0059844668
20
500085.62843850366
10
1161727.0735283594
20
500090.5131442304
10
1161717.4995051348
20
500092.6055302598
10
1161716.431961242
20
500087.720824533
10
1161726.0059844668
20
500085.62843850366
0
LWPOLYLINE
5
43
330
C
100
AcDbEntity
8
C-PVMT
100
AcDbPolyline
90
5
70
1
43
0
38
0
39
0
10
1161731.851479697
20
500088.95712976524
10
1161724.035950534
20
500090.66519999335
10
1161723.18191542
20
500086.7574354119
10
1161730.997444583
20
500085.0493651838
10
1161731.851479697
20
500088.95712976524
0
LWPOLYLINE
5
44
330
C
100
AcDbEntity
8
C-PVMT
100
AcDbPolyline
90
5
70
1
43
0
38
0
39
0
10
1161761.7100034396
20
500125.5339709231
10
1161685.4527163955
20
500142.1998676217
10
1161684.81219006
20
500139.26904418564
10
1161761.069477104
20
500122.60314748704
10
1161761.7100034396
20
500125.5339709231
0
LWPOLYLINE
5
45
330
C
100
AcDbEntity
8
C-TOPO-SURF
100
AcDbPolyline
90
5
70
1
43
0
38
0
39
0
10
1161762.5640385535
20
500129.44173550454
10
1161686.3067515094
20
500146.10763220314
10
1161685.4527163955
20
500142.1998676217
10
1161761.7100034396
20
500125.5339709231
10
1161762.5640385535
20
500129.44173550454
0
LWPOLYLINE
5
46
330
C
100
AcDbEntity
8
C-PVMT
100
AcDbPolyline
90
5
70
1
43
0
38
0
39
0
10
1161762.8843017214
20
500130.9071472226
10
1161686.6270146773
20
500147.5730439212
10
1161686.3067515094
20
500146.10763220314
10
1161762.5640385535
20
500129.44173550454
10
1161762.8843017214
20
500130.9071472226
0
LWPOLYLINE
5
47
330
C
100
AcDbEntity
8
C-PVMT
100
AcDbPolyline
90
5
70
1
43
0
38
0
39
0
10
1161729.1555883691
20
500141.62669517874
10
1161747.1501768313
20
500141.1853494278
10
1161743.942665483
20
500132.7614625013
10
1161731.9462731748
20
500133.0556930019
10
1161729.1555883691
20
500141.62669517874
0
LWPOLYLINE
5
48
330
C
100
AcDbEntity
8
C-LODS
100
AcDbPolyline
90
4
70
1
43
0
38
0
39
0
10
1161675.693738908
20
500010.5200659648
10
1161754.3015183262
20
500002.2205189358
10
1161767.7362935392
20
500077.6058440889
10
1161675.693738908
20
500010.5200659648
0
LWPOLYLINE
5
49
330
C
100
AcDbEntity
8
C-SITE-N
100
AcDbPolyline
90
17
70
1
43
0
38
0
39
0
10
1161782.5977945095
20
500115.2627397371
10
1161780.6647597114
20
500093.4245600286
10
1161789.4438937602
20
499961.2354065339
10
1161649.502334262
20
499985.7000958541
10
1161689.8614608506
20
500139.8412722072
10
1161708.715353656
20
500135.57918581483
10
1161727.2663286708
20
500132.4874978318
10
1161744.3101427972
20
500130.8435766889
10
1161746.313115207
20
500130.6411202327
10
1161748.2574129214
20
500130.0953819578
10
1161750.0862971232
20
500129.2202660582
10
1161751.7458215833
20
500128.0388525831
10
1161753.1862244362
20
500126.5829082575
10
1161758.5576682861
20
500121.65289077954
10
1161765.384748811
20
500118.5098236873
10
1161773.63195271
20
500116.3893221874
10
1161782.5977945095
20
500115.2627397371
0
POINT
5
4A
330
C
100
AcDbEntity
8
C-TOPO-SPOT
100
AcDbPoint
10
1161748.0473944924
20
500108.7128914017
30
0
0
LWPOLYLINE
5
4B
330
C
100
AcDbEntity
8
C-UTIL
100
AcDbPolyline
90
2
70
0
43
0
38
0
39
0
10
1161801.9236361436
20
500138.7036909376
10
1161755.861528241
20
500082.5093192942
0
LWPOLYLINE
5
4C
330
C
100
AcDbEntity
8
C-UTIL
100
AcDbPolyline
90
2
70
0
43
0
38
0
39
0
10
1161795.4390788483
20
500144.0190342558
10
1161745.922294653
20
500083.6100625356
0
LWPOLYLINE
5
4D
330
C
100
AcDbEntity
8
C-SWMG
100
AcDbPolyline
90
5
70
1
43
0
38
0
39
0
10
1161762.2747487186
20
500001.0407499843
10
1161787.254740712
20
500001.0407499843
10
1161787.254740712
20
500026.02074197796
10
1161762.2747487186
20
500026.02074197796
10
1161762.2747487186
20
500001.0407499843
0
LWPOLYLINE
5
4E
330
C
100
AcDbEntity
8
C-STRM-AREA
100
AcDbPolyline
90
17
70
1
43
0
38
0
39
0
10
1161787.5103003564
20
500116.1940218128
10
1161785.1921108565
20
500091.3025111112
10
1161790.795154849
20
499956.42145872884
10
1161646.376251837
20
499981.797838985
10
1161685.4527163955
20
500142.1998676217
10
1161704.586612193
20
500138.39937976736
10
1161723.9757535006
20
500136.2520848011
10
1161743.4775711866
20
500135.7737718689
10
1161745.9189017462
20
500135.6255555816
10
1161748.3065204606
20
500135.09514079697
10
1161750.580972716
20
500134.19573548913
10
1161752.685621881
20
500132.9497359457
10
1161754.5680596277
20
500131.3881690728
10
1161761.7100034396
20
500125.5339709231
10
1161769.737825617
20
500120.9696452909
10
1161778.4210293512
20
500117.8262442187
10
1161787.5103003564
20
500116.1940218128
0
LWPOLYLINE
5
4F
330
C
100
AcDbEntity
8
C-SITE-N
100
AcDbPolyline
90
4
70
1
43
0
38
0
39
0
10
1161675.693738908
20
500010.5200659648
10
1161754.3015183262
20
500002.2205189358
10
1161767.7362935392
20
500077.6058440889
10
1161675.693738908
20
500010.5200659648
0
LWPOLYLINE
5
50
330
C
100
AcDbEntity
8
C-SITE-N
100
AcDbPolyline
90
5
70
1
43
0
38
0
39
0
10
1161675.693738908
20
499994.5200659648
10
1161705.693738908
20
499994.5200659648
10
1161705.693738908
20
500010.5200659648
10
1161675.693738908
20
500010.5200659648
10
1161675.693738908
20
499994.5200659648
0
LWPOLYLINE
5
51
330
C
100
AcDbEntity
8
L-PLNT-TREE
100
AcDbPolyline
90
5
70
1
43
0
38
0
39
0
10
1161756.3087185402
20
500127.3279918074
10
1161766.3087185402
20
500127.3279918074
10
1161766.3087185402
20
500137.3279918074
10
1161756.3087185402
20
500137.3279918074
10
1161756.3087185402
20
500127.3279918074
0
LWPOLYLINE
5
52
330
C
100
AcDbEntity
8
L-PLNT-TREE
100
AcDbPolyline
90
5
70
1
43
0
38
0
39
0
10
1161767.0128520653
20
500051.1221949516
10
1161779.0128520653
20
500051.1221949516
10
1161779.0128520653
20
500063.1221949516
10
1161767.0128520653
20
500063.1221949516
10
1161767.0128520653
20
500051.1221949516
0
LWPOLYLINE
5
53
330
C
100
AcDbEntity
8
L-PLNT-TREE
100
AcDbPolyline
90
5
70
1
43
0
38
0
39
0
10
1161721.3131096023
20
500096.8219374145
10
1161733.3131096023
20
500096.8219374145
10
1161733.3131096023
20
500108.8219374145
10
1161721.3131096023
20
500108.8219374145
10
1161721.3131096023
20
500096.8219374145
0
LWPOLYLINE
5
54
330
C
100
AcDbEntity
8
L-PLNT-TREE
100
AcDbPolyline
90
5
70
1
43
0
38
0
39
0
10
1161687.038302755
20
500110.4879018306
10
1161699.038302755
20
500110.4879018306
10
1161699.038302755
20
500122.4879018306
10
1161687.038302755
20
500122.4879018306
10
1161687.038302755
20
500110.4879018306
0
ENDSEC
0
SECTION
2
OBJECTS
0
DICTIONARY
5
A
330
0
100
AcDbDictionary
281
1
3
ACAD_GROUP
350
B
0
DICTIONARY
5
B
330
A
100
AcDbDictionary
281
0
0
ENDSEC
0
EOF