0
SECTION
2
HEADER
9
$ACADVER
1
AC1021
9
$LASTSAVEDBY
1
@tarikjabiri/dxf
9
$HANDSEED
5
54
9
$INSUNITS
70
0
9
$CLAYER
8
0
9
$VIEWCTR
10
1340301.115659427
20
440133.54325662146
0
ENDSEC
0
SECTION
2
CLASSES
0
ENDSEC
0
SECTION
2
TABLES
0
TABLE
2
VPORT
5
1
330
0
100
AcDbSymbolTable
70
1
0
VPORT
5
19
330
1
100
AcDbSymbolTableRecord
100
AcDbViewportTableRecord
2
*Active
70
0
10
0
20
0
11
1
21
1
12
1340301.115659427
22
440133.54325662146
13
0
23
0
14
10
24
10
15
10
25
10
16
0
26
0
36
1
17
0
27
0
37
0
40
317.19948472228134
41
2
42
50
43
0
44
0
50
0
51
0
71
0
72
100
73
1
74
3
75
0
76
1
77
0
78
0
281
0
65
1
110
0
120
0
130
0
111
1
121
0
131
0
112
0
122
1
132
0
79
0
146
0
348
10020
60
7
61
5
292
1
282
1
141
0
142
0
63
250
421
3358443
0
ENDTAB
0
TABLE
2
LTYPE
5
2
330
0
100
AcDbSymbolTable
70
7
0
LTYPE
5
12
330
2
100
AcDbSymbolTableRecord
100
AcDbLinetypeTableRecord
2
ByBlock
70
0
3

72
65
73
0
40
0
0
LTYPE
5
13
330
2
100
AcDbSymbolTableRecord
100
AcDbLinetypeTableRecord
2
ByLayer
70
0
3

72
65
73
0
40
0
0
LTYPE
5
14
330
2
100
AcDbSymbolTableRecord
100
AcDbLinetypeTableRecord
2
Continuous
70
0
3
Solid line
72
65
73
0
40
0
0
LTYPE
5
1A
330
2
100
AcDbSymbolTableRecord
100
AcDbLinetypeTableRecord
2
DASHED
70
0
3
Dashed __ __ __ __ __ __
72
65
73
2
40
6
49
4
74
0
49
-2
74
0
0
LTYPE
5
1B
330
2
100
AcDbSymbolTableRecord
100
AcDbLinetypeTableRecord
2
HIDDEN
70
0
3
Hidden __ __ __ __ __
72
65
73
2
40
3
49
2
74
0
49
-1
74
0
0
LTYPE
5
1C
330
2
100
AcDbSymbolTableRecord
100
AcDbLinetypeTableRecord
2
PHANTOM
70
0
3
Phantom ____ _ _ ____ _ _
72
65
73
6
40
13
49
8
74
0
49
-1
74
0
49
1
74
0
49
-1
74
0
49
1
74
0
49
-1
74
0
0
LTYPE
5
1D
330
2
100
AcDbSymbolTableRecord
100
AcDbLinetypeTableRecord
2
DASHDOT
70
0
3
Dash dot __ . __ . __ .
72
65
73
4
40
8
49
4
74
0
49
-2
74
0
49
0
74
0
49
-2
74
0
0
ENDTAB
0
TABLE
2
LAYER
5
3
330
0
100
AcDbSymbolTable
70
14
0
LAYER
5
15
330
3
100
AcDbSymbolTableRecord
100
AcDbLayerTableRecord
2
0
70
0
62
7
6
Continuous
370
0
390
0
0
LAYER
5
1E
330
3
100
AcDbSymbolTableRecord
100
AcDbLayerTableRecord
2
C-BLDG-FTPR-N
70
0
62
6
6
Continuous
370
0
390
0
0
LAYER
5
1F
330
3
100
AcDbSymbolTableRecord
100
AcDbLayerTableRecord
2
C-LODS
70
0
62
30
6
PHANTOM
370
0
390
0
0
LAYER
5
20
330
3
100
AcDbSymbolTableRecord
100
AcDbLayerTableRecord
2
C-PVMT
70
0
62
8
6
Continuous
370
0
390
0
0
LAYER
5
21
330
3
100
AcDbSymbolTableRecord
100
AcDbLayerTableRecord
2
C-SITE-N
70
0
62
6
6
Continuous
370
0
390
0
0
LAYER
5
22
330
3
100
AcDbSymbolTableRecord
100
AcDbLayerTableRecord
2
C-STRM-AREA
70
0
62
150
6
PHANTOM
370
0
390
0
0
LAYER
5
23
330
3
100
AcDbSymbolTableRecord
100
AcDbLayerTableRecord
2
C-SWMG
70
0
62
92
6
Continuous
370
0
390
0
0
LAYER
5
24
330
3
100
AcDbSymbolTableRecord
100
AcDbLayerTableRecord
2
C-TOPO-MAJR-E
70
0
62
32
6
DASHED
370
0
390
0
0
LAYER
5
25
330
3
100
AcDbSymbolTableRecord
100
AcDbLayerTableRecord
2
C-TOPO-SPOT
70
0
62
7
6
Continuous
370
0
390
0
0
LAYER
5
26
330
3
100
AcDbSymbolTableRecord
100
AcDbLayerTableRecord
2
C-TOPO-SURF
70
0
62
253
6
Continuous
370
0
390
0
0
LAYER
5
27
330
3
100
AcDbSymbolTableRecord
100
AcDbLayerTableRecord
2
C-UTIL
70
0
62
4
6
DASHED
370
0
390
0
0
LAYER
5
28
330
3
100
AcDbSymbolTableRecord
100
AcDbLayerTableRecord
2
L-PLNT-TREE
70
0
62
90
6
Continuous
370
0
390
0
0
LAYER
5
29
330
3
100
AcDbSymbolTableRecord
100
AcDbLayerTableRecord
2
V-PROP-BNDY
70
0
62
7
6
Continuous
370
0
390
0
0
LAYER
5
2A
330
3
100
AcDbSymbolTableRecord
100
AcDbLayerTableRecord
2
C-ANNO-NPLT
70
0
62
250
6
Continuous
370
0
390
0
0
ENDTAB
0
TABLE
2
STYLE
5
4
330
0
100
AcDbSymbolTable
70
1
0
STYLE
5
16
330
4
100
AcDbSymbolTableRecord
100
AcDbTextStyleTableRecord
2
Standard
70
0
40
0
41
1
50
0
71
0
42
1
3
txt
4

0
ENDTAB
0
TABLE
2
VIEW
5
5
330
0
100
AcDbSymbolTable
70
0
0
ENDTAB
0
TABLE
2
UCS
5
6
330
0
100
AcDbSymbolTable
70
0
0
ENDTAB
0
TABLE
2
APPID
5
7
330
0
100
AcDbSymbolTable
70
1
0
APPID
5
17
330
7
100
AcDbSymbolTableRecord
100
AcDbRegAppTableRecord
2
ACAD
70
0
0
ENDTAB
0
TABLE
2
DIMSTYLE
5
8
330
0
100
AcDbSymbolTable
70
1
100
AcDbDimStyleTable
0
DIMSTYLE
105
18
330
8
100
AcDbSymbolTableRecord
100
AcDbDimStyleTableRecord
2
Standard
70
0
340
16
0
ENDTAB
0
TABLE
2
BLOCK_RECORD
5
9
330
0
100
AcDbSymbolTable
70
2
0
BLOCK_RECORD
5
C
330
9
100
AcDbSymbolTableRecord
100
AcDbBlockTableRecord
2
*Model_Space
70
0
280
1
281
0
0
BLOCK_RECORD
5
F
330
9
100
AcDbSymbolTableRecord
100
AcDbBlockTableRecord
2
*Paper_Space
70
0
280
1
281
0
0
ENDTAB
0
ENDSEC
0
SECTION
2
BLOCKS
0
BLOCK
5
D
330
C
100
AcDbEntity
8
0
100
AcDbBlockBegin
2
*Model_Space
70
0
10
0
20
0
30
0
3
*Model_Space
1

0
ENDBLK
5
E
100
AcDbEntity
8
0
100
AcDbBlockEnd
0
BLOCK
5
10
330
F
100
AcDbEntity
8
0
100
AcDbBlockBegin
2
*Paper_Space
70
0
10
0
20
0
30
0
3
*Paper_Space
1

0
ENDBLK
5
11
100
AcDbEntity
8
0
100
AcDbBlockEnd
0
ENDSEC
0
SECTION
2
ENTITIES
0
TEXT
5
2B
330
C
100
AcDbEntity
8
C-ANNO-NPLT
100
AcDbText
10
1340229.1404233687
20
440094.9435142603
30
0
40
2.5
1
PRELIMINARY - NOT SEALED - NOT FOR CONSTRUCTION OR PERMIT SUBMISSION
7
STANDARD
100
AcDbText
0
TEXT
5
2C
330
C
100
AcDbEntity
8
C-ANNO-NPLT
100
AcDbText
10
1340229.1404233687
20
440090.9435142603
30
0
40
2.5
1
GENERATED 2026-09-26T16:40:39.397Z BY KEALEE SITE PLAN ENGINE
7
STANDARD
100
AcDbText
0
TEXT
5
2D
330
C
100
AcDbEntity
8
C-ANNO-NPLT
100
AcDbText
10
1340229.1404233687
20
440086.9435142603
30
0
40
2.5
1
HORIZONTAL: EPSG:2248
7
STANDARD
100
AcDbText
0
TEXT
5
2E
330
C
100
AcDbEntity
8
C-ANNO-NPLT
100
AcDbText
10
1340229.1404233687
20
440082.9435142603
30
0
40
2.5
1
VERTICAL: NAVD88 (feet)
7
STANDARD
100
AcDbText
0
TEXT
5
2F
330
C
100
AcDbEntity
8
C-ANNO-NPLT
100
AcDbText
10
1340229.1404233687
20
440078.9435142603
30
0
40
2.5
1
SOURCES: Parcel boundary — jurisdiction gis (Prince George's County / M-NCPPC — PGAtlas Property, level 1); Existing contours (Prince George's County / M-NCPPC — Elevation/MapServer/1 — Contour - 2 Ft (2023), level 1)
7
STANDARD
100
AcDbText
0
TEXT
5
30
330
C
100
AcDbEntity
8
C-ANNO-NPLT
100
AcDbText
10
1340229.1404233687
20
440074.9435142603
30
0
40
2.5
1
THIS FILE IS DATA FOR A LICENSED PROFESSIONAL. IT IS NOT A SEALED DRAWING.
7
STANDARD
100
AcDbText
0
LWPOLYLINE
5
31
330
C
100
AcDbEntity
8
V-PROP-BNDY
100
AcDbPolyline
90
8
70
1
43
0
38
0
39
0
10
1340428.105576616
20
440226.3383046008
10
1340439.9651329496
20
440162.4289836124
10
1340323.017532198
20
440140.7390663552
10
1340285.7912286946
20
440169.8512128519
10
1340254.7059890358
20
440194.16054744466
10
1340298.0264404528
20
440202.1995733663
10
1340367.4806978686
20
440215.08799902874
10
1340428.105576616
20
440226.3383046008
0
LWPOLYLINE
5
32
330
C
100
AcDbEntity
8
C-TOPO-MAJR-E
100
AcDbPolyline
90
3
70
0
43
0
38
0
39
0
10
1340253.2342071945
20
440215.71365393675
10
1340246.647278116
20
440215.6693626886
10
1340242.0400038639
20
440217.3517740209
0
LWPOLYLINE
5
33
330
C
100
AcDbEntity
8
C-TOPO-MAJR-E
100
AcDbPolyline
90
2
70
0
43
0
38
0
39
0
10
1340338.9377759492
20
440231.7654591
10
1340334.1369325332
20
440229.8494524432
0
LWPOLYLINE
5
34
330
C
100
AcDbEntity
8
C-TOPO-MAJR-E
100
AcDbPolyline
90
18
70
0
43
0
38
0
39
0
10
1340334.1369325332
20
440229.8494524432
10
1340324.3436450323
20
440225.94033953967
10
1340319.7836147812
20
440224.00694444374
10
1340319.0142593672
20
440223.60766702396
10
1340315.9388061997
20
440222.5479578608
10
1340307.866315776
20
440223.0417232759
10
1340299.0644961086
20
440227.1135655266
10
1340295.5710647842
20
440230.0082447726
10
1340294.9503311152
20
440230.68081560923
10
1340290.9103129492
20
440232.9701811038
10
1340284.3624257825
20
440227.06829002715
10
1340282.3591489473
20
440224.3517600219
10
1340278.5261513721
20
440220.22479978227
10
1340277.334224625
20
440219.17887010187
10
1340274.9260929513
20
440217.9150931159
10
1340265.12788421
20
440216.89606628113
10
1340256.9057877837
20
440215.73858827964
10
1340253.2342071945
20
440215.71365393675
0
LWPOLYLINE
5
35
330
C
100
AcDbEntity
8
C-TOPO-MAJR-E
100
AcDbPolyline
90
9
70
0
43
0
38
0
39
0
10
1340436.9497190379
20
440151.2426542794
10
1340438.2735352837
20
440150.6035479379
10
1340438.9490588722
20
440148.2721877869
10
1340441.0048290316
20
440143.2439826094
10
1340448.781060201
20
440135.8325801168
10
1340450.678694201
20
440134.41132310504
10
1340455.819103861
20
440128.34473418153
10
1340456.6386560323
20
440122.4264389447
10
1340453.738399368
20
440118.4887827633
0
LWPOLYLINE
5
36
330
C
100
AcDbEntity
8
C-TOPO-MAJR-E
100
AcDbPolyline
90
9
70
0
43
0
38
0
39
0
10
1340448.0678070318
20
440120.5478337824
10
1340444.953968121
20
440124.0740734416
10
1340437.5192717009
20
440134.1121111092
10
1340434.6941461232
20
440137.2039684427
10
1340431.7509105345
20
440142.3056642842
10
1340432.277812372
20
440147.19082511164
10
1340434.0159978713
20
440150.47231460136
10
1340434.1793833612
20
440150.6183116995
10
1340436.9497190379
20
440151.2426542794
0
LWPOLYLINE
5
37
330
C
100
AcDbEntity
8
C-TOPO-MAJR-E
100
AcDbPolyline
90
4
70
0
43
0
38
0
39
0
10
1340283.449041783
20
440150.27972968185
10
1340284.3145256147
20
440150.11798460135
10
1340286.4040883735
20
440147.750207198
10
1340286.5907677854
20
440147.32041801594
0
LWPOLYLINE
5
38
330
C
100
AcDbEntity
8
C-TOPO-MAJR-E
100
AcDbPolyline
90
8
70
0
43
0
38
0
39
0
10
1340342.1693967807
20
440140.2767969538
10
1340341.6611957038
20
440140.78302952665
10
1340339.1054265297
20
440141.90769919247
10
1340336.4010356222
20
440137.5848731995
10
1340338.325572455
20
440134.8752329417
10
1340340.849845614
20
440134.12228169054
10
1340343.9364536225
20
440136.6970796952
10
1340342.1693967807
20
440140.2767969538
0
LWPOLYLINE
5
39
330
C
100
AcDbEntity
8
C-TOPO-MAJR-E
100
AcDbPolyline
90
6
70
0
43
0
38
0
39
0
10
1340345.6897309537
20
440177.2878777763
10
1340342.3016143693
20
440179.81838452676
10
1340342.9410487833
20
440186.19501219917
10
1340344.062109526
20
440186.34363395337
10
1340348.501733201
20
440180.225864019
10
1340345.6897309537
20
440177.2878777763
0
LWPOLYLINE
5
3A
330
C
100
AcDbEntity
8
C-TOPO-MAJR-E
100
AcDbPolyline
90
7
70
0
43
0
38
0
39
0
10
1340356.528620031
20
440247.0442999475
10
1340353.1552672065
20
440243.27462243766
10
1340352.6667511144
20
440242.67882310506
10
1340348.3025866144
20
440238.5863116058
10
1340341.367561117
20
440233.0380943484
10
1340339.3790480339
20
440231.9416398471
10
1340338.9377759492
20
440231.7654591
0
LWPOLYLINE
5
3B
330
C
100
AcDbEntity
8
C-TOPO-MAJR-E
100
AcDbPolyline
90
49
70
0
43
0
38
0
39
0
10
1340460.3968506127
20
440224.6342397778
10
1340459.9076783664
20
440224.7700662671
10
1340442.6331066175
20
440224.7139640238
10
1340436.093093453
20
440225.42393636104
10
1340426.1482314428
20
440226.2526748527
10
1340420.1790832935
20
440225.82190143754
10
1340413.4327056964
20
440223.90819136624
10
1340406.6781260334
20
440220.5138411907
10
1340402.5934885452
20
440220.84422110836
10
1340390.1279622875
20
440228.70739435963
10
1340384.7880779486
20
440229.5725501066
10
1340367.50760071
20
440226.5630416996
10
1340366.4774190292
20
440226.436401525
10
1340363.9492088656
20
440225.9505101118
10
1340363.6585270304
20
440225.7877807738
10
1340359.6749392012
20
440222.2936932694
10
1340353.9098588615
20
440215.650661949
10
1340351.2963470337
20
440213.57225402165
10
1340341.9023369537
20
440208.96333935915
10
1340339.9446637006
20
440209.0191135136
10
1340332.0309656255
20
440213.0775043674
10
1340330.0440929553
20
440213.0319007821
10
1340327.697969036
20
440212.1664169462
10
1340326.1031559526
20
440211.3957491823
10
1340320.1143227783
20
440208.9994285256
10
1340315.5359198733
20
440207.6897198502
10
1340308.937507867
20
440205.2146591989
10
1340303.3522171958
20
440201.5945876916
10
1340301.7898843766
20
440198.63822877983
10
1340301.8587818726
20
440198.0401328586
10
1340302.5005128654
20
440193.05425045703
10
1340301.1904761214
20
440184.5437687795
10
1340303.8732135394
20
440172.5851312718
10
1340308.6579808737
20
440167.4873724419
10
1340311.0064013726
20
440165.70095869247
10
1340316.1005512914
20
440164.18652602873
10
1340320.0539554497
20
440164.9371807005
10
1340329.5047239508
20
440164.83678719687
10
1340336.2514296174
20
440161.48410360416
10
1340343.1723475293
20
440156.08057111985
10
1340345.5781826207
20
440153.89619227865
10
1340348.125749701
20
440150.17868002795
10
1340348.5319168717
20
440149.67540020315
10
1340352.6375517056
20
440145.04023885744
10
1340359.1345859435
20
440135.7689319452
10
1340363.5870048662
20
440131.9756324449
10
1340368.6047113647
20
440128.0953908562
10
1340373.6332446116
20
440123.54192227754
10
1340385.3133393642
20
440115.47533735377
0
LWPOLYLINE
5
3C
330
C
100
AcDbEntity
8
C-TOPO-MAJR-E
100
AcDbPolyline
90
10
70
0
43
0
38
0
39
0
10
1340263.4750003642
20
440117.4674593552
10
1340263.651181114
20
440123.2417260181
10
1340263.7814301983
20
440129.21513928653
10
1340265.0688292037
20
440136.4415027696
10
1340266.5606241198
20
440139.5113785266
10
1340269.8102895294
20
440145.3102514435
10
1340271.6436192035
20
440149.2705453579
10
1340273.5570012014
20
440150.2485617723
10
1340281.919845367
20
440150.15079293394
10
1340283.449041783
20
440150.27972968185
0
LWPOLYLINE
5
3D
330
C
100
AcDbEntity
8
C-TOPO-MAJR-E
100
AcDbPolyline
90
13
70
0
43
0
38
0
39
0
10
1340368.6296457045
20
440209.85539793957
10
1340368.7461152787
20
440204.20777144824
10
1340369.5092371225
20
440201.30095312424
10
1340373.0961722007
20
440194.5266884429
10
1340371.1178297072
20
440186.59494577534
10
1340364.3392999452
20
440184.7524297795
10
1340363.5768342877
20
440185.15334760095
10
1340355.3521131962
20
440196.1907271061
10
1340353.887877279
20
440203.7363156986
10
1340357.5381324564
20
440210.3596620341
10
1340359.9567627897
20
440213.12015519856
10
1340364.1158751932
20
440215.6322892677
10
1340368.6296457045
20
440209.85539793957
0
LWPOLYLINE
5
3E
330
C
100
AcDbEntity
8
C-TOPO-MAJR-E
100
AcDbPolyline
90
6
70
0
43
0
38
0
39
0
10
1340286.5907677854
20
440147.32041801594
10
1340287.869964706
20
440144.37751053466
10
1340292.0284209526
20
440135.76794769685
10
1340293.8105696102
20
440129.5825926037
10
1340294.5159487836
20
440127.09276819084
10
1340298.9388402065
20
440120.3719811089
0
LWPOLYLINE
5
3F
330
C
100
AcDbEntity
8
C-TOPO-MAJR-E
100
AcDbPolyline
90
3
70
0
43
0
38
0
39
0
10
1340242.0400038639
20
440217.3517740209
10
1340236.7394895356
20
440219.28713760735
10
1340234.1574736978
20
440220.0292621086
0
LWPOLYLINE
5
40
330
C
100
AcDbEntity
8
C-TOPO-MAJR-E
100
AcDbPolyline
90
28
70
0
43
0
38
0
39
0
10
1340229.1404233687
20
440120.4667971992
10
1340234.7322757079
20
440125.3168530963
10
1340236.1955273715
20
440127.0360097667
10
1340238.5222943674
20
440130.06749977777
10
1340244.9376358683
20
440135.7272653593
10
1340247.206004037
20
440139.77023627993
10
1340250.7657082065
20
440149.14849835436
10
1340252.0101282876
20
440154.28070593986
10
1340252.9464781072
20
440158.0874568615
10
1340261.9533498676
20
440164.1648725319
10
1340264.0225714566
20
440165.2344241844
10
1340266.3391678757
20
440165.86106336216
10
1340274.4592303592
20
440164.66191876866
10
1340283.2551445346
20
440161.20326427737
10
1340291.0943676946
20
440155.58647759754
10
1340293.506436377
20
440153.60813511244
10
1340297.6891707957
20
440151.0713947862
10
1340302.5874549572
20
440148.49101936514
10
1340305.9276713696
20
440145.6649095263
10
1340308.4391492833
20
440142.4086824531
10
1340312.8023295384
20
440137.12982160697
10
1340319.7695071956
20
440132.62687785836
10
1340322.1340037873
20
440130.4579189351
10
1340324.5089990315
20
440127.9674383689
10
1340328.9023629571
20
440124.65150010213
10
1340329.4328737108
20
440124.25419119425
10
1340332.5463845413
20
440121.2948795253
10
1340337.725508033
20
440114.9435142603
0
LWPOLYLINE
5
41
330
C
100
AcDbEntity
8
C-SITE-N
100
AcDbPolyline
90
13
70
1
43
0
38
0
39
0
10
1340289.3548697804
20
440192.4537993262
10
1340298.1116587378
20
440185.6057995983
10
1340303.2028411748
20
440179.691728633
10
1340305.6432634485
20
440172.27952834446
10
1340305.0924415619
20
440164.9128751068
10
1340325.1047624836
20
440149.2626073236
10
1340413.9246947719
20
440165.73577111436
10
1340404.9848614375
20
440213.91115492064
10
1340368.9403567482
20
440207.22228889196
10
1340368.940335798
20
440207.22228916147
10
1340368.9403163397
20
440207.2222813934
10
1340299.486068959
20
440194.33385759324
10
1340289.3548697804
20
440192.4537993262
0
LWPOLYLINE
5
42
330
C
100
AcDbEntity
8
C-BLDG-FTPR-N
100
AcDbPolyline
90
5
70
1
43
0
38
0
39
0
10
1340410.8619300507
20
440176.75969329337
10
1340404.0367199637
20
440213.5396983798
10
1340315.7577728562
20
440197.15790727164
10
1340322.5829829432
20
440160.3779021852
10
1340410.8619300507
20
440176.75969329337
0
LWPOLYLINE
5
43
330
C
100
AcDbEntity
8
C-PVMT
100
AcDbPolyline
90
5
70
1
43
0
38
0
39
0
10
1340434.107622722
20
440193.9942033225
10
1340431.9181792233
20
440205.79277684505
10
1340406.3546032577
20
440201.0489825978
10
1340408.5440467566
20
440189.25040907523
10
1340434.107622722
20
440193.9942033225
0
LWPOLYLINE
5
44
330
C
100
AcDbEntity
8
C-PVMT
100
AcDbPolyline
90
5
70
1
43
0
38
0
39
0
10
1340406.775264152
20
440196.0416834843
10
1340411.6913364532
20
440196.9539516088
10
1340409.9032909293
20
440206.58945331885
10
1340404.9872186282
20
440205.67718519433
10
1340406.775264152
20
440196.0416834843
0
LWPOLYLINE
5
45
330
C
100
AcDbEntity
8
C-PVMT
100
AcDbPolyline
90
5
70
1
43
0
38
0
39
0
10
1340412.1119973478
20
440191.94665249524
10
1340410.6523683486
20
440199.81236817694
10
1340406.7195105078
20
440199.0825536774
10
1340408.179139507
20
440191.2168379957
10
1340412.1119973478
20
440191.94665249524
0
LWPOLYLINE
5
46
330
C
100
AcDbEntity
8
C-PVMT
100
AcDbPolyline
90
5
70
1
43
0
38
0
39
0
10
1340439.9651329496
20
440162.4289836124
10
1340428.105576616
20
440226.3383046008
10
1340425.1559332353
20
440225.7909437261
10
1340437.015489569
20
440161.8816227377
10
1340439.9651329496
20
440162.4289836124
0
LWPOLYLINE
5
47
330
C
100
AcDbEntity
8
C-TOPO-SURF
100
AcDbPolyline
90
5
70
1
43
0
38
0
39
0
10
1340443.8979907904
20
440163.15879811195
10
1340432.0384344568
20
440227.06811910035
10
1340428.105576616
20
440226.3383046008
10
1340439.9651329496
20
440162.4289836124
10
1340443.8979907904
20
440163.15879811195
0
LWPOLYLINE
5
48
330
C
100
AcDbEntity
8
C-PVMT
100
AcDbPolyline
90
5
70
1
43
0
38
0
39
0
10
1340445.372812481
20
440163.4324785493
10
1340433.5132561473
20
440227.3417995377
10
1340432.0384344568
20
440227.06811910035
10
1340443.8979907904
20
440163.15879811195
10
1340445.372812481
20
440163.4324785493
0
LWPOLYLINE
5
49
330
C
100
AcDbEntity
8
C-PVMT
100
AcDbPolyline
90
5
70
1
43
0
38
0
39
0
10
1340436.7784978796
20
440209.74591516255
10
1340440.062663128
20
440192.0480548788
10
1340431.1579793412
20
440193.4468424478
10
1340428.9685358424
20
440205.2454159703
10
1340436.7784978796
20
440209.74591516255
0
LWPOLYLINE
5
4A
330
C
100
AcDbEntity
8
C-LODS
100
AcDbPolyline
90
10
70
1
43
0
38
0
39
0
10
1340315.7577728562
20
440197.15790727164
10
1340322.5829829432
20
440160.3779021852
10
1340437.015489569
20
440161.8816227377
10
1340445.372812481
20
440163.4324785493
10
1340440.062663128
20
440192.0480548788
10
1340433.5132561473
20
440227.3417995377
10
1340432.0384344568
20
440227.06811910035
10
1340428.105576616
20
440226.3383046008
10
1340425.1559332353
20
440225.7909437261
10
1340315.7577728562
20
440197.15790727164
0
LWPOLYLINE
5
4B
330
C
100
AcDbEntity
8
C-SITE-N
100
AcDbPolyline
90
8
70
1
43
0
38
0
39
0
10
1340423.5565945467
20
440224.263030611
10
1340435.2345471005
20
440164.048106067
10
1340325.5460609847
20
440145.0525964843
10
1340290.538039227
20
440171.4221328912
10
1340259.704939313
20
440194.05809684633
10
1340302.945252786
20
440201.3021965044
10
1340364.8319923559
20
440210.84720203915
10
1340423.5565945467
20
440224.263030611
0
POINT
5
4C
330
C
100
AcDbEntity
8
C-TOPO-SPOT
100
AcDbPoint
10
1340353.149771804
20
440192.14299898257
30
0
0
LWPOLYLINE
5
4D
330
C
100
AcDbEntity
8
C-UTIL
100
AcDbPolyline
90
2
70
0
43
0
38
0
39
0
10
1340473.090895485
20
440191.3586448933
10
1340410.314569176
20
440179.709336674
0
LWPOLYLINE
5
4E
330
C
100
AcDbEntity
8
C-UTIL
100
AcDbPolyline
90
2
70
0
43
0
38
0
39
0
10
1340471.2663592359
20
440201.1907894953
10
1340408.4900329271
20
440189.5414812761
0
LWPOLYLINE
5
4F
330
C
100
AcDbEntity
8
C-SWMG
100
AcDbPolyline
90
5
70
1
43
0
38
0
39
0
10
1340290.2181152904
20
440169.1487673587
10
1340311.525391043
20
440169.1487673587
10
1340311.525391043
20
440190.45604311134
10
1340290.2181152904
20
440190.45604311134
10
1340290.2181152904
20
440169.1487673587
0
LWPOLYLINE
5
50
330
C
100
AcDbEntity
8
C-STRM-AREA
100
AcDbPolyline
90
8
70
1
43
0
38
0
39
0
10
1340428.105576616
20
440226.3383046008
10
1340439.9651329496
20
440162.4289836124
10
1340323.017532198
20
440140.7390663552
10
1340285.7912286946
20
440169.8512128519
10
1340254.7059890358
20
440194.16054744466
10
1340298.0264404528
20
440202.1995733663
10
1340367.4806978686
20
440215.08799902874
10
1340428.105576616
20
440226.3383046008
0
LWPOLYLINE
5
51
330
C
100
AcDbEntity
8
C-SITE-N
100
AcDbPolyline
90
5
70
1
43
0
38
0
39
0
10
1340315.7577728562
20
440181.15790727164
10
1340345.7577728562
20
440181.15790727164
10
1340345.7577728562
20
440197.15790727164
10
1340315.7577728562
20
440197.15790727164
10
1340315.7577728562
20
440181.15790727164
0
LWPOLYLINE
5
52
330
C
100
AcDbEntity
8
L-PLNT-TREE
100
AcDbPolyline
90
5
70
1
43
0
38
0
39
0
10
1340433.951427084
20
440190.295912231
10
1340443.951427084
20
440190.295912231
10
1340443.951427084
20
440200.295912231
10
1340433.951427084
20
440200.295912231
10
1340433.951427084
20
440190.295912231
0
LWPOLYLINE
5
53
330
C
100
AcDbEntity
8
L-PLNT-TREE
100
AcDbPolyline
90
5
70
1
43
0
38
0
39
0
10
1340413.3704877382
20
440205.7947612588
10
1340425.3704877382
20
440205.7947612588
10
1340425.3704877382
20
440217.7947612588
10
1340413.3704877382
20
440217.7947612588
10
1340413.3704877382
20
440205.7947612588
0
ENDSEC
0
SECTION
2
OBJECTS
0
DICTIONARY
5
A
330
0
100
AcDbDictionary
281
1
3
ACAD_GROUP
350
B
0
DICTIONARY
5
B
330
A
100
AcDbDictionary
281
0
0
ENDSEC
0
EOF