0
SECTION
2
HEADER
9
$ACADVER
1
AC1021
9
$LASTSAVEDBY
1
@tarikjabiri/dxf
9
$HANDSEED
5
44
9
$INSUNITS
70
0
9
$CLAYER
8
0
9
$VIEWCTR
10
1267366.4460000023
20
543179.6473996874
0
ENDSEC
0
SECTION
2
CLASSES
0
ENDSEC
0
SECTION
2
TABLES
0
TABLE
2
VPORT
5
1
330
0
100
AcDbSymbolTable
70
1
0
VPORT
5
19
330
1
100
AcDbSymbolTableRecord
100
AcDbViewportTableRecord
2
*Active
70
0
10
0
20
0
11
1
21
1
12
1267366.4460000023
22
543179.6473996874
13
0
23
0
14
10
24
10
15
10
25
10
16
0
26
0
36
1
17
0
27
0
37
0
40
337.14079936093185
41
2
42
50
43
0
44
0
50
0
51
0
71
0
72
100
73
1
74
3
75
0
76
1
77
0
78
0
281
0
65
1
110
0
120
0
130
0
111
1
121
0
131
0
112
0
122
1
132
0
79
0
146
0
348
10020
60
7
61
5
292
1
282
1
141
0
142
0
63
250
421
3358443
0
ENDTAB
0
TABLE
2
LTYPE
5
2
330
0
100
AcDbSymbolTable
70
7
0
LTYPE
5
12
330
2
100
AcDbSymbolTableRecord
100
AcDbLinetypeTableRecord
2
ByBlock
70
0
3

72
65
73
0
40
0
0
LTYPE
5
13
330
2
100
AcDbSymbolTableRecord
100
AcDbLinetypeTableRecord
2
ByLayer
70
0
3

72
65
73
0
40
0
0
LTYPE
5
14
330
2
100
AcDbSymbolTableRecord
100
AcDbLinetypeTableRecord
2
Continuous
70
0
3
Solid line
72
65
73
0
40
0
0
LTYPE
5
1A
330
2
100
AcDbSymbolTableRecord
100
AcDbLinetypeTableRecord
2
DASHED
70
0
3
Dashed __ __ __ __ __ __
72
65
73
2
40
6
49
4
74
0
49
-2
74
0
0
LTYPE
5
1B
330
2
100
AcDbSymbolTableRecord
100
AcDbLinetypeTableRecord
2
HIDDEN
70
0
3
Hidden __ __ __ __ __
72
65
73
2
40
3
49
2
74
0
49
-1
74
0
0
LTYPE
5
1C
330
2
100
AcDbSymbolTableRecord
100
AcDbLinetypeTableRecord
2
PHANTOM
70
0
3
Phantom ____ _ _ ____ _ _
72
65
73
6
40
13
49
8
74
0
49
-1
74
0
49
1
74
0
49
-1
74
0
49
1
74
0
49
-1
74
0
0
LTYPE
5
1D
330
2
100
AcDbSymbolTableRecord
100
AcDbLinetypeTableRecord
2
DASHDOT
70
0
3
Dash dot __ . __ . __ .
72
65
73
4
40
8
49
4
74
0
49
-2
74
0
49
0
74
0
49
-2
74
0
0
ENDTAB
0
TABLE
2
LAYER
5
3
330
0
100
AcDbSymbolTable
70
9
0
LAYER
5
15
330
3
100
AcDbSymbolTableRecord
100
AcDbLayerTableRecord
2
0
70
0
62
7
6
Continuous
370
0
390
0
0
LAYER
5
1E
330
3
100
AcDbSymbolTableRecord
100
AcDbLayerTableRecord
2
C-SITE-N
70
0
62
6
6
Continuous
370
0
390
0
0
LAYER
5
1F
330
3
100
AcDbSymbolTableRecord
100
AcDbLayerTableRecord
2
C-STRM-AREA
70
0
62
150
6
PHANTOM
370
0
390
0
0
LAYER
5
20
330
3
100
AcDbSymbolTableRecord
100
AcDbLayerTableRecord
2
C-SWMG
70
0
62
92
6
Continuous
370
0
390
0
0
LAYER
5
21
330
3
100
AcDbSymbolTableRecord
100
AcDbLayerTableRecord
2
C-TOPO-MAJR-E
70
0
62
32
6
DASHED
370
0
390
0
0
LAYER
5
22
330
3
100
AcDbSymbolTableRecord
100
AcDbLayerTableRecord
2
C-TOPO-SPOT
70
0
62
7
6
Continuous
370
0
390
0
0
LAYER
5
23
330
3
100
AcDbSymbolTableRecord
100
AcDbLayerTableRecord
2
L-PLNT-TREE
70
0
62
90
6
Continuous
370
0
390
0
0
LAYER
5
24
330
3
100
AcDbSymbolTableRecord
100
AcDbLayerTableRecord
2
V-PROP-BNDY
70
0
62
7
6
Continuous
370
0
390
0
0
LAYER
5
25
330
3
100
AcDbSymbolTableRecord
100
AcDbLayerTableRecord
2
C-ANNO-NPLT
70
0
62
250
6
Continuous
370
0
390
0
0
ENDTAB
0
TABLE
2
STYLE
5
4
330
0
100
AcDbSymbolTable
70
1
0
STYLE
5
16
330
4
100
AcDbSymbolTableRecord
100
AcDbTextStyleTableRecord
2
Standard
70
0
40
0
41
1
50
0
71
0
42
1
3
txt
4

0
ENDTAB
0
TABLE
2
VIEW
5
5
330
0
100
AcDbSymbolTable
70
0
0
ENDTAB
0
TABLE
2
UCS
5
6
330
0
100
AcDbSymbolTable
70
0
0
ENDTAB
0
TABLE
2
APPID
5
7
330
0
100
AcDbSymbolTable
70
1
0
APPID
5
17
330
7
100
AcDbSymbolTableRecord
100
AcDbRegAppTableRecord
2
ACAD
70
0
0
ENDTAB
0
TABLE
2
DIMSTYLE
5
8
330
0
100
AcDbSymbolTable
70
1
100
AcDbDimStyleTable
0
DIMSTYLE
105
18
330
8
100
AcDbSymbolTableRecord
100
AcDbDimStyleTableRecord
2
Standard
70
0
340
16
0
ENDTAB
0
TABLE
2
BLOCK_RECORD
5
9
330
0
100
AcDbSymbolTable
70
2
0
BLOCK_RECORD
5
C
330
9
100
AcDbSymbolTableRecord
100
AcDbBlockTableRecord
2
*Model_Space
70
0
280
1
281
0
0
BLOCK_RECORD
5
F
330
9
100
AcDbSymbolTableRecord
100
AcDbBlockTableRecord
2
*Paper_Space
70
0
280
1
281
0
0
ENDTAB
0
ENDSEC
0
SECTION
2
BLOCKS
0
BLOCK
5
D
330
C
100
AcDbEntity
8
0
100
AcDbBlockBegin
2
*Model_Space
70
0
10
0
20
0
30
0
3
*Model_Space
1

0
ENDBLK
5
E
100
AcDbEntity
8
0
100
AcDbBlockEnd
0
BLOCK
5
10
330
F
100
AcDbEntity
8
0
100
AcDbBlockBegin
2
*Paper_Space
70
0
10
0
20
0
30
0
3
*Paper_Space
1

0
ENDBLK
5
11
100
AcDbEntity
8
0
100
AcDbBlockEnd
0
ENDSEC
0
SECTION
2
ENTITIES
0
TEXT
5
26
330
C
100
AcDbEntity
8
C-ANNO-NPLT
100
AcDbText
10
1267321.1875
20
543131.077000007
30
0
40
2.5
1
PRELIMINARY - NOT SEALED - NOT FOR CONSTRUCTION OR PERMIT SUBMISSION
7
STANDARD
100
AcDbText
0
TEXT
5
27
330
C
100
AcDbEntity
8
C-ANNO-NPLT
100
AcDbText
10
1267321.1875
20
543127.077000007
30
0
40
2.5
1
GENERATED 2026-09-26T02:44:22.416Z BY KEALEE SITE PLAN ENGINE
7
STANDARD
100
AcDbText
0
TEXT
5
28
330
C
100
AcDbEntity
8
C-ANNO-NPLT
100
AcDbText
10
1267321.1875
20
543123.077000007
30
0
40
2.5
1
HORIZONTAL: EPSG:2248
7
STANDARD
100
AcDbText
0
TEXT
5
29
330
C
100
AcDbEntity
8
C-ANNO-NPLT
100
AcDbText
10
1267321.1875
20
543119.077000007
30
0
40
2.5
1
VERTICAL: NAVD88 (feet)
7
STANDARD
100
AcDbText
0
TEXT
5
2A
330
C
100
AcDbEntity
8
C-ANNO-NPLT
100
AcDbText
10
1267321.1875
20
543115.077000007
30
0
40
2.5
1
SOURCES: Parcel boundary — jurisdiction gis (M-NCPPC Montgomery Planning — parcels (SDAT) — Lot P2, Block 13, subdivision 0001, level 1); Existing contours (M-NCPPC Montgomery Planning — backgrounds/Contours_2ft/MapServer/1 — Contours (2-ft, 2023), level 1)
7
STANDARD
100
AcDbText
0
TEXT
5
2B
330
C
100
AcDbEntity
8
C-ANNO-NPLT
100
AcDbText
10
1267321.1875
20
543111.077000007
30
0
40
2.5
1
THIS FILE IS DATA FOR A LICENSED PROFESSIONAL. IT IS NOT A SEALED DRAWING.
7
STANDARD
100
AcDbText
0
LWPOLYLINE
5
2C
330
C
100
AcDbEntity
8
V-PROP-BNDY
100
AcDbPolyline
90
6
70
1
43
0
38
0
39
0
10
1267393.4303233027
20
543310.5255148709
10
1267485.3217798322
20
543234.845031634
10
1267431.6893341243
20
543172.6744068116
10
1267388.0345197022
20
543210.4257536978
10
1267341.9163570553
20
543250.3105743229
10
1267393.4303233027
20
543310.5255148709
0
LWPOLYLINE
5
2D
330
C
100
AcDbEntity
8
C-TOPO-MAJR-E
100
AcDbPolyline
90
5
70
0
43
0
38
0
39
0
10
1267408.3694999963
20
543286.1064999998
10
1267410.7129999995
20
543281.8585000038
10
1267412.1554999948
20
543279.0160000026
10
1267413.2804999948
20
543275.8844999969
10
1267413.0900000036
20
543275.3704999983
0
LWPOLYLINE
5
2E
330
C
100
AcDbEntity
8
C-TOPO-MAJR-E
100
AcDbPolyline
90
2
70
0
43
0
38
0
39
0
10
1267426.6899999976
20
543187.6844999939
10
1267427.2300000042
20
543184.9329999983
0
LWPOLYLINE
5
2F
330
C
100
AcDbEntity
8
C-TOPO-MAJR-E
100
AcDbPolyline
90
4
70
0
43
0
38
0
39
0
10
1267511.7045000046
20
543333.2894999981
10
1267505.2925000042
20
543321.5370000005
10
1267505.263500005
20
543319.0925000012
10
1267505.7970000058
20
543318.5285000056
0
LWPOLYLINE
5
30
330
C
100
AcDbEntity
8
C-TOPO-MAJR-E
100
AcDbPolyline
90
10
70
0
43
0
38
0
39
0
10
1267427.6714999974
20
543182.6819999963
10
1267425.4845000058
20
543181.1420000046
10
1267423.3474999964
20
543182.0330000073
10
1267422.660500005
20
543182.6570000052
10
1267421.388500005
20
543185.1204999983
10
1267420.9099999964
20
543185.9714999944
10
1267420.7160000056
20
543187.3235000074
10
1267424.4839999974
20
543189.6909999996
10
1267426.4039999992
20
543189.1420000046
10
1267426.6899999976
20
543187.6844999939
0
LWPOLYLINE
5
31
330
C
100
AcDbEntity
8
C-TOPO-MAJR-E
100
AcDbPolyline
90
14
70
0
43
0
38
0
39
0
10
1267384.537499994
20
543252.9740000069
10
1267382.1585000008
20
543255.2650000006
10
1267377.637500003
20
543258.9290000051
10
1267366.9189999998
20
543260.9740000069
10
1267364.7460000068
20
543261.9535000026
10
1267363.8630000055
20
543262.9724999964
10
1267363.4424999952
20
543264.7060000002
10
1267364.660500005
20
543267.0314999968
10
1267372.6175000072
20
543272.4284999967
10
1267378.0059999973
20
543278.1054999977
10
1267382.8455000073
20
543281.8040000051
10
1267397.184499994
20
543287.0814999938
10
1267401.935499996
20
543288.3365000039
10
1267408.3694999963
20
543286.1064999998
0
LWPOLYLINE
5
32
330
C
100
AcDbEntity
8
C-TOPO-MAJR-E
100
AcDbPolyline
90
8
70
0
43
0
38
0
39
0
10
1267413.0900000036
20
543275.3704999983
10
1267411.3040000051
20
543270.5540000051
10
1267402.9720000029
20
543260.3379999995
10
1267394.435499996
20
543253.6509999931
10
1267390.3330000043
20
543251.3764999956
10
1267388.3184999973
20
543251.2629999965
10
1267384.9814999998
20
543252.5460000038
10
1267384.537499994
20
543252.9740000069
0
LWPOLYLINE
5
33
330
C
100
AcDbEntity
8
C-TOPO-MAJR-E
100
AcDbPolyline
90
2
70
0
43
0
38
0
39
0
10
1267427.2300000042
20
543184.9329999983
10
1267427.6714999974
20
543182.6819999963
0
LWPOLYLINE
5
34
330
C
100
AcDbEntity
8
C-TOPO-MAJR-E
100
AcDbPolyline
90
63
70
0
43
0
38
0
39
0
10
1267484.788499996
20
543303.7629999965
10
1267484.7695000023
20
543303.5960000008
10
1267477.8579999954
20
543285.1019999981
10
1267477.0170000046
20
543282.7164999992
10
1267476.451000005
20
543281.2074999958
10
1267475.1539999992
20
543279.4845000058
10
1267465.4985000044
20
543269.8040000051
10
1267462.9360000044
20
543267.9185000062
10
1267458.3314999938
20
543265.9475000054
10
1267449.4609999955
20
543261.8935000002
10
1267446.5474999994
20
543258.1264999956
10
1267439.1200000048
20
543247.2779999971
10
1267434.9430000037
20
543242.7160000056
10
1267434.7300000042
20
543242.1360000074
10
1267438.1819999963
20
543229.7610000074
10
1267437.6669999957
20
543226.4619999975
10
1267431.012500003
20
543216.8575000018
10
1267426.5620000064
20
543210.2335000038
10
1267421.3235000074
20
543206.247999996
10
1267403.9845000058
20
543201.7160000056
10
1267397.9274999946
20
543200.1599999964
10
1267394.224999994
20
543201.2680000067
10
1267391.6949999928
20
543202.7929999977
10
1267389.5265000015
20
543204.4179999977
10
1267387.2475000024
20
543206.4329999983
10
1267386.9335000068
20
543206.7294999957
10
1267385.8379999995
20
543208.0585000068
10
1267385.5234999955
20
543208.9414999932
10
1267384.434499994
20
543214.014500007
10
1267378.8809999973
20
543218.1054999977
10
1267372.4504999965
20
543218.9220000058
10
1267370.489500001
20
543218.8684999943
10
1267366.0834999979
20
543220.0454999954
10
1267359.6724999994
20
543225.3530000001
10
1267356.175999999
20
543229.7919999957
10
1267355.862499997
20
543230.1564999968
10
1267349.821999997
20
543235.525000006
10
1267344.1685000062
20
543241.862499997
10
1267343.3994999975
20
543244.3449999988
10
1267344.3824999928
20
543249.5840000063
10
1267347.0164999962
20
543257.3480000049
10
1267347.0715000033
20
543263.1340000033
10
1267343.1245000064
20
543269.0575000048
10
1267332.898000002
20
543277.8639999926
10
1267331.6815000027
20
543278.7160000056
10
1267330.0600000024
20
543281.3819999993
10
1267330.9379999936
20
543283.0955000073
10
1267331.4274999946
20
543283.5345000029
10
1267332.827000007
20
543284.700000003
10
1267335.3209999949
20
543287.626000002
10
1267341.1975000054
20
543296.2835000008
10
1267341.848000005
20
543297.5575000048
10
1267343.827000007
20
543301.5974999964
10
1267347.9159999937
20
543308.2769999951
10
1267349.5540000051
20
543310.9344999939
10
1267351.1324999928
20
543313.349999994
10
1267352.5744999945
20
543315.5680000037
10
1267354.827000007
20
543319.9689999968
10
1267356.5069999993
20
543323.7045000046
10
1267358.4350000024
20
543327.0460000038
10
1267359.9679999948
20
543328.8149999976
10
1267361.460500002
20
543330.2604999989
10
1267368.7349999994
20
543337.2925000042
0
LWPOLYLINE
5
35
330
C
100
AcDbEntity
8
C-TOPO-MAJR-E
100
AcDbPolyline
90
6
70
0
43
0
38
0
39
0
10
1267497.6755000055
20
543159.2179999948
10
1267495.4829999954
20
543158.0514999926
10
1267492.5150000006
20
543157.3704999983
10
1267482.9825000018
20
543159.6424999982
10
1267482.3075000048
20
543163.3155000061
10
1267486.4880000055
20
543169.3579999954
0
LWPOLYLINE
5
36
330
C
100
AcDbEntity
8
C-TOPO-MAJR-E
100
AcDbPolyline
90
2
70
0
43
0
38
0
39
0
10
1267484.9375
20
543305.063500002
10
1267484.788499996
20
543303.7629999965
0
LWPOLYLINE
5
37
330
C
100
AcDbEntity
8
C-TOPO-MAJR-E
100
AcDbPolyline
90
3
70
0
43
0
38
0
39
0
10
1267486.4880000055
20
543169.3579999954
10
1267487.387500003
20
543170.6585000008
10
1267490.5699999928
20
543172.0754999965
0
LWPOLYLINE
5
38
330
C
100
AcDbEntity
8
C-TOPO-MAJR-E
100
AcDbPolyline
90
18
70
0
43
0
38
0
39
0
10
1267409.0540000051
20
543151.077000007
10
1267408.436499998
20
543154.7090000063
10
1267407.5285000056
20
543158.4465000033
10
1267404.2160000056
20
543162.4370000064
10
1267395.4675000012
20
543169.0004999936
10
1267388.1704999954
20
543174.4605000019
10
1267385.128000006
20
543175.7870000005
10
1267378.4085000008
20
543178.3585000038
10
1267372.7925000042
20
543184.377000004
10
1267364.362499997
20
543192.9150000066
10
1267355.2399999946
20
543201.5174999982
10
1267348.6550000012
20
543207.1850000024
10
1267338.739500001
20
543212.9790000021
10
1267329.9350000024
20
543220.1944999993
10
1267326.0444999933
20
543228.0524999946
10
1267324.362499997
20
543231.2224999964
10
1267322.6264999956
20
543232.75
10
1267321.1875
20
543233.9714999944
0
LWPOLYLINE
5
39
330
C
100
AcDbEntity
8
C-TOPO-MAJR-E
100
AcDbPolyline
90
8
70
0
43
0
38
0
39
0
10
1267470.4660000056
20
543334.3955000043
10
1267475.364500001
20
543330.2074999958
10
1267477.4915000051
20
543327.262500003
10
1267478.1264999956
20
543325.4870000035
10
1267479.2559999973
20
543322.6210000068
10
1267483.1044999957
20
543317.7705000043
10
1267485.8125
20
543312.702000007
10
1267484.9375
20
543305.063500002
0
LWPOLYLINE
5
3A
330
C
100
AcDbEntity
8
C-TOPO-MAJR-E
100
AcDbPolyline
90
8
70
0
43
0
38
0
39
0
10
1267490.5699999928
20
543172.0754999965
10
1267497.246999994
20
543171.0945000052
10
1267499.136500001
20
543170.7134999931
10
1267504.1295000017
20
543167.9825000018
10
1267503.6689999998
20
543164.8965000063
10
1267501.8295000046
20
543162.4800000042
10
1267498.3620000035
20
543159.5830000043
10
1267497.6755000055
20
543159.2179999948
0
LWPOLYLINE
5
3B
330
C
100
AcDbEntity
8
C-SITE-N
100
AcDbPolyline
90
6
70
1
43
0
38
0
39
0
10
1267394.391605689
20
543305.6187913028
10
1267480.3907364225
20
543235.672564649
10
1267430.0592251243
20
543177.4012180674
10
1267390.1456274055
20
543214.9582170749
10
1267346.9136625926
20
543250.1464482571
10
1267394.391605689
20
543305.6187913028
0
POINT
5
3C
330
C
100
AcDbEntity
8
C-TOPO-SPOT
100
AcDbPoint
10
1267405.63710622
20
543248.217799368
30
0
0
LWPOLYLINE
5
3D
330
C
100
AcDbEntity
8
C-SWMG
100
AcDbPolyline
90
5
70
1
43
0
38
0
39
0
10
1267424.8972717302
20
543178.5817969752
10
1267431.9683395422
20
543178.5817969752
10
1267431.9683395422
20
543185.6528647871
10
1267424.8972717302
20
543185.6528647871
10
1267424.8972717302
20
543178.5817969752
0
LWPOLYLINE
5
3E
330
C
100
AcDbEntity
8
C-STRM-AREA
100
AcDbPolyline
90
6
70
1
43
0
38
0
39
0
10
1267393.4303233027
20
543310.5255148709
10
1267485.3217798322
20
543234.845031634
10
1267431.6893341243
20
543172.6744068116
10
1267388.0345197022
20
543210.4257536978
10
1267341.9163570553
20
543250.3105743229
10
1267393.4303233027
20
543310.5255148709
0
LWPOLYLINE
5
3F
330
C
100
AcDbEntity
8
L-PLNT-TREE
100
AcDbPolyline
90
5
70
1
43
0
38
0
39
0
10
1267367.45963836
20
543288.7042282871
10
1267377.45963836
20
543288.7042282871
10
1267377.45963836
20
543298.7042282871
10
1267367.45963836
20
543298.7042282871
10
1267367.45963836
20
543288.7042282871
0
LWPOLYLINE
5
40
330
C
100
AcDbEntity
8
L-PLNT-TREE
100
AcDbPolyline
90
5
70
1
43
0
38
0
39
0
10
1267350.2883162773
20
543268.6325814377
10
1267360.2883162773
20
543268.6325814377
10
1267360.2883162773
20
543278.6325814377
10
1267350.2883162773
20
543278.6325814377
10
1267350.2883162773
20
543268.6325814377
0
LWPOLYLINE
5
41
330
C
100
AcDbEntity
8
L-PLNT-TREE
100
AcDbPolyline
90
5
70
1
43
0
38
0
39
0
10
1267423.63710622
20
543242.217799368
10
1267435.63710622
20
543242.217799368
10
1267435.63710622
20
543254.217799368
10
1267423.63710622
20
543254.217799368
10
1267423.63710622
20
543242.217799368
0
LWPOLYLINE
5
42
330
C
100
AcDbEntity
8
L-PLNT-TREE
100
AcDbPolyline
90
5
70
1
43
0
38
0
39
0
10
1267399.63710622
20
543266.217799368
10
1267411.63710622
20
543266.217799368
10
1267411.63710622
20
543278.217799368
10
1267399.63710622
20
543278.217799368
10
1267399.63710622
20
543266.217799368
0
LWPOLYLINE
5
43
330
C
100
AcDbEntity
8
L-PLNT-TREE
100
AcDbPolyline
90
5
70
1
43
0
38
0
39
0
10
1267375.63710622
20
543242.217799368
10
1267387.63710622
20
543242.217799368
10
1267387.63710622
20
543254.217799368
10
1267375.63710622
20
543254.217799368
10
1267375.63710622
20
543242.217799368
0
ENDSEC
0
SECTION
2
OBJECTS
0
DICTIONARY
5
A
330
0
100
AcDbDictionary
281
1
3
ACAD_GROUP
350
B
0
DICTIONARY
5
B
330
A
100
AcDbDictionary
281
0
0
ENDSEC
0
EOF