0
SECTION
2
HEADER
9
$ACADVER
1
AC1021
9
$LASTSAVEDBY
1
@tarikjabiri/dxf
9
$HANDSEED
5
4F
9
$INSUNITS
70
0
9
$CLAYER
8
0
9
$VIEWCTR
10
1391996.6889407912
20
563184.3915377979
0
ENDSEC
0
SECTION
2
CLASSES
0
ENDSEC
0
SECTION
2
TABLES
0
TABLE
2
VPORT
5
1
330
0
100
AcDbSymbolTable
70
1
0
VPORT
5
19
330
1
100
AcDbSymbolTableRecord
100
AcDbViewportTableRecord
2
*Active
70
0
10
0
20
0
11
1
21
1
12
1391996.6889407912
22
563184.3915377979
13
0
23
0
14
10
24
10
15
10
25
10
16
0
26
0
36
1
17
0
27
0
37
0
40
332.5864868797362
41
2
42
50
43
0
44
0
50
0
51
0
71
0
72
100
73
1
74
3
75
0
76
1
77
0
78
0
281
0
65
1
110
0
120
0
130
0
111
1
121
0
131
0
112
0
122
1
132
0
79
0
146
0
348
10020
60
7
61
5
292
1
282
1
141
0
142
0
63
250
421
3358443
0
ENDTAB
0
TABLE
2
LTYPE
5
2
330
0
100
AcDbSymbolTable
70
7
0
LTYPE
5
12
330
2
100
AcDbSymbolTableRecord
100
AcDbLinetypeTableRecord
2
ByBlock
70
0
3

72
65
73
0
40
0
0
LTYPE
5
13
330
2
100
AcDbSymbolTableRecord
100
AcDbLinetypeTableRecord
2
ByLayer
70
0
3

72
65
73
0
40
0
0
LTYPE
5
14
330
2
100
AcDbSymbolTableRecord
100
AcDbLinetypeTableRecord
2
Continuous
70
0
3
Solid line
72
65
73
0
40
0
0
LTYPE
5
1A
330
2
100
AcDbSymbolTableRecord
100
AcDbLinetypeTableRecord
2
DASHED
70
0
3
Dashed __ __ __ __ __ __
72
65
73
2
40
6
49
4
74
0
49
-2
74
0
0
LTYPE
5
1B
330
2
100
AcDbSymbolTableRecord
100
AcDbLinetypeTableRecord
2
HIDDEN
70
0
3
Hidden __ __ __ __ __
72
65
73
2
40
3
49
2
74
0
49
-1
74
0
0
LTYPE
5
1C
330
2
100
AcDbSymbolTableRecord
100
AcDbLinetypeTableRecord
2
PHANTOM
70
0
3
Phantom ____ _ _ ____ _ _
72
65
73
6
40
13
49
8
74
0
49
-1
74
0
49
1
74
0
49
-1
74
0
49
1
74
0
49
-1
74
0
0
LTYPE
5
1D
330
2
100
AcDbSymbolTableRecord
100
AcDbLinetypeTableRecord
2
DASHDOT
70
0
3
Dash dot __ . __ . __ .
72
65
73
4
40
8
49
4
74
0
49
-2
74
0
49
0
74
0
49
-2
74
0
0
ENDTAB
0
TABLE
2
LAYER
5
3
330
0
100
AcDbSymbolTable
70
14
0
LAYER
5
15
330
3
100
AcDbSymbolTableRecord
100
AcDbLayerTableRecord
2
0
70
0
62
7
6
Continuous
370
0
390
0
0
LAYER
5
1E
330
3
100
AcDbSymbolTableRecord
100
AcDbLayerTableRecord
2
C-BLDG-FTPR-N
70
0
62
6
6
Continuous
370
0
390
0
0
LAYER
5
1F
330
3
100
AcDbSymbolTableRecord
100
AcDbLayerTableRecord
2
C-LODS
70
0
62
30
6
PHANTOM
370
0
390
0
0
LAYER
5
20
330
3
100
AcDbSymbolTableRecord
100
AcDbLayerTableRecord
2
C-PVMT
70
0
62
8
6
Continuous
370
0
390
0
0
LAYER
5
21
330
3
100
AcDbSymbolTableRecord
100
AcDbLayerTableRecord
2
C-SITE-N
70
0
62
6
6
Continuous
370
0
390
0
0
LAYER
5
22
330
3
100
AcDbSymbolTableRecord
100
AcDbLayerTableRecord
2
C-STRM-AREA
70
0
62
150
6
PHANTOM
370
0
390
0
0
LAYER
5
23
330
3
100
AcDbSymbolTableRecord
100
AcDbLayerTableRecord
2
C-SWMG
70
0
62
92
6
Continuous
370
0
390
0
0
LAYER
5
24
330
3
100
AcDbSymbolTableRecord
100
AcDbLayerTableRecord
2
C-TOPO-MAJR-E
70
0
62
32
6
DASHED
370
0
390
0
0
LAYER
5
25
330
3
100
AcDbSymbolTableRecord
100
AcDbLayerTableRecord
2
C-TOPO-SPOT
70
0
62
7
6
Continuous
370
0
390
0
0
LAYER
5
26
330
3
100
AcDbSymbolTableRecord
100
AcDbLayerTableRecord
2
C-TOPO-SURF
70
0
62
253
6
Continuous
370
0
390
0
0
LAYER
5
27
330
3
100
AcDbSymbolTableRecord
100
AcDbLayerTableRecord
2
C-UTIL
70
0
62
4
6
DASHED
370
0
390
0
0
LAYER
5
28
330
3
100
AcDbSymbolTableRecord
100
AcDbLayerTableRecord
2
L-PLNT-TREE
70
0
62
90
6
Continuous
370
0
390
0
0
LAYER
5
29
330
3
100
AcDbSymbolTableRecord
100
AcDbLayerTableRecord
2
V-PROP-BNDY
70
0
62
7
6
Continuous
370
0
390
0
0
LAYER
5
2A
330
3
100
AcDbSymbolTableRecord
100
AcDbLayerTableRecord
2
C-ANNO-NPLT
70
0
62
250
6
Continuous
370
0
390
0
0
ENDTAB
0
TABLE
2
STYLE
5
4
330
0
100
AcDbSymbolTable
70
1
0
STYLE
5
16
330
4
100
AcDbSymbolTableRecord
100
AcDbTextStyleTableRecord
2
Standard
70
0
40
0
41
1
50
0
71
0
42
1
3
txt
4

0
ENDTAB
0
TABLE
2
VIEW
5
5
330
0
100
AcDbSymbolTable
70
0
0
ENDTAB
0
TABLE
2
UCS
5
6
330
0
100
AcDbSymbolTable
70
0
0
ENDTAB
0
TABLE
2
APPID
5
7
330
0
100
AcDbSymbolTable
70
1
0
APPID
5
17
330
7
100
AcDbSymbolTableRecord
100
AcDbRegAppTableRecord
2
ACAD
70
0
0
ENDTAB
0
TABLE
2
DIMSTYLE
5
8
330
0
100
AcDbSymbolTable
70
1
100
AcDbDimStyleTable
0
DIMSTYLE
105
18
330
8
100
AcDbSymbolTableRecord
100
AcDbDimStyleTableRecord
2
Standard
70
0
340
16
0
ENDTAB
0
TABLE
2
BLOCK_RECORD
5
9
330
0
100
AcDbSymbolTable
70
2
0
BLOCK_RECORD
5
C
330
9
100
AcDbSymbolTableRecord
100
AcDbBlockTableRecord
2
*Model_Space
70
0
280
1
281
0
0
BLOCK_RECORD
5
F
330
9
100
AcDbSymbolTableRecord
100
AcDbBlockTableRecord
2
*Paper_Space
70
0
280
1
281
0
0
ENDTAB
0
ENDSEC
0
SECTION
2
BLOCKS
0
BLOCK
5
D
330
C
100
AcDbEntity
8
0
100
AcDbBlockBegin
2
*Model_Space
70
0
10
0
20
0
30
0
3
*Model_Space
1

0
ENDBLK
5
E
100
AcDbEntity
8
0
100
AcDbBlockEnd
0
BLOCK
5
10
330
F
100
AcDbEntity
8
0
100
AcDbBlockBegin
2
*Paper_Space
70
0
10
0
20
0
30
0
3
*Paper_Space
1

0
ENDBLK
5
11
100
AcDbEntity
8
0
100
AcDbBlockEnd
0
ENDSEC
0
SECTION
2
ENTITIES
0
TEXT
5
2B
330
C
100
AcDbEntity
8
C-ANNO-NPLT
100
AcDbText
10
1391943.8552652681
20
563138.098294358
30
0
40
2.5
1
PRELIMINARY - NOT SEALED - NOT FOR CONSTRUCTION OR PERMIT SUBMISSION
7
STANDARD
100
AcDbText
0
TEXT
5
2C
330
C
100
AcDbEntity
8
C-ANNO-NPLT
100
AcDbText
10
1391943.8552652681
20
563134.098294358
30
0
40
2.5
1
GENERATED 2026-09-26T02:45:31.461Z BY KEALEE SITE PLAN ENGINE
7
STANDARD
100
AcDbText
0
TEXT
5
2D
330
C
100
AcDbEntity
8
C-ANNO-NPLT
100
AcDbText
10
1391943.8552652681
20
563130.098294358
30
0
40
2.5
1
HORIZONTAL: EPSG:2248
7
STANDARD
100
AcDbText
0
TEXT
5
2E
330
C
100
AcDbEntity
8
C-ANNO-NPLT
100
AcDbText
10
1391943.8552652681
20
563126.098294358
30
0
40
2.5
1
VERTICAL: NAVD88 (feet)
7
STANDARD
100
AcDbText
0
TEXT
5
2F
330
C
100
AcDbEntity
8
C-ANNO-NPLT
100
AcDbText
10
1391943.8552652681
20
563122.098294358
30
0
40
2.5
1
SOURCES: Parcel boundary — jurisdiction gis (Maryland Department of Planning — MD iMAP parcel boundaries — Plat 17241, Lot 1, level 1); Existing contours (U.S. Geological Survey — 3D Elevation Program — 3DEP bare-earth DEM — VA_UpperMiddleNeck_2018_D18, level 1)
7
STANDARD
100
AcDbText
0
TEXT
5
30
330
C
100
AcDbEntity
8
C-ANNO-NPLT
100
AcDbText
10
1391943.8552652681
20
563118.098294358
30
0
40
2.5
1
THIS FILE IS DATA FOR A LICENSED PROFESSIONAL. IT IS NOT A SEALED DRAWING.
7
STANDARD
100
AcDbText
0
LWPOLYLINE
5
31
330
C
100
AcDbEntity
8
V-PROP-BNDY
100
AcDbPolyline
90
5
70
1
43
0
38
0
39
0
10
1392106.1202730683
20
563258.5239476461
10
1392033.8007999652
20
563178.3963597236
10
1391964.2209529628
20
563243.8651957331
10
1392037.350782506
20
563314.1144554393
10
1392106.1202730683
20
563258.5239476461
0
LWPOLYLINE
5
32
330
C
100
AcDbEntity
8
C-TOPO-MAJR-E
100
AcDbPolyline
90
47
70
0
43
0
38
0
39
0
10
1391943.9110778994
20
563327.4226065178
10
1391944.5820697197
20
563327.5326319858
10
1391945.2272300776
20
563327.632732146
10
1391945.7369318083
20
563327.7118701171
10
1391946.1111749122
20
563327.7700458996
10
1391946.349959389
20
563327.8072594929
10
1391946.4532852387
20
563327.8235108975
10
1391946.7179011782
20
563327.862366315
10
1391947.1438072068
20
563327.9238257452
10
1391947.731003325
20
563328.0078891886
10
1391948.4794895323
20
563328.114556645
10
1391949.22797574
20
563328.2318927778
10
1391949.976461948
20
563328.3598975873
10
1391950.7249481557
20
563328.4985710733
10
1391951.473434363
20
563328.6479132357
10
1391952.2219205708
20
563328.8001431645
10
1391952.9704067786
20
563328.9552608595
10
1391953.7188929864
20
563329.1132663207
10
1391954.4673791938
20
563329.2741595479
10
1391955.2158654016
20
563329.4408001696
10
1391955.9643516091
20
563329.6131881856
10
1391956.7128378167
20
563329.7913235959
10
1391957.4613240245
20
563329.9752064005
10
1391958.191238007
20
563330.145980792
10
1391958.9025797644
20
563330.3036467705
10
1391959.5953492967
20
563330.4482043359
10
1391960.2695466038
20
563330.5796534884
10
1391960.7937668094
20
563330.6817816969
10
1391961.168009913
20
563330.7545889617
10
1391961.3922759152
20
563330.7980752827
10
1391961.4665648157
20
563330.81224066
10
1391961.7094030431
20
563330.8576900956
10
1391962.120790597
20
563330.9344235896
10
1391962.7007274781
20
563331.042441142
10
1391963.449213686
20
563331.1817427528
10
1391964.1976998937
20
563331.353860984
10
1391964.9461861015
20
563331.5587958354
10
1391965.694672309
20
563331.7965473072
10
1391966.4431585164
20
563332.067115399
10
1391967.1334406708
20
563332.3511542499
10
1391967.765518772
20
563332.6486638598
10
1391968.3393928197
20
563332.9596442285
10
1391968.8550628142
20
563333.2840953562
10
1391969.3000193634
20
563333.570197599
10
1391969.6742624673
20
563333.8179509572
10
1391969.977792126
20
563334.0273554305
10
1391970.2106083392
20
563334.198411019
0
LWPOLYLINE
5
33
330
C
100
AcDbEntity
8
C-TOPO-MAJR-E
100
AcDbPolyline
90
44
70
0
43
0
38
0
39
0
10
1391943.9240894457
20
563260.1609895313
10
1391944.4267364214
20
563260.6094419213
10
1391944.968341247
20
563261.1321035973
10
1391945.4262652118
20
563261.5889556719
10
1391945.8005083157
20
563261.979998145
10
1391946.0910705584
20
563262.3052310166
10
1391946.2979519404
20
563262.564654287
10
1391946.5511687398
20
563262.8814874741
10
1391946.8507209565
20
563263.255730578
10
1391947.196608591
20
563263.6873835985
10
1391947.5888316426
20
563264.1764465359
10
1391947.9720647205
20
563264.6808985104
10
1391948.3463078244
20
563265.2007395218
10
1391948.7115609543
20
563265.7359695703
10
1391949.0678241104
20
563266.2865886559
10
1391949.3668008752
20
563266.7490197506
10
1391949.6084912491
20
563267.1232628545
10
1391949.7928952323
20
563267.4093179675
10
1391949.9200128242
20
563267.6071850895
10
1391950.0939329932
20
563267.9427069831
10
1391950.3146557398
20
563268.415883648
10
1391950.5821810632
20
563269.0267150842
10
1391950.8965089638
20
563269.7752012919
10
1391951.0560653238
20
563270.5236874996
10
1391951.0608501427
20
563271.2721737071
10
1391950.9108634212
20
563272.0206599149
10
1391950.606105159
20
563272.7691461225
10
1391950.3433646546
20
563273.3353867498
10
1391950.1226419085
20
563273.7193817967
10
1391949.94393692
20
563273.9211312631
10
1391949.8072496895
20
563273.9406351493
10
1391949.6811093925
20
563273.9503870923
10
1391949.5655160293
20
563273.9503870923
10
1391949.4604695993
20
563273.9406351493
10
1391949.3659701026
20
563273.9211312631
10
1391949.1315988023
20
563273.8615651681
10
1391948.7573556984
20
563273.7619368642
10
1391948.243240791
20
563273.6222463513
10
1391947.5892540799
20
563273.4424936296
10
1391946.9116424946
20
563273.2381845044
10
1391946.2104060352
20
563273.0093189757
10
1391945.4855447016
20
563272.7558970437
10
1391944.7370584942
20
563272.4779187083
10
1391943.9978255546
20
563272.1967461691
0
LWPOLYLINE
5
34
330
C
100
AcDbEntity
8
C-TOPO-MAJR-E
100
AcDbPolyline
90
73
70
0
43
0
38
0
39
0
10
1391944.1452964868
20
563318.6327713236
10
1391944.499274689
20
563318.7000819519
10
1391944.863385342
20
563318.7668560724
10
1391945.237628446
20
563318.8330936852
10
1391945.6220040005
20
563318.8987947901
10
1391946.0165120056
20
563318.9639593874
10
1391946.4995145614
20
563319.0367093105
10
1391947.0710116678
20
563319.1170445593
10
1391947.731003325
20
563319.204965134
10
1391948.4794895323
20
563319.3004710345
10
1391949.22797574
20
563319.4074622906
10
1391949.976461948
20
563319.5259389024
10
1391950.7249481557
20
563319.6559008698
10
1391951.473434363
20
563319.7973481929
10
1391952.2219205708
20
563319.9481967113
10
1391952.9704067786
20
563320.1084464251
10
1391953.7188929864
20
563320.2780973344
10
1391954.4673791938
20
563320.4571494391
10
1391955.2158654016
20
563320.6446763963
10
1391955.9643516091
20
563320.840678206
10
1391956.7128378167
20
563321.0451548679
10
1391957.4613240245
20
563321.2581063826
10
1391958.0999176365
20
563321.4314112103
10
1391958.6286186525
20
563321.5650693513
10
1391959.047427073
20
563321.6590808057
10
1391959.356342897
20
563321.7134455735
10
1391959.6979223613
20
563321.7710684288
10
1391960.0721654652
20
563321.8319493718
10
1391960.4790722087
20
563321.8960884025
10
1391960.918642592
20
563321.9634855209
10
1391961.4354419312
20
563322.0444654789
10
1391962.0294702265
20
563322.1390282765
10
1391962.7007274781
20
563322.2471739138
10
1391963.449213686
20
563322.3689023906
10
1391964.1976998937
20
563322.495477987
10
1391964.9461861015
20
563322.6269007027
10
1391965.694672309
20
563322.763170538
10
1391966.4431585164
20
563322.9042874929
10
1391967.191644724
20
563323.0659766174
10
1391967.9401309318
20
563323.2482379116
10
1391968.6886171396
20
563323.4510713757
10
1391969.4371033474
20
563323.6744770096
10
1391970.0971530345
20
563323.890740741
10
1391970.668766201
20
563324.0998625697
10
1391971.151942847
20
563324.301842496
10
1391971.5466829725
20
563324.49668052
10
1391971.9311745872
20
563324.6882198413
10
1391972.305417691
20
563324.8764604601
10
1391972.669412284
20
563325.0614023765
10
1391973.023158366
20
563325.2430455906
10
1391973.474248075
20
563325.5209887496
10
1391974.02268141
20
563325.8952318535
10
1391974.668458372
20
563326.3657749022
10
1391975.4115789603
20
563326.9326178957
10
1391975.9702608064
20
563327.3588902147
10
1391976.3445039103
20
563327.6445918591
10
1391976.534308272
20
563327.7897228288
10
1391976.5396738914
20
563327.7942831238
10
1391976.7124666646
20
563327.9836848231
10
1391977.0526865919
20
563328.357927927
10
1391977.5603336734
20
563328.9170124354
10
1391978.2354079094
20
563329.6609383479
10
1391978.760066579
20
563330.2416684509
10
1391979.134309683
20
563330.6592027443
10
1391979.3581372208
20
563330.9135412278
10
1391979.4315491926
20
563331.0046839016
10
1391979.6074164985
20
563331.2373767905
10
1391979.8857391383
20
563331.6116198943
10
1391980.266517112
20
563332.1274132131
10
1391980.749750419
20
563332.784756747
10
1391981.1784886247
20
563333.3725726757
10
1391981.5527317286
20
563333.8908609995
10
1391981.8724797308
20
563334.339621718
0
LWPOLYLINE
5
35
330
C
100
AcDbEntity
8
C-TOPO-MAJR-E
100
AcDbPolyline
90
272
70
0
43
0
38
0
39
0
10
1391943.8552652681
20
563230.8913174279
10
1391944.3925617123
20
563231.2281404505
10
1391944.9113833986
20
563231.5275433923
10
1391945.3579157935
20
563231.7848878568
10
1391945.7321588974
20
563232.0001738443
10
1391946.03411271
20
563232.1734013548
10
1391946.2637772313
20
563232.3045703885
10
1391946.6231471743
20
563232.5047239591
10
1391947.1122225388
20
563232.7738620668
10
1391947.731003325
20
563233.1119847116
10
1391948.4794895323
20
563233.5190918933
10
1391949.1213169987
20
563233.8769747778
10
1391949.6564857236
20
563234.1856333648
10
1391950.084995707
20
563234.4450676545
10
1391950.4068469494
20
563234.6552776468
10
1391950.7548941225
20
563234.9614831726
10
1391951.1291372264
20
563235.3636842316
10
1391951.529576261
20
563235.8618808244
10
1391951.9562112265
20
563236.4560729505
10
1391952.29023689
20
563236.9402905656
10
1391952.5316532515
20
563237.3145336693
10
1391952.6804603112
20
563237.578802262
10
1391952.7366580688
20
563237.7330963437
10
1391952.8169185035
20
563238.0359384568
10
1391952.9212416145
20
563238.4873286013
10
1391953.0496274028
20
563239.0872667774
10
1391953.202075868
20
563239.8357529851
10
1391953.4130690328
20
563240.5842391928
10
1391953.6826068978
20
563241.3327254003
10
1391954.010689463
20
563242.0812116081
10
1391954.3973167283
20
563242.8296978157
10
1391954.725590357
20
563243.4379564032
10
1391954.9955103497
20
563243.9059873704
10
1391955.207076706
20
563244.2337907174
10
1391955.3602894256
20
563244.4213664442
10
1391955.6316326503
20
563244.7022758594
10
1391956.02110638
20
563245.0765189633
10
1391956.5287106147
20
563245.5440957557
10
1391957.154445354
20
563246.1050062366
10
1391957.6544342756
20
563246.5554569988
10
1391958.0286773792
20
563246.8954480425
10
1391958.2771746654
20
563247.1249793677
10
1391958.3999261337
20
563247.2440509745
10
1391958.6404632232
20
563247.4907083297
10
1391958.9987859344
20
563247.8649514334
10
1391959.4748942666
20
563248.366780286
10
1391960.0687882202
20
563248.996194887
10
1391960.552856749
20
563249.5086577451
10
1391960.9270998528
20
563249.9041688598
10
1391961.1915175319
20
563250.1827282317
10
1391961.3461097856
20
563250.3443358601
10
1391961.5972469999
20
563250.6122612264
10
1391961.9449291737
20
563250.9865043303
10
1391962.389156308
20
563251.4670651718
10
1391962.9299284024
20
563252.0539437507
10
1391963.3874360016
20
563252.5483558236
10
1391963.7616791055
20
563252.9503013904
10
1391964.0526577139
20
563253.2597804511
10
1391964.2603718273
20
563253.4767930056
10
1391964.538109459
20
563253.7724208347
10
1391964.8858706092
20
563254.1466639385
10
1391965.3036552777
20
563254.5995223171
10
1391965.7914634645
20
563255.1309959702
10
1391966.22248911
20
563255.5884794018
10
1391966.5967322136
20
563255.971972612
10
1391966.914192776
20
563256.2814756006
10
1391967.1748707967
20
563256.5169883675
10
1391967.5160398914
20
563256.821866303
10
1391967.93770006
20
563257.1961094069
10
1391968.4398513022
20
563257.639717679
10
1391969.0224936185
20
563258.1526911197
10
1391969.5009363284
20
563258.5656467706
10
1391969.8751794323
20
563258.8785846317
10
1391970.14522293
20
563259.0915047032
10
1391970.3110668215
20
563259.2044069847
10
1391970.6206438434
20
563259.4479796775
10
1391971.0739539957
20
563259.8222227811
10
1391971.670997278
20
563260.3271362961
10
1391972.4117736907
20
563260.9627202223
10
1391972.969283449
20
563261.4409294907
10
1391973.3435265527
20
563261.7617641016
10
1391973.534503002
20
563261.9252240548
10
1391973.542212797
20
563261.9313093504
10
1391973.735116695
20
563262.1055624683
10
1391974.1132146965
20
563262.4479834086
10
1391974.676506801
20
563262.9585721712
10
1391975.4249930084
20
563263.637328756
10
1391976.0035959538
20
563264.1623072765
10
1391976.412315637
20
563264.5335077324
10
1391976.651152058
20
563264.7509301241
10
1391976.7201052164
20
563264.8145744512
10
1391976.9417033475
20
563265.0360836908
10
1391977.3159464514
20
563265.4154578431
10
1391977.8428345278
20
563265.9526969076
10
1391978.522367577
20
563266.6478008847
10
1391979.046141584
20
563267.1824744251
10
1391979.4141565484
20
563267.556717529
10
1391979.6264124708
20
563267.7705301961
10
1391979.6829093508
20
563267.8239124268
10
1391979.8982793428
20
563268.0160734819
10
1391980.2725224467
20
563268.3470133615
10
1391980.8056386625
20
563268.8167320658
10
1391981.4976279903
20
563269.4252295945
10
1391982.0626300424
20
563269.9165999107
10
1391982.5006448193
20
563270.2908430145
10
1391982.811672321
20
563270.5479589059
10
1391982.995712547
20
563270.6879475849
10
1391983.274854212
20
563270.9204424683
10
1391983.649097316
20
563271.2454435562
10
1391984.1184418586
20
563271.6629508486
10
1391984.68288784
20
563272.1729643454
10
1391985.1708175049
20
563272.6150926456
10
1391985.5822308531
20
563272.9893357495
10
1391985.9171278847
20
563273.2956936569
10
1391986.1755085997
20
563273.5341663677
10
1391986.491820509
20
563273.8447512374
10
1391986.866063613
20
563274.227448266
10
1391987.2982379112
20
563274.6822574533
10
1391987.7883434037
20
563275.2091787995
10
1391988.2028835851
20
563275.6597610244
10
1391988.5418584554
20
563276.0340041283
10
1391988.8052680143
20
563276.331908111
10
1391988.9931122623
20
563276.5534729725
10
1391989.274155938
20
563276.8779421581
10
1391989.648399042
20
563277.305315668
10
1391990.1158415738
20
563277.835593502
10
1391990.6764835336
20
563278.4687756603
10
1391991.1180598473
20
563278.9724882913
10
1391991.4405705149
20
563279.3467313952
10
1391991.644015536
20
563279.5915049718
10
1391991.7283949105
20
563279.7068090212
10
1391991.933539436
20
563279.9804086102
10
1391992.2594491125
20
563280.4123037389
10
1391992.7061239395
20
563281.002494407
10
1391993.273563917
20
563281.7509806146
10
1391993.7233106142
20
563282.341972431
10
1391994.0553640306
20
563282.7754698563
10
1391994.2697241663
20
563283.0514728903
10
1391994.3663910215
20
563283.1699815331
10
1391994.6040688069
20
563283.4163574064
10
1391994.9827575225
20
563283.7906005102
10
1391995.5024571687
20
563284.2927108445
10
1391996.1631677449
20
563284.9226884096
10
1391996.6806445848
20
563285.4172996925
10
1391997.0548876887
20
563285.7765446935
10
1391997.2858970563
20
563286.0004234128
10
1391997.373672688
20
563286.08893585
10
1391997.607647096
20
563286.3203136206
10
1391997.9878202812
20
563286.6945567245
10
1391998.514192243
20
563287.2116651615
10
1391999.1867629816
20
563287.8716389319
10
1391999.710169903
20
563288.3847147736
10
1392000.084413007
20
563288.7508926865
10
1392000.3094922933
20
563288.9701726708
10
1392000.3854077621
20
563289.0425547262
10
1392000.6061667022
20
563289.2658673059
10
1392000.971769113
20
563289.6401104096
10
1392001.4822149952
20
563290.1652840376
10
1392002.1375043483
20
563290.8413881899
10
1392002.6522705767
20
563291.3761169058
10
1392003.0265136804
20
563291.7694701854
10
1392003.2602336598
20
563292.0214480287
10
1392003.3534305142
20
563292.132050436
10
1392003.5437089452
20
563292.3744731916
10
1392003.8310689526
20
563292.7487162955
10
1392004.215510536
20
563293.2547797476
10
1392004.6970336959
20
563293.892663548
10
1392005.1249168278
20
563294.4686003225
10
1392005.4991599317
20
563294.9825900708
10
1392005.8197630076
20
563295.4346327931
10
1392006.086726055
20
563295.8247284893
10
1392006.3597096275
20
563296.2068978893
10
1392006.638713724
20
563296.581140993
10
1392006.9237383453
20
563296.9474578007
10
1392007.2147834909
20
563297.3058483122
10
1392007.5474276156
20
563297.7385726834
10
1392007.9216707195
20
563298.2456309142
10
1392008.3375128026
20
563298.8270230049
10
1392008.7949538645
20
563299.4827489553
10
1392009.160669958
20
563299.9977334824
10
1392009.4346610827
20
563300.3719765863
10
1392009.6169272386
20
563300.6054782668
10
1392009.707468426
20
563300.698238524
10
1392009.9315725607
20
563300.9549302689
10
1392010.2892396422
20
563301.3755535015
10
1392010.7804696714
20
563301.9601082217
10
1392011.4052626477
20
563302.7085944293
10
1392011.8821453908
20
563303.2808363602
10
1392012.211117901
20
563303.676834014
10
1392012.392180178
20
563303.896587391
10
1392012.4253322224
20
563303.9400964914
10
1392012.6368969907
20
563304.1489725934
10
1392013.026874483
20
563304.5232156971
10
1392013.5952646998
20
563305.0628258028
10
1392014.3420676407
20
563305.7678029103
10
1392014.9025906632
20
563306.2968451794
10
1392015.276833767
20
563306.6499526101
10
1392015.4647969524
20
563306.8271252025
10
1392015.4664802193
20
563306.8283629565
10
1392015.6450728097
20
563307.0161033855
10
1392016.000574724
20
563307.3903464894
10
1392016.5329859625
20
563307.9510922681
10
1392017.2423065244
20
563308.6983407218
10
1392017.7840883574
20
563309.269904367
10
1392018.1583314613
20
563309.6657832038
10
1392018.365035836
20
563309.8859772322
10
1392018.4042014815
20
563309.9304864524
10
1392018.5916792157
20
563310.1398626143
10
1392018.927469039
20
563310.5141057181
10
1392019.411570951
20
563311.0532157639
10
1392020.0439849517
20
563311.7571927515
10
1392020.5473135042
20
563312.32426898
10
1392020.921556608
20
563312.7544444493
10
1392021.1667142634
20
563313.0477191595
10
1392021.2827864701
20
563313.2040931105
10
1392021.4967792905
20
563313.469401638
10
1392021.8086927247
20
563313.8436447418
10
1392022.2185267725
20
563314.326822422
10
1392022.7262814338
20
563314.9189346787
10
1392023.1672803164
20
563315.4267572963
10
1392023.5415234203
20
563315.8502902752
10
1392023.8490107453
20
563316.1895336149
10
1392024.0897422917
20
563316.4444873157
10
1392024.3953326228
20
563316.7590857181
10
1392024.7657817393
20
563317.1333288219
10
1392025.2010896404
20
563317.5672166272
10
1392025.7012563262
20
563318.0607491342
10
1392026.1384612212
20
563318.5028120204
10
1392026.5127043251
20
563318.893405286
10
1392026.8239856379
20
563319.2325289311
10
1392027.0723051594
20
563319.5201829555
10
1392027.3637622597
20
563319.8511315198
10
1392027.698356939
20
563320.2253746236
10
1392028.076089197
20
563320.642912267
10
1392028.496959034
20
563321.1037444503
10
1392028.8945155041
20
563321.5453755809
10
1392029.268758608
20
563321.9678056589
10
1392029.6196883454
20
563322.3710346844
10
1392029.9473047163
20
563322.7550626574
10
1392030.2675915572
20
563323.1341981958
10
1392030.5805488685
20
563323.5084412997
10
1392030.8861766497
20
563323.8777919689
10
1392031.184474901
20
563324.2422502036
10
1392031.5207455787
20
563324.6555345732
10
1392031.8949886826
20
563325.1176450779
10
1392032.3072042125
20
563325.6285817176
10
1392032.7573921687
20
563326.1883444922
10
1392033.1399192421
20
563326.6553474315
10
1392033.454785433
20
563327.0295905353
10
1392033.7019907408
20
563327.3110738037
10
1392033.8815351662
20
563327.4997972368
10
1392034.1584289307
20
563327.7833890072
10
1392034.5326720346
20
563328.161849115
10
1392035.0042644776
20
563328.6351775604
10
1392035.5732062599
20
563329.2033743432
10
1392036.063051334
20
563329.6745942866
10
1392036.4737996997
20
563330.0488373905
10
1392036.8054513568
20
563330.3261036548
10
1392037.0580063055
20
563330.5063930795
10
1392037.3714053319
20
563330.7432380128
10
1392037.7456484358
20
563331.0366384544
10
1392038.1807356172
20
563331.3865944042
10
1392038.676666876
20
563331.7931058626
10
1392039.2041072678
20
563332.1834831436
10
1392039.7630567919
20
563332.5577262475
10
1392040.353515449
20
563332.915835174
10
1392040.9754832387
20
563333.2578099235
10
1392041.4735886855
20
563333.5375476398
10
1392041.8478317894
20
563333.7550483228
10
1392042.0982125504
20
563333.9103119728
10
1392042.224730968
20
563334.0033385897
10
1392042.5067413335
20
563334.1733139489
0
LWPOLYLINE
5
36
330
C
100
AcDbEntity
8
C-TOPO-MAJR-E
100
AcDbPolyline
90
401
70
0
43
0
38
0
39
0
10
1391959.5298953266
20
563158.2507563491
10
1391959.5179308595
20
563158.9992425566
10
1391959.498260689
20
563159.7477287643
10
1391959.4708848156
20
563160.4962149721
10
1391959.4358032388
20
563161.2447011797
10
1391959.3930159588
20
563161.9931873874
10
1391959.3580011658
20
563162.741673595
10
1391959.3307588596
20
563163.4901598026
10
1391959.3112890404
20
563164.2386460104
10
1391959.2995917085
20
563164.987132218
10
1391959.302397905
20
563165.7356184258
10
1391959.3197076307
20
563166.4841046333
10
1391959.351520885
20
563167.2325908411
10
1391959.3978376684
20
563167.9810770487
10
1391959.4346449384
20
563168.7295632565
10
1391959.4619426955
20
563169.478049464
10
1391959.479730939
20
563170.2265356717
10
1391959.4880096694
20
563170.9750218794
10
1391959.4876765506
20
563171.7235080871
10
1391959.478731583
20
563172.4719942947
10
1391959.4611747665
20
563173.2204805024
10
1391959.4350061007
20
563173.9689667101
10
1391959.4152302817
20
563174.7174529178
10
1391959.4018473092
20
563175.4659391254
10
1391959.394857183
20
563176.2144253331
10
1391959.394259903
20
563176.9629115408
10
1391959.425292925
20
563177.7113977484
10
1391959.4879562478
20
563178.459883956
10
1391959.5822498722
20
563179.2083701638
10
1391959.7081737977
20
563179.9568563714
10
1391959.8331121877
20
563180.7053425792
10
1391959.9570650423
20
563181.4538287867
10
1391960.0800323612
20
563182.2023149945
10
1391960.2020141445
20
563182.9508012021
10
1391960.312799441
20
563183.6992874099
10
1391960.4123882502
20
563184.4477736175
10
1391960.5007805726
20
563185.1962598251
10
1391960.5779764082
20
563185.9447460328
10
1391960.6192834503
20
563186.6932322404
10
1391960.6247016988
20
563187.4417184482
10
1391960.5942311538
20
563188.1902046559
10
1391960.5278718155
20
563188.9386908634
10
1391960.43187691
20
563189.6871770711
10
1391960.3062464367
20
563190.4356632789
10
1391960.1509803964
20
563191.1841494865
10
1391959.9660787887
20
563191.9326356942
10
1391959.7769006705
20
563192.6811219018
10
1391959.5834460412
20
563193.4296081094
10
1391959.3857149016
20
563194.1780943172
10
1391959.1837072517
20
563194.9265805248
10
1391959.0136613613
20
563195.5699420319
10
1391958.8755772312
20
563196.1081788383
10
1391958.769454861
20
563196.541290944
10
1391958.695294251
20
563196.869278349
10
1391958.6132170307
20
563197.2203936034
10
1391958.5232232003
20
563197.5946367073
10
1391958.4253127594
20
563197.9920076606
10
1391958.3194857081
20
563198.4125064632
10
1391958.2177255265
20
563198.915002117
10
1391958.120032214
20
563199.4994946222
10
1391958.0264057715
20
563200.1659839787
10
1391957.9368461983
20
563200.9144701862
10
1391957.8808736452
20
563201.662956394
10
1391957.858488112
20
563202.4114426016
10
1391957.8696895991
20
563203.1599288093
10
1391957.9144781062
20
563203.908415017
10
1391957.9857190158
20
563204.5861669794
10
1391958.0834123283
20
563205.1931846966
10
1391958.2075580428
20
563205.7294681687
10
1391958.3581561602
20
563206.1950173958
10
1391958.5029213782
20
563206.6149135611
10
1391958.6418536971
20
563206.9891566648
10
1391958.774953117
20
563207.3177467072
10
1391958.902219637
20
563207.600683688
10
1391959.1529744493
20
563207.979139003
10
1391959.5272175532
20
563208.4531126521
10
1391960.0249489488
20
563209.0226046355
10
1391960.646168636
20
563209.687614953
10
1391961.1386549382
20
563210.2072416637
10
1391961.5024078558
20
563210.5814847675
10
1391961.7374273883
20
563210.8103442645
10
1391961.8437135362
20
563210.8938201546
10
1391962.083978162
20
563211.054062295
10
1391962.4582212658
20
563211.2910706856
10
1391962.9664428476
20
563211.6048453266
10
1391963.6086429076
20
563211.995386218
10
1391964.265958631
20
563212.3777782156
10
1391964.938390018
20
563212.7520213195
10
1391965.6259370686
20
563213.1181155295
10
1391966.3285997827
20
563213.4760608458
10
1391966.8670526918
20
563213.7513822506
10
1391967.2412957954
20
563213.9440797436
10
1391967.4513290941
20
563214.054153325
10
1391967.4971525876
20
563214.0816029948
10
1391967.7186417598
20
563214.2233651355
10
1391968.1157966102
20
563214.4794397473
10
1391968.6886171396
20
563214.8498268302
10
1391969.4371033474
20
563215.334526384
10
1391970.055730023
20
563215.7571352954
10
1391970.5444971658
20
563216.1176535644
10
1391970.9034047767
20
563216.4160811909
10
1391971.1324528554
20
563216.652418175
10
1391971.3848131094
20
563217.0167924649
10
1391971.6604855387
20
563217.5092040609
10
1391971.9594701435
20
563218.1296529627
10
1391972.2817669236
20
563218.8781391702
10
1391972.5207452946
20
563219.6266253779
10
1391972.6764052564
20
563220.3751115857
10
1391972.7487468086
20
563221.1235977934
10
1391972.7377699518
20
563221.872084001
10
1391972.6912466383
20
563222.6205702086
10
1391972.6091768683
20
563223.3690564164
10
1391972.4915606417
20
563224.117542624
10
1391972.3383979588
20
563224.8660288317
10
1391972.1695763688
20
563225.6145150394
10
1391971.9850958718
20
563226.3630012469
10
1391971.7849564683
20
563227.1114874547
10
1391971.5691581576
20
563227.8599736623
10
1391971.3644576727
20
563228.5565510191
10
1391971.1708550132
20
563229.2012195247
10
1391970.9883501795
20
563229.7939791795
10
1391970.816943171
20
563230.3348299831
10
1391970.671998873
20
563230.7923769369
10
1391970.553517285
20
563231.1666200407
10
1391970.4614984072
20
563231.4575592945
10
1391970.39594224
20
563231.6651946986
10
1391970.296517523
20
563232.0080428035
10
1391970.1632242561
20
563232.4861036092
10
1391969.99606244
20
563233.099377116
10
1391969.7950320744
20
563233.8478633238
10
1391969.634582992
20
563234.5963495314
10
1391969.5147151924
20
563235.344835739
10
1391969.435428676
20
563236.0933219467
10
1391969.3967234427
20
563236.8418081545
10
1391969.433706177
20
563237.5902943622
10
1391969.5463768793
20
563238.3387805697
10
1391969.7347355492
20
563239.0872667774
10
1391969.998782187
20
563239.8357529851
10
1391970.2071284475
20
563240.4125401136
10
1391970.3597743306
20
563240.8176281627
10
1391970.4567198367
20
563241.0510171328
10
1391970.4979649656
20
563241.1127070237
10
1391970.6392081026
20
563241.330673521
10
1391970.880449248
20
563241.7049166248
10
1391971.2216884012
20
563242.2354363352
10
1391971.6629255626
20
563242.922232652
10
1391972.0706656952
20
563243.5469885936
10
1391972.444908799
20
563244.1097041604
10
1391972.7856548738
20
563244.610379352
10
1391973.0929039202
20
563245.0490141686
10
1391973.3815570576
20
563245.4554531287
10
1391973.6516142862
20
563245.8296962325
10
1391973.9030756063
20
563246.17174348
10
1391974.1359410177
20
563246.481594871
10
1391974.4394952753
20
563246.8705005087
10
1391974.8137383792
20
563247.3384603928
10
1391975.258670329
20
563247.8854745233
10
1391975.7742911256
20
563248.5115429002
10
1391976.1878873229
20
563249.0116986407
10
1391976.4994589216
20
563249.3859417445
10
1391976.7090059211
20
563249.6342722118
10
1391976.8165283222
20
563249.7566900426
10
1391977.0574110744
20
563250.0350549989
10
1391977.431654178
20
563250.4693670813
10
1391977.9392576334
20
563251.0596262894
10
1391978.5802214406
20
563251.805832623
10
1391979.0614992415
20
563252.3660573419
10
1391979.3830910362
20
563252.7403004458
10
1391979.5449968253
20
563252.9285619347
10
1391979.547216608
20
563252.9308418084
10
1391979.7354480512
20
563253.1122657305
10
1391980.1096911551
20
563253.4728337007
10
1391980.6699459194
20
563254.0125457192
10
1391981.4162123445
20
563254.7314017857
10
1391981.9829751074
20
563255.2779513709
10
1391982.3702342084
20
563255.6521944747
10
1391982.5779896476
20
563255.8541310972
10
1391982.6062414248
20
563255.8837612383
10
1391982.8074888652
20
563256.0822713148
10
1391983.1817319691
20
563256.4496613267
10
1391983.7289707363
20
563256.9859312739
10
1391984.4492051667
20
563257.6910811566
10
1391984.9987559135
20
563258.2307776498
10
1391985.3776229767
20
563258.6050207536
10
1391985.5858063563
20
563258.8138104681
10
1391985.6233060523
20
563258.8571467932
10
1391985.8291774523
20
563259.060822502
10
1391986.2034205562
20
563259.4248375944
10
1391986.7460353638
20
563259.9491920708
10
1391987.4570218753
20
563260.6338859308
10
1391988.0088533936
20
563261.1633544128
10
1391988.4015299184
20
563261.5375975166
10
1391988.6350514498
20
563261.7566152422
10
1391988.709417988
20
563261.8204075899
10
1391988.933722809
20
563262.0069486615
10
1391989.3079659129
20
563262.3162384573
10
1391989.8321472995
20
563262.7482769771
10
1391990.506266969
20
563263.3030642209
10
1391991.0660532224
20
563263.7675793949
10
1391991.5115060597
20
563264.1418224986
10
1391991.8426254808
20
563264.4257935325
10
1391992.0594114857
20
563264.6194924962
10
1391992.3549260402
20
563264.8856058824
10
1391992.7291691438
20
563265.2241336908
10
1391993.1821407971
20
563265.6350759217
10
1391993.7138409999
20
563266.1184325749
10
1391994.1894088648
20
563266.5472324534
10
1391994.6088443918
20
563266.9214755571
10
1391994.972147581
20
563267.2411618864
10
1391995.2793184326
20
563267.5062914409
10
1391995.62002541
20
563267.804422114
10
1391995.9942685138
20
563268.135553906
10
1391996.402047744
20
563268.4996868165
10
1391996.8433631002
20
563268.8968208455
10
1391997.2643743872
20
563269.2825094122
10
1391997.6650816046
20
563269.6567525158
10
1391998.0454847526
20
563270.019550157
10
1391998.405583831
20
563270.3709023355
10
1391998.7727549223
20
563270.7290104136
10
1391999.146998026
20
563271.0938743914
10
1391999.5283131425
20
563271.4654942689
10
1391999.9167002717
20
563271.8438700462
10
1392000.3163830913
20
563272.2201794867
10
1392000.727361601
20
563272.5944225905
10
1392001.1496358013
20
563272.9665993577
10
1392001.5832056922
20
563273.3367097882
10
1392001.9871121894
20
563273.6797020483
10
1392002.361355293
20
563273.995576138
10
1392002.7059350035
20
563274.2843320573
10
1392003.0208513206
20
563274.5459698063
10
1392003.4259836744
20
563274.8639102327
10
1392003.9213320652
20
563275.2381533365
10
1392004.5068964928
20
563275.6686991177
10
1392005.1826769575
20
563276.1555475766
10
1392005.7076887414
20
563276.5348502343
10
1392006.0819318453
20
563276.8066070909
10
1392006.305406269
20
563276.9708181466
10
1392006.378112012
20
563277.0274834011
10
1392006.6197628714
20
563277.2055913273
10
1392007.030358847
20
563277.5051419248
10
1392007.6098999386
20
563277.9261351938
10
1392008.358386146
20
563278.4685711344
10
1392008.9767159987
20
563278.9127443428
10
1392009.4648894966
20
563279.2586548195
10
1392009.8229066394
20
563279.506302564
10
1392010.0507674273
20
563279.6556875765
10
1392010.3518193732
20
563279.8655730078
10
1392010.726062477
20
563280.1359588581
10
1392011.173496739
20
563280.4668451269
10
1392011.6941221585
20
563280.8582318146
10
1392012.1987333933
20
563281.2410467104
10
1392012.6873304432
20
563281.6152898141
10
1392013.159913308
20
563281.980961126
10
1392013.6164819878
20
563282.3380606461
10
1392014.0318878796
20
563282.6622648695
10
1392014.4061309835
20
563282.9535737964
10
1392014.7392112992
20
563283.2119874267
10
1392015.031128827
20
563283.4375057605
10
1392015.437188525
20
563283.7292300696
10
1392015.9573903927
20
563284.0871603542
10
1392016.5917344303
20
563284.5112966142
10
1392017.340220638
20
563285.0016388496
10
1392017.9116562982
20
563285.3775519358
10
1392018.3060414107
20
563285.6390358726
10
1392018.5233759752
20
563285.7860906604
10
1392018.563659992
20
563285.818716299
10
1392018.7709235526
20
563286.0278164088
10
1392019.1451666565
20
563286.4133909899
10
1392019.6863893038
20
563286.9754400422
10
1392020.3945914942
20
563287.7139635658
10
1392020.9282364175
20
563288.2703468795
10
1392021.2873240737
20
563288.6445899833
10
1392021.4718544625
20
563288.8366928772
10
1392021.4818275839
20
563288.8466555614
10
1392021.6687963712
20
563289.0412491263
10
1392022.0327608245
20
563289.4204735722
10
1392022.5737209434
20
563289.984328899
10
1392023.2916767283
20
563290.7328151066
10
1392023.8352828925
20
563291.2995545239
10
1392024.2045394354
20
563291.6845471507
10
1392024.3994463575
20
563291.8877929873
10
1392024.420003659
20
563291.9092920333
10
1392024.6054615981
20
563292.1071631082
10
1392024.9558201754
20
563292.4814062121
10
1392025.4710793903
20
563293.0320213449
10
1392026.1512392429
20
563293.7590085065
10
1392026.6784407212
20
563294.3234361858
10
1392027.0526838251
20
563294.7253043829
10
1392027.2739685546
20
563294.9646130977
10
1392027.3422949093
20
563295.0413623302
10
1392027.5560046332
20
563295.2668584983
10
1392027.9150977265
20
563295.6411016022
10
1392028.4195741888
20
563296.1640916418
10
1392029.0694340202
20
563296.8358286167
10
1392029.5814854878
20
563297.364185496
10
1392029.9557285917
20
563297.7491622791
10
1392030.1921633317
20
563297.9907589664
10
1392030.290789708
20
563298.0889755578
10
1392030.5165223465
20
563298.3252054054
10
1392030.8693612476
20
563298.6994485091
10
1392031.3493064109
20
563299.2117048693
10
1392031.956357836
20
563299.8619744856
10
1392032.4470051005
20
563300.395409539
10
1392032.8212482044
20
563300.8120100296
10
1392033.0790871475
20
563301.111775957
10
1392033.2205219297
20
563301.2947073217
10
1392033.4365988104
20
563301.5732945559
10
1392033.7273177896
20
563301.9475376597
10
1392034.0926788668
20
563302.4174366331
10
1392034.5326820428
20
563302.9829914762
10
1392034.9398051826
20
563303.4884013042
10
1392035.3140482865
20
563303.9336661175
10
1392035.6554113543
20
563304.3187859156
10
1392035.9638943858
20
563304.6437606986
10
1392036.365196663
20
563304.9933696422
10
1392036.8593181856
20
563305.3676127458
10
1392037.4462589533
20
563305.7664900101
10
1392038.1260189663
20
563306.1900014346
10
1392038.653020525
20
563306.5166751035
10
1392039.0272636288
20
563306.7465110167
10
1392039.248748278
20
563306.8795091741
10
1392039.3174744726
20
563306.9156695759
10
1392039.5561406706
20
563307.0012690192
10
1392039.9647468715
20
563307.1363075043
10
1392040.543293076
20
563307.3207850307
10
1392041.2917792834
20
563307.5547015988
10
1392042.0402654912
20
563307.7861287099
10
1392042.788751699
20
563308.015066364
10
1392043.5372379068
20
563308.2415145609
10
1392044.2857241142
20
563308.4654733008
10
1392044.95790341
20
563308.6970549801
10
1392045.553775794
20
563308.936259599
10
1392046.0733412663
20
563309.1830871574
10
1392046.516599827
20
563309.4375376554
10
1392046.925350659
20
563309.6841626117
10
1392047.2995937627
20
563309.9229620267
10
1392047.6393291382
20
563310.1539359001
10
1392047.9445567855
20
563310.3770842319
10
1392048.3051417777
20
563310.6757799499
10
1392048.721084115
20
563311.0500230535
10
1392049.1923837974
20
563311.4998135434
10
1392049.7190408248
20
563312.0251514192
10
1392050.1694908903
20
563312.4765859229
10
1392050.5437339942
20
563312.8541170544
10
1392050.8417701363
20
563313.1577448137
10
1392051.0635993166
20
563313.3874692009
10
1392051.3827306917
20
563313.6894529464
10
1392051.7991642621
20
563314.0636960503
10
1392052.312900027
20
563314.5101985125
10
1392052.9239379868
20
563315.0289603329
10
1392053.4165785187
20
563315.4485604631
10
1392053.7908216224
20
563315.7689989031
10
1392054.0466672983
20
563315.9902756528
10
1392054.184115546
20
563316.1123907123
10
1392054.4544709271
20
563316.360569794
10
1392054.8577334413
20
563316.7348128979
10
1392055.3939030888
20
563317.2351200238
10
1392056.062979869
20
563317.861491172
10
1392056.5846398114
20
563318.3491791772
10
1392056.958882915
20
563318.6981840393
10
1392057.1857091805
20
563318.9085057585
10
1392057.265118608
20
563318.9801443346
10
1392057.5117972302
20
563319.1830874681
10
1392057.9257450476
20
563319.5173351592
10
1392058.5069620602
20
563319.9828874078
10
1392059.2554482676
20
563320.579744214
10
1392059.8420180925
20
563321.0473845248
10
1392060.2666715349
20
563321.3858083405
10
1392060.5294085941
20
563321.5950156611
10
1392060.6302292708
20
563321.6750064867
10
1392060.867761161
20
563321.8815281386
10
1392061.2420042646
20
563322.2145806173
10
1392061.7529585822
20
563322.6741639222
10
1392062.4006241132
20
563323.2602780538
10
1392062.9231739887
20
563323.7404566715
10
1392063.320608209
20
563324.1146997754
10
1392063.5929267732
20
563324.3830073653
10
1392063.740129682
20
563324.5453794415
10
1392064.0008526882
20
563324.8240129617
10
1392064.375095792
20
563325.218907926
10
1392064.8628589935
20
563325.7300643346
10
1392065.4641422923
20
563326.3574821874
10
1392065.9406150405
20
563326.8583126657
10
1392066.2922772383
20
563327.2325557694
10
1392066.5191288854
20
563327.4802114988
10
1392066.621169982
20
563327.6012798537
10
1392066.8529173844
20
563327.8792026718
10
1392067.2143710922
20
563328.3139799533
10
1392067.7055311059
20
563328.9056116978
10
1392068.326397425
20
563329.6540979054
10
1392068.7984418625
20
563330.2235916471
10
1392069.121664418
20
563330.614092923
10
1392069.2960650916
20
563330.8256017328
10
1392069.3216438836
20
563330.8581180768
10
1392069.4756223117
20
563331.0614978006
10
1392069.7580003762
20
563331.4357409044
10
1392070.1687780772
20
563331.9808473883
10
1392070.707955415
20
563332.696817252
10
1392071.1646656357
20
563333.2985190282
10
1392071.5389087396
20
563333.7859527172
10
1392071.8306847266
20
563334.1591183185
0
LWPOLYLINE
5
37
330
C
100
AcDbEntity
8
C-TOPO-MAJR-E
100
AcDbPolyline
90
412
70
0
43
0
38
0
39
0
10
1391976.0330695044
20
563158.2507563491
10
1391976.1675397358
20
563158.9992425567
10
1391976.2795472369
20
563159.587509497
10
1391976.3690920072
20
563160.0155571699
10
1391976.436174047
20
563160.2833855754
10
1391976.4807933562
20
563160.3909947135
10
1391976.5861512572
20
563160.6319208345
10
1391976.7522477498
20
563161.0061639382
10
1391976.9790828342
20
563161.513724025
10
1391977.2666565103
20
563162.1546010945
10
1391977.5975649003
20
563162.8222328228
10
1391977.9718080042
20
563163.5166192093
10
1391978.3893858218
20
563164.2377602545
10
1391978.8502983535
20
563164.9856559584
10
1391979.196077562
20
563165.5467253622
10
1391979.426723448
20
563165.920968466
10
1391979.542236011
20
563166.1083852699
10
1391979.5426152511
20
563166.1089757738
10
1391979.6255954555
20
563166.2965402036
10
1391979.7911766237
20
563166.6710785594
10
1391980.0393587563
20
563167.2325908411
10
1391980.3701418529
20
563167.9810770487
10
1391980.6388831604
20
563168.7295632565
10
1391980.8455826787
20
563169.478049464
10
1391980.9902404079
20
563170.2265356719
10
1391981.0728563482
20
563170.9750218794
10
1391981.1108544667
20
563171.7235080872
10
1391981.1042347637
20
563172.4719942948
10
1391981.0529972392
20
563173.2204805025
10
1391980.9571418928
20
563173.9689667101
10
1391980.8537054858
20
563174.7174529178
10
1391980.742688018
20
563175.4659391254
10
1391980.624089489
20
563176.2144253331
10
1391980.4979098993
20
563176.9629115409
10
1391980.3770258208
20
563177.7113977486
10
1391980.2614372533
20
563178.4598839561
10
1391980.1511441972
20
563179.2083701638
10
1391980.0461466527
20
563179.9568563715
10
1391979.9480882073
20
563180.7053425792
10
1391979.856968861
20
563181.4538287867
10
1391979.772788614
20
563182.2023149945
10
1391979.6955474662
20
563182.9508012021
10
1391979.6352404435
20
563183.5619668509
10
1391979.5918675454
20
563184.0358119404
10
1391979.565428772
20
563184.3723364712
10
1391979.5559241236
20
563184.5715404428
10
1391979.542190241
20
563184.8582639806
10
1391979.5242271244
20
563185.2325070844
10
1391979.5020347738
20
563185.6942697543
10
1391979.4756131892
20
563186.2435519904
10
1391979.4624023968
20
563186.7015720825
10
1391979.4624023968
20
563187.0683300308
10
1391979.4756131892
20
563187.343825835
10
1391979.5020347738
20
563187.5280594956
10
1391979.5537288922
20
563187.8072978777
10
1391979.6306955444
20
563188.1815409814
10
1391979.7329347304
20
563188.650788807
10
1391979.86044645
20
563189.2150413542
10
1391980.1113238619
20
563189.798860387
10
1391980.4855669655
20
563190.402245905
10
1391980.9831757615
20
563191.0251979087
10
1391981.6041502494
20
563191.6677163977
10
1391982.1133014425
20
563192.1760971942
10
1391982.51062934
20
563192.5503402981
10
1391982.796133943
20
563192.7904457094
10
1391982.9698152507
20
563192.8964134278
10
1391983.2437774565
20
563193.0530262659
10
1391983.6180205601
20
563193.2602842234
10
1391984.0925445622
20
563193.5181873004
10
1391984.6673494622
20
563193.8267354969
10
1391985.240287018
20
563194.168131147
10
1391985.81135723
20
563194.5423742508
10
1391986.3805600973
20
563194.9494648083
10
1391986.9478956207
20
563195.3894028197
10
1391987.4186849343
20
563195.7608020426
10
1391987.7929280382
20
563196.0636624771
10
1391988.0706249322
20
563196.2979841235
10
1391988.2517756163
20
563196.4637669815
10
1391988.5270829587
20
563196.7337799624
10
1391988.8965469594
20
563197.1080230663
10
1391989.3601676186
20
563197.5864962931
10
1391989.9179449358
20
563198.1691996427
10
1391990.3839551462
20
563198.7009449501
10
1391990.75819825
20
563199.1817322155
10
1391991.0406742473
20
563199.6115614384
10
1391991.2313831379
20
563199.9904326192
10
1391991.4084374318
20
563200.3669897616
10
1391991.5718371295
20
563200.7412328654
10
1391991.7215822304
20
563201.1131619307
10
1391991.857672735
20
563201.4827769576
10
1391992.0038523236
20
563201.9471097796
10
1391992.1601209966
20
563202.5061603968
10
1391992.326478754
20
563203.1599288093
10
1391992.5029255955
20
563203.908415017
10
1391992.65848325
20
563204.6569012246
10
1391992.793151718
20
563205.4053874322
10
1391992.906930999
20
563206.1538736399
10
1391992.999821093
20
563206.9023598477
10
1391993.0401229393
20
563207.6508460554
10
1391993.0278365384
20
563208.3993322629
10
1391992.9629618896
20
563209.1478184706
10
1391992.8454989933
20
563209.8963046783
10
1391992.6854106851
20
563210.6344069925
10
1391992.4826969649
20
563211.3621254131
10
1391992.237357833
20
563212.0794599404
10
1391991.9493932892
20
563212.7864105743
10
1391991.7306699203
20
563213.3270074432
10
1391991.581187727
20
563213.701250547
10
1391991.5009467085
20
563213.9091398858
10
1391991.489946865
20
563213.9506754597
10
1391991.4489239128
20
563214.168948692
10
1391991.3778778524
20
563214.5639595827
10
1391991.276808683
20
563215.135708132
10
1391991.145716405
20
563215.8841943396
10
1391991.0540374964
20
563216.6326805472
10
1391991.001771957
20
563217.381166755
10
1391990.9889197869
20
563218.1296529627
10
1391991.0154809863
20
563218.8781391702
10
1391991.058572696
20
563219.6266253779
10
1391991.1181949168
20
563220.3751115857
10
1391991.1943476482
20
563221.1235977934
10
1391991.2870308901
20
563221.872084001
10
1391991.3622552417
20
563222.4561431559
10
1391991.4200207028
20
563222.8757752579
10
1391991.4603272732
20
563223.1309803072
10
1391991.4831749534
20
563223.2217583037
10
1391991.5403953562
20
563223.4542688539
10
1391991.6319884825
20
563223.8285119578
10
1391991.7579543316
20
563224.3444876153
10
1391991.9182929033
20
563225.0021958264
10
1391992.1102453084
20
563225.6825985367
10
1391992.3338115462
20
563226.3856957462
10
1391992.5889916169
20
563227.1114874547
10
1391992.8757855203
20
563227.8599736623
10
1391993.164332673
20
563228.6084598701
10
1391993.454633074
20
563229.3569460777
10
1391993.7466867242
20
563230.1054322853
10
1391994.0404936231
20
563230.853918493
10
1391994.2627355056
20
563231.4214135299
10
1391994.4134123717
20
563231.8079173958
10
1391994.4925242213
20
563232.0134300911
10
1391994.5000710543
20
563232.0379516156
10
1391994.5574999745
20
563232.2373339297
10
1391994.6648109816
20
563232.6115770335
10
1391994.8220040759
20
563233.1606809271
10
1391995.0290792568
20
563233.8846456103
10
1391995.2577300847
20
563234.6147406747
10
1391995.507956559
20
563235.3509661201
10
1391995.7797586801
20
563236.0933219467
10
1391996.073136448
20
563236.8418081545
10
1391996.3551780884
20
563237.5086098554
10
1391996.6258836018
20
563238.0937270497
10
1391996.885252988
20
563238.5971597373
10
1391997.1332862466
20
563239.0189079181
10
1391997.3899780908
20
563239.4169035605
10
1391997.6553285206
20
563239.7911466643
10
1391997.9293375355
20
563240.1416372296
10
1391998.2120051356
20
563240.4683752564
10
1391998.5404604878
20
563240.8341660606
10
1391998.9147035917
20
563241.2390096422
10
1391999.3347344473
20
563241.6829060012
10
1391999.8005530545
20
563242.1658551377
10
1392000.2245250968
20
563242.594451258
10
1392000.6066505746
20
563242.9686943617
10
1392000.946929487
20
563243.2885844493
10
1392001.2453618345
20
563243.5541215205
10
1392001.5816995602
20
563243.8974343124
10
1392001.9559426638
20
563244.3185228249
10
1392002.368091146
20
563244.8173870583
10
1392002.818145006
20
563245.3940270123
10
1392003.1906211951
20
563245.8694685411
10
1392003.4855197128
20
563246.243711645
10
1392003.7028405597
20
563246.5167563237
10
1392003.842583735
20
563246.6886025774
10
1392004.0491779835
20
563247.0046088195
10
1392004.3226233055
20
563247.4647750503
10
1392004.6629197004
20
563248.0691012695
10
1392005.0700671687
20
563248.817587477
10
1392005.4258266608
20
563249.500496137
10
1392005.7301981766
20
563250.1178272492
10
1392005.9831817169
20
563250.6695808137
10
1392006.1847772808
20
563251.1557568305
10
1392006.3858037186
20
563251.5859663908
10
1392006.5862610298
20
563251.9602094947
10
1392006.7861492147
20
563252.278486142
10
1392006.9854682733
20
563252.540796333
10
1392007.2722493545
20
563252.9152419404
10
1392007.6464924584
20
563253.4018229644
10
1392008.1081975847
20
563254.0005394049
10
1392008.657364734
20
563254.711391262
10
1392009.0787455477
20
563255.2539387424
10
1392009.3723400263
20
563255.6281818462
10
1392009.5381481696
20
563255.8341205735
10
1392009.5761699777
20
563255.8717549241
10
1392009.7823024336
20
563256.0828880556
10
1392010.1565455375
20
563256.4675199683
10
1392010.6988992891
20
563257.0256506619
10
1392011.409363689
20
563257.7572801365
10
1392011.947807476
20
563258.3102164257
10
1392012.3142306511
20
563258.6844595296
10
1392012.5086332136
20
563258.880009448
10
1392012.5310151633
20
563258.8968661812
10
1392012.7293276903
20
563259.084806644
10
1392013.1035707942
20
563259.4438308367
10
1392013.653744475
20
563259.9739387592
10
1392014.3798487326
20
563260.6751304114
10
1392014.9358825465
20
563261.2128477895
10
1392015.321845916
20
563261.5870908934
10
1392015.5377388422
20
563261.797859723
10
1392015.5835613245
20
563261.8451542782
10
1392015.7935941173
20
563262.0113741542
10
1392016.1678372212
20
563262.296519351
10
1392016.7062906357
20
563262.7005898682
10
1392017.4089543615
20
563263.2235857064
10
1392018.025358237
20
563263.6722051774
10
1392018.5555022631
20
563264.046448281
10
1392018.9993864393
20
563264.3463150179
10
1392019.3570107657
20
563264.5718053875
10
1392019.7229444808
20
563264.7870884635
10
1392020.0971875847
20
563264.9921642458
10
1392020.4797400772
20
563265.1870327344
10
1392020.8706019586
20
563265.3716939292
10
1392021.285086753
20
563265.6511460786
10
1392021.723194461
20
563266.0253891824
10
1392022.1849250826
20
563266.4944232408
10
1392022.6702786176
20
563267.0582482535
10
1392023.100076937
20
563267.5271679454
10
1392023.4743200406
20
563267.9011823164
10
1392023.7930079289
20
563268.1802913663
10
1392024.0561406019
20
563268.3644950954
10
1392024.4406116584
20
563268.6124463058
10
1392024.9464210987
20
563268.9241449974
10
1392025.5735689227
20
563269.2995911704
10
1392026.32205513
20
563269.7387848245
10
1392026.9385967639
20
563270.0994522714
10
1392027.4231938238
20
563270.3815935107
10
1392027.7758463097
20
563270.5852085425
10
1392027.9965542217
20
563270.7102973667
10
1392028.2940297294
20
563270.8608469486
10
1392028.6682728333
20
563271.0368572881
10
1392029.1192835332
20
563271.238328385
10
1392029.647061829
20
563271.4652602396
10
1392030.2300171028
20
563271.6796003424
10
1392030.8681493541
20
563271.8813486939
10
1392031.561458584
20
563272.0705052937
10
1392032.3099447915
20
563272.247070142
10
1392033.058430999
20
563272.3761205368
10
1392033.8069172068
20
563272.4576564783
10
1392034.5554034146
20
563272.4916779663
10
1392035.303889622
20
563272.478185001
10
1392036.0523758298
20
563272.4496552938
10
1392036.8008620376
20
563272.4060888451
10
1392037.5493482454
20
563272.3474856546
10
1392038.2978344527
20
563272.2738457224
10
1392039.0463206605
20
563272.248828027
10
1392039.7948068683
20
563272.2724325683
10
1392040.543293076
20
563272.3446593463
10
1392041.2917792834
20
563272.465508361
10
1392041.9286821266
20
563272.633963469
10
1392042.4540016055
20
563272.8500246702
10
1392042.8677377196
20
563273.1136919647
10
1392043.169890469
20
563273.4249653525
10
1392043.4129614045
20
563273.8455419452
10
1392043.596950526
20
563274.3754217429
10
1392043.7218578334
20
563275.0146047455
10
1392043.787683327
20
563275.7630909532
10
1392043.839541887
20
563276.5115771608
10
1392043.8774335128
20
563277.2600633686
10
1392043.9013582054
20
563278.0085495763
10
1392043.9113159645
20
563278.7570357838
10
1392043.9441928663
20
563279.5055219915
10
1392043.9999889117
20
563280.2540081993
10
1392044.0787040996
20
563281.002494407
10
1392044.1803384307
20
563281.7509806146
10
1392044.303703272
20
563282.4994668222
10
1392044.4487986232
20
563283.24795303
10
1392044.6156244841
20
563283.9964392376
10
1392044.8041808552
20
563284.7449254453
10
1392044.9656880093
20
563285.3650036714
10
1392045.1001459463
20
563285.8566739159
10
1392045.2075546668
20
563286.2199361789
10
1392045.2879141704
20
563286.4547904603
10
1392045.3925880373
20
563286.759339153
10
1392045.5215762674
20
563287.1335822567
10
1392045.6748788608
20
563287.5775197719
10
1392045.852495818
20
563288.091151698
10
1392046.07846445
20
563288.6634971946
10
1392046.3527847577
20
563289.2945562617
10
1392046.675456741
20
563289.984328899
10
1392047.0464803996
20
563290.7328151066
10
1392047.3747095417
20
563291.3508684448
10
1392047.660144167
20
563291.8384889133
10
1392047.9027842758
20
563292.1956765123
10
1392048.102629868
20
563292.422431242
10
1392048.4048830727
20
563292.7229301586
10
1392048.80954389
20
563293.0971732624
10
1392049.3166123196
20
563293.5451605534
10
1392049.926088362
20
563294.0668920316
10
1392050.417947935
20
563294.4794805611
10
1392050.7921910388
20
563294.7829261418
10
1392051.0488176735
20
563294.9772287739
10
1392051.1878278388
20
563295.0623884571
10
1392051.479207015
20
563295.2299729034
10
1392051.9229552017
20
563295.4799821124
10
1392052.5190723988
20
563295.8124160845
10
1392053.267558606
20
563296.2272748194
10
1392053.906279081
20
563296.6005358179
10
1392054.4352338235
20
563296.9321990801
10
1392054.8544228328
20
563297.2222646059
10
1392055.1638461095
20
563297.4707323953
10
1392055.5056792998
20
563297.7568588937
10
1392055.8799224035
20
563298.080644101
10
1392056.286575421
20
563298.4420880172
10
1392056.725638352
20
563298.8411906424
10
1392057.1387794188
20
563299.227863507
10
1392057.5259986212
20
563299.6021066108
10
1392057.8872959593
20
563299.9639199539
10
1392058.2226714327
20
563300.3133035365
10
1392058.5774807215
20
563300.6764782903
10
1392058.9517238254
20
563301.0534442157
10
1392059.3454007444
20
563301.4442013124
10
1392059.7585114783
20
563301.8487495806
10
1392060.1783605092
20
563302.2381452664
10
1392060.6049478368
20
563302.6123883703
10
1392061.0382734614
20
563302.971478892
10
1392061.478337383
20
563303.3154168315
10
1392061.8854908952
20
563303.617076858
10
1392062.2597339991
20
563303.8764589715
10
1392062.6010666941
20
563304.0935631718
10
1392062.9094889807
20
563304.2683894591
10
1392063.3279272472
20
563304.4841551227
10
1392063.856381494
20
563304.7408601627
10
1392064.4948517215
20
563305.0385045789
10
1392065.2433379288
20
563305.3770883714
10
1392065.9237551196
20
563305.6897952477
10
1392066.5361032933
20
563305.976625208
10
1392067.0803824498
20
563306.237578252
10
1392067.5565925892
20
563306.4726543798
10
1392067.981819211
20
563306.6788495585
10
1392068.3560623147
20
563306.856163788
10
1392068.6793219007
20
563307.0045970685
10
1392068.951597969
20
563307.1241493998
10
1392069.342926572
20
563307.3083345068
10
1392069.85330771
20
563307.5571523891
10
1392070.482741383
20
563307.8706030471
10
1392071.2312275902
20
563308.2486864807
10
1392071.9038186083
20
563308.5949616665
10
1392072.500514437
20
563308.9094286048
10
1392073.021315076
20
563309.1920872952
10
1392073.466220525
20
563309.442937738
10
1392073.8757948019
20
563309.6882297671
10
1392074.2500379058
20
563309.9279633823
10
1392074.5889498368
20
563310.162138584
10
1392074.892530595
20
563310.3907553718
10
1392075.264938665
20
563310.6921853176
10
1392075.706174047
20
563311.0664284213
10
1392076.2162367404
20
563311.5134846831
10
1392076.7951267457
20
563312.0333541031
10
1392077.2716933002
20
563312.4849391014
10
1392077.645936404
20
563312.8682396781
10
1392077.9178560572
20
563313.1832558333
10
1392078.0874522594
20
563313.4299875669
10
1392078.2808048646
20
563313.7404749857
10
1392078.4979138728
20
563314.1147180896
10
1392078.7387792836
20
563314.5527168785
10
1392079.0034010971
20
563315.0544713525
10
1392079.2791874076
20
563315.61790876
10
1392079.566138215
20
563316.2430291008
10
1392079.8642535189
20
563316.9298323751
10
1392080.1735333197
20
563317.6783185827
10
1392080.4491393187
20
563318.3497145553
10
1392080.691071516
20
563318.9440202927
10
1392080.899329911
20
563319.4612357949
10
1392081.0739145041
20
563319.9013610622
10
1392081.246147258
20
563320.3085452477
10
1392081.4160281722
20
563320.6827883514
10
1392081.5835572474
20
563321.0240903737
10
1392081.748734483
20
563321.3324513141
10
1392082.0184446527
20
563321.7104679211
10
1392082.3926877566
20
563322.1581401948
10
1392082.8714637945
20
563322.6754681349
10
1392083.4547727667
20
563323.2624517417
10
1392083.9315729088
20
563323.743065097
10
1392084.3018642215
20
563324.1173082008
10
1392084.565646704
20
563324.3851810532
10
1392084.7229203568
20
563324.5466836542
10
1392084.9886787352
20
563324.7882179065
10
1392085.362921839
20
563325.10978381
10
1392085.8456496685
20
563325.5113813649
10
1392086.436862223
20
563325.9930105712
10
1392086.95811464
20
563326.4209467262
10
1392087.4094069197
20
563326.79518983
10
1392087.7907390615
20
563327.1157398827
10
1392088.1021110655
20
563327.382596884
10
1392088.4449186195
20
563327.6927274542
10
1392088.8191617234
20
563328.0461315934
10
1392089.224840377
20
563328.4428093013
10
1392089.6619545808
20
563328.8827605781
10
1392090.0581714583
20
563329.2898577682
10
1392090.4134910102
20
563329.6641008721
10
1392090.727913236
20
563330.0054898895
10
1392091.0014381357
20
563330.3140248205
10
1392091.3253221377
20
563330.6924736704
10
1392091.6995652416
20
563331.1408364392
10
1392092.1241674474
20
563331.659113127
10
1392092.5991287548
20
563332.2473037338
10
1392092.9939336427
20
563332.7285205892
10
1392093.3085821108
20
563333.1027636931
10
1392093.5430741592
20
563333.3700330454
10
1392093.6974097877
20
563333.5303286463
10
1392093.9441901976
20
563333.837671899
10
1392094.2834153895
20
563334.2920628032
0
LWPOLYLINE
5
38
330
C
100
AcDbEntity
8
C-TOPO-MAJR-E
100
AcDbPolyline
90
355
70
0
43
0
38
0
39
0
10
1392001.054263355
20
563158.2507563491
10
1392000.8411624983
20
563158.9992425567
10
1392000.6799474654
20
563159.5675161094
10
1392000.570618256
20
563159.9555770074
10
1392000.5131748703
20
563160.1634252502
10
1392000.5076173085
20
563160.1910608383
10
1392000.4715293744
20
563160.3920001842
10
1392000.4049110685
20
563160.7662432881
10
1392000.3077623905
20
563161.3137901498
10
1392000.180083341
20
563162.0346407695
10
1392000.0849522317
20
563162.762400286
10
1392000.022369063
20
563163.4970686998
10
1391999.992333835
20
563164.2386460104
10
1391999.9948465477
20
563164.9871322181
10
1392000.0280226665
20
563165.6904667624
10
1392000.0918621914
20
563166.3486496434
10
1392000.1863651224
20
563166.9616808611
10
1392000.31153146
20
563167.5295604154
10
1392000.421068125
20
563168.0006217445
10
1392000.514975118
20
563168.3748648483
10
1392000.593252439
20
563168.652289727
10
1392000.6559000881
20
563168.8328963802
10
1392000.8255147366
20
563169.1554729221
10
1392001.102096384
20
563169.6200193528
10
1392001.4856450309
20
563170.2265356719
10
1392001.976160677
20
563170.9750218794
10
1392002.3928781396
20
563171.5842818533
10
1392002.735797419
20
563172.0543155932
10
1392003.004918515
20
563172.3851230992
10
1392003.2002414274
20
563172.5767043715
10
1392003.5338551637
20
563172.8528183729
10
1392004.005759724
20
563173.2134651039
10
1392004.6159551078
20
563173.658644564
10
1392005.3644413152
20
563174.1883567534
10
1392005.9358247765
20
563174.5924390821
10
1392006.3301054914
20
563174.87089155
10
1392006.5472834595
20
563175.0237141568
10
1392006.5873586813
20
563175.0509069026
10
1392006.794517844
20
563175.2165368734
10
1392007.1687609479
20
563175.520604069
10
1392007.7100879927
20
563175.9631084893
10
1392008.4184989785
20
563176.5440501343
10
1392008.9824196636
20
563177.0216425087
10
1392009.4018500478
20
563177.3958856126
10
1392009.6767901308
20
563177.6667794458
10
1392009.807239913
20
563177.8343240084
10
1392009.957903402
20
563178.1471039823
10
1392010.1287805974
20
563178.6051193674
10
1392010.3198715
20
563179.2083701638
10
1392010.5311761089
20
563179.9568563715
10
1392010.693354977
20
563180.7053425792
10
1392010.806408104
20
563181.4538287867
10
1392010.87033549
20
563182.2023149945
10
1392010.8851371352
20
563182.9508012021
10
1392010.9229098028
20
563183.6992874099
10
1392010.9836534928
20
563184.4477736175
10
1392011.0673682056
20
563185.1962598253
10
1392011.1740539412
20
563185.9447460328
10
1392011.3253793516
20
563186.639416503
10
1392011.5213444375
20
563187.2802712355
10
1392011.7619491983
20
563187.8673102305
10
1392012.0471936343
20
563188.4005334879
10
1392012.3033310554
20
563188.8542666684
10
1392012.5303614617
20
563189.2285097723
10
1392012.728284853
20
563189.5232627994
10
1392012.897101229
20
563189.7385257496
10
1392013.1686309692
20
563189.9933680677
10
1392013.5428740731
20
563190.2877897536
10
1392014.0198305408
20
563190.6217908072
10
1392014.599500372
20
563190.9953712288
10
1392015.216475877
20
563191.3692829914
10
1392015.8707570557
20
563191.7435260953
10
1392016.562343908
20
563192.1181005402
10
1392017.291236434
20
563192.4930063265
10
1392017.842804249
20
563192.776804488
10
1392018.2170473526
20
563192.9694950251
10
1392018.4139657454
20
563193.0710779375
10
1392018.433559427
20
563193.0815532254
10
1392018.6353762401
20
563193.1913138954
10
1392019.019416185
20
563193.4003599477
10
1392019.5856792612
20
563193.7086913823
10
1392020.3341654686
20
563194.1163081991
10
1392021.0566988138
20
563194.5046193374
10
1392021.7532792967
20
563194.8736247973
10
1392022.423906917
20
563195.2233245788
10
1392023.068581675
20
563195.5537186818
10
1392023.5780406059
20
563195.8145456801
10
1392023.9522837095
20
563196.0058055735
10
1392024.1913109864
20
563196.1274983621
10
1392024.2951224362
20
563196.1796240458
10
1392024.5601025755
20
563196.3057412589
10
1392024.9862514045
20
563196.505850001
10
1392025.5735689227
20
563196.7799502725
10
1392026.32205513
20
563197.1280420732
10
1392027.0705413376
20
563197.4741018652
10
1392027.8190275454
20
563197.8181296482
10
1392028.5675137532
20
563198.1601254228
10
1392029.315999961
20
563198.5000891883
10
1392029.8812310393
20
563198.757138252
10
1392030.2632069886
20
563198.9312726136
10
1392030.4619278084
20
563199.0224922731
10
1392030.4773934986
20
563199.0307972308
10
1392030.672247896
20
563199.127436565
10
1392031.0464909999
20
563199.3124102758
10
1392031.6001228103
20
563199.5857183633
10
1392032.3331433274
20
563199.9473608274
10
1392033.0114489836
20
563200.3153036113
10
1392033.6350397784
20
563200.6895467152
10
1392034.203915713
20
563201.0700901388
10
1392034.718076786
20
563201.4569338824
10
1392035.1622788748
20
563201.7902588164
10
1392035.5365219787
20
563202.070064941
10
1392035.8408060977
20
563202.2963522557
10
1392036.075131232
20
563202.4691207608
10
1392036.431356119
20
563202.7426265653
10
1392036.909480759
20
563203.1168696692
10
1392037.5095051513
20
563203.5918500724
10
1392038.231429296
20
563204.1675677749
10
1392038.7795129204
20
563204.6047262866
10
1392039.1537560243
20
563204.9033256079
10
1392039.3541586078
20
563205.0633657385
10
1392039.3807206703
20
563205.0848466787
10
1392039.5877637696
20
563205.253600772
10
1392039.9752879045
20
563205.5696280185
10
1392040.543293076
20
563206.0329284185
10
1392041.2917792834
20
563206.6435019716
10
1392041.8847609856
20
563207.1305400652
10
1392042.3222381822
20
563207.494042699
10
1392042.6042108731
20
563207.7340098731
10
1392042.7306790585
20
563207.8504415874
10
1392042.981034703
20
563208.0816807797
10
1392043.355277807
20
563208.4277274498
10
1392043.8534083702
20
563208.8885815977
10
1392044.4754263922
20
563209.4642432237
10
1392044.9922735346
20
563209.9391955885
10
1392045.4039497976
20
563210.3134386921
10
1392045.7104551806
20
563210.586972535
10
1392045.9117896836
20
563210.7597971169
10
1392046.1995784873
20
563211.0129798008
10
1392046.5738215912
20
563211.3465205866
10
1392047.0345189953
20
563211.7604194747
10
1392047.5816706996
20
563212.2546764647
10
1392048.057875705
20
563212.6889265117
10
1392048.4631340113
20
563213.0631696156
10
1392048.7974456185
20
563213.3774057763
10
1392049.0608105268
20
563213.6316349938
10
1392049.3796145327
20
563213.9406001498
10
1392049.7538576364
20
563214.304301244
10
1392050.183539838
20
563214.7227382764
10
1392050.6686611378
20
563215.1959112472
10
1392051.0976011257
20
563215.6196192844
10
1392051.4703598015
20
563215.9938623882
10
1392051.786937166
20
563216.3186405586
10
1392052.0473332184
20
563216.5939537956
10
1392052.3646527966
20
563216.9580718211
10
1392052.7388959005
20
563217.410994635
10
1392053.17006253
20
563217.9527222374
10
1392053.658152685
20
563218.5832546283
10
1392054.0419535062
20
563219.0856423758
10
1392054.3214649928
20
563219.4598854794
10
1392054.4966871457
20
563219.7059839398
10
1392054.5676199645
20
563219.8239377566
10
1392054.7399024926
20
563220.0995246711
10
1392055.0135347305
20
563220.5327446834
10
1392055.388516678
20
563221.1235977934
10
1392055.8648483348
20
563221.872084001
10
1392056.2724025105
20
563222.5056348328
10
1392056.6111792051
20
563223.0242502887
10
1392056.8811784184
20
563223.4279303688
10
1392057.0824001504
20
563223.7166750729
10
1392057.3079310788
20
563224.048168977
10
1392057.5577712033
20
563224.4224120807
10
1392057.8319205241
20
563224.8394043844
10
1392058.130379041
20
563225.299145888
10
1392058.4667298514
20
563225.801419534
10
1392058.8409729553
20
563226.3462253227
10
1392059.2531083527
20
563226.933563254
10
1392059.7031360432
20
563227.5634333278
10
1392060.0584293
20
563228.0654899167
10
1392060.318988123
20
563228.4397330205
10
1392060.4848125123
20
563228.6861626394
10
1392060.5559024676
20
563228.8047787731
10
1392060.7236994412
20
563229.0808624255
10
1392060.9882034329
20
563229.5144135961
10
1392061.3494144427
20
563230.1054322853
10
1392061.807332471
20
563230.853918493
10
1392062.2056405481
20
563231.5002208676
10
1392062.544338674
20
563232.0443394089
10
1392062.8234268492
20
563232.4862741171
10
1392063.0429050736
20
563232.8260249924
10
1392063.2752908468
20
563233.1830219819
10
1392063.520584169
20
563233.5572650856
10
1392063.7787850406
20
563233.9487543039
10
1392064.0498934607
20
563234.3574896364
10
1392064.368639241
20
563234.8511626878
10
1392064.7350223814
20
563235.4297734578
10
1392065.149042881
20
563236.0933219467
10
1392065.610700741
20
563236.8418081545
10
1392065.9608741174
20
563237.4098426364
10
1392066.199563011
20
563237.7974253928
10
1392066.3267674218
20
563238.0045564235
10
1392066.3424873492
20
563238.0312357284
10
1392066.4620948387
20
563238.2316969328
10
1392066.6855898895
20
563238.6059400367
10
1392067.0129725025
20
563239.15396504
10
1392067.4442426772
20
563239.8757719425
10
1392067.8469993165
20
563240.5353689506
10
1392068.2212424204
20
563241.1327560638
10
1392068.5669719889
20
563241.6679332826
10
1392068.884188022
20
563242.1409006066
10
1392069.169195225
20
563242.5645058206
10
1392069.4219935983
20
563242.9387489244
10
1392069.642583142
20
563243.2636299182
10
1392069.8309638558
20
563243.5391488018
10
1392070.084686746
20
563243.9329095165
10
1392070.4037518117
20
563244.4449120621
10
1392070.7881590535
20
563245.0751564387
10
1392071.2379084716
20
563245.8236426464
10
1392071.602809554
20
563246.4631746353
10
1392071.8828623008
20
563246.9937524056
10
1392072.0780667122
20
563247.4153759571
10
1392072.1884227882
20
563247.72804529
10
1392072.3066558766
20
563248.0715015084
10
1392072.4327659777
20
563248.4457446121
10
1392072.5667530915
20
563248.8507746015
10
1392072.7086172178
20
563249.2865914764
10
1392072.9174092894
20
563249.8005756844
10
1392073.1931293062
20
563250.3927272257
10
1392073.535777268
20
563251.0630461002
10
1392073.945353175
20
563251.8115323078
10
1392074.301796649
20
563252.4398719666
10
1392074.6051076895
20
563252.9480650765
10
1392074.855286297
20
563253.3361116374
10
1392075.0523324714
20
563253.6040116496
10
1392075.2646156258
20
563253.9250832075
10
1392075.4921357608
20
563254.2993263113
10
1392075.734892876
20
563254.7267409611
10
1392075.9928869714
20
563255.2073271567
10
1392076.269592071
20
563255.7548883553
10
1392076.5650081746
20
563256.3694245568
10
1392076.8791352825
20
563257.0509357615
10
1392077.2119733945
20
563257.7994219691
10
1392077.5010154785
20
563258.4747340353
10
1392077.7462615345
20
563259.07687196
10
1392077.9477115627
20
563259.6058357429
10
1392078.1053655627
20
563260.0616253843
10
1392078.2463961507
20
563260.476641757
10
1392078.3708033264
20
563260.8508848607
10
1392078.4785870893
20
563261.1843546957
10
1392078.5697474403
20
563261.477051262
10
1392078.7027243297
20
563261.8836952386
10
1392078.8775177582
20
563262.4042866254
10
1392079.094127725
20
563263.0388254228
10
1392079.352554231
20
563263.7873116306
10
1392079.6460989479
20
563264.5111221531
10
1392079.9747618765
20
563265.2102569909
10
1392080.3385430162
20
563265.8847161435
10
1392080.7374423672
20
563266.534499611
10
1392081.0628543878
20
563267.0465128968
10
1392081.314779078
20
563267.4207560006
10
1392081.4932164375
20
563267.6572289226
10
1392081.5981664665
20
563267.7559316626
10
1392081.8377630329
20
563267.943479708
10
1392082.2120061368
20
563268.2198730587
10
1392082.720895778
20
563268.5851117147
10
1392083.3644319568
20
563269.0391956761
10
1392083.976606619
20
563269.4533592087
10
1392084.5574197648
20
563269.8276023124
10
1392085.1068713944
20
563270.1619249876
10
1392085.624961508
20
563270.4563272338
10
1392086.0711281165
20
563270.7091213439
10
1392086.4453712204
20
563270.9203073179
10
1392086.7476908194
20
563271.0898851556
10
1392086.9780869137
20
563271.217854857
10
1392087.3380055362
20
563271.4601000973
10
1392087.8274466875
20
563271.8166208768
10
1392088.4464103668
20
563272.287417195
10
1392089.1948965746
20
563272.8724890521
10
1392089.7680939164
20
563273.3201541073
10
1392090.166002392
20
563273.6304123605
10
1392090.3886220017
20
563273.8032638116
10
1392090.4359527454
20
563273.8387084606
10
1392090.6467396691
20
563273.9905429275
10
1392091.020982773
20
563274.2587672123
10
1392091.558682057
20
563274.643381315
10
1392092.2598375208
20
563275.1443852357
10
1392092.8785526203
20
563275.582008748
10
1392093.4148273552
20
563275.9562518517
10
1392093.8686617254
20
563276.2671145472
10
1392094.2400557315
20
563276.5145968342
10
1392094.6128742862
20
563276.7629712083
10
1392094.9871173901
20
563277.0122376694
10
1392095.362785043
20
563277.2623962177
10
1392095.7398772447
20
563277.5134468531
10
1392096.2098179478
20
563277.7946716704
10
1392096.7726071528
20
563278.1060706697
10
1392097.428244859
20
563278.447643851
10
1392098.1767310663
20
563278.8193912143
10
1392098.7975766622
20
563279.1296237891
10
1392099.2907816465
20
563279.3783415752
10
1392099.656346019
20
563279.5655445728
10
1392099.8942697793
20
563279.6912327819
10
1392100.2003532117
20
563279.8724420624
10
1392100.5745963156
20
563280.1091724146
10
1392101.016999091
20
563280.4014238382
10
1392101.527561538
20
563280.7491963335
10
1392102.0836603802
20
563281.110204133
10
1392102.6852956177
20
563281.4844472369
10
1392103.33246725
20
563281.871925645
10
1392104.0251752778
20
563282.2726393575
10
1392104.5586508436
20
563282.5804032566
10
1392104.9328939472
20
563282.7952173423
10
1392105.1479045893
20
563282.9170816147
10
1392105.203682769
20
563282.9459960738
10
1392105.4326379562
20
563283.0291836613
10
1392105.83477015
20
563283.1666443772
10
1392106.410079351
20
563283.3583782216
10
1392107.1585655583
20
563283.6043851945
10
1392107.9070517658
20
563283.8282611156
10
1392108.6555379736
20
563284.0300059849
10
1392109.4040241814
20
563284.2096198024
10
1392110.1525103892
20
563284.3671025682
10
1392110.900996597
20
563284.5361523244
10
1392111.6494828048
20
563284.7167690713
10
1392112.3979690124
20
563284.9089528087
10
1392113.1464552197
20
563285.1127035368
10
1392113.7663650054
20
563285.2935994032
10
1392114.2576983694
20
563285.4516404083
10
1392114.6204553111
20
563285.5868265517
10
1392114.8546358312
20
563285.6991578338
10
1392115.158847643
20
563285.8520803982
10
1392115.533090747
20
563286.0455942451
10
1392115.9773651427
20
563286.2796993745
10
1392116.4916708304
20
563286.5543957861
10
1392117.0645216482
20
563286.8533881156
10
1392117.6959175959
20
563287.176676363
10
1392118.3858586736
20
563287.5242605279
10
1392119.1343448812
20
563287.8961406107
10
1392119.741028781
20
563288.200528101
10
1392120.2059103732
20
563288.437422999
10
1392120.5289896575
20
563288.6068253046
10
1392120.7102666341
20
563288.7087350177
10
1392120.9880266744
20
563288.8772478201
10
1392121.362269778
20
563289.1123637119
10
1392121.8329959456
20
563289.414082693
10
1392122.4002051766
20
563289.7824047634
10
1392122.9741403023
20
563290.1536873506
10
1392123.554801323
20
563290.5279304544
10
1392124.142188238
20
563290.9051340749
10
1392124.7363010475
20
563291.2852982122
10
1392125.220479004
20
563291.5944240714
10
1392125.594722108
20
563291.8325116525
10
1392125.859030359
20
563291.9995609557
10
1392126.013403757
20
563292.0955719806
10
1392126.3163053575
20
563292.3120089953
0
LWPOLYLINE
5
39
330
C
100
AcDbEntity
8
C-TOPO-MAJR-E
100
AcDbPolyline
90
283
70
0
43
0
38
0
39
0
10
1392035.7315221736
20
563158.098294358
10
1392036.1380189126
20
563158.4794693739
10
1392036.4876145506
20
563158.8537124777
10
1392036.7803090876
20
563159.2210236695
10
1392037.0161025235
20
563159.5814029488
10
1392037.2758563645
20
563160.0388089605
10
1392037.5595706108
20
563160.5932417042
10
1392037.867245262
20
563161.2447011798
10
1392038.1988803183
20
563161.9931873874
10
1392038.4928710395
20
563162.6961129175
10
1392038.7492174255
20
563163.3534777702
10
1392038.967919476
20
563163.9652819454
10
1392039.1489771914
20
563164.5315254433
10
1392039.2951519287
20
563165.0017687441
10
1392039.4064436879
20
563165.3760118478
10
1392039.4828524692
20
563165.6542547547
10
1392039.5243782722
20
563165.8364974647
10
1392039.6062518933
20
563166.160301049
10
1392039.728473332
20
563166.6256655079
10
1392039.8910425887
20
563167.2325908411
10
1392040.093959663
20
563167.9810770487
10
1392040.338804033
20
563168.7295632565
10
1392040.625575698
20
563169.478049464
10
1392040.9542746583
20
563170.2265356719
10
1392041.324900914
20
563170.9750218794
10
1392041.6362248743
20
563171.5882119526
10
1392041.8882465395
20
563172.066105891
10
1392042.0809659092
20
563172.4087036949
10
1392042.2143829837
20
563172.616005364
10
1392042.380419139
20
563172.9067777505
10
1392042.5790743753
20
563173.2810208544
10
1392042.8103486928
20
563173.7387346756
10
1392043.0742420908
20
563174.2799192141
10
1392043.375625951
20
563174.8729291698
10
1392043.714500273
20
563175.5177645427
10
1392044.090865057
20
563176.2144253331
10
1392044.5047203025
20
563176.9629115409
10
1392044.8327961278
20
563177.5724367746
10
1392045.0750925324
20
563178.0430010346
10
1392045.2316095165
20
563178.3746043207
10
1392045.3023470803
20
563178.5672466329
10
1392045.3967367925
20
563178.850689341
10
1392045.5147786539
20
563179.2249324447
10
1392045.6564726636
20
563179.6899759443
10
1392045.8218188218
20
563180.2458198399
10
1392046.0008346173
20
563180.8498243133
10
1392046.1935200496
20
563181.5019893649
10
1392046.3998751186
20
563182.2023149945
10
1392046.619899825
20
563182.9508012021
10
1392046.8118522435
20
563183.6992874099
10
1392046.9757323747
20
563184.4477736175
10
1392047.1115402183
20
563185.1962598253
10
1392047.2192757747
20
563185.9447460328
10
1392047.3187058885
20
563186.6932322406
10
1392047.4098305595
20
563187.4417184482
10
1392047.4926497885
20
563188.1902046559
10
1392047.5671635745
20
563188.9386908635
10
1392047.6682654144
20
563189.5685735664
10
1392047.7959553078
20
563190.0798527645
10
1392047.9502332548
20
563190.4725284578
10
1392048.1310992555
20
563190.7466006463
10
1392048.322300719
20
563191.0707582925
10
1392048.5238376455
20
563191.4450013964
10
1392048.7357100353
20
563191.8693299579
10
1392048.957917888
20
563192.343743977
10
1392049.2297177163
20
563192.8866760433
10
1392049.5511095207
20
563193.4981261567
10
1392049.9220933006
20
563194.1780943172
10
1392050.3426690565
20
563194.9265805249
10
1392050.684526523
20
563195.5350312991
10
1392050.9476657007
20
563196.00344664
10
1392051.132086589
20
563196.3318265474
10
1392051.2377891883
20
563196.5201710213
10
1392051.393063692
20
563196.8014648103
10
1392051.5979101001
20
563197.1757079142
10
1392051.8523284125
20
563197.6429003328
10
1392052.1563186294
20
563198.2030420665
10
1392052.4954352898
20
563198.8056557283
10
1392052.8696783937
20
563199.4507413183
10
1392053.279047941
20
563200.1382988363
10
1392053.7235439315
20
563200.8683282824
10
1392054.0593730772
20
563201.4204645574
10
1392054.2865353783
20
563201.7947076613
10
1392054.405030834
20
563201.991057594
10
1392054.4148594448
20
563202.0095143556
10
1392054.585821406
20
563202.2104784786
10
1392054.9179167177
20
563202.5939499632
10
1392055.4111453798
20
563203.1599288093
10
1392056.0655073924
20
563203.908415017
10
1392056.5773527978
20
563204.4905059435
10
1392056.9466815963
20
563204.9062015889
10
1392057.1734937876
20
563205.1555019533
10
1392057.257789372
20
563205.2384070365
10
1392057.4694661107
20
563205.4669811302
10
1392057.8085240037
20
563205.8412242339
10
1392058.274963051
20
563206.361136348
10
1392058.8687832528
20
563207.0267174726
10
1392059.3528149056
20
563207.5744646463
10
1392059.7270580095
20
563208.0043778693
10
1392059.9915125642
20
563208.3164571417
10
1392060.1461785703
20
563208.5107024633
10
1392060.3505659625
20
563208.7949466761
10
1392060.604674741
20
563209.1691897799
10
1392060.9085049059
20
563209.6334317748
10
1392061.262056457
20
563210.1876726608
10
1392061.5866860347
20
563210.7904748772
10
1392061.8823936388
20
563211.441838424
10
1392062.1491792693
20
563212.1417633013
10
1392062.387042926
20
563212.8902495089
10
1392062.6047084185
20
563213.5408142079
10
1392062.8021757468
20
563214.093457398
10
1392062.9794449108
20
563214.5481790794
10
1392063.1365159103
20
563214.9049792521
10
1392063.3040106841
20
563215.2705008904
10
1392063.481929232
20
563215.6447439941
10
1392063.670271554
20
563216.0277085636
10
1392063.8690376503
20
563216.4193945986
10
1392064.149268065
20
563216.9002806768
10
1392064.5109627983
20
563217.4703667981
10
1392064.9541218504
20
563218.1296529627
10
1392065.4787452207
20
563218.8781391702
10
1392065.878486934
20
563219.4482864512
10
1392066.1533469895
20
563219.8400948055
10
1392066.3033253879
20
563220.0535642328
10
1392066.328422129
20
563220.0886947335
10
1392066.4863652831
20
563220.2933815357
10
1392066.7771548508
20
563220.6676246396
10
1392067.2007908316
20
563221.211424045
10
1392067.7572732256
20
563221.924779752
10
1392068.2226359746
20
563222.5230111021
10
1392068.5968790783
20
563223.006118095
10
1392068.880002537
20
563223.3741007312
10
1392069.0720063508
20
563223.6269590103
10
1392069.3212563884
20
563223.9405097018
10
1392069.6277526496
20
563224.3147528055
10
1392069.9914951352
20
563224.7496883217
10
1392070.4124838444
20
563225.2453162504
10
1392070.8100997512
20
563225.7322578453
10
1392071.184342855
20
563226.2105131069
10
1392071.535213156
20
563226.6800820348
10
1392071.8627106545
20
563227.1409646291
10
1392072.1570885298
20
563227.5585274782
10
1392072.4183467822
20
563227.9327705821
10
1392072.6464854118
20
563228.2636939407
10
1392072.841504418
20
563228.551297554
10
1392073.1124822092
20
563228.9541218159
10
1392073.4594187848
20
563229.4721667264
10
1392073.882314145
20
563230.1054322853
10
1392074.3811682898
20
563230.853918493
10
1392074.7689621625
20
563231.4339091843
10
1392075.045695763
20
563231.8454043594
10
1392075.2113690916
20
563232.0884040181
10
1392075.2659821482
20
563232.1629081604
10
1392075.4539922108
20
563232.3872817835
10
1392075.7753992795
20
563232.7615248873
10
1392076.2302033547
20
563233.2856374719
10
1392076.8184044359
20
563233.9596195372
10
1392077.2996265283
20
563234.5125521163
10
1392077.6738696322
20
563234.9444352089
10
1392077.9411337473
20
563235.2552688152
10
1392078.1014188738
20
563235.4450529353
10
1392078.3356344074
20
563235.7270665471
10
1392078.643780348
20
563236.101309651
10
1392079.0258566958
20
563236.5677822467
10
1392079.481863451
20
563237.1264843345
10
1392079.8969883805
20
563237.6570223537
10
1392080.2712314844
20
563238.1593963047
10
1392080.6045927627
20
563238.6336061875
10
1392080.8970722149
20
563239.079652002
10
1392081.1745501154
20
563239.4897964611
10
1392081.4370264637
20
563239.8640395649
10
1392081.6845012598
20
563240.2023813134
10
1392081.9169745038
20
563240.5048217067
10
1392082.2203326775
20
563240.9118729038
10
1392082.5945757814
20
563241.4235349051
10
1392083.0397038152
20
563242.0398077103
10
1392083.555716779
20
563242.7606913194
10
1392083.9470035133
20
563243.3082546759
10
1392084.2135640178
20
563243.6824977797
10
1392084.355398293
20
563243.8834206309
10
1392084.3725063384
20
563243.9110232295
10
1392084.4784915838
20
563244.1188467303
10
1392084.6733540292
20
563244.5068911334
10
1392084.9570936745
20
563245.0751564387
10
1392085.3297105192
20
563245.8236426464
10
1392085.6988634823
20
563246.5408657168
10
1392086.0645525635
20
563247.2268256501
10
1392086.4267777626
20
563247.8815224459
10
1392086.7855390797
20
563248.5049561047
10
1392087.0729685836
20
563249.0037944859
10
1392087.2890662742
20
563249.3780375898
10
1392087.4338321516
20
563249.6276854163
10
1392087.507266216
20
563249.7527379652
10
1392087.6739231844
20
563250.0336489289
10
1392087.933803057
20
563250.4704183072
10
1392088.286905834
20
563251.0630461002
10
1392088.7332315156
20
563251.8115323078
10
1392089.1251573921
20
563252.4490108006
10
1392089.462683464
20
563252.9754815783
10
1392089.7458097306
20
563253.3909446411
10
1392089.9745361928
20
563253.6953999887
10
1392090.233541449
20
563254.0347492145
10
1392090.5228254995
20
563254.4089923183
10
1392090.842388344
20
563254.8181293001
10
1392091.192229983
20
563255.2621601601
10
1392091.554272354
20
563255.7104842773
10
1392091.928515458
20
563256.1631016518
10
1392092.3149592944
20
563256.6200122836
10
1392092.7136038633
20
563257.0812161725
10
1392093.0865376417
20
563257.498939669
10
1392093.4337606295
20
563257.8731827729
10
1392093.755272827
20
563258.2039454841
10
1392094.051074234
20
563258.4912278027
10
1392094.3860964896
20
563258.8172100872
10
1392094.7603395935
20
563259.1818923375
10
1392095.1738035455
20
563259.5852745536
10
1392095.6264883464
20
563260.0273567355
10
1392096.0682794312
20
563260.4355193784
10
1392096.4991768003
20
563260.8097624823
10
1392096.9191804535
20
563261.1500860471
10
1392097.3282903912
20
563261.4564900727
10
1392097.7199669117
20
563261.7485226502
10
1392098.0942100156
20
563262.0261837796
10
1392098.4510197027
20
563262.2894734608
10
1392098.7903959728
20
563262.5383916935
10
1392099.2320497273
20
563262.8216393705
10
1392099.7759809664
20
563263.1392164915
10
1392100.4221896897
20
563263.4911230566
10
1392101.170675897
20
563263.8773590656
10
1392101.7904829541
20
563264.1953690639
10
1392102.2816108603
20
563264.4451530512
10
1392102.6440596157
20
563264.6267110277
10
1392102.8778292204
20
563264.7400429936
10
1392103.1818355746
20
563264.906212782
10
1392103.5560786782
20
563265.1252203934
10
1392104.0005585316
20
563265.3970658276
10
1392104.515275135
20
563265.7217490845
10
1392105.040985038
20
563266.071212265
10
1392105.5776882411
20
563266.4454553688
10
1392106.1253847445
20
563266.844478396
10
1392106.6840745478
20
563267.2682813468
10
1392107.1505410015
20
563267.6251959895
10
1392107.5247841054
20
563267.9152223243
10
1392107.8068038593
20
563268.1383603511
10
1392107.9966002638
20
563268.2946100701
10
1392108.3260691187
20
563268.5305780589
10
1392108.7952104246
20
563268.8462643179
10
1392109.4040241814
20
563269.2416688468
10
1392110.1525103892
20
563269.7167916457
10
1392110.7557034101
20
563270.1024121674
10
1392111.2136032442
20
563270.3985304118
10
1392111.5262098918
20
563270.6051463789
10
1392111.6935233523
20
563270.7222600686
10
1392111.9643016346
20
563270.8856556321
10
1392112.3385447385
20
563271.0953330692
10
1392112.816252664
20
563271.3512923799
10
1392113.3974254108
20
563271.6535335643
10
1392114.0133471258
20
563271.9917757084
10
1392114.6640178086
20
563272.3660188122
10
1392115.3494374596
20
563272.7762628758
10
1392116.0696060786
20
563273.222507899
10
1392116.61681194
20
563273.561347942
10
1392116.9910550436
20
563273.7927830046
10
1392117.19233539
20
563273.9168130867
10
1392117.2206529789
20
563273.9334381886
10
1392117.4290127223
20
563274.0922997061
10
1392117.8174146207
20
563274.3933976393
10
1392118.3858586736
20
563274.8367319884
10
1392119.1343448812
20
563275.4223027532
10
1392119.7484855799
20
563275.8980534121
10
1392120.2282807694
20
563276.2639839649
10
1392120.57373045
20
563276.5200944119
10
1392120.7848346217
20
563276.6663847531
10
1392121.0775082593
20
563276.8495255113
10
1392121.451751363
20
563277.0695166865
10
1392121.9075639332
20
563277.326358279
10
1392122.4449459692
20
563277.6200502887
10
1392123.0351040484
20
563277.9416065239
10
1392123.67803817
20
563278.291026985
10
1392124.373748335
20
563278.6683116717
10
1392125.1222345424
20
563279.0734605842
10
1392125.7054293193
20
563279.38973359
10
1392126.1233326653
20
563279.6171306889
0
LWPOLYLINE
5
3A
330
C
100
AcDbEntity
8
C-TOPO-MAJR-E
100
AcDbPolyline
90
231
70
0
43
0
38
0
39
0
10
1392047.129868513
20
563158.2507563491
10
1392047.286639267
20
563158.9992425567
10
1392047.4544866178
20
563159.7477287643
10
1392047.6334105646
20
563160.4962149721
10
1392047.8234111075
20
563161.2447011798
10
1392048.0244882465
20
563161.9931873874
10
1392048.1800644947
20
563162.5691066558
10
1392048.290139852
20
563162.9724589848
10
1392048.3547143182
20
563163.2032443746
10
1392048.3737878934
20
563163.261462825
10
1392048.4450295486
20
563163.4776936022
10
1392048.5684392834
20
563163.8519367059
10
1392048.7440170983
20
563164.3841921365
10
1392048.971762993
20
563165.0744598937
10
1392049.206116342
20
563165.7792822636
10
1392049.4470771458
20
563166.498659246
10
1392049.694645404
20
563167.2325908411
10
1392049.9488211162
20
563167.9810770487
10
1392050.2060940508
20
563168.7061636392
10
1392050.466464207
20
563169.4078506124
10
1392050.7299315857
20
563170.0861379683
10
1392050.9964961864
20
563170.741025707
10
1392051.206413762
20
563171.2555911283
10
1392051.3596843123
20
563171.6298342322
10
1392051.4563078377
20
563171.8637550185
10
1392051.4962843382
20
563171.9573534875
10
1392051.6333658188
20
563172.2146738912
10
1392051.8675522793
20
563172.6357162294
10
1392052.19884372
20
563173.2204805025
10
1392052.6272401405
20
563173.9689667101
10
1392053.0185657777
20
563174.6343152076
10
1392053.3728206316
20
563175.2165259947
10
1392053.6900047017
20
563175.7155990716
10
1392053.970117988
20
563176.1315344382
10
1392054.249754991
20
563176.5266236735
10
1392054.5289157098
20
563176.9008667774
10
1392054.8076001452
20
563177.2542637498
10
1392055.0858082972
20
563177.5868145907
10
1392055.4120339248
20
563177.9726600517
10
1392055.7862770287
20
563178.4118001325
10
1392056.2085376086
20
563178.9042348331
10
1392056.6788156645
20
563179.4499641533
10
1392057.0743233312
20
563179.9099503655
10
1392057.3950606084
20
563180.2841934694
10
1392057.641027496
20
563180.5726934649
10
1392057.8122239944
20
563180.7754503521
10
1392058.0849437953
20
563181.0997749285
10
1392058.4591868992
20
563181.5456671943
10
1392058.9349533059
20
563182.1131271492
10
1392059.5122430152
20
563182.8021547934
10
1392059.957763628
20
563183.3337901675
10
1392060.271515144
20
563183.7080332714
10
1392060.4534975637
20
563183.924884105
10
1392060.503710887
20
563183.9843426683
10
1392060.6875402723
20
563184.216058143
10
1392061.00498572
20
563184.6200305285
10
1392061.45604723
20
563185.1962598253
10
1392062.0407248028
20
563185.9447460328
10
1392062.50763181
20
563186.5415939034
10
1392062.8567682523
20
563186.9868034369
10
1392063.0881341295
20
563187.2803746331
10
1392063.2017294415
20
563187.4223074925
10
1392063.4209873942
20
563187.680395474
10
1392063.745907987
20
563188.0546385776
10
1392064.17649122
20
563188.5450368038
10
1392064.7127370937
20
563189.1515901523
10
1392065.1679815822
20
563189.6731330787
10
1392065.5422246861
20
563190.1096655829
10
1392065.8354664051
20
563190.4611876651
10
1392066.0477067393
20
563190.7276993252
10
1392066.3223913724
20
563191.0480767072
10
1392066.6595203043
20
563191.4223198111
10
1392067.0590935352
20
563191.8504286368
10
1392067.5211110653
20
563192.3324031844
10
1392067.939241382
20
563192.7657104065
10
1392068.3134844857
20
563193.1503503033
10
1392068.6438403768
20
563193.4863228744
10
1392068.9303090544
20
563193.7736281203
10
1392069.3187963925
20
563194.1044022951
10
1392069.8093023906
20
563194.478645399
10
1392070.401827049
20
563194.8963574318
10
1392071.0963703678
20
563195.3575383936
10
1392071.6307635792
20
563195.7132328202
10
1392072.005006683
20
563195.9634407111
10
1392072.2190996795
20
563196.108162067
10
1392072.2730425685
20
563196.1473968874
10
1392072.5006212872
20
563196.2593999349
10
1392072.9018358355
20
563196.4441712092
10
1392073.4766862136
20
563196.7017107107
10
1392074.225172421
20
563197.032018439
10
1392074.9736586288
20
563197.332320703
10
1392075.7221448363
20
563197.6026175023
10
1392076.470631044
20
563197.8429088374
10
1392077.2191172517
20
563198.053194708
10
1392077.8597026356
20
563198.253073558
10
1392078.3923871955
20
563198.4425453874
10
1392078.8171709315
20
563198.6216101963
10
1392079.1340538436
20
563198.7902679846
10
1392079.4796168515
20
563199.0868261512
10
1392079.8538599554
20
563199.5112846963
10
1392080.256783155
20
563200.0636436195
10
1392080.6883864505
20
563200.7439029212
10
1392081.0176952756
20
563201.2711541239
10
1392081.2447096298
20
563201.6453972277
10
1392081.3694295136
20
563201.8666322327
10
1392081.391854927
20
563201.9348591388
10
1392081.4151421238
20
563202.1731508703
10
1392081.4392911047
20
563202.581507427
10
1392081.4643018693
20
563203.1599288093
10
1392081.4901744174
20
563203.908415017
10
1392081.5486939345
20
563204.6569012246
10
1392081.6398604203
20
563205.4053874322
10
1392081.7636738745
20
563206.1538736399
10
1392081.920134297
20
563206.9023598477
10
1392082.1073827771
20
563207.6508460554
10
1392082.3254193137
20
563208.3993322629
10
1392082.5742439078
20
563209.1478184706
10
1392082.8538565584
20
563209.8963046783
10
1392083.1295948396
20
563210.6293956392
10
1392083.4014587514
20
563211.3470913533
10
1392083.6694482933
20
563212.0493918207
10
1392083.933563466
20
563212.7362970414
10
1392084.1372309455
20
563213.2668712037
10
1392084.280450732
20
563213.6411143075
10
1392084.3632228256
20
563213.8590263529
10
1392084.385547226
20
563213.9206073399
10
1392084.4428998325
20
563214.153914632
10
1392084.5352806454
20
563214.5589482295
10
1392084.662689664
20
563215.135708132
10
1392084.8251268882
20
563215.8841943396
10
1392085.0135830133
20
563216.6326805472
10
1392085.2280580392
20
563217.381166755
10
1392085.4685519654
20
563218.1296529627
10
1392085.7350647924
20
563218.8781391702
10
1392086.0092523517
20
563219.5901947528
10
1392086.2911146428
20
563220.2658197101
10
1392086.5806516663
20
563220.9050140422
10
1392086.8778634218
20
563221.5077777491
10
1392087.1182970235
20
563221.9962811545
10
1392087.3019524713
20
563222.3705242584
10
1392087.4288297652
20
563222.6305070607
10
1392087.4989289052
20
563222.7762295614
10
1392087.6694033095
20
563223.0726429889
10
1392087.9402529777
20
563223.5197473431
10
1392088.3114779103
20
563224.117542624
10
1392088.783078107
20
563224.8660288317
10
1392089.1884749723
20
563225.478187333
10
1392089.5276685064
20
563225.954018128
10
1392089.8006587087
20
563226.2935212166
10
1392090.0074455796
20
563226.4966965988
10
1392090.3237170586
20
563226.7854058419
10
1392090.7494731455
20
563227.1596489458
10
1392091.2847138406
20
563227.6194259103
10
1392091.9294391435
20
563228.1647367358
10
1392092.4389233468
20
563228.5902046071
10
1392092.8131664507
20
563228.8958295246
10
1392093.052168455
20
563229.0816114879
10
1392093.1559293596
20
563229.1475504973
10
1392093.42087159
20
563229.3000511087
10
1392093.8469951462
20
563229.5391133223
10
1392094.4343000283
20
563229.8647371379
10
1392095.1827862356
20
563230.2769225558
10
1392095.8805971197
20
563230.6536520642
10
1392096.52773268
20
563230.9949256633
10
1392097.1241929168
20
563231.3007433531
10
1392097.6699778293
20
563231.5711051337
10
1392098.1299918378
20
563231.7998086171
10
1392098.5042349417
20
563231.9868538033
10
1392098.792707141
20
563232.1322406924
10
1392098.9954084358
20
563232.2359692842
10
1392099.3345559589
20
563232.4054958144
10
1392099.8101497102
20
563232.640820283
10
1392100.4221896897
20
563232.9419426898
10
1392101.170675897
20
563233.3088630349
10
1392101.8580735605
20
563233.6535126115
10
1392102.4843826797
20
563233.9758914193
10
1392103.0496032545
20
563234.2759994586
10
1392103.5537352848
20
563234.5538367293
10
1392103.9929228518
20
563234.8041652362
10
1392104.3671659557
20
563235.0269849794
10
1392104.6764645963
20
563235.2222959589
10
1392104.9208187736
20
563235.3900981747
10
1392105.2912059585
20
563235.6521287971
10
1392105.787626151
20
563236.0083878264
10
1392106.410079351
20
563236.4588752622
10
1392107.1585655583
20
563237.0035911049
10
1392107.7339991606
20
563237.421120024
10
1392108.1363801572
20
563237.7114620201
10
1392108.3657085486
20
563237.8746170927
10
1392108.421984334
20
563237.910585242
10
1392108.637243779
20
563238.0650776774
10
1392109.0114868826
20
563238.3380943988
10
1392109.5447136455
20
563238.7296354063
10
1392110.2369240678
20
563239.2397006999
10
1392110.8569475103
20
563239.6818548986
10
1392111.404783973
20
563240.0560980024
10
1392111.8804334563
20
563240.3624300114
10
1392112.2838959598
20
563240.6008509254
10
1392112.6727487636
20
563240.8412356966
10
1392113.0469918672
20
563241.0835843247
10
1392113.4066252713
20
563241.3278968099
10
1392113.7516489753
20
563241.5741731522
10
1392114.1975383053
20
563241.8836105064
10
1392114.744293261
20
563242.2562088724
10
1392115.3919138429
20
563242.6919682503
10
1392116.1404000507
20
563243.1908886401
10
1392116.702707096
20
563243.5659013013
10
1392117.0788349789
20
563243.8170062341
10
1392117.2687836997
20
563243.9442034382
10
1392117.272553258
20
563243.9474929138
10
1392117.461559589
20
563244.1152880501
10
1392117.835802693
20
563244.4475888475
10
1392118.3952825696
20
563244.9443953055
10
1392119.1399992188
20
563245.6057074243
10
1392119.7388701031
20
563246.1234850357
10
1392120.1918952223
20
563246.4977281394
10
1392120.499074577
20
563246.7284367358
10
1392120.6604081662
20
563246.8156108246
10
1392120.928196513
20
563246.9498578864
10
1392121.302439617
20
563247.1311779208
10
1392121.783137478
20
563247.3595709282
10
1392122.370290096
20
563247.6350369083
10
1392122.9545737603
20
563247.9598914504
10
1392123.535988471
20
563248.3341345543
10
1392124.114534228
20
563248.7577662199
10
1392124.6902110311
20
563249.2307864473
10
1392125.1651709848
20
563249.6212878744
10
1392125.5394140885
20
563249.9292705011
10
1392125.8129403426
20
563250.1547343272
10
1392125.9857497474
20
563250.297679353
10
1392126.3024783526
20
563250.5285306377
0
LWPOLYLINE
5
3B
330
C
100
AcDbEntity
8
C-TOPO-MAJR-E
100
AcDbPolyline
90
174
70
0
43
0
38
0
39
0
10
1392057.2954694657
20
563158.2283680254
10
1392057.3545771253
20
563158.6355577749
10
1392057.4136169225
20
563159.0098008786
10
1392057.4725888572
20
563159.3510973369
10
1392057.5314929294
20
563159.6594471494
10
1392057.653042288
20
563160.0778310607
10
1392057.8372369325
20
563160.6062490708
10
1392058.0840768632
20
563161.2447011798
10
1392058.3935620803
20
563161.9931873874
10
1392058.7207002225
20
563162.727739288
10
1392059.0654912903
20
563163.4483568816
10
1392059.4279352832
20
563164.1550401681
10
1392059.8080322016
20
563164.8477891475
10
1392060.1079655336
20
563165.3812851892
10
1392060.327735279
20
563165.755528293
10
1392060.467341438
20
563165.970518459
10
1392060.5267840105
20
563166.0262556872
10
1392060.7436268486
20
563166.1884480995
10
1392061.1178699522
20
563166.4570956961
10
1392061.649513322
20
563166.8321984768
10
1392062.338556957
20
563167.3137564413
10
1392063.0424612355
20
563167.7131353458
10
1392063.7612261567
20
563168.0303351899
10
1392064.4948517215
20
563168.2653559737
10
1392065.2433379288
20
563168.418197697
10
1392065.9086269015
20
563168.5613506195
10
1392066.4907186385
20
563168.6948147409
10
1392066.9896131407
20
563168.8185900614
10
1392067.4053104075
20
563168.9326765811
10
1392067.8002805929
20
563169.0553110373
10
1392068.1745236968
20
563169.1864934303
10
1392068.5280397192
20
563169.32622376
10
1392068.86082866
20
563169.4745020265
10
1392069.2975419175
20
563169.7345433999
10
1392069.838179492
20
563170.1063478803
10
1392070.482741383
20
563170.5899154678
10
1392071.2312275902
20
563171.1852461622
10
1392071.7939504532
20
563171.6329634947
10
1392072.1709099715
20
563171.9330674653
10
1392072.3621061447
20
563172.0855580741
10
1392072.3675389732
20
563172.0904353207
10
1392072.5573769393
20
563172.2611589944
10
1392072.9316200432
20
563172.5977290948
10
1392073.4902682847
20
563173.100145622
10
1392074.233321664
20
563173.7684085761
10
1392074.8079971776
20
563174.289661605
10
1392075.2142948254
20
563174.6639047088
10
1392075.452214608
20
563174.8911378876
10
1392075.5217565252
20
563174.9713611412
10
1392075.7104731281
20
563175.2186501333
10
1392076.018364417
20
563175.633004864
10
1392076.445430392
20
563176.2144253331
10
1392076.9916710532
20
563176.9629115409
10
1392077.4345274563
20
563177.5842086506
10
1392077.7739996016
20
563178.0783166626
10
1392078.0100874892
20
563178.4452355767
10
1392078.1427911187
20
563178.6849653928
10
1392078.296591242
20
563178.9919518528
10
1392078.471487859
20
563179.3661949567
10
1392078.6674809696
20
563179.8076947043
10
1392078.884570574
20
563180.3164510957
10
1392079.168504409
20
563180.8851399412
10
1392079.519282475
20
563181.5137612409
10
1392079.9369047722
20
563182.2023149945
10
1392080.4213712998
20
563182.9508012021
10
1392080.7964537146
20
563183.5341758949
10
1392081.0621520164
20
563183.9524390728
10
1392081.218466205
20
563184.2055907358
10
1392081.2653962804
20
563184.2936308839
10
1392081.3556161409
20
563184.5247725099
10
1392081.489125786
20
563184.8990156137
10
1392081.6659252162
20
563185.4163601954
10
1392081.8860144312
20
563186.076806255
10
1392082.1476424509
20
563186.7592623516
10
1392082.4508092748
20
563187.4637284853
10
1392082.795514904
20
563188.1902046559
10
1392083.1817593374
20
563188.9386908635
10
1392083.5069808026
20
563189.5375320502
10
1392083.7711792989
20
563189.986728216
10
1392083.9743548266
20
563190.2862793609
10
1392084.1165073859
20
563190.4361854848
10
1392084.3102483456
20
563190.6982600987
10
1392084.5555777065
20
563191.0725032024
10
1392084.8524954678
20
563191.5589147962
10
1392085.2010016302
20
563192.15749488
10
1392085.562376263
20
563192.7354957887
10
1392085.936619367
20
563193.2929175221
10
1392086.3237309416
20
563193.8297600806
10
1392086.723710987
20
563194.3460234638
10
1392087.072965098
20
563194.7912767073
10
1392087.3714932748
20
563195.165519811
10
1392087.6192955172
20
563195.4687527751
10
1392087.8163718253
20
563195.7009755997
10
1392088.1020315313
20
563196.0112850845
10
1392088.4762746352
20
563196.3996812301
10
1392088.939101137
20
563196.866164036
10
1392089.4905110367
20
563197.4107335024
10
1392089.9939048602
20
563197.8701397876
10
1392090.449282608
20
563198.2443828913
10
1392090.8566442793
20
563198.5334628139
10
1392091.2159898747
20
563198.7373795552
10
1392091.5827842243
20
563198.9588640605
10
1392091.9570273282
20
563199.1979163295
10
1392092.3387191861
20
563199.4545363626
10
1392092.7278597984
20
563199.7287241594
10
1392093.2068368094
20
563200.0129858206
10
1392093.7756502193
20
563200.3073213459
10
1392094.4343000283
20
563200.6117307355
10
1392095.1827862356
20
563200.9262139893
10
1392095.9075740443
20
563201.2020302188
10
1392096.6086634542
20
563201.4391794242
10
1392097.286054465
20
563201.6376616054
10
1392097.9397470767
20
563201.7974767623
10
1392098.4537149346
20
563201.9271218871
10
1392098.8279580385
20
563202.0265969796
10
1392099.0624763884
20
563202.0959020398
10
1392099.1572699843
20
563202.1350370677
10
1392099.415486733
20
563202.2185431117
10
1392099.837126635
20
563202.3464201719
10
1392100.4221896897
20
563202.5186682481
10
1392101.170675897
20
563202.7352873405
10
1392101.9191621048
20
563202.9207034698
10
1392102.6676483124
20
563203.0749166361
10
1392103.41613452
20
563203.1979268396
10
1392104.1646207278
20
563203.2897340801
10
1392104.9131069356
20
563203.3680618794
10
1392105.6615931434
20
563203.4329102376
10
1392106.410079351
20
563203.4842791547
10
1392107.1585655583
20
563203.5221686306
10
1392107.9070517658
20
563203.5940116782
10
1392108.6555379736
20
563203.6998082978
10
1392109.4040241814
20
563203.839558489
10
1392110.1525103892
20
563204.013262252
10
1392110.8026820857
20
563204.1908729763
10
1392111.3545392707
20
563204.3723906617
10
1392111.8080819445
20
563204.5578153084
10
1392112.1633101073
20
563204.7471469163
10
1392112.5280457404
20
563204.9797817837
10
1392112.9022888443
20
563205.25571991
10
1392113.2860394188
20
563205.5749612958
10
1392113.6792974637
20
563205.9375059407
10
1392114.123694824
20
563206.3058998152
10
1392114.6192315002
20
563206.6801429188
10
1392115.1659074915
20
563207.0602352521
10
1392115.7637227983
20
563207.4461768151
10
1392116.2497520037
20
563207.7686390589
10
1392116.6239951076
20
563208.027621984
10
1392116.88645211
20
563208.2231255902
10
1392117.037123011
20
563208.3551498775
10
1392117.3251805727
20
563208.6082835731
10
1392117.7506247952
20
563208.982526677
10
1392118.3134556788
20
563209.477879189
10
1392119.013673223
20
563210.0943411093
10
1392119.5509035473
20
563210.5712576375
10
1392119.925146651
20
563210.9086287735
10
1392120.1364025346
20
563211.1064545176
10
1392120.1846711978
20
563211.1647348694
10
1392120.3392977733
20
563211.3809965972
10
1392120.6002822611
20
563211.7552397011
10
1392120.967624661
20
563212.287464181
10
1392121.4413249735
20
563212.9776700367
10
1392121.8652966814
20
563213.5518524871
10
1392122.2395397853
20
563214.0100115321
10
1392122.564054285
20
563214.3521471717
10
1392122.8388401803
20
563214.578259406
10
1392123.201163187
20
563214.8784370751
10
1392123.651023305
20
563215.2526801787
10
1392124.1884205341
20
563215.7009887174
10
1392124.813354875
20
563216.223362691
10
1392125.312943597
20
563216.6382440692
10
1392125.6871867008
20
563216.9456328521
10
1392125.9360841862
20
563217.1455290398
10
1392126.0596360536
20
563217.2379326322
10
1392126.329586279
20
563217.4712559804
0
LWPOLYLINE
5
3C
330
C
100
AcDbEntity
8
C-TOPO-MAJR-E
100
AcDbPolyline
90
120
70
0
43
0
38
0
39
0
10
1392088.9628168163
20
563158.2507563491
10
1392089.087831527
20
563158.9992425567
10
1392089.222302402
20
563159.7477287643
10
1392089.3662294408
20
563160.4962149721
10
1392089.5196126434
20
563161.2447011798
10
1392089.6824520095
20
563161.9931873874
10
1392089.8290137108
20
563162.6386767088
10
1392089.9592977474
20
563163.1811691441
10
1392090.073304119
20
563163.6206646932
10
1392090.171032826
20
563163.957163356
10
1392090.2778598825
20
563164.3125342394
10
1392090.3937852886
20
563164.6867773433
10
1392090.5188090443
20
563165.0798926675
10
1392090.6529311496
20
563165.4918802123
10
1392090.8191397227
20
563165.9879924229
10
1392091.0174347642
20
563166.568229299
10
1392091.2478162732
20
563167.2325908411
10
1392091.5102842504
20
563167.9810770487
10
1392091.768800351
20
563168.7295632565
10
1392092.0233645753
20
563169.478049464
10
1392092.2739769232
20
563170.2265356719
10
1392092.5206373944
20
563170.9750218794
10
1392092.7319416613
20
563171.6155265754
10
1392092.907889724
20
563172.1480497592
10
1392093.0484815822
20
563172.5725914314
10
1392093.1537172357
20
563172.8891515916
10
1392093.268667087
20
563173.2345532237
10
1392093.3933311356
20
563173.6087963276
10
1392093.5277093814
20
563174.0118809032
10
1392093.6718018244
20
563174.4438069505
10
1392093.8414729116
20
563174.954873038
10
1392094.036722643
20
563175.5450791655
10
1392094.2575510186
20
563176.2144253331
10
1392094.503958038
20
563176.9629115409
10
1392094.7596453154
20
563177.7113977486
10
1392095.02461285
20
563178.4598839561
10
1392095.2988606426
20
563179.2083701638
10
1392095.582388693
20
563179.9568563715
10
1392095.7610774154
20
563180.7053425792
10
1392095.83492681
20
563181.4538287867
10
1392095.8039368773
20
563182.2023149945
10
1392095.6681076165
20
563182.9508012021
10
1392095.4704646892
20
563183.6992874099
10
1392095.2110080956
20
563184.4477736175
10
1392094.8897378356
20
563185.1962598253
10
1392094.506653909
20
563185.9447460328
10
1392094.1805623826
20
563186.6441989181
10
1392093.9114632562
20
563187.294618481
10
1392093.6993565303
20
563187.8960047213
10
1392093.544242205
20
563188.4483576394
10
1392093.4166856022
20
563188.9116556502
10
1392093.3166867215
20
563189.2858987539
10
1392093.2442455639
20
563189.5710869507
10
1392093.1993621287
20
563189.7672202404
10
1392093.1769204112
20
563189.9353196186
10
1392093.1769204112
20
563190.0753850852
10
1392093.1993621287
20
563190.1874166402
10
1392093.2442455639
20
563190.2714142837
10
1392093.3956298158
20
563190.5005346574
10
1392093.653514884
20
563190.874777761
10
1392094.0179007691
20
563191.3941435951
10
1392094.4887874709
20
563192.0586321594
10
1392094.9113523737
20
563192.5977566297
10
1392095.2855954776
20
563193.011517006
10
1392095.6115167825
20
563193.2999132883
10
1392095.8891162882
20
563193.4629454768
10
1392096.2844374697
20
563193.6544338093
10
1392096.7974803266
20
563193.8743782861
10
1392097.428244859
20
563194.1227789071
10
1392098.1767310663
20
563194.3996356721
10
1392098.925217274
20
563194.6424039368
10
1392099.673703482
20
563194.8510837012
10
1392100.4221896897
20
563195.0256749652
10
1392101.170675897
20
563195.1661777288
10
1392101.9191621048
20
563195.2674192905
10
1392102.6676483124
20
563195.3293996503
10
1392103.41613452
20
563195.3521188082
10
1392104.1646207278
20
563195.335576764
10
1392104.9131069356
20
563195.2711497039
10
1392105.6615931434
20
563195.1588376279
10
1392106.410079351
20
563194.9986405356
10
1392107.1585655583
20
563194.7905584275
10
1392107.8983159796
20
563194.545554955
10
1392108.629330615
20
563194.2636301186
10
1392109.3516094638
20
563193.9447839179
10
1392110.0651525266
20
563193.589016353
10
1392110.6090456098
20
563193.3169459719
10
1392110.9832887137
20
563193.1285727746
10
1392111.187881838
20
563193.0238967611
10
1392111.222824983
20
563193.0029179315
10
1392111.4361538938
20
563192.8664287352
10
1392111.8278685703
20
563192.6144291724
10
1392112.3979690124
20
563192.2469192429
10
1392113.1464552197
20
563191.7638989468
10
1392113.8115871502
20
563191.3405119543
10
1392114.3933648039
20
563190.9767582652
10
1392114.89178818
20
563190.6726378797
10
1392115.306857279
20
563190.4281507978
10
1392115.7015133805
20
563190.1801218356
10
1392116.0757564842
20
563189.9285509927
10
1392116.4295865905
20
563189.6734382695
10
1392116.7630036992
20
563189.4147836659
10
1392117.2001880826
20
563189.1035603147
10
1392117.7411397407
20
563188.7397682159
10
1392118.3858586736
20
563188.3234073697
10
1392119.1343448812
20
563187.8544777757
10
1392119.7088241884
20
563187.4975550778
10
1392120.1092965954
20
563187.2526392757
10
1392120.3357621017
20
563187.1197303697
10
1392120.388220708
20
563187.0988283595
10
1392120.6015715627
20
563186.9840201016
10
1392120.9758146666
20
563186.7753055962
10
1392121.5109500194
20
563186.4726848428
10
1392122.206977621
20
563186.0761578418
10
1392122.916119874
20
563185.7144893529
10
1392123.638376779
20
563185.3876793762
10
1392124.373748335
20
563185.0957279115
10
1392125.1222345424
20
563184.8386349587
10
1392125.7696950724
20
563184.6220986808
10
1392126.3161299252
20
563184.4461190775
0
LWPOLYLINE
5
3D
330
C
100
AcDbEntity
8
C-SITE-N
100
AcDbPolyline
90
5
70
1
43
0
38
0
39
0
10
1392021.4228079454
20
563288.4140767825
10
1391984.1319131248
20
563252.592063094
10
1392041.740530722
20
563198.38715606
10
1392080.1488426689
20
563240.9422973022
10
1392021.4228079454
20
563288.4140767825
0
LWPOLYLINE
5
3E
330
C
100
AcDbEntity
8
C-BLDG-FTPR-N
100
AcDbPolyline
90
5
70
1
43
0
38
0
39
0
10
1391992.943382342
20
563244.3012050649
10
1392022.5823514957
20
563216.4134057292
10
1392042.788487688
20
563237.8883539711
10
1392013.1495185343
20
563265.7761533067
10
1391992.943382342
20
563244.3012050649
0
LWPOLYLINE
5
3F
330
C
100
AcDbEntity
8
C-PVMT
100
AcDbPolyline
90
5
70
1
43
0
38
0
39
0
10
1391989.6878133973
20
563219.9030029245
10
1391998.4273465325
20
563211.6798307521
10
1392012.1326334865
20
563226.2457193108
10
1392003.3931003513
20
563234.4688914833
10
1391989.6878133973
20
563219.9030029245
0
LWPOLYLINE
5
40
330
C
100
AcDbEntity
8
C-PVMT
100
AcDbPolyline
90
5
70
1
43
0
38
0
39
0
10
1392008.8337935207
20
563230.0361882632
10
1392005.4074717823
20
563226.3947161236
10
1392012.5447571762
20
563219.6791255161
10
1392015.9710789146
20
563223.3205976557
10
1392008.8337935207
20
563230.0361882632
0
LWPOLYLINE
5
41
330
C
100
AcDbEntity
8
C-PVMT
100
AcDbPolyline
90
5
70
1
43
0
38
0
39
0
10
1392002.1086318165
20
563230.1851850761
10
1392007.9349872398
20
563224.7030702945
10
1392010.6760446306
20
563227.6162480062
10
1392004.8496892073
20
563233.0983627879
10
1392002.1086318165
20
563230.1851850761
0
LWPOLYLINE
5
42
330
C
100
AcDbEntity
8
C-PVMT
100
AcDbPolyline
90
5
70
1
43
0
38
0
39
0
10
1391964.2209529628
20
563243.8651957331
10
1392033.8007999652
20
563178.3963597236
10
1392035.8565930082
20
563180.5812430074
10
1391966.2767460058
20
563246.050079017
10
1391964.2209529628
20
563243.8651957331
0
LWPOLYLINE
5
43
330
C
100
AcDbEntity
8
C-TOPO-SURF
100
AcDbPolyline
90
5
70
1
43
0
38
0
39
0
10
1391961.479895572
20
563240.9520180214
10
1392031.0597425743
20
563175.4831820119
10
1392033.8007999652
20
563178.3963597236
10
1391964.2209529628
20
563243.8651957331
10
1391961.479895572
20
563240.9520180214
0
LWPOLYLINE
5
44
330
C
100
AcDbEntity
8
C-PVMT
100
AcDbPolyline
90
5
70
1
43
0
38
0
39
0
10
1391960.4519990503
20
563239.8595763795
10
1392030.0318460527
20
563174.39074037
10
1392031.0597425743
20
563175.4831820119
10
1391961.479895572
20
563240.9520180214
10
1391960.4519990503
20
563239.8595763795
0
LWPOLYLINE
5
45
330
C
100
AcDbEntity
8
C-PVMT
100
AcDbPolyline
90
5
70
1
43
0
38
0
39
0
10
1391996.843275904
20
563205.6184183554
10
1391983.733976201
20
563217.953176614
10
1391991.7436064403
20
563222.0878862083
10
1392000.4831395755
20
563213.8647140359
10
1391996.843275904
20
563205.6184183554
0
LWPOLYLINE
5
46
330
C
100
AcDbEntity
8
C-LODS
100
AcDbPolyline
90
10
70
1
43
0
38
0
39
0
10
1391960.4519990503
20
563239.8595763795
10
1391983.733976201
20
563217.953176614
10
1392030.0318460527
20
563174.39074037
10
1392031.0597425743
20
563175.4831820119
10
1392033.8007999652
20
563178.3963597236
10
1392035.8565930082
20
563180.5812430074
10
1392042.788487688
20
563237.8883539711
10
1392013.1495185343
20
563265.7761533067
10
1391966.2767460058
20
563246.050079017
10
1391960.4519990503
20
563239.8595763795
0
LWPOLYLINE
5
47
330
C
100
AcDbEntity
8
C-SITE-N
100
AcDbPolyline
90
5
70
1
43
0
38
0
39
0
10
1392101.1675542665
20
563257.8379618812
10
1392034.8633962078
20
563183.2821441259
10
1391969.20505047
20
563244.2636578238
10
1392038.2930649202
20
563309.2040477319
10
1392101.1675542665
20
563257.8379618812
0
POINT
5
48
330
C
100
AcDbEntity
8
C-TOPO-SPOT
100
AcDbPoint
10
1392049.5226163142
20
563250.6847812377
30
0
0
LWPOLYLINE
5
49
330
C
100
AcDbEntity
8
C-UTIL
100
AcDbPolyline
90
2
70
0
43
0
38
0
39
0
10
1391961.5442362437
20
563206.5525271535
10
1391995.128265626
20
563242.2454120218
0
LWPOLYLINE
5
4A
330
C
100
AcDbEntity
8
C-UTIL
100
AcDbPolyline
90
2
70
0
43
0
38
0
39
0
10
1391968.827180523
20
563199.6998836765
10
1392002.4112099053
20
563235.3927685447
0
LWPOLYLINE
5
4B
330
C
100
AcDbEntity
8
C-SWMG
100
AcDbPolyline
90
5
70
1
43
0
38
0
39
0
10
1392032.6902022113
20
563199.9124040358
10
1392047.4888507982
20
563199.9124040358
10
1392047.4888507982
20
563214.7110526228
10
1392032.6902022113
20
563214.7110526228
10
1392032.6902022113
20
563199.9124040358
0
LWPOLYLINE
5
4C
330
C
100
AcDbEntity
8
C-STRM-AREA
100
AcDbPolyline
90
5
70
1
43
0
38
0
39
0
10
1392106.1202730683
20
563258.5239476461
10
1392033.8007999652
20
563178.3963597236
10
1391964.2209529628
20
563243.8651957331
10
1392037.350782506
20
563314.1144554393
10
1392106.1202730683
20
563258.5239476461
0
LWPOLYLINE
5
4D
330
C
100
AcDbEntity
8
L-PLNT-TREE
100
AcDbPolyline
90
5
70
1
43
0
38
0
39
0
10
1391978.9879135585
20
563213.4007782569
10
1391988.9879135585
20
563213.4007782569
10
1391988.9879135585
20
563223.4007782569
10
1391978.9879135585
20
563223.4007782569
10
1391978.9879135585
20
563213.4007782569
0
LWPOLYLINE
5
4E
330
C
100
AcDbEntity
8
L-PLNT-TREE
100
AcDbPolyline
90
5
70
1
43
0
38
0
39
0
10
1392002.1811958926
20
563191.5778329204
10
1392012.1811958926
20
563191.5778329204
10
1392012.1811958926
20
563201.5778329204
10
1392002.1811958926
20
563201.5778329204
10
1392002.1811958926
20
563191.5778329204
0
ENDSEC
0
SECTION
2
OBJECTS
0
DICTIONARY
5
A
330
0
100
AcDbDictionary
281
1
3
ACAD_GROUP
350
B
0
DICTIONARY
5
B
330
A
100
AcDbDictionary
281
0
0
ENDSEC
0
EOF