0
SECTION
2
HEADER
9
$ACADVER
1
AC1021
9
$LASTSAVEDBY
1
@tarikjabiri/dxf
9
$HANDSEED
5
6E
9
$INSUNITS
70
0
9
$CLAYER
8
0
9
$VIEWCTR
10
1294118.6101418561
20
461591.81911502394
0
ENDSEC
0
SECTION
2
CLASSES
0
ENDSEC
0
SECTION
2
TABLES
0
TABLE
2
VPORT
5
1
330
0
100
AcDbSymbolTable
70
1
0
VPORT
5
19
330
1
100
AcDbSymbolTableRecord
100
AcDbViewportTableRecord
2
*Active
70
0
10
0
20
0
11
1
21
1
12
1294118.6101418561
22
461591.81911502394
13
0
23
0
14
10
24
10
15
10
25
10
16
0
26
0
36
1
17
0
27
0
37
0
40
392.7415933915763
41
2
42
50
43
0
44
0
50
0
51
0
71
0
72
100
73
1
74
3
75
0
76
1
77
0
78
0
281
0
65
1
110
0
120
0
130
0
111
1
121
0
131
0
112
0
122
1
132
0
79
0
146
0
348
10020
60
7
61
5
292
1
282
1
141
0
142
0
63
250
421
3358443
0
ENDTAB
0
TABLE
2
LTYPE
5
2
330
0
100
AcDbSymbolTable
70
7
0
LTYPE
5
12
330
2
100
AcDbSymbolTableRecord
100
AcDbLinetypeTableRecord
2
ByBlock
70
0
3

72
65
73
0
40
0
0
LTYPE
5
13
330
2
100
AcDbSymbolTableRecord
100
AcDbLinetypeTableRecord
2
ByLayer
70
0
3

72
65
73
0
40
0
0
LTYPE
5
14
330
2
100
AcDbSymbolTableRecord
100
AcDbLinetypeTableRecord
2
Continuous
70
0
3
Solid line
72
65
73
0
40
0
0
LTYPE
5
1A
330
2
100
AcDbSymbolTableRecord
100
AcDbLinetypeTableRecord
2
DASHED
70
0
3
Dashed __ __ __ __ __ __
72
65
73
2
40
6
49
4
74
0
49
-2
74
0
0
LTYPE
5
1B
330
2
100
AcDbSymbolTableRecord
100
AcDbLinetypeTableRecord
2
HIDDEN
70
0
3
Hidden __ __ __ __ __
72
65
73
2
40
3
49
2
74
0
49
-1
74
0
0
LTYPE
5
1C
330
2
100
AcDbSymbolTableRecord
100
AcDbLinetypeTableRecord
2
PHANTOM
70
0
3
Phantom ____ _ _ ____ _ _
72
65
73
6
40
13
49
8
74
0
49
-1
74
0
49
1
74
0
49
-1
74
0
49
1
74
0
49
-1
74
0
0
LTYPE
5
1D
330
2
100
AcDbSymbolTableRecord
100
AcDbLinetypeTableRecord
2
DASHDOT
70
0
3
Dash dot __ . __ . __ .
72
65
73
4
40
8
49
4
74
0
49
-2
74
0
49
0
74
0
49
-2
74
0
0
ENDTAB
0
TABLE
2
LAYER
5
3
330
0
100
AcDbSymbolTable
70
14
0
LAYER
5
15
330
3
100
AcDbSymbolTableRecord
100
AcDbLayerTableRecord
2
0
70
0
62
7
6
Continuous
370
0
390
0
0
LAYER
5
1E
330
3
100
AcDbSymbolTableRecord
100
AcDbLayerTableRecord
2
C-BLDG-FTPR-N
70
0
62
6
6
Continuous
370
0
390
0
0
LAYER
5
1F
330
3
100
AcDbSymbolTableRecord
100
AcDbLayerTableRecord
2
C-LODS
70
0
62
30
6
PHANTOM
370
0
390
0
0
LAYER
5
20
330
3
100
AcDbSymbolTableRecord
100
AcDbLayerTableRecord
2
C-PVMT
70
0
62
8
6
Continuous
370
0
390
0
0
LAYER
5
21
330
3
100
AcDbSymbolTableRecord
100
AcDbLayerTableRecord
2
C-SITE-N
70
0
62
6
6
Continuous
370
0
390
0
0
LAYER
5
22
330
3
100
AcDbSymbolTableRecord
100
AcDbLayerTableRecord
2
C-STRM-AREA
70
0
62
150
6
PHANTOM
370
0
390
0
0
LAYER
5
23
330
3
100
AcDbSymbolTableRecord
100
AcDbLayerTableRecord
2
C-SWMG
70
0
62
92
6
Continuous
370
0
390
0
0
LAYER
5
24
330
3
100
AcDbSymbolTableRecord
100
AcDbLayerTableRecord
2
C-TOPO-MAJR-E
70
0
62
32
6
DASHED
370
0
390
0
0
LAYER
5
25
330
3
100
AcDbSymbolTableRecord
100
AcDbLayerTableRecord
2
C-TOPO-SPOT
70
0
62
7
6
Continuous
370
0
390
0
0
LAYER
5
26
330
3
100
AcDbSymbolTableRecord
100
AcDbLayerTableRecord
2
C-TOPO-SURF
70
0
62
253
6
Continuous
370
0
390
0
0
LAYER
5
27
330
3
100
AcDbSymbolTableRecord
100
AcDbLayerTableRecord
2
C-UTIL
70
0
62
4
6
DASHED
370
0
390
0
0
LAYER
5
28
330
3
100
AcDbSymbolTableRecord
100
AcDbLayerTableRecord
2
L-PLNT-TREE
70
0
62
90
6
Continuous
370
0
390
0
0
LAYER
5
29
330
3
100
AcDbSymbolTableRecord
100
AcDbLayerTableRecord
2
V-PROP-BNDY
70
0
62
7
6
Continuous
370
0
390
0
0
LAYER
5
2A
330
3
100
AcDbSymbolTableRecord
100
AcDbLayerTableRecord
2
C-ANNO-NPLT
70
0
62
250
6
Continuous
370
0
390
0
0
ENDTAB
0
TABLE
2
STYLE
5
4
330
0
100
AcDbSymbolTable
70
1
0
STYLE
5
16
330
4
100
AcDbSymbolTableRecord
100
AcDbTextStyleTableRecord
2
Standard
70
0
40
0
41
1
50
0
71
0
42
1
3
txt
4

0
ENDTAB
0
TABLE
2
VIEW
5
5
330
0
100
AcDbSymbolTable
70
0
0
ENDTAB
0
TABLE
2
UCS
5
6
330
0
100
AcDbSymbolTable
70
0
0
ENDTAB
0
TABLE
2
APPID
5
7
330
0
100
AcDbSymbolTable
70
1
0
APPID
5
17
330
7
100
AcDbSymbolTableRecord
100
AcDbRegAppTableRecord
2
ACAD
70
0
0
ENDTAB
0
TABLE
2
DIMSTYLE
5
8
330
0
100
AcDbSymbolTable
70
1
100
AcDbDimStyleTable
0
DIMSTYLE
105
18
330
8
100
AcDbSymbolTableRecord
100
AcDbDimStyleTableRecord
2
Standard
70
0
340
16
0
ENDTAB
0
TABLE
2
BLOCK_RECORD
5
9
330
0
100
AcDbSymbolTable
70
2
0
BLOCK_RECORD
5
C
330
9
100
AcDbSymbolTableRecord
100
AcDbBlockTableRecord
2
*Model_Space
70
0
280
1
281
0
0
BLOCK_RECORD
5
F
330
9
100
AcDbSymbolTableRecord
100
AcDbBlockTableRecord
2
*Paper_Space
70
0
280
1
281
0
0
ENDTAB
0
ENDSEC
0
SECTION
2
BLOCKS
0
BLOCK
5
D
330
C
100
AcDbEntity
8
0
100
AcDbBlockBegin
2
*Model_Space
70
0
10
0
20
0
30
0
3
*Model_Space
1

0
ENDBLK
5
E
100
AcDbEntity
8
0
100
AcDbBlockEnd
0
BLOCK
5
10
330
F
100
AcDbEntity
8
0
100
AcDbBlockBegin
2
*Paper_Space
70
0
10
0
20
0
30
0
3
*Paper_Space
1

0
ENDBLK
5
11
100
AcDbEntity
8
0
100
AcDbBlockEnd
0
ENDSEC
0
SECTION
2
ENTITIES
0
TEXT
5
2B
330
C
100
AcDbEntity
8
C-ANNO-NPLT
100
AcDbText
10
1294088.9899008272
20
461515.4483183282
30
0
40
2.5
1
PRELIMINARY - NOT SEALED - NOT FOR CONSTRUCTION OR PERMIT SUBMISSION
7
STANDARD
100
AcDbText
0
TEXT
5
2C
330
C
100
AcDbEntity
8
C-ANNO-NPLT
100
AcDbText
10
1294088.9899008272
20
461511.4483183282
30
0
40
2.5
1
GENERATED 2026-09-25T21:55:34.129Z BY KEALEE SITE PLAN ENGINE
7
STANDARD
100
AcDbText
0
TEXT
5
2D
330
C
100
AcDbEntity
8
C-ANNO-NPLT
100
AcDbText
10
1294088.9899008272
20
461507.4483183282
30
0
40
2.5
1
HORIZONTAL: EPSG:2248
7
STANDARD
100
AcDbText
0
TEXT
5
2E
330
C
100
AcDbEntity
8
C-ANNO-NPLT
100
AcDbText
10
1294088.9899008272
20
461503.4483183282
30
0
40
2.5
1
VERTICAL: NAVD88 (feet)
7
STANDARD
100
AcDbText
0
TEXT
5
2F
330
C
100
AcDbEntity
8
C-ANNO-NPLT
100
AcDbText
10
1294088.9899008272
20
461499.4483183282
30
0
40
2.5
1
SOURCES: Parcel boundary — jurisdiction gis (District of Columbia — Office of the Surveyor / OCTO, Record Lots — DC Office of the Surveyor, Subdivision Book 192 Page 93, level 1); Existing contours (District of Columbia — OCTO — Elevation/MapServer/3 — Topography 2 Foot Contours (2008), level 1)
7
STANDARD
100
AcDbText
0
TEXT
5
30
330
C
100
AcDbEntity
8
C-ANNO-NPLT
100
AcDbText
10
1294088.9899008272
20
461495.4483183282
30
0
40
2.5
1
THIS FILE IS DATA FOR A LICENSED PROFESSIONAL. IT IS NOT A SEALED DRAWING.
7
STANDARD
100
AcDbText
0
LWPOLYLINE
5
31
330
C
100
AcDbEntity
8
V-PROP-BNDY
100
AcDbPolyline
90
7
70
1
43
0
38
0
39
0
10
1294170.0429095626
20
461558.90456213057
10
1294120.0430095643
20
461558.7300218046
10
1294119.3973415643
20
461743.7289956361
10
1294119.3448482305
20
461758.7286375463
10
1294169.3447482288
20
461758.9031778872
10
1294169.3969134837
20
461743.9035359621
10
1294170.0429095626
20
461558.90456213057
0
LWPOLYLINE
5
32
330
C
100
AcDbEntity
8
C-TOPO-MAJR-E
100
AcDbPolyline
90
10
70
0
43
0
38
0
39
0
10
1294096.6637699974
20
461751.3927683292
10
1294103.8094250115
20
461749.35209000664
10
1294110.1840841675
20
461736.6979158374
10
1294111.6932674993
20
461730.82194333064
10
1294113.0777791615
20
461721.9440083329
10
1294113.8684600063
20
461717.73797999765
10
1294116.7555933294
20
461707.66582166945
10
1294119.1374783362
20
461700.0805349939
10
1294125.3513766732
20
461696.2878916591
10
1294125.4235550081
20
461696.07135666645
0
LWPOLYLINE
5
33
330
C
100
AcDbEntity
8
C-TOPO-MAJR-E
100
AcDbPolyline
90
8
70
0
43
0
38
0
39
0
10
1294095.787787509
20
461758.7844858369
10
1294105.4957733378
20
461756.88816416496
10
1294112.2772558432
20
461754.45706667285
10
1294113.9964124963
20
461751.0384383322
10
1294118.6715999865
20
461741.8127349991
10
1294120.1709408273
20
461735.9990983359
10
1294123.6781516552
20
461728.33507167187
10
1294125.266075008
20
461723.7615900011
0
LWPOLYLINE
5
34
330
C
100
AcDbEntity
8
C-TOPO-MAJR-E
100
AcDbPolyline
90
18
70
0
43
0
38
0
39
0
10
1294098.373084157
20
461764.6637391684
10
1294105.5909175016
20
461763.1250283334
10
1294108.0351383241
20
461762.6591499909
10
1294113.6453633294
20
461761.6289683295
10
1294117.5528358258
20
461760.3330391643
10
1294120.4498116656
20
461759.3783166637
10
1294125.1020333252
20
461750.2871275071
10
1294127.5987474904
20
461747.19330167084
10
1294132.086927494
20
461737.60342583613
10
1294137.9399341652
20
461736.875080839
10
1294146.6964783303
20
461734.90658083407
10
1294159.7771608438
20
461736.57652499946
10
1294162.8644250073
20
461736.7241625084
10
1294165.6170441585
20
461736.8225874939
10
1294177.529750003
20
461734.1880783385
10
1294184.0225191796
20
461731.241890002
10
1294186.748891653
20
461722.2491258371
10
1294186.768576668
20
461721.4486024978
0
LWPOLYLINE
5
35
330
C
100
AcDbEntity
8
C-TOPO-MAJR-E
100
AcDbPolyline
90
15
70
0
43
0
38
0
39
0
10
1294093.0154833463
20
461772.5082116678
10
1294101.1421075067
20
461770.95637749124
10
1294106.3848791646
20
461769.9524425008
10
1294110.77463416
20
461768.88617167604
10
1294114.0620291745
20
461768.2300050057
10
1294121.837604168
20
461766.5666224989
10
1294124.934710826
20
461765.3067824971
10
1294128.3894283385
20
461764.1650525055
10
1294137.205027499
20
461752.42951166135
10
1294151.8867566725
20
461749.9426399965
10
1294161.4044541726
20
461750.8579925029
10
1294167.848010823
20
461751.16639082873
10
1294175.0297549968
20
461751.4255766709
10
1294181.0074333209
20
461750.2018258356
10
1294192.2672533332
20
461746.6060324996
0
LWPOLYLINE
5
36
330
C
100
AcDbEntity
8
C-TOPO-MAJR-E
100
AcDbPolyline
90
12
70
0
43
0
38
0
39
0
10
1294118.7634633377
20
461779.151899166
10
1294121.483274157
20
461773.9452166681
10
1294130.9025466496
20
461772.0324908298
10
1294132.887450834
20
461771.2221249981
10
1294138.0514825068
20
461769.9885316673
10
1294141.7325775092
20
461765.5462833422
10
1294155.0166716594
20
461763.5974683344
10
1294158.678081673
20
461763.54497499554
10
1294168.110477508
20
461761.9931408373
10
1294172.391965005
20
461761.20245999657
10
1294179.1406391638
20
461759.56860500376
10
1294190.2921916717
20
461756.5207108386
0
LWPOLYLINE
5
37
330
C
100
AcDbEntity
8
C-TOPO-MAJR-E
100
AcDbPolyline
90
7
70
0
43
0
38
0
39
0
10
1294153.1203499862
20
461780.6446783298
10
1294157.3624675062
20
461773.96162082825
10
1294166.1813475098
20
461771.6650374943
10
1294170.4661158219
20
461770.45112916676
10
1294177.3361808374
20
461768.6105816645
10
1294188.5139799966
20
461765.44785834133
10
1294198.3696033321
20
461759.870441671
0
LWPOLYLINE
5
38
330
C
100
AcDbEntity
8
C-TOPO-MAJR-E
100
AcDbPolyline
90
5
70
0
43
0
38
0
39
0
10
1294098.8356816696
20
461726.320640005
10
1294101.13226501
20
461715.7366716693
10
1294100.9518191821
20
461694.489994985
10
1294100.981346664
20
461691.56021082395
10
1294101.3422383277
20
461681.4158741628
0
LWPOLYLINE
5
39
330
C
100
AcDbEntity
8
C-TOPO-MAJR-E
100
AcDbPolyline
90
11
70
0
43
0
38
0
39
0
10
1294125.266075008
20
461723.7615900011
10
1294126.2896950014
20
461720.80227833823
10
1294135.8008308238
20
461719.056875003
10
1294140.285730009
20
461716.3305025022
10
1294153.9110308362
20
461714.76554500236
10
1294155.918900822
20
461714.4965166646
10
1294157.5855641575
20
461702.3049400071
10
1294155.9943599948
20
461696.6290983359
10
1294156.6472458313
20
461688.558248336
10
1294155.6498725056
20
461679.66718999366
10
1294156.453676664
20
461678.0825474967
0
LWPOLYLINE
5
3A
330
C
100
AcDbEntity
8
C-TOPO-MAJR-E
100
AcDbPolyline
90
7
70
0
43
0
38
0
39
0
10
1294125.4235550081
20
461696.07135666645
10
1294128.4222366654
20
461687.18357917015
10
1294129.629583332
20
461684.82137916796
10
1294132.2772158196
20
461680.67768666404
10
1294133.277870007
20
461677.55761416594
10
1294135.820515838
20
461673.44344916375
10
1294136.7293066564
20
461671.2026400056
0
LWPOLYLINE
5
3B
330
C
100
AcDbEntity
8
C-TOPO-MAJR-E
100
AcDbPolyline
90
7
70
0
43
0
38
0
39
0
10
1294186.768576668
20
461721.4486024978
10
1294186.811227493
20
461719.71632249805
10
1294181.9359091797
20
461706.52409167174
10
1294180.9582208425
20
461703.04640833364
10
1294175.1183375074
20
461691.3502374898
10
1294174.2357933354
20
461685.85156083544
10
1294173.7797575088
20
461684.38502833334
0
LWPOLYLINE
5
3C
330
C
100
AcDbEntity
8
C-TOPO-MAJR-E
100
AcDbPolyline
90
5
70
0
43
0
38
0
39
0
10
1294191.2305100032
20
461701.84890416317
10
1294189.586812493
20
461697.6888074991
10
1294185.5940383326
20
461686.7734749943
10
1294183.7436483412
20
461680.5891041587
10
1294182.9365633428
20
461677.23937333236
0
LWPOLYLINE
5
3D
330
C
100
AcDbEntity
8
C-TOPO-MAJR-E
100
AcDbPolyline
90
17
70
0
43
0
38
0
39
0
10
1294190.5054458308
20
461610.10040000005
10
1294189.9083341775
20
461612.5019699965
10
1294182.8709466683
20
461612.54462083377
10
1294180.318458341
20
461612.5577441662
10
1294170.7023358375
20
461612.6397650007
10
1294159.3670566762
20
461611.3438358325
10
1294157.1623366587
20
461610.95669750293
10
1294148.0153733406
20
461610.1660166592
10
1294144.796875845
20
461609.9757283374
10
1294136.9064716746
20
461610.11352333555
10
1294133.3303633288
20
461610.06102999975
10
1294125.006889161
20
461610.2119483303
10
1294121.8441658202
20
461610.1889825054
10
1294113.123710824
20
461610.3530241684
10
1294110.3415641652
20
461610.3464624915
10
1294101.2602175046
20
461610.5269083361
10
1294099.2129775079
20
461610.56955915806
0
LWPOLYLINE
5
3E
330
C
100
AcDbEntity
8
C-TOPO-MAJR-E
100
AcDbPolyline
90
16
70
0
43
0
38
0
39
0
10
1294190.6268366664
20
461632.04917499836
10
1294184.0946975122
20
461631.373323334
10
1294175.5612500005
20
461628.96519166674
10
1294172.3460333438
20
461627.63317333814
10
1294163.520591661
20
461625.44813832216
10
1294160.0954016598
20
461624.44748416566
10
1294151.7653658374
20
461622.898930826
10
1294148.504217494
20
461622.6167791681
10
1294142.1000308308
20
461622.2460449987
10
1294139.3244458262
20
461621.9245233374
10
1294130.7024158323
20
461621.80969416414
10
1294128.0022900025
20
461621.6981458339
10
1294118.6683191725
20
461621.63909083337
10
1294116.624359993
20
461621.5833166698
10
1294106.6867158317
20
461621.5767549929
10
1294095.7877875085
20
461621.81953666575
0
LWPOLYLINE
5
3F
330
C
100
AcDbEntity
8
C-TOPO-MAJR-E
100
AcDbPolyline
90
17
70
0
43
0
38
0
39
0
10
1294193.7436283387
20
461620.70405333594
10
1294183.91425165
20
461619.96586582495
10
1294180.2200333371
20
461618.9258416589
10
1294172.3394716661
20
461618.02361249406
10
1294167.060610839
20
461616.7440875074
10
1294160.7450066563
20
461616.0223041627
10
1294153.7010574923
20
461614.7854299919
10
1294149.2653708302
20
461614.40157250233
10
1294142.9399241558
20
461614.02755749295
10
1294138.8651291574
20
461614.09973582893
10
1294131.52918584
20
461613.9914683387
10
1294126.903210831
20
461614.0734891641
10
1294120.08892
20
461614.0209958344
10
1294114.9741008335
20
461614.11942084134
10
1294108.6224075085
20
461614.10629749973
10
1294103.0712375042
20
461614.21128416836
10
1294098.0712474913
20
461614.3195516708
0
LWPOLYLINE
5
40
330
C
100
AcDbEntity
8
C-TOPO-MAJR-E
100
AcDbPolyline
90
15
70
0
43
0
38
0
39
0
10
1294191.1419274947
20
461626.79984166624
10
1294188.4057124956
20
461626.60627249535
10
1294185.813854165
20
461626.4127033275
10
1294175.9582308307
20
461623.64039916475
10
1294173.9241141728
20
461623.4074600057
10
1294162.1229566652
20
461620.70077250205
10
1294152.7561775062
20
461619.05707499845
10
1294150.5120875116
20
461618.64040915796
10
1294146.0993666756
20
461618.37794250326
10
1294141.0829724865
20
461618.08266750374
10
1294129.731289176
20
461617.91862583463
10
1294118.3303933388
20
461617.85628999723
10
1294106.89996999
20
461617.86285166495
10
1294104.8822575111
20
461617.90222167445
10
1294096.9295174987
20
461618.0662633252
0
LWPOLYLINE
5
41
330
C
100
AcDbEntity
8
C-TOPO-MAJR-E
100
AcDbPolyline
90
11
70
0
43
0
38
0
39
0
10
1294136.7293066564
20
461671.2026400056
10
1294138.7043683415
20
461666.31091750134
10
1294142.175490002
20
461656.19610833586
10
1294134.2129075034
20
461653.8207850012
10
1294125.7286724888
20
461651.60622249875
10
1294121.302828324
20
461651.3371941702
10
1294115.5154383308
20
461651.41265333095
10
1294111.71295249
20
461651.5110783318
10
1294105.8861924876
20
461651.5865374986
10
1294102.11979584
20
461651.6849625025
10
1294096.2569466732
20
461651.76370250015
0
LWPOLYLINE
5
42
330
C
100
AcDbEntity
8
C-TOPO-MAJR-E
100
AcDbPolyline
90
12
70
0
43
0
38
0
39
0
10
1294101.3422383277
20
461681.4158741628
10
1294101.5784583434
20
461674.79187166784
10
1294106.6342224858
20
461669.61143584095
10
1294111.2995675062
20
461668.43689749535
10
1294113.8061241729
20
461666.77351499465
10
1294121.6374733443
20
461665.0937283398
10
1294127.3526850105
20
461656.1436150031
10
1294124.0718516724
20
461655.2282625058
10
1294123.1893075025
20
461655.1724883331
10
1294113.576465836
20
461655.3102833312
10
1294103.9669050085
20
461655.44479750464
10
1294094.3540633412
20
461655.57603083504
0
LWPOLYLINE
5
43
330
C
100
AcDbEntity
8
C-TOPO-MAJR-E
100
AcDbPolyline
90
19
70
0
43
0
38
0
39
0
10
1294190.9516391645
20
461560.4384258392
10
1294187.8217241785
20
461562.8859274976
10
1294183.7600524947
20
461565.7500950026
10
1294179.0323716602
20
461565.3924841626
10
1294172.500232509
20
461564.92988666624
10
1294170.3283208373
20
461564.5296249951
10
1294161.2666591646
20
461563.5256900016
10
1294154.1997441668
20
461561.97713667416
10
1294150.0593324923
20
461561.383305826
10
1294142.7004233245
20
461559.45417583367
10
1294140.4891416738
20
461556.5768850023
10
1294135.1741916535
20
461555.65497083426
10
1294134.1735374916
20
461557.59394331905
10
1294126.2634483296
20
461556.72452250513
10
1294120.3218591714
20
461556.9443383348
10
1294113.8586175104
20
461556.3964391608
10
1294105.7352741677
20
461555.89119083935
10
1294101.4308208406
20
461555.54342249484
10
1294088.9899008272
20
461554.477151667
0
LWPOLYLINE
5
44
330
C
100
AcDbEntity
8
C-TOPO-MAJR-E
100
AcDbPolyline
90
13
70
0
43
0
38
0
39
0
10
1294196.679974162
20
461557.26914082386
10
1294188.8519058297
20
461557.84000583494
10
1294186.6701516656
20
461559.36231250054
10
1294183.956902502
20
461560.66480333044
10
1294178.9339466526
20
461559.91021165927
10
1294172.7102058239
20
461559.47057999996
10
1294163.1859466662
20
461557.7218958308
10
1294158.031757492
20
461556.7737349949
10
1294153.6551258308
20
461550.76324833604
10
1294149.3637958344
20
461545.484387493
10
1294147.096740002
20
461542.5349183226
10
1294138.3303533413
20
461541.01589249383
10
1294128.0088516572
20
461538.66681583633
0
LWPOLYLINE
5
45
330
C
100
AcDbEntity
8
C-TOPO-MAJR-E
100
AcDbPolyline
90
8
70
0
43
0
38
0
39
0
10
1294120.6827508386
20
461537.84660750604
10
1294121.6079458334
20
461541.6851824966
10
1294120.3710716767
20
461546.1438349972
10
1294120.0298649988
20
461549.8544575035
10
1294113.5469383297
20
461550.06114999455
10
1294108.0056108376
20
461550.2055066757
10
1294101.1486691593
20
461549.85773832817
10
1294092.9334624906
20
461548.8898925073
0
LWPOLYLINE
5
46
330
C
100
AcDbEntity
8
C-TOPO-MAJR-E
100
AcDbPolyline
90
20
70
0
43
0
38
0
39
0
10
1294190.54809668
20
461594.9363883289
10
1294187.8578133448
20
461599.598452505
10
1294185.8401008365
20
461602.97442999925
10
1294184.54417166
20
461604.778888335
10
1294181.1353858362
20
461604.8904366652
10
1294175.1183375062
20
461605.0676016698
10
1294169.8722850066
20
461605.2414858314
10
1294165.7581200046
20
461605.4547400086
10
1294158.835561678
20
461605.6614324966
10
1294156.319162488
20
461605.7237683341
10
1294147.506844169
20
461605.99607750255
10
1294146.768656664
20
461605.9304608374
10
1294146.6505466697
20
461605.92389916966
10
1294141.5619741732
20
461606.0124816658
10
1294134.9740608362
20
461605.9271799974
10
1294123.1696225116
20
461605.75985749136
10
1294113.1433958386
20
461605.62206249934
10
1294102.0476175072
20
461605.4514591686
10
1294099.3934233398
20
461605.2710133332
10
1294094.2425150033
20
461604.62140833976
0
LWPOLYLINE
5
47
330
C
100
AcDbEntity
8
C-TOPO-MAJR-E
100
AcDbPolyline
90
6
70
0
43
0
38
0
39
0
10
1294190.324999998
20
461554.86428999965
10
1294186.2961366633
20
461554.68056332733
10
1294184.143909987
20
461555.7107450009
10
1294173.3663725
20
461554.0932941652
10
1294167.037645013
20
461544.49357583193
10
1294160.4497316708
20
461536.32758166816
0
LWPOLYLINE
5
48
330
C
100
AcDbEntity
8
C-TOPO-MAJR-E
100
AcDbPolyline
90
5
70
0
43
0
38
0
39
0
10
1294110.2070499933
20
461535.4483183282
10
1294109.7083633423
20
461541.72127166
10
1294108.8815933296
20
461543.758669164
10
1294100.8599558298
20
461543.97848500893
10
1294095.1250591755
20
461543.1615574881
0
LWPOLYLINE
5
49
330
C
100
AcDbEntity
8
C-TOPO-MAJR-E
100
AcDbPolyline
90
4
70
0
43
0
38
0
39
0
10
1294193.028406671
20
461563.0040374955
10
1294189.429332494
20
461565.87148582836
10
1294187.654401655
20
461567.25927833276
10
1294183.8092649945
20
461571.07160667074
0
LWPOLYLINE
5
4A
330
C
100
AcDbEntity
8
C-TOPO-MAJR-E
100
AcDbPolyline
90
3
70
0
43
0
38
0
39
0
10
1294191.5782783318
20
461568.03355499497
10
1294188.6320899918
20
461570.5269883245
10
1294188.2252666655
20
461571.1569083391
0
LWPOLYLINE
5
4B
330
C
100
AcDbEntity
8
C-TOPO-MAJR-E
100
AcDbPolyline
90
4
70
0
43
0
38
0
39
0
10
1294188.2252666655
20
461571.1569083391
10
1294187.4608324892
20
461572.3445700019
10
1294183.3335441768
20
461576.9082091619
10
1294183.2023108455
20
461576.90820917103
0
LWPOLYLINE
5
4C
330
C
100
AcDbEntity
8
C-TOPO-MAJR-E
100
AcDbPolyline
90
5
70
0
43
0
38
0
39
0
10
1294190.5448158362
20
461572.88918832975
10
1294187.2442974926
20
461578.01056916226
10
1294185.6432508295
20
461579.78221915936
10
1294183.0842008255
20
461583.368170003
10
1294183.0513925003
20
461583.3714508307
0
LWPOLYLINE
5
4D
330
C
100
AcDbEntity
8
C-TOPO-MAJR-E
100
AcDbPolyline
90
3
70
0
43
0
38
0
39
0
10
1294191.1944208362
20
461578.0565008273
10
1294188.0316974963
20
461582.7382500006
10
1294187.4017774898
20
461583.84060999483
0
LWPOLYLINE
5
4E
330
C
100
AcDbEntity
8
C-TOPO-MAJR-E
100
AcDbPolyline
90
4
70
0
43
0
38
0
39
0
10
1294193.9864099897
20
461551.6523541745
10
1294188.7009875092
20
461551.41285333555
10
1294183.66490833
20
461542.6759941729
10
1294180.7252816684
20
461537.5742983344
0
LWPOLYLINE
5
4F
330
C
100
AcDbEntity
8
C-TOPO-MAJR-E
100
AcDbPolyline
90
17
70
0
43
0
38
0
39
0
10
1294190.5448158358
20
461585.8484799909
10
1294186.6832750055
20
461592.6102774993
10
1294182.5363016694
20
461597.7480624981
10
1294179.0323716598
20
461598.47312666447
10
1294172.7725416606
20
461598.66341499845
10
1294169.0258300053
20
461598.4567224951
10
1294163.664948327
20
461598.5879558286
10
1294158.8454041707
20
461598.2795574966
10
1294154.5311083435
20
461598.3550166726
10
1294148.596080845
20
461598.03021417436
10
1294145.3874258474
20
461598.06630333775
10
1294141.7752283302
20
461598.02365250356
10
1294133.560021661
20
461597.7579050058
10
1294130.784436661
20
461597.7185349871
10
1294119.7608366604
20
461597.4626300063
10
1294108.7142708348
20
461597.23625249363
10
1294097.3953958242
20
461596.4652566653
0
LWPOLYLINE
5
50
330
C
100
AcDbEntity
8
C-TOPO-MAJR-E
100
AcDbPolyline
90
17
70
0
43
0
38
0
39
0
10
1294187.4017774898
20
461583.84060999483
10
1294186.9949541641
20
461584.5591124935
10
1294182.8348574995
20
461589.94624083285
10
1294172.3657183365
20
461592.1148716581
10
1294166.5291158387
20
461591.8556858342
10
1294161.6734824916
20
461591.4488625014
10
1294153.2154941724
20
461590.76644916314
10
1294150.679410003
20
461590.4908591669
10
1294143.9996333413
20
461590.0577891723
10
1294137.1754999885
20
461589.847815832
10
1294132.1361399943
20
461589.53941749095
10
1294126.3093799944
20
461589.3950608281
10
1294120.2890508233
20
461589.1227516779
10
1294115.3842050005
20
461589.0144841724
10
1294108.0121724934
20
461588.5387633283
10
1294103.7503700096
20
461588.25004999345
10
1294095.374402501
20
461587.5413899995
0
LWPOLYLINE
5
51
330
C
100
AcDbEntity
8
C-TOPO-MAJR-E
100
AcDbPolyline
90
15
70
0
43
0
38
0
39
0
10
1294183.0513925003
20
461583.3714508307
10
1294176.873583327
20
461583.59126666345
10
1294171.7456408264
20
461584.6509758327
10
1294164.3801699998
20
461584.503338336
10
1294161.184638337
20
461584.26383749396
10
1294153.0055208341
20
461583.18444333674
10
1294146.5586833213
20
461582.5151533279
10
1294142.6118408367
20
461582.0492749946
10
1294132.726689995
20
461581.4816908357
10
1294130.708977511
20
461581.29796416336
10
1294121.9524333223
20
461580.9173875015
10
1294118.638791661
20
461580.64507833606
10
1294110.3415641636
20
461580.12342583307
10
1294106.017425844
20
461579.73300667264
10
1294098.8914558226
20
461579.13589500287
0
LWPOLYLINE
5
52
330
C
100
AcDbEntity
8
C-TOPO-MAJR-E
100
AcDbPolyline
90
12
70
0
43
0
38
0
39
0
10
1294183.2023108455
20
461576.90820917103
10
1294170.0527308455
20
461577.08865500643
10
1294160.7515683372
20
461576.99023000256
10
1294155.5481666615
20
461576.0847199886
10
1294150.5448958338
20
461575.34981332975
10
1294143.7371666576
20
461574.35244000406
10
1294141.227329154
20
461574.05388416763
10
1294138.8651291577
20
461573.9193699881
10
1294128.36646251
20
461573.0105791616
10
1294116.8704225095
20
461572.07882250415
10
1294105.4268758448
20
461571.08144916623
10
1294094.0883158427
20
461569.95284250093
0
LWPOLYLINE
5
53
330
C
100
AcDbEntity
8
C-TOPO-MAJR-E
100
AcDbPolyline
90
15
70
0
43
0
38
0
39
0
10
1294183.330263335
20
461571.3111074975
10
1294176.9326383248
20
461570.82554416097
10
1294172.2705741706
20
461571.0059900086
10
1294162.3460533414
20
461569.7428691607
10
1294157.6150916696
20
461569.1359150015
10
1294149.803427492
20
461568.013870007
10
1294146.0501541737
20
461567.0296199954
10
1294139.846098333
20
461566.0814591686
10
1294134.370387499
20
461565.61229999835
10
1294127.4740758406
20
461564.8577083333
10
1294123.01214251
20
461564.5132208318
10
1294114.7674083277
20
461563.5781833344
10
1294111.7293566645
20
461563.31571666745
10
1294100.5154683392
20
461562.0329108286
10
1294089.816670838
20
461560.7501049989
0
LWPOLYLINE
5
54
330
C
100
AcDbEntity
8
C-TOPO-MAJR-E
100
AcDbPolyline
90
3
70
0
43
0
38
0
39
0
10
1294183.8092649945
20
461571.07160667074
10
1294183.5467983314
20
461571.3275116607
10
1294183.330263335
20
461571.3111074975
0
LWPOLYLINE
5
55
330
C
100
AcDbEntity
8
C-TOPO-MAJR-E
100
AcDbPolyline
90
19
70
0
43
0
38
0
39
0
10
1294156.453676664
20
461678.0825474967
10
1294158.861808321
20
461673.3384625013
10
1294160.236477511
20
461667.51826416724
10
1294160.8828016666
20
461663.99464917026
10
1294159.6656125062
20
461662.2328416656
10
1294156.899869995
20
461659.7853400011
10
1294156.9950141618
20
461656.24532084086
10
1294151.5849200056
20
461654.47039000684
10
1294144.4786350005
20
461652.1377175034
10
1294141.2535758251
20
461651.5504483291
10
1294135.9747150019
20
461649.9756483276
10
1294131.033780013
20
461649.0045216637
10
1294127.3887741708
20
461647.9874633317
10
1294119.4196299885
20
461647.49861916434
10
1294116.6965383275
20
461647.5347083339
10
1294109.8494391679
20
461647.7151541632
10
1294107.0541691806
20
461647.75124332355
10
1294100.2759675097
20
461647.92840833426
10
1294097.411799999
20
461647.96449750074
0
LWPOLYLINE
5
56
330
C
100
AcDbEntity
8
C-TOPO-MAJR-E
100
AcDbPolyline
90
20
70
0
43
0
38
0
39
0
10
1294173.7797575088
20
461684.38502833334
10
1294171.0008916634
20
461675.43163417187
10
1294172.4313349873
20
461669.2242975022
10
1294171.7357983303
20
461664.20790333825
10
1294170.886062508
20
461661.609483331
10
1294170.1675599972
20
461659.0930841643
10
1294168.622287494
20
461657.4264208297
10
1294166.3814783322
20
461654.28010166675
10
1294163.8289900036
20
461653.7814149886
10
1294160.3709916612
20
461652.13115583564
10
1294154.8920000093
20
461650.13968999364
10
1294150.016681671
20
461649.14559749264
10
1294146.394641664
20
461647.95465500525
10
1294139.8460983383
20
461646.7604316748
10
1294137.7332416677
20
461646.13379249396
10
1294129.0455949886
20
461644.3687041616
10
1294121.5784183203
20
461643.909387496
10
1294117.5429933313
20
461643.67644833704
10
1294107.9859258248
20
461643.9257916715
10
1294098.5666533266
20
461644.16529250133
0
LWPOLYLINE
5
57
330
C
100
AcDbEntity
8
C-TOPO-MAJR-E
100
AcDbPolyline
90
20
70
0
43
0
38
0
39
0
10
1294182.9365633428
20
461677.23937333236
10
1294182.3624174949
20
461674.8542074961
10
1294180.433287496
20
461672.62652166735
10
1294179.3178041773
20
461667.3640649998
10
1294178.9011383317
20
461665.15606416203
10
1294177.972662499
20
461662.17706749897
10
1294176.676733345
20
461658.7584391614
10
1294173.3073175014
20
461651.41921500175
10
1294167.0770149902
20
461650.1889024956
10
1294158.6091841545
20
461646.15019666636
10
1294147.3756108405
20
461643.604270001
10
1294139.5016108465
20
461642.2722516724
10
1294130.728662504
20
461640.69417083403
10
1294127.9727624955
20
461640.5826225038
10
1294119.5869525108
20
461640.0675316624
10
1294115.722130831
20
461639.9691066677
10
1294109.3704375112
20
461640.1364291676
10
1294106.1716250032
20
461640.2315733315
10
1294099.7149449987
20
461640.3988958223
10
1294096.6112766555
20
461640.4677933336
0
LWPOLYLINE
5
58
330
C
100
AcDbEntity
8
C-TOPO-MAJR-E
100
AcDbPolyline
90
23
70
0
43
0
38
0
39
0
10
1294190.6005899971
20
461675.07402333495
10
1294186.3748766535
20
461670.6908300042
10
1294185.2987633396
20
461667.8004158374
10
1294184.708213342
20
461665.60881916597
10
1294183.0973241592
20
461659.81814832456
10
1294182.0408958383
20
461654.44086250203
10
1294179.7344699996
20
461648.76174
10
1294176.4601983216
20
461647.7118733415
10
1294170.3283208385
20
461646.5963899995
10
1294159.6623316633
20
461641.65873584547
10
1294157.063911677
20
461640.9008633343
10
1294150.2004083446
20
461639.64758499415
10
1294147.1426716621
20
461639.37527582864
10
1294141.283103339
20
461638.3877449954
10
1294137.2411166695
20
461637.91530500044
10
1294132.4182916698
20
461637.0065141679
10
1294126.089564153
20
461636.75060916564
10
1294121.2437733274
20
461636.4520533384
10
1294113.901268333
20
461636.2650458291
10
1294110.5220099983
20
461636.3503475067
10
1294104.3573241592
20
461636.54063582845
10
1294100.85995583
20
461636.6292183216
10
1294094.7936949958
20
461636.767013335
0
LWPOLYLINE
5
59
330
C
100
AcDbEntity
8
C-TOPO-MAJR-E
100
AcDbPolyline
90
21
70
0
43
0
38
0
39
0
10
1294191.2403524974
20
461669.1061874981
10
1294189.9575466525
20
461664.7623641678
10
1294189.0225091663
20
461660.7991175023
10
1294188.878152502
20
461658.24334833835
10
1294188.0743483384
20
461654.04388166475
10
1294187.9792041522
20
461651.9867991606
10
1294186.2239583298
20
461646.0812991643
10
1294183.2351191717
20
461645.165946667
10
1294179.7705591654
20
461644.0537441589
10
1294173.5763458426
20
461643.00387749425
10
1294168.0087716642
20
461640.69417082483
10
1294162.7463149882
20
461638.2433883356
10
1294155.6728383368
20
461636.17974416376
10
1294152.0901683362
20
461635.52685832116
10
1294145.84674251
20
461634.969116667
10
1294143.061314989
20
461634.4999575059
10
1294134.1046399984
20
461633.3188574956
10
1294122.8973133287
20
461632.8332941622
10
1294112.080405833
20
461632.55770416895
10
1294102.0082475017
20
461632.8595408423
10
1294092.362597507
20
461633.07607583504
0
LWPOLYLINE
5
5A
330
C
100
AcDbEntity
8
C-TOPO-MAJR-E
100
AcDbPolyline
90
18
70
0
43
0
38
0
39
0
10
1294192.880769165
20
461643.33196083247
10
1294189.193112504
20
461641.53406416444
10
1294185.475928332
20
461640.64167749515
10
1294183.2219958345
20
461640.2381350023
10
1294179.5474625153
20
461639.85755832825
10
1294176.8243708264
20
461639.4113649982
10
1294165.8368599946
20
461634.8313216719
10
1294154.2850458352
20
461631.45862500236
10
1294149.4490975046
20
461630.9993083307
10
1294144.8460883212
20
461630.60232750565
10
1294135.8172349997
20
461629.57870749675
10
1294124.5869424995
20
461629.1489183299
10
1294122.3494141777
20
461629.13579499745
10
1294113.2746291675
20
461628.8962941677
10
1294110.2792283276
20
461628.89301333076
10
1294103.1499774922
20
461629.10954832344
10
1294100.7352841783
20
461629.15876082843
10
1294093.5043275005
20
461629.3228025037
0
LWPOLYLINE
5
5B
330
C
100
AcDbEntity
8
C-TOPO-MAJR-E
100
AcDbPolyline
90
19
70
0
43
0
38
0
39
0
10
1294192.4509800046
20
461637.3017891643
10
1294186.7948233422
20
461636.2880116601
10
1294183.0382691615
20
461635.89759249974
10
1294180.3578283265
20
461635.50389249326
10
1294177.2246324972
20
461634.6213483347
10
1294169.0816041615
20
461631.24208999745
10
1294164.9215074964
20
461630.2119083391
10
1294156.9786100092
20
461627.89235916507
10
1294153.0186441692
20
461627.15745250013
10
1294146.6735125005
20
461626.60955333227
10
1294143.3270624902
20
461626.41598417057
10
1294137.5692000038
20
461625.7532558386
10
1294132.60529916
20
461625.6843583303
10
1294126.292975841
20
461625.42189166346
10
1294120.508866662
20
461625.385802497
10
1294114.951135
20
461625.2414458372
10
1294108.4846124977
20
461625.2348841725
10
1294104.2884266693
20
461625.36283667514
10
1294098.9242641735
20
461625.47438500234
0
LWPOLYLINE
5
5C
330
C
100
AcDbEntity
8
C-SITE-N
100
AcDbPolyline
90
5
70
1
43
0
38
0
39
0
10
1294161.9534018838
20
461583.8764754897
10
1294161.3969631556
20
461743.87534225633
10
1294127.3972937537
20
461743.7566557412
10
1294127.9572320064
20
461583.7578012009
10
1294161.9534018838
20
461583.8764754897
0
LWPOLYLINE
5
5D
330
C
100
AcDbEntity
8
C-BLDG-FTPR-N
100
AcDbPolyline
90
5
70
1
43
0
38
0
39
0
10
1294156.4567440732
20
461743.85809687135
10
1294139.1363415283
20
461743.79763457115
10
1294139.378190729
20
461674.5160243924
10
1294156.698593274
20
461674.5764866926
10
1294156.4567440732
20
461743.85809687135
0
LWPOLYLINE
5
5E
330
C
100
AcDbEntity
8
C-PVMT
100
AcDbPolyline
90
5
70
1
43
0
38
0
39
0
10
1294153.7441443556
20
461758.84871908394
10
1294141.7442174698
20
461758.8068295735
10
1294141.7965793577
20
461743.8069209661
10
1294153.7965062435
20
461743.8488104764
10
1294153.7441443556
20
461758.84871908394
0
LWPOLYLINE
5
5F
330
C
100
AcDbEntity
8
C-PVMT
100
AcDbPolyline
90
5
70
1
43
0
38
0
39
0
10
1294146.7982942897
20
461743.32437797514
10
1294146.7808403273
20
461748.324347511
10
1294136.980900037
20
461748.2901377442
10
1294136.9983539996
20
461743.29016820836
10
1294146.7982942897
20
461743.32437797514
0
LWPOLYLINE
5
60
330
C
100
AcDbEntity
8
C-PVMT
100
AcDbPolyline
90
5
70
1
43
0
38
0
39
0
10
1294151.782555259
20
461747.84180452005
10
1294143.7826040017
20
461747.8138781798
10
1294143.7965671718
20
461743.81390255113
10
1294151.7965184292
20
461743.84182889137
10
1294151.782555259
20
461747.84180452005
0
LWPOLYLINE
5
61
330
C
100
AcDbEntity
8
C-PVMT
100
AcDbPolyline
90
5
70
1
43
0
38
0
39
0
10
1294169.3447482288
20
461758.9031778872
10
1294119.3448482305
20
461758.7286375463
10
1294119.355320608
20
461755.7286558248
10
1294169.3552206063
20
461755.9031961657
10
1294169.3447482288
20
461758.9031778872
0
LWPOLYLINE
5
62
330
C
100
AcDbEntity
8
C-TOPO-SURF
100
AcDbPolyline
90
5
70
1
43
0
38
0
39
0
10
1294169.3307850587
20
461762.9031535159
10
1294119.3308850604
20
461762.728613175
10
1294119.3448482305
20
461758.7286375463
10
1294169.3447482288
20
461758.9031778872
10
1294169.3307850587
20
461762.9031535159
0
LWPOLYLINE
5
63
330
C
100
AcDbEntity
8
C-PVMT
100
AcDbPolyline
90
5
70
1
43
0
38
0
39
0
10
1294169.3255488698
20
461764.4031443766
10
1294119.3256488715
20
461764.2286040357
10
1294119.3308850604
20
461762.728613175
10
1294169.3307850587
20
461762.9031535159
10
1294169.3255488698
20
461764.4031443766
0
LWPOLYLINE
5
64
330
C
100
AcDbEntity
8
C-PVMT
100
AcDbPolyline
90
5
70
1
43
0
38
0
39
0
10
1294138.7250363892
20
461764.2963236853
10
1294156.724926718
20
461764.35915795085
10
1294153.7546167332
20
461755.84873736236
10
1294141.7546898471
20
461755.806847852
10
1294138.7250363892
20
461764.2963236853
0
LWPOLYLINE
5
65
330
C
100
AcDbEntity
8
C-LODS
100
AcDbPolyline
90
9
70
1
43
0
38
0
39
0
10
1294119.3256488715
20
461764.2286040357
10
1294119.355320608
20
461755.7286558248
10
1294139.378190729
20
461674.5160243924
10
1294156.698593274
20
461674.5764866926
10
1294169.3552206063
20
461755.9031961657
10
1294169.3447482288
20
461758.9031778872
10
1294169.3307850587
20
461762.9031535159
10
1294169.3255488698
20
461764.4031443766
10
1294119.3256488715
20
461764.2286040357
0
LWPOLYLINE
5
66
330
C
100
AcDbEntity
8
C-SITE-N
100
AcDbPolyline
90
7
70
1
43
0
38
0
39
0
10
1294169.0697248664
20
461563.80893890513
10
1294121.2831048896
20
461563.5737975616
10
1294121.1936141571
20
461739.0627975293
10
1294120.8743779704
20
461753.96832886146
10
1294168.2036252997
20
461754.0351353175
10
1294168.0401066092
20
461739.09114829014
10
1294169.0697248664
20
461563.80893890513
0
POINT
5
67
330
C
100
AcDbEntity
8
C-TOPO-SPOT
100
AcDbPoint
10
1294148.2303828853
20
461668.8290704425
30
0
0
LWPOLYLINE
5
68
330
C
100
AcDbEntity
8
C-UTIL
100
AcDbPolyline
90
2
70
0
43
0
38
0
39
0
10
1294154.2235163294
20
461788.18991171976
10
1294154.3782957678
20
461743.8508413953
0
LWPOLYLINE
5
69
330
C
100
AcDbEntity
8
C-UTIL
100
AcDbPolyline
90
2
70
0
43
0
38
0
39
0
10
1294146.7757432351
20
461788.16391293064
10
1294146.9305226735
20
461743.82484260626
0
LWPOLYLINE
5
6A
330
C
100
AcDbEntity
8
C-SWMG
100
AcDbPolyline
90
5
70
1
43
0
38
0
39
0
10
1294126.0430095643
20
461564.7300218046
10
1294140.499841859
20
461564.7300218046
10
1294140.499841859
20
461579.1868540994
10
1294126.0430095643
20
461579.1868540994
10
1294126.0430095643
20
461564.7300218046
0
LWPOLYLINE
5
6B
330
C
100
AcDbEntity
8
C-STRM-AREA
100
AcDbPolyline
90
7
70
1
43
0
38
0
39
0
10
1294170.0429095626
20
461558.90456213057
10
1294120.0430095643
20
461558.7300218046
10
1294119.3973415643
20
461743.7289956361
10
1294119.3448482305
20
461758.7286375463
10
1294169.3447482288
20
461758.9031778872
10
1294169.3969134837
20
461743.9035359621
10
1294170.0429095626
20
461558.90456213057
0
LWPOLYLINE
5
6C
330
C
100
AcDbEntity
8
L-PLNT-TREE
100
AcDbPolyline
90
5
70
1
43
0
38
0
39
0
10
1294139.327344267
20
461758.81587725255
10
1294149.327344267
20
461758.81587725255
10
1294149.327344267
20
461768.81587725255
10
1294139.327344267
20
461768.81587725255
10
1294139.327344267
20
461758.81587725255
0
LWPOLYLINE
5
6D
330
C
100
AcDbEntity
8
L-PLNT-TREE
100
AcDbPolyline
90
5
70
1
43
0
38
0
39
0
10
1294143.6253227354
20
461636.366981888
10
1294155.6253227354
20
461636.366981888
10
1294155.6253227354
20
461648.366981888
10
1294143.6253227354
20
461648.366981888
10
1294143.6253227354
20
461636.366981888
0
ENDSEC
0
SECTION
2
OBJECTS
0
DICTIONARY
5
A
330
0
100
AcDbDictionary
281
1
3
ACAD_GROUP
350
B
0
DICTIONARY
5
B
330
A
100
AcDbDictionary
281
0
0
ENDSEC
0
EOF