0
SECTION
2
HEADER
9
$ACADVER
1
AC1021
9
$LASTSAVEDBY
1
@tarikjabiri/dxf
9
$HANDSEED
5
59
9
$INSUNITS
70
0
9
$CLAYER
8
0
9
$VIEWCTR
10
1278230.6870568155
20
484682.846287075
0
ENDSEC
0
SECTION
2
CLASSES
0
ENDSEC
0
SECTION
2
TABLES
0
TABLE
2
VPORT
5
1
330
0
100
AcDbSymbolTable
70
1
0
VPORT
5
19
330
1
100
AcDbSymbolTableRecord
100
AcDbViewportTableRecord
2
*Active
70
0
10
0
20
0
11
1
21
1
12
1278230.6870568155
22
484682.846287075
13
0
23
0
14
10
24
10
15
10
25
10
16
0
26
0
36
1
17
0
27
0
37
0
40
347.3145741588669
41
2
42
50
43
0
44
0
50
0
51
0
71
0
72
100
73
1
74
3
75
0
76
1
77
0
78
0
281
0
65
1
110
0
120
0
130
0
111
1
121
0
131
0
112
0
122
1
132
0
79
0
146
0
348
10020
60
7
61
5
292
1
282
1
141
0
142
0
63
250
421
3358443
0
ENDTAB
0
TABLE
2
LTYPE
5
2
330
0
100
AcDbSymbolTable
70
7
0
LTYPE
5
12
330
2
100
AcDbSymbolTableRecord
100
AcDbLinetypeTableRecord
2
ByBlock
70
0
3

72
65
73
0
40
0
0
LTYPE
5
13
330
2
100
AcDbSymbolTableRecord
100
AcDbLinetypeTableRecord
2
ByLayer
70
0
3

72
65
73
0
40
0
0
LTYPE
5
14
330
2
100
AcDbSymbolTableRecord
100
AcDbLinetypeTableRecord
2
Continuous
70
0
3
Solid line
72
65
73
0
40
0
0
LTYPE
5
1A
330
2
100
AcDbSymbolTableRecord
100
AcDbLinetypeTableRecord
2
DASHED
70
0
3
Dashed __ __ __ __ __ __
72
65
73
2
40
6
49
4
74
0
49
-2
74
0
0
LTYPE
5
1B
330
2
100
AcDbSymbolTableRecord
100
AcDbLinetypeTableRecord
2
HIDDEN
70
0
3
Hidden __ __ __ __ __
72
65
73
2
40
3
49
2
74
0
49
-1
74
0
0
LTYPE
5
1C
330
2
100
AcDbSymbolTableRecord
100
AcDbLinetypeTableRecord
2
PHANTOM
70
0
3
Phantom ____ _ _ ____ _ _
72
65
73
6
40
13
49
8
74
0
49
-1
74
0
49
1
74
0
49
-1
74
0
49
1
74
0
49
-1
74
0
0
LTYPE
5
1D
330
2
100
AcDbSymbolTableRecord
100
AcDbLinetypeTableRecord
2
DASHDOT
70
0
3
Dash dot __ . __ . __ .
72
65
73
4
40
8
49
4
74
0
49
-2
74
0
49
0
74
0
49
-2
74
0
0
ENDTAB
0
TABLE
2
LAYER
5
3
330
0
100
AcDbSymbolTable
70
14
0
LAYER
5
15
330
3
100
AcDbSymbolTableRecord
100
AcDbLayerTableRecord
2
0
70
0
62
7
6
Continuous
370
0
390
0
0
LAYER
5
1E
330
3
100
AcDbSymbolTableRecord
100
AcDbLayerTableRecord
2
C-BLDG-FTPR-N
70
0
62
6
6
Continuous
370
0
390
0
0
LAYER
5
1F
330
3
100
AcDbSymbolTableRecord
100
AcDbLayerTableRecord
2
C-LODS
70
0
62
30
6
PHANTOM
370
0
390
0
0
LAYER
5
20
330
3
100
AcDbSymbolTableRecord
100
AcDbLayerTableRecord
2
C-PVMT
70
0
62
8
6
Continuous
370
0
390
0
0
LAYER
5
21
330
3
100
AcDbSymbolTableRecord
100
AcDbLayerTableRecord
2
C-SITE-N
70
0
62
6
6
Continuous
370
0
390
0
0
LAYER
5
22
330
3
100
AcDbSymbolTableRecord
100
AcDbLayerTableRecord
2
C-STRM-AREA
70
0
62
150
6
PHANTOM
370
0
390
0
0
LAYER
5
23
330
3
100
AcDbSymbolTableRecord
100
AcDbLayerTableRecord
2
C-SWMG
70
0
62
92
6
Continuous
370
0
390
0
0
LAYER
5
24
330
3
100
AcDbSymbolTableRecord
100
AcDbLayerTableRecord
2
C-TOPO-MAJR-E
70
0
62
32
6
DASHED
370
0
390
0
0
LAYER
5
25
330
3
100
AcDbSymbolTableRecord
100
AcDbLayerTableRecord
2
C-TOPO-SPOT
70
0
62
7
6
Continuous
370
0
390
0
0
LAYER
5
26
330
3
100
AcDbSymbolTableRecord
100
AcDbLayerTableRecord
2
C-TOPO-SURF
70
0
62
253
6
Continuous
370
0
390
0
0
LAYER
5
27
330
3
100
AcDbSymbolTableRecord
100
AcDbLayerTableRecord
2
C-UTIL
70
0
62
4
6
DASHED
370
0
390
0
0
LAYER
5
28
330
3
100
AcDbSymbolTableRecord
100
AcDbLayerTableRecord
2
L-PLNT-TREE
70
0
62
90
6
Continuous
370
0
390
0
0
LAYER
5
29
330
3
100
AcDbSymbolTableRecord
100
AcDbLayerTableRecord
2
V-PROP-BNDY
70
0
62
7
6
Continuous
370
0
390
0
0
LAYER
5
2A
330
3
100
AcDbSymbolTableRecord
100
AcDbLayerTableRecord
2
C-ANNO-NPLT
70
0
62
250
6
Continuous
370
0
390
0
0
ENDTAB
0
TABLE
2
STYLE
5
4
330
0
100
AcDbSymbolTable
70
1
0
STYLE
5
16
330
4
100
AcDbSymbolTableRecord
100
AcDbTextStyleTableRecord
2
Standard
70
0
40
0
41
1
50
0
71
0
42
1
3
txt
4

0
ENDTAB
0
TABLE
2
VIEW
5
5
330
0
100
AcDbSymbolTable
70
0
0
ENDTAB
0
TABLE
2
UCS
5
6
330
0
100
AcDbSymbolTable
70
0
0
ENDTAB
0
TABLE
2
APPID
5
7
330
0
100
AcDbSymbolTable
70
1
0
APPID
5
17
330
7
100
AcDbSymbolTableRecord
100
AcDbRegAppTableRecord
2
ACAD
70
0
0
ENDTAB
0
TABLE
2
DIMSTYLE
5
8
330
0
100
AcDbSymbolTable
70
1
100
AcDbDimStyleTable
0
DIMSTYLE
105
18
330
8
100
AcDbSymbolTableRecord
100
AcDbDimStyleTableRecord
2
Standard
70
0
340
16
0
ENDTAB
0
TABLE
2
BLOCK_RECORD
5
9
330
0
100
AcDbSymbolTable
70
2
0
BLOCK_RECORD
5
C
330
9
100
AcDbSymbolTableRecord
100
AcDbBlockTableRecord
2
*Model_Space
70
0
280
1
281
0
0
BLOCK_RECORD
5
F
330
9
100
AcDbSymbolTableRecord
100
AcDbBlockTableRecord
2
*Paper_Space
70
0
280
1
281
0
0
ENDTAB
0
ENDSEC
0
SECTION
2
BLOCKS
0
BLOCK
5
D
330
C
100
AcDbEntity
8
0
100
AcDbBlockBegin
2
*Model_Space
70
0
10
0
20
0
30
0
3
*Model_Space
1

0
ENDBLK
5
E
100
AcDbEntity
8
0
100
AcDbBlockEnd
0
BLOCK
5
10
330
F
100
AcDbEntity
8
0
100
AcDbBlockBegin
2
*Paper_Space
70
0
10
0
20
0
30
0
3
*Paper_Space
1

0
ENDBLK
5
11
100
AcDbEntity
8
0
100
AcDbBlockEnd
0
ENDSEC
0
SECTION
2
ENTITIES
0
TEXT
5
2B
330
C
100
AcDbEntity
8
C-ANNO-NPLT
100
AcDbText
10
1278175.3700000048
20
484629.1889999956
30
0
40
2.5
1
PRELIMINARY - NOT SEALED - NOT FOR CONSTRUCTION OR PERMIT SUBMISSION
7
STANDARD
100
AcDbText
0
TEXT
5
2C
330
C
100
AcDbEntity
8
C-ANNO-NPLT
100
AcDbText
10
1278175.3700000048
20
484625.1889999956
30
0
40
2.5
1
GENERATED 2026-09-25T22:22:43.184Z BY KEALEE SITE PLAN ENGINE
7
STANDARD
100
AcDbText
0
TEXT
5
2D
330
C
100
AcDbEntity
8
C-ANNO-NPLT
100
AcDbText
10
1278175.3700000048
20
484621.1889999956
30
0
40
2.5
1
HORIZONTAL: EPSG:2248
7
STANDARD
100
AcDbText
0
TEXT
5
2E
330
C
100
AcDbEntity
8
C-ANNO-NPLT
100
AcDbText
10
1278175.3700000048
20
484617.1889999956
30
0
40
2.5
1
VERTICAL: NAVD88 (feet)
7
STANDARD
100
AcDbText
0
TEXT
5
2F
330
C
100
AcDbEntity
8
C-ANNO-NPLT
100
AcDbText
10
1278175.3700000048
20
484613.1889999956
30
0
40
2.5
1
SOURCES: Parcel boundary — jurisdiction gis (M-NCPPC Montgomery Planning — parcels (SDAT) — Lot 48, Block 11, subdivision 0062, level 1); Existing contours (M-NCPPC Montgomery Planning — backgrounds/Contours_2ft/MapServer/1 — Contours (2-ft, 2023), level 1)
7
STANDARD
100
AcDbText
0
TEXT
5
30
330
C
100
AcDbEntity
8
C-ANNO-NPLT
100
AcDbText
10
1278175.3700000048
20
484609.1889999956
30
0
40
2.5
1
THIS FILE IS DATA FOR A LICENSED PROFESSIONAL. IT IS NOT A SEALED DRAWING.
7
STANDARD
100
AcDbText
0
LWPOLYLINE
5
31
330
C
100
AcDbEntity
8
V-PROP-BNDY
100
AcDbPolyline
90
9
70
1
43
0
38
0
39
0
10
1278338.4848547876
20
484755.4168448895
10
1278245.852251768
20
484682.9579927027
10
1278209.0755339563
20
484724.5735832155
10
1278202.4009313285
20
484732.13284915686
10
1278290.8672628105
20
484811.15063372254
10
1278300.932717815
20
484800.0377202183
10
1278313.5643390417
20
484785.9580786377
10
1278334.37427634
20
484760.8876199573
10
1278338.4848547876
20
484755.4168448895
0
LWPOLYLINE
5
32
330
C
100
AcDbEntity
8
C-TOPO-MAJR-E
100
AcDbPolyline
90
28
70
0
43
0
38
0
39
0
10
1278177.072999999
20
484739.88650000095
10
1278183.150000006
20
484736.2175000012
10
1278186.0205000043
20
484734.06450000405
10
1278187.1050000042
20
484733.3419999927
10
1278197.8795000017
20
484728.4574999958
10
1278199.3569999933
20
484727.6145000011
10
1278200.2109999955
20
484725.44249999523
10
1278200.9705000073
20
484721.5464999974
10
1278201.947999999
20
484719.9399999976
10
1278202.2129999995
20
484719.52799999714
10
1278205.6745000035
20
484708.638500005
10
1278206.6875
20
484706.49099999666
10
1278209.764500007
20
484702.47499999404
10
1278210.7954999954
20
484701.39450000226
10
1278224.1745000035
20
484690.6835000068
10
1278225.5684999973
20
484690.18000000715
10
1278227.2800000012
20
484689.51950000226
10
1278231.0444999933
20
484686.73999999464
10
1278232.7450000048
20
484685.9444999993
10
1278234.2545000017
20
484684.9169999957
10
1278237.1120000035
20
484680.94200000167
10
1278239.8484999985
20
484677.8125
10
1278241.5830000043
20
484676.1899999976
10
1278243.053000003
20
484674.0729999989
10
1278245.3005000055
20
484669.5735000074
10
1278248.1655000001
20
484664.58200000226
10
1278249.2660000026
20
484663.11599999666
10
1278250.3414999992
20
484661.75349999964
0
LWPOLYLINE
5
33
330
C
100
AcDbEntity
8
C-TOPO-MAJR-E
100
AcDbPolyline
90
4
70
0
43
0
38
0
39
0
10
1278321.2654999942
20
484669.88799999654
10
1278321.838499993
20
484669.4669999927
10
1278322.513500005
20
484663.8955000043
10
1278321.6924999952
20
484661.73999999464
0
LWPOLYLINE
5
34
330
C
100
AcDbEntity
8
C-TOPO-MAJR-E
100
AcDbPolyline
90
27
70
0
43
0
38
0
39
0
10
1278179.100999996
20
484742.9200000018
10
1278182.8830000013
20
484740.8299999982
10
1278189.2185000032
20
484736.262500003
10
1278191.3125
20
484734.575000003
10
1278196.9044999927
20
484732.2775000036
10
1278200.736499995
20
484730.66500000656
10
1278203.275999993
20
484724.72750000656
10
1278203.6309999973
20
484723.1544999927
10
1278204.0744999945
20
484722.57549999654
10
1278205.1064999998
20
484721.5405000001
10
1278207.1724999994
20
484717.76000000536
10
1278213.049999997
20
484709.42450000346
10
1278214.6295000017
20
484707.5995000005
10
1278217.675999999
20
484704.575000003
10
1278223.851999998
20
484699.5444999933
10
1278224.5129999965
20
484699.2189999968
10
1278230.037499994
20
484696.5435000062
10
1278235.2849999964
20
484692.6280000061
10
1278238.5735000074
20
484689.3735000044
10
1278240.662499994
20
484684.97349999845
10
1278243.3334999979
20
484680.93250000477
10
1278243.8324999958
20
484680.21250000596
10
1278247.4070000052
20
484673.40150000155
10
1278249.4934999943
20
484668.7594999969
10
1278250.9375
20
484665.3914999962
10
1278251.885499999
20
484663.79399999976
10
1278254.723000005
20
484659.31749999523
0
LWPOLYLINE
5
35
330
C
100
AcDbEntity
8
C-TOPO-MAJR-E
100
AcDbPolyline
90
17
70
0
43
0
38
0
39
0
10
1278277.4814999998
20
484833.0030000061
10
1278280.1015000045
20
484830.6794999987
10
1278286.077000007
20
484824.1430000067
10
1278289.9204999954
20
484823.0030000061
10
1278300.0195000023
20
484821.563500002
10
1278305.0160000026
20
484818.31849999726
10
1278312.0034999996
20
484813.6439999938
10
1278326.5450000018
20
484817.98700000346
10
1278336.0524999946
20
484823.78450000286
10
1278341.9975000024
20
484821.8449999988
10
1278343.5879999995
20
484820.9800000042
10
1278353.7199999988
20
484820.4305000007
10
1278351.7495000064
20
484825.7865000069
10
1278350.361499995
20
484827.73999999464
10
1278348.4975000024
20
484829.4605000019
10
1278347.4780000001
20
484830.4280000031
10
1278343.3340000063
20
484836.98600000143
0
LWPOLYLINE
5
36
330
C
100
AcDbEntity
8
C-TOPO-MAJR-E
100
AcDbPolyline
90
20
70
0
43
0
38
0
39
0
10
1278281.3630000055
20
484724.48600000143
10
1278282.060499996
20
484723.548999995
10
1278282.600999996
20
484719.8205000013
10
1278281.3014999926
20
484715.56599999964
10
1278278.7129999995
20
484712.8435000032
10
1278277.4580000043
20
484712.1184999943
10
1278272.9574999958
20
484709.90950000286
10
1278268.7900000066
20
484706.17849999666
10
1278265.4909999967
20
484701.2185000032
10
1278263.076000005
20
484698.8155000061
10
1278252.2275000066
20
484694.73149999976
10
1278250.3834999949
20
484692.93950000405
10
1278250.012500003
20
484690.88099999726
10
1278250.4995000064
20
484682.7090000063
10
1278252.327000007
20
484678.138500005
10
1278254.4810000062
20
484674.9294999987
10
1278255.6360000074
20
484671.9485000074
10
1278256.9099999964
20
484668.1850000024
10
1278259.324000001
20
484665.9144999981
10
1278272.1449999958
20
484657.6940000057
0
LWPOLYLINE
5
37
330
C
100
AcDbEntity
8
C-TOPO-MAJR-E
100
AcDbPolyline
90
3
70
0
43
0
38
0
39
0
10
1278282.6745000035
20
484659.076000005
10
1278279.024000004
20
484667.08650000393
10
1278279.361499995
20
484667.5119999945
0
LWPOLYLINE
5
38
330
C
100
AcDbEntity
8
C-TOPO-MAJR-E
100
AcDbPolyline
90
2
70
0
43
0
38
0
39
0
10
1278279.361499995
20
484667.5119999945
10
1278285.3184999973
20
484675.0285000056
0
LWPOLYLINE
5
39
330
C
100
AcDbEntity
8
C-TOPO-MAJR-E
100
AcDbPolyline
90
8
70
0
43
0
38
0
39
0
10
1278289.1920000017
20
484681.6850000024
10
1278289.2329999954
20
484682.7619999945
10
1278289.5964999944
20
484684.313500002
10
1278290.7534999996
20
484686.138500005
10
1278291.985499993
20
484686.33499999344
10
1278296.6305000037
20
484685.638500005
10
1278303.911500007
20
484682.6455000043
10
1278321.2654999942
20
484669.88799999654
0
LWPOLYLINE
5
3A
330
C
100
AcDbEntity
8
C-TOPO-MAJR-E
100
AcDbPolyline
90
22
70
0
43
0
38
0
39
0
10
1278181.200000003
20
484746.0600000024
10
1278182.623999998
20
484745.3005000055
10
1278192.4204999954
20
484738.4634999931
10
1278194.8129999936
20
484735.60099999607
10
1278196.1949999928
20
484735.05900000036
10
1278202.5970000029
20
484734.7785000056
10
1278204.9679999948
20
484732.5219999999
10
1278206.798999995
20
484729.56849999726
10
1278209.0869999975
20
484729.0900000036
10
1278213.6040000021
20
484724.89450000226
10
1278219.6735000014
20
484718.79399999976
10
1278224.547999993
20
484718.2055000067
10
1278233.6484999955
20
484720.65549999475
10
1278241.8754999936
20
484723.299999997
10
1278243.5444999933
20
484723.84450000525
10
1278245.8340000063
20
484725.0544999987
10
1278251.3449999988
20
484731.09999999404
10
1278251.377000004
20
484732.3330000043
10
1278251.4099999964
20
484733.35950000584
10
1278259.5929999948
20
484739.63500000536
10
1278261.9004999995
20
484739.6930000037
10
1278264.3959999979
20
484737.8965000063
0
LWPOLYLINE
5
3B
330
C
100
AcDbEntity
8
C-TOPO-MAJR-E
100
AcDbPolyline
90
5
70
0
43
0
38
0
39
0
10
1278180.8900000006
20
484698.11900000274
10
1278183.8330000043
20
484694.05750000477
10
1278185.7389999926
20
484689.9305000007
10
1278187.372999996
20
484685.2094999999
10
1278189.350999996
20
484681.2469999939
0
LWPOLYLINE
5
3C
330
C
100
AcDbEntity
8
C-TOPO-MAJR-E
100
AcDbPolyline
90
3
70
0
43
0
38
0
39
0
10
1278202.4194999933
20
484696.3480000049
10
1278202.6560000032
20
484696.06049999595
10
1278209.4919999987
20
484685.48450000584
0
LWPOLYLINE
5
3D
330
C
100
AcDbEntity
8
C-TOPO-MAJR-E
100
AcDbPolyline
90
3
70
0
43
0
38
0
39
0
10
1278189.350999996
20
484681.2469999939
10
1278190.7845000029
20
484678.375
10
1278214.9909999967
20
484649.1889999956
0
LWPOLYLINE
5
3E
330
C
100
AcDbEntity
8
C-TOPO-MAJR-E
100
AcDbPolyline
90
22
70
0
43
0
38
0
39
0
10
1278175.3700000048
20
484756.96549999714
10
1278182.560499996
20
484751.6724999994
10
1278186.263500005
20
484749.13249999285
10
1278189.2584999949
20
484748.05349999666
10
1278195.8745000064
20
484749.84299999475
10
1278198.9029999971
20
484750.7049999982
10
1278200.9434999973
20
484751.25450000167
10
1278203.2425000072
20
484752.3410000056
10
1278208.088499993
20
484752.8854999989
10
1278213.5189999938
20
484751.09450000525
10
1278214.3110000044
20
484751.31299999356
10
1278217.8850000054
20
484753.0844999999
10
1278223.113499999
20
484755.2349999994
10
1278224.976999998
20
484756.8125
10
1278228.7794999927
20
484761.9755000025
10
1278234.7900000066
20
484765.62700000405
10
1278243.6025000066
20
484768.8534999937
10
1278247.337500006
20
484770.7224999964
10
1278250.7629999965
20
484773.1630000025
10
1278257.0065000057
20
484778.79299999774
10
1278261.4934999943
20
484781.89849999547
10
1278266.8194999993
20
484783.43549999595
0
LWPOLYLINE
5
3F
330
C
100
AcDbEntity
8
C-TOPO-MAJR-E
100
AcDbPolyline
90
31
70
0
43
0
38
0
39
0
10
1278246.2409999967
20
484832.6780000031
10
1278253.297999993
20
484830.5215000063
10
1278260.223000005
20
484827.2674999982
10
1278266.8774999976
20
484822.700000003
10
1278267.428000003
20
484822.1494999975
10
1278270.009499997
20
484818.59299999475
10
1278273.946999997
20
484812.63899999857
10
1278277.6955000013
20
484807.40000000596
10
1278281.4995000064
20
484804.30650000274
10
1278287.9099999964
20
484799.79549999535
10
1278288.7925000042
20
484798.9724999964
10
1278291.089499995
20
484796.5269999951
10
1278294.0129999965
20
484793.97900000215
10
1278297.236499995
20
484791.91349999607
10
1278298.9720000029
20
484791.14200000465
10
1278302.5900000036
20
484789.28450000286
10
1278306.724999994
20
484785.7744999975
10
1278310.9915000051
20
484781.6544999927
10
1278313.5495000035
20
484778.9159999937
10
1278316.2789999992
20
484775.4264999926
10
1278323.2685000002
20
484767.3505000025
10
1278326.3314999938
20
484763.4549999982
10
1278330.5735000074
20
484757.4835000038
10
1278336.7639999986
20
484751.58349999785
10
1278340.9109999985
20
484749.8400000036
10
1278343.712500006
20
484748.1630000025
10
1278346.9475000054
20
484742.65399999917
10
1278349.5514999926
20
484737.0694999993
10
1278353.1484999955
20
484731.5055000037
10
1278354.9485000074
20
484729.8939999938
10
1278359.5495000035
20
484727.2160000056
0
LWPOLYLINE
5
40
330
C
100
AcDbEntity
8
C-TOPO-MAJR-E
100
AcDbPolyline
90
11
70
0
43
0
38
0
39
0
10
1278180.148000002
20
484727.4724999964
10
1278183.2140000015
20
484727.1850000024
10
1278190.184499994
20
484721.4414999932
10
1278191.6099999994
20
484719.13249999285
10
1278194.864500001
20
484714.18250000477
10
1278195.2294999957
20
484712.751000002
10
1278194.5215000063
20
484706.5464999974
10
1278194.5590000004
20
484706.2280000001
10
1278196.5840000063
20
484702.9224999994
10
1278199.650999993
20
484699.71649999917
10
1278202.4194999933
20
484696.3480000049
0
LWPOLYLINE
5
41
330
C
100
AcDbEntity
8
C-TOPO-MAJR-E
100
AcDbPolyline
90
6
70
0
43
0
38
0
39
0
10
1278209.4919999987
20
484685.48450000584
10
1278211.0004999936
20
484683.1509999931
10
1278211.5925000012
20
484681.625
10
1278212.9274999946
20
484677.55799999833
10
1278217.664499998
20
484668.74400000274
10
1278223.252000004
20
484656.0789999962
0
LWPOLYLINE
5
42
330
C
100
AcDbEntity
8
C-TOPO-MAJR-E
100
AcDbPolyline
90
5
70
0
43
0
38
0
39
0
10
1278285.3184999973
20
484675.0285000056
10
1278286.3159999996
20
484676.28749999404
10
1278288.7985000014
20
484679.31999999285
10
1278289.1620000005
20
484680.9004999995
10
1278289.1920000017
20
484681.6850000024
0
LWPOLYLINE
5
43
330
C
100
AcDbEntity
8
C-TOPO-MAJR-E
100
AcDbPolyline
90
36
70
0
43
0
38
0
39
0
10
1278270.037499994
20
484784.25
10
1278284.251000002
20
484784.45200000703
10
1278284.9705000073
20
484784.0450000018
10
1278287.2205000073
20
484782.11900000274
10
1278289.8725000024
20
484780.49549999833
10
1278294.600999996
20
484778.2199999988
10
1278296.0610000044
20
484777.4159999937
10
1278297.4159999937
20
484775.43250000477
10
1278297.4494999945
20
484770.2325000018
10
1278296.8344999999
20
484766.0294999927
10
1278297.2824999988
20
484761.61200000346
10
1278300.8945000023
20
484756.0869999975
10
1278306.5925000012
20
484748.7960000038
10
1278306.9080000073
20
484744.3190000057
10
1278302.6809999943
20
484737.9290000051
10
1278300.6825000048
20
484734.16400000453
10
1278301.1585000008
20
484732.625
10
1278303.4570000023
20
484731.6289999932
10
1278307.8930000067
20
484732.01299999654
10
1278319.498999998
20
484733.2349999994
10
1278320.6720000058
20
484733.2944999933
10
1278321.138500005
20
484733.28599999845
10
1278327.150000006
20
484731.48549999297
10
1278331.0785000026
20
484727.1044999957
10
1278334.5709999949
20
484720.2119999975
10
1278337.8710000068
20
484716.751000002
10
1278340.924999997
20
484715.875
10
1278341.889500007
20
484715.9089999944
10
1278346.7650000006
20
484716.90000000596
10
1278349.3994999975
20
484717.29950000346
10
1278351.3040000051
20
484717.3235000074
10
1278353.1515000015
20
484716.53049999475
10
1278354.9619999975
20
484714.2460000068
10
1278357.0119999945
20
484709.4969999939
10
1278357.3959999979
20
484708.82950000465
10
1278359.5799999982
20
484705.2475000024
0
LWPOLYLINE
5
44
330
C
100
AcDbEntity
8
C-TOPO-MAJR-E
100
AcDbPolyline
90
6
70
0
43
0
38
0
39
0
10
1278194.085500002
20
484832.5030000061
10
1278195.3344999999
20
484829.10400000215
10
1278197.8344999999
20
484823.2105000019
10
1278201.7880000025
20
484823.5405000001
10
1278215.161500007
20
484830.423999995
10
1278222.7824999988
20
484833.50599999726
0
LWPOLYLINE
5
45
330
C
100
AcDbEntity
8
C-TOPO-MAJR-E
100
AcDbPolyline
90
3
70
0
43
0
38
0
39
0
10
1278264.3959999979
20
484737.8965000063
10
1278279.440500006
20
484727.0680000037
10
1278281.3630000055
20
484724.48600000143
0
LWPOLYLINE
5
46
330
C
100
AcDbEntity
8
C-TOPO-MAJR-E
100
AcDbPolyline
90
3
70
0
43
0
38
0
39
0
10
1278266.8194999993
20
484783.43549999595
10
1278269.6215000004
20
484784.24400000274
10
1278270.037499994
20
484784.25
0
LWPOLYLINE
5
47
330
C
100
AcDbEntity
8
C-SITE-N
100
AcDbPolyline
90
7
70
1
43
0
38
0
39
0
10
1278310.222396403
20
484744.735782447
10
1278291.681768025
20
484767.07232536876
10
1278279.466837311
20
484780.6875093027
10
1278275.3547429217
20
484785.22752753814
10
1278223.274447239
20
484738.7096091906
10
1278255.6472066122
20
484702.04610860394
10
1278310.222396403
20
484744.735782447
0
LWPOLYLINE
5
48
330
C
100
AcDbEntity
8
C-BLDG-FTPR-N
100
AcDbPolyline
90
5
70
1
43
0
38
0
39
0
10
1278302.3990498972
20
484752.5951510191
10
1278283.172795788
20
484775.75769121904
10
1278252.499084651
20
484750.2967288328
10
1278271.7253387603
20
484727.1341886329
10
1278302.3990498972
20
484752.5951510191
0
LWPOLYLINE
5
49
330
C
100
AcDbEntity
8
C-PVMT
100
AcDbPolyline
90
5
70
1
43
0
38
0
39
0
10
1278319.1724892308
20
484779.2017441244
10
1278311.4132371845
20
484788.35577111185
10
1278288.7722354545
20
484769.0118505764
10
1278296.4373618597
20
484759.7774049332
10
1278319.1724892308
20
484779.2017441244
0
LWPOLYLINE
5
4A
330
C
100
AcDbEntity
8
C-PVMT
100
AcDbPolyline
90
5
70
1
43
0
38
0
39
0
10
1278291.6045650302
20
484764.8553310832
10
1278295.406041058
20
484768.1032196296
10
1278289.0401795069
20
484775.55411264405
10
1278285.238703479
20
484772.3062240976
10
1278291.6045650302
20
484764.8553310832
0
LWPOLYLINE
5
4B
330
C
100
AcDbEntity
8
C-PVMT
100
AcDbPolyline
90
5
70
1
43
0
38
0
39
0
10
1278298.2737820016
20
484763.97695474717
10
1278293.0771603275
20
484770.05931639165
10
1278290.0359795052
20
484767.4610055545
10
1278295.2326011793
20
484761.37864391
10
1278298.2737820016
20
484763.97695474717
0
LWPOLYLINE
5
4C
330
C
100
AcDbEntity
8
C-PVMT
100
AcDbPolyline
90
5
70
1
43
0
38
0
39
0
10
1278338.4848547876
20
484755.4168448895
10
1278290.8672628105
20
484811.15063372254
10
1278288.5863771937
20
484809.2019005947
10
1278336.2039691708
20
484753.4681117617
10
1278338.4848547876
20
484755.4168448895
0
LWPOLYLINE
5
4D
330
C
100
AcDbEntity
8
C-TOPO-SURF
100
AcDbPolyline
90
5
70
1
43
0
38
0
39
0
10
1278341.52603561
20
484758.0151557267
10
1278293.9084436328
20
484813.7489445597
10
1278290.8672628105
20
484811.15063372254
10
1278338.4848547876
20
484755.4168448895
10
1278341.52603561
20
484758.0151557267
0
LWPOLYLINE
5
4E
330
C
100
AcDbEntity
8
C-PVMT
100
AcDbPolyline
90
5
70
1
43
0
38
0
39
0
10
1278342.666478418
20
484758.98952229065
10
1278295.048886441
20
484814.7233111237
10
1278293.9084436328
20
484813.7489445597
10
1278341.52603561
20
484758.0151557267
10
1278342.666478418
20
484758.98952229065
0
LWPOLYLINE
5
4F
330
C
100
AcDbEntity
8
C-PVMT
100
AcDbPolyline
90
5
70
1
43
0
38
0
39
0
10
1278313.8236889315
20
484794.2569277175
10
1278325.320215008
20
484780.4066609992
10
1278316.8637236007
20
484777.28612369375
10
1278309.199372883
20
484786.5196348393
10
1278313.8236889315
20
484794.2569277175
0
LWPOLYLINE
5
50
330
C
100
AcDbEntity
8
C-LODS
100
AcDbPolyline
90
11
70
1
43
0
38
0
39
0
10
1278252.499084651
20
484750.2967288328
10
1278271.7253387603
20
484727.1341886329
10
1278336.2039691708
20
484753.4681117617
10
1278338.4848547876
20
484755.4168448895
10
1278341.52603561
20
484758.0151557267
10
1278342.666478418
20
484758.98952229065
10
1278325.320215008
20
484780.4066609992
10
1278313.8236889315
20
484794.2569277175
10
1278295.048886441
20
484814.7233111237
10
1278288.5863771937
20
484809.2019005947
10
1278252.499084651
20
484750.2967288328
0
LWPOLYLINE
5
51
330
C
100
AcDbEntity
8
C-SITE-N
100
AcDbPolyline
90
9
70
1
43
0
38
0
39
0
10
1278333.4859264134
20
484755.520358705
10
1278248.2481719945
20
484687.3465649385
10
1278213.6935481112
20
484726.49033705075
10
1278207.2011401919
20
484733.53213285544
10
1278290.4240545365
20
484806.17031581845
10
1278299.3108423443
20
484795.3080775302
10
1278310.1481560317
20
484782.3070933403
10
1278329.3946875795
20
484760.436293272
10
1278333.4859264134
20
484755.520358705
0
POINT
5
52
330
C
100
AcDbEntity
8
C-TOPO-SPOT
100
AcDbPoint
10
1278286.0041136262
20
484756.50357415446
30
0
0
LWPOLYLINE
5
53
330
C
100
AcDbEntity
8
C-UTIL
100
AcDbPolyline
90
2
70
0
43
0
38
0
39
0
10
1278351.3029829015
20
484797.087098616
10
1278300.4829622179
20
484754.90352880553
0
LWPOLYLINE
5
54
330
C
100
AcDbEntity
8
C-UTIL
100
AcDbPolyline
90
2
70
0
43
0
38
0
39
0
10
1278344.91602397
20
484804.78169123735
10
1278294.0960032863
20
484762.5981214268
0
LWPOLYLINE
5
55
330
C
100
AcDbEntity
8
C-SWMG
100
AcDbPolyline
90
5
70
1
43
0
38
0
39
0
10
1278251.6043471124
20
484699.5630469149
10
1278266.1988666316
20
484699.5630469149
10
1278266.1988666316
20
484714.15756643424
10
1278251.6043471124
20
484714.15756643424
10
1278251.6043471124
20
484699.5630469149
0
LWPOLYLINE
5
56
330
C
100
AcDbEntity
8
C-STRM-AREA
100
AcDbPolyline
90
9
70
1
43
0
38
0
39
0
10
1278338.4848547876
20
484755.4168448895
10
1278245.852251768
20
484682.9579927027
10
1278209.0755339563
20
484724.5735832155
10
1278202.4009313285
20
484732.13284915686
10
1278290.8672628105
20
484811.15063372254
10
1278300.932717815
20
484800.0377202183
10
1278313.5643390417
20
484785.9580786377
10
1278334.37427634
20
484760.8876199573
10
1278338.4848547876
20
484755.4168448895
0
LWPOLYLINE
5
57
330
C
100
AcDbEntity
8
C-SITE-N
100
AcDbPolyline
90
5
70
1
43
0
38
0
39
0
10
1278252.499084651
20
484734.2967288328
10
1278282.499084651
20
484734.2967288328
10
1278282.499084651
20
484750.2967288328
10
1278252.499084651
20
484750.2967288328
10
1278252.499084651
20
484734.2967288328
0
LWPOLYLINE
5
58
330
C
100
AcDbEntity
8
L-PLNT-TREE
100
AcDbPolyline
90
5
70
1
43
0
38
0
39
0
10
1278322.8166040014
20
484771.61632876325
10
1278332.8166040014
20
484771.61632876325
10
1278332.8166040014
20
484781.61632876325
10
1278322.8166040014
20
484781.61632876325
10
1278322.8166040014
20
484771.61632876325
0
ENDSEC
0
SECTION
2
OBJECTS
0
DICTIONARY
5
A
330
0
100
AcDbDictionary
281
1
3
ACAD_GROUP
350
B
0
DICTIONARY
5
B
330
A
100
AcDbDictionary
281
0
0
ENDSEC
0
EOF